<svg width="12" height="7" viewBox="0 0 12 7" fill="none" xmlns="http://www.w3.org/2000/svg">
<path d="M0.859375 3.13672C0.786458 3.20964 0.75 3.3099 0.75 3.4375C0.75 3.5651 0.786458 3.67448 0.859375 3.76562C0.950521 3.83854 1.0599 3.875 1.1875 3.875H9.74609L7.88672 5.76172C7.66797 5.96224 7.65885 6.17188 7.85938 6.39062C8.07812 6.59115 8.28776 6.58203 8.48828 6.36328L11.1133 3.73828C11.168 3.70182 11.2044 3.65625 11.2227 3.60156C11.2409 3.54688 11.25 3.49219 11.25 3.4375C11.25 3.38281 11.2409 3.32812 11.2227 3.27344C11.2044 3.21875 11.168 3.17318 11.1133 3.13672L8.48828 0.511719C8.28776 0.292969 8.07812 0.292969 7.85938 0.511719C7.65885 0.71224 7.66797 0.91276 7.88672 1.11328L9.74609 3H1.1875C1.0599 3 0.950521 3.04557 0.859375 3.13672Z" fill="black"/>
</svg>
