<svg width="40" height="40" viewBox="0 0 40 40" fill="none" xmlns="http://www.w3.org/2000/svg">
<g clip-path="url(#clip0)">
<path d="M19.9994 0C12.4169 0 6.24939 6.1675 6.24939 13.75C6.24939 21.3325 12.4169 27.5 19.9994 27.5C27.5794 27.5 33.7494 21.3325 33.7494 13.75C33.7494 6.1675 27.5794 0 19.9994 0ZM27.2269 11.805L24.8519 14.78L25.1119 18.6675C25.1419 19.1 24.9444 19.5175 24.5869 19.77C24.3694 19.9225 24.1169 20 23.8619 20C23.6969 20 23.5294 19.9675 23.3744 19.9L19.9994 18.4675L16.6269 19.9C16.2269 20.07 15.7669 20.0225 15.4144 19.77C15.0594 19.5175 14.8619 19.1 14.8894 18.6675L15.1494 14.78L12.7744 11.805C12.5094 11.475 12.4319 11.0325 12.5644 10.63C12.6969 10.2275 13.0244 9.9225 13.4344 9.815L16.9794 8.8875L18.9244 5.6125C19.3744 4.8525 20.6244 4.8525 21.0719 5.6125L23.0169 8.8875L26.5644 9.815C26.9719 9.9225 27.2994 10.23 27.4344 10.63C27.5694 11.03 27.4894 11.4725 27.2269 11.805Z" fill="white"/>
<path d="M5.93688 21.8574L0.166881 31.8749C-0.0856195 32.3149 -0.0481195 32.8624 0.259381 33.2624C0.566881 33.6624 1.08438 33.8424 1.57438 33.7074L8.91438 31.7349L10.8669 39.0749C10.9969 39.5624 11.4094 39.9249 11.9094 39.9924C11.9644 39.9974 12.0219 39.9999 12.0744 39.9999C12.5169 39.9999 12.9319 39.7649 13.1569 39.3749L18.6144 29.9299C13.1919 29.4699 8.53188 26.3374 5.93688 21.8574Z" fill="white"/>
<path d="M39.8344 31.8749L34.0619 21.8574C31.4694 26.3374 26.8069 29.4699 21.3844 29.9299L26.8419 39.3749C27.0669 39.7649 27.4819 39.9999 27.9244 39.9999C27.9769 39.9999 28.0344 39.9974 28.0869 39.9899C28.5894 39.9224 28.9994 39.5599 29.1319 39.0724L31.0844 31.7324L38.4244 33.7049C38.9144 33.8399 39.4294 33.6599 39.7394 33.2599C40.0494 32.8624 40.0844 32.3149 39.8344 31.8749Z" fill="white"/>
</g>
<defs>
<clipPath id="clip0">
<rect width="40" height="40" fill="white"/>
</clipPath>
</defs>
</svg>
