<svg width="20" height="19" viewBox="0 0 20 19" fill="none" xmlns="http://www.w3.org/2000/svg">
<path d="M16.8906 2.26953C15.4609 0.839844 13.7383 0.125 11.7227 0.125C9.70703 0.125 7.98438 0.839844 6.55469 2.26953C5.125 3.69922 4.41016 5.42188 4.41016 7.4375C4.41016 9.14844 4.94922 10.6836 6.02734 12.043L1.21094 16.8594C1.04688 17 0.964844 17.1758 0.964844 17.3867C0.964844 17.6211 1.03516 17.8086 1.17578 17.9492C1.33984 18.1133 1.52734 18.1953 1.73828 18.1953C1.97266 18.1953 2.16016 18.1133 2.30078 17.9492L7.11719 13.1328C8.47656 14.2109 10.0117 14.75 11.7227 14.75C13.7383 14.75 15.4609 14.0352 16.8906 12.6055C18.3203 11.1758 19.0352 9.45312 19.0352 7.4375C19.0352 5.42188 18.3203 3.69922 16.8906 2.26953ZM16.082 11.832C14.8867 13.0273 13.4336 13.625 11.7227 13.625C10.0117 13.625 8.54688 13.0273 7.32812 11.832C6.13281 10.6133 5.53516 9.14844 5.53516 7.4375C5.53516 5.72656 6.13281 4.27344 7.32812 3.07812C8.54688 1.85937 10.0117 1.25 11.7227 1.25C13.4336 1.25 14.8867 1.85937 16.082 3.07812C17.3008 4.27344 17.9102 5.72656 17.9102 7.4375C17.9102 9.14844 17.3008 10.6133 16.082 11.832Z" fill="black"/>
</svg>
