<svg id="svg" version="1.1" xmlns="http://www.w3.org/2000/svg" xmlns:xlink="http://www.w3.org/1999/xlink" width="400" height="74.6875" viewBox="0, 0, 400,74.6875"><g id="svgg"><path id="path0" d="M31.583 1.356 C 30.942 1.431,30.023 1.539,29.542 1.595 C 29.060 1.652,28.667 1.767,28.667 1.849 C 28.667 1.932,28.334 2.000,27.927 2.000 C 27.519 2.000,27.140 2.075,27.083 2.167 C 27.027 2.258,26.722 2.333,26.407 2.333 C 26.091 2.333,25.833 2.408,25.833 2.500 C 25.833 2.592,25.608 2.667,25.333 2.667 C 25.058 2.667,24.833 2.742,24.833 2.833 C 24.833 2.925,24.650 3.000,24.427 3.000 C 24.203 3.000,23.973 3.075,23.917 3.167 C 23.860 3.258,23.631 3.333,23.407 3.333 C 23.183 3.333,23.000 3.408,23.000 3.500 C 23.000 3.592,22.831 3.667,22.625 3.668 C 22.419 3.668,22.035 3.781,21.773 3.918 C 21.510 4.055,21.191 4.167,21.064 4.167 C 20.937 4.167,20.833 4.242,20.833 4.333 C 20.833 4.425,20.683 4.500,20.500 4.500 C 20.317 4.500,20.167 4.575,20.167 4.667 C 20.167 4.758,20.017 4.833,19.833 4.833 C 19.650 4.833,19.500 4.908,19.500 5.000 C 19.500 5.092,19.350 5.167,19.167 5.167 C 18.983 5.167,18.833 5.242,18.833 5.333 C 18.833 5.425,18.721 5.500,18.583 5.500 C 18.446 5.500,18.333 5.575,18.333 5.667 C 18.333 5.758,18.190 5.833,18.014 5.833 C 17.838 5.833,17.669 5.890,17.639 5.958 C 17.608 6.027,17.283 6.232,16.917 6.414 C 16.550 6.596,16.129 6.878,15.980 7.039 C 15.832 7.201,15.619 7.333,15.506 7.333 C 15.393 7.333,15.090 7.558,14.833 7.833 C 14.576 8.108,14.318 8.333,14.259 8.333 C 14.130 8.333,13.831 8.576,13.080 9.292 C 12.767 9.590,12.461 9.833,12.401 9.833 C 12.340 9.833,11.794 10.355,11.187 10.992 C 9.399 12.871,8.935 13.395,8.597 13.920 C 8.421 14.193,8.140 14.538,7.972 14.686 C 7.804 14.834,7.667 15.051,7.667 15.167 C 7.667 15.283,7.535 15.500,7.375 15.649 C 7.010 15.990,6.780 16.353,6.230 17.458 C 5.990 17.940,5.742 18.333,5.678 18.333 C 5.614 18.333,5.459 18.596,5.333 18.917 C 5.207 19.238,5.043 19.500,4.969 19.500 C 4.894 19.500,4.833 19.601,4.833 19.724 C 4.833 19.848,4.728 20.167,4.599 20.433 C 3.941 21.794,3.667 22.522,3.667 22.908 C 3.667 23.142,3.592 23.333,3.500 23.333 C 3.408 23.333,3.333 23.521,3.333 23.750 C 3.333 23.979,3.258 24.167,3.167 24.167 C 3.075 24.167,3.000 24.392,3.000 24.667 C 3.000 24.942,2.925 25.167,2.833 25.167 C 2.742 25.167,2.667 25.387,2.667 25.657 C 2.667 25.926,2.592 26.193,2.500 26.250 C 2.408 26.307,2.333 26.569,2.333 26.833 C 2.333 27.098,2.258 27.360,2.167 27.417 C 2.075 27.473,2.000 27.853,2.000 28.260 C 2.000 28.667,1.925 29.000,1.833 29.000 C 1.742 29.000,1.667 29.398,1.667 29.883 C 1.667 30.369,1.581 30.852,1.476 30.957 C 1.204 31.229,1.086 40.901,1.329 43.083 C 1.669 46.151,1.698 46.333,1.849 46.333 C 1.932 46.333,2.000 46.633,2.000 47.000 C 2.000 47.367,2.075 47.667,2.167 47.667 C 2.258 47.667,2.333 47.929,2.333 48.250 C 2.333 48.571,2.408 48.833,2.500 48.833 C 2.592 48.833,2.667 49.058,2.667 49.333 C 2.667 49.608,2.742 49.833,2.833 49.833 C 2.925 49.833,3.000 50.058,3.000 50.333 C 3.000 50.608,3.075 50.833,3.167 50.833 C 3.258 50.833,3.333 51.021,3.333 51.250 C 3.333 51.479,3.402 51.667,3.485 51.667 C 3.569 51.667,3.688 51.966,3.750 52.332 C 3.812 52.699,3.931 53.041,4.015 53.092 C 4.098 53.144,4.167 53.332,4.167 53.510 C 4.167 53.688,4.242 53.833,4.333 53.833 C 4.425 53.833,4.500 53.983,4.500 54.167 C 4.500 54.350,4.575 54.500,4.667 54.500 C 4.758 54.500,4.833 54.650,4.833 54.833 C 4.833 55.017,4.894 55.167,4.969 55.167 C 5.043 55.167,5.207 55.429,5.333 55.750 C 5.459 56.071,5.614 56.333,5.678 56.333 C 5.742 56.333,5.990 56.727,6.230 57.208 C 6.780 58.313,7.010 58.677,7.375 59.017 C 7.535 59.167,7.667 59.358,7.667 59.443 C 7.667 59.527,7.967 59.928,8.333 60.333 C 8.700 60.738,9.000 61.128,9.000 61.198 C 9.000 61.399,13.650 66.000,13.852 66.000 C 13.952 66.000,14.243 66.225,14.500 66.500 C 14.757 66.775,15.038 67.000,15.125 67.000 C 15.213 67.000,15.519 67.225,15.807 67.500 C 16.095 67.775,16.397 68.000,16.478 68.000 C 16.559 68.000,16.719 68.112,16.833 68.250 C 16.947 68.387,17.182 68.500,17.354 68.500 C 17.526 68.500,17.667 68.575,17.667 68.667 C 17.667 68.758,17.789 68.833,17.939 68.833 C 18.088 68.833,18.332 68.970,18.480 69.138 C 18.629 69.305,18.994 69.548,19.292 69.678 C 19.590 69.808,19.833 69.971,19.833 70.041 C 19.833 70.110,19.983 70.167,20.167 70.167 C 20.350 70.167,20.500 70.242,20.500 70.333 C 20.500 70.425,20.650 70.500,20.833 70.500 C 21.017 70.500,21.167 70.572,21.167 70.659 C 21.167 70.747,21.429 70.867,21.750 70.928 C 22.071 70.988,22.333 71.104,22.333 71.185 C 22.333 71.267,22.558 71.333,22.833 71.333 C 23.108 71.333,23.333 71.408,23.333 71.500 C 23.333 71.592,23.483 71.667,23.667 71.667 C 23.850 71.667,24.000 71.742,24.000 71.833 C 24.000 71.925,24.188 72.000,24.417 72.000 C 24.646 72.000,24.833 72.075,24.833 72.167 C 24.833 72.258,25.058 72.333,25.333 72.333 C 25.608 72.333,25.833 72.408,25.833 72.500 C 25.833 72.592,26.096 72.667,26.417 72.667 C 26.738 72.667,27.000 72.742,27.000 72.833 C 27.000 72.925,27.192 73.000,27.428 73.000 C 27.663 73.000,27.991 73.072,28.156 73.161 C 28.321 73.249,29.067 73.373,29.812 73.435 C 30.557 73.497,31.167 73.612,31.167 73.691 C 31.167 73.769,31.804 73.833,32.583 73.833 C 33.417 73.833,34.000 73.902,34.000 74.000 C 34.000 74.106,35.222 74.167,37.333 74.167 C 39.444 74.167,40.667 74.106,40.667 74.000 C 40.667 73.901,41.306 73.833,42.250 73.833 C 43.194 73.833,43.833 73.766,43.833 73.667 C 43.833 73.575,44.227 73.496,44.708 73.490 C 45.190 73.485,45.958 73.405,46.417 73.313 C 46.875 73.220,47.532 73.105,47.876 73.055 C 48.220 73.005,48.544 72.898,48.594 72.816 C 48.645 72.734,48.944 72.667,49.260 72.667 C 49.575 72.667,49.833 72.592,49.833 72.500 C 49.833 72.408,50.058 72.333,50.333 72.333 C 50.608 72.333,50.833 72.258,50.833 72.167 C 50.833 72.075,51.021 72.000,51.250 72.000 C 51.479 72.000,51.667 71.925,51.667 71.833 C 51.667 71.742,51.892 71.667,52.167 71.667 C 52.442 71.667,52.667 71.592,52.667 71.500 C 52.667 71.408,52.854 71.333,53.083 71.333 C 53.313 71.333,53.500 71.265,53.500 71.181 C 53.500 71.098,53.800 70.979,54.167 70.917 C 54.533 70.855,54.833 70.736,54.833 70.652 C 54.833 70.568,54.983 70.500,55.167 70.500 C 55.350 70.500,55.500 70.439,55.500 70.364 C 55.500 70.290,55.762 70.126,56.083 70.000 C 56.404 69.874,56.667 69.710,56.667 69.636 C 56.667 69.561,56.817 69.500,57.000 69.500 C 57.183 69.500,57.333 69.425,57.333 69.333 C 57.333 69.242,57.483 69.167,57.667 69.167 C 57.850 69.167,58.000 69.092,58.000 69.000 C 58.000 68.908,58.112 68.833,58.250 68.833 C 58.387 68.833,58.500 68.773,58.500 68.699 C 58.500 68.625,58.800 68.432,59.167 68.270 C 59.533 68.108,59.833 67.906,59.833 67.821 C 59.833 67.736,59.935 67.667,60.059 67.667 C 60.540 67.667,61.333 66.687,61.333 66.092 C 61.333 65.777,61.408 65.473,61.500 65.417 C 61.592 65.360,61.667 64.981,61.667 64.573 C 61.667 64.166,61.742 63.833,61.833 63.833 C 61.925 63.833,62.000 63.571,62.000 63.250 C 62.000 62.929,62.075 62.667,62.167 62.667 C 62.258 62.667,62.333 62.367,62.333 62.000 C 62.333 61.633,62.408 61.333,62.500 61.333 C 62.592 61.333,62.667 61.075,62.667 60.760 C 62.667 60.444,62.742 60.140,62.833 60.083 C 62.925 60.027,63.000 59.722,63.000 59.407 C 63.000 59.091,63.075 58.833,63.167 58.833 C 63.258 58.833,63.333 58.586,63.333 58.283 C 63.333 57.981,63.410 57.657,63.503 57.563 C 63.597 57.470,63.720 56.892,63.778 56.280 L 63.882 55.167 61.008 55.167 C 58.276 55.167,58.131 55.183,58.048 55.500 C 58.000 55.683,57.895 55.833,57.814 55.833 C 57.733 55.833,57.667 56.021,57.667 56.250 C 57.667 56.479,57.592 56.667,57.500 56.667 C 57.408 56.667,57.333 56.782,57.333 56.924 C 57.333 57.065,57.256 57.271,57.161 57.382 C 56.917 57.667,55.833 59.518,55.833 59.650 C 55.833 59.710,55.683 59.868,55.500 60.000 C 55.317 60.132,55.167 60.327,55.167 60.434 C 55.167 60.541,54.435 61.354,53.542 62.242 C 51.340 64.429,51.262 64.500,51.073 64.500 C 50.981 64.500,50.799 64.650,50.667 64.833 C 50.535 65.017,50.293 65.167,50.130 65.167 C 49.967 65.167,49.833 65.242,49.833 65.333 C 49.833 65.425,49.721 65.500,49.583 65.500 C 49.446 65.500,49.333 65.575,49.333 65.667 C 49.333 65.758,49.254 65.833,49.156 65.833 C 49.058 65.833,48.569 66.021,48.068 66.250 C 47.567 66.479,47.047 66.667,46.912 66.667 C 46.777 66.667,46.667 66.742,46.667 66.833 C 46.667 66.925,46.479 67.000,46.250 67.000 C 46.021 67.000,45.833 67.075,45.833 67.167 C 45.833 67.258,45.575 67.333,45.260 67.333 C 44.944 67.333,44.640 67.408,44.583 67.500 C 44.527 67.592,44.222 67.667,43.907 67.667 C 43.591 67.667,43.333 67.742,43.333 67.833 C 43.333 67.931,42.750 68.000,41.917 68.000 C 41.083 68.000,40.500 68.069,40.500 68.167 C 40.500 68.262,40.000 68.333,39.333 68.333 C 38.667 68.333,38.167 68.262,38.167 68.167 C 38.167 68.072,37.670 68.000,37.010 68.000 C 36.374 68.000,35.807 67.925,35.750 67.833 C 35.693 67.742,35.314 67.667,34.907 67.667 C 34.500 67.667,34.167 67.592,34.167 67.500 C 34.167 67.408,33.984 67.333,33.760 67.333 C 33.536 67.333,33.307 67.258,33.250 67.167 C 33.193 67.075,32.964 67.000,32.740 67.000 C 32.516 67.000,32.333 66.925,32.333 66.833 C 32.333 66.742,32.196 66.667,32.028 66.667 C 31.860 66.667,31.354 66.479,30.903 66.251 C 30.452 66.022,29.952 65.834,29.792 65.834 C 29.631 65.834,29.500 65.758,29.500 65.667 C 29.500 65.575,29.367 65.500,29.203 65.500 C 29.040 65.500,28.799 65.350,28.667 65.167 C 28.535 64.983,28.330 64.833,28.213 64.833 C 28.096 64.833,28.000 64.771,28.000 64.695 C 28.000 64.619,27.794 64.450,27.542 64.320 C 27.076 64.079,26.838 63.914,26.423 63.542 C 26.295 63.427,26.146 63.333,26.093 63.333 C 25.934 63.333,22.333 59.690,22.333 59.529 C 22.333 59.449,22.108 59.147,21.833 58.860 C 21.558 58.572,21.333 58.272,21.333 58.194 C 21.333 58.116,21.146 57.834,20.917 57.568 C 20.688 57.301,20.500 56.990,20.500 56.875 C 20.500 56.760,20.425 56.667,20.333 56.667 C 20.242 56.667,20.167 56.554,20.167 56.417 C 20.167 56.279,20.092 56.167,20.000 56.167 C 19.908 56.167,19.833 56.068,19.833 55.948 C 19.833 55.828,19.683 55.569,19.500 55.372 C 19.317 55.175,19.167 54.898,19.167 54.757 C 19.167 54.616,19.100 54.500,19.019 54.500 C 18.937 54.500,18.821 54.237,18.761 53.917 C 18.701 53.596,18.594 53.333,18.523 53.333 C 18.452 53.333,18.291 52.958,18.167 52.500 C 18.042 52.042,17.878 51.667,17.803 51.667 C 17.728 51.667,17.667 51.479,17.667 51.250 C 17.667 51.021,17.592 50.833,17.500 50.833 C 17.408 50.833,17.333 50.688,17.333 50.510 C 17.333 50.332,17.258 50.140,17.167 50.083 C 17.075 50.027,17.000 49.760,17.000 49.490 C 17.000 49.221,16.925 49.000,16.833 49.000 C 16.742 49.000,16.667 48.775,16.667 48.500 C 16.667 48.225,16.605 48.000,16.530 48.000 C 16.392 48.000,16.060 46.063,15.894 44.292 C 15.844 43.765,15.735 43.333,15.652 43.333 C 15.568 43.333,15.500 42.588,15.500 41.677 C 15.500 40.752,15.426 39.974,15.333 39.917 C 15.238 39.858,15.167 39.002,15.167 37.917 C 15.167 36.832,15.238 35.976,15.333 35.917 C 15.431 35.856,15.500 34.887,15.500 33.573 C 15.500 32.325,15.568 31.333,15.653 31.333 C 15.737 31.333,15.845 30.827,15.893 30.208 C 16.049 28.195,16.378 26.000,16.524 26.000 C 16.602 26.000,16.667 25.738,16.667 25.417 C 16.667 25.096,16.742 24.833,16.833 24.833 C 16.925 24.833,17.000 24.575,17.000 24.260 C 17.000 23.944,17.075 23.640,17.167 23.583 C 17.258 23.527,17.333 23.297,17.333 23.073 C 17.333 22.850,17.408 22.667,17.500 22.667 C 17.592 22.667,17.667 22.442,17.667 22.167 C 17.667 21.892,17.742 21.667,17.833 21.667 C 17.925 21.667,18.000 21.553,18.000 21.414 C 18.000 21.276,18.069 21.032,18.153 20.873 C 18.503 20.208,18.833 19.348,18.833 19.100 C 18.833 18.953,18.908 18.833,19.000 18.833 C 19.092 18.833,19.167 18.721,19.167 18.583 C 19.167 18.446,19.242 18.333,19.333 18.333 C 19.425 18.333,19.500 18.183,19.500 18.000 C 19.500 17.817,19.575 17.667,19.667 17.667 C 19.758 17.667,19.833 17.517,19.833 17.333 C 19.833 17.150,19.890 16.999,19.958 16.999 C 20.027 16.998,20.381 16.529,20.745 15.957 C 21.109 15.385,21.540 14.795,21.703 14.647 C 21.867 14.499,22.000 14.319,22.000 14.247 C 22.000 14.175,22.394 13.725,22.875 13.246 C 23.356 12.768,23.863 12.234,24.000 12.061 C 24.137 11.887,24.446 11.645,24.686 11.523 C 24.925 11.401,25.316 11.121,25.553 10.901 C 25.791 10.680,26.064 10.500,26.159 10.500 C 26.255 10.500,26.333 10.434,26.333 10.354 C 26.333 10.273,26.558 10.114,26.833 10.000 C 27.108 9.886,27.333 9.727,27.333 9.646 C 27.333 9.566,27.483 9.500,27.667 9.500 C 27.850 9.500,28.000 9.443,28.000 9.374 C 28.000 9.223,28.618 8.945,29.750 8.587 C 30.208 8.441,30.714 8.250,30.873 8.161 C 31.032 8.073,31.351 8.000,31.581 8.000 C 31.811 8.000,32.000 7.925,32.000 7.833 C 32.000 7.742,32.300 7.667,32.667 7.667 C 33.033 7.667,33.333 7.592,33.333 7.500 C 33.333 7.408,33.774 7.333,34.323 7.333 C 34.868 7.333,35.360 7.258,35.417 7.167 C 35.556 6.942,40.833 6.942,40.833 7.167 C 40.833 7.261,41.302 7.333,41.907 7.333 C 42.497 7.333,43.027 7.408,43.083 7.500 C 43.140 7.592,43.482 7.667,43.843 7.667 C 44.204 7.667,44.500 7.742,44.500 7.833 C 44.500 7.925,44.800 8.000,45.167 8.000 C 45.533 8.000,45.833 8.059,45.833 8.131 C 45.833 8.204,46.321 8.410,46.917 8.590 C 47.512 8.770,48.000 8.973,48.000 9.042 C 48.000 9.110,48.150 9.167,48.333 9.167 C 48.517 9.167,48.667 9.242,48.667 9.333 C 48.667 9.425,48.779 9.500,48.917 9.500 C 49.054 9.500,49.167 9.575,49.167 9.667 C 49.167 9.758,49.300 9.833,49.463 9.833 C 49.626 9.833,49.868 9.983,50.000 10.167 C 50.132 10.350,50.344 10.500,50.471 10.500 C 50.767 10.500,53.942 13.720,54.082 14.164 C 54.141 14.349,54.259 14.500,54.345 14.500 C 54.430 14.500,54.500 14.598,54.500 14.719 C 54.500 14.839,54.635 15.083,54.801 15.260 C 54.966 15.438,55.210 15.827,55.342 16.125 C 55.473 16.423,55.638 16.667,55.707 16.667 C 55.777 16.667,55.833 16.817,55.833 17.000 C 55.833 17.183,55.900 17.333,55.981 17.333 C 56.062 17.333,56.179 17.669,56.241 18.079 C 56.302 18.490,56.423 18.869,56.510 18.923 C 56.596 18.976,56.667 19.203,56.667 19.427 C 56.667 19.650,56.742 19.833,56.833 19.833 C 56.925 19.833,57.000 20.096,57.000 20.417 C 57.000 20.737,57.075 21.000,57.167 21.000 C 57.258 21.000,57.333 21.150,57.333 21.333 C 57.333 21.653,57.444 21.667,60.000 21.667 L 62.667 21.667 62.667 20.343 C 62.667 19.615,62.592 18.973,62.500 18.917 C 62.408 18.860,62.333 18.218,62.333 17.490 C 62.333 16.719,62.264 16.167,62.167 16.167 C 62.067 16.167,62.000 15.528,62.000 14.583 C 62.000 13.639,61.933 13.000,61.833 13.000 C 61.733 13.000,61.667 12.309,61.667 11.260 C 61.667 10.280,61.594 9.475,61.500 9.417 C 61.408 9.360,61.333 8.649,61.333 7.837 C 61.333 6.035,61.266 5.833,60.659 5.833 C 60.399 5.833,60.140 5.758,60.083 5.667 C 60.027 5.575,59.722 5.500,59.407 5.500 C 59.091 5.500,58.833 5.425,58.833 5.333 C 58.833 5.242,58.646 5.167,58.417 5.167 C 58.188 5.167,58.000 5.092,58.000 5.000 C 58.000 4.908,57.775 4.833,57.500 4.833 C 57.225 4.833,57.000 4.758,57.000 4.667 C 57.000 4.575,56.817 4.500,56.593 4.500 C 56.369 4.500,56.140 4.425,56.083 4.333 C 56.027 4.242,55.802 4.167,55.583 4.167 C 55.365 4.167,55.143 4.097,55.091 4.012 C 55.038 3.926,54.583 3.805,54.081 3.742 C 53.578 3.680,53.167 3.562,53.167 3.481 C 53.167 3.400,52.904 3.333,52.583 3.333 C 52.262 3.333,52.000 3.258,52.000 3.167 C 52.000 3.075,51.737 3.000,51.417 3.000 C 51.096 3.000,50.833 2.925,50.833 2.833 C 50.833 2.742,50.533 2.667,50.167 2.667 C 49.800 2.667,49.500 2.592,49.500 2.500 C 49.500 2.408,49.242 2.333,48.927 2.333 C 48.611 2.333,48.307 2.258,48.250 2.167 C 48.193 2.075,47.829 2.000,47.440 2.000 C 47.051 2.000,46.662 1.932,46.575 1.849 C 46.418 1.698,45.952 1.631,43.083 1.347 C 41.239 1.164,33.180 1.171,31.583 1.356 M69.167 6.583 L 69.167 9.500 70.750 9.500 C 71.694 9.500,72.333 9.567,72.333 9.667 C 72.333 9.765,72.917 9.833,73.750 9.833 C 74.583 9.833,75.167 9.902,75.167 10.000 C 75.167 10.092,75.298 10.167,75.458 10.167 C 75.960 10.168,77.333 11.109,77.333 11.451 C 77.333 11.529,77.483 11.701,77.667 11.833 C 77.862 11.974,78.000 12.265,78.000 12.537 C 78.000 12.792,78.075 13.000,78.167 13.000 C 78.261 13.000,78.333 13.472,78.333 14.083 C 78.333 14.694,78.406 15.167,78.500 15.167 C 78.610 15.167,78.667 22.774,78.667 37.657 C 78.667 52.470,78.610 60.182,78.500 60.250 C 78.408 60.307,78.333 60.799,78.333 61.343 C 78.333 61.892,78.259 62.333,78.167 62.333 C 78.075 62.333,78.000 62.558,78.000 62.833 C 78.000 63.108,77.925 63.333,77.833 63.333 C 77.742 63.333,77.663 63.427,77.659 63.542 C 77.655 63.656,77.318 64.087,76.910 64.500 C 76.503 64.912,76.169 65.306,76.168 65.375 C 76.167 65.444,76.017 65.500,75.833 65.500 C 75.650 65.500,75.500 65.564,75.500 65.643 C 75.500 65.864,73.306 66.189,71.000 66.308 L 68.917 66.417 68.871 69.375 L 68.826 72.333 84.163 72.333 L 99.500 72.333 99.500 69.346 L 99.500 66.359 97.208 66.280 C 94.741 66.195,93.182 65.981,92.507 65.635 C 91.921 65.335,90.833 64.144,90.833 63.802 C 90.833 63.647,90.758 63.473,90.667 63.417 C 90.575 63.360,90.500 63.060,90.500 62.750 C 90.500 62.440,90.425 62.140,90.333 62.083 C 90.103 61.941,90.103 13.393,90.333 13.250 C 90.425 13.193,90.500 12.889,90.500 12.573 C 90.500 12.258,90.575 12.000,90.667 12.000 C 90.758 12.000,90.833 11.882,90.833 11.737 C 90.833 11.362,92.090 10.167,92.484 10.167 C 92.665 10.167,92.860 10.092,92.917 10.000 C 92.973 9.908,93.686 9.833,94.500 9.833 C 95.314 9.833,96.027 9.758,96.083 9.667 C 96.140 9.575,96.857 9.500,97.677 9.500 L 99.167 9.500 99.167 6.583 L 99.167 3.667 84.167 3.667 L 69.167 3.667 69.167 6.583 M105.167 12.833 L 105.167 22.000 108.000 22.000 L 110.833 22.000 110.833 19.177 C 110.833 17.624,110.898 16.313,110.978 16.264 C 111.058 16.214,111.175 15.647,111.238 15.004 C 111.302 14.360,111.406 13.833,111.469 13.833 C 111.533 13.833,111.693 13.590,111.825 13.292 C 111.957 12.994,112.200 12.605,112.366 12.427 C 112.531 12.249,112.667 12.038,112.667 11.957 C 112.667 11.566,114.877 10.167,115.495 10.167 C 115.670 10.167,115.860 10.092,115.917 10.000 C 115.973 9.908,116.578 9.833,117.260 9.833 C 117.976 9.833,118.500 9.763,118.500 9.667 C 118.500 9.559,120.250 9.500,123.417 9.500 L 128.333 9.500 128.333 35.917 C 128.333 53.417,128.277 62.333,128.167 62.333 C 128.075 62.333,128.000 62.483,128.000 62.667 C 128.000 62.850,127.925 63.000,127.833 63.000 C 127.742 63.000,127.667 63.150,127.667 63.333 C 127.667 63.517,127.592 63.667,127.500 63.667 C 127.408 63.667,127.333 63.744,127.333 63.839 C 127.333 64.063,126.230 65.167,126.006 65.167 C 125.911 65.167,125.833 65.242,125.833 65.333 C 125.833 65.425,125.690 65.500,125.514 65.500 C 125.338 65.500,125.169 65.570,125.139 65.655 C 125.047 65.911,122.892 66.204,120.542 66.280 L 118.333 66.351 118.333 69.342 L 118.333 72.333 134.250 72.333 L 150.167 72.333 150.167 69.342 L 150.167 66.351 147.958 66.280 C 145.608 66.204,143.453 65.911,143.361 65.655 C 143.331 65.570,143.193 65.500,143.055 65.500 C 142.344 65.500,140.500 63.020,140.500 62.063 C 140.500 61.845,140.425 61.667,140.333 61.667 C 140.223 61.667,140.167 52.861,140.167 35.583 L 140.167 9.500 145.167 9.500 C 148.389 9.500,150.167 9.559,150.167 9.667 C 150.167 9.763,150.694 9.833,151.417 9.833 C 152.139 9.833,152.667 9.904,152.667 10.000 C 152.667 10.092,152.892 10.167,153.167 10.167 C 153.442 10.167,153.667 10.223,153.667 10.293 C 153.667 10.362,153.910 10.527,154.208 10.658 C 154.777 10.910,154.891 10.991,155.629 11.667 C 156.129 12.125,157.007 13.748,157.003 14.208 C 157.001 14.369,157.075 14.500,157.167 14.500 C 157.258 14.500,157.333 14.758,157.333 15.073 C 157.333 15.389,157.408 15.693,157.500 15.750 C 157.601 15.813,157.667 17.057,157.667 18.927 L 157.667 22.000 160.583 22.000 L 163.500 22.000 163.500 12.833 L 163.500 3.667 134.333 3.667 L 105.167 3.667 105.167 12.833 M169.167 6.583 L 169.167 9.500 170.917 9.500 C 171.972 9.500,172.667 9.566,172.667 9.667 C 172.667 9.763,173.191 9.833,173.907 9.833 C 174.589 9.833,175.193 9.908,175.250 10.000 C 175.307 10.092,175.536 10.167,175.760 10.167 C 175.984 10.167,176.167 10.242,176.167 10.333 C 176.167 10.425,176.260 10.500,176.375 10.500 C 176.687 10.500,178.000 11.756,178.000 12.054 C 178.000 12.197,178.075 12.360,178.167 12.417 C 178.258 12.473,178.333 12.740,178.333 13.010 C 178.333 13.279,178.408 13.500,178.500 13.500 C 178.731 13.500,178.731 61.607,178.500 61.750 C 178.408 61.807,178.333 62.111,178.333 62.427 C 178.333 62.742,178.277 63.000,178.207 63.000 C 178.138 63.000,177.975 63.241,177.845 63.535 C 177.588 64.115,176.617 65.167,176.339 65.167 C 176.244 65.167,176.167 65.223,176.167 65.293 C 176.167 65.747,173.981 66.183,171.208 66.280 L 169.167 66.352 169.167 69.343 L 169.167 72.333 184.333 72.333 L 199.500 72.333 199.500 69.343 L 199.500 66.352 197.375 66.279 C 194.583 66.183,192.908 65.916,192.457 65.496 C 192.263 65.315,192.038 65.167,191.957 65.167 C 191.736 65.167,191.334 64.721,191.328 64.470 C 191.325 64.349,191.213 64.104,191.078 63.926 C 190.943 63.749,190.833 63.434,190.833 63.228 C 190.833 63.022,190.758 62.807,190.667 62.750 C 190.436 62.607,190.436 12.667,190.667 12.667 C 190.758 12.667,190.833 12.442,190.833 12.167 C 190.833 11.892,190.908 11.667,191.000 11.667 C 191.092 11.667,191.167 11.566,191.167 11.442 C 191.167 11.111,191.747 10.500,192.061 10.500 C 192.211 10.500,192.333 10.425,192.333 10.333 C 192.333 10.242,192.483 10.167,192.667 10.167 C 192.850 10.167,193.000 10.092,193.000 10.000 C 193.000 9.900,193.667 9.833,194.667 9.833 C 195.667 9.833,196.333 9.767,196.333 9.667 C 196.333 9.567,196.972 9.500,197.917 9.500 L 199.500 9.500 199.500 6.583 L 199.500 3.667 184.333 3.667 L 169.167 3.667 169.167 6.583 M207.778 3.778 C 207.562 3.994,207.649 22.249,207.867 22.467 C 208.006 22.606,208.905 22.667,210.841 22.667 L 213.615 22.667 213.716 19.711 C 213.779 17.891,213.885 16.733,213.992 16.697 C 214.088 16.665,214.167 16.420,214.167 16.153 C 214.167 15.885,214.242 15.667,214.333 15.667 C 214.425 15.667,214.500 15.479,214.500 15.250 C 214.500 15.021,214.575 14.833,214.667 14.833 C 214.758 14.833,214.833 14.683,214.833 14.500 C 214.833 14.317,214.908 14.167,215.000 14.167 C 215.092 14.167,215.167 14.092,215.167 14.001 C 215.167 13.562,217.271 11.485,218.123 11.083 C 218.512 10.900,218.830 10.694,218.831 10.625 C 218.832 10.556,219.058 10.500,219.333 10.500 C 219.608 10.500,219.833 10.425,219.833 10.333 C 219.833 10.242,220.096 10.167,220.417 10.167 C 220.737 10.167,221.000 10.092,221.000 10.000 C 221.000 9.901,221.608 9.833,222.490 9.833 C 223.310 9.833,224.027 9.758,224.083 9.667 C 224.140 9.575,224.557 9.500,225.010 9.500 C 225.463 9.500,225.833 9.575,225.833 9.667 C 225.833 9.776,229.137 9.833,235.411 9.833 C 245.496 9.833,245.453 9.830,244.678 10.500 C 244.385 10.753,243.667 11.844,243.667 12.035 C 243.667 12.159,243.517 12.368,243.333 12.500 C 243.150 12.632,243.000 12.857,243.000 13.000 C 243.000 13.143,242.850 13.368,242.667 13.500 C 242.483 13.632,242.333 13.809,242.333 13.892 C 242.333 13.976,242.201 14.166,242.039 14.314 C 241.878 14.462,241.598 14.865,241.418 15.208 C 241.238 15.552,241.033 15.833,240.962 15.833 C 240.891 15.833,240.833 15.946,240.833 16.083 C 240.833 16.221,240.771 16.333,240.695 16.333 C 240.619 16.333,240.450 16.540,240.320 16.792 C 240.190 17.044,239.952 17.395,239.792 17.573 C 239.631 17.751,239.500 17.995,239.500 18.115 C 239.500 18.235,239.437 18.333,239.360 18.333 C 239.282 18.333,239.078 18.596,238.905 18.917 C 238.732 19.238,238.533 19.500,238.462 19.500 C 238.391 19.500,238.333 19.633,238.333 19.797 C 238.333 19.960,238.183 20.201,238.000 20.333 C 237.817 20.465,237.667 20.689,237.667 20.830 C 237.667 20.971,237.517 21.180,237.333 21.295 C 237.150 21.409,237.000 21.615,237.000 21.751 C 237.000 21.888,236.937 22.000,236.860 22.000 C 236.782 22.000,236.576 22.281,236.401 22.625 C 236.226 22.969,235.952 23.371,235.792 23.520 C 235.631 23.668,235.500 23.874,235.500 23.978 C 235.500 24.082,235.438 24.167,235.361 24.167 C 235.285 24.167,235.117 24.373,234.986 24.625 C 234.856 24.877,234.619 25.229,234.458 25.406 C 234.298 25.584,234.167 25.828,234.167 25.948 C 234.167 26.068,234.097 26.167,234.011 26.167 C 233.926 26.167,233.803 26.335,233.737 26.542 C 233.672 26.748,233.480 27.038,233.309 27.186 C 233.139 27.334,233.000 27.562,233.000 27.691 C 233.000 27.821,232.850 28.035,232.667 28.167 C 232.483 28.299,232.333 28.503,232.333 28.620 C 232.333 28.737,232.274 28.833,232.201 28.833 C 232.128 28.833,231.847 29.207,231.576 29.663 C 231.305 30.120,231.027 30.495,230.958 30.497 C 230.890 30.499,230.833 30.633,230.833 30.797 C 230.833 30.960,230.683 31.201,230.500 31.333 C 230.317 31.465,230.167 31.635,230.167 31.710 C 230.167 31.786,230.017 32.008,229.833 32.205 C 229.650 32.402,229.500 32.661,229.500 32.781 C 229.500 32.902,229.437 33.000,229.360 33.000 C 229.282 33.000,229.078 33.263,228.905 33.583 C 228.732 33.904,228.533 34.167,228.462 34.167 C 228.391 34.167,228.333 34.300,228.333 34.463 C 228.333 34.626,228.183 34.868,228.000 35.000 C 227.817 35.132,227.667 35.346,227.667 35.476 C 227.667 35.605,227.535 35.832,227.373 35.980 C 226.897 36.418,226.167 37.460,226.167 37.702 C 226.167 37.825,226.017 38.035,225.833 38.167 C 225.650 38.299,225.500 38.503,225.500 38.620 C 225.500 38.737,225.438 38.833,225.361 38.833 C 225.285 38.833,225.117 39.040,224.986 39.292 C 224.856 39.544,224.619 39.895,224.458 40.073 C 224.298 40.251,224.167 40.495,224.167 40.615 C 224.167 40.735,224.097 40.833,224.011 40.833 C 223.926 40.833,223.803 41.002,223.737 41.208 C 223.672 41.415,223.480 41.705,223.309 41.853 C 223.139 42.001,223.000 42.228,223.000 42.358 C 223.000 42.487,222.850 42.701,222.667 42.833 C 222.483 42.965,222.333 43.131,222.333 43.202 C 222.333 43.312,221.519 44.481,220.998 45.118 C 220.907 45.229,220.833 45.418,220.833 45.540 C 220.833 45.661,220.683 45.868,220.500 46.000 C 220.317 46.132,220.167 46.302,220.167 46.377 C 220.167 46.452,220.017 46.675,219.833 46.872 C 219.650 47.069,219.500 47.328,219.500 47.448 C 219.500 47.568,219.439 47.667,219.364 47.667 C 219.290 47.667,219.103 47.929,218.950 48.250 C 218.797 48.571,218.596 48.833,218.503 48.833 C 218.410 48.833,218.333 48.967,218.333 49.130 C 218.333 49.293,218.183 49.535,218.000 49.667 C 217.817 49.799,217.666 49.984,217.666 50.078 C 217.666 50.173,217.445 50.509,217.175 50.825 C 216.905 51.141,216.549 51.666,216.383 51.991 C 216.218 52.317,215.952 52.705,215.792 52.853 C 215.631 53.001,215.500 53.196,215.500 53.285 C 215.500 53.375,215.350 53.584,215.167 53.750 C 214.983 53.916,214.833 54.118,214.833 54.199 C 214.833 54.281,214.683 54.508,214.500 54.705 C 214.317 54.902,214.167 55.161,214.167 55.281 C 214.167 55.402,214.097 55.500,214.011 55.500 C 213.926 55.500,213.803 55.669,213.737 55.875 C 213.672 56.081,213.480 56.371,213.309 56.520 C 213.139 56.668,213.000 56.877,213.000 56.985 C 213.000 57.093,212.818 57.363,212.596 57.586 C 212.374 57.808,212.144 58.142,212.085 58.328 C 212.026 58.514,211.919 58.667,211.848 58.667 C 211.777 58.667,211.578 58.929,211.405 59.250 C 211.232 59.571,211.033 59.833,210.962 59.833 C 210.891 59.833,210.833 59.967,210.833 60.130 C 210.833 60.293,210.683 60.535,210.500 60.667 C 210.317 60.799,210.167 60.968,210.167 61.044 C 210.167 61.119,210.017 61.342,209.833 61.538 C 209.650 61.735,209.500 61.995,209.500 62.115 C 209.500 62.235,209.430 62.333,209.345 62.333 C 209.260 62.333,209.058 62.633,208.897 63.000 C 208.735 63.367,208.542 63.667,208.468 63.667 C 208.394 63.667,208.333 63.763,208.333 63.880 C 208.333 63.997,208.183 64.201,208.000 64.333 C 207.817 64.465,207.666 64.651,207.666 64.745 C 207.666 64.839,207.441 65.179,207.167 65.500 L 206.667 66.083 206.667 69.208 L 206.667 72.333 233.750 72.333 L 260.833 72.333 260.833 62.833 L 260.833 53.333 258.000 53.333 L 255.167 53.333 255.167 54.407 C 255.167 54.997,255.092 55.527,255.000 55.583 C 254.908 55.640,254.833 56.282,254.833 57.010 C 254.833 57.781,254.764 58.333,254.667 58.333 C 254.575 58.333,254.500 58.596,254.500 58.917 C 254.500 59.237,254.425 59.500,254.333 59.500 C 254.242 59.500,254.167 59.725,254.167 60.000 C 254.167 60.275,254.098 60.500,254.013 60.500 C 253.929 60.500,253.810 60.725,253.750 61.000 C 253.690 61.275,253.571 61.500,253.487 61.500 C 253.402 61.500,253.333 61.580,253.333 61.677 C 253.333 61.958,251.053 64.167,250.763 64.167 C 250.618 64.167,250.499 64.223,250.499 64.292 C 250.497 64.441,249.690 64.833,249.383 64.833 C 249.264 64.833,249.167 64.908,249.167 65.000 C 249.167 65.092,249.021 65.167,248.843 65.167 C 248.665 65.167,248.473 65.242,248.417 65.333 C 248.360 65.425,248.099 65.500,247.837 65.500 C 247.575 65.500,247.336 65.567,247.306 65.649 C 247.116 66.159,221.333 66.675,221.333 66.169 C 221.333 66.076,221.408 66.000,221.500 66.000 C 221.592 66.000,221.667 65.904,221.667 65.787 C 221.667 65.670,221.817 65.465,222.000 65.333 C 222.183 65.201,222.333 64.976,222.333 64.833 C 222.333 64.690,222.483 64.465,222.667 64.333 C 222.850 64.201,223.000 63.978,223.000 63.837 C 223.000 63.696,223.150 63.487,223.333 63.372 C 223.517 63.258,223.667 63.064,223.667 62.941 C 223.667 62.819,223.854 62.501,224.083 62.234 C 224.312 61.968,224.500 61.673,224.500 61.578 C 224.500 61.484,224.650 61.299,224.833 61.167 C 225.017 61.035,225.167 60.830,225.167 60.713 C 225.167 60.596,225.229 60.500,225.305 60.500 C 225.381 60.500,225.550 60.294,225.680 60.042 C 225.810 59.790,226.010 59.484,226.125 59.363 C 226.240 59.242,226.333 59.016,226.333 58.862 C 226.333 58.707,226.483 58.487,226.667 58.372 C 226.850 58.258,227.000 58.069,227.000 57.952 C 227.000 57.836,227.150 57.632,227.333 57.500 C 227.517 57.368,227.667 57.143,227.667 57.000 C 227.667 56.857,227.817 56.632,228.000 56.500 C 228.183 56.368,228.333 56.196,228.333 56.119 C 228.333 56.041,228.521 55.732,228.750 55.431 C 228.979 55.131,229.167 54.815,229.167 54.729 C 229.167 54.644,229.317 54.465,229.500 54.333 C 229.683 54.201,229.833 53.976,229.833 53.833 C 229.833 53.690,229.983 53.465,230.167 53.333 C 230.350 53.201,230.500 52.997,230.500 52.880 C 230.500 52.763,230.564 52.667,230.641 52.667 C 230.719 52.667,230.918 52.367,231.083 52.000 C 231.249 51.633,231.448 51.333,231.525 51.333 C 231.603 51.333,231.667 51.237,231.667 51.120 C 231.667 51.003,231.817 50.799,232.000 50.667 C 232.183 50.535,232.333 50.349,232.334 50.255 C 232.334 50.161,232.521 49.865,232.750 49.599 C 232.979 49.333,233.167 49.063,233.167 49.000 C 233.167 48.936,233.317 48.711,233.500 48.500 C 233.683 48.289,233.833 48.031,233.833 47.928 C 233.833 47.825,233.983 47.632,234.167 47.500 C 234.350 47.368,234.500 47.143,234.500 47.000 C 234.500 46.857,234.650 46.632,234.833 46.500 C 235.017 46.368,235.167 46.164,235.167 46.047 C 235.167 45.929,235.229 45.833,235.305 45.833 C 235.381 45.833,235.550 45.627,235.680 45.375 C 235.810 45.123,236.010 44.818,236.125 44.696 C 236.240 44.575,236.333 44.348,236.333 44.192 C 236.333 44.035,236.483 43.799,236.667 43.667 C 236.850 43.535,237.000 43.365,237.000 43.289 C 237.000 43.213,237.182 42.970,237.404 42.748 C 237.626 42.526,237.856 42.192,237.915 42.005 C 237.974 41.819,238.075 41.667,238.140 41.667 C 238.205 41.667,238.399 41.404,238.572 41.083 C 238.744 40.763,238.949 40.500,239.026 40.500 C 239.103 40.500,239.167 40.367,239.167 40.203 C 239.167 40.040,239.317 39.799,239.500 39.667 C 239.683 39.535,239.833 39.310,239.833 39.167 C 239.833 39.024,239.983 38.799,240.167 38.667 C 240.350 38.535,240.500 38.330,240.500 38.213 C 240.500 38.096,240.566 38.000,240.648 38.000 C 240.729 38.000,240.923 37.730,241.080 37.400 C 241.236 37.071,241.489 36.652,241.641 36.470 C 241.792 36.288,242.085 35.939,242.291 35.694 C 242.498 35.450,242.666 35.191,242.666 35.118 C 242.667 35.045,242.817 34.825,243.000 34.628 C 243.183 34.431,243.333 34.172,243.333 34.052 C 243.333 33.932,243.403 33.833,243.489 33.833 C 243.574 33.833,243.697 33.665,243.763 33.458 C 243.828 33.252,244.020 32.962,244.191 32.814 C 244.361 32.666,244.500 32.438,244.500 32.309 C 244.500 32.179,244.650 31.965,244.833 31.833 C 245.017 31.701,245.167 31.532,245.167 31.456 C 245.167 31.381,245.317 31.158,245.500 30.962 C 245.683 30.765,245.833 30.505,245.833 30.385 C 245.833 30.265,245.891 30.167,245.962 30.167 C 246.033 30.167,246.238 29.885,246.418 29.542 C 246.598 29.198,246.878 28.795,247.039 28.647 C 247.201 28.499,247.333 28.327,247.333 28.265 C 247.333 28.203,247.483 27.992,247.667 27.795 C 247.850 27.598,248.000 27.339,248.000 27.219 C 248.000 27.098,248.058 27.000,248.129 27.000 C 248.200 27.000,248.399 26.738,248.572 26.417 C 248.744 26.096,248.949 25.833,249.026 25.833 C 249.103 25.833,249.167 25.700,249.167 25.537 C 249.167 25.374,249.317 25.132,249.500 25.000 C 249.683 24.868,249.833 24.643,249.833 24.500 C 249.833 24.357,249.983 24.132,250.167 24.000 C 250.350 23.868,250.500 23.664,250.500 23.547 C 250.500 23.429,250.563 23.333,250.640 23.333 C 250.718 23.333,250.924 23.052,251.099 22.708 C 251.274 22.365,251.548 21.962,251.708 21.814 C 251.869 21.666,252.000 21.459,252.000 21.355 C 252.000 21.252,252.062 21.167,252.139 21.167 C 252.215 21.167,252.383 20.960,252.514 20.708 C 252.644 20.456,252.881 20.105,253.042 19.927 C 253.202 19.749,253.333 19.505,253.333 19.385 C 253.333 19.265,253.403 19.167,253.489 19.167 C 253.574 19.167,253.697 18.998,253.763 18.792 C 253.828 18.585,254.020 18.295,254.191 18.147 C 254.361 17.999,254.500 17.807,254.500 17.720 C 254.500 17.634,254.631 17.417,254.792 17.240 C 254.952 17.062,255.383 16.467,255.750 15.917 C 256.117 15.367,256.473 14.892,256.542 14.861 C 256.610 14.831,256.667 14.678,256.667 14.523 C 256.667 14.367,256.817 14.132,257.000 14.000 C 257.183 13.868,257.333 13.664,257.333 13.547 C 257.333 13.429,257.396 13.333,257.472 13.333 C 257.548 13.333,257.717 13.127,257.847 12.875 C 257.977 12.623,258.215 12.271,258.375 12.094 C 258.535 11.916,258.667 11.705,258.667 11.624 C 258.667 11.473,259.364 10.494,259.875 9.927 C 260.130 9.645,260.167 9.228,260.167 6.635 L 260.167 3.667 234.028 3.667 C 219.651 3.667,207.839 3.717,207.778 3.778 M267.667 6.583 L 267.667 9.500 268.333 9.500 C 268.700 9.500,269.000 9.575,269.000 9.667 C 269.000 9.768,269.719 9.833,270.823 9.833 C 271.859 9.833,272.691 9.905,272.750 10.000 C 272.807 10.092,273.017 10.168,273.218 10.170 C 273.419 10.172,273.771 10.321,274.000 10.500 C 274.229 10.679,274.478 10.828,274.554 10.830 C 274.753 10.835,275.167 11.280,275.167 11.488 C 275.167 11.586,275.242 11.667,275.333 11.667 C 275.425 11.667,275.500 11.817,275.500 12.000 C 275.500 12.183,275.575 12.333,275.667 12.333 C 275.777 12.333,275.833 20.858,275.833 37.573 C 275.833 54.220,275.777 62.849,275.667 62.917 C 275.575 62.973,275.500 63.165,275.500 63.343 C 275.500 63.521,275.425 63.667,275.333 63.667 C 275.242 63.667,275.167 63.746,275.167 63.843 C 275.167 64.099,273.817 65.500,273.570 65.500 C 273.455 65.500,273.336 65.576,273.305 65.668 C 273.235 65.880,271.367 66.176,269.458 66.279 L 268.000 66.357 268.000 69.345 L 268.000 72.333 295.833 72.333 L 323.667 72.333 323.667 62.833 L 323.667 53.333 321.000 53.333 L 318.333 53.333 318.333 55.167 C 318.333 56.278,318.268 57.000,318.167 57.000 C 318.075 57.000,318.000 57.413,318.000 57.917 C 318.000 58.421,317.925 58.833,317.833 58.833 C 317.742 58.833,317.667 59.058,317.667 59.333 C 317.667 59.608,317.592 59.833,317.500 59.833 C 317.408 59.833,317.333 60.058,317.333 60.333 C 317.333 60.608,317.258 60.833,317.167 60.833 C 317.075 60.833,317.000 60.946,317.000 61.083 C 317.000 61.221,316.925 61.333,316.833 61.333 C 316.742 61.333,316.667 61.483,316.667 61.667 C 316.667 61.850,316.604 62.000,316.527 62.000 C 316.450 62.000,316.244 62.299,316.068 62.665 C 315.893 63.030,315.697 63.330,315.633 63.331 C 315.568 63.332,315.328 63.521,315.098 63.750 C 314.869 63.979,314.638 64.167,314.584 64.167 C 314.530 64.167,314.325 64.317,314.128 64.500 C 313.931 64.683,313.672 64.833,313.552 64.833 C 313.432 64.833,313.333 64.908,313.333 65.000 C 313.333 65.092,313.183 65.167,313.000 65.167 C 312.817 65.167,312.667 65.242,312.667 65.333 C 312.667 65.425,312.517 65.500,312.333 65.500 C 312.150 65.500,312.000 65.566,312.000 65.646 C 312.000 66.066,308.774 66.217,298.542 66.277 L 288.000 66.338 288.000 53.252 L 288.000 40.167 294.573 40.167 C 298.776 40.167,301.184 40.227,301.250 40.333 C 301.307 40.425,301.532 40.500,301.750 40.500 C 301.968 40.500,302.188 40.567,302.239 40.648 C 302.289 40.730,302.533 40.847,302.780 40.909 C 303.028 40.971,303.370 41.186,303.542 41.386 C 303.713 41.586,303.987 41.905,304.149 42.095 C 304.312 42.285,304.551 42.678,304.680 42.970 C 304.809 43.261,304.971 43.500,305.041 43.500 C 305.110 43.500,305.167 43.725,305.167 44.000 C 305.167 44.275,305.242 44.500,305.333 44.500 C 305.425 44.500,305.500 44.837,305.500 45.250 C 305.500 45.663,305.575 46.000,305.667 46.000 C 305.769 46.000,305.833 46.806,305.833 48.083 L 305.833 50.167 308.750 50.167 L 311.667 50.167 311.667 37.000 L 311.667 23.833 308.750 23.833 L 305.833 23.833 305.833 25.490 C 305.833 26.415,305.760 27.193,305.667 27.250 C 305.575 27.307,305.500 27.724,305.500 28.177 C 305.500 28.629,305.425 29.000,305.333 29.000 C 305.242 29.000,305.167 29.188,305.167 29.417 C 305.167 29.646,305.092 29.833,305.000 29.833 C 304.908 29.833,304.833 29.983,304.833 30.167 C 304.833 30.350,304.758 30.500,304.667 30.500 C 304.575 30.500,304.500 30.603,304.500 30.730 C 304.500 31.208,302.807 32.667,302.252 32.667 C 302.114 32.667,302.000 32.742,302.000 32.833 C 302.000 32.925,301.813 33.000,301.583 33.000 C 301.354 33.000,301.167 33.075,301.167 33.167 C 301.167 33.275,298.861 33.333,294.583 33.333 L 288.000 33.333 288.000 21.417 L 288.000 9.500 297.500 9.500 C 303.722 9.500,307.000 9.558,307.000 9.667 C 307.000 9.765,307.583 9.833,308.417 9.833 C 309.250 9.833,309.833 9.902,309.833 10.000 C 309.833 10.092,310.039 10.167,310.290 10.167 C 310.853 10.167,313.140 11.269,313.552 11.739 C 313.718 11.928,314.130 12.410,314.469 12.809 C 314.807 13.208,315.177 13.634,315.292 13.756 C 315.406 13.877,315.500 14.094,315.500 14.238 C 315.500 14.382,315.575 14.500,315.667 14.500 C 315.758 14.500,315.833 14.719,315.833 14.986 C 315.833 15.253,315.905 15.497,315.993 15.528 C 316.236 15.612,316.531 17.839,316.612 20.208 L 316.685 22.333 319.509 22.333 L 322.333 22.333 322.333 13.000 L 322.333 3.667 295.000 3.667 L 267.667 3.667 267.667 6.583 M330.833 6.583 L 330.833 9.500 331.750 9.500 C 332.254 9.500,332.667 9.575,332.667 9.667 C 332.667 9.761,333.136 9.833,333.740 9.833 C 334.331 9.833,334.860 9.908,334.917 10.000 C 334.973 10.092,335.203 10.167,335.427 10.167 C 335.650 10.167,335.835 10.223,335.837 10.292 C 335.839 10.360,336.176 10.642,336.587 10.917 C 336.997 11.192,337.333 11.548,337.333 11.708 C 337.333 11.869,337.408 12.000,337.500 12.000 C 337.592 12.000,337.667 12.150,337.667 12.333 C 337.667 12.517,337.742 12.667,337.833 12.667 C 337.925 12.667,338.000 12.854,338.000 13.083 C 338.000 13.313,338.075 13.500,338.167 13.500 C 338.277 13.500,338.333 21.774,338.333 37.990 C 338.333 54.137,338.277 62.515,338.167 62.583 C 338.075 62.640,338.000 62.832,338.000 63.010 C 338.000 63.188,337.925 63.333,337.833 63.333 C 337.742 63.333,337.667 63.407,337.667 63.498 C 337.667 63.869,336.117 65.500,335.764 65.500 C 335.619 65.500,335.500 65.572,335.500 65.661 C 335.500 65.749,335.123 65.872,334.663 65.933 C 334.203 65.994,333.786 66.109,333.736 66.189 C 333.687 66.268,332.939 66.333,332.073 66.333 L 330.500 66.333 330.500 69.333 L 330.500 72.333 342.333 72.333 L 354.167 72.333 354.167 69.344 L 354.167 66.355 352.458 66.280 C 350.482 66.194,348.608 65.900,348.528 65.664 C 348.497 65.574,348.397 65.500,348.305 65.500 C 347.846 65.500,346.371 63.643,346.155 62.792 C 345.873 61.682,345.721 20.167,345.999 20.167 C 346.091 20.167,346.167 20.284,346.167 20.428 C 346.167 20.684,346.962 21.863,347.208 21.972 C 347.277 22.003,347.333 22.115,347.334 22.222 C 347.334 22.329,347.502 22.617,347.709 22.861 C 347.915 23.105,348.208 23.454,348.359 23.636 C 348.511 23.819,348.764 24.237,348.920 24.567 C 349.077 24.897,349.271 25.167,349.352 25.167 C 349.434 25.167,349.500 25.268,349.500 25.391 C 349.500 25.514,349.650 25.751,349.833 25.917 C 350.017 26.083,350.167 26.303,350.167 26.406 C 350.167 26.509,350.317 26.701,350.500 26.833 C 350.683 26.965,350.833 27.207,350.833 27.370 C 350.833 27.533,350.892 27.667,350.964 27.667 C 351.036 27.667,351.238 27.910,351.414 28.208 C 351.590 28.506,351.868 28.895,352.033 29.073 C 352.198 29.251,352.333 29.478,352.333 29.578 C 352.333 29.678,352.483 29.868,352.667 30.000 C 352.850 30.132,353.000 30.346,353.000 30.476 C 353.000 30.605,353.139 30.832,353.309 30.980 C 353.480 31.129,353.672 31.419,353.737 31.625 C 353.803 31.831,353.926 32.000,354.011 32.000 C 354.097 32.000,354.167 32.098,354.167 32.219 C 354.167 32.339,354.317 32.598,354.500 32.795 C 354.683 32.992,354.833 33.214,354.833 33.290 C 354.833 33.365,354.983 33.535,355.167 33.667 C 355.350 33.799,355.500 33.989,355.500 34.089 C 355.500 34.189,355.642 34.423,355.816 34.609 C 355.989 34.796,356.253 35.166,356.401 35.432 C 356.866 36.268,357.074 36.570,357.375 36.851 C 357.535 37.000,357.667 37.228,357.667 37.358 C 357.667 37.487,357.817 37.701,358.000 37.833 C 358.183 37.965,358.333 38.170,358.333 38.287 C 358.333 38.404,358.394 38.500,358.469 38.500 C 358.544 38.500,358.728 38.757,358.878 39.072 C 359.161 39.666,359.487 40.115,360.125 40.787 C 360.331 41.004,360.500 41.274,360.500 41.387 C 360.500 41.501,360.650 41.701,360.833 41.833 C 361.017 41.965,361.167 42.198,361.167 42.350 C 361.167 42.502,361.279 42.719,361.417 42.833 C 361.554 42.947,361.667 43.128,361.667 43.234 C 361.667 43.340,361.817 43.535,362.000 43.667 C 362.183 43.799,362.334 43.984,362.334 44.078 C 362.334 44.173,362.559 44.512,362.833 44.833 C 363.108 45.154,363.333 45.510,363.333 45.625 C 363.333 45.740,363.405 45.833,363.492 45.833 C 363.580 45.833,363.776 46.096,363.928 46.417 C 364.080 46.737,364.271 47.000,364.352 47.000 C 364.434 47.000,364.500 47.133,364.500 47.297 C 364.500 47.460,364.650 47.701,364.833 47.833 C 365.017 47.965,365.167 48.153,365.167 48.250 C 365.167 48.347,365.317 48.535,365.500 48.667 C 365.683 48.799,365.833 49.034,365.833 49.190 C 365.833 49.345,365.890 49.497,365.958 49.528 C 366.027 49.558,366.382 50.033,366.747 50.583 C 367.112 51.133,367.543 51.705,367.705 51.853 C 367.867 52.001,368.000 52.217,368.000 52.333 C 368.000 52.449,368.139 52.666,368.309 52.814 C 368.480 52.962,368.672 53.252,368.737 53.458 C 368.803 53.665,368.926 53.833,369.011 53.833 C 369.097 53.833,369.167 53.932,369.167 54.052 C 369.167 54.172,369.317 54.431,369.500 54.628 C 369.683 54.825,369.833 55.064,369.833 55.160 C 369.833 55.255,369.908 55.333,370.000 55.333 C 370.092 55.333,370.167 55.407,370.167 55.498 C 370.167 55.649,370.476 56.080,370.933 56.564 C 371.033 56.671,371.248 57.038,371.410 57.379 C 371.572 57.721,371.771 58.000,371.852 58.000 C 371.934 58.000,372.000 58.096,372.000 58.213 C 372.000 58.330,372.150 58.535,372.333 58.667 C 372.517 58.799,372.667 59.024,372.667 59.167 C 372.667 59.310,372.817 59.535,373.000 59.667 C 373.183 59.799,373.333 59.967,373.333 60.040 C 373.333 60.209,374.155 61.478,374.542 61.906 C 374.702 62.084,374.833 62.311,374.833 62.411 C 374.833 62.511,374.983 62.701,375.167 62.833 C 375.350 62.965,375.500 63.142,375.500 63.226 C 375.500 63.309,375.638 63.499,375.807 63.647 C 375.975 63.795,376.164 64.123,376.227 64.375 C 376.289 64.627,376.413 64.833,376.503 64.833 C 376.593 64.833,376.667 64.934,376.667 65.058 C 376.667 65.181,376.817 65.417,377.000 65.583 C 377.183 65.749,377.333 65.969,377.333 66.072 C 377.333 66.175,377.483 66.368,377.667 66.500 C 377.850 66.632,378.000 66.836,378.000 66.953 C 378.000 67.071,378.075 67.167,378.167 67.167 C 378.258 67.167,378.333 67.279,378.333 67.417 C 378.333 67.554,378.391 67.667,378.462 67.667 C 378.533 67.667,378.732 67.929,378.905 68.250 C 379.078 68.571,379.282 68.833,379.360 68.833 C 379.437 68.833,379.500 68.956,379.500 69.105 C 379.500 69.255,379.632 69.499,379.793 69.647 C 379.954 69.795,380.192 70.123,380.321 70.375 C 380.450 70.627,380.619 70.833,380.695 70.833 C 380.771 70.833,380.833 70.946,380.833 71.083 C 380.833 71.221,380.899 71.333,380.980 71.333 C 381.060 71.333,381.219 71.558,381.333 71.833 L 381.540 72.333 385.854 72.333 L 390.167 72.333 390.167 43.760 C 390.167 24.891,390.223 15.151,390.333 15.083 C 390.425 15.027,390.500 14.614,390.500 14.167 C 390.500 13.719,390.575 13.307,390.667 13.250 C 390.758 13.193,390.833 12.996,390.833 12.812 C 390.833 12.627,390.946 12.364,391.083 12.226 C 391.221 12.089,391.333 11.837,391.333 11.666 C 391.333 11.495,391.483 11.308,391.667 11.250 C 391.850 11.192,392.000 11.074,392.000 10.989 C 392.000 10.903,392.150 10.833,392.333 10.833 C 392.517 10.833,392.667 10.758,392.667 10.667 C 392.667 10.575,392.817 10.500,393.000 10.500 C 393.183 10.500,393.333 10.425,393.333 10.333 C 393.333 10.242,393.521 10.167,393.750 10.167 C 393.979 10.167,394.167 10.092,394.167 10.000 C 394.167 9.901,394.806 9.833,395.750 9.833 C 396.694 9.833,397.333 9.766,397.333 9.667 C 397.333 9.575,397.671 9.500,398.083 9.500 L 398.833 9.500 398.833 6.583 L 398.833 3.667 386.436 3.667 L 374.039 3.667 373.938 4.042 C 373.807 4.532,373.804 8.895,373.934 9.236 C 374.009 9.432,374.269 9.500,374.934 9.500 C 375.429 9.500,375.833 9.575,375.833 9.667 C 375.833 9.765,376.441 9.833,377.323 9.833 C 378.143 9.833,378.860 9.908,378.917 10.000 C 378.973 10.092,379.203 10.167,379.427 10.167 C 379.650 10.167,379.833 10.242,379.833 10.333 C 379.833 10.425,379.983 10.500,380.167 10.500 C 380.350 10.500,380.500 10.575,380.500 10.667 C 380.500 10.758,380.617 10.833,380.759 10.833 C 381.061 10.833,382.000 11.807,382.000 12.120 C 382.000 12.238,382.075 12.333,382.167 12.333 C 382.258 12.333,382.333 12.483,382.333 12.667 C 382.333 12.850,382.408 13.000,382.500 13.000 C 382.592 13.000,382.667 13.338,382.667 13.750 C 382.667 14.162,382.742 14.500,382.833 14.500 C 382.943 14.500,383.000 20.917,383.000 33.417 C 383.000 43.821,382.957 52.333,382.905 52.333 C 382.753 52.333,382.333 51.872,382.333 51.704 C 382.333 51.620,382.183 51.416,382.000 51.250 C 381.817 51.084,381.667 50.847,381.667 50.724 C 381.667 50.601,381.609 50.500,381.538 50.500 C 381.467 50.500,381.262 50.219,381.082 49.875 C 380.902 49.531,380.622 49.129,380.461 48.980 C 380.299 48.832,380.167 48.643,380.167 48.559 C 380.167 48.475,380.017 48.299,379.833 48.167 C 379.650 48.035,379.500 47.810,379.500 47.667 C 379.500 47.524,379.350 47.299,379.167 47.167 C 378.983 47.035,378.833 46.791,378.833 46.625 C 378.833 46.459,378.721 46.280,378.583 46.227 C 378.446 46.174,378.333 46.041,378.333 45.930 C 378.333 45.820,378.202 45.584,378.042 45.406 C 377.881 45.229,377.644 44.877,377.514 44.625 C 377.383 44.373,377.215 44.167,377.139 44.167 C 377.062 44.167,377.000 44.082,377.000 43.978 C 377.000 43.874,376.862 43.668,376.693 43.520 C 376.523 43.371,376.252 42.969,376.090 42.625 C 375.928 42.281,375.729 42.000,375.648 42.000 C 375.566 42.000,375.500 41.888,375.500 41.751 C 375.500 41.615,375.350 41.409,375.167 41.295 C 374.983 41.180,374.833 40.971,374.833 40.830 C 374.833 40.689,374.683 40.465,374.500 40.333 C 374.317 40.201,374.167 39.960,374.167 39.797 C 374.167 39.633,374.103 39.500,374.026 39.500 C 373.949 39.500,373.744 39.237,373.572 38.917 C 373.399 38.596,373.205 38.333,373.140 38.333 C 373.075 38.333,372.978 38.193,372.923 38.020 C 372.869 37.848,372.639 37.492,372.412 37.229 C 372.186 36.965,372.000 36.661,372.000 36.553 C 372.000 36.444,371.850 36.308,371.667 36.250 C 371.483 36.192,371.333 36.005,371.333 35.834 C 371.333 35.663,371.240 35.425,371.125 35.304 C 371.010 35.182,370.810 34.877,370.680 34.625 C 370.550 34.373,370.381 34.167,370.305 34.167 C 370.229 34.167,370.167 34.071,370.167 33.953 C 370.167 33.836,370.017 33.632,369.833 33.500 C 369.650 33.368,369.500 33.143,369.500 33.000 C 369.500 32.857,369.350 32.632,369.167 32.500 C 368.983 32.368,368.833 32.160,368.833 32.039 C 368.833 31.918,368.646 31.631,368.417 31.402 C 368.188 31.172,368.000 30.892,368.000 30.779 C 368.000 30.666,367.850 30.465,367.667 30.333 C 367.483 30.201,367.333 29.976,367.333 29.833 C 367.333 29.690,367.183 29.465,367.000 29.333 C 366.817 29.201,366.667 28.997,366.667 28.880 C 366.667 28.763,366.601 28.667,366.520 28.667 C 366.440 28.667,366.281 28.444,366.169 28.171 C 366.056 27.899,365.784 27.468,365.565 27.213 C 365.346 26.958,365.167 26.674,365.167 26.582 C 365.167 26.489,365.017 26.320,364.833 26.205 C 364.650 26.091,364.500 25.902,364.500 25.785 C 364.500 25.669,364.350 25.465,364.167 25.333 C 363.983 25.201,363.833 24.969,363.833 24.817 C 363.833 24.665,363.721 24.447,363.583 24.333 C 363.446 24.219,363.333 24.039,363.333 23.933 C 363.333 23.827,363.183 23.632,363.000 23.500 C 362.817 23.368,362.667 23.154,362.667 23.024 C 362.667 22.895,362.535 22.668,362.374 22.520 C 362.213 22.371,361.975 22.044,361.846 21.792 C 361.716 21.540,361.548 21.333,361.472 21.333 C 361.396 21.333,361.333 21.224,361.333 21.091 C 361.333 20.958,361.146 20.661,360.917 20.432 C 360.688 20.203,360.500 19.916,360.500 19.794 C 360.500 19.673,360.350 19.465,360.167 19.333 C 359.983 19.201,359.833 19.014,359.833 18.917 C 359.833 18.820,359.683 18.632,359.500 18.500 C 359.317 18.368,359.167 18.161,359.167 18.040 C 359.167 17.918,359.091 17.729,358.999 17.618 C 358.907 17.507,358.557 17.006,358.221 16.504 C 357.884 16.002,357.472 15.444,357.304 15.264 C 357.137 15.084,357.000 14.839,357.000 14.719 C 357.000 14.598,356.937 14.500,356.860 14.500 C 356.782 14.500,356.578 14.237,356.405 13.917 C 356.232 13.596,356.033 13.333,355.962 13.333 C 355.891 13.333,355.833 13.211,355.833 13.061 C 355.833 12.912,355.702 12.668,355.541 12.520 C 355.379 12.371,355.142 12.044,355.012 11.792 C 354.883 11.540,354.715 11.333,354.639 11.333 C 354.562 11.333,354.500 11.248,354.500 11.145 C 354.500 11.041,354.369 10.834,354.208 10.686 C 354.048 10.538,353.772 10.133,353.595 9.785 C 353.419 9.438,353.062 8.933,352.804 8.662 C 352.545 8.391,352.333 8.073,352.333 7.955 C 352.333 7.837,352.183 7.632,352.000 7.500 C 351.817 7.368,351.667 7.126,351.667 6.963 C 351.667 6.800,351.603 6.667,351.526 6.667 C 351.449 6.667,351.244 6.404,351.072 6.083 C 350.899 5.763,350.700 5.500,350.629 5.500 C 350.558 5.500,350.500 5.402,350.500 5.281 C 350.500 5.161,350.350 4.902,350.167 4.705 C 349.983 4.508,349.833 4.301,349.833 4.245 C 349.833 3.687,349.496 3.667,340.095 3.667 L 330.833 3.667 330.833 6.583 " stroke="none" fill="#040404" fill-rule="evenodd"></path><path id="path1" d="" stroke="none" fill="#080404" fill-rule="evenodd"></path><path id="path2" d="" stroke="none" fill="#080404" fill-rule="evenodd"></path><path id="path3" d="" stroke="none" fill="#080404" fill-rule="evenodd"></path><path id="path4" d="" stroke="none" fill="#080404" fill-rule="evenodd"></path></g></svg>