<svg id="svg" version="1.1" xmlns="http://www.w3.org/2000/svg" xmlns:xlink="http://www.w3.org/1999/xlink" width="400" height="250" viewBox="0, 0, 400,250"><g id="svgg"><path id="path0" d="M103.750 88.519 C 102.444 88.629,100.756 88.844,100.000 88.995 C 97.268 89.542,95.115 90.042,94.625 90.244 C 84.798 94.279,78.914 100.445,76.251 109.500 C 75.947 110.531,75.607 111.600,75.493 111.875 C 75.111 112.804,74.683 115.314,74.172 119.625 C 73.650 124.021,74.179 132.856,75.234 137.375 C 76.147 141.288,76.464 142.198,78.033 145.419 C 80.049 149.557,82.704 152.917,86.125 155.657 C 87.692 156.913,89.699 158.250,90.016 158.250 C 90.148 158.250,91.070 158.636,92.066 159.107 C 100.231 162.976,113.415 163.126,121.500 159.443 C 122.119 159.161,123.000 158.772,123.459 158.578 C 128.738 156.347,134.188 150.284,137.126 143.375 C 137.847 141.679,137.953 141.395,138.110 140.750 C 138.194 140.406,138.433 139.506,138.642 138.750 C 141.234 129.355,140.517 115.051,137.039 106.745 C 134.001 99.491,127.884 93.213,121.817 91.121 C 121.373 90.968,120.932 90.766,120.838 90.671 C 120.744 90.577,120.411 90.500,120.098 90.500 C 119.785 90.500,119.468 90.400,119.392 90.278 C 119.316 90.155,118.888 89.999,118.440 89.931 C 117.570 89.797,117.134 89.687,115.750 89.252 C 114.926 88.993,107.707 88.233,106.625 88.292 C 106.350 88.307,105.056 88.409,103.750 88.519 M178.375 88.543 C 174.976 89.043,172.111 89.594,171.887 89.790 C 171.757 89.906,171.414 90.000,171.125 90.000 C 170.836 90.000,170.493 90.094,170.363 90.210 C 170.232 90.325,169.731 90.571,169.250 90.755 C 158.797 94.763,154.649 109.893,161.199 120.125 C 163.634 123.929,171.222 129.500,173.969 129.500 C 174.245 129.500,174.540 129.613,174.625 129.750 C 174.710 129.887,175.032 130.000,175.340 130.000 C 175.648 130.000,176.007 130.089,176.137 130.199 C 176.268 130.308,177.050 130.600,177.875 130.849 C 178.700 131.097,179.570 131.401,179.809 131.525 C 180.048 131.649,180.415 131.750,180.625 131.750 C 180.835 131.750,181.202 131.857,181.441 131.987 C 181.680 132.117,182.550 132.463,183.375 132.756 C 190.845 135.406,193.750 138.042,193.750 142.171 C 193.750 146.200,191.652 148.247,185.999 149.734 C 184.689 150.079,175.925 149.950,173.125 149.544 C 169.785 149.061,166.258 148.360,164.250 147.781 C 159.668 146.460,160.020 146.381,159.714 148.798 C 159.587 149.803,159.371 151.356,159.235 152.250 C 159.098 153.144,158.886 154.686,158.764 155.677 C 158.642 156.668,158.475 157.588,158.392 157.722 C 158.138 158.134,158.344 158.202,162.375 159.035 C 163.063 159.178,164.131 159.403,164.750 159.537 C 165.369 159.670,166.662 159.887,167.625 160.019 C 168.588 160.151,169.713 160.305,170.125 160.362 C 176.612 161.255,187.646 161.524,191.625 160.886 C 195.070 160.334,197.000 159.905,197.000 159.693 C 197.000 159.587,197.178 159.500,197.395 159.500 C 197.612 159.500,198.652 159.089,199.707 158.586 C 205.186 155.974,208.226 151.911,209.781 145.125 C 210.237 143.135,210.260 135.160,209.811 134.711 C 209.640 134.540,209.500 134.196,209.500 133.947 C 209.500 133.697,209.402 133.298,209.283 133.059 C 209.163 132.820,208.817 132.063,208.513 131.375 C 206.099 125.903,201.150 122.484,191.125 119.362 C 189.887 118.977,188.706 118.582,188.500 118.485 C 188.294 118.388,187.844 118.194,187.500 118.055 C 187.156 117.915,186.481 117.638,186.000 117.438 C 185.519 117.238,184.731 116.925,184.250 116.742 C 180.936 115.481,177.553 113.132,175.958 110.984 C 172.463 106.281,174.915 100.294,180.751 99.279 C 183.468 98.807,194.514 99.481,196.375 100.233 C 196.650 100.344,197.831 100.621,199.000 100.847 C 200.169 101.074,202.066 101.553,203.216 101.911 C 205.662 102.673,205.570 102.735,205.981 100.033 C 206.141 98.984,206.381 97.619,206.515 97.000 C 207.344 93.154,207.477 92.122,207.178 91.841 C 206.805 91.490,203.113 90.489,200.375 89.996 C 199.688 89.872,198.169 89.595,197.000 89.380 C 191.498 88.368,182.360 87.957,178.375 88.543 M250.875 88.500 C 250.600 88.618,249.909 88.723,249.339 88.732 C 248.077 88.754,244.539 89.427,243.941 89.759 C 243.702 89.891,243.308 90.001,243.066 90.002 C 241.790 90.006,236.919 93.007,235.163 94.870 C 230.842 99.456,228.756 108.421,230.538 114.750 C 230.932 116.147,232.022 118.579,232.313 118.708 C 232.416 118.754,232.500 118.889,232.500 119.008 C 232.500 121.376,240.516 127.713,245.750 129.483 C 246.644 129.785,247.600 130.121,247.875 130.229 C 248.150 130.337,249.331 130.729,250.500 131.100 C 251.669 131.472,252.850 131.870,253.125 131.984 C 253.400 132.098,254.300 132.397,255.125 132.647 C 255.950 132.898,256.732 133.192,256.863 133.301 C 256.993 133.411,257.303 133.500,257.550 133.500 C 257.798 133.500,258.000 133.588,258.000 133.696 C 258.000 133.804,258.508 134.081,259.130 134.311 C 264.379 136.256,266.994 140.934,265.107 145.000 C 264.125 147.114,261.863 149.000,260.308 149.000 C 260.056 149.000,259.743 149.094,259.613 149.210 C 258.690 150.024,249.479 150.233,245.125 149.539 C 244.300 149.407,242.838 149.178,241.875 149.029 C 239.983 148.736,237.034 148.010,234.592 147.236 C 232.214 146.482,232.075 146.524,231.884 148.063 C 231.795 148.784,231.620 149.938,231.496 150.625 C 231.113 152.751,230.748 155.567,230.685 156.873 L 230.625 158.122 232.125 158.437 C 232.950 158.611,234.131 158.873,234.750 159.020 C 236.023 159.322,237.921 159.665,240.125 159.993 C 247.460 161.083,258.637 161.586,262.500 161.000 C 265.334 160.569,268.367 159.930,268.613 159.711 C 268.743 159.595,269.024 159.501,269.238 159.503 C 269.947 159.508,274.171 157.233,275.658 156.044 C 281.978 150.992,284.165 138.916,280.211 130.900 C 278.352 127.131,274.104 123.571,269.000 121.505 C 268.244 121.199,267.400 120.855,267.125 120.741 C 266.642 120.540,264.719 119.908,262.125 119.098 C 260.830 118.693,259.938 118.351,259.191 117.971 C 258.952 117.849,258.646 117.750,258.510 117.750 C 258.375 117.750,257.670 117.482,256.944 117.154 C 256.219 116.826,255.067 116.308,254.385 116.003 C 251.296 114.621,248.150 111.996,247.043 109.876 C 246.269 108.395,246.083 104.414,246.732 103.250 C 248.892 99.380,254.021 98.254,263.786 99.507 C 264.935 99.654,266.325 99.832,266.875 99.903 C 267.425 99.973,268.100 100.126,268.375 100.242 C 268.650 100.358,269.831 100.640,271.000 100.868 C 272.169 101.096,273.406 101.374,273.750 101.487 C 274.094 101.600,274.881 101.838,275.500 102.016 C 276.119 102.194,276.764 102.445,276.935 102.573 C 277.314 102.859,277.382 102.676,277.757 100.375 C 277.914 99.412,278.135 98.175,278.248 97.625 C 278.610 95.865,279.025 93.652,279.168 92.720 L 279.307 91.815 277.841 91.382 C 277.035 91.144,276.094 90.860,275.750 90.751 C 275.406 90.642,274.450 90.420,273.625 90.256 C 272.800 90.093,271.657 89.857,271.086 89.732 C 265.749 88.565,252.589 87.763,250.875 88.500 M8.312 125.063 L 8.375 160.125 16.000 160.195 C 20.194 160.233,23.877 160.203,24.185 160.128 L 24.746 159.992 24.810 146.558 L 24.875 133.125 39.125 133.000 L 53.375 132.875 53.449 127.602 C 53.508 123.344,53.456 122.275,53.176 122.042 C 52.925 121.834,48.942 121.736,38.852 121.690 L 24.875 121.625 24.810 111.640 C 24.774 106.149,24.842 101.558,24.961 101.439 C 25.080 101.320,32.337 101.232,41.089 101.243 C 53.829 101.259,57.003 101.200,57.016 100.944 C 57.089 99.450,56.946 91.673,56.832 90.938 L 56.686 90.000 32.467 90.000 L 8.248 90.000 8.312 125.063 M305.062 125.063 L 305.125 160.125 313.375 160.125 L 321.625 160.125 321.688 125.063 L 321.752 90.000 313.375 90.000 L 304.998 90.000 305.062 125.063 M348.062 125.063 L 348.125 160.125 369.875 160.194 C 381.837 160.232,391.861 160.206,392.148 160.136 C 392.689 160.006,392.879 158.080,393.075 150.750 L 393.125 148.875 379.125 148.750 L 365.125 148.625 365.061 119.313 L 364.998 90.000 356.498 90.000 L 347.998 90.000 348.062 125.063 M110.308 99.776 C 111.307 99.928,112.320 100.153,112.559 100.276 C 112.798 100.399,113.220 100.500,113.497 100.500 C 113.773 100.500,114.000 100.612,114.000 100.750 C 114.000 100.888,114.203 101.000,114.451 101.000 C 116.812 101.000,121.127 106.248,122.467 110.750 C 122.920 112.272,123.077 113.080,123.739 117.279 C 124.078 119.425,124.077 131.249,123.738 133.577 C 122.600 141.402,120.259 146.086,116.250 148.561 C 113.482 150.269,111.887 150.625,107.000 150.625 C 101.353 150.625,98.233 149.491,95.201 146.336 C 93.722 144.798,91.500 140.110,91.500 138.530 C 91.500 138.255,91.399 137.967,91.276 137.891 C 91.047 137.750,90.934 137.112,90.519 133.625 C 90.214 131.061,90.206 119.203,90.507 116.750 C 91.292 110.360,93.198 105.863,96.253 103.194 C 97.312 102.269,98.018 101.837,100.309 100.713 C 100.548 100.596,100.963 100.500,101.232 100.500 C 101.501 100.500,101.790 100.388,101.875 100.250 C 101.960 100.112,102.388 99.992,102.827 99.982 C 103.266 99.973,103.850 99.868,104.125 99.750 C 104.846 99.440,108.192 99.454,110.308 99.776 " stroke="none" fill="#050505" fill-rule="evenodd"></path><path id="path1" d="M0.000 125.000 L 0.000 250.000 200.000 250.000 L 400.000 250.000 400.000 125.000 L 400.000 0.000 200.000 0.000 L 0.000 0.000 0.000 125.000 M112.285 88.365 C 114.023 88.560,116.151 88.952,117.014 89.235 C 117.877 89.518,118.782 89.750,119.027 89.750 C 119.271 89.750,119.540 89.862,119.625 90.000 C 119.710 90.138,120.009 90.250,120.288 90.250 C 120.568 90.250,122.049 90.877,123.580 91.643 C 132.942 96.329,138.100 104.304,140.061 117.125 C 140.471 119.804,140.473 131.038,140.064 133.500 C 139.480 137.013,138.545 140.974,138.027 142.125 C 137.903 142.400,137.509 143.275,137.151 144.069 C 136.793 144.864,136.500 145.557,136.500 145.610 C 136.500 145.755,134.425 149.356,134.258 149.500 C 134.179 149.569,133.913 149.940,133.667 150.326 C 129.932 156.192,121.524 160.895,112.500 162.164 C 110.714 162.416,103.237 162.422,101.625 162.174 C 98.570 161.703,94.709 160.689,92.875 159.875 C 92.463 159.692,91.501 159.268,90.738 158.932 C 82.158 155.158,75.184 144.151,74.114 132.693 C 74.035 131.846,73.912 131.060,73.841 130.946 C 73.036 129.642,74.303 112.755,75.290 111.638 C 75.406 111.507,75.500 111.140,75.500 110.822 C 75.500 110.503,75.603 110.048,75.728 109.809 C 75.853 109.570,76.144 108.813,76.373 108.125 C 78.323 102.293,83.303 96.003,88.500 92.810 C 89.307 92.315,89.827 92.050,92.609 90.720 C 93.151 90.462,93.743 90.250,93.925 90.250 C 94.108 90.250,94.452 90.137,94.691 90.000 C 95.355 89.617,99.937 88.503,100.965 88.475 C 101.465 88.461,102.156 88.360,102.500 88.250 C 103.526 87.921,108.901 87.985,112.285 88.365 M191.683 88.249 C 192.614 88.386,194.838 88.735,196.625 89.025 C 198.412 89.315,200.269 89.603,200.750 89.666 C 201.231 89.729,201.850 89.875,202.125 89.989 C 202.400 90.104,203.300 90.341,204.125 90.516 C 204.950 90.691,205.748 90.927,205.898 91.040 C 206.048 91.153,206.237 91.179,206.318 91.098 C 206.590 90.827,208.016 91.848,207.876 92.214 C 207.802 92.406,207.575 93.421,207.371 94.469 C 206.556 98.673,206.456 99.159,206.232 100.029 C 206.105 100.526,206.000 101.208,206.000 101.544 C 206.000 102.835,205.540 103.058,204.000 102.517 C 202.752 102.078,198.492 101.000,196.625 100.650 C 196.213 100.573,195.144 100.352,194.250 100.159 C 190.193 99.282,179.623 99.194,179.105 100.033 C 179.031 100.152,178.757 100.250,178.496 100.250 C 177.642 100.250,175.406 102.733,175.059 104.066 C 173.985 108.201,175.770 111.647,180.418 114.415 C 181.979 115.345,184.826 116.750,185.148 116.750 C 185.222 116.750,185.897 117.031,186.648 117.375 C 187.400 117.719,188.158 118.000,188.332 118.000 C 188.507 118.000,188.757 118.089,188.888 118.199 C 189.018 118.308,189.800 118.602,190.625 118.853 C 192.511 119.426,193.488 119.746,194.125 119.999 C 194.400 120.108,195.188 120.386,195.875 120.618 C 202.691 122.912,208.061 127.906,209.596 133.375 C 209.827 134.200,210.125 135.220,210.258 135.643 C 211.372 139.180,209.893 148.006,207.519 151.994 C 205.594 155.225,199.872 159.750,197.711 159.750 C 197.457 159.750,197.250 159.850,197.250 159.972 C 197.250 161.140,181.561 161.929,173.750 161.153 C 169.925 160.773,165.755 160.116,161.750 159.262 C 160.994 159.100,160.069 158.925,159.695 158.872 C 158.432 158.693,157.938 158.279,158.121 157.551 C 158.212 157.190,158.394 156.046,158.526 155.009 C 158.657 153.973,158.880 152.338,159.020 151.375 C 159.160 150.412,159.340 149.006,159.418 148.250 C 159.592 146.577,159.875 146.171,160.731 146.361 C 161.493 146.530,164.660 147.491,165.375 147.771 C 165.650 147.878,166.269 148.029,166.750 148.105 C 167.231 148.182,167.850 148.291,168.125 148.348 C 169.101 148.549,172.148 149.056,173.750 149.284 C 178.386 149.945,186.915 149.744,187.398 148.963 C 187.470 148.846,187.749 148.750,188.018 148.750 C 188.508 148.750,188.626 148.704,190.250 147.875 C 194.091 145.915,194.548 140.057,191.096 137.031 C 189.861 135.948,186.146 134.059,183.375 133.106 C 182.275 132.727,181.262 132.338,181.125 132.241 C 180.988 132.144,180.425 131.984,179.875 131.885 C 179.325 131.785,178.594 131.553,178.250 131.368 C 177.906 131.183,176.950 130.838,176.125 130.602 C 175.300 130.365,174.518 130.077,174.387 129.961 C 174.257 129.845,173.904 129.750,173.604 129.750 C 172.936 129.750,169.293 127.884,167.178 126.459 C 159.998 121.621,156.306 113.375,157.992 105.941 C 158.125 105.355,158.402 104.111,158.609 103.178 C 159.833 97.652,164.330 92.192,169.063 90.487 C 169.578 90.302,170.000 90.072,170.000 89.977 C 170.000 89.882,170.366 89.749,170.813 89.680 C 171.259 89.611,172.560 89.318,173.703 89.028 C 174.846 88.737,176.196 88.489,176.703 88.475 C 177.210 88.461,177.906 88.360,178.250 88.250 C 179.162 87.958,189.699 87.957,191.683 88.249 M265.250 88.456 C 266.419 88.608,268.331 88.910,269.500 89.126 C 270.669 89.342,272.162 89.585,272.818 89.667 C 273.474 89.748,274.071 89.913,274.145 90.032 C 274.219 90.152,274.604 90.250,275.000 90.250 C 275.396 90.250,275.790 90.362,275.875 90.500 C 275.960 90.638,276.268 90.750,276.560 90.750 C 277.107 90.750,278.592 91.166,279.250 91.503 C 279.713 91.741,279.686 91.973,278.492 98.000 C 278.369 98.619,278.144 99.912,277.993 100.875 C 277.623 103.219,277.652 103.205,275.125 102.233 C 274.850 102.127,273.837 101.855,272.875 101.627 C 271.913 101.400,270.731 101.118,270.250 101.001 C 269.769 100.883,268.700 100.656,267.875 100.496 C 267.050 100.336,265.826 100.088,265.154 99.945 C 263.301 99.549,254.123 99.327,252.500 99.639 C 243.541 101.358,244.798 111.316,254.528 115.710 C 256.938 116.799,259.135 117.680,261.625 118.557 C 264.325 119.509,265.125 119.750,265.580 119.750 C 265.811 119.750,266.000 119.862,266.000 120.000 C 266.000 120.138,266.227 120.250,266.503 120.250 C 266.780 120.250,267.202 120.349,267.441 120.469 C 268.469 120.989,269.793 121.500,270.113 121.500 C 270.303 121.500,270.496 121.584,270.542 121.688 C 270.587 121.791,271.356 122.259,272.250 122.729 C 286.382 130.159,286.045 151.931,271.691 158.835 C 270.645 159.338,269.634 159.750,269.445 159.750 C 269.255 159.750,268.993 159.842,268.863 159.954 C 268.588 160.190,266.772 160.651,264.473 161.068 C 260.944 161.707,246.271 161.340,241.000 160.481 C 236.748 159.788,233.374 159.114,230.912 158.467 C 230.032 158.237,229.962 158.156,230.106 157.545 C 230.193 157.176,230.365 156.144,230.488 155.250 C 230.611 154.356,230.842 152.725,230.999 151.625 C 231.157 150.525,231.370 148.976,231.473 148.183 C 231.703 146.405,231.878 146.212,233.000 146.497 C 235.596 147.155,237.179 147.589,237.625 147.765 C 237.900 147.874,238.463 148.029,238.875 148.110 C 239.287 148.191,239.850 148.306,240.125 148.366 C 240.620 148.474,242.724 148.823,245.625 149.278 C 249.923 149.953,257.715 149.800,259.258 149.010 C 259.469 148.902,260.019 148.731,260.481 148.629 C 266.624 147.280,267.035 138.777,261.107 135.701 C 257.482 133.821,256.594 133.426,254.750 132.875 C 253.994 132.649,253.150 132.367,252.875 132.249 C 252.600 132.130,251.925 131.890,251.375 131.714 C 250.825 131.539,250.262 131.321,250.125 131.230 C 249.988 131.140,249.425 130.984,248.875 130.885 C 248.325 130.786,247.762 130.623,247.625 130.523 C 247.488 130.422,246.869 130.188,246.250 130.002 C 238.496 127.675,231.827 121.172,230.095 114.250 C 229.408 111.504,229.916 103.001,230.821 102.095 C 230.920 101.997,231.000 101.731,231.000 101.505 C 231.000 101.279,231.281 100.511,231.625 99.798 C 231.969 99.085,232.250 98.444,232.250 98.374 C 232.250 96.657,239.632 90.250,241.610 90.250 C 241.801 90.250,241.996 90.164,242.042 90.058 C 242.172 89.758,247.319 88.503,248.535 88.475 C 249.134 88.461,249.906 88.357,250.250 88.244 C 251.121 87.956,262.667 88.120,265.250 88.456 M56.801 89.813 C 57.137 90.077,57.211 90.982,57.286 95.750 L 57.375 101.375 41.250 101.500 L 25.125 101.625 25.125 111.500 L 25.125 121.375 39.237 121.440 C 50.145 121.490,53.393 121.575,53.545 121.815 C 53.882 122.345,53.794 132.856,53.450 133.200 C 53.224 133.426,49.689 133.500,39.077 133.500 L 25.004 133.500 24.940 146.938 L 24.875 160.375 16.375 160.375 L 7.875 160.375 7.875 125.125 L 7.875 89.875 32.000 89.748 C 45.269 89.678,56.188 89.594,56.265 89.561 C 56.342 89.527,56.583 89.641,56.801 89.813 M321.813 89.746 C 321.917 89.748,321.973 105.641,321.938 125.063 L 321.875 160.375 313.318 160.441 L 304.761 160.507 304.621 159.941 C 304.424 159.145,304.589 90.180,304.789 89.875 C 304.915 89.681,314.850 89.606,321.813 89.746 M365.188 119.125 L 365.252 148.375 379.030 148.306 C 389.252 148.255,392.900 148.313,393.160 148.529 C 393.522 148.829,393.468 153.394,393.045 158.375 L 392.875 160.375 370.375 160.375 L 347.875 160.375 347.811 125.375 C 347.775 106.125,347.801 90.233,347.867 90.059 C 347.961 89.812,349.835 89.758,356.556 89.809 L 365.125 89.875 365.188 119.125 M104.625 100.008 C 98.434 100.925,94.819 103.708,92.460 109.377 C 91.344 112.057,90.264 119.570,90.268 124.625 C 90.270 128.224,91.109 137.112,91.494 137.625 C 91.597 137.762,91.757 138.381,91.849 139.000 C 92.064 140.444,94.237 144.858,95.304 146.019 C 99.502 150.587,108.908 152.003,114.831 148.957 C 115.082 148.828,115.703 148.506,116.212 148.240 C 118.528 147.034,121.189 143.134,122.262 139.375 C 124.264 132.365,124.176 116.719,122.100 110.500 C 120.109 104.536,116.395 101.171,110.750 100.217 C 108.565 99.847,106.247 99.768,104.625 100.008 " stroke="none" fill="#fbfbfb" fill-rule="evenodd"></path><path id="path2" d="M258.813 88.172 C 259.053 88.235,259.447 88.235,259.688 88.172 C 259.928 88.109,259.731 88.058,259.250 88.058 C 258.769 88.058,258.572 88.109,258.813 88.172 M7.872 124.625 C 7.872 143.738,7.901 151.519,7.937 141.918 C 7.974 132.317,7.974 116.679,7.937 107.168 C 7.901 97.657,7.872 105.512,7.872 124.625 M321.872 125.000 C 321.872 144.319,321.901 152.222,321.937 142.563 C 321.974 132.903,321.974 117.097,321.937 107.438 C 321.901 97.778,321.872 105.681,321.872 125.000 M347.872 125.000 C 347.872 144.319,347.901 152.222,347.937 142.563 C 347.974 132.903,347.974 117.097,347.937 107.438 C 347.901 97.778,347.872 105.681,347.872 125.000 M365.121 118.750 C 365.121 134.631,365.151 141.128,365.187 133.188 C 365.224 125.247,365.224 112.253,365.187 104.313 C 365.151 96.372,365.121 102.869,365.121 118.750 M33.312 101.437 C 37.678 101.476,44.822 101.476,49.187 101.437 C 53.553 101.399,49.981 101.368,41.250 101.368 C 32.519 101.368,28.947 101.399,33.312 101.437 M140.318 127.000 C 140.318 127.619,140.367 127.872,140.426 127.563 C 140.486 127.253,140.486 126.747,140.426 126.438 C 140.367 126.128,140.318 126.381,140.318 127.000 M24.810 146.762 C 24.772 155.030,24.658 160.012,24.501 160.201 C 24.362 160.368,24.419 160.358,24.628 160.177 C 24.956 159.894,24.996 158.163,24.937 146.739 L 24.870 133.625 24.810 146.762 M12.687 160.437 C 14.784 160.479,18.216 160.479,20.313 160.437 C 22.409 160.395,20.694 160.361,16.500 160.361 C 12.306 160.361,10.591 160.395,12.687 160.437 M309.578 160.437 C 311.752 160.479,315.240 160.479,317.328 160.437 C 319.416 160.395,317.637 160.361,313.375 160.361 C 309.113 160.361,307.404 160.395,309.578 160.437 M359.581 160.437 C 365.607 160.475,375.395 160.475,381.331 160.437 C 387.268 160.400,382.337 160.370,370.375 160.370 C 358.413 160.370,353.555 160.400,359.581 160.437 M254.438 161.426 C 254.747 161.486,255.253 161.486,255.563 161.426 C 255.872 161.367,255.619 161.318,255.000 161.318 C 254.381 161.318,254.128 161.367,254.438 161.426 " stroke="none" fill="#848484" fill-rule="evenodd"></path><path id="path3" d="M103.942 88.431 C 104.391 88.487,105.066 88.486,105.442 88.429 C 105.818 88.372,105.450 88.326,104.625 88.327 C 103.800 88.329,103.493 88.376,103.942 88.431 M108.438 88.426 C 108.747 88.486,109.253 88.486,109.563 88.426 C 109.872 88.367,109.619 88.318,109.000 88.318 C 108.381 88.318,108.128 88.367,108.438 88.426 M189.440 88.427 C 189.751 88.487,190.201 88.484,190.440 88.422 C 190.679 88.359,190.425 88.310,189.875 88.313 C 189.325 88.316,189.129 88.367,189.440 88.427 M261.440 88.427 C 261.751 88.487,262.201 88.484,262.440 88.422 C 262.679 88.359,262.425 88.310,261.875 88.313 C 261.325 88.316,261.129 88.367,261.440 88.427 M101.188 88.676 C 101.497 88.736,102.003 88.736,102.313 88.676 C 102.622 88.617,102.369 88.568,101.750 88.568 C 101.131 88.568,100.878 88.617,101.188 88.676 M111.271 88.592 C 111.328 88.642,112.162 88.741,113.125 88.812 C 114.126 88.885,114.661 88.853,114.375 88.737 C 113.889 88.541,111.063 88.408,111.271 88.592 M176.563 88.679 C 176.941 88.736,177.559 88.736,177.938 88.679 C 178.316 88.622,178.006 88.575,177.250 88.575 C 176.494 88.575,176.184 88.622,176.563 88.679 M191.816 88.679 C 192.196 88.737,192.758 88.735,193.066 88.676 C 193.373 88.617,193.063 88.570,192.375 88.572 C 191.688 88.573,191.436 88.622,191.816 88.679 M248.563 88.679 C 248.941 88.736,249.559 88.736,249.938 88.679 C 250.316 88.622,250.006 88.575,249.250 88.575 C 248.494 88.575,248.184 88.622,248.563 88.679 M195.521 89.091 C 195.578 89.140,196.125 89.245,196.737 89.323 C 197.456 89.415,197.721 89.385,197.487 89.237 C 197.153 89.025,195.286 88.887,195.521 89.091 M267.690 89.177 C 268.001 89.237,268.451 89.234,268.690 89.172 C 268.929 89.109,268.675 89.060,268.125 89.063 C 267.575 89.066,267.379 89.117,267.690 89.177 M199.000 89.750 C 199.855 90.024,200.512 90.024,199.875 89.750 C 199.600 89.632,199.150 89.538,198.875 89.542 C 198.473 89.548,198.498 89.589,199.000 89.750 M270.521 89.590 C 270.578 89.639,270.962 89.755,271.375 89.847 C 271.923 89.970,272.024 89.947,271.750 89.761 C 271.412 89.533,270.270 89.373,270.521 89.590 M20.544 89.937 C 27.099 89.974,37.899 89.975,44.544 89.937 C 51.188 89.900,45.825 89.870,32.625 89.870 C 19.425 89.870,13.988 89.900,20.544 89.937 M309.328 89.937 C 311.640 89.978,315.353 89.978,317.578 89.937 C 319.804 89.896,317.913 89.862,313.375 89.862 C 308.837 89.862,307.017 89.896,309.328 89.937 M8.057 124.375 C 8.022 143.350,7.929 159.113,7.851 159.403 C 7.766 159.722,7.841 159.981,8.042 160.059 C 8.375 160.186,8.409 146.295,8.185 102.500 C 8.149 95.556,8.092 105.400,8.057 124.375 M201.750 90.239 C 201.956 90.378,202.341 90.494,202.604 90.496 C 203.244 90.501,203.044 90.358,202.125 90.153 C 201.577 90.030,201.476 90.053,201.750 90.239 M304.812 124.888 C 304.749 160.423,304.751 160.500,305.598 160.500 C 305.734 160.500,305.655 160.359,305.422 160.188 C 305.029 159.897,304.995 157.428,304.936 124.875 L 304.873 89.875 304.812 124.888 M206.375 91.430 C 206.650 91.497,207.100 91.737,207.375 91.963 C 207.871 92.372,207.871 92.370,207.399 91.813 C 207.137 91.503,206.687 91.263,206.399 91.279 C 205.895 91.307,205.894 91.313,206.375 91.430 M278.438 91.530 C 278.933 91.673,279.258 91.932,279.270 92.195 C 279.284 92.515,279.325 92.535,279.429 92.272 C 279.601 91.836,278.835 91.242,278.140 91.273 C 277.796 91.288,277.895 91.373,278.438 91.530 M57.068 93.000 C 57.068 93.619,57.117 93.872,57.176 93.563 C 57.236 93.253,57.236 92.747,57.176 92.438 C 57.117 92.128,57.068 92.381,57.068 93.000 M124.000 92.112 C 124.000 92.181,124.338 92.412,124.750 92.625 C 125.162 92.838,125.500 92.957,125.500 92.888 C 125.500 92.819,125.162 92.588,124.750 92.375 C 124.338 92.162,124.000 92.043,124.000 92.112 M88.063 93.279 C 87.210 93.824,86.935 94.191,87.688 93.777 C 88.261 93.462,89.160 92.767,89.000 92.762 C 88.931 92.760,88.509 92.993,88.063 93.279 M57.094 97.625 C 57.094 99.138,57.135 99.724,57.185 98.928 C 57.235 98.133,57.234 96.895,57.184 96.178 C 57.134 95.462,57.093 96.112,57.094 97.625 M130.250 96.625 C 131.136 97.519,131.917 98.250,131.986 98.250 C 132.054 98.250,131.386 97.519,130.500 96.625 C 129.614 95.731,128.833 95.000,128.764 95.000 C 128.696 95.000,129.364 95.731,130.250 96.625 M206.308 98.250 C 206.308 98.731,206.359 98.928,206.422 98.688 C 206.485 98.447,206.485 98.053,206.422 97.813 C 206.359 97.572,206.308 97.769,206.308 98.250 M132.996 99.627 C 133.992 100.826,134.076 100.903,133.804 100.372 C 133.662 100.096,133.283 99.646,132.961 99.374 C 132.396 98.896,132.397 98.905,132.996 99.627 M184.438 99.176 C 184.747 99.236,185.253 99.236,185.563 99.176 C 185.872 99.117,185.619 99.068,185.000 99.068 C 184.381 99.068,184.128 99.117,184.438 99.176 M256.438 99.176 C 256.747 99.236,257.253 99.236,257.563 99.176 C 257.872 99.117,257.619 99.068,257.000 99.068 C 256.381 99.068,256.128 99.117,256.438 99.176 M251.500 99.430 C 251.156 99.492,250.777 99.637,250.657 99.752 C 250.537 99.867,250.855 99.867,251.364 99.752 C 251.873 99.638,252.356 99.478,252.436 99.397 C 252.590 99.244,252.527 99.246,251.500 99.430 M277.790 99.917 C 277.768 100.353,277.685 100.915,277.606 101.167 C 277.470 101.599,277.478 101.600,277.747 101.182 C 277.903 100.939,277.986 100.376,277.930 99.932 L 277.830 99.125 277.790 99.917 M105.696 99.685 C 106.422 99.735,107.547 99.735,108.196 99.683 C 108.844 99.632,108.250 99.591,106.875 99.591 C 105.500 99.592,104.969 99.634,105.696 99.685 M191.816 99.679 C 192.196 99.737,192.758 99.735,193.066 99.676 C 193.373 99.617,193.063 99.570,192.375 99.572 C 191.688 99.573,191.436 99.622,191.816 99.679 M263.566 99.679 C 263.946 99.737,264.508 99.735,264.816 99.676 C 265.123 99.617,264.813 99.570,264.125 99.572 C 263.438 99.573,263.186 99.622,263.566 99.679 M25.050 101.300 C 24.711 101.639,24.601 121.378,24.938 121.586 C 25.041 121.650,25.094 117.200,25.057 111.696 C 25.008 104.458,25.068 101.594,25.275 101.345 C 25.627 100.921,25.462 100.888,25.050 101.300 M98.625 101.500 C 98.213 101.773,97.987 101.995,98.125 101.993 C 98.376 101.989,99.735 101.015,99.500 101.007 C 99.431 101.005,99.037 101.227,98.625 101.500 M114.750 101.112 C 114.750 101.181,115.088 101.412,115.500 101.625 C 115.912 101.838,116.250 101.957,116.250 101.888 C 116.250 101.819,115.912 101.588,115.500 101.375 C 115.088 101.162,114.750 101.043,114.750 101.112 M200.250 101.239 C 200.456 101.378,200.841 101.494,201.104 101.496 C 201.744 101.501,201.544 101.358,200.625 101.153 C 200.077 101.030,199.976 101.053,200.250 101.239 M95.613 103.813 L 94.625 104.875 95.688 103.887 C 96.676 102.968,96.865 102.750,96.676 102.750 C 96.635 102.750,96.157 103.228,95.613 103.813 M230.393 103.893 C 230.301 104.259,230.274 104.607,230.333 104.666 C 230.392 104.725,230.515 104.474,230.607 104.107 C 230.699 103.741,230.726 103.393,230.667 103.334 C 230.608 103.275,230.485 103.526,230.393 103.893 M174.558 107.750 C 174.558 108.231,174.609 108.428,174.672 108.188 C 174.735 107.947,174.735 107.553,174.672 107.313 C 174.609 107.072,174.558 107.269,174.558 107.750 M157.837 110.000 C 157.837 111.169,157.880 111.647,157.933 111.063 C 157.986 110.478,157.986 109.522,157.933 108.938 C 157.880 108.353,157.837 108.831,157.837 110.000 M229.832 110.125 C 229.833 111.088,229.878 111.451,229.932 110.932 C 229.987 110.413,229.986 109.626,229.930 109.182 C 229.875 108.738,229.831 109.162,229.832 110.125 M247.478 110.708 C 247.612 110.960,247.919 111.326,248.159 111.521 C 248.429 111.740,248.369 111.565,248.001 111.063 C 247.344 110.166,247.098 109.999,247.478 110.708 M122.535 111.500 C 122.535 111.706,122.632 112.100,122.750 112.375 C 122.885 112.690,122.965 112.736,122.965 112.500 C 122.965 112.294,122.868 111.900,122.750 111.625 C 122.615 111.310,122.535 111.264,122.535 111.500 M250.668 113.770 C 250.978 114.145,252.500 115.103,252.500 114.922 C 252.500 114.864,252.022 114.501,251.438 114.116 C 250.853 113.730,250.507 113.575,250.668 113.770 M158.254 114.146 C 158.256 114.409,158.372 114.794,158.511 115.000 C 158.697 115.274,158.720 115.173,158.597 114.625 C 158.392 113.706,158.249 113.506,158.254 114.146 M179.250 114.112 C 179.250 114.181,179.588 114.412,180.000 114.625 C 180.412 114.838,180.750 114.957,180.750 114.888 C 180.750 114.819,180.412 114.588,180.000 114.375 C 179.588 114.162,179.250 114.043,179.250 114.112 M90.563 116.125 C 90.566 116.675,90.617 116.871,90.677 116.560 C 90.737 116.249,90.734 115.799,90.672 115.560 C 90.609 115.321,90.560 115.575,90.563 116.125 M123.837 120.250 C 123.837 121.419,123.880 121.897,123.933 121.313 C 123.986 120.728,123.986 119.772,123.933 119.188 C 123.880 118.603,123.837 119.081,123.837 120.250 M73.813 121.125 C 73.816 121.675,73.867 121.871,73.927 121.560 C 73.987 121.249,73.984 120.799,73.922 120.560 C 73.859 120.321,73.810 120.575,73.813 121.125 M234.449 122.188 C 234.996 122.841,235.705 123.600,236.023 123.875 C 236.342 124.150,235.941 123.616,235.132 122.688 C 233.458 120.767,232.941 120.388,234.449 122.188 M271.000 122.373 C 271.000 122.415,271.478 122.690,272.063 122.984 C 273.042 123.477,273.076 123.480,272.500 123.023 C 271.943 122.581,271.000 122.172,271.000 122.373 M73.849 125.875 C 73.849 127.800,73.888 128.554,73.936 127.552 C 73.983 126.549,73.983 124.974,73.935 124.052 C 73.887 123.129,73.848 123.950,73.849 125.875 M123.822 124.625 C 123.823 125.313,123.872 125.564,123.929 125.184 C 123.987 124.804,123.985 124.242,123.926 123.934 C 123.867 123.627,123.820 123.938,123.822 124.625 M239.250 126.311 C 239.716 126.761,241.500 127.835,241.500 127.667 C 241.500 127.599,240.909 127.184,240.188 126.746 C 239.466 126.308,239.044 126.113,239.250 126.311 M123.825 127.500 C 123.825 128.256,123.872 128.566,123.929 128.188 C 123.986 127.809,123.986 127.191,123.929 126.813 C 123.872 126.434,123.825 126.744,123.825 127.500 M168.125 126.880 C 168.400 127.103,168.850 127.397,169.125 127.532 L 169.625 127.778 169.125 127.370 C 168.850 127.147,168.400 126.853,168.125 126.718 L 167.625 126.472 168.125 126.880 M278.347 128.074 C 278.877 128.721,279.362 129.250,279.426 129.250 C 279.597 129.250,278.013 127.288,277.673 127.078 C 277.514 126.979,277.817 127.427,278.347 128.074 M74.058 130.500 C 74.058 130.981,74.109 131.178,74.172 130.938 C 74.235 130.697,74.235 130.303,74.172 130.063 C 74.109 129.822,74.058 130.019,74.058 130.500 M123.825 131.250 C 123.825 132.006,123.872 132.316,123.929 131.938 C 123.986 131.559,123.986 130.941,123.929 130.563 C 123.872 130.184,123.825 130.494,123.825 131.250 M74.275 133.146 C 74.289 133.547,74.395 134.156,74.512 134.500 C 74.656 134.921,74.678 134.718,74.580 133.875 C 74.418 132.469,74.237 132.037,74.275 133.146 M90.577 133.875 C 90.579 134.700,90.626 135.007,90.681 134.558 C 90.737 134.109,90.736 133.434,90.679 133.058 C 90.622 132.682,90.576 133.050,90.577 133.875 M39.146 132.997 C 27.895 133.098,24.903 133.192,24.852 133.444 C 24.817 133.619,24.845 133.647,24.915 133.506 C 24.999 133.336,29.758 133.250,39.131 133.250 C 48.254 133.250,53.275 133.162,53.375 133.000 C 53.460 132.863,53.495 132.777,53.452 132.809 C 53.410 132.842,46.972 132.926,39.146 132.997 M281.653 134.875 C 281.858 135.794,282.001 135.994,281.996 135.354 C 281.994 135.091,281.878 134.706,281.739 134.500 C 281.553 134.226,281.530 134.327,281.653 134.875 M260.194 135.001 C 261.255 135.648,261.602 135.647,260.625 135.000 C 260.212 134.727,259.762 134.503,259.625 134.503 C 259.488 134.502,259.743 134.726,260.194 135.001 M210.340 139.750 C 210.340 141.056,210.382 141.591,210.434 140.938 C 210.485 140.284,210.485 139.216,210.434 138.563 C 210.382 137.909,210.340 138.444,210.340 139.750 M282.325 139.250 C 282.325 140.006,282.372 140.316,282.429 139.938 C 282.486 139.559,282.486 138.941,282.429 138.563 C 282.372 138.184,282.325 138.494,282.325 139.250 M265.582 142.125 C 265.583 143.088,265.628 143.451,265.682 142.932 C 265.737 142.413,265.736 141.626,265.680 141.182 C 265.625 140.738,265.581 141.162,265.582 142.125 M193.542 142.792 C 193.519 143.296,193.435 143.915,193.356 144.167 C 193.221 144.598,193.229 144.599,193.496 144.183 C 193.652 143.940,193.736 143.321,193.682 142.808 L 193.584 141.875 193.542 142.792 M281.779 144.792 C 281.763 145.021,281.685 145.415,281.606 145.667 C 281.470 146.101,281.477 146.102,281.748 145.680 C 281.905 145.435,281.983 145.041,281.921 144.805 C 281.819 144.418,281.805 144.416,281.779 144.792 M94.197 145.125 C 94.342 145.400,95.001 146.131,95.660 146.750 L 96.859 147.875 95.507 146.375 C 94.763 145.550,94.104 144.819,94.043 144.750 C 93.982 144.681,94.051 144.850,94.197 145.125 M192.551 145.767 C 192.240 146.308,192.036 146.750,192.097 146.750 C 192.269 146.750,193.320 144.987,193.212 144.879 C 193.160 144.826,192.862 145.226,192.551 145.767 M263.641 146.946 C 262.760 148.002,262.742 148.047,263.475 147.375 C 264.169 146.739,264.930 145.731,264.696 145.758 C 264.657 145.763,264.182 146.297,263.641 146.946 M161.021 146.840 C 161.078 146.889,161.463 147.005,161.875 147.097 C 162.423 147.220,162.524 147.197,162.250 147.011 C 161.912 146.783,160.770 146.623,161.021 146.840 M231.658 147.773 C 231.571 148.207,231.514 148.914,231.530 149.344 C 231.549 149.809,231.648 149.525,231.777 148.642 C 232.007 147.065,231.923 146.449,231.658 147.773 M237.771 148.090 C 237.828 148.139,238.213 148.255,238.625 148.347 C 239.173 148.470,239.274 148.447,239.000 148.261 C 238.662 148.033,237.520 147.873,237.771 148.090 M370.125 148.681 C 383.020 148.855,393.192 148.858,393.087 148.688 C 393.023 148.584,386.705 148.526,379.048 148.557 C 371.390 148.588,367.375 148.644,370.125 148.681 M175.688 149.926 C 175.997 149.986,176.503 149.986,176.813 149.926 C 177.122 149.867,176.869 149.818,176.250 149.818 C 175.631 149.818,175.378 149.867,175.688 149.926 M179.563 149.934 C 180.216 149.985,181.284 149.985,181.938 149.934 C 182.591 149.882,182.056 149.840,180.750 149.840 C 179.444 149.840,178.909 149.882,179.563 149.934 M247.940 149.927 C 248.251 149.987,248.701 149.984,248.940 149.922 C 249.179 149.859,248.925 149.810,248.375 149.813 C 247.825 149.816,247.629 149.867,247.940 149.927 M251.563 149.934 C 252.216 149.985,253.284 149.985,253.938 149.934 C 254.591 149.882,254.056 149.840,252.750 149.840 C 251.444 149.840,250.909 149.882,251.563 149.934 M393.068 151.000 C 393.068 151.619,393.117 151.872,393.176 151.563 C 393.236 151.253,393.236 150.747,393.176 150.438 C 393.117 150.128,393.068 150.381,393.068 151.000 M102.563 150.422 C 102.803 150.485,103.197 150.485,103.438 150.422 C 103.678 150.359,103.481 150.308,103.000 150.308 C 102.519 150.308,102.322 150.359,102.563 150.422 M110.690 150.427 C 111.001 150.487,111.451 150.484,111.690 150.422 C 111.929 150.359,111.675 150.310,111.125 150.313 C 110.575 150.316,110.379 150.367,110.690 150.427 M393.058 153.250 C 393.058 153.731,393.109 153.928,393.172 153.688 C 393.235 153.447,393.235 153.053,393.172 152.813 C 393.109 152.572,393.058 152.769,393.058 153.250 M128.863 155.063 L 127.875 156.125 128.938 155.137 C 129.926 154.218,130.115 154.000,129.926 154.000 C 129.885 154.000,129.407 154.478,128.863 155.063 M392.825 156.250 C 392.825 157.006,392.872 157.316,392.929 156.938 C 392.986 156.559,392.986 155.941,392.929 155.563 C 392.872 155.184,392.825 155.494,392.825 156.250 M90.315 158.521 C 91.010 158.926,92.500 159.519,92.500 159.390 C 92.500 159.262,90.282 158.245,90.031 158.258 C 89.945 158.262,90.073 158.380,90.315 158.521 M122.750 158.875 C 122.406 159.072,122.237 159.232,122.375 159.232 C 122.513 159.232,122.906 159.072,123.250 158.875 C 123.594 158.678,123.763 158.518,123.625 158.518 C 123.487 158.518,123.094 158.678,122.750 158.875 M233.750 159.003 C 233.956 159.135,234.453 159.244,234.854 159.246 C 235.821 159.251,235.611 159.107,234.375 158.917 C 233.694 158.813,233.495 158.840,233.750 159.003 M161.813 159.172 C 162.053 159.235,162.447 159.235,162.688 159.172 C 162.928 159.109,162.731 159.058,162.250 159.058 C 161.769 159.058,161.572 159.109,161.813 159.172 M168.250 160.250 C 169.105 160.524,169.762 160.524,169.125 160.250 C 168.850 160.132,168.400 160.038,168.125 160.042 C 167.723 160.048,167.748 160.089,168.250 160.250 M195.000 160.250 C 194.485 160.415,194.463 160.454,194.875 160.471 C 195.150 160.483,195.544 160.383,195.750 160.250 C 196.188 159.967,195.884 159.967,195.000 160.250 M264.125 160.750 L 263.125 160.929 264.000 160.961 C 264.481 160.978,265.044 160.883,265.250 160.750 C 265.659 160.486,265.601 160.486,264.125 160.750 M173.192 160.931 C 173.641 160.987,174.316 160.986,174.692 160.929 C 175.068 160.872,174.700 160.826,173.875 160.827 C 173.050 160.829,172.743 160.876,173.192 160.931 M246.442 160.931 C 246.891 160.987,247.566 160.986,247.942 160.929 C 248.318 160.872,247.950 160.826,247.125 160.827 C 246.300 160.829,245.993 160.876,246.442 160.931 M177.250 161.288 C 177.869 161.384,180.569 161.456,183.250 161.447 C 189.522 161.427,188.679 161.296,181.625 161.193 C 178.600 161.149,176.631 161.192,177.250 161.288 M250.313 161.172 C 250.553 161.235,250.947 161.235,251.188 161.172 C 251.428 161.109,251.231 161.058,250.750 161.058 C 250.269 161.058,250.072 161.109,250.313 161.172 M98.063 161.422 C 98.303 161.485,98.697 161.485,98.938 161.422 C 99.178 161.359,98.981 161.308,98.500 161.308 C 98.019 161.308,97.822 161.359,98.063 161.422 M115.063 161.422 C 115.303 161.485,115.697 161.485,115.938 161.422 C 116.178 161.359,115.981 161.308,115.500 161.308 C 115.019 161.308,114.822 161.359,115.063 161.422 M252.438 161.426 C 252.747 161.486,253.253 161.486,253.563 161.426 C 253.872 161.367,253.619 161.318,253.000 161.318 C 252.381 161.318,252.128 161.367,252.438 161.426 M256.438 161.426 C 256.747 161.486,257.253 161.486,257.563 161.426 C 257.872 161.367,257.619 161.318,257.000 161.318 C 256.381 161.318,256.128 161.367,256.438 161.426 M258.813 161.429 C 259.191 161.486,259.809 161.486,260.188 161.429 C 260.566 161.372,260.256 161.325,259.500 161.325 C 258.744 161.325,258.434 161.372,258.813 161.429 M101.813 161.922 C 102.053 161.985,102.447 161.985,102.688 161.922 C 102.928 161.859,102.731 161.808,102.250 161.808 C 101.769 161.808,101.572 161.859,101.813 161.922 M111.313 161.922 C 111.553 161.985,111.947 161.985,112.188 161.922 C 112.428 161.859,112.231 161.808,111.750 161.808 C 111.269 161.808,111.072 161.859,111.313 161.922 M107.000 162.250 L 103.875 162.399 106.875 162.432 C 108.525 162.450,110.100 162.368,110.375 162.250 C 110.650 162.132,110.706 162.050,110.500 162.068 C 110.294 162.086,108.719 162.168,107.000 162.250 " stroke="none" fill="#747474" fill-rule="evenodd"></path><path id="path4" d="M102.500 88.238 C 102.156 88.341,102.888 88.371,104.125 88.305 C 105.362 88.238,106.422 88.143,106.479 88.092 C 106.675 87.919,103.127 88.049,102.500 88.238 M108.316 88.179 C 108.696 88.237,109.258 88.235,109.566 88.176 C 109.873 88.117,109.563 88.070,108.875 88.072 C 108.188 88.073,107.936 88.122,108.316 88.179 M178.250 88.250 C 177.755 88.408,177.729 88.450,178.125 88.450 C 178.400 88.450,178.906 88.360,179.250 88.250 C 179.745 88.092,179.771 88.050,179.375 88.050 C 179.100 88.050,178.594 88.140,178.250 88.250 M181.313 88.179 C 181.691 88.236,182.309 88.236,182.688 88.179 C 183.066 88.122,182.756 88.075,182.000 88.075 C 181.244 88.075,180.934 88.122,181.313 88.179 M184.942 88.181 C 185.391 88.237,186.066 88.236,186.442 88.179 C 186.818 88.122,186.450 88.076,185.625 88.077 C 184.800 88.079,184.493 88.126,184.942 88.181 M188.813 88.179 C 189.191 88.236,189.809 88.236,190.188 88.179 C 190.566 88.122,190.256 88.075,189.500 88.075 C 188.744 88.075,188.434 88.122,188.813 88.179 M250.250 88.250 C 249.748 88.411,249.723 88.452,250.125 88.458 C 250.400 88.462,250.850 88.368,251.125 88.250 C 251.762 87.976,251.105 87.976,250.250 88.250 M253.313 88.179 C 253.691 88.236,254.309 88.236,254.688 88.179 C 255.066 88.122,254.756 88.075,254.000 88.075 C 253.244 88.075,252.934 88.122,253.313 88.179 M256.563 88.179 C 256.941 88.236,257.559 88.236,257.938 88.179 C 258.316 88.122,258.006 88.075,257.250 88.075 C 256.494 88.075,256.184 88.122,256.563 88.179 M260.692 88.181 C 261.141 88.237,261.816 88.236,262.192 88.179 C 262.568 88.122,262.200 88.076,261.375 88.077 C 260.550 88.079,260.243 88.126,260.692 88.181 M111.063 88.422 C 111.303 88.485,111.697 88.485,111.938 88.422 C 112.178 88.359,111.981 88.308,111.500 88.308 C 111.019 88.308,110.822 88.359,111.063 88.422 M99.125 88.750 C 98.444 88.923,98.433 88.942,99.000 88.953 C 99.344 88.959,99.850 88.868,100.125 88.750 C 100.741 88.485,100.166 88.485,99.125 88.750 M114.375 88.738 C 114.855 88.956,116.194 89.098,115.979 88.908 C 115.922 88.858,115.425 88.748,114.875 88.664 C 114.178 88.558,114.027 88.580,114.375 88.738 M56.438 89.805 C 56.788 89.974,57.013 90.321,57.034 90.726 L 57.068 91.375 57.183 90.764 C 57.296 90.160,56.727 89.479,56.140 89.517 C 55.994 89.526,56.128 89.656,56.438 89.805 M242.625 89.750 C 241.933 89.926,241.923 89.943,242.500 89.967 C 242.844 89.981,243.294 89.883,243.500 89.750 C 243.925 89.475,243.706 89.475,242.625 89.750 M170.000 89.965 C 170.000 90.084,170.281 90.127,170.625 90.061 C 170.969 89.995,171.250 89.899,171.250 89.846 C 171.250 89.793,170.969 89.750,170.625 89.750 C 170.281 89.750,170.000 89.847,170.000 89.965 M200.500 89.848 C 200.500 89.901,200.886 89.990,201.357 90.045 C 201.829 90.100,202.160 90.057,202.093 89.948 C 201.972 89.752,200.500 89.660,200.500 89.848 M272.250 89.849 C 272.250 89.903,272.691 89.989,273.229 90.041 C 273.767 90.092,274.155 90.048,274.089 89.942 C 273.970 89.750,272.250 89.663,272.250 89.849 M352.188 89.937 C 354.559 89.978,358.441 89.978,360.813 89.937 C 363.184 89.896,361.244 89.862,356.500 89.862 C 351.756 89.862,349.816 89.896,352.188 89.937 M304.563 125.875 C 304.533 144.575,304.590 160.005,304.691 160.164 C 304.856 160.423,304.852 126.335,304.684 101.500 C 304.648 96.206,304.594 107.175,304.563 125.875 M162.859 94.813 L 162.125 95.625 162.938 94.891 C 163.384 94.487,163.750 94.121,163.750 94.078 C 163.750 93.885,163.544 94.055,162.859 94.813 M234.000 95.750 C 233.564 96.300,233.264 96.750,233.333 96.750 C 233.402 96.750,233.814 96.300,234.250 95.750 C 234.686 95.200,234.986 94.750,234.917 94.750 C 234.848 94.750,234.436 95.200,234.000 95.750 M130.375 96.500 C 131.191 97.325,131.916 98.000,131.984 98.000 C 132.053 98.000,131.441 97.325,130.625 96.500 C 129.809 95.675,129.084 95.000,129.016 95.000 C 128.947 95.000,129.559 95.675,130.375 96.500 M57.247 99.676 C 57.180 100.667,57.215 101.387,57.325 101.276 C 57.436 101.165,57.491 100.354,57.448 99.475 L 57.369 97.875 57.247 99.676 M180.500 99.511 C 180.226 99.697,180.327 99.720,180.875 99.597 C 181.794 99.392,181.994 99.249,181.354 99.254 C 181.091 99.256,180.706 99.372,180.500 99.511 M182.688 99.431 C 183.134 99.486,183.866 99.486,184.313 99.431 C 184.759 99.375,184.394 99.330,183.500 99.330 C 182.606 99.330,182.241 99.375,182.688 99.431 M186.682 99.430 C 187.126 99.486,187.913 99.487,188.432 99.432 C 188.951 99.378,188.588 99.333,187.625 99.332 C 186.662 99.331,186.238 99.375,186.682 99.430 M255.824 99.436 C 256.896 99.483,258.583 99.483,259.574 99.435 C 260.565 99.388,259.688 99.350,257.625 99.350 C 255.563 99.350,254.752 99.389,255.824 99.436 M104.690 99.927 C 105.001 99.987,105.451 99.984,105.690 99.922 C 105.929 99.859,105.675 99.810,105.125 99.813 C 104.575 99.816,104.379 99.867,104.690 99.927 M193.021 99.840 C 193.078 99.889,193.463 100.005,193.875 100.097 C 194.423 100.220,194.524 100.197,194.250 100.011 C 193.912 99.783,192.770 99.623,193.021 99.840 M198.771 101.089 C 198.828 101.138,199.269 101.250,199.750 101.339 C 200.366 101.452,200.514 101.426,200.250 101.253 C 199.911 101.031,198.523 100.877,198.771 101.089 M248.081 101.563 C 247.802 101.872,247.485 102.294,247.376 102.500 C 247.165 102.898,247.222 102.843,248.235 101.688 C 248.566 101.309,248.781 101.000,248.712 101.000 C 248.643 101.000,248.359 101.253,248.081 101.563 M200.771 101.589 C 200.828 101.638,201.269 101.750,201.750 101.839 C 202.366 101.952,202.514 101.926,202.250 101.753 C 201.911 101.531,200.523 101.377,200.771 101.589 M96.554 103.188 C 95.956 103.772,95.946 103.801,96.488 103.379 C 97.555 102.548,97.606 102.500,97.429 102.500 C 97.335 102.500,96.941 102.809,96.554 103.188 M118.125 103.750 C 118.662 104.300,119.158 104.750,119.226 104.750 C 119.295 104.750,118.912 104.300,118.375 103.750 C 117.838 103.200,117.342 102.750,117.274 102.750 C 117.205 102.750,117.588 103.200,118.125 103.750 M230.058 105.000 C 230.058 105.481,230.109 105.678,230.172 105.438 C 230.235 105.197,230.235 104.803,230.172 104.563 C 230.109 104.322,230.058 104.519,230.058 105.000 M138.004 108.896 C 138.006 109.159,138.122 109.544,138.261 109.750 C 138.447 110.024,138.470 109.923,138.347 109.375 C 138.142 108.456,137.999 108.256,138.004 108.896 M122.768 113.396 C 122.777 113.797,122.885 114.350,123.007 114.625 C 123.154 114.959,123.178 114.751,123.079 114.000 C 122.904 112.675,122.743 112.362,122.768 113.396 M74.558 114.500 C 74.558 114.981,74.609 115.178,74.672 114.938 C 74.735 114.697,74.735 114.303,74.672 114.063 C 74.609 113.822,74.558 114.019,74.558 114.500 M179.250 113.834 C 179.250 114.004,181.046 115.037,181.154 114.930 C 181.204 114.880,180.796 114.587,180.247 114.278 C 179.699 113.970,179.250 113.770,179.250 113.834 M251.875 114.380 C 252.150 114.603,252.600 114.897,252.875 115.032 L 253.375 115.278 252.875 114.870 C 252.600 114.647,252.150 114.353,251.875 114.218 L 251.375 113.972 251.875 114.380 M139.680 116.000 C 139.757 116.756,139.861 117.422,139.910 117.479 C 140.096 117.694,139.956 115.604,139.752 115.125 C 139.620 114.814,139.593 115.144,139.680 116.000 M123.322 116.625 C 123.323 117.313,123.372 117.564,123.429 117.184 C 123.487 116.804,123.485 116.242,123.426 115.934 C 123.367 115.627,123.320 115.938,123.322 116.625 M123.568 119.000 C 123.568 119.619,123.617 119.872,123.676 119.563 C 123.736 119.253,123.736 118.747,123.676 118.438 C 123.617 118.128,123.568 118.381,123.568 119.000 M262.963 119.313 C 263.089 119.439,263.458 119.500,263.784 119.449 C 264.284 119.371,264.249 119.335,263.555 119.220 C 263.058 119.138,262.825 119.175,262.963 119.313 M191.521 119.340 C 191.578 119.389,191.963 119.505,192.375 119.597 C 192.923 119.720,193.024 119.697,192.750 119.511 C 192.412 119.283,191.270 119.123,191.521 119.340 M90.313 120.375 C 90.316 120.925,90.367 121.121,90.427 120.810 C 90.487 120.499,90.484 120.049,90.422 119.810 C 90.359 119.571,90.310 119.825,90.313 120.375 M140.340 121.750 C 140.340 123.056,140.382 123.591,140.434 122.938 C 140.485 122.284,140.485 121.216,140.434 120.563 C 140.382 119.909,140.340 120.444,140.340 121.750 M264.713 119.813 C 264.839 119.939,265.208 120.000,265.534 119.949 C 266.034 119.871,265.999 119.835,265.305 119.720 C 264.808 119.638,264.575 119.675,264.713 119.813 M234.418 122.469 C 235.082 123.277,235.840 124.076,236.103 124.246 C 236.366 124.416,235.864 123.755,234.989 122.777 C 233.058 120.621,232.771 120.465,234.418 122.469 M32.295 121.687 C 35.963 121.726,42.038 121.726,45.795 121.687 C 49.551 121.648,46.550 121.617,39.125 121.617 C 31.700 121.617,28.626 121.648,32.295 121.687 M53.607 127.500 C 53.607 130.594,53.643 131.859,53.687 130.313 C 53.730 128.766,53.730 126.234,53.687 124.688 C 53.643 123.141,53.607 124.406,53.607 127.500 M163.500 123.625 C 163.966 124.106,164.404 124.500,164.473 124.500 C 164.542 124.500,164.216 124.106,163.750 123.625 C 163.284 123.144,162.846 122.750,162.777 122.750 C 162.708 122.750,163.034 123.144,163.500 123.625 M200.521 122.831 C 200.578 122.875,201.019 123.166,201.500 123.477 L 202.375 124.041 201.625 123.397 C 201.213 123.042,200.772 122.752,200.646 122.751 C 200.520 122.751,200.464 122.786,200.521 122.831 M272.750 123.085 C 272.750 123.139,273.228 123.499,273.813 123.884 C 274.413 124.281,274.720 124.396,274.518 124.151 C 274.179 123.739,272.750 122.877,272.750 123.085 M277.615 127.000 C 279.590 129.174,279.663 129.243,279.061 128.375 C 278.775 127.963,278.000 127.119,277.340 126.500 C 276.272 125.500,276.303 125.556,277.615 127.000 M90.322 129.125 C 90.323 129.813,90.372 130.064,90.429 129.684 C 90.487 129.304,90.485 128.742,90.426 128.434 C 90.367 128.127,90.320 128.438,90.322 129.125 M140.334 129.750 C 140.334 130.781,140.378 131.203,140.432 130.688 C 140.486 130.172,140.486 129.328,140.432 128.813 C 140.378 128.297,140.334 128.719,140.334 129.750 M247.642 130.472 C 247.907 130.715,249.456 131.122,249.221 130.888 C 249.137 130.803,248.695 130.628,248.238 130.497 C 247.782 130.366,247.514 130.355,247.642 130.472 M252.892 132.222 C 253.157 132.465,254.706 132.872,254.471 132.638 C 254.387 132.553,253.945 132.378,253.488 132.247 C 253.032 132.116,252.764 132.105,252.892 132.222 M31.920 133.437 C 35.794 133.476,42.207 133.476,46.170 133.437 C 50.133 133.399,46.963 133.367,39.125 133.367 C 31.287 133.367,28.045 133.399,31.920 133.437 M123.313 134.125 C 123.316 134.675,123.367 134.871,123.427 134.560 C 123.487 134.249,123.484 133.799,123.422 133.560 C 123.359 133.321,123.310 133.575,123.313 134.125 M139.808 134.250 C 139.808 134.731,139.859 134.928,139.922 134.688 C 139.985 134.447,139.985 134.053,139.922 133.813 C 139.859 133.572,139.808 133.769,139.808 134.250 M260.250 135.228 C 260.594 135.509,260.988 135.740,261.125 135.741 C 261.393 135.742,260.940 135.396,260.125 134.975 C 259.793 134.803,259.835 134.888,260.250 135.228 M210.153 136.125 C 210.358 137.044,210.501 137.244,210.496 136.604 C 210.494 136.341,210.378 135.956,210.239 135.750 C 210.053 135.476,210.030 135.577,210.153 136.125 M282.042 136.250 C 282.055 136.900,282.449 137.967,282.458 137.375 C 282.462 137.100,282.368 136.650,282.250 136.375 C 282.118 136.069,282.038 136.020,282.042 136.250 M122.808 137.250 C 122.808 137.731,122.859 137.928,122.922 137.688 C 122.985 137.447,122.985 137.053,122.922 136.813 C 122.859 136.572,122.808 136.769,122.808 137.250 M91.470 138.305 C 91.585 138.999,91.621 139.034,91.699 138.534 C 91.750 138.208,91.689 137.839,91.563 137.713 C 91.425 137.575,91.388 137.808,91.470 138.305 M138.250 140.564 C 138.250 140.599,138.139 141.014,138.004 141.485 C 137.869 141.956,137.855 142.236,137.972 142.108 C 138.228 141.829,138.565 140.500,138.380 140.500 C 138.308 140.500,138.250 140.529,138.250 140.564 M77.250 144.593 C 77.250 144.863,78.243 146.750,78.385 146.750 C 78.454 146.750,78.269 146.272,77.974 145.688 C 77.395 144.538,77.250 144.320,77.250 144.593 M117.859 147.063 L 117.125 147.875 117.938 147.141 C 118.695 146.456,118.865 146.250,118.672 146.250 C 118.629 146.250,118.263 146.616,117.859 147.063 M159.765 146.606 C 159.598 146.808,159.511 147.232,159.572 147.549 C 159.671 148.070,159.685 148.061,159.716 147.452 C 159.761 146.571,160.021 146.441,161.171 146.728 C 161.696 146.859,162.406 147.036,162.750 147.122 C 163.257 147.248,163.233 147.211,162.625 146.928 C 161.349 146.333,160.108 146.193,159.765 146.606 M231.743 146.763 C 231.592 147.045,231.519 147.467,231.580 147.701 C 231.663 148.014,231.700 147.983,231.721 147.580 C 231.737 147.281,231.927 146.859,232.143 146.643 C 232.359 146.427,232.419 146.250,232.277 146.250 C 232.134 146.250,231.894 146.481,231.743 146.763 M188.875 148.500 C 188.790 148.637,188.453 148.750,188.125 148.750 C 187.797 148.750,187.466 148.852,187.389 148.977 C 187.239 149.219,188.054 149.094,188.875 148.747 C 189.150 148.631,189.544 148.481,189.750 148.413 C 189.987 148.335,189.923 148.282,189.577 148.270 C 189.276 148.259,188.960 148.363,188.875 148.500 M372.580 148.437 C 376.406 148.476,382.593 148.476,386.330 148.437 C 390.067 148.398,386.938 148.367,379.375 148.367 C 371.813 148.367,368.755 148.399,372.580 148.437 M260.125 148.678 C 259.359 148.862,259.124 149.205,259.860 149.064 C 260.216 148.996,260.569 148.841,260.643 148.720 C 260.718 148.599,260.745 148.513,260.702 148.529 C 260.660 148.545,260.400 148.612,260.125 148.678 M170.190 148.927 C 170.501 148.987,170.951 148.984,171.190 148.922 C 171.429 148.859,171.175 148.810,170.625 148.813 C 170.075 148.816,169.879 148.867,170.190 148.927 M241.938 148.926 C 242.247 148.986,242.753 148.986,243.063 148.926 C 243.372 148.867,243.119 148.818,242.500 148.818 C 241.881 148.818,241.628 148.867,241.938 148.926 M393.322 149.875 C 393.323 150.563,393.372 150.814,393.429 150.434 C 393.487 150.054,393.485 149.492,393.426 149.184 C 393.367 148.877,393.320 149.188,393.322 149.875 M173.438 149.426 C 173.747 149.486,174.253 149.486,174.563 149.426 C 174.872 149.367,174.619 149.318,174.000 149.318 C 173.381 149.318,173.128 149.367,173.438 149.426 M245.440 149.427 C 245.751 149.487,246.201 149.484,246.440 149.422 C 246.679 149.359,246.425 149.310,245.875 149.313 C 245.325 149.316,245.129 149.367,245.440 149.427 M101.021 149.840 C 101.078 149.889,101.463 150.005,101.875 150.097 C 102.423 150.220,102.524 150.197,102.250 150.011 C 101.912 149.783,100.770 149.623,101.021 149.840 M80.935 150.875 C 81.219 151.287,81.768 151.906,82.156 152.250 C 82.624 152.665,82.537 152.497,81.895 151.750 C 80.585 150.223,80.322 149.984,80.935 150.875 M159.063 151.125 C 159.066 151.675,159.117 151.871,159.177 151.560 C 159.237 151.249,159.234 150.799,159.172 150.560 C 159.109 150.321,159.060 150.575,159.063 151.125 M105.942 150.681 C 106.391 150.737,107.066 150.736,107.442 150.679 C 107.818 150.622,107.450 150.576,106.625 150.577 C 105.800 150.579,105.493 150.626,105.942 150.681 M131.863 152.313 L 130.875 153.375 131.938 152.387 C 132.926 151.468,133.115 151.250,132.926 151.250 C 132.885 151.250,132.407 151.728,131.863 152.313 M393.308 152.750 C 393.308 153.231,393.359 153.428,393.422 153.188 C 393.485 152.947,393.485 152.553,393.422 152.313 C 393.359 152.072,393.308 152.269,393.308 152.750 M158.563 154.625 C 158.566 155.175,158.617 155.371,158.677 155.060 C 158.737 154.749,158.734 154.299,158.672 154.060 C 158.609 153.821,158.560 154.075,158.563 154.625 M128.859 155.313 L 128.125 156.125 128.938 155.391 C 129.384 154.987,129.750 154.621,129.750 154.578 C 129.750 154.385,129.544 154.555,128.859 155.313 M393.075 156.000 C 393.075 156.756,393.122 157.066,393.179 156.688 C 393.236 156.309,393.236 155.691,393.179 155.313 C 393.122 154.934,393.075 155.244,393.075 156.000 M90.000 158.625 C 90.344 158.822,90.737 158.982,90.875 158.982 C 91.013 158.982,90.844 158.822,90.500 158.625 C 90.156 158.428,89.763 158.268,89.625 158.268 C 89.487 158.268,89.656 158.428,90.000 158.625 M392.730 159.562 C 392.656 160.100,392.694 160.406,392.820 160.280 C 392.940 160.160,392.999 159.738,392.950 159.343 C 392.867 158.682,392.850 158.699,392.730 159.562 M268.250 159.930 C 267.333 160.095,267.101 160.435,267.995 160.304 C 268.414 160.243,268.818 160.093,268.893 159.971 C 268.968 159.850,268.995 159.765,268.952 159.784 C 268.910 159.803,268.594 159.869,268.250 159.930 M166.190 160.177 C 166.501 160.237,166.951 160.234,167.190 160.172 C 167.429 160.109,167.175 160.060,166.625 160.063 C 166.075 160.066,165.879 160.117,166.190 160.177 M195.903 160.205 C 195.833 160.317,196.108 160.361,196.513 160.301 C 196.918 160.242,197.250 160.150,197.250 160.097 C 197.250 159.906,196.027 160.004,195.903 160.205 M238.940 160.177 C 239.251 160.237,239.701 160.234,239.940 160.172 C 240.179 160.109,239.925 160.060,239.375 160.063 C 238.825 160.066,238.629 160.117,238.940 160.177 M169.566 160.679 C 169.946 160.737,170.508 160.735,170.816 160.676 C 171.123 160.617,170.813 160.570,170.125 160.572 C 169.438 160.573,169.186 160.622,169.566 160.679 M193.750 160.747 C 193.495 160.910,193.694 160.937,194.375 160.833 C 195.611 160.643,195.821 160.499,194.854 160.504 C 194.453 160.506,193.956 160.615,193.750 160.747 M242.316 160.679 C 242.696 160.737,243.258 160.735,243.566 160.676 C 243.873 160.617,243.563 160.570,242.875 160.572 C 242.188 160.573,241.936 160.622,242.316 160.679 M174.813 161.172 C 175.053 161.235,175.447 161.235,175.688 161.172 C 175.928 161.109,175.731 161.058,175.250 161.058 C 174.769 161.058,174.572 161.109,174.813 161.172 M248.313 161.172 C 248.553 161.235,248.947 161.235,249.188 161.172 C 249.428 161.109,249.231 161.058,248.750 161.058 C 248.269 161.058,248.072 161.109,248.313 161.172 M176.813 161.422 C 177.053 161.485,177.447 161.485,177.688 161.422 C 177.928 161.359,177.731 161.308,177.250 161.308 C 176.769 161.308,176.572 161.359,176.813 161.422 M250.440 161.427 C 250.751 161.487,251.201 161.484,251.440 161.422 C 251.679 161.359,251.425 161.310,250.875 161.313 C 250.325 161.316,250.129 161.367,250.440 161.427 M261.563 161.422 C 261.803 161.485,262.197 161.485,262.438 161.422 C 262.678 161.359,262.481 161.308,262.000 161.308 C 261.519 161.308,261.322 161.359,261.563 161.422 M99.125 161.748 C 99.603 161.955,101.446 162.097,101.229 161.910 C 101.172 161.861,100.563 161.755,99.875 161.676 C 99.071 161.583,98.803 161.609,99.125 161.748 M102.500 162.250 C 102.844 162.360,103.350 162.453,103.625 162.458 L 104.125 162.465 103.625 162.250 C 103.350 162.132,102.844 162.038,102.500 162.042 L 101.875 162.050 102.500 162.250 M110.500 162.250 C 110.005 162.408,109.979 162.450,110.375 162.450 C 110.650 162.450,111.156 162.360,111.500 162.250 C 111.995 162.092,112.021 162.050,111.625 162.050 C 111.350 162.050,110.844 162.140,110.500 162.250 " stroke="none" fill="#9d9d9d" fill-rule="evenodd"></path></g></svg>