<svg id="svg" version="1.1" xmlns="http://www.w3.org/2000/svg" xmlns:xlink="http://www.w3.org/1999/xlink" width="400" height="80" viewBox="0, 0, 400,80"><g id="svgg"><path id="path0" d="M346.250 2.604 C 338.046 3.434,329.663 6.757,324.232 11.331 C 321.501 13.631,320.768 14.305,320.332 14.917 C 320.071 15.283,319.542 15.883,319.156 16.250 C 312.723 22.365,308.870 35.418,310.496 45.583 C 311.854 54.074,317.116 63.507,322.906 67.833 C 323.370 68.179,324.012 68.703,324.333 68.996 C 326.304 70.796,332.088 74.083,335.320 75.238 C 344.474 78.510,355.045 78.591,364.250 75.459 C 367.886 74.222,373.553 71.064,376.087 68.863 C 376.581 68.434,377.444 67.708,378.004 67.250 C 378.565 66.792,379.261 66.117,379.552 65.750 C 379.842 65.383,380.571 64.558,381.173 63.917 C 382.231 62.787,383.505 61.163,383.902 60.437 C 384.008 60.243,384.363 59.671,384.691 59.167 C 391.122 49.266,391.888 34.969,386.554 24.418 C 384.212 19.786,380.306 14.700,377.403 12.503 C 376.861 12.093,376.070 11.453,375.647 11.081 C 374.702 10.252,372.729 8.886,371.500 8.211 C 367.828 6.194,363.933 4.502,362.200 4.172 C 361.769 4.090,360.854 3.870,360.167 3.682 C 356.900 2.792,349.817 2.242,346.250 2.604 M34.619 4.515 C 20.811 5.974,11.740 13.283,10.082 24.283 C 8.656 33.737,15.220 41.921,25.750 43.819 C 31.711 44.894,32.877 44.986,47.000 45.504 C 61.969 46.053,69.626 47.327,71.677 49.611 C 74.296 52.528,74.739 56.176,72.899 59.678 C 68.810 67.459,50.087 69.894,35.315 64.565 C 34.707 64.346,34.106 64.167,33.980 64.167 C 33.853 64.167,31.709 63.173,29.215 61.959 L 24.679 59.750 24.673 56.208 L 24.667 52.667 18.583 52.667 L 12.500 52.667 12.500 64.500 L 12.500 76.333 18.583 76.333 L 24.667 76.333 24.667 74.072 L 24.667 71.811 25.042 71.923 C 25.248 71.985,26.579 72.548,28.000 73.175 C 30.800 74.410,34.576 75.729,36.015 75.974 C 36.511 76.059,38.229 76.396,39.833 76.724 C 57.138 80.258,72.987 77.346,81.415 69.083 C 88.169 62.462,87.469 48.971,79.977 41.381 C 75.454 36.798,68.053 35.366,45.250 34.661 C 30.591 34.208,25.356 32.830,23.741 29.000 C 21.384 23.413,25.368 17.456,32.651 15.677 C 38.526 14.243,51.274 14.695,58.333 16.590 C 60.068 17.055,63.365 18.314,64.417 18.912 C 64.783 19.121,65.641 19.582,66.322 19.937 C 67.414 20.506,70.196 22.787,71.003 23.774 C 72.225 25.270,72.167 25.075,72.167 27.641 L 72.167 30.000 78.250 30.000 L 84.333 30.000 84.333 18.083 L 84.333 6.167 78.250 6.167 L 72.167 6.167 72.167 8.670 L 72.167 11.173 71.292 10.659 C 69.214 9.437,67.363 8.659,63.833 7.524 C 55.748 4.924,43.086 3.620,34.619 4.515 M92.167 11.000 L 92.167 16.333 98.167 16.333 L 104.167 16.333 104.167 41.000 L 104.167 65.667 98.167 65.667 L 92.167 65.667 92.167 70.917 L 92.167 76.167 131.917 76.167 L 171.667 76.167 171.667 63.833 L 171.667 51.500 165.583 51.500 L 159.500 51.500 159.500 58.583 L 159.500 65.667 137.833 65.667 L 116.167 65.667 116.167 55.917 L 116.167 46.167 126.083 46.167 L 136.000 46.167 136.000 50.083 L 136.000 54.000 142.000 54.000 L 148.000 54.000 148.000 40.917 L 148.000 27.833 142.000 27.833 L 136.000 27.833 136.000 31.750 L 136.000 35.667 126.083 35.667 L 116.167 35.667 116.167 26.000 L 116.167 16.333 137.833 16.333 L 159.500 16.333 159.500 22.919 L 159.500 29.504 165.542 29.460 L 171.583 29.417 171.583 17.583 L 171.583 5.750 131.875 5.708 L 92.167 5.666 92.167 11.000 M179.500 11.000 L 179.500 16.333 185.000 16.333 L 190.500 16.333 190.500 41.000 L 190.500 65.667 185.000 65.667 L 179.500 65.667 179.500 70.917 L 179.500 76.167 196.667 76.167 L 213.833 76.167 213.833 70.917 L 213.833 65.667 208.250 65.667 L 202.667 65.667 202.667 41.000 L 202.667 16.333 208.250 16.333 L 213.833 16.333 213.833 11.000 L 213.833 5.667 196.667 5.667 L 179.500 5.667 179.500 11.000 M223.500 11.000 L 223.500 16.333 229.000 16.333 L 234.500 16.333 234.500 41.000 L 234.500 65.667 228.583 65.667 L 222.667 65.667 222.667 70.917 L 222.667 76.167 240.667 76.167 L 258.667 76.167 258.667 70.917 L 258.667 65.667 252.667 65.667 L 246.667 65.667 246.674 61.375 L 246.682 57.083 248.861 55.424 C 250.060 54.511,251.387 53.456,251.812 53.078 C 252.236 52.700,253.033 52.086,253.583 51.714 C 254.133 51.341,255.009 50.662,255.529 50.204 C 256.050 49.746,256.978 49.007,257.592 48.561 C 258.207 48.115,259.169 47.371,259.730 46.908 C 260.291 46.444,261.789 45.255,263.059 44.265 L 265.368 42.465 266.120 43.191 C 266.534 43.590,267.417 44.592,268.081 45.417 C 268.746 46.242,269.758 47.404,270.330 48.000 C 270.901 48.596,271.591 49.383,271.861 49.750 C 272.132 50.117,273.166 51.317,274.159 52.417 C 275.151 53.517,276.253 54.768,276.607 55.198 C 276.961 55.627,278.122 56.977,279.187 58.198 C 280.252 59.418,282.150 61.598,283.404 63.042 L 285.684 65.667 280.342 65.667 L 275.000 65.667 275.000 70.917 L 275.000 76.167 293.083 76.167 L 311.167 76.167 311.167 70.917 L 311.167 65.667 306.373 65.667 L 301.580 65.667 299.915 63.716 C 298.999 62.643,297.760 61.237,297.162 60.591 C 296.563 59.945,295.869 59.140,295.620 58.803 C 295.370 58.465,294.582 57.565,293.868 56.803 C 293.155 56.040,292.262 55.023,291.886 54.541 C 291.509 54.060,290.560 52.972,289.777 52.124 C 288.994 51.277,288.137 50.283,287.872 49.917 C 287.606 49.550,286.998 48.837,286.519 48.333 C 286.041 47.829,285.184 46.861,284.616 46.182 C 284.048 45.503,283.125 44.440,282.566 43.820 C 282.006 43.200,281.181 42.259,280.733 41.728 C 280.284 41.198,278.801 39.487,277.438 37.927 L 274.958 35.092 275.707 34.414 C 276.119 34.041,277.047 33.289,277.770 32.744 C 278.492 32.198,279.796 31.184,280.667 30.489 C 281.537 29.794,283.424 28.315,284.860 27.202 C 286.295 26.089,287.758 24.913,288.110 24.590 C 288.462 24.266,288.798 24.001,288.858 24.001 C 289.003 24.000,291.193 22.304,292.333 21.311 C 292.837 20.871,293.749 20.153,294.358 19.714 C 294.968 19.276,296.176 18.335,297.044 17.625 L 298.621 16.333 303.977 16.333 L 309.333 16.333 309.333 11.000 L 309.333 5.667 292.167 5.667 L 275.000 5.667 275.000 10.996 L 275.000 16.326 277.922 16.371 L 280.844 16.417 278.380 18.360 C 277.025 19.428,275.167 20.882,274.250 21.591 C 273.333 22.300,272.283 23.136,271.917 23.449 C 271.550 23.763,270.725 24.404,270.083 24.875 C 269.442 25.346,268.504 26.091,268.000 26.532 C 267.496 26.973,266.587 27.690,265.981 28.125 C 265.374 28.560,263.939 29.667,262.791 30.583 C 261.643 31.500,259.775 32.976,258.639 33.863 C 257.503 34.749,256.433 35.631,256.261 35.821 C 256.089 36.011,255.875 36.167,255.785 36.167 C 255.619 36.167,252.659 38.475,252.129 39.016 C 251.971 39.178,251.333 39.668,250.712 40.104 C 250.091 40.540,248.974 41.408,248.230 42.032 C 247.485 42.656,246.829 43.167,246.771 43.167 C 246.714 43.167,246.667 37.129,246.667 29.750 L 246.667 16.333 252.250 16.333 L 257.833 16.333 257.833 11.000 L 257.833 5.667 240.667 5.667 L 223.500 5.667 223.500 11.000 M355.009 14.317 C 374.278 17.645,384.175 38.345,373.868 53.760 C 364.583 67.648,345.864 70.496,332.083 60.118 C 321.679 52.283,319.209 37.239,326.520 26.232 C 331.180 19.215,338.431 15.063,348.000 13.932 C 349.246 13.784,353.175 14.001,355.009 14.317 " stroke="none" fill="#040404" fill-rule="evenodd"></path><path id="path1" d="" stroke="none" fill="#080404" fill-rule="evenodd"></path><path id="path2" d="" stroke="none" fill="#080404" fill-rule="evenodd"></path><path id="path3" d="" stroke="none" fill="#080404" fill-rule="evenodd"></path><path id="path4" d="" stroke="none" fill="#080404" fill-rule="evenodd"></path></g></svg>