<svg width="64" height="40" viewBox="0 0 64 40" fill="none"
    xmlns="http://www.w3.org/2000/svg">
    <path d="M58.808 16.9574L57.1704 10.4073C57.6181 10.3122 57.9541 9.915 57.9541 9.43913V8.38304C57.9541 6.09004 56.0885 4.22462 53.7957 4.22462H46.3369V2.04623C46.3369 0.917891 45.419 0 44.2907 0H6.27061C5.14226 0 4.22437 0.917891 4.22437 2.04623V20.0002C4.22437 20.5469 4.66763 20.9903 5.21451 20.9903C5.76127 20.9903 6.20465 20.5471 6.20465 20.0002V2.04623C6.20465 2.0098 6.23417 1.98028 6.27061 1.98028H44.2906C44.327 1.98028 44.3565 2.0098 44.3565 2.04623V20.0004C44.3565 20.5472 44.7998 20.9906 45.3467 20.9906C45.8934 20.9906 46.3368 20.5473 46.3368 20.0004V18.878H58.0166C58.0176 18.878 58.0183 18.8783 58.0192 18.8783C58.0202 18.8783 58.021 18.8781 58.0219 18.8781C59.4591 18.8791 60.6795 19.8225 61.0986 21.1224H58.0199C57.4731 21.1224 57.0298 21.5656 57.0298 22.1125V24.2247C57.0298 25.9354 58.4214 27.327 60.1321 27.327H61.2543V31.6834H58.6653C57.8149 29.2278 55.4805 27.4589 52.7393 27.4589C49.9981 27.4589 47.6636 29.2278 46.8133 31.6834H46.3366V24.2246C46.3366 23.6778 45.8933 23.2344 45.3464 23.2344C44.7997 23.2344 44.3563 23.6777 44.3563 24.2246V31.6832H23.8139C22.9634 29.2275 20.6291 27.4587 17.8879 27.4587C15.1467 27.4587 12.8122 29.2275 11.9618 31.6832H6.27061C6.23417 31.6832 6.20465 31.6536 6.20465 31.6172V29.4389H10.4951C11.0419 29.4389 11.4852 28.9957 11.4852 28.4488C11.4852 27.9019 11.042 27.4587 10.4951 27.4587H0.990141C0.443384 27.4587 0 27.9019 0 28.4488C0 28.9957 0.44326 29.4389 0.990141 29.4389H4.2245V31.6172C4.2245 32.7456 5.14239 33.6634 6.27073 33.6634H11.619C11.6188 33.6854 11.6173 33.7073 11.6173 33.7294C11.6173 37.187 14.4303 40 17.8879 40C21.3454 40 24.1585 37.187 24.1585 33.7294C24.1585 33.7072 24.157 33.6854 24.1568 33.6634H46.4704C46.4702 33.6854 46.4687 33.7073 46.4687 33.7294C46.4687 37.187 49.2818 40 52.7393 40C56.1968 40 59.0099 37.187 59.0099 33.7294C59.0099 33.7072 59.0084 33.6854 59.0082 33.6634H62.2444C62.7912 33.6634 63.2345 33.2202 63.2345 32.6733V22.1123C63.2347 19.5048 61.3108 17.3384 58.808 16.9574ZM46.3369 6.20478H53.7957C54.9967 6.20478 55.9739 7.18195 55.9739 8.38304V8.44899H46.3369V6.20478ZM46.3369 16.8979V10.4292H55.1348L56.752 16.8979H46.3369ZM17.8879 38.0201C15.5221 38.0201 13.5974 36.0955 13.5974 33.7296C13.5974 31.3638 15.5221 29.4392 17.8879 29.4392C20.2536 29.4392 22.1783 31.3638 22.1783 33.7296C22.1783 36.0955 20.2536 38.0201 17.8879 38.0201ZM52.7396 38.0201C50.3738 38.0201 48.4491 36.0955 48.4491 33.7296C48.4491 31.3638 50.3738 29.4392 52.7396 29.4392C55.1053 29.4392 57.03 31.3638 57.03 33.7296C57.03 36.0955 55.1053 38.0201 52.7396 38.0201ZM61.2545 25.3467H60.1323C59.5136 25.3467 59.0102 24.8433 59.0102 24.2246V23.1024H61.2544V25.3467H61.2545Z" fill="black"/>
    <path d="M17.8879 31.6836C16.7595 31.6836 15.8416 32.6015 15.8416 33.7298C15.8416 34.8582 16.7595 35.7761 17.8879 35.7761C19.0162 35.7761 19.9341 34.8582 19.9341 33.7298C19.9341 32.6015 19.0162 31.6836 17.8879 31.6836Z" fill="black"/>
    <path d="M52.7396 31.6836C51.6113 31.6836 50.6934 32.6015 50.6934 33.7298C50.6934 34.8582 51.6113 35.7761 52.7396 35.7761C53.8679 35.7761 54.7858 34.8582 54.7858 33.7298C54.7858 32.6015 53.8679 31.6836 52.7396 31.6836Z" fill="black"/>
    <path d="M41.1223 27.4595H26.3368C25.79 27.4595 25.3466 27.9027 25.3466 28.4496C25.3466 28.9965 25.7899 29.4398 26.3368 29.4398H41.1223C41.6691 29.4398 42.1124 28.9965 42.1124 28.4496C42.1124 27.9027 41.6692 27.4595 41.1223 27.4595Z" fill="black"/>
    <path d="M15.7757 23.2344H3.10229C2.55554 23.2344 2.11215 23.6776 2.11215 24.2245C2.11215 24.7714 2.55541 25.2147 3.10229 25.2147H15.7757C16.3224 25.2147 16.7658 24.7714 16.7658 24.2245C16.7658 23.6776 16.3224 23.2344 15.7757 23.2344Z" fill="black"/>
    <path d="M34.4297 9.79528C34.0431 9.40871 33.4161 9.40871 33.0295 9.79541L24.2246 18.6002L19.6441 14.0198C19.2574 13.6331 18.6305 13.6331 18.2439 14.0198C17.8572 14.4065 17.8572 15.0333 18.2439 15.42L23.5245 20.7005C23.7178 20.8939 23.9713 20.9905 24.2246 20.9905C24.4779 20.9905 24.7314 20.8939 24.9246 20.7005L34.4296 11.1956C34.8163 10.8088 34.8163 10.182 34.4297 9.79528Z" fill="black"/>
</svg>
