<svg id="svg" version="1.1" xmlns="http://www.w3.org/2000/svg" xmlns:xlink="http://www.w3.org/1999/xlink" width="400" height="87.27272727272728" viewBox="0, 0, 400,87.27272727272728"><g id="svgg"><path id="path0" d="M234.430 24.430 C 234.010 24.850,233.667 25.267,233.667 25.357 C 233.667 25.611,232.574 27.875,232.270 28.250 C 231.836 28.785,231.167 29.836,231.167 29.982 C 231.167 30.264,230.630 31.174,230.345 31.374 C 230.181 31.489,229.848 32.019,229.605 32.551 C 229.158 33.528,229.046 33.699,228.384 34.408 C 228.182 34.624,227.887 35.200,227.727 35.688 C 227.567 36.177,227.162 36.878,226.827 37.246 C 226.491 37.615,226.037 38.392,225.817 38.974 C 225.597 39.555,225.241 40.208,225.027 40.424 C 224.813 40.640,224.325 41.419,223.942 42.155 C 223.560 42.891,223.113 43.649,222.950 43.839 C 222.787 44.030,222.472 44.576,222.251 45.051 C 222.030 45.527,221.639 46.142,221.383 46.417 C 220.879 46.958,220.644 47.389,220.303 48.401 C 220.182 48.759,219.876 49.275,219.622 49.547 C 219.120 50.085,218.911 50.443,218.284 51.833 C 218.056 52.337,217.682 52.967,217.451 53.232 C 217.221 53.497,216.991 53.921,216.940 54.175 C 216.889 54.429,216.508 55.037,216.094 55.527 C 215.679 56.016,215.148 56.777,214.913 57.217 C 214.667 57.678,214.179 58.233,213.762 58.527 C 213.054 59.026,213.041 59.051,213.203 59.644 C 213.473 60.634,213.545 60.667,215.429 60.667 C 217.860 60.667,218.285 60.374,218.645 58.445 C 218.721 58.037,219.095 57.163,219.475 56.504 C 219.855 55.844,220.167 55.268,220.167 55.224 C 220.167 55.180,220.392 54.816,220.667 54.417 C 220.942 54.017,221.167 53.621,221.167 53.537 C 221.167 53.157,222.380 52.168,223.044 52.007 C 223.432 51.912,223.941 51.772,224.174 51.695 C 224.407 51.618,224.745 51.612,224.924 51.682 C 225.405 51.870,236.401 51.863,236.898 51.674 C 237.176 51.568,237.625 51.579,238.225 51.705 C 238.859 51.838,239.407 51.845,240.040 51.731 C 240.539 51.640,241.053 51.619,241.182 51.684 C 241.311 51.748,241.754 51.896,242.167 52.013 C 243.215 52.308,243.898 52.858,244.370 53.787 C 244.910 54.849,245.514 55.897,245.645 56.000 C 245.871 56.178,246.152 56.970,246.429 58.211 C 246.911 60.371,247.340 60.587,250.806 60.417 C 252.331 60.342,253.287 60.381,254.250 60.557 C 255.812 60.842,256.025 60.767,256.337 59.822 C 256.559 59.150,256.552 59.112,256.159 58.798 C 255.934 58.618,255.552 58.309,255.311 58.110 C 255.070 57.912,254.666 57.375,254.415 56.917 C 254.164 56.458,253.667 55.701,253.312 55.235 C 252.957 54.768,252.667 54.294,252.667 54.182 C 252.667 53.860,251.648 51.833,251.485 51.833 C 251.316 51.833,250.500 50.283,250.500 49.960 C 250.500 49.841,250.287 49.482,250.026 49.163 C 249.404 48.404,248.786 47.393,248.499 46.667 C 248.372 46.346,248.133 45.962,247.967 45.813 C 247.615 45.498,246.667 43.478,246.667 43.044 C 246.667 42.880,246.406 42.523,246.087 42.248 C 245.768 41.974,245.506 41.696,245.504 41.630 C 245.494 41.297,244.630 39.670,244.204 39.182 C 243.937 38.877,243.627 38.354,243.515 38.022 C 243.214 37.129,242.967 36.624,242.646 36.250 C 242.335 35.886,241.167 33.619,241.167 33.378 C 241.167 33.296,240.942 33.013,240.667 32.750 C 240.392 32.487,240.167 32.173,240.167 32.052 C 240.167 31.932,240.102 31.833,240.023 31.833 C 239.944 31.833,239.746 31.412,239.584 30.897 C 239.420 30.375,239.104 29.802,238.872 29.605 C 238.505 29.293,238.243 28.806,237.449 26.958 C 237.341 26.706,237.204 26.500,237.145 26.500 C 237.087 26.500,236.867 26.069,236.658 25.542 C 235.834 23.470,235.538 23.322,234.430 24.430 M269.250 24.272 C 268.530 24.447,268.517 24.483,268.977 24.976 C 270.029 26.102,270.040 26.289,270.010 42.586 C 269.992 52.015,269.921 57.493,269.811 57.919 C 269.487 59.174,269.479 59.418,269.741 60.042 C 270.003 60.664,270.009 60.667,270.990 60.667 C 273.524 60.667,274.587 59.837,273.759 58.506 C 273.557 58.182,273.338 57.771,273.273 57.594 C 273.207 57.416,273.142 52.578,273.129 46.844 C 273.102 35.496,273.090 35.661,274.027 35.223 C 275.468 34.551,275.538 34.560,276.344 35.544 C 276.659 35.928,278.267 37.567,279.917 39.188 C 281.567 40.808,283.254 42.490,283.667 42.926 C 284.079 43.362,284.849 44.138,285.378 44.651 C 285.906 45.164,288.236 47.458,290.554 49.750 C 292.872 52.042,295.908 55.016,297.301 56.360 C 298.694 57.704,299.833 58.847,299.833 58.900 C 299.833 58.989,299.949 59.140,300.671 59.997 C 301.279 60.718,302.045 59.397,301.823 58.013 C 301.625 56.785,301.763 28.088,301.971 27.074 C 302.116 26.369,302.399 25.725,302.893 24.974 C 303.301 24.354,303.165 24.317,300.524 24.323 C 297.817 24.329,297.546 24.385,297.977 24.847 C 298.601 25.516,298.956 35.373,298.680 44.352 C 298.653 45.242,296.987 46.154,296.583 45.500 C 296.527 45.408,296.342 45.333,296.173 45.333 C 295.821 45.333,294.387 43.908,293.968 43.141 C 293.813 42.857,293.463 42.489,293.189 42.323 C 292.916 42.157,292.504 41.743,292.274 41.404 C 292.043 41.065,291.665 40.663,291.434 40.512 C 291.203 40.360,290.783 39.917,290.501 39.528 C 290.219 39.139,289.823 38.754,289.619 38.673 C 289.416 38.591,289.063 38.279,288.833 37.978 C 288.604 37.678,288.275 37.316,288.101 37.174 C 287.018 36.289,286.671 35.943,286.580 35.656 C 286.524 35.479,286.379 35.333,286.259 35.333 C 286.139 35.333,285.554 34.865,284.960 34.292 C 284.365 33.719,282.960 32.387,281.836 31.333 C 278.641 28.336,276.253 25.960,275.920 25.449 C 275.256 24.427,271.402 23.747,269.250 24.272 M92.473 24.508 C 91.355 24.694,89.829 26.605,89.289 28.500 C 89.121 29.088,88.959 29.301,88.537 29.488 C 87.997 29.728,87.863 30.116,88.104 30.744 C 88.192 30.974,88.248 30.981,88.479 30.788 C 88.628 30.664,89.087 30.422,89.500 30.250 C 89.912 30.079,90.405 29.802,90.594 29.636 C 90.783 29.469,90.994 29.333,91.063 29.333 C 91.199 29.333,93.214 28.422,93.750 28.118 C 93.966 27.995,95.589 27.905,98.345 27.863 C 103.312 27.787,103.855 27.902,104.498 29.163 C 105.021 30.187,105.022 56.738,104.500 58.167 C 104.311 58.685,104.167 59.494,104.167 60.039 L 104.167 61.000 108.250 61.000 L 112.333 61.000 112.333 59.970 C 112.333 59.404,112.248 58.673,112.143 58.345 C 112.039 58.018,111.919 57.637,111.878 57.500 C 111.762 57.111,111.829 30.161,111.947 29.678 C 112.196 28.666,112.869 28.151,114.250 27.916 C 116.325 27.562,122.464 27.734,123.083 28.163 C 123.175 28.227,123.684 28.411,124.215 28.574 C 124.746 28.736,125.551 29.123,126.003 29.434 C 126.455 29.745,126.866 30.000,126.916 30.000 C 126.966 30.000,127.295 30.182,127.648 30.405 L 128.290 30.810 128.494 30.428 C 128.721 30.003,128.508 29.449,127.958 29.034 C 127.798 28.913,127.667 28.684,127.667 28.524 C 127.667 28.364,127.602 28.162,127.522 28.075 C 127.442 27.988,127.238 27.542,127.067 27.083 C 126.753 26.237,126.401 25.813,125.269 24.917 L 124.637 24.417 108.860 24.412 C 100.183 24.409,92.809 24.453,92.473 24.508 M143.965 24.467 C 143.599 24.537,143.721 25.928,144.183 26.957 C 144.487 27.634,144.500 28.269,144.497 42.623 C 144.495 57.564,144.466 58.423,143.948 58.941 C 143.885 59.004,143.833 59.493,143.833 60.028 L 143.833 61.000 148.018 61.000 L 152.203 61.000 152.142 59.791 C 152.096 58.873,151.991 58.456,151.707 58.057 L 151.333 57.532 151.333 42.764 C 151.333 28.768,151.349 27.959,151.641 27.290 C 152.233 25.931,152.504 24.522,152.189 24.434 C 151.890 24.350,144.418 24.380,143.965 24.467 M171.120 24.830 C 170.825 25.058,170.558 25.301,170.528 25.372 C 170.497 25.442,170.371 25.500,170.247 25.500 C 170.124 25.500,169.975 25.650,169.917 25.833 C 169.858 26.017,169.741 26.167,169.655 26.167 C 169.570 26.167,169.500 26.272,169.500 26.400 C 169.500 26.643,168.619 28.400,168.279 28.833 C 167.601 29.700,167.528 30.156,168.000 30.583 C 168.189 30.754,168.333 30.802,168.333 30.692 C 168.333 30.587,168.428 30.500,168.543 30.500 C 168.659 30.500,169.352 30.103,170.085 29.617 C 170.817 29.131,171.754 28.639,172.167 28.522 C 172.579 28.406,173.142 28.248,173.417 28.171 C 176.564 27.288,182.888 27.753,183.818 28.935 C 184.273 29.514,184.368 57.545,183.917 58.333 C 183.777 58.577,183.676 59.216,183.673 59.875 L 183.667 61.000 187.899 61.000 L 192.132 61.000 191.969 60.375 C 191.879 60.031,191.764 59.525,191.712 59.250 C 191.660 58.975,191.498 58.566,191.351 58.341 C 191.088 57.938,190.843 31.422,191.088 29.905 C 191.203 29.192,191.966 28.473,193.023 28.081 C 194.649 27.479,202.398 27.784,203.417 28.491 C 203.508 28.555,203.914 28.711,204.318 28.839 C 204.771 28.982,205.314 29.344,205.735 29.785 C 206.467 30.551,206.649 30.605,207.503 30.307 C 208.038 30.121,208.045 30.106,207.736 29.841 C 207.316 29.482,207.000 28.915,207.000 28.521 C 207.000 28.128,206.773 27.698,205.874 26.384 C 205.485 25.816,205.167 25.307,205.167 25.252 C 205.167 25.197,205.012 24.987,204.824 24.785 L 204.481 24.417 188.068 24.417 L 171.656 24.417 171.120 24.830 M234.321 35.955 C 234.603 36.296,234.833 36.669,234.833 36.783 C 234.833 37.046,235.384 38.036,236.066 39.000 C 236.359 39.412,236.772 40.125,236.985 40.583 C 237.198 41.042,237.429 41.454,237.500 41.500 C 237.570 41.546,237.905 42.108,238.244 42.750 C 238.583 43.392,239.140 44.292,239.482 44.750 C 240.905 46.657,240.477 48.419,238.500 48.791 C 236.727 49.125,226.585 48.917,226.050 48.536 C 224.924 47.733,225.004 45.981,226.224 44.761 C 226.435 44.549,226.711 44.123,226.836 43.813 C 226.962 43.503,227.114 43.212,227.176 43.167 C 227.237 43.121,227.421 42.821,227.585 42.500 C 227.749 42.179,228.059 41.685,228.275 41.401 C 228.490 41.117,228.667 40.793,228.667 40.681 C 228.667 40.569,228.994 39.938,229.394 39.279 C 229.794 38.620,230.350 37.631,230.630 37.082 C 231.363 35.642,231.723 35.391,233.113 35.353 C 233.725 35.336,233.871 35.409,234.321 35.955 " stroke="none" fill="#2d2a2b" fill-rule="evenodd"></path><path id="path1" d="M0.000 43.583 L 0.000 87.167 200.000 87.167 L 400.000 87.167 400.000 43.583 L 400.000 0.000 200.000 0.000 L 0.000 0.000 0.000 43.583 M236.969 23.083 C 237.834 24.199,238.667 25.749,238.667 26.242 C 238.667 26.370,238.849 26.691,239.072 26.956 C 239.587 27.569,240.423 29.110,240.565 29.712 C 240.626 29.967,240.973 30.482,241.338 30.858 C 241.702 31.233,242.000 31.666,242.000 31.820 C 242.000 31.974,242.063 32.171,242.140 32.258 C 242.217 32.345,242.379 32.679,242.500 33.000 C 242.621 33.321,242.898 33.778,243.116 34.015 C 243.334 34.253,243.768 35.040,244.082 35.765 C 244.395 36.490,244.827 37.274,245.042 37.508 C 245.256 37.741,245.531 38.191,245.652 38.508 C 246.114 39.714,246.340 40.133,246.576 40.224 C 246.838 40.325,247.667 41.840,247.667 42.219 C 247.667 42.596,248.128 43.406,248.590 43.839 C 249.014 44.238,249.250 44.673,249.674 45.833 C 249.791 46.154,250.058 46.604,250.268 46.833 C 250.478 47.063,250.950 47.892,251.318 48.676 C 251.685 49.460,252.132 50.235,252.311 50.396 C 252.490 50.558,252.726 50.929,252.835 51.220 C 253.459 52.883,253.718 53.391,254.103 53.703 C 254.297 53.860,254.655 54.396,254.898 54.894 C 255.142 55.392,255.457 55.895,255.598 56.012 C 255.740 56.130,255.970 56.447,256.109 56.717 C 256.414 57.305,257.061 57.909,257.761 58.256 C 258.074 58.411,258.453 58.842,258.735 59.365 C 258.989 59.836,259.303 60.327,259.432 60.456 C 259.736 60.760,259.728 60.882,259.375 61.267 C 258.603 62.109,258.262 62.150,252.035 62.158 L 246.214 62.165 245.543 61.679 L 244.872 61.193 244.884 59.261 L 244.897 57.329 244.300 56.706 C 243.971 56.364,243.465 55.583,243.174 54.972 C 242.306 53.147,242.909 53.248,232.917 53.261 C 224.397 53.272,222.667 53.355,222.667 53.754 C 222.667 54.172,221.630 55.927,221.091 56.420 C 220.432 57.024,220.235 58.035,220.411 59.910 L 220.524 61.120 219.863 61.643 L 219.202 62.167 215.509 62.167 C 211.548 62.167,210.879 62.046,210.105 61.190 C 209.810 60.865,209.811 60.843,210.128 60.503 C 210.308 60.310,210.630 59.813,210.843 59.398 C 211.056 58.983,211.385 58.562,211.574 58.461 C 212.163 58.147,213.333 57.106,213.333 56.895 C 213.333 56.785,213.395 56.669,213.471 56.639 C 213.547 56.608,213.879 56.120,214.209 55.555 C 214.538 54.989,215.015 54.293,215.268 54.009 C 215.522 53.724,215.820 53.228,215.931 52.905 C 216.119 52.358,216.338 52.007,217.433 50.500 C 217.667 50.179,217.901 49.702,217.953 49.439 C 218.006 49.177,218.298 48.713,218.601 48.410 C 219.109 47.902,219.491 47.214,219.984 45.917 C 220.089 45.642,220.397 45.239,220.670 45.023 C 220.943 44.806,221.167 44.568,221.167 44.493 C 221.167 44.245,222.144 42.241,222.467 41.825 C 222.642 41.601,222.936 41.075,223.119 40.657 C 223.303 40.238,223.764 39.570,224.143 39.171 C 224.523 38.772,224.833 38.359,224.833 38.254 C 224.833 37.833,225.678 36.348,226.128 35.977 C 226.401 35.752,226.704 35.262,226.833 34.833 C 227.208 33.596,227.679 32.685,227.997 32.584 C 228.162 32.532,228.387 32.248,228.496 31.953 C 228.916 30.818,229.220 30.218,229.825 29.329 C 230.169 28.823,230.556 28.117,230.684 27.760 C 230.812 27.404,231.144 26.877,231.422 26.591 C 231.894 26.103,232.667 24.546,232.667 24.082 C 232.667 23.968,232.910 23.617,233.208 23.302 C 234.986 21.422,235.652 21.383,236.969 23.083 M271.333 22.949 C 274.908 23.024,276.180 23.360,276.821 24.396 C 277.011 24.704,277.479 25.163,277.862 25.416 C 278.649 25.937,280.333 27.557,280.333 27.793 C 280.333 28.036,280.869 28.561,281.390 28.829 C 281.650 28.963,282.008 29.355,282.184 29.701 C 282.386 30.096,282.750 30.454,283.165 30.666 C 283.529 30.852,283.942 31.226,284.083 31.499 C 284.224 31.771,284.581 32.119,284.878 32.272 C 285.401 32.541,286.166 33.293,286.166 33.537 C 286.167 33.604,286.391 33.774,286.666 33.916 C 287.257 34.222,289.542 36.424,289.814 36.952 C 289.919 37.154,290.265 37.443,290.583 37.594 C 290.901 37.745,291.318 38.122,291.509 38.431 C 291.700 38.741,292.095 39.160,292.387 39.363 C 292.678 39.565,293.029 39.875,293.167 40.050 C 293.304 40.225,293.773 40.730,294.207 41.171 C 294.642 41.613,295.072 42.168,295.162 42.406 C 295.323 42.827,295.484 42.925,296.654 43.307 C 297.539 43.596,297.738 43.333,297.574 42.088 C 297.407 40.824,297.376 30.400,297.535 29.167 C 297.651 28.271,297.429 27.167,297.133 27.167 C 297.060 27.167,297.000 27.070,297.000 26.953 C 297.000 26.835,296.587 26.242,296.083 25.635 C 295.019 24.353,295.043 24.444,295.593 23.722 C 296.230 22.888,297.039 22.603,298.070 22.850 C 298.616 22.981,299.636 23.015,301.074 22.951 C 304.239 22.808,304.582 22.879,305.111 23.781 L 305.542 24.517 305.204 24.884 C 305.018 25.085,304.633 25.503,304.348 25.811 C 304.063 26.120,303.788 26.570,303.737 26.811 C 303.686 27.053,303.592 27.400,303.528 27.583 C 303.373 28.028,303.421 57.109,303.579 58.524 C 303.852 60.982,303.502 61.516,301.250 62.070 C 300.863 62.166,300.410 61.823,299.835 61.000 C 299.359 60.319,299.066 60.000,298.917 60.000 C 298.770 60.000,298.333 59.552,298.333 59.402 C 298.333 59.299,295.875 56.836,294.902 55.965 C 294.727 55.808,294.358 55.452,294.083 55.173 C 293.808 54.895,293.488 54.667,293.371 54.667 C 293.254 54.667,292.961 54.339,292.719 53.940 C 292.478 53.540,291.992 53.034,291.640 52.817 C 291.288 52.599,291.000 52.360,291.000 52.284 C 291.000 52.106,289.540 50.667,289.359 50.667 C 289.283 50.667,289.136 50.482,289.033 50.255 C 288.930 50.029,288.530 49.616,288.145 49.337 C 287.760 49.058,287.270 48.572,287.056 48.257 C 286.842 47.943,286.464 47.587,286.215 47.468 C 285.966 47.348,285.545 46.926,285.279 46.531 C 285.014 46.135,284.624 45.745,284.413 45.665 C 284.203 45.585,283.892 45.323,283.724 45.082 C 283.349 44.548,282.782 43.937,282.381 43.639 C 282.217 43.517,281.882 43.146,281.635 42.816 C 281.389 42.486,280.968 42.125,280.701 42.014 C 280.427 41.901,280.074 41.544,279.893 41.198 C 279.717 40.860,279.406 40.509,279.203 40.419 C 279.000 40.328,278.833 40.197,278.833 40.127 C 278.833 40.057,278.734 40.000,278.611 40.000 C 278.489 40.000,278.284 39.794,278.155 39.542 C 278.027 39.290,277.701 38.896,277.432 38.667 C 276.763 38.097,276.296 37.613,276.005 37.190 C 275.732 36.793,275.337 36.730,275.033 37.033 C 274.882 37.185,274.833 39.706,274.833 47.362 C 274.833 58.572,274.773 57.904,275.905 59.167 C 277.878 61.365,276.923 62.058,271.807 62.138 C 267.932 62.199,267.919 62.196,266.882 61.280 L 266.514 60.955 266.924 60.222 C 267.149 59.818,267.333 59.389,267.333 59.269 C 267.333 59.148,267.552 58.821,267.818 58.542 C 268.085 58.263,268.384 57.883,268.483 57.698 C 268.608 57.464,268.665 52.824,268.668 42.503 C 268.674 27.190,268.644 26.442,268.017 26.202 C 267.530 26.015,266.167 24.738,266.167 24.469 C 266.167 23.946,267.878 22.626,268.333 22.797 C 268.471 22.849,269.821 22.917,271.333 22.949 M125.284 23.250 C 126.596 23.590,126.992 23.918,127.618 25.175 C 127.912 25.766,128.316 26.437,128.516 26.665 C 128.716 26.893,129.019 27.418,129.190 27.832 C 129.360 28.245,129.575 28.714,129.667 28.873 C 129.758 29.032,129.833 29.252,129.833 29.362 C 129.833 29.472,129.976 29.717,130.150 29.906 C 131.804 31.700,131.080 35.033,129.333 33.667 C 129.104 33.487,128.801 33.339,128.660 33.337 C 128.420 33.334,127.935 32.900,126.927 31.788 C 126.697 31.534,126.285 31.282,126.012 31.227 C 125.738 31.173,125.230 30.888,124.882 30.594 C 123.606 29.516,123.185 29.433,118.667 29.366 C 114.585 29.306,113.349 29.425,113.321 29.882 C 113.314 29.993,113.315 36.196,113.324 43.667 C 113.333 51.137,113.339 57.370,113.337 57.517 C 113.335 57.664,113.517 57.983,113.742 58.225 C 113.967 58.468,114.371 58.985,114.641 59.375 C 114.911 59.764,115.327 60.266,115.567 60.488 L 116.002 60.893 115.639 61.280 C 115.439 61.493,115.176 61.667,115.054 61.667 C 114.933 61.667,114.833 61.738,114.833 61.825 C 114.833 62.181,113.521 62.269,108.917 62.222 C 106.258 62.195,103.704 62.172,103.240 62.170 C 101.210 62.162,100.812 60.721,102.435 59.250 C 103.356 58.416,103.333 58.798,103.333 43.755 C 103.333 30.275,103.324 29.877,103.012 29.595 C 102.181 28.842,93.192 29.390,92.725 30.222 C 92.578 30.484,90.771 31.500,90.451 31.500 C 90.352 31.500,89.928 31.869,89.510 32.320 C 89.089 32.773,88.434 33.265,88.042 33.421 C 87.652 33.576,87.333 33.758,87.333 33.825 C 87.333 33.892,87.144 34.033,86.912 34.138 C 85.703 34.690,84.933 32.230,86.000 31.223 C 86.300 30.940,86.639 30.333,86.848 29.706 C 87.039 29.132,87.302 28.556,87.431 28.426 C 87.561 28.296,87.667 28.119,87.667 28.032 C 87.667 27.945,87.787 27.774,87.934 27.652 C 88.081 27.530,88.268 27.277,88.350 27.090 C 88.432 26.903,88.567 26.637,88.650 26.500 C 88.733 26.363,88.897 25.925,89.015 25.529 C 89.132 25.132,89.458 24.570,89.739 24.279 C 90.805 23.175,89.471 23.258,107.583 23.164 C 116.658 23.117,124.136 23.060,124.200 23.039 C 124.264 23.018,124.752 23.113,125.284 23.250 M154.434 23.379 C 155.764 24.076,155.717 24.444,154.087 26.095 C 152.959 27.238,153.000 26.605,153.000 42.826 C 153.000 57.426,153.002 57.493,153.351 58.120 C 153.680 58.710,154.521 59.821,155.216 60.583 C 155.512 60.909,155.504 60.931,154.849 61.542 L 154.180 62.167 148.102 62.167 C 142.921 62.167,141.987 62.130,141.774 61.917 C 141.636 61.779,141.471 61.667,141.406 61.667 C 140.677 61.667,140.712 60.416,141.454 59.950 C 141.571 59.877,141.667 59.719,141.667 59.599 C 141.667 59.478,141.967 59.039,142.335 58.621 C 143.225 57.610,143.161 58.764,143.223 42.508 C 143.283 26.862,143.339 27.826,142.307 26.701 C 141.995 26.361,141.517 25.783,141.246 25.417 C 140.974 25.050,140.696 24.709,140.628 24.658 C 140.456 24.530,141.329 23.527,141.824 23.283 C 142.515 22.944,153.765 23.029,154.434 23.379 M204.767 23.254 C 205.742 23.386,207.022 24.641,207.420 25.857 C 207.804 27.031,208.244 27.892,208.707 28.376 C 209.218 28.909,209.500 29.428,209.500 29.833 C 209.500 30.215,209.747 30.701,210.283 31.377 C 210.968 32.239,210.554 34.000,209.667 34.000 C 208.601 34.000,208.143 33.776,207.090 32.739 C 206.504 32.160,205.775 31.560,205.470 31.404 C 205.166 31.248,204.879 31.072,204.833 31.013 C 204.345 30.384,202.965 29.685,201.885 29.518 C 199.726 29.185,193.627 29.274,193.230 29.643 C 192.493 30.330,192.797 59.167,193.541 59.167 C 193.610 59.167,193.667 59.279,193.667 59.417 C 193.667 59.554,193.750 59.667,193.853 59.667 C 194.362 59.667,195.146 60.854,194.860 61.192 C 194.003 62.206,194.000 62.206,187.597 62.226 L 181.717 62.244 181.017 61.781 C 180.057 61.145,180.010 60.915,180.711 60.255 C 181.034 59.949,181.500 59.298,181.745 58.808 C 181.991 58.318,182.336 57.762,182.512 57.573 C 182.824 57.239,182.833 56.822,182.833 43.606 L 182.833 29.983 182.208 29.700 C 181.677 29.459,180.996 29.417,177.667 29.417 C 173.406 29.417,172.721 29.520,171.789 30.299 C 171.122 30.857,170.579 31.167,170.267 31.167 C 170.136 31.167,169.633 31.542,169.150 32.000 C 168.667 32.458,168.192 32.836,168.094 32.839 C 167.997 32.842,167.617 33.145,167.250 33.512 C 165.677 35.088,164.479 33.100,165.494 30.598 C 165.702 30.086,165.937 29.667,166.017 29.667 C 166.240 29.667,166.906 28.506,167.165 27.667 C 167.293 27.254,167.596 26.654,167.839 26.333 C 168.083 26.012,168.496 25.375,168.758 24.917 C 169.320 23.933,169.738 23.526,170.322 23.395 C 170.558 23.342,170.956 23.250,171.209 23.191 C 171.760 23.062,203.789 23.121,204.767 23.254 M232.476 37.454 C 231.891 37.516,231.846 37.569,231.246 38.914 C 230.904 39.682,230.446 40.465,230.229 40.654 C 230.011 40.843,229.833 41.098,229.833 41.221 C 229.833 41.612,229.072 42.963,228.456 43.666 C 228.129 44.040,227.731 44.758,227.572 45.262 C 227.414 45.765,227.215 46.220,227.130 46.273 C 227.044 46.326,227.239 46.548,227.562 46.768 C 228.455 47.375,237.304 47.394,238.039 46.791 C 238.468 46.438,238.481 46.388,238.266 45.917 C 238.141 45.642,237.942 45.165,237.825 44.858 C 237.708 44.551,237.357 43.994,237.044 43.620 C 236.414 42.866,235.833 41.815,235.833 41.429 C 235.833 41.291,235.625 40.932,235.371 40.631 C 234.883 40.054,234.762 39.830,234.098 38.292 C 233.799 37.598,233.602 37.341,233.384 37.361 C 233.219 37.377,232.810 37.418,232.476 37.454 " stroke="none" fill="#fbfbfb" fill-rule="evenodd"></path><path id="path2" d="M235.083 23.182 C 234.992 23.273,234.609 23.568,234.232 23.837 C 233.745 24.186,233.465 24.556,233.261 25.122 C 232.832 26.310,232.656 26.655,231.917 27.750 C 231.546 28.300,231.056 29.120,230.829 29.573 C 230.602 30.025,230.304 30.532,230.167 30.698 C 230.029 30.865,229.692 31.407,229.417 31.904 C 229.142 32.400,228.647 33.206,228.317 33.695 C 227.986 34.184,227.581 34.942,227.417 35.381 C 227.252 35.820,226.906 36.420,226.648 36.714 C 226.230 37.191,225.871 37.829,225.271 39.167 C 225.168 39.396,224.882 39.804,224.637 40.073 C 224.391 40.343,223.987 40.980,223.738 41.490 C 223.490 42.000,223.088 42.717,222.845 43.083 C 222.602 43.450,222.235 44.087,222.029 44.500 C 221.822 44.913,221.394 45.549,221.077 45.915 C 220.760 46.281,220.500 46.667,220.500 46.773 C 220.500 47.076,219.518 48.872,219.100 49.333 C 218.892 49.563,218.512 50.200,218.255 50.750 C 217.998 51.300,217.535 52.138,217.227 52.612 C 216.919 53.085,216.667 53.520,216.667 53.578 C 216.667 53.740,215.523 55.489,215.166 55.872 C 214.991 56.060,214.701 56.522,214.521 56.899 C 214.191 57.592,214.077 57.714,212.958 58.564 C 212.515 58.901,212.333 59.167,212.333 59.478 C 212.332 59.719,212.192 60.146,212.021 60.426 L 211.711 60.936 212.814 61.136 C 213.632 61.285,214.561 61.295,216.417 61.172 C 217.792 61.081,218.973 61.005,219.042 61.003 C 219.110 61.002,219.167 60.593,219.167 60.096 C 219.167 58.198,219.492 57.227,220.792 55.255 C 221.273 54.524,221.667 53.860,221.667 53.780 C 221.667 53.349,222.790 52.549,223.536 52.448 C 225.065 52.241,241.200 52.267,241.951 52.478 C 242.804 52.718,243.493 53.279,243.852 54.025 C 243.999 54.332,244.212 54.778,244.325 55.016 C 244.437 55.255,244.715 55.665,244.941 55.929 C 245.584 56.677,245.779 57.282,245.982 59.154 C 246.214 61.296,245.651 61.044,250.289 61.085 C 252.467 61.104,254.565 61.177,254.951 61.247 C 255.681 61.379,257.267 61.247,257.628 61.024 C 258.049 60.763,257.335 59.086,256.566 58.529 C 255.803 57.976,254.833 56.866,254.833 56.545 C 254.833 56.429,254.777 56.333,254.707 56.333 C 254.638 56.333,254.479 56.103,254.355 55.822 C 254.230 55.541,253.948 55.129,253.726 54.908 C 253.505 54.687,253.186 54.186,253.017 53.795 C 252.351 52.247,251.915 51.402,251.620 51.083 C 251.450 50.900,251.048 50.198,250.728 49.523 C 250.407 48.847,250.006 48.147,249.837 47.966 C 249.668 47.785,249.242 47.062,248.890 46.360 C 248.538 45.658,248.155 44.983,248.039 44.861 C 247.834 44.644,247.475 43.912,246.932 42.600 C 246.784 42.243,246.557 41.868,246.428 41.767 C 246.184 41.577,245.681 40.737,245.119 39.583 C 244.940 39.217,244.540 38.560,244.230 38.125 C 243.920 37.689,243.667 37.265,243.667 37.183 C 243.667 36.982,242.752 35.255,242.335 34.669 C 242.151 34.410,242.000 34.146,242.000 34.082 C 242.000 33.817,241.170 32.341,240.606 31.601 C 240.272 31.165,239.950 30.607,239.890 30.362 C 239.778 29.907,239.283 29.078,238.679 28.333 C 238.493 28.104,238.339 27.866,238.337 27.803 C 238.325 27.438,236.571 24.091,236.131 23.594 C 235.589 22.982,235.371 22.896,235.083 23.182 M235.960 24.125 C 236.134 24.377,236.448 25.015,236.658 25.542 C 236.867 26.069,237.087 26.500,237.145 26.500 C 237.204 26.500,237.341 26.706,237.449 26.958 C 238.243 28.806,238.505 29.293,238.872 29.605 C 239.104 29.802,239.420 30.375,239.584 30.897 C 239.746 31.412,239.944 31.833,240.023 31.833 C 240.102 31.833,240.167 31.932,240.167 32.052 C 240.167 32.173,240.392 32.487,240.667 32.750 C 240.942 33.013,241.167 33.296,241.167 33.378 C 241.167 33.619,242.335 35.886,242.646 36.250 C 242.967 36.624,243.214 37.129,243.515 38.022 C 243.627 38.354,243.937 38.877,244.204 39.182 C 244.630 39.670,245.494 41.297,245.504 41.630 C 245.506 41.696,245.768 41.974,246.087 42.248 C 246.406 42.523,246.667 42.880,246.667 43.044 C 246.667 43.478,247.615 45.498,247.967 45.813 C 248.133 45.962,248.372 46.346,248.499 46.667 C 248.786 47.393,249.404 48.404,250.026 49.163 C 250.287 49.482,250.500 49.841,250.500 49.960 C 250.500 50.283,251.316 51.833,251.485 51.833 C 251.648 51.833,252.667 53.860,252.667 54.182 C 252.667 54.294,252.957 54.768,253.312 55.235 C 253.667 55.701,254.164 56.458,254.415 56.917 C 254.666 57.375,255.070 57.912,255.311 58.110 C 255.552 58.309,255.934 58.618,256.159 58.798 C 256.552 59.112,256.559 59.150,256.337 59.822 C 256.025 60.767,255.812 60.842,254.250 60.557 C 253.287 60.381,252.331 60.342,250.806 60.417 C 247.340 60.587,246.911 60.371,246.429 58.211 C 246.152 56.970,245.871 56.178,245.645 56.000 C 245.514 55.897,244.910 54.849,244.370 53.787 C 243.898 52.858,243.215 52.308,242.167 52.013 C 241.754 51.896,241.311 51.748,241.182 51.684 C 241.053 51.619,240.539 51.640,240.040 51.731 C 239.407 51.845,238.859 51.838,238.225 51.705 C 237.625 51.579,237.176 51.568,236.898 51.674 C 236.401 51.863,225.405 51.870,224.924 51.682 C 224.745 51.612,224.407 51.618,224.174 51.695 C 223.941 51.772,223.432 51.912,223.044 52.007 C 222.380 52.168,221.167 53.157,221.167 53.537 C 221.167 53.621,220.942 54.017,220.667 54.417 C 220.392 54.816,220.167 55.180,220.167 55.224 C 220.167 55.268,219.855 55.844,219.475 56.504 C 219.095 57.163,218.721 58.037,218.645 58.445 C 218.285 60.374,217.860 60.667,215.429 60.667 C 213.545 60.667,213.473 60.634,213.203 59.644 C 213.041 59.051,213.054 59.026,213.762 58.527 C 214.179 58.233,214.667 57.678,214.913 57.217 C 215.148 56.777,215.679 56.016,216.094 55.527 C 216.508 55.037,216.889 54.429,216.940 54.175 C 216.991 53.921,217.221 53.497,217.451 53.232 C 217.682 52.967,218.056 52.337,218.284 51.833 C 218.911 50.443,219.120 50.085,219.622 49.547 C 219.876 49.275,220.182 48.759,220.303 48.401 C 220.644 47.389,220.879 46.958,221.383 46.417 C 221.639 46.142,222.030 45.527,222.251 45.051 C 222.472 44.576,222.787 44.030,222.950 43.839 C 223.113 43.649,223.560 42.891,223.942 42.155 C 224.325 41.419,224.813 40.640,225.027 40.424 C 225.241 40.208,225.597 39.555,225.817 38.974 C 226.037 38.392,226.491 37.615,226.827 37.246 C 227.162 36.878,227.567 36.177,227.727 35.688 C 227.887 35.200,228.182 34.624,228.384 34.408 C 229.046 33.699,229.158 33.528,229.605 32.551 C 229.848 32.019,230.181 31.489,230.345 31.374 C 230.630 31.174,231.167 30.264,231.167 29.982 C 231.167 29.836,231.836 28.785,232.270 28.250 C 232.574 27.875,233.667 25.611,233.667 25.357 C 233.667 25.108,235.161 23.667,235.418 23.667 C 235.542 23.667,235.786 23.873,235.960 24.125 M268.848 23.872 C 267.613 24.138,267.510 24.394,268.311 25.203 C 269.588 26.493,269.529 25.639,269.507 42.589 C 269.487 57.820,269.476 58.115,268.902 58.833 C 268.793 58.971,268.669 59.383,268.628 59.750 C 268.587 60.117,268.502 60.532,268.439 60.673 C 268.234 61.132,269.772 61.316,272.500 61.158 C 273.829 61.081,275.067 61.012,275.250 61.005 C 275.575 60.993,275.575 60.986,275.228 60.705 C 275.022 60.538,274.786 60.045,274.668 59.536 C 274.556 59.051,274.309 58.338,274.121 57.952 C 273.787 57.270,273.778 57.017,273.803 49.167 C 273.818 44.721,273.768 40.221,273.694 39.167 C 273.546 37.083,273.597 36.856,274.370 36.134 C 275.380 35.188,275.329 35.156,278.855 38.945 C 279.096 39.205,279.584 39.686,279.938 40.015 C 280.293 40.345,280.696 40.736,280.833 40.884 C 281.426 41.526,283.594 43.497,283.708 43.499 C 283.777 43.499,283.833 43.579,283.833 43.675 C 283.833 43.772,284.490 44.492,285.292 45.276 C 288.775 48.679,291.667 51.540,291.667 51.582 C 291.667 51.632,293.367 53.298,294.417 54.277 C 296.590 56.303,299.185 58.889,299.833 59.674 C 301.030 61.127,300.936 61.069,301.473 60.686 C 301.733 60.501,302.035 60.242,302.143 60.112 C 302.292 59.932,302.331 56.138,302.303 44.562 C 302.282 36.141,302.271 28.837,302.279 28.333 C 302.293 27.349,303.168 25.377,303.844 24.804 C 304.025 24.650,304.116 24.489,304.045 24.447 C 302.826 23.716,302.863 23.722,300.045 23.834 C 296.595 23.971,296.367 24.097,297.311 25.345 C 298.318 26.675,298.333 26.831,298.333 35.616 C 298.333 45.165,298.250 45.594,296.558 44.701 C 296.205 44.515,295.791 44.323,295.638 44.275 C 295.484 44.226,295.052 43.772,294.677 43.264 C 293.981 42.322,287.244 35.498,286.281 34.761 C 285.989 34.537,285.006 33.636,284.096 32.760 C 283.186 31.884,282.380 31.167,282.305 31.167 C 282.230 31.167,281.954 30.871,281.692 30.509 C 281.430 30.147,280.849 29.574,280.400 29.234 C 279.951 28.895,279.433 28.429,279.250 28.199 C 279.067 27.969,278.700 27.586,278.435 27.349 C 277.425 26.443,276.734 25.728,276.285 25.127 C 275.374 23.908,271.619 23.274,268.848 23.872 M91.404 24.345 C 90.655 24.810,89.932 25.785,89.264 27.232 C 88.940 27.933,88.480 28.702,88.243 28.939 C 87.726 29.456,87.499 30.001,87.502 30.719 C 87.508 32.121,87.941 32.428,88.744 31.601 C 89.047 31.289,89.584 30.901,89.939 30.739 C 90.293 30.577,90.696 30.352,90.833 30.239 C 90.971 30.126,91.365 29.876,91.708 29.684 C 92.052 29.491,92.578 29.195,92.876 29.026 C 94.848 27.908,103.237 28.174,103.989 29.378 C 104.241 29.781,104.266 57.725,104.016 58.372 C 103.468 59.787,103.221 60.285,102.937 60.543 C 102.580 60.866,102.580 60.866,103.152 61.165 C 103.678 61.439,112.610 61.412,113.544 61.133 C 114.162 60.949,114.166 60.941,113.844 60.641 C 113.511 60.330,113.314 59.941,112.687 58.353 C 112.336 57.464,112.333 57.332,112.333 43.585 L 112.333 29.715 112.744 29.273 C 113.994 27.923,124.038 28.093,125.167 29.483 C 125.339 29.695,126.440 30.438,127.052 30.754 C 127.402 30.935,127.795 31.202,127.927 31.346 C 128.498 31.973,129.167 31.556,129.167 30.574 C 129.167 30.086,129.100 29.645,129.018 29.595 C 128.845 29.488,127.787 27.513,127.113 26.038 C 126.843 25.449,126.145 24.739,125.453 24.352 L 124.823 24.000 108.370 24.014 C 92.489 24.027,91.899 24.039,91.404 24.345 M142.851 24.259 C 142.323 24.488,142.303 24.524,142.553 24.800 C 142.700 24.962,142.983 25.468,143.181 25.923 C 143.379 26.378,143.682 27.065,143.854 27.449 C 144.152 28.116,144.167 28.827,144.167 42.724 L 144.167 57.299 143.687 58.275 C 143.423 58.811,143.151 59.438,143.081 59.667 C 143.012 59.896,142.853 60.231,142.728 60.412 C 142.150 61.247,142.877 61.373,148.092 61.345 C 153.006 61.317,153.933 61.182,153.366 60.573 C 153.195 60.389,152.999 60.016,152.931 59.744 C 152.863 59.472,152.711 59.025,152.594 58.750 C 152.476 58.475,152.295 58.040,152.190 57.784 C 151.794 56.814,151.934 28.427,152.341 27.153 C 152.773 25.800,153.164 25.028,153.563 24.745 C 154.571 24.028,144.441 23.568,142.851 24.259 M170.743 24.344 C 170.372 24.524,169.928 24.914,169.756 25.211 C 169.583 25.507,169.399 25.787,169.346 25.833 C 169.226 25.938,168.730 26.833,167.747 28.724 C 166.846 30.457,166.840 31.020,167.717 31.326 C 168.076 31.451,168.265 31.455,168.304 31.339 C 168.335 31.244,168.467 31.167,168.597 31.167 C 168.727 31.167,168.833 31.092,168.833 31.000 C 168.833 30.908,168.912 30.833,169.008 30.833 C 169.179 30.833,171.001 29.724,171.167 29.519 C 172.310 28.104,182.189 27.906,183.286 29.276 L 183.665 29.750 183.666 43.639 L 183.667 57.529 183.144 58.639 C 182.857 59.250,182.490 60.023,182.329 60.357 C 181.882 61.283,182.078 61.319,187.620 61.340 C 192.892 61.360,193.661 61.251,193.030 60.568 C 192.869 60.393,192.552 59.688,192.327 59.000 L 191.917 57.750 191.900 47.500 C 191.891 41.862,191.857 35.637,191.824 33.667 C 191.740 28.601,191.835 28.482,196.000 28.362 C 200.924 28.220,203.859 28.777,205.316 30.129 C 205.738 30.520,206.383 30.927,206.750 31.032 C 207.117 31.137,207.616 31.405,207.860 31.628 C 208.722 32.416,209.066 30.378,208.233 29.417 C 207.995 29.142,207.531 28.354,207.202 27.667 C 206.873 26.979,206.431 26.185,206.219 25.901 C 206.007 25.617,205.833 25.334,205.833 25.271 C 205.833 25.209,205.596 24.897,205.307 24.579 L 204.780 24.000 188.098 24.008 C 171.869 24.016,171.398 24.025,170.743 24.344 M274.933 24.619 C 275.308 24.818,275.753 25.191,275.920 25.449 C 276.253 25.960,278.641 28.336,281.836 31.333 C 282.960 32.387,284.365 33.719,284.960 34.292 C 285.554 34.865,286.139 35.333,286.259 35.333 C 286.379 35.333,286.524 35.479,286.580 35.656 C 286.671 35.943,287.018 36.289,288.101 37.174 C 288.275 37.316,288.604 37.678,288.833 37.978 C 289.063 38.279,289.416 38.591,289.619 38.673 C 289.823 38.754,290.219 39.139,290.501 39.528 C 290.783 39.917,291.203 40.360,291.434 40.512 C 291.665 40.663,292.043 41.065,292.274 41.404 C 292.504 41.743,292.916 42.157,293.189 42.323 C 293.463 42.489,293.813 42.857,293.968 43.141 C 294.387 43.908,295.821 45.333,296.173 45.333 C 296.342 45.333,296.527 45.408,296.583 45.500 C 296.987 46.154,298.653 45.242,298.680 44.352 C 298.956 35.373,298.601 25.516,297.977 24.847 C 297.546 24.385,297.817 24.329,300.524 24.323 C 303.165 24.317,303.301 24.354,302.893 24.974 C 302.399 25.725,302.116 26.369,301.971 27.074 C 301.763 28.088,301.625 56.785,301.823 58.013 C 302.045 59.397,301.279 60.718,300.671 59.997 C 299.949 59.140,299.833 58.989,299.833 58.900 C 299.833 58.847,298.694 57.704,297.301 56.360 C 295.908 55.016,292.872 52.042,290.554 49.750 C 288.236 47.458,285.906 45.164,285.378 44.651 C 284.849 44.138,284.079 43.362,283.667 42.926 C 283.254 42.490,281.567 40.808,279.917 39.188 C 278.267 37.567,276.659 35.928,276.344 35.544 C 275.538 34.560,275.468 34.551,274.027 35.223 C 273.090 35.661,273.102 35.496,273.129 46.844 C 273.142 52.578,273.207 57.416,273.273 57.594 C 273.338 57.771,273.557 58.182,273.759 58.506 C 274.587 59.837,273.524 60.667,270.990 60.667 C 270.009 60.667,270.003 60.664,269.741 60.042 C 269.479 59.418,269.487 59.174,269.811 57.919 C 269.921 57.493,269.992 52.015,270.010 42.586 C 270.040 26.289,270.029 26.102,268.977 24.976 C 268.517 24.483,268.530 24.447,269.250 24.272 C 270.281 24.020,274.262 24.264,274.933 24.619 M125.269 24.917 C 126.401 25.813,126.753 26.237,127.067 27.083 C 127.238 27.542,127.442 27.988,127.522 28.075 C 127.602 28.162,127.667 28.364,127.667 28.524 C 127.667 28.684,127.798 28.913,127.958 29.034 C 128.508 29.449,128.721 30.003,128.494 30.428 L 128.290 30.810 127.648 30.405 C 127.295 30.182,126.966 30.000,126.916 30.000 C 126.866 30.000,126.455 29.745,126.003 29.434 C 125.551 29.123,124.746 28.736,124.215 28.574 C 123.684 28.411,123.175 28.227,123.083 28.163 C 122.464 27.734,116.325 27.562,114.250 27.916 C 112.869 28.151,112.196 28.666,111.947 29.678 C 111.829 30.161,111.762 57.111,111.878 57.500 C 111.919 57.637,112.039 58.018,112.143 58.345 C 112.248 58.673,112.333 59.404,112.333 59.970 L 112.333 61.000 108.250 61.000 L 104.167 61.000 104.167 60.039 C 104.167 59.494,104.311 58.685,104.500 58.167 C 105.022 56.738,105.021 30.187,104.498 29.163 C 103.855 27.902,103.312 27.787,98.345 27.863 C 95.589 27.905,93.966 27.995,93.750 28.118 C 93.214 28.422,91.199 29.333,91.063 29.333 C 90.994 29.333,90.783 29.469,90.594 29.636 C 90.405 29.802,89.912 30.079,89.500 30.250 C 89.087 30.422,88.628 30.664,88.479 30.788 C 88.248 30.981,88.192 30.974,88.104 30.744 C 87.863 30.116,87.997 29.728,88.537 29.488 C 88.959 29.301,89.121 29.088,89.289 28.500 C 89.829 26.605,91.355 24.694,92.473 24.508 C 92.809 24.453,100.183 24.409,108.860 24.412 L 124.637 24.417 125.269 24.917 M152.189 24.434 C 152.504 24.522,152.233 25.931,151.641 27.290 C 151.349 27.959,151.333 28.768,151.333 42.764 L 151.333 57.532 151.707 58.057 C 151.991 58.456,152.096 58.873,152.142 59.791 L 152.203 61.000 148.018 61.000 L 143.833 61.000 143.833 60.028 C 143.833 59.493,143.885 59.004,143.948 58.941 C 144.466 58.423,144.495 57.564,144.497 42.623 C 144.500 28.269,144.487 27.634,144.183 26.957 C 143.721 25.928,143.599 24.537,143.965 24.467 C 144.418 24.380,151.890 24.350,152.189 24.434 M204.824 24.785 C 205.012 24.987,205.167 25.197,205.167 25.252 C 205.167 25.307,205.485 25.816,205.874 26.384 C 206.773 27.698,207.000 28.128,207.000 28.521 C 207.000 28.915,207.316 29.482,207.736 29.841 C 208.045 30.106,208.038 30.121,207.503 30.307 C 206.649 30.605,206.467 30.551,205.735 29.785 C 205.314 29.344,204.771 28.982,204.318 28.839 C 203.914 28.711,203.508 28.555,203.417 28.491 C 202.398 27.784,194.649 27.479,193.023 28.081 C 191.966 28.473,191.203 29.192,191.088 29.905 C 190.843 31.422,191.088 57.938,191.351 58.341 C 191.498 58.566,191.660 58.975,191.712 59.250 C 191.764 59.525,191.879 60.031,191.969 60.375 L 192.132 61.000 187.899 61.000 L 183.667 61.000 183.673 59.875 C 183.676 59.216,183.777 58.577,183.917 58.333 C 184.368 57.545,184.273 29.514,183.818 28.935 C 182.888 27.753,176.564 27.288,173.417 28.171 C 173.142 28.248,172.579 28.406,172.167 28.522 C 171.754 28.639,170.817 29.131,170.085 29.617 C 169.352 30.103,168.659 30.500,168.543 30.500 C 168.428 30.500,168.333 30.587,168.333 30.692 C 168.333 30.802,168.189 30.754,168.000 30.583 C 167.528 30.156,167.601 29.700,168.279 28.833 C 168.619 28.400,169.500 26.643,169.500 26.400 C 169.500 26.272,169.570 26.167,169.655 26.167 C 169.741 26.167,169.858 26.017,169.917 25.833 C 169.975 25.650,170.124 25.500,170.247 25.500 C 170.371 25.500,170.497 25.442,170.528 25.372 C 170.558 25.301,170.825 25.058,171.120 24.830 L 171.656 24.417 188.068 24.417 L 204.481 24.417 204.824 24.785 M232.109 35.451 C 231.575 35.589,231.154 36.052,230.630 37.082 C 230.350 37.631,229.794 38.620,229.394 39.279 C 228.994 39.938,228.667 40.569,228.667 40.681 C 228.667 40.793,228.490 41.117,228.275 41.401 C 228.059 41.685,227.749 42.179,227.585 42.500 C 227.421 42.821,227.237 43.121,227.176 43.167 C 227.114 43.212,226.962 43.503,226.836 43.813 C 226.711 44.123,226.435 44.549,226.224 44.761 C 225.004 45.981,224.924 47.733,226.050 48.536 C 226.585 48.917,236.727 49.125,238.500 48.791 C 240.477 48.419,240.905 46.657,239.482 44.750 C 239.140 44.292,238.583 43.392,238.244 42.750 C 237.905 42.108,237.570 41.546,237.500 41.500 C 237.429 41.454,237.198 41.042,236.985 40.583 C 236.772 40.125,236.359 39.412,236.066 39.000 C 235.384 38.036,234.833 37.046,234.833 36.783 C 234.833 35.830,233.385 35.122,232.109 35.451 M234.083 36.500 C 234.142 36.683,234.259 36.833,234.345 36.833 C 234.430 36.833,234.500 36.941,234.500 37.073 C 234.500 37.298,235.394 39.043,235.699 39.415 C 236.040 39.829,236.667 40.863,236.667 41.010 C 236.667 41.100,236.976 41.678,237.354 42.295 C 237.732 42.912,238.231 43.754,238.462 44.167 C 238.694 44.579,239.104 45.240,239.374 45.636 C 240.046 46.621,239.743 47.510,238.583 47.957 C 237.962 48.197,227.677 48.210,226.882 47.972 C 225.914 47.682,225.535 46.372,226.208 45.642 C 226.415 45.418,226.770 44.864,226.999 44.409 C 227.228 43.955,227.509 43.484,227.624 43.363 C 227.739 43.242,227.833 43.079,227.833 43.000 C 227.833 42.921,227.937 42.753,228.064 42.626 C 228.191 42.499,228.653 41.725,229.090 40.906 C 229.527 40.087,229.940 39.379,230.007 39.333 C 230.073 39.287,230.365 38.727,230.654 38.087 C 231.430 36.371,231.673 36.167,232.934 36.167 C 233.831 36.167,233.992 36.213,234.083 36.500 " stroke="none" fill="#747474" fill-rule="evenodd"></path><path id="path3" d="M234.263 23.626 C 233.811 23.969,233.413 24.340,233.377 24.449 C 233.341 24.558,233.593 24.390,233.937 24.075 C 234.281 23.760,234.698 23.460,234.864 23.407 C 235.031 23.354,235.167 23.241,235.167 23.155 C 235.167 22.937,235.173 22.934,234.263 23.626 M267.864 24.125 L 267.390 24.583 268.306 25.500 C 268.810 26.004,269.142 26.267,269.043 26.083 C 268.945 25.900,268.586 25.472,268.246 25.133 C 267.512 24.401,267.638 24.136,268.848 23.866 L 269.583 23.702 268.961 23.685 C 268.493 23.671,268.221 23.780,267.864 24.125 M271.625 23.784 C 271.831 23.824,272.169 23.824,272.375 23.784 C 272.581 23.745,272.412 23.712,272.000 23.712 C 271.587 23.712,271.419 23.745,271.625 23.784 M274.000 23.833 C 274.137 23.922,274.362 23.995,274.500 23.995 C 274.722 23.995,274.722 23.977,274.500 23.833 C 274.362 23.744,274.137 23.672,274.000 23.672 C 273.778 23.672,273.778 23.690,274.000 23.833 M296.958 24.019 C 296.408 24.430,296.400 24.501,296.848 25.016 C 297.039 25.236,297.259 25.529,297.335 25.665 C 297.412 25.802,297.516 25.873,297.566 25.823 C 297.616 25.772,297.437 25.464,297.167 25.137 L 296.677 24.542 297.017 24.235 C 297.302 23.977,297.752 23.911,299.803 23.825 L 302.250 23.723 299.833 23.700 C 297.636 23.679,297.375 23.708,296.958 24.019 M96.125 23.958 C 98.256 23.985,101.744 23.985,103.875 23.958 C 106.006 23.932,104.263 23.910,100.000 23.910 C 95.737 23.910,93.994 23.932,96.125 23.958 M113.042 23.958 C 115.219 23.985,118.781 23.985,120.958 23.958 C 123.135 23.932,121.354 23.910,117.000 23.910 C 112.646 23.910,110.865 23.932,113.042 23.958 M144.542 23.956 C 145.069 23.990,145.931 23.990,146.458 23.956 C 146.985 23.923,146.554 23.896,145.500 23.896 C 144.446 23.896,144.015 23.923,144.542 23.956 M149.708 23.956 C 150.235 23.990,151.098 23.990,151.625 23.956 C 152.152 23.923,151.721 23.896,150.667 23.896 C 149.612 23.896,149.181 23.923,149.708 23.956 M176.030 23.958 C 178.476 23.984,182.526 23.984,185.030 23.958 C 187.534 23.932,185.533 23.911,180.583 23.911 C 175.633 23.911,173.584 23.932,176.030 23.958 M194.053 23.958 C 196.053 23.985,199.278 23.985,201.220 23.958 C 203.161 23.931,201.525 23.910,197.583 23.910 C 193.642 23.910,192.053 23.932,194.053 23.958 M91.260 24.218 C 90.535 24.663,89.501 25.955,89.501 26.417 C 89.501 26.508,89.639 26.358,89.807 26.082 C 90.166 25.493,91.113 24.500,91.585 24.218 C 91.767 24.109,91.842 24.020,91.750 24.020 C 91.658 24.020,91.438 24.109,91.260 24.218 M142.383 24.274 C 142.019 24.528,142.018 24.533,142.339 24.877 C 142.516 25.068,142.863 25.661,143.110 26.194 C 143.356 26.728,143.585 27.137,143.619 27.103 C 143.717 27.005,142.847 25.125,142.553 24.799 C 142.303 24.524,142.324 24.488,142.851 24.259 C 143.234 24.092,143.309 24.014,143.083 24.015 C 142.900 24.016,142.585 24.133,142.383 24.274 M153.333 24.286 C 153.661 24.432,153.822 24.579,153.700 24.623 C 153.398 24.730,152.631 25.982,152.720 26.221 C 152.761 26.328,152.876 26.209,152.977 25.956 C 153.078 25.702,153.387 25.273,153.664 25.002 L 154.168 24.509 153.676 24.255 C 153.405 24.115,153.086 24.006,152.967 24.014 C 152.847 24.021,153.012 24.144,153.333 24.286 M205.180 24.471 C 205.402 24.752,205.640 24.986,205.710 24.991 C 205.918 25.006,205.476 24.398,205.113 24.172 C 204.821 23.990,204.830 24.030,205.180 24.471 M275.453 24.328 C 275.748 24.508,276.161 24.920,276.370 25.242 C 276.579 25.565,276.818 25.830,276.901 25.831 C 276.984 25.832,276.911 25.665,276.739 25.458 C 275.916 24.470,275.412 24.000,275.176 24.001 C 275.033 24.001,275.158 24.148,275.453 24.328 M303.812 24.311 C 304.139 24.563,304.162 24.633,303.948 24.715 C 303.626 24.838,303.244 25.500,303.494 25.500 C 303.589 25.500,303.667 25.406,303.667 25.290 C 303.667 25.175,303.824 24.982,304.016 24.862 C 304.383 24.633,304.074 23.994,303.599 24.004 C 303.499 24.006,303.595 24.144,303.812 24.311 M126.010 24.694 C 126.234 24.892,126.557 25.211,126.728 25.402 C 127.033 25.743,127.033 25.740,126.741 25.250 C 126.425 24.723,126.022 24.347,125.760 24.339 C 125.674 24.336,125.787 24.496,126.010 24.694 M169.905 24.721 C 169.423 25.301,169.144 25.833,169.321 25.833 C 169.407 25.833,169.523 25.691,169.578 25.517 C 169.633 25.343,169.874 25.005,170.112 24.767 C 170.350 24.528,170.474 24.333,170.386 24.333 C 170.298 24.333,170.082 24.508,169.905 24.721 M237.000 24.925 C 237.000 25.113,237.527 26.028,237.596 25.959 C 237.675 25.881,237.186 24.833,237.071 24.833 C 237.032 24.833,237.000 24.875,237.000 24.925 M205.835 25.250 C 205.835 25.342,206.019 25.642,206.245 25.917 C 206.470 26.192,206.655 26.342,206.655 26.250 C 206.655 26.158,206.470 25.858,206.245 25.583 C 206.019 25.308,205.835 25.158,205.835 25.250 M302.909 26.182 C 302.762 26.466,302.683 26.739,302.733 26.789 C 302.783 26.839,302.903 26.671,303.000 26.416 C 303.097 26.161,303.216 25.888,303.265 25.809 C 303.313 25.731,303.313 25.667,303.264 25.667 C 303.215 25.667,303.055 25.899,302.909 26.182 M237.675 26.188 C 237.659 26.390,238.535 28.187,238.612 28.111 C 238.654 28.068,238.462 27.595,238.186 27.058 C 237.909 26.522,237.679 26.131,237.675 26.188 M277.333 26.244 C 277.333 26.318,277.610 26.613,277.948 26.898 C 278.287 27.183,278.680 27.559,278.823 27.733 C 279.211 28.204,280.395 29.328,280.448 29.275 C 280.499 29.223,278.488 27.133,277.789 26.513 C 277.538 26.290,277.333 26.169,277.333 26.244 M152.417 26.833 C 152.354 27.030,152.340 27.229,152.386 27.275 C 152.432 27.321,152.521 27.197,152.583 27.000 C 152.646 26.803,152.660 26.604,152.614 26.558 C 152.568 26.512,152.479 26.636,152.417 26.833 M232.230 26.988 C 232.064 27.270,231.869 27.500,231.797 27.500 C 231.725 27.500,231.667 27.588,231.667 27.695 C 231.667 27.803,231.542 28.028,231.390 28.196 C 231.238 28.364,231.154 28.543,231.203 28.592 C 231.253 28.642,231.608 28.222,231.992 27.659 C 232.376 27.096,232.655 26.600,232.612 26.556 C 232.568 26.513,232.396 26.707,232.230 26.988 M269.190 26.833 C 269.190 26.971,269.255 27.233,269.333 27.417 C 269.424 27.627,269.477 27.658,269.477 27.500 C 269.477 27.363,269.412 27.100,269.333 26.917 C 269.243 26.707,269.190 26.676,269.190 26.833 M298.023 27.083 C 298.023 27.267,298.088 27.567,298.167 27.750 L 298.310 28.083 298.310 27.750 C 298.310 27.567,298.245 27.267,298.167 27.083 L 298.023 26.750 298.023 27.083 M88.827 27.769 C 88.727 28.033,88.486 28.419,88.293 28.625 C 87.926 29.017,88.030 29.161,88.407 28.784 C 88.721 28.469,89.207 27.485,89.100 27.378 C 89.050 27.328,88.927 27.504,88.827 27.769 M143.767 27.583 C 143.956 28.005,143.967 57.296,143.778 57.750 C 143.641 58.080,143.642 58.080,143.906 57.756 C 144.283 57.293,144.229 27.819,143.850 27.467 C 143.654 27.284,143.641 27.303,143.767 27.583 M152.105 27.875 C 151.960 28.417,151.982 57.380,152.128 57.609 C 152.195 57.715,152.250 50.984,152.250 42.651 C 152.250 34.318,152.240 27.500,152.228 27.500 C 152.216 27.500,152.160 27.669,152.105 27.875 M167.455 28.882 C 167.109 29.634,166.828 30.376,166.830 30.530 C 166.832 30.684,166.733 30.910,166.611 31.032 C 166.398 31.244,166.285 32.370,166.486 32.271 C 166.767 32.132,167.783 31.696,168.000 31.620 C 168.169 31.562,168.077 31.470,167.719 31.338 C 166.866 31.023,166.852 30.453,167.659 28.849 C 168.032 28.107,168.280 27.503,168.210 27.507 C 168.140 27.510,167.800 28.129,167.455 28.882 M128.244 28.292 C 128.390 28.590,128.544 28.833,128.588 28.833 C 128.753 28.833,128.647 28.568,128.320 28.167 L 127.980 27.750 128.244 28.292 M269.542 28.583 C 269.544 28.950,269.578 29.080,269.618 28.873 C 269.658 28.666,269.656 28.366,269.615 28.206 C 269.573 28.047,269.540 28.217,269.542 28.583 M302.209 28.583 C 302.211 28.950,302.245 29.080,302.285 28.873 C 302.324 28.666,302.323 28.366,302.281 28.206 C 302.239 28.047,302.207 28.217,302.209 28.583 M95.167 28.505 C 94.754 28.566,96.354 28.628,98.721 28.642 L 103.026 28.667 103.533 29.174 C 104.058 29.699,104.286 29.780,103.945 29.321 C 103.358 28.530,103.004 28.461,99.373 28.426 C 97.472 28.408,95.579 28.443,95.167 28.505 M114.333 28.499 C 114.013 28.551,115.737 28.593,118.167 28.593 C 120.653 28.593,122.183 28.542,121.667 28.475 C 120.621 28.340,115.213 28.358,114.333 28.499 M174.667 28.497 C 174.346 28.558,175.808 28.618,177.917 28.628 C 180.209 28.640,181.616 28.589,181.417 28.503 C 181.030 28.335,175.532 28.330,174.667 28.497 M193.833 28.441 C 193.016 28.708,192.375 29.061,192.199 29.343 C 191.943 29.754,192.126 29.764,192.480 29.359 C 193.112 28.640,193.411 28.594,197.417 28.607 C 199.774 28.615,200.929 28.570,200.417 28.491 C 199.503 28.350,194.235 28.310,193.833 28.441 M239.027 28.811 C 239.241 29.074,239.511 29.430,239.627 29.603 C 239.743 29.775,239.726 29.692,239.589 29.417 C 239.286 28.808,238.922 28.333,238.758 28.333 C 238.692 28.333,238.812 28.548,239.027 28.811 M93.250 28.833 C 93.128 29.030,93.291 29.030,93.750 28.833 C 94.071 28.695,94.070 28.690,93.718 28.678 C 93.517 28.672,93.307 28.742,93.250 28.833 M172.833 28.833 C 172.502 29.047,172.918 29.047,173.417 28.833 L 173.750 28.690 173.417 28.681 C 173.233 28.676,172.971 28.744,172.833 28.833 M182.167 28.833 C 182.304 28.922,182.548 28.996,182.708 28.997 C 182.869 28.999,183.000 29.075,183.000 29.167 C 183.000 29.258,183.094 29.331,183.208 29.328 C 183.571 29.318,182.646 28.667,182.273 28.669 C 181.982 28.671,181.962 28.701,182.167 28.833 M202.014 28.726 C 202.052 28.759,202.346 28.834,202.667 28.892 C 203.077 28.968,203.176 28.951,203.000 28.836 C 202.774 28.688,201.849 28.585,202.014 28.726 M207.855 28.956 C 208.395 29.640,208.727 29.951,208.523 29.583 C 208.248 29.085,207.896 28.667,207.753 28.667 C 207.683 28.667,207.729 28.797,207.855 28.956 M112.606 29.406 C 112.315 29.849,112.175 57.326,112.461 57.776 C 112.528 57.882,112.563 51.665,112.538 43.961 C 112.497 31.344,112.519 29.912,112.760 29.545 C 112.906 29.321,112.993 29.104,112.953 29.064 C 112.912 29.023,112.756 29.177,112.606 29.406 M124.000 29.167 C 124.138 29.256,124.362 29.328,124.500 29.328 C 124.722 29.328,124.722 29.310,124.500 29.167 C 124.362 29.078,124.138 29.005,124.000 29.005 C 123.778 29.005,123.778 29.023,124.000 29.167 M128.667 29.126 C 128.667 29.218,128.779 29.386,128.917 29.500 C 129.056 29.616,129.167 29.634,129.167 29.541 C 129.167 29.449,129.054 29.281,128.917 29.167 C 128.777 29.051,128.667 29.033,128.667 29.126 M171.542 29.227 C 171.335 29.329,171.167 29.472,171.167 29.544 C 171.167 29.653,172.090 29.267,172.319 29.062 C 172.467 28.930,171.898 29.050,171.542 29.227 M298.242 35.333 C 298.242 38.862,298.264 40.306,298.291 38.542 C 298.318 36.777,298.318 33.890,298.291 32.125 C 298.264 30.360,298.242 31.804,298.242 35.333 M230.108 30.434 C 229.762 30.948,229.515 31.404,229.559 31.448 C 229.604 31.492,229.720 31.378,229.819 31.194 C 229.917 31.010,230.093 30.760,230.209 30.638 C 230.409 30.428,230.876 29.500,230.782 29.500 C 230.757 29.500,230.454 29.920,230.108 30.434 M87.437 29.958 C 86.841 31.987,87.689 32.832,89.058 31.575 C 89.502 31.167,89.789 30.833,89.696 30.833 C 89.603 30.833,89.224 31.132,88.855 31.498 C 87.869 32.475,87.282 31.908,87.553 30.241 C 87.651 29.635,87.582 29.466,87.437 29.958 M91.083 30.093 C 90.808 30.327,90.733 30.444,90.917 30.354 C 91.410 30.113,91.942 29.678,91.750 29.673 C 91.658 29.670,91.358 29.859,91.083 30.093 M204.833 29.731 C 204.833 29.795,204.983 30.008,205.167 30.205 C 205.350 30.402,205.500 30.485,205.500 30.391 C 205.500 30.296,205.350 30.083,205.167 29.917 C 204.983 29.751,204.833 29.667,204.833 29.731 M129.184 30.606 C 129.165 31.525,128.462 31.973,127.969 31.379 C 127.864 31.252,127.621 31.067,127.430 30.968 C 127.197 30.846,127.248 30.946,127.588 31.276 C 127.889 31.568,128.490 31.879,129.078 32.046 C 130.050 32.323,130.472 32.297,129.995 31.991 C 129.792 31.860,129.788 31.809,129.975 31.688 C 130.156 31.572,130.136 31.497,129.876 31.313 C 129.697 31.187,129.472 30.783,129.376 30.417 L 129.201 29.750 129.184 30.606 M191.794 29.958 C 191.762 30.027,191.781 31.733,191.837 33.750 L 191.937 37.417 191.969 33.625 C 191.997 30.170,191.969 29.585,191.794 29.958 M104.218 30.917 C 104.219 31.467,104.250 31.672,104.287 31.372 C 104.325 31.072,104.324 30.622,104.286 30.372 C 104.248 30.122,104.217 30.367,104.218 30.917 M169.957 30.319 C 169.230 30.785,169.195 30.891,169.875 30.568 C 170.219 30.405,170.500 30.210,170.500 30.136 C 170.500 29.967,170.512 29.963,169.957 30.319 M208.667 30.678 C 208.667 31.846,208.404 32.130,207.832 31.582 C 207.572 31.333,207.283 31.157,207.188 31.190 C 207.094 31.223,207.308 31.494,207.663 31.791 C 208.251 32.283,208.334 32.309,208.572 32.071 C 208.814 31.829,208.971 30.000,208.750 30.000 C 208.704 30.000,208.667 30.305,208.667 30.678 M239.833 30.176 C 239.833 30.467,240.701 31.899,240.984 32.073 C 241.274 32.253,241.196 32.018,240.837 31.633 C 240.656 31.438,240.356 30.973,240.171 30.598 C 239.985 30.223,239.834 30.033,239.833 30.176 M281.918 30.834 C 282.084 31.018,282.255 31.134,282.297 31.092 C 282.387 31.002,281.912 30.500,281.736 30.500 C 281.669 30.500,281.751 30.650,281.918 30.834 M302.398 32.583 C 302.398 33.775,302.425 34.241,302.457 33.618 C 302.489 32.996,302.489 32.021,302.457 31.451 C 302.424 30.882,302.398 31.392,302.398 32.583 M283.666 32.416 C 283.881 32.645,284.094 32.795,284.138 32.750 C 284.220 32.669,283.527 32.000,283.362 32.000 C 283.314 32.000,283.451 32.187,283.666 32.416 M284.918 33.510 C 285.284 33.928,285.846 34.453,286.167 34.676 C 286.874 35.170,287.243 35.327,286.678 34.894 C 286.454 34.723,285.995 34.321,285.656 34.000 C 284.523 32.927,284.246 32.743,284.918 33.510 M228.297 33.458 C 228.045 33.748,227.533 34.664,227.718 34.496 C 227.868 34.359,228.663 33.167,228.604 33.167 C 228.575 33.167,228.437 33.298,228.297 33.458 M242.602 35.089 C 242.754 35.321,242.911 35.478,242.951 35.438 C 243.050 35.339,242.618 34.667,242.456 34.667 C 242.384 34.667,242.450 34.857,242.602 35.089 M287.167 35.441 C 287.167 35.531,287.410 35.825,287.708 36.094 L 288.250 36.583 287.750 36.001 C 287.475 35.680,287.231 35.387,287.208 35.348 C 287.185 35.309,287.167 35.351,287.167 35.441 M274.922 35.700 C 274.481 35.956,273.918 36.531,273.688 36.960 C 273.383 37.530,273.472 37.581,273.869 37.064 C 274.627 36.077,275.816 35.410,275.839 35.958 C 275.841 36.027,276.048 36.226,276.297 36.401 C 276.679 36.669,276.660 36.624,276.176 36.110 C 275.556 35.452,275.424 35.409,274.922 35.700 M231.548 36.542 C 231.196 36.926,230.494 38.215,230.508 38.452 C 230.512 38.524,230.706 38.217,230.939 37.769 C 231.550 36.595,231.819 36.365,232.668 36.291 L 233.417 36.225 232.654 36.196 C 232.053 36.173,231.819 36.246,231.548 36.542 M288.334 36.522 C 288.334 36.580,288.670 36.992,289.082 37.439 C 289.493 37.885,289.831 38.193,289.832 38.124 C 289.833 38.055,289.496 37.643,289.084 37.208 C 288.672 36.773,288.335 36.464,288.334 36.522 M226.173 37.031 C 225.875 37.352,225.732 37.667,225.885 37.667 C 225.914 37.667,226.104 37.442,226.307 37.167 C 226.739 36.583,226.663 36.506,226.173 37.031 M277.082 37.332 C 277.344 37.606,277.588 37.801,277.623 37.766 C 277.700 37.689,276.863 36.833,276.711 36.833 C 276.652 36.833,276.819 37.058,277.082 37.332 M243.667 37.225 C 243.667 37.353,244.409 38.422,244.726 38.750 C 244.966 38.999,244.152 37.623,243.891 37.339 C 243.768 37.205,243.667 37.154,243.667 37.225 M273.781 47.538 C 273.798 52.921,273.873 57.434,273.948 57.568 C 274.112 57.861,274.041 40.969,273.871 39.083 C 273.804 38.350,273.764 42.154,273.781 47.538 M235.083 38.667 C 235.226 38.942,235.379 39.167,235.425 39.167 C 235.471 39.167,235.392 38.942,235.250 38.667 C 235.108 38.392,234.954 38.167,234.908 38.167 C 234.862 38.167,234.941 38.392,235.083 38.667 M290.084 38.307 C 290.305 38.715,291.239 39.675,292.000 40.276 L 292.750 40.869 292.083 40.226 C 291.717 39.872,291.090 39.245,290.690 38.833 C 290.290 38.421,290.018 38.184,290.084 38.307 M302.392 40.417 C 302.392 41.242,302.420 41.600,302.455 41.213 C 302.490 40.827,302.490 40.152,302.456 39.713 C 302.422 39.275,302.393 39.592,302.392 40.417 M183.538 48.250 C 183.515 53.200,183.454 57.438,183.403 57.667 C 183.327 58.010,183.342 58.034,183.490 57.804 C 183.614 57.611,183.656 54.704,183.625 48.387 L 183.580 39.250 183.538 48.250 M229.697 39.750 C 229.593 39.979,229.534 40.167,229.568 40.167 C 229.601 40.167,229.751 39.979,229.901 39.750 C 230.051 39.521,230.110 39.333,230.031 39.333 C 229.952 39.333,229.801 39.521,229.697 39.750 M235.765 39.750 C 235.915 39.979,236.066 40.167,236.099 40.167 C 236.132 40.167,236.074 39.979,235.970 39.750 C 235.865 39.521,235.715 39.333,235.636 39.333 C 235.557 39.333,235.615 39.521,235.765 39.750 M279.167 39.458 C 279.167 39.529,279.317 39.680,279.500 39.795 C 279.683 39.909,279.833 39.945,279.833 39.875 C 279.833 39.804,279.683 39.653,279.500 39.539 C 279.317 39.424,279.167 39.388,279.167 39.458 M191.911 48.750 C 191.911 53.608,191.932 55.572,191.958 53.113 C 191.984 50.655,191.984 46.680,191.958 44.280 C 191.932 41.880,191.911 43.892,191.911 48.750 M236.172 40.438 C 236.183 40.733,236.667 41.253,236.667 40.969 C 236.667 40.825,236.554 40.614,236.417 40.500 C 236.279 40.386,236.169 40.358,236.172 40.438 M280.500 40.833 C 280.696 41.108,280.915 41.333,280.988 41.333 C 281.060 41.333,281.487 41.648,281.935 42.033 C 282.578 42.584,282.644 42.616,282.250 42.186 C 281.975 41.885,281.550 41.521,281.305 41.375 C 281.060 41.229,280.766 40.935,280.652 40.722 C 280.537 40.508,280.376 40.333,280.294 40.333 C 280.211 40.333,280.304 40.558,280.500 40.833 M245.837 40.949 C 245.843 41.158,246.467 41.922,246.558 41.831 C 246.602 41.786,246.457 41.540,246.236 41.282 C 246.014 41.025,245.835 40.875,245.837 40.949 M228.686 41.669 C 228.480 42.034,228.347 42.333,228.390 42.333 C 228.502 42.333,229.191 41.136,229.120 41.064 C 229.086 41.031,228.891 41.303,228.686 41.669 M293.120 41.504 C 293.415 41.813,293.684 42.033,293.719 41.991 C 293.753 41.950,293.512 41.697,293.182 41.429 L 292.583 40.941 293.120 41.504 M236.699 41.458 C 237.112 42.321,237.418 42.833,237.519 42.833 C 237.587 42.833,237.455 42.496,237.224 42.083 C 236.884 41.476,236.472 40.985,236.699 41.458 M223.283 42.085 C 223.130 42.405,223.040 42.667,223.082 42.667 C 223.196 42.667,223.702 41.646,223.625 41.570 C 223.589 41.534,223.435 41.766,223.283 42.085 M227.864 42.917 C 227.759 43.146,227.701 43.333,227.734 43.333 C 227.768 43.333,227.918 43.146,228.068 42.917 C 228.218 42.688,228.276 42.500,228.197 42.500 C 228.118 42.500,227.968 42.688,227.864 42.917 M283.238 43.291 C 283.506 43.587,283.762 43.793,283.807 43.748 C 283.852 43.703,283.858 43.648,283.819 43.625 C 283.781 43.602,283.525 43.396,283.250 43.167 L 282.750 42.751 283.238 43.291 M237.911 43.458 C 238.056 43.756,238.211 44.000,238.254 44.000 C 238.420 44.000,238.313 43.735,237.986 43.333 L 237.647 42.917 237.911 43.458 M298.066 43.629 C 297.873 44.592,297.056 45.064,296.644 44.450 C 296.586 44.364,296.436 44.327,296.311 44.369 C 296.170 44.417,296.298 44.558,296.648 44.739 C 297.475 45.168,298.899 43.843,298.278 43.223 C 298.218 43.163,298.123 43.345,298.066 43.629 M295.194 43.937 C 295.434 44.177,295.733 44.336,295.857 44.290 C 296.001 44.237,295.917 44.140,295.625 44.024 C 295.373 43.924,295.167 43.765,295.167 43.671 C 295.167 43.577,295.075 43.500,294.962 43.500 C 294.850 43.500,294.954 43.696,295.194 43.937 M284.414 44.664 C 284.770 45.029,285.093 45.296,285.131 45.258 C 285.216 45.173,284.058 44.000,283.888 44.000 C 283.821 44.000,284.057 44.299,284.414 44.664 M238.617 44.750 C 238.770 45.071,238.954 45.333,239.025 45.333 C 239.097 45.333,239.001 45.071,238.811 44.750 C 238.622 44.429,238.438 44.167,238.403 44.167 C 238.368 44.167,238.464 44.429,238.617 44.750 M247.676 44.250 C 247.678 44.471,248.143 45.080,248.237 44.985 C 248.277 44.945,248.167 44.725,247.992 44.498 C 247.817 44.270,247.675 44.158,247.676 44.250 M221.017 45.756 C 220.733 46.080,220.500 46.394,220.500 46.454 C 220.500 46.514,220.631 46.414,220.792 46.233 C 221.536 45.391,221.712 45.167,221.626 45.167 C 221.576 45.167,221.302 45.432,221.017 45.756 M248.333 45.219 C 248.333 45.407,249.040 46.683,249.107 46.616 C 249.196 46.526,248.546 45.167,248.413 45.167 C 248.369 45.167,248.333 45.190,248.333 45.219 M226.089 45.764 C 225.689 46.376,225.866 46.430,226.308 45.831 C 226.511 45.557,226.608 45.333,226.524 45.333 C 226.440 45.333,226.245 45.527,226.089 45.764 M239.543 46.181 C 239.694 46.613,239.204 47.402,238.624 47.663 C 238.184 47.861,237.083 47.905,232.723 47.896 C 226.870 47.885,226.513 47.835,226.159 46.980 C 226.047 46.710,225.918 46.527,225.872 46.572 C 225.642 46.802,226.373 47.820,226.877 47.970 C 227.675 48.209,237.960 48.197,238.583 47.957 C 239.445 47.625,240.098 46.515,239.666 46.116 C 239.496 45.958,239.470 45.972,239.543 46.181 M286.500 46.517 C 286.500 46.558,287.066 47.152,287.758 47.838 C 288.450 48.523,288.965 48.971,288.902 48.833 C 288.786 48.583,286.500 46.378,286.500 46.517 M249.167 46.919 C 249.167 47.092,249.921 48.163,250.044 48.165 C 250.114 48.166,249.973 47.867,249.730 47.500 C 249.315 46.872,249.167 46.720,249.167 46.919 M290.324 50.371 C 291.007 51.078,291.597 51.625,291.636 51.586 C 291.675 51.548,291.598 51.419,291.466 51.300 C 291.334 51.181,290.744 50.634,290.155 50.084 C 289.121 49.120,289.127 49.130,290.324 50.371 M251.178 50.417 C 251.178 50.628,251.817 51.405,251.913 51.309 C 251.953 51.269,251.804 51.015,251.582 50.743 C 251.360 50.472,251.178 50.325,251.178 50.417 M217.717 51.458 C 217.658 51.619,217.391 52.074,217.123 52.470 C 216.854 52.866,216.667 53.222,216.706 53.262 C 216.784 53.339,217.758 51.891,217.930 51.442 C 217.988 51.291,217.988 51.167,217.929 51.167 C 217.871 51.167,217.775 51.298,217.717 51.458 M292.493 52.542 C 293.184 53.278,293.333 53.410,293.333 53.285 C 293.333 53.258,292.977 52.902,292.542 52.493 L 291.750 51.750 292.493 52.542 M224.139 52.358 C 223.925 52.418,227.794 52.474,232.736 52.483 C 237.678 52.493,241.670 52.447,241.605 52.383 C 241.458 52.236,224.664 52.212,224.139 52.358 M252.347 52.250 C 252.347 52.342,252.491 52.679,252.667 53.000 C 252.842 53.321,252.986 53.508,252.986 53.417 C 252.986 53.325,252.842 52.987,252.667 52.667 C 252.491 52.346,252.347 52.158,252.347 52.250 M222.667 52.667 C 222.667 52.862,222.795 52.862,223.250 52.667 C 223.545 52.540,223.531 52.522,223.125 52.512 C 222.873 52.505,222.667 52.575,222.667 52.667 M242.000 52.667 C 242.137 52.756,242.362 52.828,242.500 52.828 C 242.722 52.828,242.722 52.810,242.500 52.667 C 242.362 52.578,242.137 52.505,242.000 52.505 C 241.778 52.505,241.778 52.523,242.000 52.667 M243.109 53.172 C 243.306 53.398,243.596 53.883,243.753 54.250 C 243.909 54.617,244.071 54.828,244.112 54.721 C 244.201 54.485,243.505 53.342,243.064 53.003 C 242.822 52.815,242.832 52.854,243.109 53.172 M216.175 54.151 C 215.983 54.526,215.858 54.833,215.897 54.833 C 216.022 54.833,216.683 53.627,216.602 53.546 C 216.559 53.503,216.366 53.775,216.175 54.151 M293.425 53.626 C 293.512 53.696,293.845 53.977,294.164 54.251 C 294.652 54.670,294.692 54.684,294.414 54.336 C 294.006 53.825,293.633 53.512,293.425 53.505 C 293.325 53.502,293.325 53.547,293.425 53.626 M253.000 53.751 C 253.000 53.952,253.379 54.561,253.730 54.923 C 253.924 55.124,254.173 55.430,254.282 55.603 C 254.391 55.775,254.485 55.836,254.490 55.738 C 254.496 55.640,254.237 55.253,253.917 54.879 C 253.596 54.504,253.333 54.120,253.333 54.025 C 253.333 53.930,253.258 53.807,253.167 53.750 C 253.075 53.693,253.000 53.694,253.000 53.751 M220.715 55.350 C 220.237 56.074,219.900 56.663,219.965 56.659 C 220.117 56.650,221.740 54.183,221.650 54.097 C 221.614 54.062,221.193 54.625,220.715 55.350 M294.833 54.713 C 294.833 54.897,298.879 58.833,299.068 58.833 C 299.157 58.833,299.047 58.672,298.823 58.475 C 298.600 58.278,297.610 57.323,296.625 56.353 C 295.640 55.383,294.833 54.645,294.833 54.713 M302.379 55.333 C 302.379 55.746,302.411 55.915,302.451 55.708 C 302.491 55.502,302.491 55.165,302.451 54.958 C 302.411 54.752,302.379 54.921,302.379 55.333 M215.372 55.333 C 215.258 55.517,215.221 55.667,215.292 55.667 C 215.362 55.667,215.513 55.517,215.628 55.333 C 215.742 55.150,215.779 55.000,215.708 55.000 C 215.638 55.000,215.487 55.150,215.372 55.333 M244.175 55.065 C 244.167 55.204,245.343 56.833,245.451 56.833 C 245.602 56.833,245.450 56.526,245.097 56.115 C 244.875 55.857,244.579 55.482,244.439 55.282 C 244.299 55.081,244.180 54.983,244.175 55.065 M214.123 57.376 L 213.829 57.917 214.164 57.523 C 214.450 57.188,214.603 56.831,214.458 56.834 C 214.435 56.835,214.284 57.079,214.123 57.376 M245.610 57.533 C 245.750 58.270,245.833 58.334,245.833 57.704 C 245.833 57.419,245.759 57.141,245.669 57.085 C 245.567 57.021,245.544 57.190,245.610 57.533 M255.978 58.014 C 256.471 58.473,256.920 58.802,256.977 58.745 C 257.034 58.688,256.947 58.567,256.784 58.476 C 256.621 58.385,256.230 58.053,255.916 57.738 C 255.602 57.424,255.286 57.170,255.214 57.173 C 255.142 57.177,255.486 57.555,255.978 58.014 M103.929 57.929 C 103.867 58.173,103.855 58.410,103.900 58.456 C 103.946 58.502,104.034 58.339,104.095 58.095 C 104.157 57.851,104.169 57.614,104.123 57.568 C 104.078 57.522,103.990 57.684,103.929 57.929 M269.060 58.107 C 268.899 58.461,268.735 58.817,268.696 58.898 C 268.656 58.980,268.709 58.993,268.814 58.928 C 269.036 58.791,269.540 57.652,269.429 57.540 C 269.387 57.498,269.221 57.753,269.060 58.107 M192.014 57.833 C 192.019 57.971,192.088 58.233,192.167 58.417 L 192.310 58.750 192.319 58.417 C 192.324 58.233,192.256 57.971,192.167 57.833 C 192.023 57.611,192.006 57.611,192.014 57.833 M302.371 58.747 C 302.371 59.887,302.358 59.922,301.741 60.455 C 301.316 60.823,301.202 61.000,301.389 61.000 C 302.163 61.000,302.796 59.490,302.527 58.284 C 302.377 57.615,302.370 57.635,302.371 58.747 M213.092 58.257 C 212.830 58.482,212.683 58.664,212.766 58.661 C 212.972 58.654,213.732 58.010,213.641 57.919 C 213.602 57.879,213.354 58.031,213.092 58.257 M152.333 58.230 C 152.333 58.368,152.408 58.527,152.500 58.583 C 152.592 58.640,152.667 58.574,152.667 58.436 C 152.667 58.299,152.592 58.140,152.500 58.083 C 152.408 58.027,152.333 58.093,152.333 58.230 M112.676 58.200 C 112.642 58.614,113.646 60.574,114.008 60.800 C 114.428 61.062,114.425 60.869,114.001 60.418 C 113.818 60.223,113.448 59.618,113.177 59.074 C 112.907 58.529,112.682 58.136,112.676 58.200 M143.272 58.798 C 143.109 59.138,142.801 59.760,142.588 60.179 C 142.170 60.999,142.334 61.351,143.123 61.323 C 143.334 61.315,143.301 61.266,143.006 61.148 C 142.438 60.922,142.436 60.914,142.725 60.387 C 143.084 59.733,143.681 58.292,143.620 58.231 C 143.592 58.203,143.435 58.458,143.272 58.798 M219.271 58.688 C 219.214 58.974,219.167 59.605,219.167 60.090 L 219.167 60.972 217.958 61.072 C 217.294 61.127,216.375 61.198,215.917 61.230 C 215.458 61.262,215.946 61.271,217.000 61.250 C 219.593 61.200,219.500 61.262,219.500 59.566 C 219.500 58.077,219.439 57.845,219.271 58.688 M103.454 59.285 C 103.314 59.632,103.009 60.137,102.776 60.406 C 102.331 60.921,102.502 61.322,103.167 61.323 C 103.339 61.323,103.313 61.265,103.083 61.137 C 102.588 60.860,102.587 60.859,102.937 60.543 C 103.297 60.217,103.935 58.880,103.797 58.741 C 103.748 58.693,103.594 58.937,103.454 59.285 M274.578 59.061 C 274.636 59.324,274.725 59.752,274.778 60.013 C 274.830 60.274,275.051 60.604,275.270 60.747 C 275.777 61.080,275.772 60.949,275.250 60.265 C 275.021 59.964,274.832 59.576,274.831 59.401 C 274.829 59.226,274.748 58.971,274.651 58.833 C 274.515 58.642,274.498 58.696,274.578 59.061 M152.722 59.071 C 152.784 59.233,152.884 59.561,152.945 59.802 C 153.005 60.042,153.195 60.390,153.367 60.575 C 153.676 60.906,153.672 60.913,153.132 61.109 C 152.830 61.219,152.711 61.314,152.867 61.321 C 153.023 61.328,153.340 61.247,153.570 61.142 L 153.989 60.952 153.569 60.453 C 153.338 60.178,153.106 59.737,153.053 59.473 C 153.000 59.209,152.879 58.945,152.783 58.886 C 152.675 58.819,152.652 58.888,152.722 59.071 M192.338 59.000 C 192.338 59.137,192.411 59.362,192.500 59.500 C 192.644 59.722,192.662 59.722,192.662 59.500 C 192.662 59.362,192.589 59.137,192.500 59.000 C 192.356 58.778,192.338 58.778,192.338 59.000 M245.854 59.815 C 245.824 61.375,245.655 61.322,250.653 61.328 C 252.983 61.331,254.837 61.282,254.774 61.218 C 254.710 61.155,252.783 61.090,250.490 61.074 C 248.198 61.058,246.291 61.013,246.252 60.974 C 246.214 60.936,246.113 60.420,246.028 59.827 L 245.874 58.750 245.854 59.815 M257.336 59.303 C 257.914 61.173,257.935 60.979,257.133 61.169 C 256.609 61.293,256.604 61.300,257.044 61.316 C 258.006 61.352,258.167 61.074,257.798 60.015 C 257.450 59.016,257.064 58.420,257.336 59.303 M211.874 60.030 C 211.434 61.031,211.499 61.283,211.990 60.477 C 212.267 60.024,212.467 59.154,212.292 59.171 C 212.269 59.173,212.081 59.560,211.874 60.030 M268.364 59.833 C 268.245 60.246,268.108 60.677,268.060 60.792 C 268.012 60.906,268.044 61.000,268.133 61.000 C 268.380 61.000,268.699 60.091,268.637 59.560 C 268.586 59.124,268.562 59.147,268.364 59.833 M182.409 59.750 C 182.338 59.933,182.145 60.277,181.981 60.515 L 181.683 60.946 182.242 61.212 C 182.798 61.478,192.022 61.700,192.268 61.454 C 192.319 61.403,190.215 61.352,187.591 61.341 C 184.562 61.328,182.677 61.255,182.425 61.140 L 182.028 60.959 182.355 60.378 C 182.535 60.058,182.650 59.711,182.610 59.606 C 182.571 59.502,182.480 59.567,182.409 59.750 M192.667 59.972 C 192.667 60.212,193.451 61.106,193.561 60.992 C 193.601 60.951,193.416 60.657,193.150 60.340 C 192.884 60.022,192.667 59.857,192.667 59.972 M113.417 61.167 C 113.095 61.305,113.096 61.310,113.448 61.322 C 113.649 61.328,113.860 61.258,113.917 61.167 C 114.039 60.970,113.875 60.970,113.417 61.167 M212.083 61.167 C 212.267 61.245,212.642 61.308,212.917 61.305 C 213.404 61.300,213.406 61.297,213.000 61.167 C 212.389 60.971,211.628 60.971,212.083 61.167 M268.750 61.167 C 268.933 61.245,269.271 61.308,269.500 61.305 L 269.917 61.300 269.500 61.167 C 269.271 61.093,268.933 61.031,268.750 61.028 L 268.417 61.023 268.750 61.167 M272.500 61.167 L 270.750 61.268 272.583 61.284 C 273.592 61.293,274.604 61.240,274.833 61.167 C 275.333 61.007,275.262 61.007,272.500 61.167 M103.916 61.472 C 104.040 61.596,112.684 61.538,112.809 61.413 C 112.863 61.359,110.863 61.330,108.365 61.347 C 105.867 61.364,103.865 61.420,103.916 61.472 M144.083 61.485 C 144.358 61.539,146.346 61.540,148.500 61.488 L 152.417 61.393 148.000 61.389 C 145.571 61.388,143.808 61.431,144.083 61.485 " stroke="none" fill="#7c7c7c" fill-rule="evenodd"></path><path id="path4" d="M234.333 22.278 C 233.529 22.900,232.667 23.833,232.667 24.082 C 232.667 24.546,231.894 26.103,231.422 26.591 C 231.144 26.877,230.812 27.404,230.684 27.760 C 230.556 28.117,230.169 28.823,229.825 29.329 C 229.220 30.218,228.916 30.818,228.496 31.953 C 228.387 32.248,228.162 32.532,227.997 32.584 C 227.679 32.685,227.208 33.596,226.833 34.833 C 226.704 35.262,226.401 35.752,226.128 35.977 C 225.678 36.348,224.833 37.833,224.833 38.254 C 224.833 38.359,224.523 38.772,224.143 39.171 C 223.764 39.570,223.303 40.238,223.119 40.657 C 222.936 41.075,222.642 41.601,222.467 41.825 C 222.144 42.241,221.167 44.245,221.167 44.493 C 221.167 44.568,220.943 44.806,220.670 45.023 C 220.397 45.239,220.089 45.642,219.984 45.917 C 219.491 47.214,219.109 47.902,218.601 48.410 C 218.298 48.713,218.006 49.177,217.953 49.439 C 217.901 49.702,217.667 50.179,217.433 50.500 C 216.338 52.007,216.119 52.358,215.931 52.905 C 215.820 53.228,215.522 53.724,215.268 54.009 C 215.015 54.293,214.538 54.989,214.209 55.555 C 213.879 56.120,213.547 56.608,213.471 56.639 C 213.395 56.669,213.333 56.785,213.333 56.895 C 213.333 57.106,212.163 58.147,211.574 58.461 C 211.385 58.562,211.056 58.983,210.843 59.398 C 210.630 59.813,210.308 60.310,210.128 60.503 C 209.811 60.843,209.810 60.865,210.105 61.190 C 210.879 62.046,211.548 62.167,215.509 62.167 L 219.202 62.167 219.863 61.643 L 220.524 61.120 220.411 59.910 C 220.235 58.035,220.432 57.024,221.091 56.420 C 221.630 55.927,222.667 54.172,222.667 53.754 C 222.667 53.355,224.397 53.272,232.917 53.261 C 242.909 53.248,242.306 53.147,243.174 54.972 C 243.465 55.583,243.971 56.364,244.300 56.706 L 244.897 57.329 244.884 59.261 L 244.872 61.193 245.543 61.679 L 246.214 62.165 252.035 62.158 C 258.262 62.150,258.603 62.109,259.375 61.267 C 259.728 60.882,259.736 60.760,259.432 60.456 C 259.303 60.327,258.989 59.836,258.735 59.365 C 258.453 58.842,258.074 58.411,257.761 58.256 C 257.061 57.909,256.414 57.305,256.109 56.717 C 255.970 56.447,255.740 56.130,255.598 56.012 C 255.457 55.895,255.142 55.392,254.898 54.894 C 254.655 54.396,254.297 53.860,254.103 53.703 C 253.718 53.391,253.459 52.883,252.835 51.220 C 252.726 50.929,252.490 50.558,252.311 50.396 C 252.132 50.235,251.685 49.460,251.318 48.676 C 250.950 47.892,250.478 47.063,250.268 46.833 C 250.058 46.604,249.791 46.154,249.674 45.833 C 249.250 44.673,249.014 44.238,248.590 43.839 C 248.128 43.406,247.667 42.596,247.667 42.219 C 247.667 41.840,246.838 40.325,246.576 40.224 C 246.340 40.133,246.114 39.714,245.652 38.508 C 245.531 38.191,245.256 37.741,245.042 37.508 C 244.827 37.274,244.395 36.490,244.082 35.765 C 243.768 35.040,243.334 34.253,243.116 34.015 C 242.898 33.778,242.621 33.321,242.500 33.000 C 242.379 32.679,242.217 32.345,242.140 32.258 C 242.063 32.171,242.000 31.974,242.000 31.820 C 242.000 31.666,241.702 31.233,241.338 30.858 C 240.973 30.482,240.626 29.967,240.565 29.712 C 240.423 29.110,239.587 27.569,239.072 26.956 C 238.849 26.691,238.667 26.370,238.667 26.242 C 238.667 25.749,237.834 24.199,236.969 23.083 C 235.885 21.683,235.325 21.512,234.333 22.278 M267.641 22.936 C 267.194 23.172,266.167 24.240,266.167 24.469 C 266.167 24.738,267.530 26.015,268.017 26.202 C 268.644 26.442,268.674 27.190,268.668 42.503 C 268.665 52.824,268.608 57.464,268.483 57.698 C 268.384 57.883,268.085 58.263,267.818 58.542 C 267.552 58.821,267.333 59.148,267.333 59.269 C 267.333 59.389,267.149 59.818,266.924 60.222 L 266.514 60.955 266.882 61.280 C 267.919 62.196,267.932 62.199,271.807 62.138 C 276.923 62.058,277.878 61.365,275.905 59.167 C 274.773 57.904,274.833 58.572,274.833 47.362 C 274.833 39.706,274.882 37.185,275.033 37.033 C 275.337 36.730,275.732 36.793,276.005 37.190 C 276.296 37.613,276.763 38.097,277.432 38.667 C 277.701 38.896,278.027 39.290,278.155 39.542 C 278.284 39.794,278.489 40.000,278.611 40.000 C 278.734 40.000,278.833 40.057,278.833 40.127 C 278.833 40.197,279.000 40.328,279.203 40.419 C 279.406 40.509,279.717 40.860,279.893 41.198 C 280.074 41.544,280.427 41.901,280.701 42.014 C 280.968 42.125,281.389 42.486,281.635 42.816 C 281.882 43.146,282.217 43.517,282.381 43.639 C 282.782 43.937,283.349 44.548,283.724 45.082 C 283.892 45.323,284.203 45.585,284.413 45.665 C 284.624 45.745,285.014 46.135,285.279 46.531 C 285.545 46.926,285.966 47.348,286.215 47.468 C 286.464 47.587,286.842 47.943,287.056 48.257 C 287.270 48.572,287.760 49.058,288.145 49.337 C 288.530 49.616,288.930 50.029,289.033 50.255 C 289.136 50.482,289.283 50.667,289.359 50.667 C 289.540 50.667,291.000 52.106,291.000 52.284 C 291.000 52.360,291.288 52.599,291.640 52.817 C 291.992 53.034,292.478 53.540,292.719 53.940 C 292.961 54.339,293.254 54.667,293.371 54.667 C 293.488 54.667,293.808 54.895,294.083 55.173 C 294.358 55.452,294.727 55.808,294.902 55.965 C 295.875 56.836,298.333 59.299,298.333 59.402 C 298.333 59.552,298.770 60.000,298.917 60.000 C 299.066 60.000,299.359 60.319,299.835 61.000 C 300.410 61.823,300.863 62.166,301.250 62.070 C 303.502 61.516,303.852 60.982,303.579 58.524 C 303.421 57.109,303.373 28.028,303.528 27.583 C 303.592 27.400,303.686 27.053,303.737 26.811 C 303.788 26.570,304.063 26.120,304.348 25.811 C 304.633 25.503,305.018 25.085,305.204 24.884 L 305.542 24.517 305.111 23.781 C 304.582 22.879,304.239 22.808,301.074 22.951 C 299.636 23.015,298.616 22.981,298.070 22.850 C 297.039 22.603,296.230 22.888,295.593 23.722 C 295.043 24.444,295.019 24.353,296.083 25.635 C 296.587 26.242,297.000 26.835,297.000 26.953 C 297.000 27.070,297.060 27.167,297.133 27.167 C 297.429 27.167,297.651 28.271,297.535 29.167 C 297.376 30.400,297.407 40.824,297.574 42.088 C 297.738 43.333,297.539 43.596,296.654 43.307 C 295.484 42.925,295.323 42.827,295.162 42.406 C 295.072 42.168,294.642 41.613,294.207 41.171 C 293.773 40.730,293.304 40.225,293.167 40.050 C 293.029 39.875,292.678 39.565,292.387 39.363 C 292.095 39.160,291.700 38.741,291.509 38.431 C 291.318 38.122,290.901 37.745,290.583 37.594 C 290.265 37.443,289.919 37.154,289.814 36.952 C 289.542 36.424,287.257 34.222,286.666 33.916 C 286.391 33.774,286.167 33.604,286.166 33.537 C 286.166 33.293,285.401 32.541,284.878 32.272 C 284.581 32.119,284.224 31.771,284.083 31.499 C 283.942 31.226,283.529 30.852,283.165 30.666 C 282.750 30.454,282.386 30.096,282.184 29.701 C 282.008 29.355,281.650 28.963,281.390 28.829 C 280.869 28.561,280.333 28.036,280.333 27.793 C 280.333 27.557,278.649 25.937,277.862 25.416 C 277.479 25.163,277.011 24.704,276.821 24.396 C 276.180 23.360,274.908 23.024,271.333 22.949 C 269.821 22.917,268.471 22.849,268.333 22.797 C 268.196 22.745,267.884 22.808,267.641 22.936 M236.213 23.502 C 236.682 24.025,238.667 27.746,238.667 28.104 C 238.667 28.146,238.825 28.346,239.018 28.549 C 239.211 28.751,239.621 29.444,239.930 30.089 C 240.239 30.734,240.625 31.413,240.788 31.598 C 241.174 32.038,241.459 32.487,241.678 32.997 C 242.087 33.954,242.407 34.589,242.521 34.669 C 242.678 34.780,243.667 36.655,243.667 36.842 C 243.667 36.920,243.883 37.306,244.147 37.700 C 244.412 38.094,244.943 39.011,245.329 39.736 C 245.714 40.462,246.237 41.325,246.492 41.653 C 246.746 41.981,247.083 42.587,247.239 43.000 C 247.396 43.413,247.813 44.200,248.167 44.750 C 248.520 45.300,248.906 45.975,249.023 46.250 C 249.141 46.525,249.505 47.163,249.833 47.667 C 250.160 48.171,250.612 48.958,250.837 49.417 C 251.062 49.875,251.491 50.596,251.790 51.020 C 252.089 51.443,252.333 51.834,252.333 51.887 C 252.333 52.156,253.438 54.304,253.763 54.667 C 253.968 54.896,254.285 55.354,254.469 55.685 C 254.652 56.017,254.903 56.464,255.026 56.679 C 255.283 57.128,256.213 58.072,256.953 58.634 C 257.684 59.189,258.257 60.863,257.811 61.142 C 257.339 61.437,246.517 61.399,246.125 61.101 C 245.894 60.926,245.832 60.623,245.829 59.648 C 245.824 57.931,245.582 57.057,244.847 56.086 C 244.498 55.626,244.019 54.831,243.781 54.319 C 242.910 52.440,243.309 52.506,232.650 52.503 C 222.284 52.500,222.438 52.479,221.738 53.973 C 221.465 54.557,220.199 56.492,219.977 56.667 C 219.723 56.866,219.502 58.192,219.501 59.524 C 219.500 61.315,219.714 61.208,215.947 61.297 C 211.495 61.401,211.291 61.330,211.941 59.909 C 212.405 58.896,212.786 58.424,213.533 57.934 C 213.771 57.779,214.247 57.168,214.592 56.579 C 214.937 55.989,215.343 55.373,215.494 55.211 C 215.644 55.049,215.986 54.504,216.253 54.000 C 216.520 53.496,216.935 52.783,217.175 52.417 C 217.416 52.050,217.829 51.302,218.094 50.754 C 218.359 50.207,218.781 49.524,219.033 49.238 C 219.285 48.951,219.767 48.124,220.105 47.400 C 220.442 46.676,221.007 45.754,221.359 45.352 C 221.712 44.949,222.000 44.510,222.000 44.376 C 222.000 44.241,222.228 43.793,222.507 43.380 C 222.786 42.967,223.229 42.206,223.490 41.689 C 223.752 41.173,224.205 40.451,224.496 40.085 C 224.987 39.471,225.833 37.843,225.833 37.515 C 225.833 37.437,226.047 37.158,226.308 36.895 C 226.807 36.393,227.099 35.894,227.600 34.688 C 227.856 34.071,228.206 33.530,228.963 32.583 C 229.036 32.492,229.201 32.154,229.330 31.833 C 229.459 31.512,229.818 30.877,230.129 30.421 C 230.439 29.965,230.838 29.290,231.016 28.921 C 231.405 28.114,231.656 27.709,232.034 27.277 C 232.354 26.912,232.994 25.615,233.012 25.293 C 233.040 24.813,233.663 24.045,234.499 23.458 C 235.588 22.694,235.485 22.692,236.213 23.502 M107.583 23.164 C 89.471 23.258,90.805 23.175,89.739 24.279 C 89.458 24.570,89.132 25.132,89.015 25.529 C 88.897 25.925,88.733 26.363,88.650 26.500 C 88.567 26.637,88.432 26.903,88.350 27.090 C 88.268 27.277,88.081 27.530,87.934 27.652 C 87.787 27.774,87.667 27.945,87.667 28.032 C 87.667 28.119,87.561 28.296,87.431 28.426 C 87.302 28.556,87.039 29.132,86.848 29.706 C 86.639 30.333,86.300 30.940,86.000 31.223 C 84.933 32.230,85.703 34.690,86.912 34.138 C 87.144 34.033,87.333 33.892,87.333 33.825 C 87.333 33.758,87.652 33.576,88.042 33.421 C 88.434 33.265,89.089 32.773,89.510 32.320 C 89.928 31.869,90.352 31.500,90.451 31.500 C 90.771 31.500,92.578 30.484,92.725 30.222 C 93.192 29.390,102.181 28.842,103.012 29.595 C 103.324 29.877,103.333 30.275,103.333 43.755 C 103.333 58.798,103.356 58.416,102.435 59.250 C 100.812 60.721,101.210 62.162,103.240 62.170 C 103.704 62.172,106.258 62.195,108.917 62.222 C 113.521 62.269,114.833 62.181,114.833 61.825 C 114.833 61.738,114.933 61.667,115.054 61.667 C 115.176 61.667,115.439 61.493,115.639 61.280 L 116.002 60.893 115.567 60.488 C 115.327 60.266,114.911 59.764,114.641 59.375 C 114.371 58.985,113.967 58.468,113.742 58.225 C 113.517 57.983,113.335 57.664,113.337 57.517 C 113.339 57.370,113.333 51.137,113.324 43.667 C 113.315 36.196,113.314 29.993,113.321 29.882 C 113.349 29.425,114.585 29.306,118.667 29.366 C 123.185 29.433,123.606 29.516,124.882 30.594 C 125.230 30.888,125.738 31.173,126.012 31.227 C 126.285 31.282,126.697 31.534,126.927 31.788 C 127.935 32.900,128.420 33.334,128.660 33.337 C 128.801 33.339,129.104 33.487,129.333 33.667 C 131.080 35.033,131.804 31.700,130.150 29.906 C 129.976 29.717,129.833 29.472,129.833 29.362 C 129.833 29.252,129.758 29.032,129.667 28.873 C 129.575 28.714,129.360 28.245,129.190 27.832 C 129.019 27.418,128.716 26.893,128.516 26.665 C 128.316 26.437,127.912 25.766,127.618 25.175 C 126.965 23.863,125.144 22.725,124.200 23.039 C 124.136 23.060,116.658 23.117,107.583 23.164 M141.824 23.283 C 141.329 23.527,140.456 24.530,140.628 24.658 C 140.696 24.709,140.974 25.050,141.246 25.417 C 141.517 25.783,141.995 26.361,142.307 26.701 C 143.339 27.826,143.283 26.862,143.223 42.508 C 143.161 58.764,143.225 57.610,142.335 58.621 C 141.967 59.039,141.667 59.478,141.667 59.599 C 141.667 59.719,141.571 59.877,141.454 59.950 C 140.712 60.416,140.677 61.667,141.406 61.667 C 141.471 61.667,141.636 61.779,141.774 61.917 C 141.987 62.130,142.921 62.167,148.102 62.167 L 154.180 62.167 154.849 61.542 C 155.504 60.931,155.512 60.909,155.216 60.583 C 154.521 59.821,153.680 58.710,153.351 58.120 C 153.002 57.493,153.000 57.426,153.000 42.826 C 153.000 26.605,152.959 27.238,154.087 26.095 C 155.717 24.444,155.764 24.076,154.434 23.379 C 153.765 23.029,142.515 22.944,141.824 23.283 M171.209 23.191 C 170.956 23.250,170.558 23.342,170.322 23.395 C 169.738 23.526,169.320 23.933,168.758 24.917 C 168.496 25.375,168.083 26.012,167.839 26.333 C 167.596 26.654,167.293 27.254,167.165 27.667 C 166.906 28.506,166.240 29.667,166.017 29.667 C 165.937 29.667,165.702 30.086,165.494 30.598 C 164.479 33.100,165.677 35.088,167.250 33.512 C 167.617 33.145,167.997 32.842,168.094 32.839 C 168.192 32.836,168.667 32.458,169.150 32.000 C 169.633 31.542,170.136 31.167,170.267 31.167 C 170.579 31.167,171.122 30.857,171.789 30.299 C 172.721 29.520,173.406 29.417,177.667 29.417 C 180.996 29.417,181.677 29.459,182.208 29.700 L 182.833 29.983 182.833 43.606 C 182.833 56.822,182.824 57.239,182.512 57.573 C 182.336 57.762,181.991 58.318,181.745 58.808 C 181.500 59.298,181.034 59.949,180.711 60.255 C 180.010 60.915,180.057 61.145,181.017 61.781 L 181.717 62.244 187.597 62.226 C 194.000 62.206,194.003 62.206,194.860 61.192 C 195.146 60.854,194.362 59.667,193.853 59.667 C 193.750 59.667,193.667 59.554,193.667 59.417 C 193.667 59.279,193.610 59.167,193.541 59.167 C 192.797 59.167,192.493 30.330,193.230 29.643 C 193.627 29.274,199.726 29.185,201.885 29.518 C 202.965 29.685,204.345 30.384,204.833 31.013 C 204.879 31.072,205.166 31.248,205.470 31.404 C 205.775 31.560,206.504 32.160,207.090 32.739 C 208.143 33.776,208.601 34.000,209.667 34.000 C 210.554 34.000,210.968 32.239,210.283 31.377 C 209.747 30.701,209.500 30.215,209.500 29.833 C 209.500 29.428,209.218 28.909,208.707 28.376 C 208.244 27.892,207.804 27.031,207.420 25.857 C 207.022 24.641,205.742 23.386,204.767 23.254 C 203.789 23.121,171.760 23.062,171.209 23.191 M274.966 23.913 C 275.337 23.999,275.744 24.314,276.216 24.882 C 276.602 25.346,277.174 25.955,277.488 26.237 C 277.803 26.519,278.665 27.350,279.405 28.084 C 280.145 28.817,280.956 29.566,281.208 29.748 C 281.460 29.930,281.668 30.155,281.670 30.248 C 281.672 30.341,281.942 30.642,282.270 30.917 C 282.598 31.192,283.328 31.849,283.891 32.377 C 284.455 32.905,285.231 33.617,285.616 33.960 C 287.141 35.318,294.114 42.285,294.497 42.833 C 295.179 43.807,295.859 44.333,296.436 44.333 C 296.563 44.333,296.667 44.400,296.667 44.481 C 296.667 45.259,297.884 44.511,298.077 43.613 C 298.221 42.950,298.221 28.048,298.078 27.396 C 297.919 26.669,297.621 25.951,297.338 25.611 C 297.198 25.443,296.952 25.150,296.792 24.960 C 296.402 24.499,296.419 24.414,296.984 24.011 C 297.622 23.557,302.589 23.487,303.457 23.920 C 304.256 24.319,304.425 24.606,304.013 24.864 C 303.822 24.983,303.667 25.175,303.667 25.290 C 303.667 25.406,303.605 25.500,303.530 25.500 C 303.454 25.500,303.168 26.006,302.894 26.625 L 302.395 27.750 302.442 43.083 C 302.468 51.517,302.502 58.719,302.517 59.089 C 302.557 60.022,302.126 60.788,301.456 60.976 C 300.870 61.141,300.902 61.164,299.779 59.780 C 299.155 59.011,299.479 59.335,296.345 56.333 C 294.958 55.004,292.794 52.880,291.537 51.612 C 290.279 50.345,288.352 48.432,287.254 47.362 C 286.156 46.292,284.391 44.554,283.332 43.500 C 282.272 42.446,281.183 41.390,280.911 41.155 C 280.639 40.919,280.267 40.559,280.083 40.355 C 279.900 40.150,279.412 39.643,279.000 39.228 C 278.587 38.812,277.674 37.878,276.971 37.153 C 276.214 36.372,275.556 35.833,275.359 35.833 C 274.787 35.833,273.621 37.166,273.757 37.664 C 273.820 37.895,273.921 42.508,273.982 47.917 C 274.091 57.654,274.096 57.757,274.463 58.450 C 274.667 58.835,274.833 59.278,274.833 59.435 C 274.833 59.591,275.021 59.964,275.250 60.265 C 275.782 60.963,275.795 60.928,274.926 61.147 C 272.995 61.633,267.849 61.282,268.093 60.680 C 268.151 60.535,268.303 60.073,268.431 59.654 C 268.558 59.234,268.851 58.536,269.081 58.103 L 269.500 57.316 269.500 42.704 C 269.500 26.003,269.556 26.761,268.226 25.386 L 267.369 24.500 267.872 24.076 L 268.375 23.653 271.396 23.720 C 273.057 23.756,274.664 23.844,274.966 23.913 M125.577 24.254 C 126.576 24.743,126.449 24.557,128.617 28.705 C 128.747 28.955,128.917 29.199,128.994 29.246 C 129.070 29.294,129.227 29.726,129.342 30.208 C 129.457 30.689,129.690 31.181,129.859 31.301 C 130.270 31.592,130.283 32.389,129.875 32.272 C 129.715 32.226,129.246 32.093,128.833 31.977 C 128.421 31.861,127.969 31.639,127.829 31.484 C 127.689 31.329,127.206 30.996,126.756 30.744 C 126.305 30.493,125.800 30.160,125.632 30.004 C 125.276 29.672,124.936 29.502,123.603 28.988 C 122.420 28.532,114.559 28.395,113.551 28.812 C 112.430 29.277,112.477 28.572,112.533 44.000 L 112.583 57.917 113.126 58.991 C 113.425 59.581,113.832 60.238,114.032 60.450 C 114.833 61.304,113.788 61.502,108.333 61.533 C 103.001 61.563,101.959 61.352,102.773 60.407 C 103.006 60.137,103.308 59.654,103.446 59.333 C 104.176 57.634,104.163 57.916,104.165 43.517 L 104.167 29.784 103.584 29.218 L 103.001 28.652 98.376 28.701 C 93.728 28.750,92.333 28.944,92.333 29.539 C 92.333 29.609,92.260 29.667,92.170 29.667 C 92.080 29.667,91.596 29.929,91.095 30.250 C 90.593 30.571,90.112 30.833,90.026 30.833 C 89.940 30.833,89.488 31.176,89.023 31.595 C 88.227 32.310,87.105 32.438,87.296 31.792 C 87.317 31.723,87.333 31.300,87.333 30.852 C 87.333 30.192,87.442 29.884,87.907 29.227 C 88.223 28.781,88.813 27.741,89.219 26.916 C 90.178 24.965,90.924 24.192,92.083 23.947 C 92.267 23.908,99.688 23.869,108.575 23.859 L 124.734 23.842 125.577 24.254 M153.626 24.216 L 154.168 24.509 153.687 24.980 C 153.172 25.483,152.845 26.107,152.428 27.381 C 152.027 28.603,152.033 57.061,152.434 57.975 C 152.874 58.979,152.974 59.232,153.084 59.626 C 153.142 59.833,153.370 60.215,153.589 60.477 L 153.989 60.952 153.536 61.172 C 152.924 61.470,144.967 61.659,143.667 61.406 C 142.128 61.107,142.118 61.096,142.589 60.194 C 142.812 59.766,143.221 58.918,143.498 58.310 L 144.000 57.202 144.000 42.686 L 144.000 28.170 143.469 26.960 C 142.950 25.777,142.409 24.850,142.123 24.651 C 141.919 24.509,142.691 24.040,143.265 23.958 C 144.872 23.729,153.103 23.934,153.626 24.216 M204.981 24.099 C 205.649 24.495,207.632 27.711,207.659 28.444 C 207.663 28.551,207.733 28.664,207.813 28.694 C 208.629 29.004,209.180 31.463,208.570 32.073 C 208.330 32.313,208.246 32.285,207.623 31.752 C 207.247 31.430,206.834 31.167,206.704 31.167 C 206.422 31.167,205.548 30.585,205.083 30.089 C 204.042 28.975,202.500 28.673,197.627 28.630 C 193.326 28.592,193.208 28.610,192.388 29.430 L 192.000 29.818 192.000 43.651 C 192.000 51.405,192.066 57.653,192.149 57.867 C 192.231 58.078,192.393 58.587,192.509 59.000 C 192.625 59.413,192.930 60.023,193.187 60.357 C 193.698 61.022,193.751 60.936,192.583 61.345 C 190.923 61.928,181.297 61.407,181.819 60.763 C 182.129 60.381,182.667 59.311,182.667 59.078 C 182.667 58.944,182.723 58.833,182.792 58.832 C 183.352 58.826,183.389 58.097,183.533 44.167 C 183.612 36.604,183.638 30.262,183.592 30.072 C 183.302 28.874,182.508 28.676,177.914 28.659 C 173.369 28.642,172.062 28.895,170.583 30.073 C 170.133 30.432,168.052 31.665,167.884 31.672 C 167.810 31.675,167.450 31.820,167.083 31.995 L 166.417 32.311 166.364 31.821 C 166.334 31.537,166.422 31.221,166.573 31.070 C 166.716 30.927,166.833 30.666,166.833 30.491 C 166.833 30.192,167.966 27.681,168.183 27.500 C 168.238 27.454,168.473 27.073,168.706 26.654 C 169.373 25.448,169.566 25.130,169.833 24.794 C 170.090 24.473,170.823 24.081,171.417 23.948 C 172.494 23.708,204.564 23.852,204.981 24.099 M232.668 36.291 C 231.760 36.370,231.520 36.607,230.756 38.177 C 230.436 38.836,230.104 39.459,230.018 39.562 C 229.932 39.665,229.586 40.271,229.248 40.908 C 228.910 41.545,228.355 42.483,228.015 42.992 C 227.674 43.500,227.274 44.179,227.125 44.500 C 226.976 44.821,226.633 45.379,226.362 45.741 C 225.776 46.525,225.984 47.315,226.874 47.684 C 227.648 48.004,237.907 47.986,238.624 47.663 C 239.558 47.242,239.824 46.248,239.187 45.556 C 239.031 45.388,238.613 44.725,238.258 44.083 C 237.903 43.442,237.559 42.879,237.495 42.833 C 237.430 42.788,237.036 42.094,236.617 41.292 C 236.199 40.491,235.710 39.628,235.531 39.376 C 235.351 39.123,234.971 38.436,234.686 37.848 C 234.177 36.796,233.711 36.138,233.516 36.196 C 233.461 36.212,233.080 36.254,232.668 36.291 M234.098 38.292 C 234.762 39.830,234.883 40.054,235.371 40.631 C 235.625 40.932,235.833 41.291,235.833 41.429 C 235.833 41.815,236.414 42.866,237.044 43.620 C 237.357 43.994,237.708 44.551,237.825 44.858 C 237.942 45.165,238.141 45.642,238.266 45.917 C 238.481 46.388,238.468 46.438,238.039 46.791 C 237.304 47.394,228.455 47.375,227.562 46.768 C 227.239 46.548,227.044 46.326,227.130 46.273 C 227.215 46.220,227.414 45.765,227.572 45.262 C 227.731 44.758,228.129 44.040,228.456 43.666 C 229.072 42.963,229.833 41.612,229.833 41.221 C 229.833 41.098,230.011 40.843,230.229 40.654 C 230.446 40.465,230.904 39.682,231.246 38.914 C 231.921 37.399,231.766 37.512,233.384 37.361 C 233.602 37.341,233.799 37.598,234.098 38.292 " stroke="none" fill="#8e8d8e" fill-rule="evenodd"></path></g></svg>