<svg id="Capa_1" enable-background="new 0 0 512 512" height="512" viewBox="0 0 512 512" width="512" xmlns="http://www.w3.org/2000/svg"><g><path d="m180 136c0-33.091-26.909-60-60-60s-60 26.909-60 60v301c0 33.091 26.909 60 60 60s60-26.909 60-60z"/><path d="m271 212h150v30h-150z"/><path d="m497 121h-288.516c.831 4.903 1.516 9.864 1.516 15v301c0 31.309-16.108 58.872-40.432 75h327.432c8.291 0 15-6.709 15-15v-361c0-8.291-6.709-15-15-15zm-211 331c-8.284 0-15-6.716-15-15 0-8.286 6.716-15 15-15s15 6.714 15 15c0 8.284-6.716 15-15 15zm0-60c-8.284 0-15-6.716-15-15 0-8.286 6.716-15 15-15s15 6.714 15 15c0 8.284-6.716 15-15 15zm0-60c-8.284 0-15-6.716-15-15 0-8.286 6.716-15 15-15s15 6.714 15 15c0 8.284-6.716 15-15 15zm60 120c-8.284 0-15-6.716-15-15 0-8.286 6.716-15 15-15s15 6.714 15 15c0 8.284-6.716 15-15 15zm0-60c-8.284 0-15-6.716-15-15 0-8.286 6.716-15 15-15s15 6.714 15 15c0 8.284-6.716 15-15 15zm0-60c-8.284 0-15-6.716-15-15 0-8.286 6.716-15 15-15s15 6.714 15 15c0 8.284-6.716 15-15 15zm60 120c-8.284 0-15-6.716-15-15 0-8.286 6.716-15 15-15s15 6.714 15 15c0 8.284-6.716 15-15 15zm0-60c-8.284 0-15-6.716-15-15 0-8.286 6.716-15 15-15s15 6.714 15 15c0 8.284-6.716 15-15 15zm0-60c-8.284 0-15-6.716-15-15 0-8.286 6.716-15 15-15s15 6.714 15 15c0 8.284-6.716 15-15 15zm45-75c0 8.291-6.709 15-15 15h-180c-8.291 0-15-6.709-15-15v-60c0-8.291 6.709-15 15-15h180c8.291 0 15 6.709 15 15z"/><path d="m436 0h-180c-8.291 0-15 6.709-15 15v75h210v-75c0-8.291-6.709-15-15-15zm-60 60h-60c-8.291 0-15-6.709-15-15s6.709-15 15-15h60c8.291 0 15 6.709 15 15s-6.709 15-15 15z"/><path d="m30 437v-301c0-5.136.685-10.097 1.516-15h-16.516c-8.291 0-15 6.709-15 15v361c0 8.291 6.709 15 15 15h55.432c-24.324-16.128-40.432-43.691-40.432-75z"/></g></svg>