<svg id="svg" version="1.1" xmlns="http://www.w3.org/2000/svg" xmlns:xlink="http://www.w3.org/1999/xlink" width="400" height="474.4554455445545" viewBox="0, 0, 400,474.4554455445545"><g id="svgg"><path id="path0" d="M289.300 0.295 C 288.145 0.376,287.200 0.612,287.200 0.821 C 287.200 1.029,286.401 1.200,285.424 1.200 C 284.447 1.200,283.536 1.380,283.400 1.600 C 283.264 1.820,282.544 2.000,281.800 2.000 C 281.056 2.000,280.336 2.180,280.200 2.400 C 280.064 2.620,279.423 2.800,278.776 2.800 C 278.129 2.800,277.600 2.980,277.600 3.200 C 277.600 3.420,277.060 3.600,276.400 3.600 C 275.740 3.600,275.200 3.780,275.200 4.000 C 275.200 4.220,274.838 4.400,274.395 4.400 C 273.617 4.400,273.231 4.542,271.305 5.538 C 270.813 5.792,270.048 6.000,269.605 6.000 C 269.162 6.000,268.800 6.180,268.800 6.400 C 268.800 6.620,268.440 6.800,268.000 6.800 C 267.560 6.800,267.200 6.980,267.200 7.200 C 267.200 7.420,266.865 7.600,266.456 7.600 C 265.654 7.600,260.687 10.005,260.467 10.500 C 260.393 10.665,259.988 10.800,259.567 10.800 C 259.145 10.800,258.800 10.980,258.800 11.200 C 258.800 11.420,258.440 11.600,258.000 11.600 C 257.560 11.600,257.200 11.780,257.200 12.000 C 257.200 12.220,256.840 12.400,256.400 12.400 C 255.960 12.400,255.600 12.580,255.600 12.800 C 255.600 13.020,255.322 13.200,254.983 13.200 C 254.644 13.200,253.980 13.560,253.508 14.000 C 253.036 14.440,252.413 14.800,252.125 14.800 C 251.836 14.800,251.600 14.980,251.600 15.200 C 251.600 15.420,251.280 15.600,250.888 15.600 C 250.497 15.600,249.917 15.960,249.600 16.400 C 249.283 16.840,248.703 17.200,248.312 17.200 C 247.920 17.200,247.600 17.380,247.600 17.600 C 247.600 17.820,247.375 18.000,247.100 18.001 C 246.825 18.001,245.970 18.541,245.200 19.200 C 244.430 19.859,243.620 20.401,243.400 20.405 C 243.180 20.409,242.391 20.950,241.646 21.606 C 240.901 22.263,240.173 22.800,240.029 22.800 C 239.885 22.800,239.139 23.385,238.373 24.100 C 237.606 24.815,236.263 25.938,235.389 26.595 C 233.489 28.023,228.314 33.237,226.848 35.200 C 226.273 35.970,225.348 37.050,224.792 37.600 C 224.236 38.150,223.083 39.590,222.229 40.800 C 221.375 42.010,220.524 43.060,220.338 43.133 C 220.152 43.207,220.000 43.572,220.000 43.945 C 220.000 44.318,219.640 44.883,219.200 45.200 C 218.760 45.517,218.400 45.973,218.400 46.213 C 218.400 46.453,218.085 46.998,217.700 47.425 C 217.315 47.851,216.745 48.695,216.432 49.300 C 216.120 49.905,215.715 50.400,215.532 50.400 C 215.350 50.400,215.200 50.720,215.200 51.112 C 215.200 51.503,214.840 52.083,214.400 52.400 C 213.960 52.717,213.600 53.297,213.600 53.688 C 213.600 54.080,213.420 54.400,213.200 54.400 C 212.980 54.400,212.800 54.760,212.800 55.200 C 212.800 55.640,212.620 56.000,212.400 56.000 C 212.180 56.000,212.000 56.320,212.000 56.712 C 212.000 57.103,211.640 57.683,211.200 58.000 C 210.760 58.317,210.400 58.897,210.400 59.288 C 210.400 59.680,210.220 60.000,210.000 60.000 C 209.780 60.000,209.600 60.360,209.600 60.800 C 209.600 61.240,209.420 61.600,209.200 61.600 C 208.980 61.600,208.800 62.050,208.800 62.600 C 208.800 63.150,208.620 63.600,208.400 63.600 C 208.180 63.600,208.000 63.960,208.000 64.400 C 208.000 64.840,207.820 65.200,207.600 65.200 C 207.380 65.200,207.200 65.560,207.200 66.000 C 207.200 66.440,207.020 66.800,206.800 66.800 C 206.580 66.800,206.400 67.239,206.400 67.776 C 206.400 68.313,206.220 68.864,206.000 69.000 C 205.780 69.136,205.600 69.597,205.600 70.024 C 205.600 70.451,205.420 70.800,205.200 70.800 C 204.980 70.800,204.800 71.340,204.800 72.000 C 204.800 72.660,204.620 73.200,204.400 73.200 C 204.180 73.200,204.000 73.740,204.000 74.400 C 204.000 75.060,203.820 75.600,203.600 75.600 C 203.380 75.600,203.200 76.129,203.200 76.776 C 203.200 77.423,203.020 78.064,202.800 78.200 C 202.580 78.336,202.400 79.067,202.400 79.824 C 202.400 80.581,202.220 81.200,202.000 81.200 C 201.780 81.200,201.600 81.920,201.600 82.800 C 201.600 83.680,201.420 84.400,201.200 84.400 C 200.980 84.400,200.800 85.289,200.800 86.376 C 200.800 87.463,200.620 88.464,200.400 88.600 C 200.180 88.736,200.000 90.187,200.000 91.824 C 200.000 93.541,199.831 94.800,199.600 94.800 C 199.346 94.800,199.200 97.800,199.200 103.000 C 199.200 108.200,199.346 111.200,199.600 111.200 C 199.820 111.200,200.000 111.560,200.000 112.000 C 200.000 112.774,200.267 112.800,208.200 112.800 C 213.400 112.800,216.400 112.654,216.400 112.400 C 216.400 112.180,217.289 112.000,218.376 112.000 C 219.463 112.000,220.464 111.820,220.600 111.600 C 220.736 111.380,221.546 111.200,222.400 111.200 C 223.254 111.200,224.064 111.020,224.200 110.800 C 224.336 110.580,224.977 110.400,225.624 110.400 C 226.271 110.400,226.800 110.220,226.800 110.000 C 226.800 109.780,227.340 109.600,228.000 109.600 C 228.660 109.600,229.200 109.420,229.200 109.200 C 229.200 108.980,229.740 108.800,230.400 108.800 C 231.060 108.800,231.600 108.620,231.600 108.400 C 231.600 108.180,232.140 108.000,232.800 108.000 C 233.460 108.000,234.000 107.820,234.000 107.600 C 234.000 107.380,234.360 107.200,234.800 107.200 C 235.240 107.200,235.600 107.020,235.600 106.800 C 235.600 106.580,235.960 106.400,236.400 106.400 C 236.840 106.400,237.200 106.220,237.200 106.000 C 237.200 105.780,237.549 105.600,237.976 105.600 C 238.403 105.600,238.864 105.420,239.000 105.200 C 239.136 104.980,239.597 104.800,240.024 104.800 C 240.451 104.800,240.800 104.620,240.800 104.400 C 240.800 104.180,241.070 104.000,241.400 104.000 C 241.730 104.000,242.000 103.820,242.000 103.600 C 242.000 103.380,242.360 103.200,242.800 103.200 C 243.240 103.200,243.600 103.020,243.600 102.800 C 243.600 102.580,243.960 102.400,244.400 102.400 C 244.840 102.400,245.200 102.220,245.200 102.000 C 245.200 101.780,245.470 101.600,245.800 101.600 C 246.130 101.600,246.400 101.420,246.400 101.200 C 246.400 100.980,246.670 100.800,247.000 100.800 C 247.330 100.800,247.600 100.620,247.600 100.400 C 247.600 100.180,247.878 100.000,248.217 100.000 C 248.556 100.000,249.051 99.818,249.317 99.595 C 249.583 99.372,250.803 98.517,252.029 97.695 C 254.900 95.769,257.312 93.828,259.480 91.700 C 260.432 90.765,261.377 90.000,261.580 90.000 C 262.094 90.000,272.000 80.130,272.000 79.618 C 272.000 79.388,272.180 79.200,272.400 79.200 C 272.620 79.200,272.800 79.008,272.800 78.774 C 272.800 78.540,273.700 77.471,274.800 76.400 C 275.900 75.329,276.800 74.260,276.800 74.026 C 276.800 73.792,277.520 72.859,278.400 71.952 C 279.280 71.045,280.000 70.095,280.000 69.840 C 280.000 69.585,280.360 69.117,280.800 68.800 C 281.240 68.483,281.600 67.969,281.600 67.659 C 281.600 67.348,281.916 66.803,282.303 66.447 C 282.689 66.091,283.260 65.305,283.570 64.700 C 283.881 64.095,284.285 63.600,284.468 63.600 C 284.650 63.600,284.800 63.280,284.800 62.888 C 284.800 62.497,285.160 61.917,285.600 61.600 C 286.040 61.283,286.400 60.703,286.400 60.312 C 286.400 59.920,286.580 59.600,286.800 59.600 C 287.020 59.600,287.200 59.364,287.200 59.075 C 287.200 58.787,287.560 58.164,288.000 57.692 C 288.440 57.220,288.800 56.571,288.800 56.250 C 288.800 55.929,288.937 55.607,289.104 55.533 C 289.586 55.322,292.807 48.675,292.803 47.900 C 292.801 47.515,292.980 47.200,293.200 47.200 C 293.420 47.200,293.600 46.851,293.600 46.424 C 293.600 45.997,293.780 45.536,294.000 45.400 C 294.220 45.264,294.400 44.728,294.400 44.210 C 294.400 43.691,294.535 43.207,294.701 43.133 C 295.112 42.951,296.800 37.897,296.800 36.847 C 296.800 36.381,296.960 36.000,297.156 36.000 C 297.506 36.000,297.820 34.663,298.259 31.300 C 298.381 30.365,298.642 29.600,298.840 29.600 C 299.038 29.600,299.200 28.736,299.200 27.680 C 299.200 26.624,299.410 25.550,299.666 25.294 C 299.992 24.968,300.189 21.103,300.320 12.414 L 300.509 0.000 295.954 0.074 C 293.449 0.115,290.455 0.214,289.300 0.295 M288.600 111.600 C 288.456 111.833,286.204 112.000,283.200 112.000 C 280.196 112.000,277.944 112.167,277.800 112.400 C 277.664 112.620,276.494 112.800,275.200 112.800 C 273.906 112.800,272.736 112.980,272.600 113.200 C 272.464 113.420,271.564 113.600,270.600 113.600 C 269.636 113.600,268.736 113.780,268.600 114.000 C 268.464 114.220,267.654 114.400,266.800 114.400 C 265.946 114.400,265.136 114.580,265.000 114.800 C 264.864 115.020,264.144 115.200,263.400 115.200 C 262.656 115.200,261.936 115.380,261.800 115.600 C 261.664 115.820,260.933 116.000,260.176 116.000 C 259.419 116.000,258.800 116.180,258.800 116.400 C 258.800 116.620,258.080 116.800,257.200 116.800 C 256.320 116.800,255.600 116.980,255.600 117.200 C 255.600 117.420,255.060 117.600,254.400 117.600 C 253.740 117.600,253.200 117.780,253.200 118.000 C 253.200 118.220,252.660 118.400,252.000 118.400 C 251.340 118.400,250.800 118.580,250.800 118.800 C 250.800 119.020,250.260 119.200,249.600 119.200 C 248.940 119.200,248.400 119.380,248.400 119.600 C 248.400 119.820,247.860 120.000,247.200 120.000 C 246.540 120.000,246.000 120.180,246.000 120.400 C 246.000 120.620,245.460 120.800,244.800 120.800 C 244.140 120.800,243.600 120.980,243.600 121.200 C 243.600 121.420,243.060 121.600,242.400 121.600 C 241.740 121.600,241.200 121.780,241.200 122.000 C 241.200 122.220,240.660 122.400,240.000 122.400 C 239.340 122.400,238.800 122.580,238.800 122.800 C 238.800 123.020,238.438 123.200,237.995 123.200 C 237.552 123.200,236.832 123.380,236.395 123.600 C 235.958 123.820,235.242 124.180,234.805 124.400 C 234.368 124.620,233.648 124.800,233.205 124.800 C 232.762 124.800,232.400 124.980,232.400 125.200 C 232.400 125.420,231.860 125.600,231.200 125.600 C 230.540 125.600,230.000 125.780,230.000 126.000 C 230.000 126.220,229.460 126.400,228.800 126.400 C 228.140 126.400,227.600 126.580,227.600 126.800 C 227.600 127.020,227.161 127.200,226.624 127.200 C 226.087 127.200,225.536 127.380,225.400 127.600 C 225.264 127.820,224.713 128.000,224.176 128.000 C 223.639 128.000,223.200 128.180,223.200 128.400 C 223.200 128.620,222.660 128.800,222.000 128.800 C 221.340 128.800,220.800 128.980,220.800 129.200 C 220.800 129.420,220.260 129.600,219.600 129.600 C 218.940 129.600,218.400 129.780,218.400 130.000 C 218.400 130.220,217.860 130.400,217.200 130.400 C 216.540 130.400,216.000 130.580,216.000 130.800 C 216.000 131.020,215.460 131.200,214.800 131.200 C 214.140 131.200,213.600 131.380,213.600 131.600 C 213.600 131.820,212.880 132.000,212.000 132.000 C 211.120 132.000,210.400 132.180,210.400 132.400 C 210.400 132.620,209.860 132.800,209.200 132.800 C 208.540 132.800,208.000 132.980,208.000 133.200 C 208.000 133.444,206.133 133.600,203.200 133.600 C 200.267 133.600,198.400 133.444,198.400 133.200 C 198.400 132.980,197.680 132.800,196.800 132.800 C 195.920 132.800,195.200 132.620,195.200 132.400 C 195.200 132.180,194.480 132.000,193.600 132.000 C 192.720 132.000,192.000 131.820,192.000 131.600 C 192.000 131.380,191.460 131.200,190.800 131.200 C 190.140 131.200,189.600 131.020,189.600 130.800 C 189.600 130.580,189.060 130.400,188.400 130.400 C 187.740 130.400,187.200 130.220,187.200 130.000 C 187.200 129.780,186.660 129.600,186.000 129.600 C 185.340 129.600,184.800 129.420,184.800 129.200 C 184.800 128.980,184.271 128.800,183.624 128.800 C 182.977 128.800,182.336 128.620,182.200 128.400 C 182.064 128.180,181.513 128.000,180.976 128.000 C 180.439 128.000,180.000 127.820,180.000 127.600 C 180.000 127.380,179.460 127.200,178.800 127.200 C 178.140 127.200,177.600 127.020,177.600 126.800 C 177.600 126.580,177.150 126.400,176.600 126.400 C 176.050 126.400,175.600 126.220,175.600 126.000 C 175.600 125.780,175.060 125.600,174.400 125.600 C 173.740 125.600,173.200 125.420,173.200 125.200 C 173.200 124.980,172.838 124.800,172.395 124.800 C 171.952 124.800,171.187 124.592,170.695 124.338 C 168.769 123.342,168.383 123.200,167.605 123.200 C 167.162 123.200,166.800 123.020,166.800 122.800 C 166.800 122.580,166.260 122.400,165.600 122.400 C 164.940 122.400,164.400 122.220,164.400 122.000 C 164.400 121.780,163.860 121.600,163.200 121.600 C 162.540 121.600,162.000 121.420,162.000 121.200 C 162.000 120.980,161.561 120.800,161.024 120.800 C 160.487 120.800,159.936 120.620,159.800 120.400 C 159.664 120.180,159.023 120.000,158.376 120.000 C 157.729 120.000,157.200 119.820,157.200 119.600 C 157.200 119.380,156.660 119.200,156.000 119.200 C 155.340 119.200,154.800 119.020,154.800 118.800 C 154.800 118.580,154.260 118.400,153.600 118.400 C 152.940 118.400,152.400 118.220,152.400 118.000 C 152.400 117.780,151.871 117.600,151.224 117.600 C 150.577 117.600,149.936 117.420,149.800 117.200 C 149.664 116.980,148.933 116.800,148.176 116.800 C 147.419 116.800,146.800 116.620,146.800 116.400 C 146.800 116.180,146.080 116.000,145.200 116.000 C 144.320 116.000,143.600 115.820,143.600 115.600 C 143.600 115.380,142.801 115.200,141.824 115.200 C 140.847 115.200,139.936 115.020,139.800 114.800 C 139.664 114.580,138.764 114.400,137.800 114.400 C 136.836 114.400,135.936 114.220,135.800 114.000 C 135.664 113.780,134.404 113.600,133.000 113.600 C 131.596 113.600,130.336 113.420,130.200 113.200 C 129.866 112.659,113.334 112.659,113.000 113.200 C 112.864 113.420,111.334 113.600,109.600 113.600 C 107.866 113.600,106.336 113.780,106.200 114.000 C 106.064 114.220,104.984 114.400,103.800 114.400 C 102.616 114.400,101.536 114.580,101.400 114.800 C 101.264 115.020,100.443 115.200,99.576 115.200 C 98.709 115.200,98.000 115.380,98.000 115.600 C 98.000 115.820,97.201 116.000,96.224 116.000 C 95.247 116.000,94.336 116.180,94.200 116.400 C 94.064 116.620,93.423 116.800,92.776 116.800 C 92.129 116.800,91.600 116.980,91.600 117.200 C 91.600 117.420,90.981 117.600,90.224 117.600 C 89.467 117.600,88.736 117.780,88.600 118.000 C 88.464 118.220,87.823 118.400,87.176 118.400 C 86.529 118.400,86.000 118.580,86.000 118.800 C 86.000 119.020,85.460 119.200,84.800 119.200 C 84.140 119.200,83.600 119.380,83.600 119.600 C 83.600 119.820,83.240 120.000,82.800 120.000 C 82.360 120.000,82.000 120.180,82.000 120.400 C 82.000 120.620,81.460 120.800,80.800 120.800 C 80.140 120.800,79.600 120.980,79.600 121.200 C 79.600 121.420,79.240 121.600,78.800 121.600 C 78.360 121.600,78.000 121.780,78.000 122.000 C 78.000 122.220,77.561 122.400,77.024 122.400 C 76.487 122.400,75.936 122.580,75.800 122.800 C 75.664 123.020,75.203 123.200,74.776 123.200 C 74.349 123.200,74.000 123.380,74.000 123.600 C 74.000 123.820,73.640 124.000,73.200 124.000 C 72.760 124.000,72.400 124.180,72.400 124.400 C 72.400 124.620,72.040 124.800,71.600 124.800 C 71.160 124.800,70.800 124.980,70.800 125.200 C 70.800 125.420,70.440 125.600,70.000 125.600 C 69.560 125.600,69.200 125.780,69.200 126.000 C 69.200 126.220,68.840 126.400,68.400 126.400 C 67.960 126.400,67.600 126.559,67.600 126.753 C 67.600 126.948,67.285 127.207,66.900 127.329 C 66.213 127.546,63.994 128.805,63.600 129.201 C 63.490 129.311,62.860 129.670,62.200 129.998 C 61.540 130.326,60.709 130.911,60.353 131.297 C 59.997 131.684,59.452 132.000,59.141 132.000 C 58.831 132.000,58.317 132.360,58.000 132.800 C 57.683 133.240,57.143 133.600,56.800 133.600 C 56.457 133.600,55.917 133.960,55.600 134.400 C 55.283 134.840,54.820 135.200,54.571 135.200 C 54.322 135.200,53.554 135.740,52.863 136.400 C 52.172 137.060,51.417 137.600,51.185 137.600 C 50.953 137.600,50.330 138.005,49.801 138.500 C 49.272 138.995,48.605 139.582,48.319 139.804 C 48.034 140.025,46.992 140.835,46.005 141.604 C 43.645 143.440,34.071 153.011,32.804 154.800 C 32.259 155.570,31.225 156.791,30.507 157.513 C 29.788 158.236,29.200 158.982,29.200 159.171 C 29.200 159.360,28.660 160.093,28.000 160.800 C 27.340 161.507,26.800 162.218,26.800 162.380 C 26.800 162.543,26.350 163.199,25.800 163.838 C 25.251 164.477,24.801 165.143,24.800 165.317 C 24.800 165.491,24.440 166.020,24.000 166.492 C 23.560 166.964,23.200 167.587,23.200 167.875 C 23.200 168.164,23.053 168.400,22.874 168.400 C 22.694 168.400,22.031 169.480,21.400 170.800 C 20.769 172.120,20.106 173.200,19.926 173.200 C 19.747 173.200,19.600 173.560,19.600 174.000 C 19.600 174.440,19.420 174.800,19.200 174.800 C 18.980 174.800,18.800 175.120,18.800 175.512 C 18.800 175.903,18.440 176.483,18.000 176.800 C 17.560 177.117,17.200 177.697,17.200 178.088 C 17.200 178.480,17.020 178.800,16.800 178.800 C 16.580 178.800,16.400 179.145,16.400 179.567 C 16.400 179.988,16.264 180.393,16.098 180.467 C 15.932 180.540,15.193 181.860,14.456 183.400 C 13.719 184.940,12.955 186.513,12.758 186.895 C 12.561 187.277,12.400 187.862,12.400 188.195 C 12.400 188.528,12.220 188.800,12.000 188.800 C 11.780 188.800,11.600 189.160,11.600 189.600 C 11.600 190.040,11.420 190.400,11.200 190.400 C 10.980 190.400,10.800 190.940,10.800 191.600 C 10.800 192.260,10.620 192.800,10.400 192.800 C 10.180 192.800,10.000 193.160,10.000 193.600 C 10.000 194.040,9.820 194.400,9.600 194.400 C 9.380 194.400,9.200 194.940,9.200 195.600 C 9.200 196.260,9.020 196.800,8.800 196.800 C 8.580 196.800,8.400 197.340,8.400 198.000 C 8.400 198.660,8.220 199.200,8.000 199.200 C 7.780 199.200,7.600 199.740,7.600 200.400 C 7.600 201.060,7.420 201.600,7.200 201.600 C 6.980 201.600,6.800 202.140,6.800 202.800 C 6.800 203.460,6.620 204.000,6.400 204.000 C 6.180 204.000,6.000 204.540,6.000 205.200 C 6.000 205.860,5.820 206.400,5.600 206.400 C 5.380 206.400,5.200 207.120,5.200 208.000 C 5.200 208.880,5.020 209.600,4.800 209.600 C 4.580 209.600,4.400 210.320,4.400 211.200 C 4.400 212.080,4.220 212.800,4.000 212.800 C 3.780 212.800,3.600 213.520,3.600 214.400 C 3.600 215.280,3.420 216.000,3.200 216.000 C 2.980 216.000,2.800 216.889,2.800 217.976 C 2.800 219.063,2.620 220.064,2.400 220.200 C 2.180 220.336,2.000 221.326,2.000 222.400 C 2.000 223.474,1.820 224.464,1.600 224.600 C 1.380 224.736,1.200 225.971,1.200 227.344 C 1.200 228.807,0.993 230.047,0.700 230.340 C -0.029 231.070,-0.029 282.131,0.700 282.860 C 1.015 283.175,1.200 284.517,1.200 286.480 C 1.200 288.293,1.368 289.600,1.600 289.600 C 1.822 289.600,2.000 290.659,2.000 291.976 C 2.000 293.283,2.180 294.464,2.400 294.600 C 2.620 294.736,2.800 295.917,2.800 297.224 C 2.800 298.541,2.978 299.600,3.200 299.600 C 3.420 299.600,3.600 300.500,3.600 301.600 C 3.600 302.700,3.780 303.600,4.000 303.600 C 4.220 303.600,4.400 304.500,4.400 305.600 C 4.400 306.700,4.580 307.600,4.800 307.600 C 5.020 307.600,5.200 308.309,5.200 309.176 C 5.200 310.043,5.380 310.864,5.600 311.000 C 5.820 311.136,6.000 311.946,6.000 312.800 C 6.000 313.654,6.180 314.464,6.400 314.600 C 6.620 314.736,6.800 315.557,6.800 316.424 C 6.800 317.291,6.980 318.000,7.200 318.000 C 7.420 318.000,7.600 318.720,7.600 319.600 C 7.600 320.480,7.780 321.200,8.000 321.200 C 8.220 321.200,8.400 321.740,8.400 322.400 C 8.400 323.060,8.580 323.600,8.800 323.600 C 9.020 323.600,9.200 324.320,9.200 325.200 C 9.200 326.080,9.380 326.800,9.600 326.800 C 9.820 326.800,10.000 327.329,10.000 327.976 C 10.000 328.623,10.180 329.264,10.400 329.400 C 10.620 329.536,10.800 330.166,10.800 330.800 C 10.800 331.434,10.980 332.064,11.200 332.200 C 11.420 332.336,11.600 332.876,11.600 333.400 C 11.600 333.924,11.780 334.464,12.000 334.600 C 12.220 334.736,12.400 335.287,12.400 335.824 C 12.400 336.361,12.580 336.800,12.800 336.800 C 13.020 336.800,13.200 337.340,13.200 338.000 C 13.200 338.660,13.380 339.200,13.600 339.200 C 13.820 339.200,14.000 339.740,14.000 340.400 C 14.000 341.060,14.180 341.600,14.400 341.600 C 14.620 341.600,14.800 342.140,14.800 342.800 C 14.800 343.460,14.980 344.000,15.200 344.000 C 15.420 344.000,15.600 344.540,15.600 345.200 C 15.600 345.860,15.780 346.400,16.000 346.400 C 16.220 346.400,16.400 346.940,16.400 347.600 C 16.400 348.260,16.580 348.800,16.800 348.800 C 17.020 348.800,17.200 349.160,17.200 349.600 C 17.200 350.040,17.380 350.400,17.600 350.400 C 17.820 350.400,18.000 350.940,18.000 351.600 C 18.000 352.260,18.180 352.800,18.400 352.800 C 18.620 352.800,18.800 353.340,18.800 354.000 C 18.800 354.660,18.980 355.200,19.200 355.200 C 19.420 355.200,19.600 355.472,19.600 355.805 C 19.600 356.138,19.762 356.723,19.959 357.105 C 20.157 357.487,20.812 359.150,21.415 360.800 C 22.018 362.450,23.044 364.970,23.695 366.400 C 24.346 367.830,25.019 369.360,25.190 369.800 C 25.913 371.654,28.220 376.210,28.498 376.333 C 28.664 376.407,28.800 376.812,28.800 377.233 C 28.800 377.655,28.980 378.000,29.200 378.000 C 29.420 378.000,29.600 378.360,29.600 378.800 C 29.600 379.240,29.780 379.600,30.000 379.600 C 30.220 379.600,30.400 379.960,30.400 380.400 C 30.400 380.840,30.580 381.200,30.800 381.200 C 31.020 381.200,31.200 381.560,31.200 382.000 C 31.200 382.440,31.380 382.800,31.600 382.800 C 31.820 382.800,32.000 383.160,32.000 383.600 C 32.000 384.040,32.180 384.400,32.400 384.400 C 32.620 384.400,32.800 384.760,32.800 385.200 C 32.800 385.640,32.980 386.000,33.200 386.000 C 33.420 386.000,33.600 386.360,33.600 386.800 C 33.600 387.240,33.780 387.600,34.000 387.600 C 34.220 387.600,34.400 387.960,34.400 388.400 C 34.400 388.840,34.580 389.200,34.800 389.200 C 35.020 389.200,35.200 389.478,35.200 389.817 C 35.200 390.156,35.560 390.820,36.000 391.292 C 36.440 391.764,36.800 392.387,36.800 392.675 C 36.800 392.964,36.980 393.200,37.200 393.200 C 37.420 393.200,37.600 393.560,37.600 394.000 C 37.600 394.440,37.780 394.800,38.000 394.800 C 38.220 394.800,38.400 395.036,38.400 395.325 C 38.400 395.613,38.760 396.236,39.200 396.708 C 39.640 397.180,40.000 397.844,40.000 398.183 C 40.000 398.522,40.180 398.800,40.400 398.800 C 40.620 398.800,40.800 399.120,40.800 399.512 C 40.800 399.903,41.160 400.483,41.600 400.800 C 42.040 401.117,42.400 401.614,42.400 401.905 C 42.400 402.196,42.760 402.820,43.200 403.292 C 43.640 403.764,44.000 404.387,44.000 404.675 C 44.000 404.964,44.180 405.200,44.400 405.200 C 44.620 405.200,44.800 405.436,44.800 405.725 C 44.800 406.013,45.115 406.598,45.500 407.025 C 45.885 407.451,46.455 408.295,46.768 408.900 C 47.080 409.505,47.485 410.000,47.668 410.000 C 47.850 410.000,48.000 410.270,48.000 410.600 C 48.000 410.930,48.180 411.200,48.400 411.200 C 48.620 411.200,48.800 411.470,48.800 411.800 C 48.800 412.130,48.980 412.400,49.200 412.400 C 49.420 412.400,49.600 412.590,49.600 412.822 C 49.600 413.054,50.139 413.819,50.798 414.522 C 51.457 415.225,51.997 415.985,51.998 416.212 C 51.999 416.438,52.360 416.883,52.800 417.200 C 53.240 417.517,53.600 418.025,53.600 418.328 C 53.600 418.631,54.140 419.383,54.800 420.000 C 55.460 420.617,56.000 421.320,56.000 421.564 C 56.000 421.808,56.540 422.572,57.200 423.263 C 57.860 423.954,58.400 424.696,58.400 424.912 C 58.400 425.129,58.733 425.597,59.141 425.953 C 59.548 426.309,60.168 427.140,60.517 427.800 C 60.867 428.460,61.614 429.523,62.177 430.162 C 62.739 430.801,63.200 431.433,63.200 431.566 C 63.200 431.699,63.610 432.256,64.111 432.804 C 64.613 433.352,65.461 434.430,65.996 435.200 C 66.531 435.970,67.471 437.077,68.085 437.660 C 68.698 438.244,69.200 438.884,69.200 439.082 C 69.200 439.281,70.280 440.565,71.600 441.935 C 72.920 443.305,74.000 444.518,74.000 444.630 C 74.000 445.362,86.025 457.200,86.768 457.200 C 86.961 457.200,88.038 458.100,89.161 459.200 C 90.285 460.300,91.401 461.200,91.642 461.200 C 91.882 461.200,92.583 461.740,93.200 462.400 C 93.817 463.060,94.543 463.600,94.814 463.600 C 95.084 463.600,95.597 463.916,95.953 464.303 C 96.309 464.689,97.095 465.260,97.700 465.570 C 98.305 465.881,98.800 466.285,98.800 466.468 C 98.800 466.650,99.120 466.800,99.512 466.800 C 99.903 466.800,100.483 467.160,100.800 467.600 C 101.117 468.040,101.682 468.400,102.055 468.400 C 102.428 468.400,102.793 468.535,102.867 468.700 C 103.088 469.199,106.422 470.800,107.238 470.800 C 107.657 470.800,108.000 470.980,108.000 471.200 C 108.000 471.420,108.360 471.600,108.800 471.600 C 109.240 471.600,109.600 471.780,109.600 472.000 C 109.600 472.220,110.140 472.400,110.800 472.400 C 111.460 472.400,112.000 472.580,112.000 472.800 C 112.000 473.020,112.525 473.200,113.167 473.200 C 113.808 473.200,114.408 473.425,114.500 473.700 C 114.629 474.087,117.672 474.200,127.913 474.200 C 137.978 474.200,141.280 474.080,141.660 473.700 C 141.935 473.425,142.844 473.200,143.680 473.200 C 144.516 473.200,145.200 473.020,145.200 472.800 C 145.200 472.580,145.819 472.400,146.576 472.400 C 147.333 472.400,148.064 472.220,148.200 472.000 C 148.336 471.780,148.977 471.600,149.624 471.600 C 150.271 471.600,150.800 471.420,150.800 471.200 C 150.800 470.980,151.340 470.800,152.000 470.800 C 152.660 470.800,153.200 470.620,153.200 470.400 C 153.200 470.180,153.740 470.000,154.400 470.000 C 155.060 470.000,155.600 469.820,155.600 469.600 C 155.600 469.380,156.140 469.200,156.800 469.200 C 157.460 469.200,158.000 469.020,158.000 468.800 C 158.000 468.580,158.540 468.400,159.200 468.400 C 159.860 468.400,160.400 468.220,160.400 468.000 C 160.400 467.780,160.839 467.600,161.376 467.600 C 161.913 467.600,162.464 467.420,162.600 467.200 C 162.736 466.980,163.197 466.800,163.624 466.800 C 164.051 466.800,164.400 466.620,164.400 466.400 C 164.400 466.180,164.940 466.000,165.600 466.000 C 166.260 466.000,166.800 465.820,166.800 465.600 C 166.800 465.380,167.160 465.200,167.600 465.200 C 168.040 465.200,168.400 465.020,168.400 464.800 C 168.400 464.580,168.940 464.400,169.600 464.400 C 170.260 464.400,170.800 464.220,170.800 464.000 C 170.800 463.780,171.250 463.600,171.800 463.600 C 172.350 463.600,172.800 463.420,172.800 463.200 C 172.800 462.980,173.340 462.800,174.000 462.800 C 174.660 462.800,175.200 462.620,175.200 462.400 C 175.200 462.180,175.740 462.000,176.400 462.000 C 177.060 462.000,177.600 461.820,177.600 461.600 C 177.600 461.380,178.140 461.200,178.800 461.200 C 179.460 461.200,180.000 461.020,180.000 460.800 C 180.000 460.580,180.540 460.400,181.200 460.400 C 181.860 460.400,182.400 460.220,182.400 460.000 C 182.400 459.780,183.120 459.600,184.000 459.600 C 184.880 459.600,185.600 459.420,185.600 459.200 C 185.600 458.980,186.320 458.800,187.200 458.800 C 188.080 458.800,188.800 458.620,188.800 458.400 C 188.800 458.180,189.700 458.000,190.800 458.000 C 191.900 458.000,192.800 457.820,192.800 457.600 C 192.800 457.371,194.000 457.200,195.600 457.200 C 197.200 457.200,198.400 457.029,198.400 456.800 C 198.400 456.556,200.267 456.400,203.200 456.400 C 206.133 456.400,208.000 456.244,208.000 456.000 C 208.000 455.780,208.900 455.600,210.000 455.600 C 211.100 455.600,212.000 455.780,212.000 456.000 C 212.000 456.243,213.800 456.400,216.600 456.400 C 219.400 456.400,221.200 456.557,221.200 456.800 C 221.200 457.022,222.267 457.200,223.600 457.200 C 224.933 457.200,226.000 457.378,226.000 457.600 C 226.000 457.820,226.900 458.000,228.000 458.000 C 229.100 458.000,230.000 458.180,230.000 458.400 C 230.000 458.620,230.720 458.800,231.600 458.800 C 232.480 458.800,233.200 458.980,233.200 459.200 C 233.200 459.420,233.729 459.600,234.376 459.600 C 235.023 459.600,235.664 459.780,235.800 460.000 C 235.936 460.220,236.667 460.400,237.424 460.400 C 238.181 460.400,238.800 460.580,238.800 460.800 C 238.800 461.020,239.340 461.200,240.000 461.200 C 240.660 461.200,241.200 461.380,241.200 461.600 C 241.200 461.820,241.740 462.000,242.400 462.000 C 243.060 462.000,243.600 462.180,243.600 462.400 C 243.600 462.620,244.140 462.800,244.800 462.800 C 245.460 462.800,246.000 462.980,246.000 463.200 C 246.000 463.420,246.360 463.600,246.800 463.600 C 247.240 463.600,247.600 463.780,247.600 464.000 C 247.600 464.220,248.140 464.400,248.800 464.400 C 249.460 464.400,250.000 464.580,250.000 464.800 C 250.000 465.020,250.439 465.200,250.976 465.200 C 251.513 465.200,252.064 465.380,252.200 465.600 C 252.336 465.820,252.797 466.000,253.224 466.000 C 253.651 466.000,254.000 466.180,254.000 466.400 C 254.000 466.620,254.540 466.800,255.200 466.800 C 255.860 466.800,256.400 466.980,256.400 467.200 C 256.400 467.420,256.760 467.600,257.200 467.600 C 257.640 467.600,258.000 467.780,258.000 468.000 C 258.000 468.220,258.540 468.400,259.200 468.400 C 259.860 468.400,260.400 468.580,260.400 468.800 C 260.400 469.020,260.940 469.200,261.600 469.200 C 262.260 469.200,262.800 469.380,262.800 469.600 C 262.800 469.820,263.340 470.000,264.000 470.000 C 264.660 470.000,265.200 470.180,265.200 470.400 C 265.200 470.620,265.830 470.800,266.600 470.800 C 267.370 470.800,268.000 470.980,268.000 471.200 C 268.000 471.420,268.720 471.600,269.600 471.600 C 270.480 471.600,271.200 471.780,271.200 472.000 C 271.200 472.220,271.920 472.400,272.800 472.400 C 273.680 472.400,274.400 472.580,274.400 472.800 C 274.400 473.020,275.285 473.200,276.367 473.200 C 277.551 473.200,278.398 473.393,278.495 473.684 C 278.732 474.397,300.862 474.412,301.100 473.700 C 301.195 473.413,301.936 473.200,302.833 473.200 C 303.695 473.200,304.400 473.020,304.400 472.800 C 304.400 472.580,305.120 472.400,306.000 472.400 C 306.880 472.400,307.600 472.220,307.600 472.000 C 307.600 471.780,308.140 471.600,308.800 471.600 C 309.460 471.600,310.000 471.420,310.000 471.200 C 310.000 470.980,310.360 470.800,310.800 470.800 C 311.240 470.800,311.600 470.620,311.600 470.400 C 311.600 470.180,312.140 470.000,312.800 470.000 C 313.460 470.000,314.000 469.820,314.000 469.600 C 314.000 469.380,314.360 469.200,314.800 469.200 C 315.240 469.200,315.600 469.020,315.600 468.800 C 315.600 468.580,315.960 468.400,316.400 468.400 C 316.840 468.400,317.200 468.220,317.200 468.000 C 317.200 467.780,317.478 467.600,317.817 467.600 C 318.156 467.600,318.820 467.240,319.292 466.800 C 319.764 466.360,320.387 466.000,320.675 466.000 C 320.964 466.000,321.200 465.820,321.200 465.600 C 321.200 465.380,321.520 465.200,321.912 465.200 C 322.303 465.200,322.883 464.840,323.200 464.400 C 323.517 463.960,324.057 463.600,324.400 463.600 C 324.743 463.600,325.283 463.240,325.600 462.800 C 325.917 462.360,326.407 462.000,326.688 462.000 C 326.970 462.000,327.200 461.820,327.200 461.600 C 327.200 461.380,327.398 461.200,327.640 461.200 C 327.881 461.200,328.556 460.698,329.140 460.085 C 329.723 459.471,330.830 458.540,331.600 458.016 C 333.348 456.826,345.600 444.528,345.600 443.963 C 345.600 443.735,346.500 442.671,347.600 441.600 C 348.700 440.529,349.600 439.446,349.600 439.195 C 349.600 438.943,350.320 438.046,351.200 437.200 C 352.080 436.354,352.800 435.469,352.800 435.232 C 352.800 434.995,353.520 434.059,354.400 433.152 C 355.280 432.245,356.000 431.344,356.000 431.148 C 356.000 430.953,356.540 430.228,357.200 429.537 C 357.860 428.846,358.400 428.126,358.400 427.937 C 358.400 427.748,358.940 427.028,359.600 426.337 C 360.260 425.646,360.800 424.878,360.800 424.629 C 360.800 424.380,361.160 423.917,361.600 423.600 C 362.040 423.283,362.400 422.775,362.400 422.472 C 362.400 422.169,362.940 421.417,363.600 420.800 C 364.260 420.183,364.800 419.431,364.800 419.128 C 364.800 418.825,365.160 418.317,365.600 418.000 C 366.040 417.683,366.400 417.143,366.400 416.800 C 366.400 416.457,366.760 415.917,367.200 415.600 C 367.640 415.283,368.000 414.808,368.000 414.545 C 368.000 414.282,368.149 414.007,368.330 413.933 C 368.691 413.788,372.800 407.783,372.800 407.401 C 372.800 407.272,373.160 406.780,373.600 406.308 C 374.040 405.836,374.400 405.213,374.400 404.925 C 374.400 404.636,374.559 404.400,374.753 404.400 C 374.948 404.400,375.207 404.085,375.329 403.700 C 375.573 402.931,376.857 400.717,377.244 400.400 C 377.378 400.290,378.179 398.850,379.024 397.200 C 379.869 395.550,380.704 394.140,380.880 394.067 C 381.056 393.993,381.200 393.588,381.200 393.167 C 381.200 392.745,381.380 392.400,381.600 392.400 C 381.820 392.400,382.000 392.040,382.000 391.600 C 382.000 391.160,382.180 390.800,382.400 390.800 C 382.620 390.800,382.800 390.440,382.800 390.000 C 382.800 389.560,382.980 389.200,383.200 389.200 C 383.420 389.200,383.600 388.840,383.600 388.400 C 383.600 387.960,383.780 387.600,384.000 387.600 C 384.220 387.600,384.400 387.240,384.400 386.800 C 384.400 386.360,384.580 386.000,384.800 386.000 C 385.020 386.000,385.200 385.640,385.200 385.200 C 385.200 384.760,385.380 384.400,385.600 384.400 C 385.820 384.400,386.000 384.040,386.000 383.600 C 386.000 383.160,386.180 382.800,386.400 382.800 C 386.620 382.800,386.800 382.440,386.800 382.000 C 386.800 381.560,386.980 381.200,387.200 381.200 C 387.420 381.200,387.600 380.840,387.600 380.400 C 387.600 379.960,387.780 379.600,388.000 379.600 C 388.220 379.600,388.400 379.240,388.400 378.800 C 388.400 378.360,388.580 378.000,388.800 378.000 C 389.020 378.000,389.200 377.640,389.200 377.200 C 389.200 376.760,389.380 376.400,389.600 376.400 C 389.820 376.400,390.000 376.040,390.000 375.600 C 390.000 375.160,390.180 374.800,390.400 374.800 C 390.620 374.800,390.800 374.350,390.800 373.800 C 390.800 373.250,390.980 372.800,391.200 372.800 C 391.420 372.800,391.600 372.440,391.600 372.000 C 391.600 371.560,391.780 371.200,392.000 371.200 C 392.220 371.200,392.400 370.851,392.400 370.424 C 392.400 369.997,392.580 369.536,392.800 369.400 C 393.020 369.264,393.200 368.713,393.200 368.176 C 393.200 367.639,393.380 367.200,393.600 367.200 C 393.820 367.200,394.000 366.851,394.000 366.424 C 394.000 365.997,394.180 365.536,394.400 365.400 C 394.620 365.264,394.800 364.713,394.800 364.176 C 394.800 363.639,394.980 363.200,395.200 363.200 C 395.420 363.200,395.600 362.840,395.600 362.400 C 395.600 361.960,395.780 361.600,396.000 361.600 C 396.220 361.600,396.400 361.060,396.400 360.400 C 396.400 359.740,396.580 359.200,396.800 359.200 C 397.020 359.200,397.200 358.838,397.200 358.395 C 397.200 357.952,397.380 357.232,397.600 356.795 C 397.820 356.358,398.180 355.642,398.400 355.205 C 398.620 354.768,398.800 354.063,398.800 353.639 C 398.800 353.214,398.979 352.807,399.197 352.733 C 399.963 352.476,400.214 346.400,399.459 346.400 C 399.096 346.400,398.800 346.220,398.800 346.000 C 398.800 345.780,398.536 345.600,398.213 345.600 C 397.890 345.600,396.135 344.857,394.313 343.948 C 392.491 343.039,390.596 342.094,390.103 341.848 C 389.610 341.602,389.205 341.265,389.203 341.100 C 389.201 340.935,388.840 340.800,388.400 340.800 C 387.960 340.800,387.600 340.655,387.600 340.479 C 387.600 340.302,386.703 339.717,385.606 339.179 C 384.510 338.640,383.610 338.092,383.606 337.961 C 383.603 337.829,382.880 337.397,382.000 337.000 C 381.120 336.603,380.400 336.126,380.400 335.939 C 380.400 335.753,380.196 335.600,379.947 335.600 C 379.698 335.600,379.203 335.276,378.847 334.881 C 378.491 334.486,377.570 333.728,376.800 333.196 C 376.030 332.665,374.923 331.729,374.340 331.115 C 373.756 330.502,373.081 330.000,372.840 330.000 C 372.598 330.000,372.400 329.820,372.400 329.600 C 372.400 329.380,372.214 329.200,371.986 329.200 C 371.448 329.200,358.400 316.089,358.400 315.549 C 358.400 315.322,357.680 314.446,356.800 313.600 C 355.920 312.754,355.200 311.851,355.200 311.592 C 355.200 311.333,354.660 310.617,354.000 310.000 C 353.340 309.383,352.800 308.631,352.800 308.328 C 352.800 308.025,352.440 307.517,352.000 307.200 C 351.560 306.883,351.200 306.386,351.200 306.095 C 351.200 305.804,350.840 305.180,350.400 304.708 C 349.960 304.236,349.600 303.613,349.600 303.325 C 349.600 303.036,349.420 302.800,349.200 302.800 C 348.980 302.800,348.800 302.564,348.800 302.275 C 348.800 301.987,348.440 301.364,348.000 300.892 C 347.560 300.420,347.200 299.756,347.200 299.417 C 347.200 299.078,347.054 298.800,346.875 298.800 C 346.696 298.800,346.302 298.170,346.000 297.400 C 345.698 296.630,345.304 296.000,345.125 296.000 C 344.946 296.000,344.800 295.640,344.800 295.200 C 344.800 294.760,344.620 294.400,344.400 294.400 C 344.180 294.400,344.000 294.040,344.000 293.600 C 344.000 293.160,343.820 292.800,343.600 292.800 C 343.380 292.800,343.200 292.260,343.200 291.600 C 343.200 290.940,343.020 290.400,342.800 290.400 C 342.580 290.400,342.400 290.040,342.400 289.600 C 342.400 289.160,342.220 288.800,342.000 288.800 C 341.780 288.800,341.600 288.260,341.600 287.600 C 341.600 286.940,341.420 286.400,341.200 286.400 C 340.980 286.400,340.800 285.860,340.800 285.200 C 340.800 284.540,340.637 284.000,340.438 284.000 C 340.238 284.000,339.948 283.055,339.793 281.900 C 339.637 280.745,339.373 279.620,339.205 279.400 C 339.038 279.180,338.799 278.460,338.675 277.800 C 338.551 277.140,338.243 275.790,337.992 274.800 C 337.741 273.810,337.449 272.280,337.345 271.400 C 337.240 270.520,336.993 269.440,336.795 269.000 C 336.403 268.128,336.188 266.205,335.564 258.000 C 334.705 246.709,335.611 234.362,338.000 224.800 C 338.247 223.810,338.551 222.460,338.675 221.800 C 338.799 221.140,339.046 220.416,339.225 220.190 C 339.403 219.965,339.673 218.840,339.826 217.690 C 339.978 216.541,340.260 215.600,340.452 215.600 C 340.643 215.600,340.800 215.150,340.800 214.600 C 340.800 214.050,340.980 213.600,341.200 213.600 C 341.420 213.600,341.600 213.060,341.600 212.400 C 341.600 211.740,341.780 211.200,342.000 211.200 C 342.220 211.200,342.400 210.840,342.400 210.400 C 342.400 209.960,342.580 209.600,342.800 209.600 C 343.020 209.600,343.200 209.240,343.200 208.800 C 343.200 208.360,343.380 208.000,343.600 208.000 C 343.820 208.000,344.000 207.747,344.000 207.438 C 344.000 206.772,345.668 203.459,346.100 203.267 C 346.265 203.193,346.400 202.788,346.400 202.367 C 346.400 201.945,346.580 201.600,346.800 201.600 C 347.020 201.600,347.200 201.240,347.200 200.800 C 347.200 200.360,347.380 200.000,347.600 200.000 C 347.820 200.000,348.000 199.680,348.000 199.288 C 348.000 198.897,348.360 198.317,348.800 198.000 C 349.240 197.683,349.600 197.143,349.600 196.800 C 349.600 196.457,349.960 195.917,350.400 195.600 C 350.840 195.283,351.200 194.743,351.200 194.400 C 351.200 194.057,351.560 193.517,352.000 193.200 C 352.440 192.883,352.800 192.375,352.800 192.072 C 352.800 191.769,353.340 191.017,354.000 190.400 C 354.660 189.783,355.200 189.070,355.200 188.814 C 355.200 188.558,356.100 187.471,357.200 186.400 C 358.300 185.329,359.200 184.274,359.200 184.057 C 359.200 183.619,363.848 178.922,366.259 176.923 C 368.157 175.349,369.435 174.260,371.016 172.870 C 371.685 172.281,373.035 171.177,374.016 170.415 C 374.997 169.653,375.860 168.888,375.933 168.715 C 376.007 168.542,376.322 168.400,376.633 168.400 C 376.945 168.400,377.200 168.259,377.200 168.086 C 377.200 167.914,377.745 167.451,378.411 167.057 C 379.077 166.664,380.059 165.905,380.593 165.371 C 381.127 164.837,381.842 164.400,382.182 164.400 C 382.522 164.400,382.800 164.242,382.800 164.049 C 382.800 163.855,383.340 163.473,384.000 163.200 C 384.660 162.927,385.200 162.545,385.200 162.351 C 385.200 162.158,385.483 162.000,385.829 162.000 C 387.865 162.000,388.232 158.912,386.400 157.200 C 385.740 156.583,385.200 155.867,385.200 155.608 C 385.200 155.349,384.480 154.446,383.600 153.600 C 382.720 152.754,382.000 151.869,382.000 151.631 C 382.000 151.394,381.820 151.200,381.600 151.200 C 381.380 151.200,381.199 150.975,381.197 150.700 C 381.193 150.088,370.336 139.200,369.729 139.200 C 369.491 139.200,368.555 138.480,367.648 137.600 C 366.741 136.720,365.819 136.000,365.600 136.000 C 365.380 136.000,365.200 135.820,365.200 135.600 C 365.200 135.380,364.970 135.200,364.688 135.200 C 364.407 135.200,363.917 134.840,363.600 134.400 C 363.283 133.960,362.743 133.600,362.400 133.600 C 362.057 133.600,361.517 133.240,361.200 132.800 C 360.883 132.360,360.343 132.000,360.000 132.000 C 359.657 132.000,359.117 131.640,358.800 131.200 C 358.483 130.760,357.943 130.400,357.600 130.400 C 357.257 130.400,356.717 130.040,356.400 129.600 C 356.083 129.160,355.503 128.800,355.112 128.800 C 354.720 128.800,354.400 128.620,354.400 128.400 C 354.400 128.180,354.040 128.000,353.600 128.000 C 353.160 128.000,352.800 127.820,352.800 127.600 C 352.800 127.380,352.440 127.200,352.000 127.200 C 351.560 127.200,351.200 127.048,351.200 126.863 C 351.200 126.677,350.345 126.118,349.300 125.619 C 348.255 125.120,347.087 124.552,346.705 124.356 C 346.323 124.160,345.738 124.000,345.405 124.000 C 345.072 124.000,344.800 123.820,344.800 123.600 C 344.800 123.380,344.440 123.200,344.000 123.200 C 343.560 123.200,343.200 123.020,343.200 122.800 C 343.200 122.580,342.840 122.400,342.400 122.400 C 341.960 122.400,341.600 122.220,341.600 122.000 C 341.600 121.780,341.161 121.600,340.624 121.600 C 340.087 121.600,339.536 121.420,339.400 121.200 C 339.264 120.980,338.803 120.800,338.376 120.800 C 337.949 120.800,337.600 120.620,337.600 120.400 C 337.600 120.180,337.161 120.000,336.624 120.000 C 336.087 120.000,335.536 119.820,335.400 119.600 C 335.264 119.380,334.713 119.200,334.176 119.200 C 333.639 119.200,333.200 119.020,333.200 118.800 C 333.200 118.580,332.660 118.400,332.000 118.400 C 331.340 118.400,330.800 118.220,330.800 118.000 C 330.800 117.780,330.271 117.600,329.624 117.600 C 328.977 117.600,328.336 117.420,328.200 117.200 C 328.064 116.980,327.333 116.800,326.576 116.800 C 325.819 116.800,325.200 116.620,325.200 116.400 C 325.200 116.180,324.480 116.000,323.600 116.000 C 322.720 116.000,322.000 115.820,322.000 115.600 C 322.000 115.380,321.291 115.200,320.424 115.200 C 319.557 115.200,318.736 115.020,318.600 114.800 C 318.464 114.580,317.589 114.400,316.656 114.400 C 315.723 114.400,314.789 114.236,314.580 114.035 C 314.199 113.669,311.894 113.361,306.500 112.955 C 304.905 112.835,303.600 112.571,303.600 112.368 C 303.600 112.164,301.390 112.000,298.624 112.000 C 295.737 112.000,293.543 111.832,293.400 111.600 C 293.264 111.380,292.184 111.200,291.000 111.200 C 289.816 111.200,288.736 111.380,288.600 111.600 " stroke="none" fill="#040404" fill-rule="evenodd"></path><path id="path1" d="" stroke="none" fill="#080404" fill-rule="evenodd"></path><path id="path2" d="" stroke="none" fill="#080404" fill-rule="evenodd"></path><path id="path3" d="" stroke="none" fill="#080404" fill-rule="evenodd"></path><path id="path4" d="" stroke="none" fill="#080404" fill-rule="evenodd"></path></g></svg>