<svg id="svg" version="1.1" xmlns="http://www.w3.org/2000/svg" xmlns:xlink="http://www.w3.org/1999/xlink" width="400" height="80" viewBox="0, 0, 400,80"><g id="svgg"><path id="path0" d="M38.167 5.181 C 31.562 5.518,28.142 6.042,23.167 7.478 C 17.218 9.196,11.023 15.893,10.023 21.688 C 9.938 22.180,9.712 23.483,9.520 24.583 C 8.962 27.786,8.817 30.274,8.718 38.333 C 8.534 53.374,9.323 60.497,11.617 64.500 C 11.854 64.912,12.224 65.572,12.440 65.966 C 14.787 70.249,20.505 74.044,26.186 75.090 C 33.959 76.522,38.750 76.833,53.000 76.832 C 79.510 76.830,86.573 74.609,91.587 64.697 C 93.015 61.875,94.163 55.240,94.166 49.792 L 94.167 48.667 82.512 48.667 L 70.857 48.667 70.758 49.625 C 70.639 50.785,70.237 53.014,69.991 53.887 C 69.892 54.237,69.535 54.829,69.198 55.202 C 67.217 57.395,65.361 57.654,51.667 57.650 C 30.789 57.644,31.416 58.164,31.417 40.833 C 31.419 23.977,31.115 24.268,49.000 24.052 C 67.318 23.831,69.583 24.515,69.949 30.375 L 70.050 32.000 81.429 32.000 L 92.807 32.000 92.924 30.905 C 93.224 28.101,92.580 21.954,91.710 19.333 C 89.948 14.019,84.897 8.611,80.651 7.494 C 80.339 7.412,79.108 7.085,77.917 6.768 C 74.529 5.868,71.331 5.464,65.250 5.170 C 61.245 4.976,42.038 4.984,38.167 5.181 M333.250 5.346 C 325.128 5.851,318.261 7.471,315.426 9.550 C 315.146 9.755,314.692 10.034,314.417 10.170 C 313.723 10.512,310.453 13.709,310.071 14.418 C 309.898 14.738,309.705 15.000,309.641 15.000 C 309.495 15.000,308.118 17.208,307.770 18.000 C 306.574 20.716,305.737 24.052,305.303 27.833 C 304.989 30.571,304.991 51.791,305.306 54.500 C 305.971 60.226,307.740 65.406,309.698 67.365 C 309.864 67.531,310.000 67.736,310.000 67.821 C 310.000 68.073,313.011 71.095,313.990 71.826 C 318.190 74.959,324.622 76.520,335.381 77.015 C 340.277 77.240,360.694 77.119,363.750 76.847 C 372.032 76.108,375.966 75.079,380.619 72.433 C 381.483 71.942,384.396 69.273,384.839 68.566 C 385.018 68.281,385.339 67.868,385.553 67.649 C 387.224 65.934,389.098 61.412,389.724 57.583 C 390.684 51.707,390.688 30.904,389.730 24.833 C 389.152 21.168,387.446 16.815,385.909 15.083 C 385.665 14.808,385.256 14.283,385.001 13.917 C 384.349 12.981,381.539 10.333,380.926 10.077 C 380.646 9.959,380.229 9.717,380.000 9.537 C 379.333 9.014,376.909 7.849,375.957 7.595 C 375.477 7.466,374.371 7.170,373.500 6.936 C 371.460 6.390,368.579 5.905,365.333 5.562 C 362.361 5.248,337.515 5.080,333.250 5.346 M208.833 5.777 C 201.338 6.178,194.393 7.797,192.637 9.553 C 192.507 9.683,192.179 9.905,191.909 10.046 C 188.668 11.734,185.497 18.147,184.885 24.250 C 183.795 35.124,187.092 42.556,194.581 46.103 C 198.018 47.732,199.154 47.860,218.678 48.832 C 235.655 49.676,237.851 49.855,239.179 50.500 C 242.281 52.009,241.960 58.250,238.710 59.627 C 236.705 60.476,216.607 60.863,212.225 60.136 C 208.771 59.564,207.340 58.201,207.052 55.208 L 206.952 54.167 195.706 54.167 L 184.460 54.167 184.568 56.125 C 184.895 62.026,185.582 65.268,186.928 67.251 C 187.149 67.576,187.454 68.084,187.605 68.380 C 187.997 69.142,190.859 71.864,192.297 72.842 C 197.409 76.318,206.178 77.356,228.333 77.108 C 248.714 76.881,252.660 75.997,258.245 70.411 C 262.493 66.161,263.709 62.779,263.690 55.262 C 263.654 40.789,258.417 34.997,244.167 33.669 C 241.613 33.431,226.681 32.693,220.417 32.495 C 213.232 32.268,210.061 32.058,209.000 31.739 C 205.604 30.717,205.293 24.461,208.563 22.940 C 210.466 22.055,229.423 21.630,233.884 22.373 C 237.160 22.918,238.500 24.495,238.500 27.805 L 238.500 28.333 249.750 28.333 C 260.354 28.333,261.000 28.317,260.998 28.042 C 260.953 22.729,259.691 17.440,257.898 15.053 C 257.679 14.761,257.498 14.461,257.495 14.386 C 257.487 14.148,256.530 12.969,255.357 11.752 C 251.710 7.967,247.085 6.421,237.667 5.838 C 235.279 5.691,211.400 5.640,208.833 5.777 M122.612 6.610 C 122.550 6.672,122.500 6.854,122.500 7.014 C 122.500 7.175,122.387 7.519,122.249 7.778 C 121.813 8.600,120.650 11.209,120.221 12.330 C 119.993 12.924,119.288 14.584,118.654 16.018 C 118.019 17.452,117.500 18.699,117.500 18.790 C 117.500 18.880,117.208 19.583,116.852 20.352 C 115.471 23.332,115.164 24.036,115.056 24.469 C 114.994 24.715,114.477 25.933,113.906 27.175 C 113.336 28.418,112.753 29.774,112.612 30.190 C 112.471 30.606,111.826 32.117,111.178 33.547 C 110.530 34.978,110.000 36.225,110.000 36.319 C 110.000 36.413,109.820 36.886,109.601 37.370 C 109.382 37.854,108.819 39.092,108.351 40.120 C 107.883 41.149,107.500 42.061,107.500 42.147 C 107.500 42.233,107.004 43.416,106.398 44.776 C 105.791 46.137,105.159 47.625,104.993 48.083 C 104.826 48.542,104.199 50.004,103.598 51.333 C 102.997 52.663,102.505 53.828,102.503 53.923 C 102.501 54.018,101.978 55.230,101.340 56.617 C 100.702 58.003,100.127 59.350,100.062 59.610 C 99.997 59.871,99.477 61.100,98.906 62.342 C 98.336 63.584,97.751 64.949,97.606 65.376 C 97.461 65.802,96.816 67.316,96.171 68.740 C 95.527 70.164,95.000 71.423,94.999 71.539 C 94.998 71.655,94.880 71.975,94.735 72.250 C 94.503 72.693,94.254 73.256,93.392 75.292 L 93.162 75.833 105.253 75.833 C 116.621 75.833,117.349 75.816,117.437 75.542 C 117.488 75.381,117.979 74.091,118.527 72.675 C 119.076 71.259,119.701 69.572,119.916 68.925 C 120.131 68.279,120.679 66.813,121.132 65.667 L 121.957 63.583 138.956 63.541 L 155.955 63.498 156.730 65.458 C 157.156 66.535,157.504 67.509,157.503 67.622 C 157.501 67.735,157.997 69.085,158.604 70.622 C 159.210 72.159,159.870 73.942,160.069 74.583 L 160.431 75.750 172.549 75.793 C 182.830 75.829,184.667 75.800,184.667 75.603 C 184.667 75.475,184.179 74.309,183.583 73.013 C 182.987 71.716,182.500 70.580,182.500 70.488 C 182.500 70.396,182.002 69.217,181.394 67.869 C 180.786 66.520,180.158 65.042,179.997 64.583 C 179.707 63.753,179.380 63.003,178.149 60.352 C 177.792 59.583,177.500 58.880,177.500 58.790 C 177.500 58.699,176.981 57.452,176.346 56.018 C 175.712 54.584,175.007 52.924,174.779 52.330 C 174.350 51.209,173.187 48.600,172.751 47.778 C 172.613 47.519,172.500 47.196,172.500 47.061 C 172.500 46.927,171.938 45.584,171.250 44.078 C 170.563 42.572,170.000 41.274,170.000 41.194 C 170.000 41.062,169.291 39.417,168.087 36.752 C 167.839 36.203,167.521 35.416,167.381 35.002 C 167.241 34.588,166.917 33.800,166.662 33.250 C 165.471 30.680,165.000 29.607,165.000 29.461 C 165.000 29.374,164.503 28.204,163.895 26.860 C 163.287 25.516,162.657 24.042,162.495 23.583 C 162.212 22.788,161.810 21.853,160.881 19.833 C 160.650 19.329,160.289 18.467,160.079 17.917 C 159.541 16.502,157.817 12.614,157.644 12.425 C 157.565 12.338,157.500 12.129,157.500 11.961 C 157.500 11.792,156.977 10.514,156.338 9.119 L 155.177 6.583 138.950 6.541 C 130.026 6.517,122.673 6.549,122.612 6.610 M272.000 41.250 L 272.000 75.500 283.417 75.500 L 294.833 75.500 294.833 41.250 L 294.833 7.000 283.417 7.000 L 272.000 7.000 272.000 41.250 M141.193 24.000 C 141.547 24.871,142.091 26.333,142.402 27.250 C 142.713 28.167,143.424 30.054,143.983 31.444 C 144.543 32.835,145.000 34.059,145.000 34.166 C 145.000 34.272,145.563 35.772,146.250 37.500 C 146.938 39.228,147.500 40.727,147.500 40.833 C 147.500 40.938,148.052 42.425,148.727 44.137 C 149.403 45.849,150.004 47.456,150.064 47.708 L 150.173 48.167 138.920 48.167 C 132.731 48.167,127.667 48.148,127.667 48.125 C 127.667 48.102,128.192 46.738,128.834 45.093 C 129.475 43.448,130.000 42.015,130.000 41.909 C 130.000 41.802,130.482 40.512,131.072 39.042 C 131.661 37.572,132.252 36.002,132.386 35.552 C 132.519 35.103,133.122 33.487,133.725 31.960 C 134.329 30.434,134.873 28.975,134.935 28.718 C 134.997 28.461,135.514 27.050,136.085 25.583 C 136.655 24.117,137.168 22.783,137.225 22.619 C 137.316 22.356,137.516 22.327,138.938 22.369 L 140.549 22.417 141.193 24.000 M354.083 24.502 C 364.943 24.857,366.391 25.495,367.354 30.349 C 367.700 32.090,367.648 50.525,367.293 52.105 C 366.522 55.539,365.195 56.690,361.240 57.358 C 359.341 57.678,336.153 57.683,334.333 57.363 C 328.368 56.315,327.682 54.637,327.672 41.083 C 327.663 29.608,328.371 26.663,331.417 25.509 C 333.880 24.576,343.403 24.153,354.083 24.502 " stroke="none" fill="#040404" fill-rule="evenodd"></path><path id="path1" d="" stroke="none" fill="#080404" fill-rule="evenodd"></path><path id="path2" d="" stroke="none" fill="#080404" fill-rule="evenodd"></path><path id="path3" d="" stroke="none" fill="#080404" fill-rule="evenodd"></path><path id="path4" d="" stroke="none" fill="#080404" fill-rule="evenodd"></path></g></svg>