<svg id="svg" version="1.1" xmlns="http://www.w3.org/2000/svg" xmlns:xlink="http://www.w3.org/1999/xlink" width="400" height="400" viewBox="0, 0, 400,400"><g id="svgg"><path id="path0" d="M157.037 104.074 L 157.037 114.444 199.630 114.444 L 242.222 114.444 242.222 104.074 L 242.222 93.704 199.630 93.704 L 157.037 93.704 157.037 104.074 M189.474 128.147 C 186.067 128.875,179.570 131.107,177.599 132.225 C 165.090 139.325,157.526 148.092,153.477 160.185 C 150.921 167.819,150.252 178.191,151.901 184.630 C 154.182 193.538,157.398 200.099,162.433 206.115 C 163.234 207.072,163.972 207.965,164.074 208.099 C 165.424 209.878,175.850 217.778,176.848 217.778 C 176.934 217.778,178.053 218.267,179.335 218.866 C 213.157 234.652,251.772 205.685,246.489 168.490 C 245.772 163.448,243.214 155.182,241.855 153.519 C 241.688 153.315,241.006 152.148,240.338 150.926 C 231.116 134.040,208.753 124.025,189.474 128.147 M205.185 148.676 C 213.190 150.646,220.508 156.476,223.583 163.333 C 223.812 163.843,224.265 164.867,224.591 165.609 C 225.438 167.541,226.296 172.371,226.296 175.210 C 226.296 179.139,225.645 182.191,224.030 185.829 C 223.647 186.693,223.333 187.494,223.333 187.609 C 223.333 187.724,222.636 188.851,221.784 190.113 C 206.649 212.529,172.037 202.143,172.037 175.185 C 172.037 157.547,188.319 144.525,205.185 148.676 M251.257 260.525 C 251.159 260.780,251.128 262.391,251.188 264.105 L 251.296 267.222 266.481 267.222 L 281.667 267.222 281.773 263.796 L 281.880 260.370 267.884 260.318 C 260.187 260.289,253.337 260.219,252.662 260.164 C 251.939 260.104,251.361 260.253,251.257 260.525 M297.500 260.276 L 294.444 260.400 294.444 283.904 L 294.444 307.407 297.975 307.407 L 301.506 307.407 301.460 290.713 C 301.434 281.532,301.502 273.930,301.612 273.820 C 301.908 273.524,303.292 275.135,305.370 278.197 C 307.423 281.221,310.904 286.171,311.593 287.044 C 311.837 287.353,312.661 288.520,313.424 289.637 C 314.186 290.753,316.103 293.526,317.683 295.798 C 319.263 298.070,321.722 301.608,323.148 303.661 L 325.741 307.393 329.537 307.400 L 333.333 307.407 333.333 284.096 C 333.333 268.618,333.206 260.706,332.955 260.550 C 332.108 260.027,326.333 260.111,326.126 260.650 C 326.016 260.937,325.926 268.491,325.926 277.438 C 325.926 295.852,326.050 295.247,323.134 291.075 C 322.123 289.629,320.588 287.481,319.722 286.302 C 318.856 285.122,318.148 283.986,318.148 283.776 C 318.148 283.567,318.010 283.340,317.842 283.272 C 317.674 283.204,316.679 281.898,315.631 280.370 C 314.583 278.843,313.006 276.593,312.127 275.370 C 311.248 274.148,309.275 271.315,307.744 269.074 C 301.904 260.532,301.377 259.852,300.763 260.075 C 300.649 260.117,299.181 260.207,297.500 260.276 M78.889 261.146 C 76.265 261.556,74.216 262.191,72.593 263.095 C 71.880 263.493,70.684 264.149,69.937 264.555 C 64.028 267.756,59.503 276.303,59.503 284.259 C 59.503 303.327,79.950 314.053,96.218 303.519 C 99.241 301.560,99.246 301.482,96.525 298.679 L 94.178 296.262 91.997 297.696 C 80.743 305.092,66.485 297.581,66.523 284.276 C 66.560 270.929,81.450 263.255,92.325 270.979 L 94.095 272.236 96.307 270.115 C 99.192 267.348,98.980 266.388,95.004 264.225 C 94.594 264.002,93.676 263.494,92.963 263.096 C 89.489 261.158,83.828 260.373,78.889 261.146 M109.729 276.204 C 109.800 285.707,109.996 292.166,110.238 292.963 C 113.299 303.053,119.098 307.539,129.074 307.535 C 135.447 307.533,139.167 306.135,142.867 302.352 C 148.052 297.050,148.519 294.850,148.519 275.671 L 148.519 260.741 129.066 260.741 L 109.614 260.741 109.729 276.204 M159.259 284.444 L 159.259 308.148 162.553 308.148 C 166.641 308.148,166.296 309.120,166.296 297.584 C 166.296 286.947,166.033 287.721,169.709 287.535 C 173.002 287.368,173.550 287.701,174.888 290.682 C 175.497 292.038,176.563 294.371,177.257 295.866 C 177.951 297.361,178.519 298.676,178.519 298.787 C 178.519 298.898,179.170 300.342,179.967 301.995 C 180.764 303.648,181.680 305.607,182.002 306.349 C 182.325 307.090,182.854 307.799,183.177 307.923 C 184.084 308.271,190.370 308.189,190.370 307.829 C 190.370 307.524,188.890 304.064,187.416 300.926 C 180.499 286.197,180.591 286.531,183.181 285.594 C 190.522 282.939,192.529 270.917,186.592 265.155 C 183.037 261.706,178.836 260.741,167.375 260.741 L 159.259 260.741 159.259 284.444 M200.460 284.352 L 200.556 307.963 203.889 307.963 L 207.222 307.963 207.407 291.301 C 207.623 271.937,207.506 272.420,210.779 277.293 C 211.847 278.884,212.859 280.241,213.027 280.309 C 213.196 280.377,213.333 280.654,213.333 280.926 C 213.333 281.198,213.466 281.475,213.628 281.543 C 213.790 281.611,215.701 284.250,217.874 287.407 C 220.047 290.565,222.160 293.565,222.571 294.074 C 222.981 294.583,223.321 295.194,223.325 295.432 C 223.330 295.670,223.463 295.920,223.622 295.988 C 223.897 296.105,226.042 299.071,228.801 303.148 C 230.347 305.433,231.514 306.999,232.156 307.651 C 232.493 307.993,233.677 308.148,235.952 308.148 L 239.259 308.148 239.259 284.444 L 239.259 260.741 235.745 260.741 L 232.230 260.741 232.133 277.284 C 232.031 294.827,231.970 295.366,230.375 292.785 C 229.925 292.057,229.365 291.253,229.130 290.999 C 228.629 290.454,228.227 289.881,223.886 283.519 C 222.080 280.870,220.492 278.620,220.359 278.519 C 220.151 278.360,216.998 273.818,209.668 263.118 L 208.039 260.741 204.202 260.741 L 200.365 260.741 200.460 284.352 M141.038 268.095 C 141.422 268.339,141.498 270.781,141.409 280.034 L 141.296 291.667 140.092 294.129 C 135.780 302.943,122.847 303.135,118.443 294.451 L 117.037 291.680 117.037 279.976 C 117.037 273.539,117.148 268.160,117.284 268.025 C 117.644 267.665,140.467 267.733,141.038 268.095 M179.495 269.009 C 184.079 271.303,184.253 276.791,179.821 279.332 C 178.438 280.125,177.916 280.185,172.407 280.185 L 166.481 280.185 166.379 274.287 C 166.302 269.827,166.392 268.310,166.750 268.064 C 167.876 267.288,177.478 268.000,179.495 269.009 M260.468 273.676 C 255.867 275.244,251.349 279.904,250.028 284.444 C 249.761 285.361,249.396 286.594,249.216 287.185 C 248.181 290.582,249.756 296.776,252.569 300.370 C 262.949 313.635,283.549 306.590,283.437 289.815 C 283.359 277.967,271.770 269.824,260.468 273.676 M268.801 279.969 C 269.155 280.156,270.028 280.527,270.741 280.793 C 277.585 283.350,278.477 293.866,272.222 298.245 C 262.710 304.903,251.734 293.862,258.073 284.011 C 260.092 280.874,266.174 278.582,268.801 279.969 " stroke="none" fill="#0c0c0c" fill-rule="evenodd"></path><path id="path1" d="M0.000 200.000 L 0.000 400.000 200.000 400.000 L 400.000 400.000 400.000 200.000 L 400.000 0.000 200.000 0.000 L 0.000 0.000 0.000 200.000 M242.778 104.074 L 242.778 115.000 199.714 115.094 L 156.650 115.188 156.285 114.229 C 155.803 112.962,155.841 94.555,156.327 93.647 C 156.682 92.983,158.146 92.963,199.736 93.054 L 242.778 93.148 242.778 104.074 M208.519 127.375 C 212.450 128.265,218.140 130.166,219.936 131.191 C 220.684 131.617,222.160 132.426,223.216 132.988 C 228.092 135.581,235.194 141.931,238.190 146.375 C 239.053 147.656,239.855 148.787,239.972 148.889 C 240.218 149.103,240.751 150.022,242.488 153.228 C 249.950 167.005,249.154 187.505,240.661 200.252 C 240.094 201.103,239.630 201.965,239.630 202.165 C 239.630 202.366,239.495 202.586,239.330 202.654 C 239.166 202.722,238.482 203.582,237.812 204.565 C 236.319 206.753,231.750 211.336,228.563 213.841 C 225.167 216.511,222.800 217.891,218.241 219.859 C 217.477 220.188,216.271 220.715,215.561 221.028 C 214.092 221.678,213.199 221.908,207.778 223.033 C 199.423 224.768,188.268 223.662,180.926 220.371 C 180.111 220.006,178.778 219.417,177.963 219.064 C 172.651 216.759,164.187 209.992,160.835 205.370 C 160.392 204.759,159.773 203.926,159.459 203.519 C 157.114 200.472,154.033 194.516,152.946 190.926 C 152.700 190.111,152.353 189.062,152.175 188.594 C 151.997 188.126,151.852 187.344,151.852 186.856 C 151.852 186.369,151.685 185.867,151.481 185.741 C 151.278 185.615,151.111 184.949,151.111 184.262 C 151.111 183.574,150.931 182.542,150.711 181.969 C 150.172 180.563,150.194 170.108,150.742 167.679 C 151.267 165.349,151.835 163.111,152.222 161.852 C 152.379 161.343,152.730 160.176,153.004 159.259 C 153.277 158.343,153.963 156.632,154.528 155.457 C 155.093 154.283,155.556 153.247,155.556 153.155 C 155.556 152.941,158.963 147.281,159.239 147.037 C 159.354 146.935,159.933 146.185,160.525 145.370 C 167.539 135.711,180.985 128.241,194.444 126.527 C 197.176 126.179,205.435 126.676,208.519 127.375 M193.889 149.265 C 185.911 150.490,178.107 156.756,174.755 164.630 C 172.760 169.315,172.777 169.220,172.786 175.185 L 172.793 180.926 174.238 184.444 C 177.317 191.947,185.560 200.000,190.159 200.000 C 190.455 200.000,190.800 200.167,190.926 200.370 C 191.052 200.574,191.635 200.741,192.222 200.741 C 192.809 200.741,193.393 200.907,193.519 201.111 C 193.807 201.577,203.838 201.610,204.727 201.147 C 205.081 200.963,206.120 200.600,207.037 200.340 C 212.052 198.915,216.277 195.912,220.565 190.722 C 227.650 182.148,226.740 166.285,218.658 157.468 C 215.873 154.430,210.611 150.741,209.063 150.741 C 208.763 150.741,208.519 150.592,208.519 150.411 C 208.519 150.229,207.977 149.986,207.315 149.871 C 206.653 149.755,205.194 149.499,204.074 149.302 C 201.681 148.880,196.519 148.862,193.889 149.265 M282.514 263.513 C 282.606 266.670,282.528 267.280,281.981 267.680 C 281.079 268.339,251.473 268.362,250.815 267.704 C 250.349 267.238,250.177 261.306,250.597 260.212 C 250.800 259.683,252.455 259.632,266.615 259.718 L 282.407 259.815 282.514 263.513 M302.458 260.278 C 302.734 260.634,303.539 261.759,304.245 262.778 C 304.952 263.796,306.874 266.546,308.515 268.889 C 310.157 271.231,312.204 274.164,313.065 275.406 C 313.925 276.647,315.546 278.963,316.667 280.551 C 317.787 282.140,319.011 283.957,319.387 284.590 C 319.763 285.223,320.359 286.074,320.711 286.481 C 321.064 286.889,322.173 288.389,323.176 289.815 L 325.000 292.407 325.185 276.111 L 325.370 259.815 329.630 259.815 L 333.889 259.815 333.984 283.789 L 334.079 307.762 333.243 307.971 C 332.784 308.086,330.831 308.131,328.904 308.072 L 325.400 307.963 322.336 303.704 C 320.650 301.361,318.016 297.611,316.483 295.370 C 311.888 288.658,311.162 287.610,310.833 287.222 C 310.556 286.895,308.184 283.533,306.684 281.342 C 306.388 280.909,305.263 279.326,304.184 277.824 L 302.222 275.092 302.222 291.176 C 302.222 303.191,302.110 307.372,301.778 307.704 C 301.229 308.252,294.223 308.319,293.890 307.779 C 293.764 307.576,293.671 296.951,293.683 284.168 C 293.695 271.385,293.705 260.634,293.704 260.278 C 293.704 259.699,294.147 259.630,297.830 259.630 C 301.321 259.630,302.033 259.729,302.458 260.278 M88.939 260.776 C 93.546 262.241,99.630 265.919,99.630 267.238 C 99.630 267.869,94.593 272.963,93.969 272.963 C 93.683 272.963,93.158 272.642,92.803 272.250 C 89.538 268.643,81.299 267.566,76.332 270.098 C 75.639 270.452,74.916 270.741,74.727 270.741 C 74.537 270.741,73.465 271.616,72.343 272.685 C 66.260 278.488,65.433 287.124,70.331 293.704 C 75.147 300.172,84.553 301.861,91.079 297.429 C 94.023 295.430,94.361 295.484,97.210 298.418 C 99.902 301.191,99.987 301.408,98.788 302.450 C 94.229 306.414,89.070 308.299,82.778 308.299 C 78.221 308.299,71.921 306.692,70.741 305.228 C 70.639 305.102,70.056 304.749,69.444 304.444 C 68.007 303.726,63.312 299.031,62.593 297.593 C 62.287 296.981,61.682 295.946,61.248 295.291 C 58.002 290.395,57.998 278.520,61.240 273.333 C 61.686 272.620,62.298 271.539,62.600 270.929 C 64.350 267.396,70.353 262.947,76.111 260.917 C 78.681 260.011,86.273 259.927,88.939 260.776 M149.173 275.370 C 149.308 296.036,148.428 299.277,141.137 304.961 C 136.889 308.273,127.240 309.465,121.907 307.337 C 114.055 304.203,110.770 299.671,108.923 289.422 C 108.335 286.162,108.373 261.035,108.966 260.441 C 109.307 260.100,114.129 260.016,129.244 260.089 L 149.074 260.185 149.173 275.370 M180.000 260.716 C 187.499 263.374,190.420 266.879,190.670 273.519 C 190.897 279.541,188.572 283.751,183.642 286.247 L 181.914 287.121 182.575 288.653 C 183.672 291.198,185.429 295.019,189.059 302.750 C 190.008 304.772,190.879 306.897,190.994 307.472 L 191.204 308.519 186.700 308.519 L 182.197 308.519 180.897 305.648 C 180.182 304.069,179.271 302.069,178.873 301.204 C 178.474 300.338,177.831 298.921,177.444 298.056 C 177.057 297.190,176.081 295.065,175.274 293.333 C 174.467 291.602,173.689 289.810,173.545 289.352 C 173.301 288.574,173.074 288.519,170.166 288.519 L 167.049 288.519 166.950 298.426 L 166.852 308.333 162.685 308.438 L 158.519 308.543 158.519 284.518 C 158.519 271.305,158.644 260.367,158.796 260.211 C 159.262 259.738,178.534 260.197,180.000 260.716 M208.771 260.833 C 209.185 261.292,210.243 262.750,211.123 264.074 C 212.003 265.398,212.828 266.565,212.958 266.667 C 213.165 266.829,216.809 272.094,220.136 277.037 C 220.753 277.954,221.361 278.787,221.487 278.889 C 221.769 279.117,228.058 288.135,229.063 289.752 C 229.464 290.398,230.089 291.249,230.452 291.644 C 230.814 292.039,231.150 292.539,231.198 292.755 C 231.246 292.971,231.371 285.731,231.476 276.667 L 231.667 260.185 235.593 260.081 C 238.597 260.001,239.620 260.097,239.947 260.492 C 240.264 260.874,240.351 267.180,240.281 284.671 L 240.185 308.333 235.926 308.428 L 231.667 308.522 230.463 306.761 C 226.725 301.289,220.961 293.003,220.259 292.089 C 219.811 291.507,219.028 290.403,218.519 289.636 C 215.929 285.738,213.542 282.394,213.269 282.284 C 213.101 282.216,212.963 281.966,212.963 281.728 C 212.962 281.491,212.541 280.807,212.027 280.209 C 211.513 279.612,210.638 278.404,210.083 277.525 C 209.528 276.646,208.949 275.927,208.796 275.927 C 208.644 275.926,208.516 282.884,208.513 291.389 C 208.511 299.894,208.408 307.227,208.285 307.685 C 207.992 308.777,200.266 309.004,199.854 307.933 C 199.561 307.167,199.561 261.351,199.854 260.586 C 200.257 259.537,207.790 259.746,208.771 260.833 M117.515 279.167 C 117.675 292.282,118.088 294.254,121.311 297.254 C 126.538 302.122,136.003 300.376,139.377 293.921 L 140.556 291.667 140.672 280.093 L 140.788 268.519 129.087 268.519 L 117.386 268.519 117.515 279.167 M167.037 274.074 L 167.037 279.630 172.315 279.619 C 177.044 279.610,177.766 279.522,179.259 278.772 C 183.287 276.750,183.405 271.583,179.464 269.834 C 176.999 268.740,175.643 268.519,171.426 268.519 L 167.037 268.519 167.037 274.074 M270.561 272.393 C 276.179 273.857,281.901 279.051,283.224 283.889 C 284.787 289.609,284.788 290.359,283.227 296.111 C 282.312 299.482,278.181 304.227,274.566 306.060 C 269.365 308.697,260.185 308.409,257.074 305.511 C 256.663 305.128,256.221 304.815,256.092 304.815 C 255.333 304.815,251.506 300.461,250.494 298.446 C 245.368 288.243,250.593 275.485,261.007 272.772 C 262.144 272.476,263.161 272.148,263.266 272.043 C 263.668 271.641,268.577 271.877,270.561 272.393 M261.667 281.644 C 260.055 282.571,257.412 285.732,257.409 286.737 C 257.408 287.082,257.241 287.467,257.037 287.593 C 256.833 287.718,256.667 288.802,256.667 290.000 C 256.667 291.198,256.833 292.282,257.037 292.407 C 257.241 292.533,257.407 292.891,257.407 293.202 C 257.407 295.940,262.392 299.435,266.296 299.435 C 276.279 299.435,279.439 286.393,270.637 281.516 C 268.583 280.378,263.748 280.447,261.667 281.644 " stroke="none" fill="#fbfbfb" fill-rule="evenodd"></path><path id="path2" d="M156.327 93.647 C 155.841 94.555,155.803 112.962,156.285 114.229 L 156.650 115.188 199.714 115.094 L 242.778 115.000 242.778 104.074 L 242.778 93.148 199.736 93.054 C 158.146 92.963,156.682 92.983,156.327 93.647 M242.593 104.074 L 242.593 114.815 199.630 114.815 L 156.667 114.815 156.667 104.074 L 156.667 93.333 199.630 93.333 L 242.593 93.333 242.593 104.074 M193.388 126.669 C 190.089 127.134,189.654 127.461,192.778 127.128 C 196.052 126.779,201.583 126.774,205.185 127.115 C 207.202 127.307,207.608 127.282,206.667 127.026 C 204.786 126.514,196.136 126.281,193.388 126.669 M187.593 127.771 C 186.981 127.929,186.065 128.250,185.556 128.484 L 184.630 128.910 185.556 128.689 C 188.434 128.002,190.094 127.489,189.444 127.486 C 189.037 127.485,188.204 127.613,187.593 127.771 M211.111 128.383 C 215.181 129.577,215.985 129.761,214.815 129.232 C 213.494 128.635,209.180 127.402,208.520 127.434 C 208.213 127.448,209.380 127.876,211.111 128.383 M182.963 129.259 C 182.469 129.578,182.469 129.618,182.963 129.618 C 183.269 129.618,183.769 129.457,184.074 129.259 C 184.568 128.940,184.568 128.900,184.074 128.900 C 183.769 128.900,183.269 129.062,182.963 129.259 M180.050 130.234 C 179.364 130.533,178.881 130.856,178.977 130.952 C 179.073 131.048,179.884 130.802,180.779 130.404 C 181.675 130.007,182.157 129.684,181.852 129.686 C 181.546 129.688,180.735 129.935,180.050 130.234 M217.369 130.404 C 218.264 130.802,219.074 131.050,219.168 130.955 C 219.374 130.750,216.754 129.619,216.158 129.656 C 215.929 129.670,216.473 130.007,217.369 130.404 M219.630 131.287 C 219.630 131.383,220.171 131.727,220.833 132.050 L 222.037 132.637 221.111 131.882 C 220.220 131.156,219.630 130.918,219.630 131.287 M175.780 132.337 C 168.885 136.675,162.773 141.931,160.411 145.556 C 159.822 146.459,160.050 146.290,161.164 145.000 C 165.312 140.197,170.860 135.480,174.907 133.317 C 176.879 132.263,177.448 131.820,176.759 131.874 C 176.606 131.886,176.166 132.094,175.780 132.337 M225.740 135.009 C 229.840 137.731,235.175 142.740,237.662 146.204 C 239.788 149.164,240.134 149.221,238.139 146.282 C 235.371 142.207,228.402 135.868,223.924 133.353 C 221.355 131.910,222.112 132.600,225.740 135.009 M158.230 148.521 C 157.140 150.429,157.397 150.427,158.660 148.519 C 159.199 147.704,159.513 147.038,159.357 147.040 C 159.201 147.041,158.694 147.708,158.230 148.521 M194.074 148.845 C 193.361 148.971,195.594 149.074,199.035 149.074 C 202.496 149.074,204.648 148.959,203.850 148.818 C 202.111 148.509,195.880 148.526,194.074 148.845 M190.926 149.630 C 190.459 149.830,190.391 149.948,190.741 149.948 C 191.046 149.948,191.630 149.805,192.037 149.630 C 192.504 149.429,192.572 149.311,192.222 149.311 C 191.917 149.311,191.333 149.455,190.926 149.630 M205.926 149.630 C 206.231 149.827,206.815 149.979,207.222 149.968 L 207.963 149.948 207.222 149.630 C 206.115 149.154,205.190 149.154,205.926 149.630 M240.913 151.019 C 241.236 151.681,241.580 152.222,241.676 152.222 C 242.045 152.222,241.807 151.632,241.081 150.741 L 240.326 149.815 240.913 151.019 M156.415 151.574 C 155.257 153.749,154.056 156.402,154.176 156.521 C 154.240 156.586,154.993 155.228,155.848 153.505 C 157.330 150.516,157.762 149.044,156.415 151.574 M183.893 153.040 C 181.462 154.726,179.648 156.296,180.130 156.296 C 180.299 156.296,181.297 155.568,182.348 154.677 C 183.399 153.787,184.801 152.782,185.463 152.445 C 186.610 151.862,186.990 151.470,186.389 151.491 C 186.236 151.496,185.113 152.193,183.893 153.040 M211.481 151.606 C 211.481 151.684,212.532 152.428,213.817 153.259 C 215.102 154.090,216.952 155.624,217.929 156.668 C 218.905 157.713,219.772 158.499,219.855 158.416 C 220.059 158.213,215.949 154.205,214.599 153.290 C 213.234 152.364,211.481 151.418,211.481 151.606 M241.932 152.870 C 242.010 153.023,242.529 154.148,243.085 155.370 C 244.748 159.029,244.854 159.223,244.599 158.148 C 244.296 156.870,242.314 152.593,242.026 152.593 C 241.896 152.593,241.854 152.718,241.932 152.870 M178.273 158.241 C 176.543 160.177,173.689 165.282,173.714 166.395 C 173.720 166.646,174.178 165.840,174.733 164.602 C 175.817 162.183,177.411 159.582,178.631 158.241 C 179.047 157.782,179.305 157.407,179.203 157.407 C 179.101 157.407,178.683 157.782,178.273 158.241 M152.846 159.401 C 152.707 159.764,152.603 160.339,152.616 160.678 C 152.632 161.088,152.760 160.994,152.997 160.402 C 153.194 159.910,153.297 159.335,153.227 159.125 C 153.156 158.914,152.985 159.038,152.846 159.401 M220.956 160.265 C 223.212 163.589,225.064 168.619,225.222 171.852 C 225.272 172.855,225.324 172.944,225.456 172.246 C 225.954 169.596,221.824 158.889,220.303 158.889 C 220.149 158.889,220.443 159.508,220.956 160.265 M244.815 159.398 C 244.815 159.542,245.137 160.695,245.531 161.960 C 246.170 164.013,246.812 167.379,247.171 170.556 C 247.254 171.290,247.315 171.102,247.352 170.000 C 247.412 168.168,246.616 163.939,245.694 161.200 C 245.119 159.490,244.815 158.866,244.815 159.398 M152.083 162.051 C 151.956 162.382,151.866 162.931,151.884 163.271 C 151.901 163.611,152.062 163.397,152.242 162.796 C 152.591 161.627,152.467 161.049,152.083 162.051 M151.364 164.586 C 151.225 164.949,151.122 165.524,151.135 165.864 C 151.150 166.273,151.279 166.180,151.516 165.587 C 151.712 165.095,151.816 164.521,151.745 164.310 C 151.675 164.099,151.504 164.223,151.364 164.586 M150.608 168.226 C 150.483 168.692,150.401 170.157,150.426 171.481 L 150.471 173.889 150.773 170.754 C 151.079 167.576,151.021 166.684,150.608 168.226 M172.454 170.787 C 172.166 172.226,172.228 178.692,172.544 180.166 C 172.672 180.766,172.778 178.641,172.778 175.443 C 172.778 169.055,172.784 169.138,172.454 170.787 M247.532 175.185 C 247.532 176.713,247.597 177.338,247.677 176.574 C 247.757 175.810,247.757 174.560,247.677 173.796 C 247.597 173.032,247.532 173.657,247.532 175.185 M225.661 175.000 C 225.664 176.019,225.736 176.391,225.821 175.828 C 225.906 175.265,225.904 174.432,225.816 173.976 C 225.728 173.521,225.659 173.981,225.661 175.000 M150.396 179.105 C 150.411 180.310,150.562 181.630,150.733 182.037 C 150.917 182.475,150.961 181.641,150.841 180.000 C 150.593 176.603,150.361 176.137,150.396 179.105 M225.227 178.519 C 225.116 180.621,224.211 183.932,223.185 185.990 C 222.660 187.045,222.310 187.989,222.408 188.087 C 223.093 188.772,225.750 180.283,225.461 178.333 C 225.300 177.248,225.295 177.252,225.227 178.519 M247.095 180.370 C 246.928 184.558,244.283 193.115,241.657 197.963 C 240.885 199.389,240.434 200.389,240.656 200.185 C 243.142 197.898,247.722 184.071,247.307 180.100 C 247.165 178.734,247.160 178.739,247.095 180.370 M173.704 184.084 C 173.704 186.998,180.061 195.036,184.490 197.723 C 186.509 198.948,186.283 198.454,184.189 197.067 C 180.138 194.384,176.515 190.031,174.838 185.833 C 174.015 183.772,173.704 183.292,173.704 184.084 M151.117 184.700 C 151.114 185.147,151.278 185.615,151.481 185.741 C 151.953 186.032,151.953 185.174,151.481 184.444 C 151.190 183.993,151.121 184.041,151.117 184.700 M151.884 187.222 C 151.872 187.630,152.025 188.213,152.222 188.519 C 152.698 189.255,152.698 188.329,152.222 187.222 L 151.904 186.481 151.884 187.222 M152.624 189.815 C 152.613 190.222,152.765 190.806,152.963 191.111 C 153.439 191.847,153.439 190.922,152.963 189.815 L 152.645 189.074 152.624 189.815 M220.741 190.307 C 220.741 190.979,216.442 195.310,214.396 196.699 C 211.865 198.418,211.468 198.994,213.844 197.501 C 216.600 195.768,222.216 190.000,221.146 190.000 C 220.923 190.000,220.741 190.138,220.741 190.307 M154.074 193.846 C 154.074 194.321,157.073 200.170,157.587 200.696 C 157.861 200.977,157.242 199.560,156.212 197.548 C 154.254 193.722,154.074 193.411,154.074 193.846 M186.467 198.865 C 186.652 199.165,190.428 200.741,190.962 200.741 C 191.068 200.741,191.052 200.574,190.926 200.370 C 190.800 200.167,190.449 200.000,190.145 200.000 C 189.842 200.000,188.904 199.667,188.061 199.259 C 186.322 198.419,186.168 198.381,186.467 198.865 M210.960 198.834 C 210.852 199.008,209.802 199.453,208.626 199.823 C 207.450 200.193,206.671 200.557,206.896 200.632 C 207.410 200.803,211.392 199.333,211.681 198.865 C 211.799 198.674,211.729 198.519,211.525 198.519 C 211.321 198.519,211.067 198.661,210.960 198.834 M192.407 201.111 C 193.427 201.549,193.789 201.549,193.519 201.111 C 193.393 200.907,192.924 200.752,192.478 200.767 C 191.696 200.792,191.693 200.804,192.407 201.111 M204.630 201.111 C 204.359 201.549,204.721 201.549,205.741 201.111 C 206.455 200.804,206.452 200.792,205.670 200.767 C 205.224 200.752,204.756 200.907,204.630 201.111 M158.523 202.199 C 158.779 202.695,159.300 203.435,159.680 203.843 C 160.060 204.251,160.370 204.719,160.370 204.885 C 160.370 205.050,160.551 205.185,160.772 205.185 C 160.993 205.185,160.630 204.477,159.965 203.611 C 158.329 201.479,157.971 201.128,158.523 202.199 M197.143 201.756 C 198.322 201.829,200.155 201.829,201.217 201.754 C 202.279 201.680,201.315 201.619,199.074 201.620 C 196.833 201.621,195.964 201.682,197.143 201.756 M238.122 203.585 C 235.428 207.566,229.970 212.700,225.100 215.834 C 221.562 218.111,220.880 218.902,224.156 216.930 C 228.659 214.218,235.385 208.127,237.809 204.565 C 238.478 203.582,239.198 202.662,239.409 202.520 C 239.621 202.378,239.689 202.158,239.562 202.031 C 239.435 201.904,238.787 202.603,238.122 203.585 M161.797 206.574 C 162.202 207.134,163.409 208.426,164.478 209.444 C 166.151 211.037,166.065 210.894,163.868 208.426 C 161.202 205.432,160.548 204.847,161.797 206.574 M166.667 211.250 C 166.667 212.130,176.354 218.889,177.614 218.889 C 177.805 218.889,176.624 218.097,174.990 217.130 C 171.686 215.173,169.670 213.742,167.870 212.079 C 167.208 211.467,166.667 211.094,166.667 211.250 M219.630 218.889 C 218.917 219.279,218.438 219.606,218.566 219.614 C 218.949 219.640,221.481 218.523,221.481 218.328 C 221.481 218.005,220.949 218.166,219.630 218.889 M214.074 221.049 C 213.157 221.371,212.665 221.689,212.980 221.755 C 213.559 221.878,216.296 220.884,216.296 220.551 C 216.296 220.305,216.008 220.370,214.074 221.049 M183.704 221.481 C 184.009 221.679,184.593 221.831,185.000 221.820 L 185.741 221.800 185.000 221.481 C 183.893 221.006,182.967 221.006,183.704 221.481 M186.481 222.222 C 186.889 222.397,187.556 222.541,187.963 222.541 L 188.704 222.541 187.963 222.222 C 187.556 222.047,186.889 221.904,186.481 221.904 L 185.741 221.904 186.481 222.222 M210.000 222.222 L 209.074 222.519 210.000 222.530 C 210.509 222.536,211.259 222.397,211.667 222.222 L 212.407 221.904 211.667 221.915 C 211.259 221.921,210.509 222.059,210.000 222.222 M188.920 222.726 C 189.005 222.800,189.824 222.959,190.741 223.080 C 191.854 223.227,192.161 223.192,191.667 222.973 C 190.959 222.659,188.598 222.448,188.920 222.726 M206.481 222.980 C 205.965 223.214,206.190 223.247,207.222 223.090 C 208.037 222.966,208.773 222.803,208.858 222.729 C 209.176 222.448,207.192 222.658,206.481 222.980 M195.826 223.832 C 197.730 224.009,200.601 224.009,202.307 223.831 C 205.021 223.548,204.632 223.512,198.889 223.514 C 192.872 223.515,192.652 223.538,195.826 223.832 M250.595 260.215 C 250.176 261.307,250.350 267.239,250.815 267.704 C 251.473 268.362,281.079 268.339,281.981 267.680 C 282.943 266.976,282.737 259.853,281.752 259.764 C 281.293 259.723,281.265 259.757,281.659 259.880 C 282.506 260.142,282.484 267.228,281.636 267.553 C 280.441 268.012,251.656 267.804,251.185 267.333 C 250.632 266.781,250.585 261.353,251.124 260.346 C 251.345 259.934,251.362 259.630,251.164 259.630 C 250.975 259.630,250.719 259.893,250.595 260.215 M293.596 260.370 C 293.490 260.778,293.433 261.111,293.471 261.111 C 293.508 261.111,293.824 260.778,294.173 260.370 C 294.659 259.803,294.688 259.630,294.299 259.630 C 294.019 259.630,293.703 259.963,293.596 260.370 M301.544 260.013 C 301.883 260.211,305.673 265.414,309.966 271.575 C 318.556 283.904,319.239 284.833,319.251 284.189 C 319.256 283.946,319.090 283.643,318.883 283.515 C 318.676 283.387,317.634 282.018,316.568 280.473 C 313.272 275.696,311.610 273.305,308.515 268.889 C 306.874 266.546,304.952 263.796,304.245 262.778 C 302.282 259.948,301.996 259.629,301.441 259.641 C 301.068 259.649,301.096 259.751,301.544 260.013 M325.359 260.093 C 325.264 260.347,325.144 267.722,325.093 276.481 L 325.000 292.407 322.843 289.357 C 320.508 286.054,319.105 284.654,321.111 287.628 C 323.145 290.643,324.950 292.963,325.261 292.963 C 325.423 292.963,325.556 285.785,325.556 277.013 C 325.556 266.726,325.692 260.808,325.939 260.346 C 326.207 259.846,326.203 259.630,325.927 259.630 C 325.710 259.630,325.454 259.838,325.359 260.093 M333.058 259.864 C 333.672 260.044,333.704 261.422,333.614 283.824 L 333.519 307.593 329.554 307.698 L 325.589 307.803 324.924 306.772 C 324.558 306.206,323.296 304.409,322.119 302.779 C 320.941 301.149,319.078 298.481,317.978 296.852 C 316.068 294.022,314.051 291.420,314.676 292.592 C 315.121 293.427,321.349 302.404,323.605 305.463 L 325.585 308.148 329.366 308.142 C 331.446 308.139,333.358 308.004,333.614 307.841 C 334.535 307.256,334.076 259.844,333.148 259.749 C 332.567 259.689,332.548 259.714,333.058 259.864 M83.333 260.342 C 84.861 260.506,86.861 260.747,87.778 260.877 C 89.045 261.057,89.241 261.027,88.596 260.749 C 88.130 260.548,86.130 260.307,84.152 260.213 C 80.753 260.052,80.708 260.059,83.333 260.342 M108.966 260.441 C 108.457 260.950,108.304 286.349,108.796 288.565 C 108.949 289.252,109.157 283.231,109.259 275.185 L 109.444 260.556 129.167 260.460 L 148.889 260.364 148.883 275.645 C 148.877 289.552,148.812 291.174,148.159 293.690 C 147.433 296.484,147.382 297.752,148.086 295.488 C 149.182 291.964,149.298 289.822,149.188 275.185 L 149.074 260.185 129.244 260.089 C 114.129 260.016,109.307 260.100,108.966 260.441 M158.765 260.247 C 158.423 260.590,158.453 308.519,158.796 308.519 C 158.949 308.519,159.030 297.688,158.976 284.451 L 158.878 260.384 167.680 260.277 L 176.481 260.171 167.747 260.086 C 162.943 260.039,158.901 260.111,158.765 260.247 M199.854 260.586 C 199.731 260.908,199.669 271.700,199.718 284.567 L 199.807 307.963 199.996 284.259 L 200.185 260.556 204.254 260.556 L 208.323 260.556 210.100 263.142 C 212.401 266.492,213.174 267.205,211.110 264.074 C 208.324 259.846,208.591 260.000,204.049 260.000 C 200.771 260.000,200.040 260.102,199.854 260.586 M231.728 260.247 C 231.593 260.383,231.477 267.841,231.472 276.821 C 231.462 292.360,231.431 293.099,230.830 292.130 C 230.483 291.569,230.059 291.111,229.887 291.111 C 229.716 291.111,229.910 291.536,230.319 292.056 C 230.728 292.576,231.198 292.993,231.365 292.982 C 231.531 292.972,231.750 285.672,231.852 276.760 L 232.037 260.556 235.926 260.556 L 239.815 260.556 239.910 283.815 C 239.978 300.252,239.886 307.300,239.596 307.840 C 239.273 308.445,239.291 308.570,239.686 308.438 C 240.358 308.214,240.623 261.306,239.957 260.504 C 239.517 259.974,232.230 259.746,231.728 260.247 M76.852 260.754 C 76.368 260.970,76.818 261.008,78.148 260.863 C 79.269 260.740,80.255 260.580,80.340 260.505 C 80.667 260.218,77.553 260.440,76.852 260.754 M176.698 260.508 C 176.782 260.584,177.685 260.747,178.704 260.871 C 179.950 261.023,180.313 260.987,179.815 260.760 C 179.111 260.439,176.373 260.218,176.698 260.508 M70.983 263.075 C 67.977 264.675,61.616 270.999,62.313 271.696 C 62.407 271.790,62.906 271.229,63.423 270.449 C 65.227 267.722,70.765 262.963,72.134 262.963 C 72.308 262.963,72.775 262.718,73.170 262.419 C 74.347 261.529,73.298 261.844,70.983 263.075 M91.852 262.026 C 91.852 262.121,92.798 262.663,93.955 263.229 C 95.112 263.796,96.821 264.956,97.752 265.807 L 99.444 267.354 96.862 269.973 C 94.031 272.844,93.778 272.957,92.743 271.812 C 91.977 270.965,88.552 269.102,88.273 269.381 C 88.179 269.475,89.014 269.999,90.130 270.545 C 91.245 271.090,92.448 271.858,92.803 272.250 C 93.815 273.368,94.317 273.141,97.060 270.321 C 100.101 267.195,100.097 267.214,97.959 265.427 C 95.979 263.772,91.852 261.473,91.852 262.026 M184.672 263.296 C 187.864 265.321,189.376 267.441,190.245 271.111 L 190.728 273.148 190.549 271.337 C 190.216 267.960,187.730 264.431,184.456 262.685 C 182.053 261.404,182.158 261.701,184.672 263.296 M214.058 268.866 C 214.880 270.076,215.732 271.177,215.953 271.313 C 216.173 271.449,215.632 270.463,214.751 269.121 C 213.869 267.780,213.017 266.679,212.857 266.674 C 212.696 266.670,213.237 267.656,214.058 268.866 M81.766 268.417 C 82.432 268.499,83.432 268.497,83.988 268.413 C 84.545 268.328,84.000 268.261,82.778 268.263 C 81.556 268.265,81.100 268.334,81.766 268.417 M117.206 268.611 C 117.106 268.872,117.072 273.583,117.130 279.080 L 117.235 289.074 117.321 278.796 L 117.407 268.519 129.098 268.519 L 140.788 268.519 140.672 280.165 C 140.608 286.571,140.683 291.467,140.839 291.044 C 140.995 290.622,141.078 285.339,141.024 279.305 L 140.926 268.333 129.157 268.236 C 119.870 268.158,117.350 268.238,117.206 268.611 M166.830 268.628 C 166.728 268.892,166.692 271.517,166.749 274.461 L 166.852 279.815 172.037 279.830 L 177.222 279.845 172.130 279.727 L 167.037 279.609 167.037 274.075 L 167.037 268.541 171.574 268.425 L 176.111 268.308 171.562 268.228 C 168.120 268.168,166.969 268.265,166.830 268.628 M78.333 268.889 L 77.593 269.207 78.333 269.207 C 78.741 269.207,79.407 269.064,79.815 268.889 L 80.556 268.571 79.815 268.571 C 79.407 268.571,78.741 268.714,78.333 268.889 M85.741 268.889 C 86.148 269.064,86.815 269.207,87.222 269.207 L 87.963 269.207 87.222 268.889 C 86.815 268.714,86.148 268.571,85.741 268.571 L 85.000 268.571 85.741 268.889 M176.852 268.889 C 177.959 269.365,178.884 269.365,178.148 268.889 C 177.843 268.691,177.259 268.539,176.852 268.550 L 176.111 268.571 176.852 268.889 M75.556 270.000 C 74.843 270.390,74.442 270.717,74.665 270.725 C 75.130 270.743,77.407 269.656,77.407 269.417 C 77.407 269.117,76.847 269.293,75.556 270.000 M179.074 269.630 C 179.200 269.833,179.514 270.000,179.772 270.000 C 180.504 270.000,181.715 271.525,182.210 273.069 C 182.863 275.110,181.585 277.593,179.259 278.800 C 178.343 279.276,178.009 279.560,178.519 279.432 C 182.722 278.371,184.057 273.169,180.849 270.353 C 179.645 269.295,178.606 268.872,179.074 269.630 M71.711 272.878 C 70.527 274.033,69.158 275.770,68.668 276.736 C 67.345 279.348,67.602 279.405,69.065 276.824 C 69.766 275.586,71.191 273.778,72.231 272.805 C 73.272 271.832,74.064 270.978,73.993 270.906 C 73.921 270.835,72.895 271.722,71.711 272.878 M216.632 272.527 C 216.857 272.948,217.223 273.405,217.446 273.543 C 217.737 273.722,217.736 273.576,217.442 273.028 C 217.217 272.608,216.851 272.151,216.628 272.013 C 216.337 271.833,216.338 271.979,216.632 272.527 M262.988 272.199 C 262.656 272.409,263.310 272.457,264.736 272.328 C 271.575 271.708,277.916 275.063,281.643 281.275 C 282.369 282.485,282.963 283.267,282.963 283.013 C 282.963 281.254,277.406 275.298,274.349 273.782 C 270.961 272.102,264.552 271.209,262.988 272.199 M259.822 273.052 C 251.832 275.950,246.368 286.876,248.922 294.852 C 249.143 295.545,249.397 296.343,249.486 296.627 C 249.574 296.911,249.720 297.070,249.810 296.980 C 249.900 296.891,249.729 296.007,249.431 295.016 C 246.791 286.246,251.888 276.253,260.523 273.268 C 261.560 272.910,262.074 272.624,261.667 272.634 C 261.259 272.643,260.429 272.831,259.822 273.052 M60.811 273.950 C 59.987 275.505,58.857 280.135,58.991 281.408 L 59.135 282.778 59.197 281.336 C 59.267 279.708,60.617 274.876,61.203 274.158 C 61.414 273.898,61.493 273.592,61.379 273.478 C 61.265 273.363,61.009 273.576,60.811 273.950 M220.720 278.366 C 228.607 289.719,230.449 292.249,229.010 289.752 C 228.229 288.397,221.832 279.166,221.482 278.889 C 221.353 278.787,220.617 277.745,219.847 276.573 C 219.076 275.402,218.268 274.333,218.050 274.199 C 217.833 274.064,219.034 275.940,220.720 278.366 M302.047 274.851 C 301.940 275.137,301.811 282.620,301.759 291.481 L 301.667 307.593 297.794 307.593 C 293.980 307.593,293.918 307.579,293.665 306.667 C 293.449 305.891,293.401 305.864,293.370 306.500 C 293.304 307.873,294.040 308.148,297.778 308.148 C 302.662 308.148,302.222 309.826,302.222 291.176 L 302.222 275.092 304.184 277.824 C 305.263 279.326,306.388 280.909,306.684 281.342 C 308.846 284.501,310.535 286.880,310.725 287.037 C 310.849 287.139,311.496 288.084,312.162 289.138 C 312.829 290.192,313.612 291.252,313.903 291.493 C 314.512 291.998,312.705 289.295,306.584 280.541 C 303.959 276.788,302.165 274.537,302.047 274.851 M207.693 291.667 C 207.638 300.935,207.698 308.519,207.827 308.519 C 208.404 308.518,208.509 305.908,208.513 291.389 C 208.516 282.884,208.644 275.927,208.796 275.928 C 208.949 275.929,209.657 276.845,210.370 277.963 C 211.083 279.081,211.800 279.997,211.962 279.998 C 212.290 280.000,210.312 276.952,209.139 275.648 C 208.727 275.190,208.255 274.815,208.091 274.815 C 207.927 274.815,207.748 282.398,207.693 291.667 M190.430 275.787 C 190.397 276.220,190.283 277.137,190.175 277.824 C 189.997 278.969,190.014 278.997,190.378 278.161 C 190.597 277.659,190.711 276.742,190.632 276.124 C 190.548 275.460,190.465 275.322,190.430 275.787 M67.202 280.535 C 67.062 281.278,67.031 281.970,67.133 282.072 C 67.235 282.173,67.433 281.649,67.572 280.905 C 67.711 280.162,67.742 279.471,67.640 279.369 C 67.539 279.267,67.341 279.792,67.202 280.535 M189.289 280.298 C 188.650 281.842,185.642 284.755,183.637 285.773 C 181.345 286.937,181.335 286.968,182.535 289.488 C 183.105 290.686,183.791 292.214,184.058 292.882 C 184.325 293.551,184.626 294.016,184.727 293.915 C 184.828 293.814,184.533 292.934,184.072 291.959 C 183.612 290.983,182.938 289.496,182.575 288.653 L 181.914 287.121 183.641 286.246 C 186.340 284.877,190.650 280.156,189.892 279.398 C 189.803 279.309,189.531 279.714,189.289 280.298 M263.889 280.370 C 263.399 280.581,264.213 280.689,266.296 280.689 C 268.379 280.689,269.194 280.581,268.704 280.370 C 268.296 280.195,267.213 280.052,266.296 280.052 C 265.380 280.052,264.296 280.195,263.889 280.370 M212.963 281.660 C 212.963 281.783,213.317 282.251,213.749 282.701 L 214.536 283.519 214.118 282.706 C 213.704 281.902,212.963 281.231,212.963 281.660 M272.452 282.720 C 273.291 283.451,274.264 284.652,274.613 285.388 C 274.963 286.124,275.340 286.635,275.452 286.523 C 275.907 286.068,273.059 282.496,271.667 281.775 C 271.259 281.563,271.613 281.989,272.452 282.720 M259.189 283.241 C 258.406 284.080,256.865 286.532,257.501 285.926 C 257.882 285.563,260.363 282.222,260.252 282.222 C 260.190 282.222,259.711 282.681,259.189 283.241 M58.600 284.074 C 58.591 284.787,58.713 286.204,58.872 287.222 C 59.105 288.720,59.164 288.826,59.177 287.778 C 59.187 287.065,59.065 285.648,58.906 284.630 C 58.673 283.132,58.614 283.025,58.600 284.074 M66.760 284.259 C 66.764 285.074,66.840 285.364,66.929 284.903 C 67.017 284.442,67.014 283.776,66.921 283.422 C 66.828 283.068,66.756 283.444,66.760 284.259 M215.880 285.779 C 216.727 286.980,218.042 288.921,218.802 290.093 C 219.561 291.264,220.311 292.222,220.468 292.222 C 220.625 292.222,220.080 291.264,219.256 290.093 C 218.433 288.921,217.164 287.088,216.436 286.018 C 215.708 284.948,214.939 283.965,214.726 283.834 C 214.514 283.703,215.033 284.578,215.880 285.779 M282.995 284.074 C 283.006 284.380,283.158 284.963,283.333 285.370 L 283.652 286.111 283.672 285.370 C 283.683 284.963,283.531 284.380,283.333 284.074 C 283.014 283.580,282.977 283.580,282.995 284.074 M67.107 286.852 C 67.097 287.463,67.232 288.296,67.407 288.704 L 67.726 289.444 67.708 288.704 C 67.698 288.296,67.563 287.463,67.407 286.852 L 67.125 285.741 67.107 286.852 M275.694 290.000 C 275.694 292.852,275.728 293.000,276.048 291.574 C 276.273 290.574,276.273 289.426,276.048 288.426 C 275.728 287.000,275.694 287.148,275.694 290.000 M283.879 290.000 C 283.879 291.630,283.995 292.671,284.136 292.315 C 284.277 291.958,284.392 290.917,284.392 290.000 C 284.392 289.083,284.277 288.042,284.136 287.685 C 283.995 287.329,283.879 288.370,283.879 290.000 M166.927 288.382 C 166.784 288.525,166.667 293.017,166.667 298.364 C 166.667 304.634,166.532 308.153,166.287 308.275 C 166.078 308.378,166.120 308.420,166.380 308.367 C 166.745 308.294,166.874 306.040,166.950 298.395 L 167.049 288.519 170.160 288.519 C 171.916 288.519,173.354 288.684,173.460 288.898 C 173.563 289.107,173.606 289.065,173.553 288.806 C 173.450 288.291,167.405 287.904,166.927 288.382 M59.500 290.370 C 59.829 292.312,61.062 295.424,61.717 295.967 C 62.127 296.308,62.076 296.058,61.538 295.101 C 61.123 294.361,60.444 292.702,60.031 291.415 C 59.618 290.127,59.379 289.657,59.500 290.370 M67.794 289.737 C 67.765 290.253,69.332 293.114,70.236 294.195 C 71.371 295.553,71.374 295.045,70.240 293.553 C 69.760 292.923,69.017 291.741,68.589 290.926 C 68.161 290.111,67.803 289.576,67.794 289.737 M117.413 290.025 C 117.403 291.023,118.469 294.237,119.065 295.006 C 119.458 295.514,119.404 295.188,118.891 293.951 C 118.482 292.966,118.146 291.800,118.142 291.358 C 118.139 290.917,117.975 290.306,117.778 290.000 C 117.462 289.512,117.418 289.515,117.413 290.025 M173.719 289.907 C 173.740 290.279,175.150 292.843,175.170 292.545 C 175.195 292.162,174.079 289.630,173.884 289.630 C 173.785 289.630,173.711 289.755,173.719 289.907 M109.265 291.327 C 109.268 291.921,109.430 292.657,109.625 292.963 C 109.866 293.341,109.907 293.046,109.752 292.037 C 109.471 290.206,109.257 289.895,109.265 291.327 M139.265 294.062 C 136.381 300.219,126.416 302.054,121.420 297.349 C 120.580 296.558,119.826 295.977,119.745 296.058 C 119.664 296.139,120.353 296.870,121.276 297.683 C 125.357 301.275,133.493 301.121,137.319 297.381 C 138.588 296.141,140.459 293.045,140.275 292.492 C 140.212 292.304,139.758 293.010,139.265 294.062 M224.848 298.704 C 227.130 302.065,229.254 305.023,229.568 305.278 C 229.882 305.532,229.412 304.657,228.523 303.333 C 227.634 302.009,226.797 300.843,226.662 300.741 C 226.527 300.639,225.219 298.764,223.756 296.574 C 222.292 294.384,221.005 292.593,220.896 292.593 C 220.787 292.593,222.566 295.343,224.848 298.704 M274.948 293.928 C 274.432 295.354,273.213 296.728,271.359 297.977 C 270.311 298.682,269.647 299.259,269.884 299.259 C 271.180 299.259,276.107 294.132,275.446 293.470 C 275.312 293.337,275.088 293.543,274.948 293.928 M110.006 294.290 C 110.009 294.681,110.181 295.250,110.387 295.556 C 110.662 295.961,110.696 295.811,110.515 295.000 C 110.210 293.638,109.998 293.343,110.006 294.290 M257.900 295.000 C 258.494 296.194,259.943 297.634,261.561 298.636 C 263.431 299.795,263.152 299.269,261.199 297.953 C 260.132 297.235,259.253 296.526,259.246 296.379 C 259.239 296.232,258.808 295.611,258.290 295.000 L 257.347 293.889 257.900 295.000 M283.175 295.026 C 283.038 295.569,283.010 296.097,283.112 296.199 C 283.214 296.300,283.409 295.940,283.545 295.397 C 283.681 294.854,283.709 294.327,283.607 294.225 C 283.506 294.123,283.311 294.484,283.175 295.026 M185.443 295.736 C 185.782 296.446,186.124 296.962,186.205 296.882 C 186.374 296.712,185.250 294.444,184.996 294.444 C 184.903 294.444,185.104 295.026,185.443 295.736 M72.396 296.278 C 74.229 299.243,83.331 301.292,87.155 299.600 C 87.907 299.267,87.898 299.255,87.022 299.424 C 81.912 300.408,77.909 299.760,74.405 297.381 C 73.147 296.526,72.243 296.030,72.396 296.278 M91.296 297.271 C 90.278 297.988,89.111 298.718,88.704 298.893 C 88.296 299.069,88.175 299.223,88.433 299.236 C 88.913 299.260,91.328 297.847,92.920 296.612 C 94.469 295.409,93.220 295.916,91.296 297.271 M96.757 298.456 C 99.213 300.849,99.327 301.033,98.875 301.881 C 98.439 302.700,98.451 302.734,99.013 302.269 C 99.352 301.990,99.630 301.570,99.630 301.336 C 99.630 300.843,94.945 295.926,94.476 295.926 C 94.303 295.926,95.330 297.064,96.757 298.456 M110.763 296.563 C 110.686 298.111,114.358 302.938,117.037 304.811 C 117.750 305.310,117.072 304.473,115.531 302.951 C 113.757 301.201,112.371 299.437,111.757 298.148 C 111.223 297.028,110.776 296.314,110.763 296.563 M62.225 296.795 C 62.214 298.192,69.532 305.406,70.241 304.697 C 70.350 304.588,69.965 304.253,69.386 303.951 C 68.183 303.325,64.022 299.205,62.947 297.574 C 62.551 296.973,62.226 296.622,62.225 296.795 M281.486 298.971 C 279.864 301.767,276.946 304.458,273.967 305.902 C 272.702 306.516,271.882 307.022,272.144 307.028 C 274.755 307.079,283.584 298.902,282.898 297.068 C 282.832 296.890,282.197 297.746,281.486 298.971 M186.859 298.777 C 187.414 300.106,187.778 300.706,187.778 300.292 C 187.778 299.893,186.652 297.407,186.472 297.407 C 186.370 297.407,186.544 298.024,186.859 298.777 M250.000 297.456 C 250.000 298.679,255.560 305.304,256.118 304.746 C 256.206 304.658,255.549 303.977,254.658 303.232 C 253.767 302.487,252.354 300.831,251.519 299.553 C 250.683 298.274,250.000 297.331,250.000 297.456 M145.360 300.093 C 144.792 300.958,143.561 302.402,142.626 303.300 C 141.538 304.345,141.326 304.659,142.037 304.172 C 143.404 303.235,145.004 301.460,145.994 299.783 C 147.052 297.989,146.596 298.213,145.360 300.093 M178.148 299.595 C 178.148 299.779,178.476 300.571,178.877 301.354 C 179.277 302.137,180.188 304.069,180.901 305.648 C 181.614 307.227,182.395 308.519,182.638 308.519 C 182.930 308.519,182.889 308.301,182.513 307.870 C 182.203 307.514,181.156 305.431,180.186 303.241 C 178.519 299.474,178.148 298.811,178.148 299.595 M264.722 299.772 C 265.656 299.970,266.936 299.970,267.870 299.772 C 269.263 299.476,269.082 299.438,266.296 299.438 C 263.510 299.438,263.329 299.476,264.722 299.772 M188.519 302.282 C 188.519 302.397,189.029 303.616,189.653 304.992 C 190.277 306.368,190.699 307.724,190.590 308.006 C 190.482 308.288,190.555 308.519,190.752 308.519 C 191.357 308.519,191.157 307.420,190.121 305.046 C 189.211 302.963,188.519 301.768,188.519 302.282 M97.615 302.927 C 97.485 303.137,96.260 303.981,94.893 304.801 C 93.526 305.621,92.590 306.293,92.813 306.294 C 93.036 306.295,94.286 305.610,95.591 304.772 C 98.387 302.975,98.330 303.021,98.062 302.753 C 97.946 302.638,97.745 302.716,97.615 302.927 M70.741 305.143 C 70.741 305.447,72.601 306.411,72.802 306.211 C 72.864 306.148,72.426 305.816,71.828 305.473 C 71.230 305.130,70.741 304.981,70.741 305.143 M138.781 305.840 C 137.805 306.346,137.077 306.830,137.162 306.915 C 137.393 307.146,140.741 305.458,140.741 305.111 C 140.741 304.948,140.699 304.838,140.648 304.867 C 140.597 304.896,139.757 305.334,138.781 305.840 M256.667 305.215 C 256.667 305.553,259.977 307.108,260.388 306.963 C 260.561 306.902,259.795 306.425,258.685 305.903 C 257.575 305.382,256.667 305.072,256.667 305.215 M230.790 307.125 C 231.272 307.886,231.893 308.511,232.171 308.514 C 232.522 308.517,232.464 308.322,231.981 307.870 C 231.599 307.514,230.978 306.889,230.600 306.481 C 230.155 306.001,230.222 306.227,230.790 307.125 M75.741 307.407 C 76.148 307.582,76.815 307.721,77.222 307.715 C 77.818 307.706,77.781 307.646,77.037 307.407 C 75.771 307.002,74.797 307.002,75.741 307.407 M88.519 307.407 C 87.774 307.646,87.738 307.706,88.333 307.715 C 88.741 307.721,89.407 307.582,89.815 307.407 C 90.759 307.002,89.785 307.002,88.519 307.407 M122.222 307.407 C 122.528 307.605,123.111 307.757,123.519 307.746 L 124.259 307.726 123.519 307.407 C 122.411 306.932,121.486 306.932,122.222 307.407 M134.630 307.477 C 134.019 307.684,131.435 307.875,128.889 307.903 C 124.603 307.949,124.424 307.979,126.481 308.295 C 128.825 308.656,135.085 308.091,136.244 307.414 C 137.076 306.929,136.143 306.965,134.630 307.477 M261.667 307.398 C 262.374 307.711,264.735 307.923,264.414 307.644 C 264.329 307.571,263.509 307.411,262.593 307.290 C 261.480 307.143,261.172 307.179,261.667 307.398 M269.259 307.407 L 267.963 307.680 269.259 307.723 C 269.972 307.747,270.806 307.605,271.111 307.407 C 271.785 306.972,271.327 306.972,269.259 307.407 M79.444 308.208 C 81.316 308.546,84.205 308.551,86.072 308.219 C 86.962 308.061,85.684 307.959,82.739 307.952 C 79.689 307.944,78.498 308.037,79.444 308.208 M265.463 308.039 C 265.921 308.127,266.671 308.127,267.130 308.039 C 267.588 307.951,267.213 307.879,266.296 307.879 C 265.380 307.879,265.005 307.951,265.463 308.039 " stroke="none" fill="#a1a1a1" fill-rule="evenodd"></path><path id="path3" d="M197.130 126.939 C 198.097 127.015,199.681 127.015,200.648 126.939 C 201.616 126.863,200.824 126.800,198.889 126.800 C 196.954 126.800,196.162 126.863,197.130 126.939 M198.246 148.414 C 198.809 148.499,199.642 148.497,200.098 148.409 C 200.553 148.321,200.093 148.251,199.074 148.254 C 198.056 148.257,197.683 148.329,198.246 148.414 M150.476 175.370 C 150.479 176.389,150.551 176.762,150.636 176.199 C 150.721 175.636,150.719 174.802,150.631 174.347 C 150.543 173.891,150.474 174.352,150.476 175.370 M165.185 209.815 C 165.876 210.528,166.525 211.111,166.627 211.111 C 166.729 211.111,166.247 210.528,165.556 209.815 C 164.865 209.102,164.216 208.519,164.114 208.519 C 164.012 208.519,164.494 209.102,165.185 209.815 M197.500 223.603 C 198.264 223.683,199.514 223.683,200.278 223.603 C 201.042 223.523,200.417 223.458,198.889 223.458 C 197.361 223.458,196.736 223.523,197.500 223.603 M258.796 259.907 C 262.921 259.967,269.671 259.967,273.796 259.907 C 277.921 259.847,274.546 259.799,266.296 259.799 C 258.046 259.799,254.671 259.847,258.796 259.907 M296.400 259.902 C 297.374 259.979,298.874 259.978,299.733 259.900 C 300.593 259.823,299.796 259.760,297.963 259.761 C 296.130 259.762,295.426 259.826,296.400 259.902 M239.630 284.000 L 239.815 307.593 239.910 284.281 C 239.963 271.459,239.879 260.842,239.725 260.688 C 239.571 260.533,239.528 271.024,239.630 284.000 M250.872 263.889 C 250.871 265.722,250.934 266.519,251.011 265.659 C 251.089 264.800,251.090 263.300,251.013 262.326 C 250.937 261.352,250.873 262.056,250.872 263.889 M325.644 276.799 C 325.561 292.095,325.518 293.028,324.907 292.795 C 324.388 292.598,324.351 292.641,324.722 293.015 C 325.833 294.134,325.933 292.653,325.833 276.644 L 325.733 260.556 325.644 276.799 M293.789 284.515 C 293.742 297.082,293.829 307.441,293.981 307.536 C 294.234 307.691,294.230 290.881,293.973 269.815 C 293.919 265.333,293.836 271.948,293.789 284.515 M259.006 267.685 C 263.247 267.744,270.080 267.744,274.191 267.685 C 278.303 267.625,274.833 267.576,266.481 267.577 C 258.130 267.577,254.766 267.625,259.006 267.685 M71.643 272.685 L 70.556 273.889 71.759 272.801 C 72.881 271.787,73.133 271.481,72.847 271.481 C 72.783 271.481,72.242 272.023,71.643 272.685 M264.714 272.490 C 265.371 272.571,266.538 272.573,267.307 272.493 C 268.075 272.412,267.537 272.345,266.111 272.344 C 264.685 272.342,264.056 272.408,264.714 272.490 M190.456 274.074 C 190.456 274.787,190.533 275.079,190.626 274.722 C 190.719 274.366,190.719 273.782,190.626 273.426 C 190.533 273.069,190.456 273.361,190.456 274.074 M301.396 291.093 C 301.341 300.249,301.418 307.620,301.566 307.471 C 301.921 307.116,302.119 274.444,301.767 274.444 C 301.618 274.444,301.451 281.936,301.396 291.093 M166.908 288.056 C 166.813 288.208,167.678 288.286,168.831 288.229 C 172.448 288.048,172.885 287.891,169.929 287.833 C 168.363 287.803,167.003 287.903,166.908 288.056 M256.407 290.000 C 256.407 291.120,256.477 291.579,256.562 291.019 C 256.646 290.458,256.646 289.542,256.562 288.981 C 256.477 288.421,256.407 288.880,256.407 290.000 M200.328 308.255 C 200.490 308.416,202.190 308.499,204.107 308.438 L 207.593 308.329 203.813 308.146 C 201.735 308.045,200.166 308.095,200.328 308.255 M160.833 308.420 C 161.801 308.497,163.384 308.497,164.352 308.420 C 165.319 308.344,164.528 308.282,162.593 308.282 C 160.657 308.282,159.866 308.344,160.833 308.420 M184.722 308.421 C 185.792 308.496,187.542 308.496,188.611 308.421 C 189.681 308.346,188.806 308.285,186.667 308.285 C 184.528 308.285,183.653 308.346,184.722 308.421 M234.167 308.420 C 235.134 308.497,236.718 308.497,237.685 308.420 C 238.653 308.344,237.861 308.282,235.926 308.282 C 233.991 308.282,233.199 308.344,234.167 308.420 " stroke="none" fill="#7c7c7c" fill-rule="evenodd"></path><path id="path4" d="M156.754 103.980 L 156.852 114.630 199.630 114.630 L 242.407 114.630 242.407 104.074 L 242.407 93.519 199.531 93.424 L 156.655 93.330 156.754 103.980 M242.222 104.074 L 242.222 114.444 199.630 114.444 L 157.037 114.444 157.037 104.074 L 157.037 93.704 199.630 93.704 L 242.222 93.704 242.222 104.074 M196.389 127.312 C 197.764 127.383,200.014 127.383,201.389 127.312 C 202.764 127.240,201.639 127.182,198.889 127.182 C 196.139 127.182,195.014 127.240,196.389 127.312 M189.815 127.778 C 188.824 128.030,188.804 128.061,189.630 128.061 C 190.139 128.061,191.056 127.933,191.667 127.778 C 192.658 127.526,192.678 127.495,191.852 127.495 C 191.343 127.495,190.426 127.622,189.815 127.778 M206.481 127.799 C 208.358 128.187,209.874 128.170,208.333 127.778 C 207.722 127.622,206.722 127.494,206.111 127.494 C 205.177 127.493,205.236 127.541,206.481 127.799 M186.667 128.535 C 186.261 128.810,186.411 128.844,187.222 128.663 C 188.584 128.358,188.880 128.146,187.932 128.154 C 187.542 128.157,186.972 128.329,186.667 128.535 M181.667 130.172 C 180.236 130.827,180.902 130.836,182.593 130.185 C 183.306 129.911,183.639 129.681,183.333 129.675 C 183.028 129.668,182.278 129.892,181.667 130.172 M215.394 130.153 C 217.263 130.967,218.450 131.166,216.852 130.397 C 216.037 130.005,215.120 129.679,214.815 129.672 C 214.509 129.664,214.770 129.881,215.394 130.153 M219.945 132.041 C 220.832 132.548,221.665 132.958,221.797 132.951 C 222.180 132.933,219.114 131.115,218.704 131.117 C 218.500 131.119,219.059 131.535,219.945 132.041 M174.630 133.588 C 172.026 134.982,168.482 137.771,165.370 140.873 L 162.037 144.197 165.572 140.895 C 168.543 138.119,171.356 135.990,175.408 133.448 C 176.435 132.803,175.922 132.896,174.630 133.588 M222.407 133.232 C 222.611 133.426,223.444 133.960,224.259 134.417 C 225.074 134.875,225.407 134.972,225.000 134.633 C 224.173 133.946,221.826 132.677,222.407 133.232 M228.519 137.276 C 229.435 138.048,231.338 139.810,232.748 141.191 C 234.158 142.572,235.371 143.642,235.444 143.568 C 235.643 143.369,229.463 137.593,228.064 136.671 C 227.305 136.170,227.475 136.397,228.519 137.276 M237.185 146.204 C 238.152 147.477,239.013 148.519,239.100 148.519 C 239.360 148.519,236.706 144.938,236.043 144.393 C 235.705 144.116,236.219 144.931,237.185 146.204 M161.236 145.278 C 160.305 146.320,158.785 148.519,158.996 148.519 C 159.082 148.519,159.838 147.602,160.676 146.481 C 162.273 144.346,162.495 143.870,161.236 145.278 M193.519 148.526 C 193.048 148.733,193.588 148.772,195.000 148.633 C 196.222 148.514,197.292 148.355,197.377 148.282 C 197.705 147.997,194.219 148.218,193.519 148.526 M200.772 148.282 C 200.856 148.355,201.926 148.509,203.148 148.622 C 204.529 148.751,205.020 148.714,204.444 148.525 C 203.530 148.226,200.473 148.023,200.772 148.282 M239.815 150.000 C 240.131 150.611,240.473 151.111,240.575 151.111 C 240.676 151.111,240.501 150.611,240.185 150.000 C 239.869 149.389,239.527 148.889,239.425 148.889 C 239.324 148.889,239.499 149.389,239.815 150.000 M185.431 151.563 C 182.813 152.983,178.523 156.879,177.004 159.217 C 176.393 160.157,176.270 160.426,176.729 159.815 C 178.698 157.198,183.373 153.037,185.795 151.746 C 187.191 151.001,188.167 150.391,187.963 150.391 C 187.759 150.391,186.620 150.918,185.431 151.563 M214.160 152.992 C 216.824 154.759,218.362 156.197,220.868 159.266 L 221.922 160.556 220.905 159.074 C 218.856 156.088,213.045 151.111,211.608 151.111 C 211.452 151.111,212.600 151.957,214.160 152.992 M240.741 151.686 C 240.741 151.799,241.157 152.504,241.667 153.254 C 242.792 154.910,242.888 154.617,241.815 152.799 C 241.087 151.565,240.741 151.206,240.741 151.686 M153.889 157.778 C 153.750 158.216,153.719 158.658,153.821 158.760 C 153.923 158.861,154.120 158.586,154.259 158.148 C 154.398 157.710,154.429 157.268,154.327 157.166 C 154.225 157.065,154.028 157.340,153.889 157.778 M222.185 161.296 C 222.809 162.504,223.322 163.174,223.319 162.778 C 223.318 162.574,222.976 161.991,222.559 161.481 C 222.056 160.866,221.931 160.804,222.185 161.296 M174.326 163.536 C 173.456 165.360,173.578 165.671,174.488 163.947 C 174.901 163.163,175.173 162.457,175.093 162.377 C 175.013 162.297,174.668 162.818,174.326 163.536 M245.619 163.333 C 245.637 164.296,246.220 165.876,246.233 165.000 C 246.239 164.593,246.101 163.926,245.926 163.519 C 245.731 163.065,245.612 162.993,245.619 163.333 M151.895 164.507 C 151.871 164.847,151.756 165.430,151.639 165.803 C 151.437 166.446,151.448 166.447,151.849 165.822 C 152.082 165.459,152.197 164.875,152.105 164.525 C 151.954 163.952,151.934 163.950,151.895 164.507 M246.368 167.037 C 246.359 167.546,246.485 168.713,246.648 169.630 L 246.944 171.296 246.947 169.815 C 246.948 169.000,246.822 167.833,246.667 167.222 C 246.410 166.215,246.382 166.198,246.368 167.037 M224.878 167.037 C 224.897 167.999,225.480 169.580,225.493 168.704 C 225.499 168.296,225.360 167.630,225.185 167.222 C 224.990 166.768,224.871 166.697,224.878 167.037 M151.212 168.889 C 151.212 169.806,151.284 170.181,151.372 169.722 C 151.461 169.264,151.461 168.514,151.372 168.056 C 151.284 167.597,151.212 167.972,151.212 168.889 M225.737 175.376 C 225.735 178.624,225.841 180.290,225.994 179.427 C 226.309 177.651,226.297 172.450,225.975 170.949 C 225.846 170.350,225.739 172.342,225.737 175.376 M150.847 172.407 C 150.849 173.426,150.921 173.799,151.007 173.236 C 151.092 172.673,151.089 171.839,151.001 171.384 C 150.914 170.928,150.844 171.389,150.847 172.407 M171.995 175.185 C 171.995 177.731,172.054 178.773,172.126 177.500 C 172.198 176.227,172.198 174.144,172.126 172.870 C 172.054 171.597,171.995 172.639,171.995 175.185 M247.148 175.185 C 247.148 176.306,247.217 176.764,247.302 176.204 C 247.387 175.644,247.387 174.727,247.302 174.167 C 247.217 173.606,247.148 174.065,247.148 175.185 M150.847 177.963 C 150.849 178.981,150.921 179.354,151.007 178.791 C 151.092 178.228,151.089 177.395,151.001 176.939 C 150.914 176.484,150.844 176.944,150.847 177.963 M246.508 181.508 C 246.366 182.758,246.327 183.858,246.420 183.951 C 246.513 184.043,246.707 183.099,246.852 181.852 C 246.997 180.605,247.036 179.505,246.940 179.409 C 246.844 179.313,246.649 180.257,246.508 181.508 M151.212 181.481 C 151.212 182.398,151.284 182.773,151.372 182.315 C 151.461 181.856,151.461 181.106,151.372 180.648 C 151.284 180.190,151.212 180.565,151.212 181.481 M225.228 181.544 C 225.205 181.884,225.089 182.467,224.972 182.840 C 224.770 183.483,224.781 183.484,225.182 182.859 C 225.415 182.496,225.530 181.913,225.438 181.562 C 225.288 180.989,225.267 180.987,225.228 181.544 M151.708 185.000 C 152.012 186.362,152.224 186.657,152.217 185.710 C 152.213 185.319,152.042 184.750,151.835 184.444 C 151.560 184.039,151.526 184.189,151.708 185.000 M173.890 185.556 C 174.228 186.677,175.509 189.259,175.728 189.259 C 175.893 189.259,174.093 185.135,173.788 184.815 C 173.691 184.713,173.737 185.046,173.890 185.556 M245.741 185.926 C 245.600 186.566,245.562 187.167,245.657 187.262 C 245.751 187.356,245.935 186.901,246.065 186.250 C 246.374 184.706,246.074 184.407,245.741 185.926 M222.840 187.631 C 222.286 188.761,221.984 189.592,222.170 189.477 C 222.574 189.227,224.174 185.902,223.982 185.710 C 223.908 185.637,223.394 186.501,222.840 187.631 M220.532 191.360 C 219.962 192.108,219.684 192.602,219.916 192.460 C 220.390 192.167,221.993 190.000,221.736 190.000 C 221.644 190.000,221.103 190.612,220.532 191.360 M243.374 193.374 C 243.146 194.029,243.024 194.629,243.104 194.709 C 243.183 194.788,243.434 194.317,243.663 193.663 C 243.891 193.008,244.013 192.408,243.933 192.328 C 243.854 192.249,243.603 192.720,243.374 193.374 M180.448 194.936 C 182.609 197.055,185.185 198.913,185.185 198.352 C 185.185 198.251,184.689 197.910,184.082 197.597 C 183.475 197.283,181.850 196.007,180.471 194.762 L 177.963 192.498 180.448 194.936 M218.128 194.352 L 216.852 195.741 218.241 194.464 C 219.533 193.276,219.800 192.963,219.517 192.963 C 219.455 192.963,218.830 193.588,218.128 194.352 M241.524 197.412 C 241.067 198.224,240.771 198.889,240.866 198.889 C 241.116 198.889,242.647 196.228,242.488 196.069 C 242.414 195.995,241.980 196.599,241.524 197.412 M214.520 197.196 C 212.799 198.412,212.557 198.760,214.010 197.928 C 214.688 197.540,215.416 197.014,215.629 196.759 C 216.177 196.105,215.920 196.206,214.520 197.196 M156.675 198.426 C 156.679 198.579,157.023 199.120,157.438 199.630 L 158.193 200.556 157.605 199.352 C 157.047 198.208,156.657 197.820,156.675 198.426 M185.556 198.685 C 185.556 198.787,186.056 199.128,186.667 199.444 C 187.278 199.760,187.778 199.936,187.778 199.834 C 187.778 199.732,187.278 199.390,186.667 199.074 C 186.056 198.758,185.556 198.583,185.556 198.685 M210.370 199.630 C 209.657 200.020,209.207 200.346,209.370 200.355 C 209.763 200.375,211.852 199.289,211.852 199.065 C 211.852 198.822,211.830 198.830,210.370 199.630 M189.630 200.724 C 189.935 200.931,190.505 201.102,190.895 201.105 C 191.843 201.113,191.547 200.901,190.185 200.596 C 189.374 200.415,189.224 200.449,189.630 200.724 M159.577 202.793 C 160.378 204.023,161.329 205.273,161.692 205.570 C 162.054 205.868,161.779 205.347,161.082 204.412 C 158.588 201.069,158.142 200.590,159.577 202.793 M192.222 201.465 C 192.528 201.671,193.097 201.843,193.488 201.846 C 194.435 201.854,194.140 201.642,192.778 201.337 C 191.966 201.156,191.816 201.190,192.222 201.465 M197.095 202.325 C 198.122 202.525,199.620 202.525,200.799 202.326 C 202.625 202.017,202.493 201.991,199.074 201.991 C 195.843 201.991,195.590 202.033,197.095 202.325 M237.344 203.981 C 234.415 207.959,229.122 212.871,224.907 215.521 C 222.586 216.981,222.290 217.479,224.537 216.144 C 229.284 213.323,240.970 201.852,239.097 201.852 C 238.996 201.852,238.207 202.810,237.344 203.981 M163.027 207.359 C 163.501 207.943,163.947 208.371,164.018 208.310 C 164.218 208.137,162.816 206.321,162.472 206.308 C 162.304 206.302,162.554 206.774,163.027 207.359 M165.370 209.594 C 166.548 210.883,170.000 213.881,170.000 213.615 C 170.000 213.529,168.708 212.315,167.130 210.919 C 165.551 209.522,164.759 208.926,165.370 209.594 M170.370 213.899 C 170.370 213.998,171.495 214.796,172.870 215.673 C 176.176 217.780,176.296 217.849,176.296 217.652 C 176.296 217.558,174.963 216.635,173.333 215.600 C 171.704 214.566,170.370 213.800,170.370 213.899 M221.111 217.778 C 220.398 218.168,219.948 218.494,220.111 218.503 C 220.503 218.524,222.593 217.437,222.593 217.213 C 222.593 216.970,222.571 216.979,221.111 217.778 M177.407 218.333 C 177.917 218.624,178.500 218.863,178.704 218.863 C 178.907 218.863,178.657 218.624,178.148 218.333 C 177.639 218.042,177.056 217.804,176.852 217.804 C 176.648 217.804,176.898 218.042,177.407 218.333 M214.444 220.556 C 213.731 220.830,213.398 221.055,213.704 221.055 C 214.009 221.055,214.843 220.830,215.556 220.556 C 216.269 220.281,216.602 220.056,216.296 220.056 C 215.991 220.056,215.157 220.281,214.444 220.556 M184.815 221.296 C 185.528 221.571,186.444 221.797,186.852 221.799 C 187.259 221.801,186.843 221.566,185.926 221.277 C 183.833 220.618,183.086 220.630,184.815 221.296 M204.074 222.963 L 202.407 223.222 203.889 223.252 C 204.704 223.268,205.704 223.138,206.111 222.963 C 206.969 222.594,206.446 222.594,204.074 222.963 M193.241 223.224 C 193.699 223.313,194.449 223.313,194.907 223.224 C 195.366 223.136,194.991 223.064,194.074 223.064 C 193.157 223.064,192.782 223.136,193.241 223.224 M260.648 260.277 C 264.569 260.337,270.986 260.337,274.907 260.277 C 278.829 260.217,275.620 260.168,267.778 260.168 C 259.935 260.168,256.727 260.217,260.648 260.277 M294.164 283.796 L 294.259 307.593 297.778 307.616 L 301.296 307.639 297.870 307.509 L 294.444 307.380 294.444 283.890 L 294.444 260.400 297.500 260.276 L 300.556 260.151 297.312 260.075 L 294.069 260.000 294.164 283.796 M301.747 260.636 C 302.147 261.036,303.101 262.307,303.866 263.460 C 304.632 264.613,305.432 265.664,305.645 265.796 C 305.857 265.927,305.119 264.728,304.005 263.131 C 302.891 261.534,301.763 260.156,301.499 260.068 C 301.235 259.979,301.346 260.235,301.747 260.636 M329.907 260.261 C 330.366 260.350,331.116 260.350,331.574 260.261 C 332.032 260.173,331.657 260.101,330.741 260.101 C 329.824 260.101,329.449 260.173,329.907 260.261 M332.889 260.444 C 333.223 260.779,333.356 266.674,333.423 284.241 L 333.513 307.593 333.618 284.630 C 333.724 261.500,333.679 260.000,332.882 260.000 C 332.549 260.000,332.551 260.107,332.889 260.444 M82.134 260.632 C 82.595 260.721,83.261 260.718,83.615 260.625 C 83.970 260.532,83.593 260.460,82.778 260.464 C 81.963 260.468,81.673 260.544,82.134 260.632 M109.430 260.831 C 109.331 261.088,109.296 267.715,109.352 275.557 L 109.454 289.815 109.542 275.278 L 109.630 260.741 129.092 260.741 L 148.555 260.741 148.444 276.671 C 148.383 285.433,148.460 292.111,148.615 291.511 C 148.770 290.911,148.854 283.700,148.801 275.488 L 148.704 260.556 129.156 260.460 C 113.693 260.384,109.571 260.461,109.430 260.831 M159.059 260.833 C 158.962 261.088,158.927 271.880,158.981 284.815 L 159.080 308.333 159.169 284.544 L 159.259 260.755 167.500 260.648 L 175.741 260.541 167.488 260.456 C 161.164 260.390,159.195 260.479,159.059 260.833 M200.247 260.617 C 199.904 260.960,199.935 307.694,200.278 307.906 C 200.431 308.000,200.511 297.433,200.458 284.422 L 200.360 260.767 204.161 260.647 L 207.963 260.527 204.228 260.448 C 202.174 260.406,200.383 260.481,200.247 260.617 M236.016 260.641 L 239.254 260.768 239.353 284.458 L 239.453 308.148 239.449 284.352 L 239.444 260.556 236.111 260.535 L 232.778 260.514 236.016 260.641 M77.222 261.130 C 76.492 261.328,76.872 261.361,78.333 261.225 C 79.556 261.111,80.625 260.956,80.710 260.880 C 80.985 260.632,78.365 260.820,77.222 261.130 M84.846 260.880 C 84.931 260.956,86.000 261.111,87.222 261.225 C 88.683 261.361,89.064 261.328,88.333 261.130 C 87.191 260.820,84.570 260.632,84.846 260.880 M178.333 261.235 C 179.556 261.500,180.972 261.829,181.481 261.966 C 182.148 262.145,182.085 262.066,181.254 261.682 C 180.619 261.389,179.203 261.061,178.106 260.952 L 176.111 260.754 178.333 261.235 M231.940 276.923 C 231.884 287.337,231.717 293.373,231.481 293.519 C 231.278 293.644,231.110 293.613,231.109 293.448 C 231.108 293.283,230.683 292.648,230.164 292.037 C 229.222 290.927,229.222 290.927,230.215 292.500 C 232.265 295.746,232.247 295.895,232.130 276.852 L 232.029 260.556 231.940 276.923 M281.849 263.965 C 281.749 265.840,281.799 267.241,281.960 267.078 C 282.122 266.916,282.204 265.382,282.143 263.669 L 282.031 260.556 281.849 263.965 M209.984 263.681 C 210.806 264.890,211.648 265.985,211.855 266.113 C 212.063 266.241,211.467 265.252,210.532 263.914 C 209.597 262.576,208.755 261.481,208.661 261.481 C 208.568 261.481,209.163 262.471,209.984 263.681 M71.019 263.545 C 70.458 263.849,70.000 264.176,70.000 264.271 C 70.000 264.629,70.585 264.405,71.481 263.704 C 72.582 262.843,72.417 262.786,71.019 263.545 M94.074 263.673 C 94.966 264.400,95.556 264.637,95.556 264.269 C 95.556 264.172,95.014 263.829,94.352 263.506 L 93.148 262.918 94.074 263.673 M186.499 265.052 C 187.884 266.409,189.630 269.406,189.630 270.428 C 189.630 270.668,189.735 270.758,189.865 270.629 C 190.504 269.990,187.711 265.335,186.039 264.256 C 185.274 263.762,185.395 263.972,186.499 265.052 M97.130 265.605 C 98.969 267.256,98.902 267.626,96.314 270.108 C 95.101 271.271,94.221 272.222,94.358 272.222 C 94.887 272.222,98.889 267.955,98.889 267.391 C 98.889 266.807,97.950 265.814,96.481 264.847 C 96.074 264.579,96.366 264.920,97.130 265.605 M65.861 267.685 C 64.536 269.060,63.254 270.602,63.012 271.111 L 62.571 272.037 63.222 271.111 C 63.580 270.602,64.945 269.060,66.256 267.685 C 67.567 266.310,68.557 265.185,68.455 265.185 C 68.353 265.185,67.186 266.310,65.861 267.685 M81.759 268.039 C 82.218 268.127,82.968 268.127,83.426 268.039 C 83.884 267.951,83.509 267.879,82.593 267.879 C 81.676 267.879,81.301 267.951,81.759 268.039 M117.279 268.056 C 117.184 268.208,120.633 268.291,124.942 268.239 C 139.556 268.063,140.963 267.936,129.189 267.857 C 122.733 267.813,117.374 267.903,117.279 268.056 M169.167 268.052 C 170.440 268.124,172.523 268.124,173.796 268.052 C 175.069 267.980,174.028 267.921,171.481 267.921 C 168.935 267.921,167.894 267.980,169.167 268.052 M78.519 268.535 C 78.113 268.810,78.263 268.844,79.074 268.663 C 80.436 268.358,80.732 268.146,79.784 268.154 C 79.394 268.157,78.824 268.329,78.519 268.535 M141.276 279.444 C 141.276 285.759,141.326 288.395,141.388 285.301 C 141.450 282.207,141.450 277.040,141.388 273.819 C 141.327 270.598,141.276 273.130,141.276 279.444 M166.467 274.074 L 166.481 280.185 171.945 280.201 L 177.408 280.216 172.047 280.098 L 166.685 279.980 166.569 273.972 L 166.452 267.963 166.467 274.074 M179.955 269.587 C 180.644 269.954,181.601 270.905,182.083 271.701 C 182.565 272.497,182.960 273.001,182.961 272.821 C 182.968 271.586,180.193 268.842,179.000 268.904 C 178.837 268.913,179.267 269.220,179.955 269.587 M310.580 273.241 C 311.947 275.227,313.388 277.185,313.781 277.593 C 314.175 278.000,313.940 277.500,313.260 276.481 C 311.163 273.339,308.463 269.630,308.273 269.630 C 308.174 269.630,309.212 271.255,310.580 273.241 M217.299 274.244 C 218.887 276.578,220.299 278.495,220.438 278.503 C 220.577 278.512,220.077 277.630,219.327 276.544 C 215.563 271.095,214.772 270.000,214.600 270.000 C 214.498 270.000,215.712 271.910,217.299 274.244 M71.678 272.276 C 70.531 273.324,69.347 274.699,69.047 275.332 C 68.509 276.467,68.510 276.470,69.133 275.556 C 69.481 275.046,70.746 273.671,71.946 272.500 C 74.655 269.854,74.484 269.712,71.678 272.276 M91.481 270.505 C 91.481 270.607,91.981 271.046,92.593 271.481 C 93.204 271.917,93.704 272.189,93.704 272.087 C 93.704 271.986,93.204 271.546,92.593 271.111 C 91.981 270.676,91.481 270.403,91.481 270.505 M264.537 272.865 C 265.505 272.941,267.088 272.941,268.056 272.865 C 269.023 272.789,268.231 272.726,266.296 272.726 C 264.361 272.726,263.569 272.789,264.537 272.865 M61.117 274.537 C 60.736 275.403,60.327 276.611,60.208 277.222 C 60.089 277.833,60.309 277.480,60.697 276.438 C 61.085 275.395,61.593 274.187,61.826 273.752 C 62.058 273.318,62.150 272.963,62.029 272.963 C 61.909 272.963,61.498 273.671,61.117 274.537 M260.556 273.333 C 260.089 273.534,260.020 273.652,260.370 273.652 C 260.676 273.652,261.259 273.508,261.667 273.333 C 262.134 273.133,262.202 273.015,261.852 273.015 C 261.546 273.015,260.963 273.158,260.556 273.333 M271.111 273.333 C 271.417 273.531,271.917 273.692,272.222 273.692 C 272.716 273.692,272.716 273.652,272.222 273.333 C 271.917 273.136,271.417 272.974,271.111 272.974 C 270.617 272.974,270.617 273.014,271.111 273.333 M274.676 274.799 C 275.719 275.398,277.201 276.480,277.968 277.203 C 279.584 278.727,280.179 278.966,278.861 277.562 C 277.790 276.422,273.796 273.702,273.199 273.707 C 272.967 273.709,273.632 274.200,274.676 274.799 M207.583 274.907 C 207.288 275.704,207.207 308.148,207.500 308.148 C 207.653 308.148,207.778 300.648,207.778 291.481 C 207.778 272.912,207.728 273.224,210.137 276.852 C 210.880 277.972,211.577 278.889,211.684 278.889 C 211.792 278.889,211.200 277.889,210.370 276.667 C 208.923 274.535,207.949 273.920,207.583 274.907 M255.562 276.065 C 253.878 277.398,251.751 279.901,250.881 281.574 C 250.055 283.163,250.565 282.770,251.603 281.019 C 252.638 279.272,254.371 277.370,256.313 275.851 C 257.017 275.300,257.491 274.842,257.367 274.832 C 257.243 274.823,256.430 275.377,255.562 276.065 M182.144 276.586 L 181.511 277.963 182.237 277.089 C 182.636 276.608,182.963 275.983,182.963 275.700 C 182.963 274.938,182.843 275.068,182.144 276.586 M304.429 277.384 C 305.250 278.594,306.092 279.689,306.300 279.817 C 306.507 279.945,305.912 278.955,304.976 277.618 C 304.041 276.280,303.199 275.185,303.106 275.185 C 303.012 275.185,303.607 276.175,304.429 277.384 M189.566 278.148 C 189.450 278.657,189.239 279.407,189.098 279.815 C 188.957 280.222,189.113 280.088,189.444 279.516 C 189.775 278.944,189.986 278.194,189.912 277.849 C 189.816 277.402,189.717 277.488,189.566 278.148 M179.444 279.103 C 178.630 279.590,178.130 279.990,178.333 279.992 C 178.537 279.994,179.370 279.586,180.185 279.084 C 181.000 278.582,181.500 278.182,181.296 278.195 C 181.093 278.207,180.259 278.616,179.444 279.103 M59.490 279.459 C 59.363 279.790,59.278 280.505,59.302 281.049 C 59.334 281.789,59.417 281.665,59.633 280.556 C 59.940 278.981,59.872 278.463,59.490 279.459 M280.532 280.186 C 281.821 282.085,282.085 282.311,281.368 280.899 C 281.050 280.273,280.508 279.527,280.165 279.242 C 279.821 278.957,279.986 279.381,280.532 280.186 M66.898 279.829 C 66.771 280.160,66.686 280.876,66.709 281.419 C 66.741 282.159,66.824 282.036,67.041 280.926 C 67.347 279.352,67.280 278.833,66.898 279.829 M264.815 279.840 C 266.059 280.118,268.806 280.166,268.646 279.907 C 268.552 279.755,267.526 279.649,266.367 279.673 C 265.208 279.696,264.509 279.771,264.815 279.840 M271.111 281.311 C 272.028 281.824,273.338 282.864,274.023 283.622 C 275.268 285.000,275.268 285.000,274.429 283.752 C 273.624 282.554,270.647 280.366,269.835 280.375 C 269.620 280.377,270.194 280.799,271.111 281.311 M186.605 283.002 C 185.450 284.199,184.794 285.024,185.146 284.836 C 185.813 284.479,188.889 281.273,188.889 280.934 C 188.889 280.639,188.849 280.675,186.605 283.002 M214.284 282.778 C 215.556 284.445,215.804 284.447,214.726 282.782 C 214.265 282.072,213.755 281.489,213.592 281.486 C 213.429 281.484,213.741 282.065,214.284 282.778 M258.519 283.333 C 258.083 283.944,257.811 284.444,257.913 284.444 C 258.014 284.444,258.454 283.944,258.889 283.333 C 259.324 282.722,259.597 282.222,259.495 282.222 C 259.393 282.222,258.954 282.722,258.519 283.333 M281.882 282.222 C 281.866 282.324,282.178 283.241,282.576 284.259 C 282.973 285.278,283.302 285.861,283.306 285.556 C 283.313 285.031,281.945 281.828,281.882 282.222 M66.402 284.259 C 66.405 285.278,66.477 285.650,66.562 285.088 C 66.647 284.525,66.645 283.691,66.557 283.236 C 66.469 282.780,66.399 283.241,66.402 284.259 M318.148 283.934 C 318.148 284.128,318.660 284.864,319.286 285.570 L 320.424 286.852 319.394 285.370 C 318.827 284.556,318.315 283.819,318.256 283.735 C 318.197 283.650,318.148 283.739,318.148 283.934 M249.120 286.343 C 248.990 286.993,248.952 287.594,249.036 287.678 C 249.120 287.762,249.304 287.307,249.444 286.667 C 249.585 286.026,249.623 285.425,249.529 285.331 C 249.434 285.237,249.251 285.692,249.120 286.343 M66.726 287.222 C 66.712 287.833,66.941 288.833,67.235 289.444 C 67.667 290.341,67.723 290.377,67.525 289.630 C 67.390 289.120,67.160 288.120,67.015 287.407 C 66.759 286.144,66.751 286.140,66.726 287.222 M59.265 287.623 C 59.268 288.218,59.430 288.954,59.625 289.259 C 59.866 289.638,59.907 289.342,59.752 288.333 C 59.471 286.503,59.257 286.191,59.265 287.623 M283.479 290.000 C 283.479 293.026,283.522 293.272,283.785 291.759 C 283.953 290.792,283.953 289.208,283.785 288.241 C 283.522 286.728,283.479 286.974,283.479 290.000 M227.470 288.828 C 228.148 289.858,228.839 290.710,229.004 290.721 C 229.325 290.742,227.084 287.480,226.552 287.151 C 226.378 287.044,226.791 287.798,227.470 288.828 M276.111 290.000 C 276.111 291.614,276.224 292.650,276.363 292.301 C 276.501 291.952,276.615 290.917,276.615 290.000 C 276.615 289.083,276.501 288.048,276.363 287.699 C 276.224 287.350,276.111 288.386,276.111 290.000 M321.116 288.241 C 321.512 288.903,322.267 289.944,322.794 290.556 C 323.321 291.167,323.068 290.625,322.232 289.352 C 320.643 286.931,319.872 286.163,321.116 288.241 M166.730 287.887 C 166.474 288.195,166.292 291.900,166.221 298.223 C 166.161 303.644,166.234 307.887,166.383 307.651 C 166.533 307.415,166.658 302.939,166.661 297.704 C 166.666 289.033,166.724 288.151,167.315 287.807 C 167.671 287.600,167.775 287.425,167.545 287.419 C 167.316 287.412,166.949 287.623,166.730 287.887 M170.556 287.657 C 172.995 287.962,173.328 288.165,174.238 289.913 C 174.740 290.878,175.158 291.535,175.168 291.374 C 175.278 289.504,172.939 287.381,170.858 287.463 C 169.646 287.510,169.603 287.538,170.556 287.657 M313.042 289.673 C 316.505 294.614,317.005 295.300,317.436 295.698 C 317.682 295.925,317.187 295.111,316.336 293.889 C 315.484 292.667,314.169 290.716,313.412 289.554 C 312.656 288.392,311.906 287.433,311.745 287.424 C 311.585 287.415,312.168 288.427,313.042 289.673 M219.516 290.399 C 219.884 291.026,220.422 291.734,220.711 291.973 C 221.000 292.212,220.770 291.699,220.199 290.833 C 219.000 289.015,218.527 288.715,219.516 290.399 M117.043 290.772 C 117.046 291.264,117.212 291.917,117.413 292.222 C 117.669 292.613,117.706 292.393,117.539 291.481 C 117.246 289.884,117.035 289.583,117.043 290.772 M60.027 290.634 C 59.985 291.338,61.419 294.966,62.055 295.763 C 62.519 296.345,62.510 296.238,62.007 295.204 C 61.666 294.502,61.087 293.085,60.720 292.056 C 60.354 291.027,60.042 290.387,60.027 290.634 M175.211 292.037 C 175.211 292.241,175.450 292.824,175.741 293.333 C 176.032 293.843,176.270 294.093,176.270 293.889 C 176.270 293.685,176.032 293.102,175.741 292.593 C 175.450 292.083,175.211 291.833,175.211 292.037 M248.963 292.407 C 248.963 292.815,249.096 293.565,249.259 294.074 C 249.494 294.807,249.556 294.846,249.556 294.259 C 249.556 293.852,249.422 293.102,249.259 292.593 C 249.024 291.859,248.963 291.821,248.963 292.407 M68.994 293.149 C 69.302 293.761,69.935 294.594,70.401 295.001 C 71.099 295.611,71.060 295.480,70.181 294.259 C 68.681 292.176,68.346 291.862,68.994 293.149 M222.088 293.889 C 222.655 294.704,223.167 295.440,223.226 295.525 C 223.285 295.610,223.333 295.520,223.333 295.326 C 223.333 295.131,222.821 294.395,222.195 293.690 L 221.058 292.407 222.088 293.889 M147.619 293.915 C 147.483 294.458,147.443 294.974,147.530 295.061 C 147.617 295.148,147.800 294.776,147.937 294.233 C 148.073 293.690,148.113 293.174,148.025 293.087 C 147.938 293.000,147.755 293.373,147.619 293.915 M139.517 294.634 C 139.178 295.345,138.977 295.926,139.071 295.926 C 139.324 295.926,140.448 293.658,140.279 293.489 C 140.199 293.408,139.856 293.924,139.517 294.634 M282.507 295.840 C 281.699 298.088,281.947 298.337,282.792 296.125 C 283.149 295.192,283.370 294.358,283.284 294.272 C 283.198 294.186,282.848 294.892,282.507 295.840 M119.288 296.020 C 119.721 296.785,120.516 297.716,121.056 298.089 C 122.369 298.997,123.398 299.473,122.222 298.628 C 121.318 297.978,120.799 297.440,119.258 295.556 C 118.534 294.670,118.536 294.690,119.288 296.020 M273.985 296.337 C 273.427 297.130,273.043 297.778,273.133 297.778 C 273.398 297.778,275.302 295.177,275.144 295.031 C 275.065 294.957,274.543 295.545,273.985 296.337 M146.412 297.445 C 145.967 298.443,145.672 299.259,145.757 299.259 C 146.027 299.259,147.455 296.254,147.336 295.936 C 147.274 295.768,146.858 296.448,146.412 297.445 M258.351 296.456 C 258.675 296.951,259.387 297.644,259.933 297.997 C 260.670 298.473,260.544 298.241,259.444 297.097 C 257.739 295.323,257.527 295.199,258.351 296.456 M111.132 296.216 C 111.099 296.962,112.832 300.175,113.582 300.758 C 114.229 301.260,114.231 301.250,113.625 300.535 C 113.276 300.124,112.577 298.876,112.072 297.764 C 111.567 296.651,111.144 295.955,111.132 296.216 M94.444 296.372 C 94.444 296.493,95.028 297.176,95.741 297.889 C 96.454 298.602,97.037 299.068,97.037 298.925 C 97.037 298.781,96.454 298.098,95.741 297.407 C 95.028 296.716,94.444 296.250,94.444 296.372 M137.642 297.253 C 137.059 297.766,136.654 298.259,136.744 298.348 C 136.833 298.438,137.383 298.013,137.967 297.404 C 139.256 296.058,139.089 295.981,137.642 297.253 M72.778 297.229 C 73.185 297.561,73.852 297.996,74.259 298.196 L 75.000 298.559 74.259 297.956 C 73.852 297.625,73.185 297.189,72.778 296.989 L 72.037 296.626 72.778 297.229 M177.434 296.852 C 177.434 297.056,177.672 297.639,177.963 298.148 C 178.254 298.657,178.492 298.907,178.492 298.704 C 178.492 298.500,178.254 297.917,177.963 297.407 C 177.672 296.898,177.434 296.648,177.434 296.852 M63.626 298.333 C 63.842 298.741,64.985 299.991,66.166 301.111 L 68.312 303.148 65.932 300.556 C 64.623 299.130,63.480 297.880,63.392 297.778 C 63.305 297.676,63.410 297.926,63.626 298.333 M251.902 300.000 C 252.913 301.533,254.444 303.258,254.444 302.863 C 254.444 302.711,254.042 302.129,253.550 301.571 C 253.059 301.012,252.294 300.139,251.852 299.630 C 251.111 298.777,251.115 298.806,251.902 300.000 M123.536 299.658 C 124.064 300.512,129.950 300.989,132.407 300.376 C 133.035 300.220,132.149 300.170,130.370 300.261 C 128.328 300.366,126.544 300.239,125.292 299.899 C 124.230 299.611,123.440 299.502,123.536 299.658 M143.242 301.954 C 140.763 304.638,140.450 305.235,142.624 303.131 C 143.984 301.814,145.788 299.615,145.488 299.639 C 145.423 299.644,144.412 300.686,143.242 301.954 M321.690 302.012 C 322.625 303.350,323.467 304.444,323.561 304.444 C 323.814 304.444,320.807 300.085,320.367 299.813 C 320.160 299.685,320.755 300.674,321.690 302.012 M79.465 300.419 C 80.065 300.548,81.556 300.653,82.778 300.653 C 84.000 300.653,85.491 300.548,86.090 300.419 C 86.690 300.290,85.199 300.185,82.778 300.185 C 80.356 300.185,78.866 300.290,79.465 300.419 M98.310 300.585 C 98.632 300.907,98.786 301.366,98.653 301.604 C 98.481 301.911,98.550 301.907,98.893 301.590 C 99.407 301.113,98.836 300.000,98.076 300.000 C 97.883 300.000,97.988 300.263,98.310 300.585 M227.618 301.852 C 229.286 304.280,229.981 305.061,229.101 303.519 C 228.752 302.907,227.961 301.824,227.343 301.111 C 226.436 300.066,226.489 300.209,227.618 301.852 M265.278 300.265 C 265.838 300.350,266.755 300.350,267.315 300.265 C 267.875 300.180,267.417 300.111,266.296 300.111 C 265.176 300.111,264.718 300.180,265.278 300.265 M179.290 300.926 C 179.290 301.130,179.610 301.880,180.000 302.593 C 180.390 303.306,180.710 303.722,180.710 303.519 C 180.710 303.315,180.390 302.565,180.000 301.852 C 179.610 301.139,179.290 300.722,179.290 300.926 M114.074 301.597 C 114.074 301.661,114.616 302.203,115.278 302.801 L 116.481 303.889 115.394 302.685 C 114.380 301.563,114.074 301.311,114.074 301.597 M277.778 303.013 L 276.111 304.523 277.680 303.345 C 279.045 302.321,279.921 301.458,279.559 301.493 C 279.496 301.499,278.694 302.183,277.778 303.013 M68.768 303.363 C 69.227 303.919,71.481 305.337,71.481 305.070 C 71.481 304.984,70.773 304.446,69.907 303.875 C 69.042 303.304,68.529 303.074,68.768 303.363 M95.631 303.863 C 93.911 305.079,93.668 305.427,95.121 304.595 C 95.799 304.206,96.528 303.681,96.740 303.426 C 97.288 302.772,97.031 302.873,95.631 303.863 M254.948 303.249 C 255.241 303.723,257.407 305.326,257.407 305.069 C 257.407 304.978,256.796 304.436,256.048 303.866 C 255.300 303.295,254.805 303.018,254.948 303.249 M188.915 304.259 C 188.915 304.463,189.153 305.046,189.444 305.556 C 189.736 306.065,189.974 306.315,189.974 306.111 C 189.974 305.907,189.736 305.324,189.444 304.815 C 189.153 304.306,188.915 304.056,188.915 304.259 M324.660 306.204 L 325.654 307.778 329.401 307.700 L 333.148 307.622 329.352 307.502 C 327.264 307.436,325.555 307.262,325.554 307.117 C 325.553 306.971,325.127 306.352,324.609 305.741 C 323.666 304.630,323.667 304.631,324.660 306.204 M73.519 306.119 C 74.537 306.599,75.620 306.995,75.926 306.999 C 76.231 307.003,75.495 306.596,74.289 306.095 C 71.531 304.951,71.068 304.965,73.519 306.119 M90.185 306.495 C 88.690 307.180,89.584 307.181,91.161 306.496 C 91.847 306.198,92.157 305.962,91.852 305.971 C 91.546 305.979,90.796 306.215,90.185 306.495 M136.481 306.495 C 135.870 306.775,135.620 307.005,135.926 307.007 C 136.231 307.009,136.898 306.773,137.407 306.481 C 138.578 305.812,137.953 305.821,136.481 306.495 M231.170 307.037 C 231.621 307.648,232.133 308.148,232.306 308.148 C 232.480 308.148,232.282 307.783,231.866 307.338 C 231.451 306.892,231.111 306.392,231.111 306.226 C 231.111 306.061,230.939 305.926,230.730 305.926 C 230.520 305.926,230.718 306.426,231.170 307.037 M260.741 306.650 C 261.046 306.857,261.616 307.028,262.006 307.031 C 262.954 307.039,262.658 306.827,261.296 306.522 C 260.485 306.341,260.335 306.375,260.741 306.650 M269.074 307.037 C 268.076 307.291,268.057 307.320,268.889 307.327 C 269.398 307.330,270.231 307.200,270.741 307.037 C 271.986 306.638,270.641 306.638,269.074 307.037 M78.801 307.669 C 79.261 307.758,79.928 307.755,80.282 307.662 C 80.636 307.569,80.259 307.497,79.444 307.501 C 78.630 307.505,78.340 307.581,78.801 307.669 M85.467 307.669 C 85.928 307.758,86.595 307.755,86.949 307.662 C 87.303 307.569,86.926 307.497,86.111 307.501 C 85.296 307.505,85.007 307.581,85.467 307.669 M125.097 307.669 C 125.558 307.758,126.224 307.755,126.578 307.662 C 126.932 307.569,126.556 307.497,125.741 307.501 C 124.926 307.505,124.636 307.581,125.097 307.669 M131.764 307.669 C 132.224 307.758,132.891 307.755,133.245 307.662 C 133.599 307.569,133.222 307.497,132.407 307.501 C 131.593 307.505,131.303 307.581,131.764 307.669 M265.463 307.669 C 265.921 307.757,266.671 307.757,267.130 307.669 C 267.588 307.581,267.213 307.508,266.296 307.508 C 265.380 307.508,265.005 307.581,265.463 307.669 M81.950 308.044 C 82.513 308.129,83.346 308.126,83.801 308.038 C 84.257 307.951,83.796 307.881,82.778 307.884 C 81.759 307.886,81.387 307.958,81.950 308.044 M128.426 308.039 C 128.884 308.127,129.634 308.127,130.093 308.039 C 130.551 307.951,130.176 307.879,129.259 307.879 C 128.343 307.879,127.968 307.951,128.426 308.039 " stroke="none" fill="#747474" fill-rule="evenodd"></path></g></svg>