<svg id="svg" version="1.1" xmlns="http://www.w3.org/2000/svg" xmlns:xlink="http://www.w3.org/1999/xlink" width="400" height="168.94117647058823" viewBox="0, 0, 400,168.94117647058823"><g id="svgg"><path id="path0" d="M146.167 19.689 C 129.033 20.559,120.158 24.646,113.354 34.803 C 106.831 44.539,105.118 60.619,109.446 71.478 C 114.894 85.146,124.622 92.423,140.447 94.667 C 144.413 95.230,149.506 95.352,166.833 95.300 L 183.250 95.250 183.299 94.317 L 183.348 93.385 180.966 93.284 C 174.715 93.019,172.943 91.112,172.491 84.167 C 172.243 80.353,172.380 29.522,172.643 28.000 C 173.477 23.168,175.324 21.733,180.958 21.539 L 183.333 21.458 183.333 20.479 L 183.333 19.500 166.125 19.525 C 156.660 19.538,147.679 19.612,146.167 19.689 M188.000 20.465 L 188.000 21.430 189.978 21.700 C 195.135 22.403,195.377 22.763,200.670 37.618 C 201.872 40.990,203.184 44.650,203.587 45.750 C 203.990 46.850,204.742 48.950,205.259 50.417 C 205.776 51.883,206.760 54.658,207.446 56.583 C 208.131 58.508,209.280 61.733,209.998 63.750 C 211.475 67.895,213.163 72.631,215.167 78.250 C 216.924 83.177,218.888 88.705,220.081 92.083 C 220.598 93.550,221.213 95.260,221.445 95.883 L 221.868 97.015 222.883 96.966 L 223.897 96.917 224.363 95.583 C 224.619 94.850,225.430 92.525,226.166 90.417 C 226.901 88.308,228.102 84.896,228.833 82.833 C 229.565 80.771,230.765 77.358,231.500 75.250 C 232.235 73.142,233.435 69.729,234.167 67.667 C 234.898 65.604,236.098 62.192,236.833 60.083 C 239.573 52.225,240.891 48.658,241.008 48.786 C 241.074 48.858,241.655 50.417,242.299 52.250 C 242.943 54.083,244.045 57.196,244.748 59.167 C 245.452 61.137,246.613 64.400,247.330 66.417 C 248.046 68.433,249.248 71.808,250.000 73.917 C 250.752 76.025,251.914 79.287,252.582 81.167 C 253.249 83.046,254.561 86.721,255.497 89.333 C 256.433 91.946,257.423 94.740,257.697 95.542 L 258.196 97.000 259.333 97.000 L 260.469 97.000 260.829 95.958 C 261.027 95.385,261.752 93.267,262.442 91.250 C 264.944 83.927,265.843 81.316,267.749 75.833 C 268.817 72.762,269.903 69.612,270.163 68.833 C 270.423 68.054,271.549 64.792,272.665 61.583 C 273.782 58.375,274.948 55.000,275.257 54.083 C 275.565 53.167,276.726 49.792,277.836 46.583 C 278.945 43.375,280.719 38.200,281.778 35.083 C 285.435 24.317,286.999 22.245,291.929 21.640 L 293.515 21.445 293.466 20.514 L 293.417 19.583 282.125 19.541 L 270.833 19.498 270.833 20.479 L 270.833 21.461 272.292 21.578 C 280.180 22.216,280.747 24.576,276.159 37.667 C 275.596 39.271,274.662 41.971,274.082 43.667 C 273.502 45.362,272.192 49.150,271.171 52.083 C 270.150 55.017,269.027 58.279,268.676 59.333 C 268.325 60.387,267.160 63.762,266.087 66.833 C 265.014 69.904,263.751 73.560,263.280 74.958 C 262.809 76.356,262.379 77.500,262.325 77.500 C 262.271 77.500,261.957 76.731,261.628 75.792 C 261.298 74.852,260.379 72.246,259.585 70.000 C 258.791 67.754,257.467 64.004,256.644 61.667 C 253.724 53.379,251.458 46.973,248.804 39.500 C 245.864 31.222,245.262 28.915,245.364 26.312 C 245.494 22.995,247.054 21.759,251.375 21.549 L 253.333 21.454 253.333 20.477 L 253.333 19.500 238.583 19.500 L 223.833 19.500 223.833 20.480 L 223.833 21.461 225.125 21.573 C 230.169 22.012,232.354 24.429,235.435 32.979 C 236.116 34.870,237.098 37.574,237.617 38.988 L 238.560 41.559 238.276 42.321 C 238.120 42.740,237.475 44.583,236.842 46.417 C 236.209 48.250,234.930 51.925,233.999 54.583 C 233.068 57.242,231.869 60.692,231.335 62.250 C 230.801 63.808,229.600 67.258,228.667 69.917 C 227.734 72.575,226.768 75.337,226.521 76.054 C 225.923 77.792,225.930 77.800,224.526 73.766 C 223.032 69.471,221.108 64.001,216.754 51.667 C 209.624 31.465,209.219 30.242,208.727 27.458 C 208.056 23.663,210.311 21.508,214.958 21.501 L 215.833 21.500 215.833 20.500 L 215.833 19.500 201.917 19.500 L 188.000 19.500 188.000 20.465 M155.917 24.171 C 158.111 24.495,161.520 25.131,161.625 25.237 C 161.798 25.409,161.641 89.580,161.468 89.687 C 161.236 89.830,157.447 90.563,155.083 90.923 C 137.984 93.523,123.536 83.051,120.583 65.917 C 115.999 39.327,131.833 20.621,155.917 24.171 M108.092 106.159 C 106.119 107.460,107.047 110.500,109.417 110.500 C 111.270 110.500,112.366 108.691,111.516 107.035 C 110.919 105.872,109.196 105.432,108.092 106.159 M144.827 106.077 C 144.594 106.203,143.244 106.770,141.827 107.335 C 138.832 108.530,139.158 108.347,139.270 108.777 C 139.352 109.090,139.478 109.120,140.628 109.103 C 142.951 109.067,142.881 108.546,142.804 125.333 C 142.740 139.172,142.833 138.652,140.373 138.943 C 139.596 139.035,139.500 139.090,139.500 139.440 L 139.500 139.833 144.833 139.833 L 150.167 139.833 150.167 139.451 C 150.167 139.109,150.048 139.047,149.069 138.880 C 147.912 138.681,147.475 138.405,147.025 137.584 C 146.776 137.131,146.746 135.602,146.704 121.458 L 146.658 105.833 145.954 105.840 C 145.567 105.844,145.060 105.950,144.827 106.077 M231.427 107.103 C 228.017 108.514,228.270 108.370,228.413 108.821 C 228.512 109.133,228.610 109.157,229.415 109.062 C 230.630 108.919,231.105 109.071,231.455 109.711 C 231.768 110.283,231.928 136.282,231.625 137.362 C 231.394 138.187,230.596 138.797,229.582 138.924 C 228.761 139.027,228.667 139.079,228.667 139.436 L 228.667 139.833 234.000 139.833 L 239.333 139.833 239.333 139.438 C 239.333 139.081,239.242 139.033,238.371 138.934 C 237.166 138.798,236.481 138.389,236.070 137.561 C 235.762 136.942,235.748 136.311,235.700 121.375 L 235.649 105.833 235.033 105.850 C 234.679 105.860,233.147 106.392,231.427 107.103 M247.750 106.001 C 247.567 106.081,246.171 106.659,244.649 107.286 C 242.030 108.364,241.889 108.445,242.019 108.798 C 242.146 109.141,242.229 109.162,243.065 109.064 C 245.566 108.770,245.407 107.832,245.464 123.237 C 245.523 139.114,245.545 138.992,242.708 138.999 C 242.420 139.000,242.333 139.096,242.333 139.417 L 242.333 139.833 247.667 139.833 L 253.000 139.833 253.000 139.440 C 253.000 139.086,252.906 139.035,252.069 138.936 C 250.859 138.794,250.288 138.485,249.808 137.712 L 249.417 137.083 249.370 121.458 L 249.324 105.833 248.703 105.844 C 248.362 105.850,247.933 105.920,247.750 106.001 M259.805 106.118 C 257.825 107.347,258.710 110.500,261.035 110.500 C 262.949 110.500,264.042 108.775,263.222 107.047 C 262.688 105.923,260.902 105.438,259.805 106.118 M21.500 107.734 C 21.500 108.145,21.544 108.167,22.375 108.168 C 24.245 108.170,25.479 108.913,25.814 110.240 C 26.109 111.415,26.058 136.212,25.759 137.053 C 25.302 138.333,24.528 138.819,22.731 138.955 C 21.561 139.044,21.500 139.068,21.500 139.457 L 21.500 139.865 30.292 139.784 C 40.626 139.689,41.940 139.528,45.428 137.925 C 56.505 132.833,57.081 114.640,46.333 109.361 C 42.860 107.655,41.469 107.482,30.375 107.382 L 21.500 107.302 21.500 107.734 M163.470 107.708 C 163.422 108.043,163.523 108.105,164.398 108.286 C 166.779 108.777,165.850 106.712,174.088 129.833 C 178.736 142.877,178.232 142.165,179.717 137.792 C 180.222 136.302,181.325 133.133,182.166 130.750 C 183.008 128.367,184.195 124.973,184.804 123.208 C 185.414 121.444,185.961 120.000,186.020 120.000 C 186.168 120.000,187.917 124.765,191.251 134.250 C 193.484 140.603,193.400 140.411,193.963 140.468 L 194.465 140.519 195.551 137.301 C 196.650 134.041,198.309 129.221,201.246 120.750 C 202.136 118.183,203.147 115.221,203.492 114.167 C 204.964 109.675,205.777 108.560,207.818 108.233 C 208.394 108.141,208.500 108.063,208.500 107.729 L 208.500 107.333 203.750 107.333 L 199.000 107.333 199.000 107.716 C 199.000 108.057,199.118 108.119,200.092 108.286 C 202.847 108.758,203.026 109.936,201.143 115.220 C 200.680 116.520,199.789 119.083,199.162 120.917 C 196.204 129.572,195.386 131.855,195.246 131.857 C 195.103 131.860,194.051 129.034,191.701 122.333 C 191.139 120.729,190.111 117.811,189.418 115.850 C 187.222 109.637,187.434 108.185,190.542 108.170 C 191.274 108.167,191.333 108.135,191.333 107.750 L 191.333 107.333 185.083 107.333 L 178.833 107.333 178.833 107.729 C 178.833 108.063,178.939 108.141,179.515 108.233 C 181.880 108.611,182.756 109.926,184.868 116.265 C 185.019 116.719,184.849 117.327,183.425 121.431 C 182.537 123.990,181.356 127.415,180.799 129.042 C 180.243 130.669,179.736 132.000,179.673 132.000 C 179.609 132.000,178.897 130.144,178.091 127.875 C 177.284 125.606,176.249 122.700,175.791 121.417 C 173.581 115.234,172.167 110.876,172.167 110.248 C 172.167 109.076,173.264 108.179,174.708 108.170 C 175.263 108.167,175.333 108.120,175.333 107.750 L 175.333 107.333 169.428 107.333 L 163.523 107.333 163.470 107.708 M38.757 109.430 C 44.949 110.716,48.997 116.887,48.609 124.452 C 48.114 134.086,41.286 139.578,32.117 137.715 L 30.651 137.417 30.662 123.687 C 30.669 116.135,30.711 109.896,30.756 109.823 C 31.156 109.177,36.316 108.924,38.757 109.430 M323.033 112.381 C 321.664 115.184,319.786 117.299,317.771 118.305 C 316.379 119.000,316.734 119.400,318.833 119.500 L 320.583 119.583 320.667 128.333 C 320.761 138.191,320.731 137.958,322.043 139.082 C 324.425 141.120,327.982 140.004,329.654 136.692 C 330.399 135.217,329.940 134.926,328.859 136.188 C 327.785 137.443,326.422 137.694,325.427 136.820 C 324.525 136.028,324.502 135.793,324.501 127.292 L 324.500 119.500 327.000 119.500 L 329.500 119.500 329.500 118.667 L 329.500 117.833 327.000 117.833 L 324.500 117.833 324.500 114.250 C 324.500 109.805,324.371 109.641,323.033 112.381 M63.387 117.665 C 59.534 118.675,57.197 122.633,59.327 124.542 C 60.814 125.874,62.500 124.760,62.500 122.444 C 62.500 119.813,63.851 118.486,66.305 118.708 C 68.724 118.928,69.729 120.269,69.945 123.568 C 70.064 125.381,70.194 125.230,67.793 126.073 C 59.704 128.914,56.652 132.303,58.111 136.823 C 59.365 140.705,63.508 141.281,67.833 138.173 L 69.917 136.677 70.024 137.463 C 70.483 140.836,73.235 141.104,76.292 138.073 C 77.585 136.791,77.667 136.667,77.667 136.000 L 77.667 135.291 76.944 135.957 C 75.463 137.322,74.811 137.463,74.210 136.547 C 73.944 136.141,73.909 135.398,73.833 128.657 L 73.750 121.216 73.165 120.067 C 71.950 117.681,67.498 116.588,63.387 117.665 M82.167 118.267 C 80.929 118.774,79.521 119.345,79.038 119.536 C 78.282 119.834,78.175 119.931,78.267 120.233 C 78.420 120.730,78.397 120.725,79.330 120.501 C 81.654 119.943,81.737 120.228,81.802 128.964 C 81.872 138.359,81.690 139.000,78.959 139.000 C 78.580 139.000,78.500 139.073,78.500 139.417 L 78.500 139.833 83.917 139.833 L 89.333 139.833 89.333 139.454 C 89.333 139.112,89.216 139.055,88.159 138.889 C 85.751 138.510,85.773 138.587,85.696 130.187 L 85.633 123.291 86.654 122.319 C 89.325 119.778,92.524 119.324,93.889 121.293 C 94.713 122.482,94.827 123.608,94.830 130.572 C 94.834 138.494,94.789 138.640,92.264 138.936 C 91.428 139.035,91.333 139.086,91.333 139.440 L 91.333 139.833 96.667 139.833 L 102.000 139.833 102.000 139.436 C 102.000 139.080,101.906 139.027,101.092 138.925 C 98.831 138.642,98.800 138.523,98.663 129.500 C 98.546 121.815,98.534 121.701,97.754 120.138 C 95.834 116.294,91.248 116.313,87.291 120.181 C 86.455 120.998,85.748 121.667,85.719 121.667 C 85.690 121.667,85.667 120.692,85.667 119.500 L 85.667 117.333 85.042 117.339 C 84.676 117.342,83.484 117.726,82.167 118.267 M107.417 118.429 C 105.950 119.028,104.544 119.596,104.292 119.692 C 103.276 120.078,103.829 120.736,104.964 120.492 C 107.293 119.993,107.405 120.365,107.471 128.870 C 107.543 138.078,107.413 138.633,105.116 138.920 C 104.260 139.027,104.167 139.077,104.167 139.436 L 104.167 139.833 109.417 139.833 L 114.667 139.833 114.667 139.436 C 114.667 139.080,114.573 139.027,113.759 138.925 C 111.370 138.627,111.425 138.898,111.369 127.208 L 111.321 117.333 110.702 117.337 C 110.331 117.340,109.016 117.777,107.417 118.429 M125.167 117.597 C 115.518 120.143,115.188 137.107,124.730 140.034 C 127.675 140.938,130.526 140.310,132.783 138.260 C 134.754 136.469,136.702 132.429,136.001 131.584 C 135.675 131.192,135.605 131.257,135.000 132.524 C 131.493 139.867,121.975 136.593,121.174 127.769 C 120.997 125.826,120.284 125.993,128.716 126.004 C 132.752 126.009,136.113 125.953,136.187 125.880 C 136.587 125.480,135.704 122.190,134.831 120.830 C 132.973 117.935,128.966 116.595,125.167 117.597 M214.083 117.635 C 208.699 119.235,205.778 125.620,207.250 132.569 C 208.761 139.700,216.858 142.872,221.798 138.267 C 224.017 136.199,225.999 132.034,225.015 131.508 C 224.704 131.342,224.622 131.431,224.068 132.538 C 220.313 140.042,210.620 136.370,210.294 127.319 C 210.259 126.320,210.298 126.079,210.500 126.061 C 210.637 126.049,214.040 126.030,218.061 126.019 L 225.372 126.000 225.254 124.894 C 224.899 121.578,222.928 118.762,220.316 117.836 C 218.829 117.309,215.537 117.203,214.083 117.635 M259.500 118.264 C 258.262 118.770,256.855 119.342,256.372 119.533 C 255.616 119.834,255.508 119.931,255.601 120.233 C 255.752 120.726,255.713 120.717,256.729 120.490 C 257.807 120.249,258.284 120.454,258.788 121.377 C 259.235 122.194,259.241 136.796,258.795 137.610 C 258.358 138.409,257.749 138.799,256.741 138.925 C 255.927 139.027,255.833 139.080,255.833 139.436 L 255.833 139.833 261.083 139.833 L 266.333 139.833 266.333 139.455 C 266.333 139.124,266.206 139.052,265.318 138.883 C 263.003 138.443,263.092 138.902,263.034 127.208 L 262.985 117.333 262.368 117.338 C 262.010 117.341,260.802 117.731,259.500 118.264 M271.583 118.429 C 270.117 119.028,268.708 119.597,268.453 119.694 C 268.082 119.835,268.011 119.941,268.099 120.227 C 268.253 120.730,268.232 120.724,269.124 120.510 C 271.422 119.959,271.677 120.902,271.652 129.833 C 271.629 138.102,271.474 138.674,269.188 138.945 C 268.430 139.035,268.333 139.091,268.333 139.440 L 268.333 139.833 273.667 139.833 L 279.000 139.833 279.000 139.433 C 279.000 139.067,278.913 139.023,277.977 138.914 C 275.598 138.638,275.509 138.312,275.504 129.806 L 275.500 123.195 276.540 122.253 C 279.932 119.183,283.205 119.335,284.291 122.612 C 284.585 123.499,284.812 134.340,284.581 136.495 C 284.418 138.021,283.697 138.757,282.198 138.926 C 281.257 139.033,281.167 139.078,281.167 139.438 L 281.167 139.833 286.500 139.833 L 291.833 139.833 291.833 139.436 C 291.833 139.080,291.739 139.027,290.925 138.925 C 288.621 138.637,288.602 138.565,288.492 129.583 C 288.391 121.268,288.408 121.401,287.175 119.457 C 285.162 116.283,280.791 116.598,277.124 120.181 C 276.288 120.998,275.581 121.667,275.552 121.667 C 275.524 121.667,275.500 120.692,275.500 119.500 L 275.500 117.333 274.875 117.337 C 274.496 117.340,273.200 117.770,271.583 118.429 M301.333 117.599 C 295.077 119.259,293.222 127.269,298.240 130.956 C 298.796 131.364,299.275 131.722,299.305 131.751 C 299.335 131.780,298.754 132.384,298.012 133.092 C 295.120 135.855,294.958 137.508,297.408 139.273 L 297.899 139.627 296.593 141.022 C 292.666 145.217,292.702 147.068,296.749 149.000 C 304.292 152.600,315.008 148.596,315.304 142.068 C 315.493 137.895,313.423 136.809,304.717 136.516 C 298.856 136.319,298.147 135.980,299.236 133.900 C 300.020 132.403,300.412 132.170,301.692 132.438 C 309.572 134.089,314.857 127.819,311.369 120.958 C 311.334 120.890,312.209 120.833,313.314 120.833 C 315.523 120.833,315.670 120.764,315.664 119.719 C 315.659 118.772,315.602 118.754,312.381 118.698 C 309.648 118.651,309.352 118.616,308.583 118.245 C 306.698 117.336,303.422 117.044,301.333 117.599 M339.953 117.582 C 334.479 119.088,331.002 125.363,332.239 131.503 C 334.687 143.649,350.417 143.306,352.761 131.054 C 354.387 122.555,347.648 115.466,339.953 117.582 M358.417 118.523 C 356.858 119.167,355.452 119.735,355.292 119.783 C 354.402 120.054,355.279 120.727,356.215 120.491 C 357.204 120.242,357.891 120.487,358.300 121.232 C 358.756 122.066,358.729 136.790,358.269 137.716 C 357.899 138.460,357.293 138.814,356.158 138.949 C 355.430 139.035,355.333 139.093,355.333 139.440 L 355.333 139.833 360.750 139.833 L 366.167 139.833 366.167 139.438 C 366.167 139.081,366.075 139.033,365.204 138.934 C 362.673 138.648,362.667 138.626,362.667 130.019 L 362.667 123.028 363.625 122.176 C 366.351 119.755,369.473 119.369,370.744 121.296 C 371.563 122.539,371.662 123.526,371.664 130.548 C 371.667 138.555,371.626 138.690,369.065 138.954 C 368.258 139.037,368.167 139.087,368.167 139.440 L 368.167 139.833 373.560 139.833 L 378.954 139.833 378.877 139.433 C 378.814 139.102,378.668 139.013,378.028 138.917 C 376.710 138.719,376.088 138.240,375.761 137.167 C 375.691 136.938,375.581 133.450,375.516 129.417 C 375.404 122.438,375.381 122.035,375.033 121.090 C 373.244 116.230,368.307 115.940,363.875 120.435 L 362.667 121.660 362.667 119.497 L 362.667 117.333 361.958 117.342 C 361.476 117.348,360.348 117.724,358.417 118.523 M305.633 118.949 C 308.677 120.839,309.525 127.832,307.014 130.332 C 304.339 132.995,300.479 131.026,299.650 126.577 C 298.587 120.875,301.911 116.637,305.633 118.949 M128.452 119.442 C 130.085 120.212,131.085 121.840,131.203 123.917 L 131.250 124.750 126.185 124.794 L 121.120 124.838 121.220 123.990 C 121.661 120.268,125.323 117.966,128.452 119.442 M217.583 119.449 C 219.392 120.334,220.881 123.107,220.371 124.638 C 220.292 124.873,210.408 124.922,210.263 124.688 C 210.126 124.467,210.614 122.760,211.073 121.854 C 212.394 119.246,215.114 118.241,217.583 119.449 M343.731 119.174 C 347.186 120.467,349.404 126.884,348.510 133.001 C 347.269 141.490,338.653 140.269,336.834 131.346 C 335.120 122.937,338.385 117.174,343.731 119.174 M70.000 130.905 L 70.000 134.976 69.375 135.491 C 66.841 137.580,64.395 137.938,62.896 136.440 C 60.688 134.231,61.594 130.855,64.918 128.907 C 65.786 128.399,69.439 126.848,69.792 126.839 C 69.953 126.835,70.000 127.756,70.000 130.905 M301.441 139.998 C 302.344 140.088,304.808 140.237,306.917 140.328 C 312.453 140.567,313.667 140.989,313.667 142.675 C 313.667 144.832,311.358 146.729,308.083 147.263 C 302.639 148.151,296.996 146.467,297.002 143.958 C 297.005 142.687,298.739 139.833,299.508 139.833 C 299.668 139.833,300.537 139.907,301.441 139.998 " stroke="none" fill="#050b0f" fill-rule="evenodd"></path><path id="path1" d="M0.000 84.417 L 0.000 168.833 200.000 168.833 L 400.000 168.833 400.000 84.417 L 400.000 0.000 200.000 0.000 L 0.000 0.000 0.000 84.417 M183.417 20.500 L 183.417 21.583 180.833 21.680 C 175.826 21.867,173.844 23.184,173.055 26.844 C 172.686 28.557,172.480 82.595,172.829 86.041 C 173.353 91.212,175.134 92.790,180.667 92.986 L 183.417 93.083 183.466 94.216 L 183.516 95.348 163.466 95.285 C 146.146 95.230,143.122 95.184,141.250 94.948 C 126.798 93.127,117.175 87.006,111.199 75.833 C 105.495 65.171,105.493 49.357,111.193 38.188 C 112.467 35.693,112.765 35.217,114.619 32.714 C 119.019 26.775,125.350 22.879,133.500 21.095 C 140.795 19.499,143.101 19.377,165.583 19.399 L 183.417 19.417 183.417 20.500 M216.000 20.500 L 216.000 21.667 214.702 21.667 C 212.173 21.667,210.306 22.498,209.286 24.080 C 208.277 25.642,208.707 28.247,211.100 35.083 C 212.619 39.420,214.173 43.843,215.670 48.083 C 216.511 50.467,217.674 53.767,218.254 55.417 C 218.834 57.067,219.996 60.367,220.835 62.750 C 221.674 65.133,222.874 68.546,223.501 70.333 C 224.127 72.121,224.935 74.399,225.295 75.397 L 225.950 77.211 226.388 75.980 C 226.629 75.304,227.160 73.775,227.568 72.583 C 227.976 71.392,228.911 68.692,229.646 66.583 C 233.709 54.934,234.462 52.774,235.607 49.500 C 236.296 47.529,237.192 44.945,237.599 43.758 L 238.338 41.599 237.981 40.508 C 237.785 39.908,237.230 38.367,236.748 37.083 C 236.265 35.800,235.559 33.813,235.177 32.667 C 232.762 25.415,229.700 22.031,225.269 21.718 L 223.833 21.617 223.833 20.475 L 223.833 19.333 238.583 19.333 L 253.333 19.333 253.333 20.480 L 253.333 21.626 251.292 21.705 C 244.473 21.966,243.873 25.070,248.254 37.417 C 250.879 44.817,252.128 48.352,253.082 51.083 C 253.658 52.733,254.782 55.921,255.579 58.167 C 256.376 60.413,257.473 63.525,258.017 65.083 C 258.561 66.642,259.489 69.267,260.079 70.917 C 260.669 72.567,261.392 74.614,261.685 75.466 C 261.978 76.318,262.271 76.956,262.336 76.883 C 262.482 76.719,263.211 74.710,264.591 70.667 C 265.978 66.602,268.282 59.916,270.077 54.750 C 270.873 52.458,272.001 49.196,272.584 47.500 C 274.958 40.590,276.656 35.681,277.082 34.500 C 280.368 25.384,279.178 22.137,272.400 21.722 L 270.667 21.616 270.667 20.475 L 270.667 19.333 282.083 19.333 L 293.500 19.333 293.500 20.475 L 293.500 21.617 292.192 21.718 C 287.504 22.080,285.377 24.728,282.324 34.000 C 281.796 35.604,280.674 38.904,279.831 41.333 C 278.315 45.700,276.308 51.515,274.250 57.500 C 273.667 59.196,272.503 62.571,271.663 65.000 C 270.823 67.429,269.661 70.804,269.080 72.500 C 268.500 74.196,267.339 77.571,266.500 80.000 C 265.661 82.429,264.342 86.254,263.567 88.500 C 262.793 90.746,261.805 93.596,261.371 94.833 L 260.583 97.083 259.339 97.083 L 258.094 97.083 257.777 96.250 C 257.603 95.792,257.068 94.292,256.588 92.917 C 255.526 89.872,253.990 85.571,252.571 81.667 C 251.988 80.063,251.217 77.887,250.857 76.833 C 250.104 74.624,248.350 69.699,247.621 67.750 C 247.347 67.017,246.527 64.729,245.799 62.667 C 244.625 59.342,243.050 54.910,241.458 50.446 C 241.000 49.161,240.914 49.024,240.783 49.362 C 240.701 49.575,240.161 51.100,239.584 52.750 C 239.007 54.400,237.808 57.813,236.921 60.333 C 234.593 66.948,233.358 70.471,232.044 74.250 C 231.406 76.083,230.505 78.633,230.042 79.917 C 229.579 81.200,228.507 84.237,227.660 86.667 C 226.813 89.096,225.624 92.455,225.019 94.132 L 223.918 97.180 222.834 97.132 L 221.750 97.083 220.481 93.583 C 219.783 91.658,218.818 88.996,218.336 87.667 C 217.854 86.337,216.986 83.900,216.408 82.250 C 215.047 78.365,213.676 74.524,212.570 71.500 C 211.662 69.019,209.951 64.215,208.087 58.917 C 207.507 57.267,206.455 54.304,205.751 52.333 C 205.046 50.362,204.059 47.587,203.558 46.167 C 202.715 43.777,201.957 41.666,199.669 35.333 C 199.188 34.004,198.435 31.904,197.995 30.667 C 195.464 23.550,194.034 22.094,189.214 21.724 L 187.833 21.617 187.833 20.475 L 187.833 19.333 201.917 19.333 L 216.000 19.333 216.000 20.500 M145.691 24.091 C 129.803 26.349,120.000 39.050,120.000 57.377 C 120.000 69.877,124.091 79.169,132.381 85.496 C 139.507 90.936,147.438 92.240,159.625 89.978 L 161.501 89.630 161.459 57.524 L 161.417 25.417 160.250 25.130 C 155.606 23.989,149.485 23.552,145.691 24.091 M110.783 105.993 C 112.944 107.310,111.989 110.667,109.453 110.667 C 107.882 110.667,106.930 109.673,106.946 108.048 C 106.960 106.560,107.886 105.668,109.417 105.668 C 109.949 105.668,110.442 105.785,110.783 105.993 M146.872 121.458 C 146.921 138.775,146.853 137.671,147.917 138.328 C 148.192 138.498,148.848 138.689,149.375 138.754 C 150.293 138.867,150.333 138.892,150.333 139.353 L 150.333 139.833 144.833 139.833 L 139.333 139.833 139.333 139.349 C 139.333 138.891,139.381 138.858,140.208 138.746 C 142.722 138.406,142.586 139.281,142.570 123.583 C 142.555 108.070,142.628 108.546,140.357 109.212 C 139.452 109.478,139.312 109.424,139.098 108.727 C 138.998 108.399,139.233 108.267,141.953 107.119 C 145.571 105.592,145.270 105.696,146.122 105.680 L 146.827 105.667 146.872 121.458 M236.009 121.208 C 236.021 139.605,235.856 138.443,238.500 138.750 C 239.466 138.862,239.500 138.883,239.500 139.350 L 239.500 139.833 234.000 139.833 L 228.500 139.833 228.500 139.344 C 228.500 138.884,228.549 138.848,229.292 138.754 C 230.287 138.630,230.790 138.377,231.234 137.780 C 231.694 137.160,231.882 111.172,231.434 110.100 C 231.035 109.145,230.540 108.929,229.411 109.217 L 228.466 109.457 228.247 108.937 C 228.127 108.651,228.041 108.406,228.056 108.393 C 228.129 108.330,233.647 106.016,234.083 105.866 C 234.358 105.771,234.902 105.687,235.292 105.680 L 236.000 105.667 236.009 121.208 M249.667 121.500 C 249.727 132.988,249.802 137.341,249.943 137.585 C 250.333 138.263,250.815 138.529,251.986 138.710 C 253.127 138.886,253.167 138.908,253.167 139.363 L 253.167 139.833 247.667 139.833 L 242.167 139.833 242.167 139.345 C 242.167 138.878,242.206 138.852,243.095 138.741 C 244.216 138.601,244.916 138.078,245.161 137.198 C 245.419 136.269,245.376 110.926,245.116 110.182 C 244.725 109.067,243.889 108.823,242.470 109.411 C 242.224 109.513,241.495 108.585,241.696 108.427 C 241.827 108.324,244.251 107.263,246.083 106.506 C 247.607 105.877,248.262 105.689,248.833 105.715 L 249.583 105.750 249.667 121.500 M262.321 105.959 C 265.280 107.467,262.907 111.824,259.903 110.399 C 257.611 109.311,258.520 105.667,261.083 105.667 C 261.450 105.667,262.007 105.798,262.321 105.959 M40.770 107.547 C 46.433 108.460,49.603 110.512,52.296 115.005 C 56.213 121.542,53.928 132.699,47.842 136.745 C 43.687 139.507,41.835 139.826,29.958 139.830 L 21.333 139.833 21.333 139.333 C 21.333 138.847,21.355 138.833,22.136 138.833 C 24.045 138.833,25.321 138.049,25.662 136.667 C 26.005 135.274,25.819 110.376,25.461 109.721 C 24.936 108.762,24.253 108.424,22.708 108.358 L 21.333 108.299 21.333 107.718 L 21.333 107.137 30.292 107.220 C 37.039 107.282,39.625 107.363,40.770 107.547 M175.417 107.750 C 175.417 108.235,175.390 108.252,174.492 108.333 C 171.972 108.561,171.838 110.076,173.861 115.472 C 174.228 116.450,175.078 118.825,175.750 120.750 C 176.423 122.675,177.557 125.918,178.271 127.957 C 178.985 129.996,179.615 131.609,179.672 131.541 C 179.730 131.472,180.195 130.217,180.706 128.750 C 181.217 127.283,182.242 124.358,182.984 122.250 C 185.071 116.316,184.955 117.059,184.158 114.728 C 182.538 109.995,181.260 108.333,179.239 108.333 C 178.696 108.333,178.667 108.303,178.667 107.750 L 178.667 107.167 185.094 107.167 L 191.521 107.167 191.469 107.708 L 191.417 108.250 190.264 108.349 C 187.704 108.569,187.535 110.569,189.616 115.999 C 190.023 117.063,192.062 122.812,194.020 128.417 C 194.564 129.975,195.053 131.362,195.107 131.500 C 195.214 131.776,195.126 132.011,197.833 124.250 C 203.291 108.601,203.272 108.749,199.777 108.363 C 198.767 108.252,198.749 108.241,198.698 107.708 L 198.646 107.167 203.656 107.167 L 208.667 107.167 208.667 107.729 C 208.667 108.282,208.654 108.292,207.827 108.372 C 205.761 108.570,205.325 109.317,202.556 117.410 C 201.770 119.706,200.455 123.533,199.633 125.917 C 198.811 128.300,197.548 131.975,196.826 134.083 C 194.510 140.847,194.629 140.575,193.952 140.634 C 193.400 140.682,193.353 140.645,193.106 139.967 C 192.409 138.063,190.561 132.859,189.920 131.000 C 189.525 129.854,188.814 127.867,188.340 126.583 C 187.866 125.300,187.220 123.462,186.906 122.500 C 186.591 121.537,186.269 120.651,186.191 120.529 C 186.036 120.290,185.661 121.255,183.578 127.250 C 181.815 132.326,179.597 138.600,179.175 139.708 C 178.540 141.374,177.912 141.164,177.180 139.042 C 176.872 138.148,176.134 136.067,175.539 134.417 C 174.945 132.767,174.063 130.292,173.581 128.917 C 171.764 123.746,168.763 115.349,167.624 112.250 C 166.542 109.309,165.878 108.571,164.121 108.356 C 163.468 108.276,163.240 108.176,163.196 107.949 C 163.042 107.145,162.919 107.160,169.371 107.206 L 175.417 107.250 175.417 107.750 M32.208 109.616 L 30.833 109.882 30.833 123.596 C 30.833 136.515,30.850 137.316,31.125 137.395 C 34.115 138.261,38.734 137.960,41.250 136.735 C 45.909 134.468,48.389 129.863,48.378 123.500 C 48.361 113.542,41.659 107.787,32.208 109.616 M324.628 114.125 L 324.673 117.667 327.154 117.667 L 329.634 117.667 329.699 118.542 C 329.782 119.677,329.820 119.661,327.036 119.664 L 324.654 119.667 324.702 127.625 C 324.746 134.931,324.775 135.633,325.053 136.193 C 325.805 137.703,327.859 137.509,328.919 135.829 C 329.772 134.479,330.675 135.112,329.964 136.561 C 328.133 140.291,323.773 141.375,321.462 138.675 C 320.443 137.484,320.417 137.214,320.417 127.958 C 320.417 122.547,320.359 119.664,320.250 119.658 C 320.158 119.654,319.390 119.649,318.542 119.647 L 317.000 119.645 317.000 119.103 C 317.000 118.657,317.095 118.516,317.542 118.300 C 319.799 117.211,322.045 114.457,323.401 111.114 C 323.624 110.564,323.723 110.484,324.121 110.530 L 324.583 110.583 324.628 114.125 M69.725 117.417 C 71.568 117.897,72.912 118.917,73.565 120.333 C 73.894 121.046,73.916 121.448,74.003 128.500 C 74.103 136.640,74.130 136.864,75.046 136.970 C 75.408 137.011,75.723 136.826,76.531 136.095 C 77.763 134.981,77.835 134.968,77.828 135.875 C 77.813 137.775,73.974 140.684,72.042 140.259 C 70.796 139.986,69.846 138.815,69.837 137.542 C 69.832 136.847,69.747 136.859,68.747 137.690 C 63.265 142.245,57.575 140.617,57.638 134.512 C 57.674 131.057,60.076 128.941,67.099 126.178 L 69.780 125.123 69.808 124.436 C 69.848 123.445,69.513 121.174,69.253 120.676 C 68.154 118.574,64.911 118.145,63.372 119.898 C 62.799 120.551,62.759 120.718,62.823 122.191 C 62.949 125.069,59.982 126.382,58.747 123.994 C 56.643 119.926,63.527 115.803,69.725 117.417 M85.833 119.182 L 85.833 121.365 87.356 119.931 C 90.991 116.509,94.651 116.097,97.129 118.831 C 98.574 120.426,98.697 121.224,98.816 129.750 C 98.939 138.570,98.901 138.438,101.375 138.753 C 102.117 138.847,102.167 138.884,102.167 139.344 L 102.167 139.833 96.667 139.833 L 91.167 139.833 91.167 139.353 C 91.167 138.883,91.192 138.869,92.279 138.753 C 94.568 138.508,94.666 138.170,94.660 130.583 C 94.654 123.154,94.439 121.756,93.154 120.798 C 91.665 119.689,88.821 120.411,86.850 122.400 L 85.816 123.443 85.866 130.263 C 85.928 138.627,85.874 138.451,88.458 138.747 C 89.469 138.863,89.500 138.880,89.500 139.350 L 89.500 139.833 83.917 139.833 L 78.333 139.833 78.333 139.357 C 78.333 138.909,78.385 138.874,79.158 138.782 C 80.306 138.646,80.976 138.255,81.305 137.531 C 81.771 136.504,81.722 122.362,81.250 121.417 L 80.917 120.750 79.614 120.750 C 77.531 120.750,77.362 120.004,79.279 119.270 C 79.905 119.030,81.392 118.424,82.583 117.922 C 83.775 117.420,84.994 117.007,85.292 117.005 L 85.833 117.000 85.833 119.182 M111.528 127.042 C 111.594 139.016,111.468 138.409,113.958 138.746 C 114.786 138.858,114.833 138.891,114.833 139.349 L 114.833 139.833 109.417 139.833 L 104.000 139.833 104.000 139.358 C 104.000 138.902,104.044 138.875,105.096 138.701 C 107.257 138.343,107.237 138.415,107.302 130.639 C 107.383 120.947,107.294 120.540,105.117 120.721 C 103.973 120.816,103.667 120.634,103.667 119.861 C 103.667 119.797,104.398 119.465,105.292 119.123 C 106.185 118.781,107.667 118.170,108.583 117.764 C 109.500 117.358,110.525 117.020,110.862 117.013 L 111.473 117.000 111.528 127.042 M130.689 117.495 C 134.038 118.536,136.333 121.795,136.333 125.511 L 136.333 126.333 128.810 126.333 L 121.286 126.333 121.382 127.625 C 121.770 132.808,124.845 136.250,129.086 136.250 C 131.923 136.250,133.485 135.216,134.802 132.468 C 135.462 131.093,135.613 130.980,136.089 131.507 C 136.815 132.309,135.392 135.663,133.423 137.789 C 128.327 143.293,119.573 140.205,117.913 132.318 C 115.917 122.825,122.661 115.000,130.689 117.495 M218.500 117.171 C 222.395 117.779,225.709 121.730,225.467 125.478 L 225.417 126.250 217.856 126.293 L 210.295 126.337 210.405 127.460 C 211.049 134.042,216.161 138.084,220.906 135.763 C 222.296 135.083,224.333 132.623,224.333 131.625 C 224.333 131.197,224.644 131.113,225.107 131.417 C 225.591 131.734,225.570 132.160,224.989 133.818 C 221.653 143.345,209.522 142.498,207.054 132.565 C 206.622 130.825,206.668 126.850,207.141 125.104 C 208.662 119.492,213.175 116.341,218.500 117.171 M263.167 127.000 C 263.268 138.931,263.159 138.412,265.625 138.746 C 266.453 138.858,266.500 138.891,266.500 139.349 L 266.500 139.833 261.083 139.833 L 255.667 139.833 255.667 139.342 C 255.667 138.862,255.692 138.847,256.708 138.734 C 258.961 138.483,259.000 138.327,259.000 129.499 C 259.000 120.707,258.958 120.540,256.784 120.721 C 255.690 120.812,255.646 120.801,255.492 120.397 C 255.254 119.771,255.265 119.757,256.208 119.422 C 256.690 119.251,258.208 118.636,259.583 118.056 C 261.144 117.398,262.271 117.017,262.583 117.043 L 263.083 117.083 263.167 127.000 M275.667 119.208 L 275.750 121.333 276.750 120.318 C 281.596 115.399,286.671 116.061,288.374 121.833 C 288.473 122.170,288.589 125.523,288.648 129.750 C 288.771 138.623,288.716 138.420,291.125 138.746 C 291.953 138.858,292.000 138.891,292.000 139.349 L 292.000 139.833 286.417 139.833 L 280.833 139.833 280.833 139.367 C 280.833 138.913,280.868 138.895,282.084 138.719 C 284.477 138.375,284.417 138.588,284.417 130.500 C 284.417 123.435,284.345 122.676,283.566 121.463 C 282.332 119.540,279.020 120.004,276.617 122.437 L 275.650 123.415 275.700 130.333 C 275.760 138.690,275.686 138.449,278.292 138.747 C 279.303 138.863,279.333 138.880,279.333 139.350 L 279.333 139.833 273.750 139.833 L 268.167 139.833 268.167 139.357 C 268.167 138.907,268.216 138.874,269.016 138.779 C 271.407 138.496,271.417 138.457,271.417 129.583 C 271.417 120.420,271.441 120.516,269.157 120.728 C 268.097 120.827,268.033 120.813,267.938 120.458 C 267.757 119.781,267.821 119.716,269.125 119.242 C 269.835 118.983,271.317 118.377,272.417 117.894 C 273.769 117.300,274.606 117.027,275.000 117.050 L 275.583 117.083 275.667 119.208 M306.083 117.249 C 306.896 117.394,307.872 117.717,308.583 118.077 L 309.750 118.668 312.619 118.667 C 315.806 118.667,315.833 118.677,315.833 119.833 C 315.833 120.931,315.698 121.000,313.560 121.000 C 311.785 121.000,311.641 121.023,311.759 121.292 C 314.820 128.241,308.821 134.697,301.340 132.505 C 300.666 132.308,299.913 132.883,299.309 134.054 C 298.360 135.896,299.178 136.173,306.500 136.488 C 313.557 136.790,315.676 138.111,315.468 142.076 C 315.119 148.719,304.144 152.839,296.683 149.129 C 292.335 146.966,292.430 145.068,297.133 140.192 L 297.682 139.622 297.216 139.339 C 294.833 137.890,295.186 135.181,298.071 132.792 C 299.314 131.762,299.296 131.812,298.581 131.427 C 296.348 130.225,294.827 126.757,295.305 123.958 C 296.124 119.162,300.729 116.296,306.083 117.249 M344.500 117.235 C 352.068 118.587,355.450 127.274,351.449 135.083 C 348.348 141.138,339.809 142.448,335.184 137.578 C 327.468 129.456,333.930 115.346,344.500 117.235 M362.667 119.259 L 362.667 121.519 363.596 120.515 C 367.925 115.839,373.135 115.960,375.156 120.782 C 375.559 121.744,375.562 121.794,375.672 129.333 C 375.806 138.583,375.769 138.443,378.208 138.753 C 378.950 138.847,379.000 138.884,379.000 139.344 L 379.000 139.833 373.500 139.833 L 368.000 139.833 368.000 139.353 C 368.000 138.884,368.027 138.869,369.087 138.756 C 371.431 138.505,371.500 138.268,371.500 130.537 C 371.500 121.835,371.254 120.888,368.843 120.322 C 367.455 119.996,365.404 120.811,363.771 122.338 L 362.647 123.390 362.698 130.237 C 362.761 138.584,362.712 138.428,365.375 138.754 C 366.293 138.867,366.333 138.892,366.333 139.353 L 366.333 139.833 360.750 139.833 L 355.167 139.833 355.167 139.355 C 355.167 138.893,355.201 138.872,356.190 138.761 C 358.452 138.505,358.543 138.109,358.471 128.870 C 358.419 122.177,358.404 121.895,358.070 121.333 L 357.723 120.750 356.466 120.779 C 355.264 120.807,355.200 120.790,355.013 120.379 C 354.753 119.809,354.694 119.847,357.750 118.610 C 359.217 118.016,360.679 117.414,361.000 117.272 C 361.321 117.129,361.827 117.010,362.125 117.007 L 362.667 117.000 362.667 119.259 M302.250 118.813 C 297.702 120.900,299.356 131.333,304.236 131.333 C 307.121 131.333,308.603 128.790,308.167 124.586 C 307.703 120.109,305.055 117.526,302.250 118.813 M340.554 119.063 C 336.338 120.441,335.121 128.240,338.142 134.520 C 340.997 140.456,347.121 139.753,348.261 133.358 C 349.700 125.288,345.477 117.455,340.554 119.063 M125.053 119.299 C 123.235 119.948,121.724 121.877,121.401 123.958 L 121.291 124.667 126.136 124.667 C 131.582 124.667,131.212 124.776,130.978 123.235 C 130.519 120.202,127.724 118.346,125.053 119.299 M214.314 119.230 C 212.287 119.954,210.681 121.952,210.475 124.004 L 210.417 124.583 215.292 124.628 L 220.167 124.672 220.167 124.121 C 220.167 120.820,217.081 118.241,214.314 119.230 M67.391 127.925 C 62.408 130.114,60.796 132.466,62.298 135.356 C 63.490 137.652,65.393 137.913,68.092 136.151 C 70.009 134.899,69.846 135.407,69.795 130.870 L 69.750 126.889 67.391 127.925 M299.012 140.246 C 295.379 144.217,297.468 146.995,304.309 147.287 C 308.978 147.486,312.099 146.302,313.188 143.917 C 314.293 141.497,313.016 140.747,307.333 140.476 C 305.362 140.382,302.753 140.216,301.536 140.107 C 299.393 139.915,299.311 139.919,299.012 140.246 " stroke="none" fill="#fbfbfb" fill-rule="evenodd"></path><path id="path2" d="M158.471 19.458 C 163.084 19.483,170.584 19.483,175.138 19.458 C 179.691 19.434,175.917 19.413,166.750 19.413 C 157.583 19.414,153.858 19.434,158.471 19.458 M187.945 19.443 C 187.792 19.597,187.803 21.462,187.958 21.558 C 188.027 21.601,188.058 21.155,188.027 20.568 L 187.972 19.500 201.902 19.500 L 215.833 19.500 215.833 20.486 C 215.833 21.028,215.756 21.510,215.662 21.557 C 215.569 21.604,215.587 21.622,215.704 21.599 C 215.850 21.569,215.917 21.219,215.917 20.486 L 215.917 19.417 201.987 19.374 C 194.326 19.351,188.007 19.382,187.945 19.443 M231.221 19.458 C 235.330 19.483,242.005 19.483,246.054 19.458 C 250.104 19.433,246.742 19.413,238.583 19.413 C 230.425 19.413,227.112 19.433,231.221 19.458 M276.471 19.458 C 279.617 19.484,284.717 19.484,287.804 19.458 C 290.891 19.433,288.317 19.412,282.083 19.412 C 275.850 19.412,273.324 19.433,276.471 19.458 M145.625 19.618 C 145.831 19.657,146.169 19.657,146.375 19.618 C 146.581 19.578,146.412 19.545,146.000 19.545 C 145.587 19.545,145.419 19.578,145.625 19.618 M214.460 21.618 C 214.668 21.658,214.968 21.656,215.127 21.615 C 215.286 21.573,215.117 21.540,214.750 21.542 C 214.383 21.544,214.253 21.578,214.460 21.618 M251.292 21.618 C 251.498 21.657,251.835 21.657,252.042 21.618 C 252.248 21.578,252.079 21.545,251.667 21.545 C 251.254 21.545,251.085 21.578,251.292 21.618 M149.042 23.782 C 149.202 23.823,149.465 23.823,149.625 23.782 C 149.785 23.740,149.654 23.705,149.333 23.705 C 149.012 23.705,148.881 23.740,149.042 23.782 M119.883 56.000 C 119.883 56.504,119.915 56.710,119.953 56.458 C 119.991 56.206,119.991 55.794,119.953 55.542 C 119.915 55.290,119.883 55.496,119.883 56.000 M119.881 58.917 C 119.882 59.375,119.915 59.543,119.953 59.289 C 119.991 59.036,119.990 58.661,119.951 58.456 C 119.911 58.251,119.880 58.458,119.881 58.917 M174.167 90.719 C 174.167 90.748,174.410 90.991,174.708 91.260 L 175.250 91.750 174.760 91.208 C 174.304 90.703,174.167 90.590,174.167 90.719 M25.136 107.292 C 27.274 107.318,30.724 107.318,32.803 107.291 C 34.882 107.265,33.133 107.243,28.917 107.243 C 24.700 107.244,22.999 107.265,25.136 107.292 M166.292 107.291 C 167.965 107.319,170.702 107.319,172.375 107.291 C 174.048 107.264,172.679 107.242,169.333 107.242 C 165.987 107.242,164.619 107.264,166.292 107.291 M181.969 107.291 C 183.740 107.319,186.590 107.318,188.303 107.291 C 190.015 107.264,188.567 107.242,185.083 107.242 C 181.600 107.242,180.199 107.264,181.969 107.291 M201.208 107.291 C 202.560 107.319,204.773 107.319,206.125 107.291 C 207.477 107.263,206.371 107.240,203.667 107.240 C 200.963 107.240,199.856 107.263,201.208 107.291 M142.539 111.333 C 142.539 111.654,142.573 111.785,142.615 111.625 C 142.657 111.465,142.657 111.202,142.615 111.042 C 142.573 110.881,142.539 111.013,142.539 111.333 M324.569 114.333 C 324.569 115.938,324.594 116.594,324.624 115.792 C 324.655 114.990,324.655 113.677,324.624 112.875 C 324.594 112.073,324.569 112.729,324.569 114.333 M231.724 113.250 C 231.724 113.983,231.754 114.263,231.789 113.871 C 231.824 113.479,231.824 112.879,231.788 112.537 C 231.752 112.196,231.723 112.517,231.724 113.250 M245.392 113.333 C 245.392 114.112,245.420 114.431,245.455 114.042 C 245.490 113.652,245.490 113.015,245.455 112.625 C 245.420 112.235,245.392 112.554,245.392 113.333 M44.000 112.219 C 44.000 112.248,44.244 112.491,44.542 112.760 L 45.083 113.250 44.594 112.708 C 44.138 112.203,44.000 112.090,44.000 112.219 M111.410 125.167 C 111.410 129.429,111.432 131.173,111.458 129.042 C 111.485 126.910,111.485 123.423,111.458 121.292 C 111.432 119.160,111.410 120.904,111.410 125.167 M363.906 120.208 L 363.417 120.750 363.958 120.260 C 364.463 119.804,364.577 119.667,364.448 119.667 C 364.419 119.667,364.175 119.910,363.906 120.208 M324.576 126.583 C 324.576 130.158,324.598 131.597,324.625 129.781 C 324.652 127.964,324.652 125.039,324.625 123.281 C 324.598 121.522,324.576 123.008,324.576 126.583 M312.375 120.956 C 312.902 120.990,313.765 120.990,314.292 120.956 C 314.819 120.923,314.387 120.896,313.333 120.896 C 312.279 120.896,311.848 120.923,312.375 120.956 M73.875 122.917 C 73.877 123.283,73.911 123.414,73.951 123.206 C 73.991 122.999,73.990 122.699,73.948 122.540 C 73.906 122.380,73.874 122.550,73.875 122.917 M299.539 123.500 C 299.539 123.821,299.573 123.952,299.615 123.792 C 299.657 123.631,299.657 123.369,299.615 123.208 C 299.573 123.048,299.539 123.179,299.539 123.500 M358.575 129.750 C 358.575 133.142,358.598 134.506,358.625 132.781 C 358.652 131.056,358.652 128.281,358.625 126.614 C 358.598 124.947,358.575 126.358,358.575 129.750 M288.575 129.417 C 288.575 132.442,288.597 133.703,288.625 132.219 C 288.652 130.735,288.652 128.260,288.625 126.719 C 288.597 125.178,288.575 126.392,288.575 129.417 M299.539 124.667 C 299.539 124.987,299.573 125.119,299.615 124.958 C 299.657 124.798,299.657 124.535,299.615 124.375 C 299.573 124.215,299.539 124.346,299.539 124.667 M371.575 130.250 C 371.575 133.458,371.597 134.747,371.625 133.114 C 371.652 131.481,371.652 128.856,371.625 127.281 C 371.597 125.706,371.575 127.042,371.575 130.250 M225.379 125.500 C 225.379 125.912,225.411 126.081,225.451 125.875 C 225.491 125.669,225.491 125.331,225.451 125.125 C 225.411 124.919,225.379 125.087,225.379 125.500 M259.073 130.500 C 259.073 133.112,259.096 134.181,259.125 132.875 C 259.153 131.569,259.153 129.431,259.125 128.125 C 259.096 126.819,259.073 127.888,259.073 130.500 M107.406 130.500 C 107.406 132.929,107.429 133.923,107.458 132.708 C 107.486 131.494,107.486 129.506,107.458 128.292 C 107.429 127.077,107.406 128.071,107.406 130.500 M336.372 127.000 C 336.372 127.321,336.406 127.452,336.448 127.292 C 336.490 127.131,336.490 126.869,336.448 126.708 C 336.406 126.548,336.372 126.679,336.372 127.000 M63.073 130.375 L 62.583 130.917 63.125 130.427 C 63.630 129.971,63.743 129.833,63.615 129.833 C 63.586 129.833,63.342 130.077,63.073 130.375 M296.833 129.885 C 296.833 129.914,297.077 130.158,297.375 130.427 L 297.917 130.917 297.427 130.375 C 296.971 129.870,296.833 129.757,296.833 129.885 M303.711 132.786 C 303.964 132.825,304.339 132.824,304.544 132.784 C 304.749 132.744,304.542 132.713,304.083 132.714 C 303.625 132.716,303.457 132.748,303.711 132.786 M124.000 134.250 C 124.311 134.571,124.603 134.833,124.649 134.833 C 124.695 134.833,124.478 134.571,124.167 134.250 C 123.856 133.929,123.564 133.667,123.518 133.667 C 123.472 133.667,123.689 133.929,124.000 134.250 M245.379 135.500 C 245.379 135.912,245.411 136.081,245.451 135.875 C 245.491 135.669,245.491 135.331,245.451 135.125 C 245.411 134.919,245.379 135.087,245.379 135.500 M231.709 135.583 C 231.711 135.950,231.745 136.080,231.785 135.873 C 231.824 135.666,231.823 135.366,231.781 135.206 C 231.739 135.047,231.707 135.217,231.709 135.583 M177.813 140.547 C 177.894 140.627,178.175 140.666,178.438 140.633 C 178.879 140.578,178.867 140.566,178.292 140.487 C 177.934 140.437,177.729 140.463,177.813 140.547 M193.708 140.615 C 193.869 140.657,194.131 140.657,194.292 140.615 C 194.452 140.573,194.321 140.539,194.000 140.539 C 193.679 140.539,193.548 140.573,193.708 140.615 M304.708 147.455 C 305.052 147.491,305.615 147.491,305.958 147.455 C 306.302 147.419,306.021 147.389,305.333 147.389 C 304.646 147.389,304.365 147.419,304.708 147.455 M302.708 150.453 C 302.960 150.491,303.373 150.491,303.625 150.453 C 303.877 150.415,303.671 150.383,303.167 150.383 C 302.662 150.383,302.456 150.415,302.708 150.453 " stroke="none" fill="#a8a8aa" fill-rule="evenodd"></path><path id="path3" d="M148.296 19.456 C 148.688 19.491,149.288 19.490,149.629 19.454 C 149.971 19.419,149.650 19.390,148.917 19.390 C 148.183 19.391,147.904 19.420,148.296 19.456 M144.542 19.615 C 144.702 19.657,144.965 19.657,145.125 19.615 C 145.285 19.573,145.154 19.539,144.833 19.539 C 144.512 19.539,144.381 19.573,144.542 19.615 M183.387 20.500 C 183.387 21.096,183.417 21.340,183.454 21.042 C 183.491 20.744,183.491 20.256,183.454 19.958 C 183.417 19.660,183.387 19.904,183.387 20.500 M174.406 23.708 L 173.917 24.250 174.458 23.760 C 174.963 23.304,175.077 23.167,174.948 23.167 C 174.919 23.167,174.675 23.410,174.406 23.708 M161.500 57.550 L 161.583 89.750 161.625 57.675 C 161.649 40.034,161.611 25.544,161.542 25.475 C 161.473 25.406,161.454 39.840,161.500 57.550 M117.994 28.958 L 117.083 29.917 118.042 29.006 C 118.569 28.505,119.000 28.073,119.000 28.047 C 119.000 27.924,118.841 28.068,117.994 28.958 M116.406 30.542 L 115.917 31.083 116.458 30.594 C 116.756 30.325,117.000 30.081,117.000 30.052 C 117.000 29.923,116.862 30.037,116.406 30.542 M129.167 32.083 C 128.484 32.771,127.963 33.333,128.008 33.333 C 128.054 33.333,128.650 32.771,129.333 32.083 C 130.016 31.396,130.537 30.833,130.492 30.833 C 130.446 30.833,129.850 31.396,129.167 32.083 M172.581 57.750 C 172.581 72.142,172.601 78.005,172.625 70.779 C 172.649 63.553,172.649 51.778,172.625 44.612 C 172.601 37.446,172.581 43.358,172.581 57.750 M119.879 57.500 C 119.879 57.913,119.911 58.081,119.951 57.875 C 119.991 57.669,119.991 57.331,119.951 57.125 C 119.911 56.919,119.879 57.087,119.879 57.500 M129.667 83.250 C 129.978 83.571,130.270 83.833,130.315 83.833 C 130.361 83.833,130.144 83.571,129.833 83.250 C 129.522 82.929,129.230 82.667,129.185 82.667 C 129.139 82.667,129.356 82.929,129.667 83.250 M181.242 93.122 L 183.318 93.177 183.379 94.213 L 183.439 95.250 183.428 94.167 L 183.417 93.083 181.291 93.076 L 179.166 93.068 181.242 93.122 M222.458 97.121 C 222.756 97.158,223.244 97.158,223.542 97.121 C 223.840 97.084,223.596 97.053,223.000 97.053 C 222.404 97.053,222.160 97.084,222.458 97.121 M258.708 97.121 C 259.052 97.157,259.615 97.157,259.958 97.121 C 260.302 97.085,260.021 97.056,259.333 97.056 C 258.646 97.056,258.365 97.085,258.708 97.121 M146.746 120.417 C 146.746 128.575,146.767 131.888,146.792 127.779 C 146.816 123.670,146.816 116.995,146.792 112.946 C 146.767 108.896,146.746 112.258,146.746 120.417 M235.913 120.583 C 235.913 128.833,235.933 132.184,235.958 128.029 C 235.983 123.874,235.983 117.124,235.958 113.029 C 235.933 108.934,235.913 112.333,235.913 120.583 M249.580 121.083 C 249.580 129.517,249.600 132.991,249.625 128.804 C 249.650 124.617,249.650 117.717,249.625 113.471 C 249.600 109.224,249.580 112.650,249.580 121.083 M36.708 107.282 C 36.869 107.323,37.131 107.323,37.292 107.282 C 37.452 107.240,37.321 107.205,37.000 107.205 C 36.679 107.205,36.548 107.240,36.708 107.282 M198.708 107.708 C 198.742 108.140,198.827 108.255,199.128 108.272 C 199.422 108.289,199.433 108.278,199.179 108.220 C 198.977 108.174,198.817 107.959,198.760 107.656 C 198.671 107.191,198.669 107.193,198.708 107.708 M163.234 107.832 C 163.244 108.101,163.354 108.256,163.545 108.273 C 163.732 108.290,163.751 108.271,163.597 108.223 C 163.463 108.181,163.323 107.982,163.286 107.781 C 163.230 107.481,163.221 107.490,163.234 107.832 M175.353 107.697 C 175.339 108.020,175.229 108.164,174.958 108.216 L 174.583 108.288 174.964 108.311 C 175.377 108.335,175.574 108.028,175.450 107.551 C 175.398 107.349,175.366 107.397,175.353 107.697 M263.545 108.167 C 263.545 108.579,263.578 108.748,263.618 108.542 C 263.657 108.335,263.657 107.998,263.618 107.792 C 263.578 107.585,263.545 107.754,263.545 108.167 M111.875 108.250 C 111.877 108.617,111.911 108.747,111.951 108.540 C 111.991 108.332,111.990 108.032,111.948 107.873 C 111.906 107.714,111.874 107.883,111.875 108.250 M21.958 108.284 C 22.165 108.324,22.502 108.324,22.708 108.284 C 22.915 108.245,22.746 108.212,22.333 108.212 C 21.921 108.212,21.752 108.245,21.958 108.284 M190.460 108.285 C 190.668 108.324,190.968 108.323,191.127 108.281 C 191.286 108.239,191.117 108.207,190.750 108.209 C 190.383 108.211,190.253 108.245,190.460 108.285 M35.121 109.287 C 35.417 109.324,35.942 109.324,36.288 109.288 C 36.634 109.252,36.392 109.222,35.750 109.221 C 35.108 109.221,34.825 109.250,35.121 109.287 M188.042 110.417 C 188.044 110.783,188.078 110.914,188.118 110.706 C 188.158 110.499,188.156 110.199,188.115 110.040 C 188.073 109.880,188.040 110.050,188.042 110.417 M30.746 123.667 C 30.746 131.229,30.767 134.323,30.792 130.542 C 30.817 126.760,30.817 120.573,30.792 116.792 C 30.767 113.010,30.746 116.104,30.746 123.667 M25.912 123.500 C 25.912 130.054,25.933 132.735,25.958 129.458 C 25.984 126.181,25.984 120.819,25.958 117.542 C 25.933 114.265,25.912 116.946,25.912 123.500 M142.560 113.333 C 142.560 114.204,142.588 114.560,142.623 114.125 C 142.657 113.690,142.657 112.977,142.623 112.542 C 142.588 112.106,142.560 112.462,142.560 113.333 M231.745 124.750 C 231.745 130.433,231.766 132.782,231.792 129.970 C 231.817 127.158,231.817 122.508,231.792 119.637 C 231.766 116.766,231.745 119.067,231.745 124.750 M245.412 124.750 C 245.412 130.342,245.433 132.605,245.458 129.780 C 245.484 126.954,245.484 122.379,245.458 119.613 C 245.433 116.847,245.412 119.158,245.412 124.750 M66.125 117.121 C 66.423 117.158,66.910 117.158,67.208 117.121 C 67.506 117.084,67.262 117.053,66.667 117.053 C 66.071 117.053,65.827 117.084,66.125 117.121 M84.960 117.118 C 85.168 117.158,85.468 117.156,85.627 117.115 C 85.786 117.073,85.617 117.040,85.250 117.042 C 84.883 117.044,84.753 117.078,84.960 117.118 M92.792 117.118 C 92.998 117.157,93.335 117.157,93.542 117.118 C 93.748 117.078,93.579 117.045,93.167 117.045 C 92.754 117.045,92.585 117.078,92.792 117.118 M110.458 117.118 C 110.665 117.157,111.002 117.157,111.208 117.118 C 111.415 117.078,111.246 117.045,110.833 117.045 C 110.421 117.045,110.252 117.078,110.458 117.118 M127.295 117.121 C 127.594 117.158,128.044 117.157,128.295 117.119 C 128.545 117.081,128.300 117.051,127.750 117.052 C 127.200 117.053,126.995 117.084,127.295 117.121 M216.461 117.121 C 216.761 117.158,217.211 117.157,217.461 117.119 C 217.712 117.081,217.467 117.051,216.917 117.052 C 216.367 117.053,216.162 117.084,216.461 117.121 M262.208 117.115 C 262.369 117.157,262.631 117.157,262.792 117.115 C 262.952 117.073,262.821 117.039,262.500 117.039 C 262.179 117.039,262.048 117.073,262.208 117.115 M274.627 117.118 C 274.834 117.158,275.134 117.156,275.294 117.115 C 275.453 117.073,275.283 117.040,274.917 117.042 C 274.550 117.044,274.420 117.078,274.627 117.118 M282.625 117.118 C 282.831 117.157,283.169 117.157,283.375 117.118 C 283.581 117.078,283.412 117.045,283.000 117.045 C 282.587 117.045,282.419 117.078,282.625 117.118 M303.628 117.121 C 303.928 117.158,304.378 117.157,304.628 117.119 C 304.878 117.081,304.633 117.051,304.083 117.052 C 303.533 117.053,303.328 117.084,303.628 117.121 M342.128 117.121 C 342.428 117.158,342.878 117.157,343.128 117.119 C 343.378 117.081,343.133 117.051,342.583 117.052 C 342.033 117.053,341.828 117.084,342.128 117.121 M361.794 117.118 C 362.001 117.158,362.301 117.156,362.460 117.115 C 362.620 117.073,362.450 117.040,362.083 117.042 C 361.717 117.044,361.586 117.078,361.794 117.118 M369.625 117.118 C 369.831 117.157,370.169 117.157,370.375 117.118 C 370.581 117.078,370.412 117.045,370.000 117.045 C 369.587 117.045,369.419 117.078,369.625 117.118 M324.553 117.417 C 324.586 117.734,324.713 117.750,327.127 117.757 L 329.667 117.763 327.178 117.711 C 324.994 117.665,324.679 117.623,324.604 117.371 C 324.540 117.154,324.528 117.166,324.553 117.417 M297.406 119.708 L 296.917 120.250 297.458 119.760 C 297.963 119.304,298.077 119.167,297.948 119.167 C 297.919 119.167,297.675 119.410,297.406 119.708 M318.129 119.622 C 318.521 119.657,319.121 119.657,319.463 119.621 C 319.804 119.585,319.483 119.557,318.750 119.557 C 318.017 119.558,317.737 119.587,318.129 119.622 M326.034 119.623 C 326.649 119.655,327.699 119.656,328.368 119.624 C 329.036 119.592,328.533 119.566,327.250 119.566 C 325.967 119.565,325.420 119.591,326.034 119.623 M349.333 119.552 C 349.333 119.581,349.577 119.825,349.875 120.094 L 350.417 120.583 349.927 120.042 C 349.471 119.537,349.333 119.423,349.333 119.552 M320.410 127.667 C 320.410 132.021,320.432 133.802,320.458 131.625 C 320.485 129.448,320.485 125.885,320.458 123.708 C 320.432 121.531,320.410 123.313,320.410 127.667 M79.708 120.615 C 79.869 120.657,80.131 120.657,80.292 120.615 C 80.452 120.573,80.321 120.539,80.000 120.539 C 79.679 120.539,79.548 120.573,79.708 120.615 M105.375 120.615 C 105.535 120.657,105.798 120.657,105.958 120.615 C 106.119 120.573,105.987 120.539,105.667 120.539 C 105.346 120.539,105.215 120.573,105.375 120.615 M257.042 120.615 C 257.202 120.657,257.465 120.657,257.625 120.615 C 257.785 120.573,257.654 120.539,257.333 120.539 C 257.012 120.539,256.881 120.573,257.042 120.615 M269.542 120.615 C 269.702 120.657,269.965 120.657,270.125 120.615 C 270.285 120.573,270.154 120.539,269.833 120.539 C 269.512 120.539,269.381 120.573,269.542 120.615 M356.542 120.615 C 356.702 120.657,356.965 120.657,357.125 120.615 C 357.285 120.573,357.154 120.539,356.833 120.539 C 356.512 120.539,356.381 120.573,356.542 120.615 M48.375 121.750 C 48.377 122.117,48.411 122.247,48.451 122.040 C 48.491 121.832,48.490 121.532,48.448 121.373 C 48.406 121.214,48.374 121.383,48.375 121.750 M62.717 122.500 C 62.717 123.004,62.748 123.210,62.786 122.958 C 62.824 122.706,62.824 122.294,62.786 122.042 C 62.748 121.790,62.717 121.996,62.717 122.500 M86.500 122.583 C 86.095 122.996,85.801 123.333,85.847 123.333 C 85.893 123.333,86.262 122.996,86.667 122.583 C 87.072 122.171,87.365 121.833,87.319 121.833 C 87.274 121.833,86.905 122.171,86.500 122.583 M363.158 122.792 L 362.583 123.417 363.208 122.842 C 363.552 122.526,363.833 122.245,363.833 122.217 C 363.833 122.090,363.692 122.210,363.158 122.792 M107.209 122.917 C 107.211 123.283,107.245 123.414,107.285 123.206 C 107.324 122.999,107.323 122.699,107.281 122.540 C 107.239 122.380,107.207 122.550,107.209 122.917 M284.372 124.667 C 284.372 124.987,284.406 125.119,284.448 124.958 C 284.490 124.798,284.490 124.535,284.448 124.375 C 284.406 124.215,284.372 124.346,284.372 124.667 M308.212 124.833 C 308.212 125.246,308.245 125.415,308.284 125.208 C 308.324 125.002,308.324 124.665,308.284 124.458 C 308.245 124.252,308.212 124.421,308.212 124.833 M48.372 125.333 C 48.372 125.654,48.406 125.785,48.448 125.625 C 48.490 125.465,48.490 125.202,48.448 125.042 C 48.406 124.881,48.372 125.013,48.372 125.333 M121.224 126.424 C 121.170 126.565,121.172 126.728,121.229 126.785 C 121.287 126.842,121.333 126.765,121.333 126.613 C 121.333 126.361,121.984 126.333,128.875 126.292 L 136.417 126.247 128.870 126.207 C 122.197 126.171,121.311 126.196,121.224 126.424 M214.042 126.292 C 216.127 126.318,219.540 126.318,221.625 126.292 C 223.710 126.265,222.004 126.243,217.833 126.243 C 213.662 126.243,211.956 126.265,214.042 126.292 M206.727 129.000 C 206.727 129.871,206.755 130.227,206.789 129.792 C 206.824 129.356,206.824 128.644,206.789 128.208 C 206.755 127.773,206.727 128.129,206.727 129.000 M59.406 130.375 L 58.917 130.917 59.458 130.427 C 59.963 129.971,60.077 129.833,59.948 129.833 C 59.919 129.833,59.675 130.077,59.406 130.375 M300.073 132.875 L 299.583 133.417 300.125 132.927 C 300.630 132.471,300.743 132.333,300.615 132.333 C 300.586 132.333,300.342 132.577,300.073 132.875 M297.324 133.458 L 296.750 134.083 297.375 133.509 C 297.957 132.974,298.077 132.833,297.949 132.833 C 297.922 132.833,297.640 133.115,297.324 133.458 M324.542 133.583 C 324.544 133.950,324.578 134.080,324.618 133.873 C 324.658 133.666,324.656 133.366,324.615 133.206 C 324.573 133.047,324.540 133.217,324.542 133.583 M49.906 134.875 L 49.417 135.417 49.958 134.927 C 50.463 134.471,50.577 134.333,50.448 134.333 C 50.419 134.333,50.175 134.577,49.906 134.875 M74.048 135.250 C 74.049 135.708,74.081 135.876,74.120 135.623 C 74.158 135.369,74.157 134.994,74.117 134.789 C 74.078 134.584,74.046 134.792,74.048 135.250 M142.548 135.583 C 142.549 136.042,142.581 136.209,142.620 135.956 C 142.658 135.703,142.657 135.328,142.617 135.123 C 142.578 134.918,142.546 135.125,142.548 135.583 M375.717 135.667 C 375.717 136.171,375.748 136.377,375.786 136.125 C 375.824 135.873,375.824 135.460,375.786 135.208 C 375.748 134.956,375.717 135.162,375.717 135.667 M77.714 135.917 C 77.716 136.375,77.748 136.543,77.786 136.289 C 77.825 136.036,77.824 135.661,77.784 135.456 C 77.744 135.251,77.713 135.458,77.714 135.917 M263.212 135.833 C 263.212 136.246,263.245 136.415,263.284 136.208 C 263.324 136.002,263.324 135.665,263.284 135.458 C 263.245 135.252,263.212 135.421,263.212 135.833 M111.548 136.083 C 111.549 136.542,111.581 136.709,111.620 136.456 C 111.658 136.203,111.657 135.828,111.617 135.623 C 111.578 135.418,111.546 135.625,111.548 136.083 M284.375 136.417 C 284.377 136.783,284.411 136.914,284.451 136.706 C 284.491 136.499,284.490 136.199,284.448 136.040 C 284.406 135.880,284.374 136.050,284.375 136.417 M304.295 136.454 C 304.594 136.491,305.044 136.490,305.295 136.452 C 305.545 136.414,305.300 136.384,304.750 136.385 C 304.200 136.386,303.995 136.417,304.295 136.454 M349.494 137.625 L 348.583 138.583 349.542 137.672 C 350.432 136.826,350.576 136.667,350.453 136.667 C 350.427 136.667,349.995 137.098,349.494 137.625 M34.542 137.948 C 34.702 137.990,34.965 137.990,35.125 137.948 C 35.285 137.906,35.154 137.872,34.833 137.872 C 34.512 137.872,34.381 137.906,34.542 137.948 M76.158 138.458 L 75.583 139.083 76.208 138.509 C 76.790 137.974,76.910 137.833,76.783 137.833 C 76.755 137.833,76.474 138.115,76.158 138.458 M342.958 138.618 C 343.165 138.657,343.502 138.657,343.708 138.618 C 343.915 138.578,343.746 138.545,343.333 138.545 C 342.921 138.545,342.752 138.578,342.958 138.618 M89.372 139.333 C 89.372 139.654,89.406 139.785,89.448 139.625 C 89.490 139.465,89.490 139.202,89.448 139.042 C 89.406 138.881,89.372 139.012,89.372 139.333 M239.372 139.333 C 239.372 139.654,239.406 139.785,239.448 139.625 C 239.490 139.465,239.490 139.202,239.448 139.042 C 239.406 138.881,239.372 139.012,239.372 139.333 M253.039 139.333 C 253.039 139.654,253.073 139.785,253.115 139.625 C 253.157 139.465,253.157 139.202,253.115 139.042 C 253.073 138.881,253.039 139.012,253.039 139.333 M279.205 139.333 C 279.205 139.654,279.240 139.785,279.282 139.625 C 279.323 139.465,279.323 139.202,279.282 139.042 C 279.240 138.881,279.205 139.012,279.205 139.333 M280.872 139.333 C 280.872 139.654,280.906 139.785,280.948 139.625 C 280.990 139.465,280.990 139.202,280.948 139.042 C 280.906 138.881,280.872 139.012,280.872 139.333 M355.205 139.333 C 355.205 139.654,355.240 139.785,355.282 139.625 C 355.323 139.465,355.323 139.202,355.282 139.042 C 355.240 138.881,355.205 139.012,355.205 139.333 M306.625 140.454 C 306.923 140.491,307.410 140.491,307.708 140.454 C 308.006 140.417,307.762 140.387,307.167 140.387 C 306.571 140.387,306.327 140.417,306.625 140.454 M312.158 145.292 L 311.583 145.917 312.208 145.342 C 312.790 144.808,312.910 144.667,312.783 144.667 C 312.755 144.667,312.474 144.948,312.158 145.292 " stroke="none" fill="#cacfd2" fill-rule="evenodd"></path><path id="path4" d="M147.121 19.620 C 147.417 19.657,147.942 19.658,148.288 19.622 C 148.634 19.586,148.392 19.555,147.750 19.555 C 147.108 19.554,146.825 19.583,147.121 19.620 M270.720 20.500 C 270.720 21.096,270.750 21.340,270.787 21.042 C 270.824 20.744,270.824 20.256,270.787 19.958 C 270.750 19.660,270.720 19.904,270.720 20.500 M143.875 19.786 C 144.127 19.824,144.540 19.824,144.792 19.786 C 145.044 19.748,144.837 19.717,144.333 19.717 C 143.829 19.717,143.623 19.748,143.875 19.786 M141.625 19.951 C 141.831 19.991,142.169 19.991,142.375 19.951 C 142.581 19.911,142.412 19.879,142.000 19.879 C 141.587 19.879,141.419 19.911,141.625 19.951 M140.127 20.118 C 140.334 20.158,140.634 20.156,140.794 20.115 C 140.953 20.073,140.783 20.040,140.417 20.042 C 140.050 20.044,139.920 20.078,140.127 20.118 M138.708 20.282 C 138.869 20.323,139.131 20.323,139.292 20.282 C 139.452 20.240,139.321 20.205,139.000 20.205 C 138.679 20.205,138.548 20.240,138.708 20.282 M181.125 21.622 C 181.515 21.657,182.152 21.657,182.542 21.622 C 182.931 21.587,182.612 21.558,181.833 21.558 C 181.054 21.558,180.735 21.587,181.125 21.622 M188.375 21.615 C 188.535 21.657,188.798 21.657,188.958 21.615 C 189.119 21.573,188.987 21.539,188.667 21.539 C 188.346 21.539,188.215 21.573,188.375 21.615 M271.542 21.615 C 271.702 21.657,271.965 21.657,272.125 21.615 C 272.285 21.573,272.154 21.539,271.833 21.539 C 271.512 21.539,271.381 21.573,271.542 21.615 M209.603 23.334 C 209.271 23.701,209.000 24.053,209.000 24.117 C 209.000 24.181,209.056 24.162,209.125 24.075 C 209.194 23.988,209.509 23.635,209.825 23.292 C 210.140 22.948,210.355 22.667,210.302 22.667 C 210.249 22.667,209.934 22.967,209.603 23.334 M174.406 23.542 L 173.917 24.083 174.458 23.594 C 174.963 23.138,175.077 23.000,174.948 23.000 C 174.919 23.000,174.675 23.244,174.406 23.542 M194.833 23.917 C 195.144 24.238,195.436 24.500,195.482 24.500 C 195.528 24.500,195.311 24.238,195.000 23.917 C 194.689 23.596,194.397 23.333,194.351 23.333 C 194.305 23.333,194.522 23.596,194.833 23.917 M151.208 23.782 C 151.369 23.823,151.631 23.823,151.792 23.782 C 151.952 23.740,151.821 23.705,151.500 23.705 C 151.179 23.705,151.048 23.740,151.208 23.782 M208.545 26.000 C 208.545 26.412,208.578 26.581,208.618 26.375 C 208.657 26.169,208.657 25.831,208.618 25.625 C 208.578 25.419,208.545 25.587,208.545 26.000 M279.045 27.000 C 279.045 27.412,279.078 27.581,279.118 27.375 C 279.157 27.169,279.157 26.831,279.118 26.625 C 279.078 26.419,279.045 26.587,279.045 27.000 M118.740 28.375 L 118.250 28.917 118.792 28.427 C 119.090 28.158,119.333 27.914,119.333 27.885 C 119.333 27.757,119.196 27.870,118.740 28.375 M116.406 30.708 L 115.917 31.250 116.458 30.760 C 116.756 30.491,117.000 30.248,117.000 30.219 C 117.000 30.090,116.862 30.203,116.406 30.708 M129.162 31.958 L 128.083 33.083 129.208 32.005 C 130.253 31.003,130.410 30.833,130.287 30.833 C 130.261 30.833,129.755 31.340,129.162 31.958 M172.415 57.417 C 172.415 71.533,172.434 77.284,172.458 70.195 C 172.482 63.107,172.482 51.557,172.458 44.529 C 172.434 37.500,172.415 43.300,172.415 57.417 M107.055 55.250 C 107.055 55.892,107.086 56.134,107.122 55.788 C 107.158 55.442,107.157 54.917,107.120 54.621 C 107.083 54.325,107.054 54.608,107.055 55.250 M107.053 58.833 C 107.053 59.429,107.084 59.673,107.121 59.375 C 107.158 59.077,107.158 58.590,107.121 58.292 C 107.084 57.994,107.053 58.237,107.053 58.833 M123.500 75.064 C 123.500 75.243,123.996 76.167,124.092 76.167 C 124.138 76.167,124.051 75.923,123.900 75.625 C 123.590 75.017,123.500 74.890,123.500 75.064 M129.083 82.833 C 129.720 83.475,130.279 84.000,130.324 84.000 C 130.370 84.000,129.887 83.475,129.250 82.833 C 128.613 82.192,128.055 81.667,128.009 81.667 C 127.963 81.667,128.447 82.192,129.083 82.833 M117.417 84.333 C 117.961 84.883,118.444 85.333,118.490 85.333 C 118.535 85.333,118.128 84.883,117.583 84.333 C 117.039 83.783,116.556 83.333,116.510 83.333 C 116.465 83.333,116.872 83.783,117.417 84.333 M146.042 91.115 C 146.202 91.157,146.465 91.157,146.625 91.115 C 146.785 91.073,146.654 91.039,146.333 91.039 C 146.012 91.039,145.881 91.073,146.042 91.115 M152.960 91.118 C 153.168 91.158,153.468 91.156,153.627 91.115 C 153.786 91.073,153.617 91.040,153.250 91.042 C 152.883 91.044,152.753 91.078,152.960 91.118 M148.458 91.290 C 149.123 91.322,150.210 91.322,150.875 91.290 C 151.540 91.259,150.996 91.233,149.667 91.233 C 148.337 91.233,147.794 91.259,148.458 91.290 M180.714 93.290 C 181.245 93.323,182.070 93.323,182.548 93.289 C 183.026 93.256,182.592 93.229,181.583 93.229 C 180.575 93.229,180.184 93.257,180.714 93.290 M146.875 95.286 C 147.127 95.324,147.540 95.324,147.792 95.286 C 148.044 95.248,147.837 95.217,147.333 95.217 C 146.829 95.217,146.623 95.248,146.875 95.286 M145.794 105.785 C 146.001 105.824,146.301 105.823,146.460 105.781 C 146.620 105.739,146.450 105.707,146.083 105.709 C 145.717 105.711,145.586 105.745,145.794 105.785 M235.124 105.787 L 235.665 105.854 235.708 120.635 L 235.752 135.417 235.793 120.542 L 235.833 105.667 235.208 105.693 C 234.594 105.720,234.593 105.721,235.124 105.787 M248.832 105.760 L 249.332 105.854 249.375 121.135 L 249.419 136.417 249.418 121.083 L 249.417 105.750 248.875 105.708 C 248.343 105.667,248.342 105.668,248.832 105.760 M260.875 105.782 C 261.035 105.823,261.298 105.823,261.458 105.782 C 261.619 105.740,261.487 105.705,261.167 105.705 C 260.846 105.705,260.715 105.740,260.875 105.782 M37.625 107.451 C 37.831 107.491,38.169 107.491,38.375 107.451 C 38.581 107.411,38.412 107.379,38.000 107.379 C 37.587 107.379,37.419 107.411,37.625 107.451 M33.542 109.282 C 33.702 109.323,33.965 109.323,34.125 109.282 C 34.285 109.240,34.154 109.205,33.833 109.205 C 33.512 109.205,33.381 109.240,33.542 109.282 M187.875 110.417 C 187.877 110.783,187.911 110.914,187.951 110.706 C 187.991 110.499,187.990 110.199,187.948 110.040 C 187.906 109.880,187.874 110.050,187.875 110.417 M109.208 110.615 C 109.369 110.657,109.631 110.657,109.792 110.615 C 109.952 110.573,109.821 110.539,109.500 110.539 C 109.179 110.539,109.048 110.573,109.208 110.615 M260.875 110.615 C 261.035 110.657,261.298 110.657,261.458 110.615 C 261.619 110.573,261.487 110.539,261.167 110.539 C 260.846 110.539,260.715 110.573,260.875 110.615 M231.705 111.500 C 231.705 111.821,231.740 111.952,231.782 111.792 C 231.823 111.631,231.823 111.369,231.782 111.208 C 231.740 111.048,231.705 111.179,231.705 111.500 M49.167 111.219 C 49.167 111.248,49.410 111.491,49.708 111.760 L 50.250 112.250 49.760 111.708 C 49.304 111.203,49.167 111.090,49.167 111.219 M142.746 124.000 C 142.746 130.737,142.766 133.494,142.792 130.125 C 142.817 126.756,142.817 121.244,142.792 117.875 C 142.766 114.506,142.746 117.263,142.746 124.000 M46.783 115.748 C 46.935 116.068,47.089 116.300,47.125 116.263 C 47.202 116.187,46.696 115.167,46.582 115.167 C 46.540 115.167,46.630 115.428,46.783 115.748 M320.324 116.292 L 319.750 116.917 320.375 116.342 C 320.957 115.808,321.077 115.667,320.949 115.667 C 320.922 115.667,320.640 115.948,320.324 116.292 M65.714 117.290 C 66.245 117.323,67.070 117.323,67.548 117.289 C 68.026 117.256,67.592 117.229,66.583 117.229 C 65.575 117.229,65.184 117.257,65.714 117.290 M85.042 117.288 L 85.667 117.353 85.667 119.510 C 85.667 121.504,85.775 121.998,86.099 121.474 C 86.173 121.355,86.145 121.327,86.026 121.401 C 85.884 121.488,85.833 120.946,85.833 119.343 L 85.833 117.167 85.125 117.195 L 84.417 117.223 85.042 117.288 M92.455 117.287 C 92.750 117.324,93.275 117.324,93.621 117.288 C 93.967 117.252,93.725 117.222,93.083 117.221 C 92.442 117.221,92.159 117.250,92.455 117.287 M110.167 117.232 C 110.167 117.269,110.460 117.326,110.819 117.361 C 111.178 117.395,111.436 117.365,111.393 117.295 C 111.314 117.167,110.167 117.108,110.167 117.232 M127.042 117.289 C 127.477 117.324,128.190 117.324,128.625 117.289 C 129.060 117.255,128.704 117.227,127.833 117.227 C 126.962 117.227,126.606 117.255,127.042 117.289 M216.213 117.289 C 216.652 117.324,217.327 117.323,217.713 117.288 C 218.100 117.254,217.742 117.225,216.917 117.226 C 216.092 117.226,215.775 117.255,216.213 117.289 M262.374 117.282 L 262.997 117.353 263.042 126.843 L 263.087 136.333 263.085 126.792 L 263.083 117.250 262.417 117.230 L 261.750 117.210 262.374 117.282 M274.875 117.282 L 275.500 117.353 275.500 119.510 C 275.500 121.504,275.609 121.998,275.933 121.474 C 276.005 121.357,275.978 121.327,275.864 121.398 C 275.730 121.481,275.663 120.908,275.630 119.382 L 275.583 117.250 274.917 117.230 L 274.250 117.210 274.875 117.282 M282.288 117.287 C 282.584 117.324,283.109 117.324,283.455 117.288 C 283.800 117.252,283.558 117.222,282.917 117.221 C 282.275 117.221,281.992 117.250,282.288 117.287 M303.297 117.290 C 303.782 117.324,304.532 117.323,304.964 117.289 C 305.396 117.255,305.000 117.227,304.083 117.228 C 303.167 117.228,302.813 117.256,303.297 117.290 M341.797 117.290 C 342.282 117.324,343.032 117.323,343.464 117.289 C 343.896 117.255,343.500 117.227,342.583 117.228 C 341.667 117.228,341.313 117.256,341.797 117.290 M361.625 117.284 C 361.831 117.324,362.169 117.324,362.375 117.284 C 362.581 117.245,362.412 117.212,362.000 117.212 C 361.587 117.212,361.419 117.245,361.625 117.284 M369.455 117.287 C 369.750 117.324,370.275 117.324,370.621 117.288 C 370.967 117.252,370.725 117.222,370.083 117.221 C 369.442 117.221,369.159 117.250,369.455 117.287 M329.550 118.667 C 329.550 119.171,329.581 119.377,329.619 119.125 C 329.658 118.873,329.658 118.460,329.619 118.208 C 329.581 117.956,329.550 118.162,329.550 118.667 M96.167 118.052 C 96.167 118.081,96.410 118.325,96.708 118.594 L 97.250 119.083 96.760 118.542 C 96.304 118.037,96.167 117.923,96.167 118.052 M222.826 119.542 C 223.517 120.278,223.667 120.410,223.667 120.285 C 223.667 120.258,223.310 119.902,222.875 119.493 L 222.083 118.750 222.826 119.542 M59.906 119.542 L 59.417 120.083 59.958 119.594 C 60.463 119.138,60.577 119.000,60.448 119.000 C 60.419 119.000,60.175 119.244,59.906 119.542 M297.575 119.708 L 296.917 120.417 297.625 119.758 C 298.284 119.145,298.410 119.000,298.284 119.000 C 298.257 119.000,297.938 119.319,297.575 119.708 M349.750 120.167 C 350.201 120.625,350.608 121.000,350.654 121.000 C 350.700 121.000,350.368 120.625,349.917 120.167 C 349.465 119.708,349.058 119.333,349.013 119.333 C 348.967 119.333,349.299 119.708,349.750 120.167 M276.742 120.375 L 276.083 121.083 276.792 120.425 C 277.450 119.812,277.577 119.667,277.450 119.667 C 277.423 119.667,277.105 119.985,276.742 120.375 M320.577 127.833 C 320.577 132.371,320.599 134.227,320.625 131.958 C 320.651 129.690,320.651 125.977,320.625 123.708 C 320.599 121.440,320.577 123.296,320.577 127.833 M338.406 120.208 L 337.917 120.750 338.458 120.260 C 338.963 119.804,339.077 119.667,338.948 119.667 C 338.919 119.667,338.675 119.910,338.406 120.208 M218.833 120.417 C 219.144 120.737,219.436 121.000,219.482 121.000 C 219.528 121.000,219.311 120.737,219.000 120.417 C 218.689 120.096,218.397 119.833,218.351 119.833 C 218.305 119.833,218.522 120.096,218.833 120.417 M90.958 120.118 C 91.165 120.157,91.502 120.157,91.708 120.118 C 91.915 120.078,91.746 120.045,91.333 120.045 C 90.921 120.045,90.752 120.078,90.958 120.118 M280.792 120.118 C 280.998 120.157,281.335 120.157,281.542 120.118 C 281.748 120.078,281.579 120.045,281.167 120.045 C 280.754 120.045,280.585 120.078,280.792 120.118 M367.792 120.118 C 367.998 120.157,368.335 120.157,368.542 120.118 C 368.748 120.078,368.579 120.045,368.167 120.045 C 367.754 120.045,367.585 120.078,367.792 120.118 M62.559 122.250 C 62.559 123.075,62.587 123.434,62.622 123.047 C 62.657 122.660,62.657 121.985,62.623 121.547 C 62.588 121.109,62.560 121.425,62.559 122.250 M48.562 123.500 C 48.562 124.462,48.589 124.856,48.623 124.375 C 48.657 123.894,48.657 123.106,48.623 122.625 C 48.589 122.144,48.562 122.537,48.562 123.500 M54.061 123.417 C 54.061 124.333,54.089 124.687,54.123 124.203 C 54.157 123.718,54.156 122.968,54.122 122.536 C 54.088 122.104,54.060 122.500,54.061 123.417 M86.409 122.542 L 85.750 123.250 86.458 122.591 C 86.848 122.229,87.167 121.910,87.167 121.883 C 87.167 121.757,87.022 121.883,86.409 122.542 M276.199 122.550 L 275.496 123.267 275.542 130.008 L 275.587 136.750 275.627 130.006 L 275.667 123.263 276.368 122.548 C 276.754 122.155,277.032 121.833,276.986 121.833 C 276.940 121.833,276.586 122.156,276.199 122.550 M363.158 122.625 L 362.583 123.250 363.208 122.676 C 363.790 122.141,363.910 122.000,363.783 122.000 C 363.755 122.000,363.474 122.281,363.158 122.625 M358.545 123.000 C 358.545 123.412,358.578 123.581,358.618 123.375 C 358.657 123.169,358.657 122.831,358.618 122.625 C 358.578 122.419,358.545 122.587,358.545 123.000 M81.730 124.667 C 81.730 125.721,81.757 126.152,81.790 125.625 C 81.823 125.098,81.823 124.235,81.790 123.708 C 81.757 123.181,81.730 123.612,81.730 124.667 M69.865 124.033 C 69.841 124.898,69.768 125.188,69.542 125.320 C 69.381 125.413,69.335 125.492,69.438 125.495 C 69.847 125.506,70.016 125.012,69.957 123.973 L 69.898 122.917 69.865 124.033 M107.394 124.583 C 107.395 125.500,107.423 125.854,107.456 125.369 C 107.490 124.885,107.490 124.135,107.456 123.703 C 107.421 123.270,107.394 123.667,107.394 124.583 M85.742 129.417 C 85.742 132.808,85.764 134.172,85.791 132.447 C 85.819 130.723,85.819 127.948,85.791 126.281 C 85.764 124.614,85.742 126.025,85.742 129.417 M73.909 129.500 C 73.909 132.846,73.931 134.215,73.958 132.542 C 73.985 130.869,73.985 128.131,73.958 126.458 C 73.931 124.785,73.909 126.154,73.909 129.500 M271.575 129.417 C 271.575 132.625,271.597 133.914,271.625 132.281 C 271.652 130.648,271.652 128.023,271.625 126.448 C 271.597 124.872,271.575 126.208,271.575 129.417 M94.743 130.500 C 94.743 134.121,94.765 135.602,94.791 133.792 C 94.818 131.981,94.818 129.019,94.791 127.208 C 94.765 125.398,94.743 126.879,94.743 130.500 M131.180 124.289 L 131.167 124.662 126.125 124.708 L 121.083 124.755 126.130 124.794 C 131.410 124.835,131.554 124.817,131.279 124.130 C 131.232 124.013,131.187 124.084,131.180 124.289 M259.052 124.917 C 259.053 125.467,259.084 125.672,259.121 125.372 C 259.158 125.072,259.157 124.622,259.119 124.372 C 259.081 124.122,259.051 124.367,259.052 124.917 M375.575 129.500 C 375.575 132.571,375.597 133.827,375.625 132.292 C 375.652 130.756,375.652 128.244,375.625 126.708 C 375.597 125.173,375.575 126.429,375.575 129.500 M98.741 129.667 C 98.741 132.737,98.764 133.994,98.791 132.458 C 98.819 130.923,98.819 128.410,98.791 126.875 C 98.764 125.340,98.741 126.596,98.741 129.667 M312.552 125.250 C 312.553 125.800,312.584 126.005,312.621 125.705 C 312.658 125.406,312.657 124.956,312.619 124.705 C 312.581 124.455,312.551 124.700,312.552 125.250 M284.575 130.500 C 284.575 133.846,284.598 135.215,284.625 133.542 C 284.652 131.869,284.652 129.131,284.625 127.458 C 284.598 125.785,284.575 127.154,284.575 130.500 M213.219 124.791 C 214.576 124.819,216.751 124.819,218.052 124.791 C 219.353 124.763,218.242 124.740,215.583 124.740 C 212.925 124.740,211.861 124.763,213.219 124.791 M308.389 125.833 C 308.389 126.521,308.419 126.802,308.455 126.458 C 308.491 126.115,308.491 125.552,308.455 125.208 C 308.419 124.865,308.389 125.146,308.389 125.833 M299.539 125.667 C 299.539 125.987,299.573 126.119,299.615 125.958 C 299.657 125.798,299.657 125.535,299.615 125.375 C 299.573 125.215,299.539 125.346,299.539 125.667 M124.886 126.125 C 126.886 126.151,130.111 126.151,132.053 126.125 C 133.995 126.098,132.358 126.076,128.417 126.076 C 124.475 126.076,122.886 126.098,124.886 126.125 M214.470 126.125 C 216.515 126.151,219.815 126.151,221.803 126.125 C 223.791 126.098,222.117 126.077,218.083 126.077 C 214.050 126.077,212.424 126.098,214.470 126.125 M81.738 130.417 C 81.738 132.525,81.762 133.365,81.791 132.282 C 81.820 131.200,81.820 129.475,81.791 128.449 C 81.762 127.423,81.738 128.308,81.738 130.417 M69.906 130.917 C 69.905 133.208,69.929 134.169,69.958 133.051 C 69.987 131.934,69.987 130.059,69.958 128.885 C 69.929 127.711,69.906 128.625,69.906 130.917 M206.899 129.000 C 206.899 130.237,206.925 130.744,206.957 130.125 C 206.989 129.506,206.989 128.494,206.957 127.875 C 206.925 127.256,206.899 127.763,206.899 129.000 M353.059 128.417 C 353.059 129.242,353.087 129.600,353.122 129.213 C 353.157 128.827,353.157 128.152,353.123 127.713 C 353.088 127.275,353.060 127.592,353.059 128.417 M121.205 128.167 C 121.205 128.487,121.240 128.619,121.282 128.458 C 121.323 128.298,121.323 128.035,121.282 127.875 C 121.240 127.715,121.205 127.846,121.205 128.167 M117.724 129.083 C 117.724 129.817,117.754 130.096,117.789 129.704 C 117.824 129.312,117.824 128.712,117.788 128.371 C 117.752 128.029,117.723 128.350,117.724 129.083 M348.560 129.500 C 348.560 130.371,348.588 130.727,348.623 130.292 C 348.657 129.856,348.657 129.144,348.623 128.708 C 348.588 128.273,348.560 128.629,348.560 129.500 M331.881 129.083 C 331.882 129.542,331.915 129.709,331.953 129.456 C 331.991 129.203,331.990 128.828,331.951 128.623 C 331.911 128.418,331.880 128.625,331.881 129.083 M59.409 130.542 L 58.750 131.250 59.458 130.591 C 60.117 129.978,60.243 129.833,60.117 129.833 C 60.090 129.833,59.771 130.152,59.409 130.542 M301.000 129.885 C 301.000 129.914,301.244 130.158,301.542 130.427 L 302.083 130.917 301.594 130.375 C 301.138 129.870,301.000 129.757,301.000 129.885 M306.906 130.375 L 306.417 130.917 306.958 130.427 C 307.463 129.971,307.577 129.833,307.448 129.833 C 307.419 129.833,307.175 130.077,306.906 130.375 M348.545 131.833 C 348.545 132.246,348.578 132.415,348.618 132.208 C 348.657 132.002,348.657 131.665,348.618 131.458 C 348.578 131.252,348.545 131.421,348.545 131.833 M111.379 133.500 C 111.379 133.912,111.411 134.081,111.451 133.875 C 111.491 133.669,111.491 133.331,111.451 133.125 C 111.411 132.919,111.379 133.087,111.379 133.500 M297.491 133.458 L 296.917 134.083 297.542 133.509 C 298.123 132.974,298.243 132.833,298.116 132.833 C 298.088 132.833,297.807 133.115,297.491 133.458 M44.495 134.458 L 43.417 135.583 44.542 134.505 C 45.587 133.503,45.743 133.333,45.620 133.333 C 45.595 133.333,45.088 133.840,44.495 134.458 M57.720 134.667 C 57.720 135.262,57.750 135.506,57.787 135.208 C 57.824 134.910,57.824 134.423,57.787 134.125 C 57.750 133.827,57.720 134.071,57.720 134.667 M222.324 134.958 L 221.750 135.583 222.375 135.009 C 222.719 134.693,223.000 134.412,223.000 134.384 C 223.000 134.257,222.859 134.377,222.324 134.958 M81.720 135.500 C 81.720 136.096,81.750 136.340,81.787 136.042 C 81.824 135.744,81.824 135.256,81.787 134.958 C 81.750 134.660,81.720 134.904,81.720 135.500 M111.385 135.583 C 111.386 136.133,111.417 136.338,111.454 136.039 C 111.491 135.739,111.490 135.289,111.452 135.039 C 111.414 134.788,111.384 135.033,111.385 135.583 M107.381 135.583 C 107.382 136.042,107.415 136.209,107.453 135.956 C 107.491 135.703,107.490 135.328,107.451 135.123 C 107.411 134.918,107.380 135.125,107.381 135.583 M288.548 135.583 C 288.549 136.042,288.581 136.209,288.620 135.956 C 288.658 135.703,288.657 135.328,288.617 135.123 C 288.578 134.918,288.546 135.125,288.548 135.583 M48.991 135.625 L 48.417 136.250 49.042 135.676 C 49.623 135.141,49.743 135.000,49.616 135.000 C 49.588 135.000,49.307 135.281,48.991 135.625 M76.824 135.958 L 76.250 136.583 76.875 136.009 C 77.457 135.474,77.577 135.333,77.449 135.333 C 77.422 135.333,77.140 135.615,76.824 135.958 M329.276 135.458 C 329.233 135.527,329.447 135.583,329.750 135.583 C 330.053 135.583,330.267 135.527,330.224 135.458 C 330.182 135.390,329.968 135.333,329.750 135.333 C 329.532 135.333,329.318 135.390,329.276 135.458 M146.705 136.000 C 146.705 136.321,146.740 136.452,146.782 136.292 C 146.823 136.131,146.823 135.869,146.782 135.708 C 146.740 135.548,146.705 135.679,146.705 136.000 M301.877 136.453 C 302.131 136.491,302.506 136.490,302.711 136.451 C 302.916 136.411,302.708 136.380,302.250 136.381 C 301.792 136.382,301.624 136.415,301.877 136.453 M284.208 137.542 C 284.029 138.031,284.034 138.052,284.255 137.760 C 284.467 137.480,284.592 137.000,284.453 137.000 C 284.427 137.000,284.317 137.244,284.208 137.542 M120.833 137.750 C 121.144 138.071,121.436 138.333,121.482 138.333 C 121.528 138.333,121.311 138.071,121.000 137.750 C 120.689 137.429,120.397 137.167,120.351 137.167 C 120.305 137.167,120.522 137.429,120.833 137.750 M221.994 138.125 L 221.083 139.083 222.042 138.172 C 222.932 137.326,223.076 137.167,222.953 137.167 C 222.927 137.167,222.495 137.598,221.994 138.125 M76.158 138.292 L 75.583 138.917 76.208 138.342 C 76.790 137.808,76.910 137.667,76.783 137.667 C 76.755 137.667,76.474 137.948,76.158 138.292 M35.288 138.120 C 35.584 138.157,36.109 138.158,36.455 138.122 C 36.800 138.086,36.558 138.055,35.917 138.055 C 35.275 138.054,34.992 138.083,35.288 138.120 M99.907 138.574 C 100.085 138.717,100.347 138.827,100.490 138.820 C 100.715 138.809,100.716 138.794,100.500 138.714 C 100.362 138.663,100.100 138.553,99.917 138.468 C 99.589 138.317,99.589 138.319,99.907 138.574 M112.574 138.574 C 112.751 138.717,113.014 138.827,113.157 138.820 C 113.381 138.809,113.383 138.794,113.167 138.714 C 113.029 138.663,112.767 138.553,112.583 138.468 C 112.255 138.317,112.255 138.319,112.574 138.574 M343.042 138.782 C 343.202 138.823,343.465 138.823,343.625 138.782 C 343.785 138.740,343.654 138.705,343.333 138.705 C 343.012 138.705,342.881 138.740,343.042 138.782 M21.358 139.375 C 21.381 139.867,21.390 139.876,21.452 139.466 C 21.516 139.047,21.585 139.012,22.469 138.956 L 23.417 138.896 22.375 138.865 L 21.333 138.833 21.358 139.375 M78.794 138.951 C 79.001 138.991,79.301 138.990,79.460 138.948 C 79.620 138.906,79.450 138.874,79.083 138.875 C 78.717 138.877,78.586 138.911,78.794 138.951 M88.460 138.951 C 88.668 138.991,88.968 138.990,89.127 138.948 C 89.286 138.906,89.117 138.874,88.750 138.875 C 88.383 138.877,88.253 138.911,88.460 138.951 M91.231 139.074 C 91.180 139.206,91.174 139.449,91.217 139.615 C 91.269 139.817,91.301 139.768,91.314 139.468 C 91.331 139.077,91.413 139.012,91.958 138.955 L 92.583 138.889 91.953 138.861 C 91.538 138.843,91.291 138.915,91.231 139.074 M101.490 138.926 C 101.844 138.994,102.000 139.133,102.052 139.429 C 102.115 139.785,102.121 139.779,102.104 139.377 C 102.086 138.982,102.006 138.911,101.542 138.875 C 101.026 138.835,101.024 138.838,101.490 138.926 M104.375 138.948 C 104.535 138.990,104.798 138.990,104.958 138.948 C 105.119 138.906,104.987 138.872,104.667 138.872 C 104.346 138.872,104.215 138.906,104.375 138.948 M114.157 138.926 C 114.511 138.994,114.666 139.133,114.719 139.429 C 114.781 139.785,114.788 139.779,114.770 139.377 C 114.753 138.982,114.673 138.911,114.208 138.875 C 113.693 138.835,113.690 138.838,114.157 138.926 M139.794 138.951 C 140.001 138.991,140.301 138.990,140.460 138.948 C 140.620 138.906,140.450 138.874,140.083 138.875 C 139.717 138.877,139.586 138.911,139.794 138.951 M149.657 138.926 C 150.011 138.994,150.166 139.133,150.219 139.429 C 150.281 139.785,150.288 139.779,150.270 139.377 C 150.253 138.982,150.173 138.911,149.708 138.875 C 149.193 138.835,149.190 138.838,149.657 138.926 M228.564 139.074 C 228.513 139.206,228.507 139.449,228.550 139.615 C 228.602 139.817,228.634 139.769,228.647 139.469 C 228.664 139.094,228.755 139.010,229.208 138.954 L 229.750 138.887 229.203 138.860 C 228.861 138.843,228.622 138.923,228.564 139.074 M238.460 138.951 C 238.668 138.991,238.968 138.990,239.127 138.948 C 239.286 138.906,239.117 138.874,238.750 138.875 C 238.383 138.877,238.253 138.911,238.460 138.951 M242.192 139.375 C 242.214 139.865,242.223 139.874,242.285 139.468 C 242.340 139.108,242.458 139.007,242.885 138.953 C 243.396 138.889,243.392 138.886,242.792 138.860 C 242.188 138.834,242.167 138.851,242.192 139.375 M252.127 138.951 C 252.334 138.991,252.634 138.990,252.794 138.948 C 252.953 138.906,252.783 138.874,252.417 138.875 C 252.050 138.877,251.920 138.911,252.127 138.951 M256.042 138.948 C 256.202 138.990,256.465 138.990,256.625 138.948 C 256.785 138.906,256.654 138.872,256.333 138.872 C 256.012 138.872,255.881 138.906,256.042 138.948 M265.823 138.926 C 266.177 138.994,266.333 139.133,266.385 139.429 C 266.448 139.785,266.455 139.779,266.437 139.377 C 266.420 138.982,266.340 138.911,265.875 138.875 C 265.360 138.835,265.357 138.838,265.823 138.926 M268.231 139.074 C 268.180 139.206,268.174 139.449,268.217 139.615 C 268.269 139.817,268.301 139.768,268.314 139.468 C 268.331 139.077,268.413 139.012,268.958 138.955 L 269.583 138.889 268.953 138.861 C 268.538 138.843,268.291 138.915,268.231 139.074 M278.448 138.953 C 278.875 139.007,278.993 139.108,279.048 139.468 C 279.110 139.874,279.119 139.865,279.142 139.375 C 279.166 138.851,279.146 138.834,278.542 138.860 C 277.941 138.886,277.937 138.889,278.448 138.953 M281.064 139.074 C 281.013 139.206,281.007 139.449,281.050 139.615 C 281.102 139.817,281.134 139.768,281.147 139.468 C 281.164 139.077,281.247 139.012,281.792 138.955 L 282.417 138.889 281.786 138.861 C 281.371 138.843,281.125 138.915,281.064 139.074 M291.323 138.926 C 291.677 138.994,291.833 139.133,291.885 139.429 C 291.948 139.785,291.955 139.779,291.937 139.377 C 291.920 138.982,291.840 138.911,291.375 138.875 C 290.860 138.835,290.857 138.838,291.323 138.926 M355.627 138.951 C 355.834 138.991,356.134 138.990,356.294 138.948 C 356.453 138.906,356.283 138.874,355.917 138.875 C 355.550 138.877,355.420 138.911,355.627 138.951 M365.294 138.951 C 365.501 138.991,365.801 138.990,365.960 138.948 C 366.120 138.906,365.950 138.874,365.583 138.875 C 365.217 138.877,365.086 138.911,365.294 138.951 M368.458 138.951 C 368.665 138.991,369.002 138.991,369.208 138.951 C 369.415 138.911,369.246 138.879,368.833 138.879 C 368.421 138.879,368.252 138.911,368.458 138.951 M378.365 138.952 C 378.663 138.997,378.836 139.142,378.884 139.385 C 378.942 139.686,378.959 139.669,378.977 139.292 C 378.998 138.876,378.949 138.836,378.458 138.858 C 377.969 138.881,377.960 138.890,378.365 138.952 M297.578 139.473 C 297.658 139.614,297.501 139.918,297.147 140.306 L 296.590 140.917 297.248 140.294 C 297.795 139.777,297.867 139.637,297.678 139.461 C 297.494 139.290,297.475 139.292,297.578 139.473 M62.627 140.285 C 62.834 140.324,63.134 140.323,63.294 140.281 C 63.453 140.239,63.283 140.207,62.917 140.209 C 62.550 140.211,62.420 140.245,62.627 140.285 M312.514 141.042 C 312.552 141.065,312.808 141.271,313.083 141.500 L 313.583 141.917 313.179 141.458 C 312.957 141.206,312.701 141.000,312.610 141.000 C 312.519 141.000,312.476 141.019,312.514 141.042 M315.383 141.833 C 315.383 142.337,315.415 142.544,315.453 142.292 C 315.491 142.040,315.491 141.627,315.453 141.375 C 315.415 141.123,315.383 141.329,315.383 141.833 M293.539 145.833 C 293.539 146.154,293.573 146.285,293.615 146.125 C 293.657 145.965,293.657 145.702,293.615 145.542 C 293.573 145.381,293.539 145.512,293.539 145.833 M310.000 148.833 C 309.679 149.009,309.477 149.156,309.550 149.160 C 309.727 149.169,310.667 148.680,310.667 148.579 C 310.667 148.470,310.657 148.474,310.000 148.833 " stroke="none" fill="#807e74" fill-rule="evenodd"></path></g></svg>