<svg id="svg" version="1.1" xmlns="http://www.w3.org/2000/svg" xmlns:xlink="http://www.w3.org/1999/xlink" width="400" height="210" viewBox="0, 0, 400,210"><g id="svgg"><path id="path0" d="M192.542 65.020 C 190.338 65.289,188.419 65.661,187.710 65.957 C 187.479 66.053,186.817 66.296,186.239 66.496 C 177.216 69.623,171.999 74.929,168.273 84.769 C 168.185 85.000,167.954 85.804,167.759 86.555 C 167.563 87.306,167.316 88.251,167.209 88.655 C 167.102 89.060,166.928 89.769,166.824 90.231 C 166.719 90.693,166.243 92.584,165.766 94.433 C 165.289 96.282,164.771 98.361,164.613 99.055 C 164.456 99.748,164.129 101.063,163.886 101.977 C 162.402 107.570,163.560 108.697,170.669 108.577 C 175.897 108.488,176.061 108.382,176.889 104.555 C 176.993 104.072,177.231 103.062,177.416 102.311 C 177.917 100.288,178.077 99.627,178.462 98.004 C 178.654 97.195,178.951 95.966,179.123 95.273 C 179.294 94.580,179.512 93.682,179.607 93.277 C 179.701 92.873,180.082 91.360,180.453 89.916 C 180.825 88.472,181.208 86.912,181.305 86.450 C 181.475 85.637,181.764 84.891,182.768 82.668 C 184.547 78.730,188.815 74.913,193.067 73.456 C 196.186 72.387,195.743 72.406,219.673 72.333 L 242.182 72.263 242.292 71.583 C 242.353 71.209,242.546 70.336,242.720 69.643 C 242.895 68.950,243.182 67.768,243.359 67.017 C 243.536 66.266,243.743 65.439,243.819 65.179 L 243.957 64.706 219.300 64.735 C 201.369 64.757,194.070 64.834,192.542 65.020 M211.134 83.408 C 209.440 83.633,207.353 84.004,206.513 84.228 C 204.381 84.798,203.213 85.133,202.836 85.285 C 202.605 85.378,201.991 85.620,201.471 85.823 C 194.589 88.507,190.748 91.422,185.970 97.584 C 184.396 99.613,181.638 105.905,181.761 107.184 C 181.907 108.700,180.289 108.613,208.246 108.613 C 231.463 108.613,233.193 108.589,233.193 108.261 C 233.193 108.067,233.286 107.618,233.400 107.263 C 233.514 106.908,233.806 105.814,234.049 104.832 C 234.292 103.850,234.575 102.715,234.678 102.311 C 234.780 101.907,234.866 101.457,234.869 101.313 C 234.873 101.105,231.126 101.050,216.822 101.050 C 200.221 101.050,198.741 101.022,198.418 100.699 C 197.046 99.327,201.052 94.499,205.169 92.564 C 206.935 91.734,207.118 91.664,208.403 91.317 C 209.039 91.146,209.937 90.884,210.399 90.735 C 211.036 90.531,214.427 90.447,224.410 90.389 L 237.580 90.313 237.800 89.642 C 237.921 89.273,238.111 88.545,238.222 88.025 C 238.333 87.505,238.577 86.465,238.764 85.714 C 238.952 84.963,239.157 84.089,239.219 83.771 L 239.333 83.193 225.812 83.224 C 218.375 83.241,211.770 83.324,211.134 83.408 M120.870 119.550 C 117.583 119.978,113.478 122.144,111.216 124.643 C 109.535 126.501,107.353 130.358,107.353 131.472 C 107.353 131.583,107.216 132.134,107.049 132.696 C 106.881 133.259,106.359 135.326,105.888 137.290 C 105.418 139.254,104.893 141.404,104.722 142.066 C 104.284 143.766,104.329 144.195,105.021 144.936 L 105.631 145.588 119.828 145.588 L 134.026 145.588 134.142 145.011 C 134.206 144.693,134.349 144.145,134.459 143.793 C 134.570 143.441,134.721 142.708,134.796 142.165 L 134.931 141.176 124.319 141.176 C 112.433 141.176,113.108 141.269,113.299 139.658 C 113.410 138.719,113.899 136.478,114.229 135.399 L 114.421 134.769 125.427 134.714 C 131.480 134.685,136.504 134.588,136.591 134.501 C 136.679 134.413,136.901 133.682,137.085 132.875 C 137.269 132.068,137.472 131.195,137.537 130.935 L 137.654 130.462 126.699 130.462 C 117.227 130.462,115.727 130.420,115.624 130.152 C 115.340 129.412,117.513 126.359,119.223 125.096 C 121.021 123.767,120.331 123.850,130.184 123.782 L 139.256 123.719 139.691 121.865 C 139.930 120.845,140.126 119.857,140.126 119.669 C 140.126 119.291,123.638 119.189,120.870 119.550 M146.972 119.590 C 146.642 120.766,146.397 121.746,146.117 123.004 C 145.938 123.813,145.705 124.806,145.600 125.210 C 145.494 125.614,145.268 126.560,145.096 127.311 C 144.642 129.301,144.122 131.510,143.912 132.353 C 143.810 132.757,143.582 133.703,143.404 134.454 C 143.227 135.205,142.795 137.021,142.444 138.490 C 142.093 139.959,141.807 141.348,141.807 141.576 C 141.807 141.805,141.712 142.050,141.597 142.122 C 141.215 142.358,141.360 144.386,141.800 144.958 L 142.203 145.483 150.356 145.483 C 159.166 145.483,159.149 145.485,162.185 144.267 C 167.500 142.135,171.122 137.657,172.370 131.676 C 173.736 125.130,170.831 120.359,164.983 119.546 C 162.615 119.217,147.066 119.255,146.972 119.590 M180.776 119.489 C 180.517 119.678,180.129 120.828,179.944 121.954 C 179.868 122.416,179.719 123.078,179.612 123.424 C 179.369 124.216,178.615 127.223,178.243 128.887 C 178.088 129.580,177.810 130.762,177.625 131.513 C 177.440 132.264,177.209 133.209,177.113 133.613 C 177.017 134.018,176.781 134.963,176.588 135.714 C 176.395 136.465,176.092 137.694,175.915 138.445 C 175.737 139.196,175.499 140.189,175.385 140.651 C 174.271 145.175,174.566 145.588,178.919 145.588 C 180.492 145.588,181.125 145.514,181.174 145.326 C 181.327 144.741,182.367 140.320,182.768 138.550 C 183.003 137.511,183.285 136.329,183.394 135.924 C 183.502 135.520,183.745 134.527,183.933 133.718 C 184.120 132.910,184.361 131.917,184.467 131.513 C 184.574 131.108,184.853 129.926,185.088 128.887 C 185.737 126.012,186.550 122.659,186.772 121.944 C 186.882 121.592,187.032 120.859,187.107 120.316 L 187.242 119.328 184.115 119.331 C 182.395 119.333,180.892 119.404,180.776 119.489 M226.675 119.867 C 226.563 120.163,226.471 120.573,226.471 120.777 C 226.471 120.981,226.402 121.217,226.318 121.301 C 226.234 121.385,226.037 122.039,225.880 122.754 C 225.723 123.469,225.513 124.386,225.414 124.790 C 225.314 125.194,225.081 126.140,224.896 126.891 C 224.711 127.642,224.430 128.824,224.273 129.517 C 224.115 130.210,223.826 131.392,223.629 132.143 C 223.432 132.894,223.193 133.839,223.097 134.244 C 223.001 134.648,222.782 135.546,222.610 136.239 C 222.439 136.933,222.141 138.162,221.950 138.971 C 221.758 139.779,221.506 140.819,221.389 141.282 C 220.471 144.934,221.020 145.588,225.008 145.588 L 227.264 145.588 227.405 144.800 C 227.483 144.367,227.635 143.729,227.742 143.382 C 227.850 143.036,228.225 141.523,228.575 140.021 C 229.195 137.360,229.343 136.756,229.818 134.945 C 229.944 134.464,230.136 133.661,230.244 133.159 C 230.352 132.658,230.580 131.681,230.752 130.987 C 230.923 130.294,231.220 129.065,231.412 128.256 C 231.604 127.447,231.843 126.455,231.944 126.050 C 232.045 125.646,232.269 124.701,232.440 123.950 C 233.073 121.181,233.355 120.054,233.505 119.695 C 233.647 119.354,233.415 119.328,230.269 119.328 L 226.880 119.328 226.675 119.867 M249.153 119.538 C 238.402 121.361,231.024 135.494,237.176 142.483 C 239.548 145.176,240.643 145.422,250.762 145.531 L 259.191 145.621 259.308 145.027 C 259.725 142.909,260.021 141.658,260.160 141.434 C 260.284 141.232,258.740 141.176,253.050 141.176 C 244.895 141.176,244.832 141.166,243.540 139.598 C 240.345 135.722,243.564 126.054,248.668 124.199 C 249.795 123.789,250.487 123.742,257.187 123.611 L 264.479 123.468 264.717 122.291 C 264.848 121.643,265.041 120.896,265.146 120.631 C 265.692 119.246,266.154 119.325,257.721 119.352 C 253.532 119.366,249.677 119.450,249.153 119.538 M279.826 119.538 C 277.960 119.855,275.359 120.917,273.431 122.151 C 264.984 127.554,263.074 141.445,270.375 144.378 C 270.665 144.494,271.376 144.784,271.954 145.021 C 272.940 145.426,273.522 145.458,281.432 145.537 L 289.861 145.621 290.005 145.027 C 290.085 144.700,290.275 143.866,290.428 143.172 C 290.581 142.479,290.775 141.746,290.859 141.544 C 291.002 141.198,290.584 141.176,283.765 141.176 C 276.344 141.176,276.224 141.165,275.095 140.336 C 273.938 139.486,272.736 136.656,272.936 135.249 L 273.004 134.769 282.802 134.714 L 292.600 134.660 292.749 133.664 C 292.831 133.116,292.971 132.526,293.059 132.353 C 293.147 132.180,293.281 131.636,293.356 131.145 L 293.492 130.252 283.826 130.252 C 277.140 130.252,274.160 130.183,274.160 130.029 C 274.160 128.766,276.796 125.468,278.607 124.465 L 279.727 123.845 287.290 123.782 C 291.449 123.747,294.917 123.653,294.997 123.572 C 295.191 123.374,296.008 120.286,296.008 119.752 C 296.008 119.302,282.287 119.121,279.826 119.538 M203.887 119.689 C 202.852 119.833,200.609 120.658,198.950 121.503 C 195.204 123.411,191.725 127.597,190.739 131.384 C 190.645 131.744,190.327 133.030,190.031 134.244 C 189.735 135.457,189.407 136.780,189.301 137.185 C 189.195 137.589,188.954 138.535,188.764 139.286 C 188.574 140.037,188.323 140.961,188.206 141.340 C 187.653 143.134,187.714 144.259,188.401 144.946 L 189.043 145.588 191.587 145.588 C 193.440 145.588,194.152 145.517,194.210 145.326 C 194.254 145.181,194.490 144.165,194.735 143.067 C 195.609 139.144,196.274 136.444,196.455 136.085 C 196.556 135.884,196.639 135.580,196.639 135.409 C 196.639 134.716,197.408 134.664,207.627 134.664 L 217.803 134.664 218.054 133.666 C 218.192 133.117,218.434 132.172,218.591 131.565 L 218.876 130.462 208.598 130.462 L 198.319 130.462 198.319 129.978 C 198.319 129.252,200.171 126.591,201.366 125.602 C 203.282 124.014,202.937 124.067,212.181 123.950 L 220.476 123.845 220.621 123.109 C 220.701 122.705,220.869 121.949,220.994 121.429 C 221.119 120.909,221.270 120.270,221.329 120.011 L 221.437 119.538 212.977 119.569 C 208.324 119.587,204.233 119.640,203.887 119.689 M162.968 124.212 C 165.656 125.653,166.301 130.661,164.366 135.057 C 163.521 136.977,163.256 137.375,161.955 138.677 C 159.595 141.040,159.134 141.176,153.492 141.176 C 148.609 141.176,148.382 141.135,148.724 140.299 C 148.833 140.031,149.213 138.535,149.568 136.975 C 149.922 135.415,150.300 133.808,150.406 133.403 C 150.513 132.999,150.752 132.006,150.938 131.197 C 151.124 130.389,151.358 129.443,151.457 129.097 C 151.557 128.750,151.845 127.521,152.097 126.366 C 152.350 125.210,152.593 124.147,152.637 124.002 C 152.804 123.461,161.912 123.646,162.968 124.212 " stroke="none" fill="#051d2d" fill-rule="evenodd"></path><path id="path1" d="M0.000 105.042 L 0.000 210.084 200.000 210.084 L 400.000 210.084 400.000 105.042 L 400.000 0.000 200.000 0.000 L 0.000 0.000 0.000 105.042 M244.118 64.899 C 244.118 65.124,243.568 67.463,243.299 68.382 C 243.198 68.729,242.939 69.789,242.723 70.739 L 242.332 72.465 219.748 72.543 C 195.955 72.625,197.311 72.575,193.697 73.511 C 188.391 74.887,183.129 80.549,181.578 86.555 C 180.835 89.432,180.329 91.480,179.945 93.172 C 179.591 94.732,178.847 97.755,178.574 98.739 C 178.462 99.144,178.083 100.704,177.731 102.206 C 176.112 109.122,176.452 108.824,170.182 108.824 C 165.279 108.824,164.695 108.702,163.766 107.484 C 162.701 106.087,162.782 104.970,164.399 98.739 C 164.594 97.988,164.832 97.043,164.928 96.639 C 165.643 93.630,166.570 89.920,166.793 89.181 C 166.897 88.834,167.047 88.220,167.125 87.815 C 167.471 86.037,168.955 81.767,169.741 80.289 C 173.267 73.655,177.599 69.783,184.973 66.673 C 185.893 66.284,186.796 65.966,186.979 65.966 C 187.162 65.966,187.401 65.879,187.511 65.772 C 187.691 65.597,188.201 65.468,190.861 64.929 C 192.053 64.687,244.118 64.658,244.118 64.899 M239.706 82.974 C 239.706 83.164,238.690 87.377,238.209 89.181 C 238.085 89.643,237.913 90.163,237.825 90.336 C 237.686 90.609,235.894 90.667,224.347 90.768 C 210.174 90.892,210.434 90.874,207.248 91.975 C 203.743 93.185,200.499 95.720,198.915 98.486 C 197.365 101.193,196.746 101.109,217.752 101.019 L 234.979 100.945 234.956 101.681 C 234.933 102.419,234.830 102.883,233.472 108.351 L 233.354 108.824 207.989 108.824 L 182.624 108.824 182.068 108.308 C 181.646 107.917,181.513 107.592,181.513 106.953 C 181.513 106.156,181.604 105.837,182.277 104.275 C 182.435 103.911,182.563 103.518,182.563 103.401 C 182.563 102.340,186.339 96.357,188.504 93.988 C 192.152 89.997,198.670 86.057,203.992 84.625 C 207.273 83.742,209.900 83.242,212.500 83.005 C 215.249 82.755,239.706 82.727,239.706 82.974 M140.289 119.084 C 140.535 119.240,140.294 121.072,139.842 122.479 C 139.787 122.652,139.686 123.047,139.618 123.356 L 139.496 123.918 130.515 123.995 C 121.666 124.071,121.519 124.079,120.518 124.554 C 119.185 125.186,117.297 127.119,116.425 128.743 L 115.728 130.042 126.771 130.042 L 137.815 130.042 137.816 130.515 C 137.816 131.067,137.235 133.716,136.963 134.399 L 136.775 134.870 125.710 134.925 L 114.645 134.979 114.389 135.924 C 113.585 138.897,113.362 140.158,113.581 140.504 C 113.787 140.830,114.734 140.870,124.498 140.966 L 135.189 141.071 135.144 141.597 C 135.106 142.040,134.559 144.680,134.328 145.536 C 134.272 145.743,131.195 145.798,119.839 145.798 L 105.421 145.798 104.794 145.128 C 104.119 144.405,104.067 143.523,104.581 141.492 C 104.698 141.029,104.951 139.989,105.143 139.181 C 105.335 138.372,105.632 137.143,105.803 136.450 C 105.974 135.756,106.198 134.811,106.300 134.349 C 107.415 129.294,109.189 125.928,112.022 123.491 C 113.939 121.841,114.605 121.441,117.542 120.174 C 120.021 119.104,121.702 118.952,131.303 118.932 C 136.098 118.922,140.141 118.990,140.289 119.084 M164.811 119.204 C 171.599 120.366,175.063 126.912,172.269 133.298 C 172.168 133.529,172.019 133.955,171.938 134.244 C 170.847 138.136,167.477 141.989,163.445 143.954 C 159.653 145.802,159.676 145.798,150.261 145.798 L 142.284 145.798 141.756 145.270 C 141.206 144.720,140.924 143.834,141.082 143.151 C 141.734 140.327,142.299 137.875,142.553 136.765 C 142.724 136.014,142.953 135.068,143.060 134.664 C 143.167 134.259,143.409 133.267,143.596 132.458 C 143.784 131.649,144.019 130.657,144.118 130.252 C 144.284 129.571,144.428 128.954,145.294 125.210 C 145.468 124.459,145.698 123.514,145.806 123.109 C 145.913 122.705,146.154 121.712,146.341 120.903 C 146.528 120.095,146.832 119.315,147.015 119.170 C 147.511 118.780,162.503 118.809,164.811 119.204 M187.352 119.087 C 187.659 119.281,187.531 119.989,186.266 125.105 C 185.766 127.127,185.272 129.236,185.068 130.218 C 184.965 130.719,184.776 131.523,184.650 132.004 C 184.192 133.749,183.130 138.157,182.567 140.651 C 182.332 141.691,182.050 142.873,181.940 143.277 C 181.831 143.682,181.662 144.391,181.567 144.853 L 181.392 145.693 178.606 145.752 L 175.820 145.811 175.200 145.190 C 174.314 144.305,174.349 143.353,175.413 139.286 C 175.518 138.881,175.900 137.321,176.261 135.819 C 176.621 134.317,177.006 132.757,177.115 132.353 C 177.313 131.620,177.587 130.479,177.948 128.887 C 178.053 128.424,178.638 126.061,179.248 123.634 L 180.357 119.223 182.668 119.107 C 186.579 118.910,187.071 118.908,187.352 119.087 M233.722 119.124 C 233.796 119.242,233.710 119.928,233.533 120.647 C 233.355 121.366,232.969 122.994,232.675 124.265 C 232.381 125.536,232.048 126.907,231.936 127.311 C 231.824 127.715,231.446 129.275,231.096 130.777 C 230.746 132.279,230.374 133.792,230.271 134.139 C 230.167 134.485,230.020 135.147,229.944 135.609 C 229.868 136.071,229.724 136.733,229.623 137.080 C 229.293 138.216,229.008 139.347,228.230 142.595 L 227.464 145.798 224.876 145.798 C 220.404 145.798,219.927 144.965,221.448 139.811 C 221.550 139.464,221.923 137.952,222.276 136.450 C 222.630 134.947,223.007 133.388,223.114 132.983 C 223.222 132.579,223.450 131.681,223.622 130.987 C 223.793 130.294,224.135 128.923,224.381 127.941 C 224.628 126.959,224.952 125.588,225.103 124.895 C 225.604 122.594,226.296 119.857,226.459 119.538 C 226.712 119.040,233.433 118.656,233.722 119.124 M265.639 119.098 C 265.746 119.272,265.532 120.334,264.881 122.850 C 264.583 124.005,265.059 123.938,256.618 124.001 L 249.475 124.055 248.294 124.644 C 242.545 127.514,240.464 138.392,245.247 140.564 C 246.038 140.923,246.729 140.958,253.191 140.962 C 260.585 140.967,260.612 140.970,260.315 141.940 C 260.214 142.271,259.960 143.275,259.751 144.170 L 259.370 145.798 251.161 145.798 C 242.117 145.798,241.342 145.710,239.167 144.436 C 234.896 141.933,233.720 137.296,235.757 130.987 C 237.732 124.871,242.689 120.522,249.159 119.230 C 250.778 118.906,265.448 118.789,265.639 119.098 M296.327 119.124 C 296.448 119.318,296.205 120.555,295.559 123.043 L 295.331 123.922 287.634 123.988 L 279.937 124.055 278.817 124.675 C 277.174 125.585,274.370 128.915,274.370 129.956 C 274.370 130.003,278.718 130.042,284.034 130.042 L 293.697 130.042 293.697 130.485 C 293.697 131.013,293.103 133.732,292.841 134.401 L 292.656 134.874 282.988 134.874 L 273.319 134.874 273.319 135.742 C 273.319 137.614,274.387 139.753,275.682 140.476 C 276.299 140.821,277.073 140.864,283.613 140.923 C 291.483 140.993,291.306 140.964,290.995 142.149 C 290.877 142.596,290.671 143.435,290.536 144.013 C 290.401 144.590,290.248 145.228,290.194 145.431 C 290.104 145.773,289.528 145.798,281.840 145.798 L 273.583 145.798 271.928 145.262 C 265.968 143.329,264.079 138.081,266.637 130.567 C 268.610 124.770,273.605 120.470,279.800 119.235 C 281.560 118.884,296.119 118.786,296.327 119.124 M221.635 119.695 C 221.632 119.898,221.415 120.961,221.150 122.059 L 220.670 124.055 212.383 124.160 C 203.266 124.275,203.714 124.211,201.731 125.696 C 200.674 126.489,198.959 128.758,198.647 129.777 L 198.502 130.248 208.757 130.303 L 219.013 130.357 218.977 130.882 C 218.958 131.171,218.787 132.022,218.597 132.773 C 218.408 133.524,218.200 134.350,218.136 134.609 L 218.019 135.080 207.497 135.135 L 196.975 135.189 196.705 136.134 C 196.557 136.654,196.053 138.687,195.587 140.651 C 195.120 142.616,194.642 144.577,194.525 145.011 L 194.311 145.798 191.572 145.798 L 188.833 145.798 188.195 145.160 C 187.473 144.438,187.451 143.263,188.111 140.651 C 188.461 139.269,189.000 137.074,189.273 135.924 C 190.233 131.882,190.535 130.934,191.561 128.732 C 193.580 124.398,197.396 121.296,202.626 119.736 C 204.540 119.165,221.641 119.129,221.635 119.695 M152.983 124.202 C 152.845 124.340,152.731 124.591,152.731 124.759 C 152.731 125.029,151.791 129.112,151.273 131.092 C 151.167 131.497,150.927 132.489,150.739 133.298 C 150.552 134.107,150.309 135.100,150.201 135.504 C 150.037 136.114,149.544 138.242,149.046 140.494 L 148.942 140.966 153.353 140.966 C 158.327 140.966,158.705 140.887,160.735 139.415 C 162.959 137.803,164.170 135.599,165.109 131.457 C 165.857 128.159,164.519 124.805,162.199 124.160 C 161.085 123.851,153.299 123.886,152.983 124.202 " stroke="none" fill="#fbfbfb" fill-rule="evenodd"></path><path id="path2" d="M192.017 64.925 C 191.563 65.026,191.884 65.045,192.857 64.975 C 193.724 64.912,194.472 64.826,194.520 64.784 C 194.673 64.648,192.782 64.755,192.017 64.925 M242.358 70.911 C 242.286 71.099,242.235 71.411,242.245 71.603 C 242.255 71.796,242.346 71.675,242.448 71.334 C 242.646 70.671,242.576 70.343,242.358 70.911 M174.994 73.267 L 173.634 74.685 175.053 73.325 C 175.832 72.578,176.471 71.940,176.471 71.907 C 176.471 71.753,176.257 71.950,174.994 73.267 M197.224 72.441 C 196.897 72.571,224.467 72.558,236.975 72.422 C 239.806 72.391,232.101 72.351,219.853 72.332 C 207.605 72.314,197.422 72.363,197.224 72.441 M194.118 73.119 C 193.888 73.275,193.972 73.294,194.433 73.191 C 195.205 73.018,195.373 72.898,194.835 72.902 C 194.614 72.904,194.291 73.002,194.118 73.119 M225.934 83.141 C 236.191 83.184,239.195 83.255,239.324 83.457 C 239.441 83.642,239.490 83.611,239.493 83.351 C 239.496 83.004,238.738 82.986,226.103 83.034 L 212.710 83.085 225.934 83.141 M209.034 83.613 C 208.611 83.749,208.591 83.783,208.929 83.788 C 209.160 83.791,209.538 83.713,209.769 83.613 C 210.304 83.383,209.752 83.383,209.034 83.613 M238.997 84.567 C 238.924 84.755,238.874 85.066,238.884 85.259 C 238.894 85.452,238.985 85.330,239.087 84.990 C 239.285 84.326,239.215 83.998,238.997 84.567 M167.767 85.834 C 167.690 86.142,167.667 86.435,167.717 86.484 C 167.766 86.534,167.870 86.322,167.947 86.014 C 168.024 85.707,168.047 85.414,167.998 85.365 C 167.948 85.315,167.844 85.526,167.767 85.834 M181.423 85.834 C 181.345 86.142,181.323 86.435,181.372 86.484 C 181.422 86.534,181.525 86.322,181.603 86.014 C 181.680 85.707,181.703 85.414,181.653 85.365 C 181.604 85.315,181.500 85.526,181.423 85.834 M238.366 87.088 C 238.294 87.276,238.243 87.587,238.253 87.780 C 238.263 87.973,238.355 87.851,238.456 87.511 C 238.655 86.847,238.584 86.519,238.366 87.088 M237.605 90.091 C 237.605 90.274,234.447 90.349,225.053 90.387 L 212.500 90.438 224.988 90.494 C 236.781 90.546,238.248 90.489,237.749 89.989 C 237.670 89.911,237.605 89.956,237.605 90.091 M166.621 90.371 C 166.608 90.564,166.542 90.895,166.476 91.107 C 166.361 91.472,166.367 91.472,166.595 91.117 C 166.727 90.912,166.792 90.581,166.740 90.382 C 166.655 90.057,166.643 90.056,166.621 90.371 M211.294 90.695 C 211.556 90.745,211.934 90.743,212.135 90.691 C 212.336 90.638,212.122 90.597,211.660 90.599 C 211.197 90.602,211.033 90.645,211.294 90.695 M179.742 92.557 C 179.665 92.865,179.642 93.157,179.691 93.207 C 179.741 93.256,179.845 93.045,179.922 92.737 C 179.999 92.429,180.022 92.137,179.972 92.087 C 179.923 92.038,179.819 92.249,179.742 92.557 M189.489 93.225 L 188.340 94.433 189.548 93.284 C 190.213 92.653,190.756 92.109,190.756 92.077 C 190.756 91.921,190.555 92.103,189.489 93.225 M179.333 94.231 C 179.261 94.419,179.210 94.730,179.220 94.923 C 179.230 95.115,179.321 94.994,179.423 94.653 C 179.621 93.990,179.551 93.662,179.333 94.231 M178.702 96.752 C 178.630 96.940,178.580 97.251,178.589 97.444 C 178.599 97.636,178.691 97.515,178.793 97.174 C 178.991 96.511,178.921 96.183,178.702 96.752 M164.310 99.615 C 164.297 99.808,164.231 100.139,164.165 100.350 C 164.050 100.715,164.056 100.716,164.284 100.361 C 164.416 100.155,164.481 99.824,164.429 99.626 C 164.344 99.300,164.332 99.299,164.310 99.615 M177.022 103.685 C 176.950 103.872,176.899 104.184,176.909 104.376 C 176.919 104.569,177.010 104.448,177.112 104.107 C 177.310 103.444,177.240 103.116,177.022 103.685 M163.304 104.937 C 163.305 105.746,163.343 106.051,163.389 105.615 C 163.434 105.179,163.433 104.517,163.387 104.144 C 163.341 103.772,163.303 104.128,163.304 104.937 M233.733 105.792 C 233.656 106.100,233.634 106.393,233.683 106.442 C 233.733 106.492,233.836 106.280,233.914 105.972 C 233.991 105.665,234.014 105.372,233.964 105.323 C 233.915 105.273,233.811 105.484,233.733 105.792 M164.331 107.826 C 164.657 108.143,165.039 108.400,165.182 108.397 C 165.324 108.393,165.252 108.286,165.021 108.158 C 164.790 108.030,164.407 107.773,164.171 107.587 C 163.934 107.400,164.006 107.508,164.331 107.826 M233.324 107.466 C 233.252 107.654,233.201 107.965,233.211 108.158 C 233.221 108.351,233.313 108.230,233.414 107.889 C 233.613 107.226,233.542 106.897,233.324 107.466 M131.131 119.274 C 139.448 119.328,140.104 119.359,140.185 119.698 C 140.251 119.972,140.267 119.958,140.252 119.643 C 140.231 119.230,140.083 119.223,131.197 119.219 L 122.164 119.216 131.131 119.274 M146.986 119.275 C 146.897 119.419,153.357 119.415,160.819 119.268 C 162.437 119.236,160.008 119.189,155.422 119.164 C 150.836 119.138,147.040 119.189,146.986 119.275 M185.859 119.273 C 187.088 119.343,187.164 119.378,187.245 119.915 C 187.324 120.432,187.335 120.422,187.363 119.800 L 187.395 119.118 185.977 119.158 L 184.559 119.199 185.859 119.273 M230.410 119.273 C 231.016 119.315,232.009 119.315,232.616 119.273 C 233.222 119.230,232.726 119.195,231.513 119.195 C 230.299 119.195,229.803 119.230,230.410 119.273 M257.657 119.275 C 263.376 119.319,265.250 119.396,265.375 119.593 C 265.491 119.776,265.541 119.744,265.543 119.485 C 265.546 119.141,265.059 119.121,257.826 119.167 L 250.105 119.217 257.657 119.275 M288.378 119.275 C 295.391 119.328,295.986 119.361,296.074 119.698 C 296.145 119.970,296.176 119.942,296.194 119.590 L 296.218 119.118 288.498 119.167 L 280.777 119.217 288.378 119.275 M120.746 119.476 C 121.006 119.526,121.431 119.526,121.691 119.476 C 121.951 119.426,121.738 119.385,121.218 119.385 C 120.699 119.385,120.486 119.426,120.746 119.476 M164.446 119.476 C 164.707 119.527,165.085 119.525,165.286 119.472 C 165.487 119.419,165.273 119.378,164.811 119.381 C 164.349 119.383,164.184 119.426,164.446 119.476 M207.668 119.478 C 215.130 119.625,221.590 119.629,221.501 119.485 C 221.448 119.399,217.651 119.349,213.065 119.374 C 208.479 119.399,206.050 119.446,207.668 119.478 M249.002 119.473 C 249.204 119.525,249.535 119.525,249.737 119.473 C 249.940 119.420,249.774 119.376,249.370 119.376 C 248.965 119.376,248.800 119.420,249.002 119.473 M233.324 120.071 C 233.252 120.259,233.201 120.570,233.211 120.763 C 233.221 120.956,233.313 120.835,233.414 120.494 C 233.613 119.831,233.542 119.503,233.324 120.071 M168.908 120.864 C 168.908 120.916,169.255 121.223,169.679 121.547 C 170.103 121.870,170.384 122.028,170.303 121.897 C 170.136 121.628,168.908 120.718,168.908 120.864 M146.128 122.179 C 146.051 122.487,146.028 122.779,146.078 122.829 C 146.128 122.878,146.231 122.667,146.309 122.359 C 146.386 122.051,146.409 121.759,146.359 121.709 C 146.309 121.660,146.206 121.871,146.128 122.179 M186.686 121.962 C 186.614 122.150,186.563 122.461,186.573 122.654 C 186.583 122.846,186.674 122.725,186.776 122.385 C 186.974 121.721,186.904 121.393,186.686 121.962 M179.646 122.514 C 179.633 122.707,179.567 123.038,179.501 123.250 C 179.386 123.614,179.393 123.615,179.620 123.260 C 179.752 123.054,179.818 122.723,179.765 122.525 C 179.680 122.200,179.668 122.199,179.646 122.514 M232.694 122.592 C 232.622 122.780,232.571 123.091,232.581 123.284 C 232.591 123.477,232.682 123.356,232.784 123.015 C 232.982 122.352,232.912 122.024,232.694 122.592 M264.496 123.175 C 264.496 123.482,264.033 123.527,260.347 123.582 L 256.197 123.644 260.353 123.692 C 264.485 123.739,265.271 123.605,264.627 122.960 C 264.555 122.888,264.496 122.985,264.496 123.175 M270.685 124.212 L 269.643 125.315 270.746 124.273 C 271.352 123.699,271.849 123.203,271.849 123.170 C 271.849 123.013,271.654 123.187,270.685 124.212 M111.029 124.632 C 110.373 125.355,109.743 126.134,109.628 126.366 C 109.514 126.597,109.686 126.455,110.011 126.050 C 110.336 125.646,111.019 124.866,111.527 124.317 C 112.036 123.768,112.400 123.319,112.336 123.319 C 112.272 123.319,111.684 123.910,111.029 124.632 M203.782 124.169 C 203.551 124.325,203.636 124.344,204.097 124.242 C 204.869 124.069,205.037 123.949,204.499 123.953 C 204.278 123.955,203.955 124.052,203.782 124.169 M239.588 124.632 L 238.971 125.315 239.653 124.698 C 240.290 124.123,240.433 123.950,240.270 123.950 C 240.234 123.950,239.927 124.257,239.588 124.632 M145.613 124.405 C 145.599 124.598,145.534 124.929,145.467 125.140 C 145.353 125.505,145.359 125.506,145.587 125.151 C 145.719 124.945,145.784 124.614,145.732 124.416 C 145.646 124.090,145.635 124.089,145.613 124.405 M179.112 124.700 C 179.034 125.008,179.012 125.300,179.061 125.350 C 179.111 125.399,179.214 125.188,179.292 124.880 C 179.369 124.572,179.392 124.280,179.342 124.230 C 179.293 124.181,179.189 124.392,179.112 124.700 M186.044 124.700 C 185.967 125.008,185.944 125.300,185.994 125.350 C 186.043 125.399,186.147 125.188,186.224 124.880 C 186.302 124.572,186.324 124.280,186.275 124.230 C 186.225 124.181,186.122 124.392,186.044 124.700 M172.298 125.210 C 172.298 125.383,172.380 125.714,172.479 125.945 C 172.593 126.210,172.660 126.249,172.660 126.050 C 172.660 125.877,172.578 125.546,172.479 125.315 C 172.365 125.050,172.298 125.011,172.298 125.210 M193.765 125.473 C 193.531 125.733,193.265 126.087,193.173 126.261 C 192.995 126.595,193.044 126.549,193.895 125.578 C 194.173 125.260,194.354 125.000,194.296 125.000 C 194.238 125.000,193.999 125.213,193.765 125.473 M245.895 126.103 L 244.853 127.206 245.956 126.163 C 246.563 125.590,247.059 125.094,247.059 125.060 C 247.059 124.904,246.864 125.078,245.895 126.103 M276.568 126.103 L 275.525 127.206 276.628 126.163 C 277.235 125.590,277.731 125.094,277.731 125.060 C 277.731 124.904,277.536 125.078,276.568 126.103 M145.063 126.681 C 144.983 127.044,144.962 127.385,145.015 127.438 C 145.069 127.492,145.173 127.234,145.247 126.864 C 145.321 126.495,145.342 126.154,145.295 126.107 C 145.247 126.059,145.143 126.318,145.063 126.681 M152.011 126.591 C 151.934 126.899,151.911 127.191,151.960 127.240 C 152.010 127.290,152.114 127.079,152.191 126.771 C 152.268 126.463,152.291 126.170,152.241 126.121 C 152.192 126.071,152.088 126.283,152.011 126.591 M172.761 128.466 C 172.762 129.391,172.799 129.743,172.843 129.249 C 172.888 128.755,172.887 127.998,172.842 127.568 C 172.797 127.138,172.760 127.542,172.761 128.466 M231.537 127.556 C 231.524 127.749,231.458 128.080,231.392 128.292 C 231.277 128.656,231.283 128.657,231.511 128.302 C 231.643 128.096,231.708 127.766,231.656 127.567 C 231.571 127.242,231.559 127.241,231.537 127.556 M165.399 129.412 C 165.399 130.047,165.438 130.307,165.487 129.989 C 165.535 129.672,165.535 129.152,165.487 128.834 C 165.438 128.516,165.399 128.776,165.399 129.412 M144.433 129.412 C 144.353 129.775,144.332 130.116,144.385 130.169 C 144.439 130.223,144.543 129.965,144.617 129.596 C 144.690 129.226,144.712 128.886,144.664 128.838 C 144.617 128.790,144.513 129.049,144.433 129.412 M177.966 129.447 C 177.952 129.640,177.887 129.971,177.820 130.182 C 177.706 130.547,177.712 130.548,177.939 130.193 C 178.071 129.987,178.137 129.656,178.085 129.458 C 177.999 129.132,177.988 129.131,177.966 129.447 M115.614 129.937 C 115.656 130.351,115.813 130.357,126.684 130.360 L 137.710 130.363 126.748 130.306 C 116.540 130.252,115.779 130.223,115.678 129.883 C 115.595 129.601,115.580 129.614,115.614 129.937 M274.176 129.884 C 274.161 130.230,274.754 130.252,283.840 130.252 L 293.521 130.252 293.398 130.935 C 293.287 131.550,293.297 131.567,293.494 131.106 C 293.961 130.014,294.213 130.042,283.953 130.042 C 276.511 130.042,274.381 129.984,274.299 129.779 C 274.235 129.623,274.186 129.665,274.176 129.884 M223.974 130.077 C 223.961 130.270,223.895 130.601,223.829 130.813 C 223.714 131.177,223.720 131.178,223.948 130.823 C 224.080 130.617,224.145 130.287,224.093 130.088 C 224.008 129.763,223.996 129.762,223.974 130.077 M172.400 131.329 C 172.326 131.698,172.305 132.039,172.352 132.086 C 172.400 132.134,172.504 131.876,172.584 131.513 C 172.664 131.149,172.685 130.809,172.632 130.755 C 172.578 130.701,172.474 130.960,172.400 131.329 M218.397 132.053 C 218.320 132.361,218.297 132.653,218.347 132.703 C 218.396 132.752,218.500 132.541,218.577 132.233 C 218.655 131.925,218.677 131.633,218.628 131.583 C 218.578 131.534,218.475 131.745,218.397 132.053 M235.399 132.563 C 235.319 132.926,235.298 133.267,235.351 133.321 C 235.405 133.374,235.509 133.116,235.583 132.747 C 235.758 131.871,235.588 131.701,235.399 132.563 M143.382 133.824 C 143.303 134.187,143.281 134.528,143.335 134.581 C 143.388 134.635,143.492 134.376,143.566 134.007 C 143.640 133.638,143.661 133.297,143.614 133.250 C 143.566 133.202,143.462 133.460,143.382 133.824 M176.801 134.154 C 176.723 134.462,176.701 134.754,176.750 134.803 C 176.800 134.853,176.904 134.642,176.981 134.334 C 177.058 134.026,177.081 133.733,177.031 133.684 C 176.982 133.634,176.878 133.846,176.801 134.154 M106.408 134.454 C 106.328 134.817,106.306 135.158,106.360 135.211 C 106.413 135.265,106.518 135.007,106.591 134.638 C 106.767 133.762,106.597 133.592,106.408 134.454 M183.733 134.364 C 183.656 134.672,183.634 134.964,183.683 135.014 C 183.733 135.063,183.836 134.852,183.914 134.544 C 183.991 134.236,184.014 133.944,183.964 133.894 C 183.915 133.844,183.811 134.056,183.733 134.364 M242.298 135.294 C 242.298 136.161,242.335 136.515,242.380 136.082 C 242.425 135.649,242.425 134.940,242.380 134.506 C 242.335 134.073,242.298 134.428,242.298 135.294 M217.857 134.312 C 217.857 134.630,216.981 134.665,207.511 134.716 L 197.164 134.773 207.517 134.823 C 218.121 134.875,218.727 134.833,217.988 134.095 C 217.916 134.023,217.857 134.120,217.857 134.312 M222.924 134.279 C 222.910 134.472,222.845 134.803,222.778 135.014 C 222.664 135.379,222.670 135.380,222.897 135.025 C 223.029 134.819,223.095 134.488,223.043 134.290 C 222.957 133.964,222.945 133.963,222.924 134.279 M229.742 134.994 C 229.665 135.302,229.642 135.594,229.691 135.644 C 229.741 135.693,229.845 135.482,229.922 135.174 C 229.999 134.866,230.022 134.574,229.972 134.524 C 229.923 134.475,229.819 134.686,229.742 134.994 M272.982 134.961 C 272.919 135.125,272.902 135.527,272.943 135.854 C 273.005 136.340,273.038 136.285,273.122 135.557 C 273.228 134.638,273.182 134.440,272.982 134.961 M113.997 136.038 C 113.924 136.225,113.874 136.537,113.884 136.729 C 113.894 136.922,113.985 136.801,114.087 136.460 C 114.285 135.797,114.215 135.469,113.997 136.038 M234.923 136.345 C 234.923 136.749,234.966 136.914,235.019 136.712 C 235.072 136.510,235.072 136.179,235.019 135.977 C 234.966 135.775,234.923 135.940,234.923 136.345 M142.767 136.465 C 142.690 136.772,142.667 137.065,142.717 137.114 C 142.766 137.164,142.870 136.953,142.947 136.645 C 143.024 136.337,143.047 136.044,142.998 135.995 C 142.948 135.945,142.844 136.157,142.767 136.465 M189.310 136.380 C 189.297 136.573,189.231 136.904,189.165 137.115 C 189.050 137.480,189.056 137.480,189.284 137.126 C 189.416 136.920,189.481 136.589,189.429 136.390 C 189.344 136.065,189.332 136.064,189.310 136.380 M229.333 136.668 C 229.261 136.856,229.210 137.167,229.220 137.360 C 229.230 137.552,229.321 137.431,229.423 137.090 C 229.621 136.427,229.551 136.099,229.333 136.668 M163.214 137.014 C 163.079 137.267,162.535 137.953,162.006 138.537 L 161.045 139.601 161.989 138.710 C 162.850 137.896,163.835 136.555,163.570 136.555 C 163.509 136.555,163.349 136.761,163.214 137.014 M188.776 138.565 C 188.698 138.873,188.676 139.166,188.725 139.215 C 188.775 139.265,188.878 139.053,188.956 138.745 C 189.033 138.438,189.056 138.145,189.006 138.096 C 188.957 138.046,188.853 138.258,188.776 138.565 M195.708 138.776 C 195.631 139.083,195.608 139.376,195.658 139.425 C 195.707 139.475,195.811 139.263,195.888 138.956 C 195.966 138.648,195.988 138.355,195.939 138.306 C 195.889 138.256,195.786 138.468,195.708 138.776 M235.215 139.181 C 235.289 139.527,235.434 139.953,235.535 140.126 C 235.654 140.328,235.671 140.214,235.584 139.811 C 235.509 139.464,235.364 139.039,235.263 138.866 C 235.145 138.664,235.127 138.777,235.215 139.181 M265.970 139.198 C 265.971 139.420,266.069 139.743,266.186 139.916 C 266.342 140.146,266.361 140.061,266.258 139.601 C 266.086 138.828,265.965 138.661,265.970 139.198 M243.277 139.351 C 243.277 139.388,243.585 139.695,243.960 140.034 L 244.643 140.651 244.026 139.968 C 243.451 139.332,243.277 139.189,243.277 139.351 M245.378 140.957 C 245.551 141.074,245.874 141.171,246.096 141.173 C 246.633 141.178,246.466 141.057,245.693 140.885 C 245.233 140.782,245.148 140.801,245.378 140.957 M228.061 141.927 C 227.984 142.235,227.961 142.527,228.011 142.577 C 228.060 142.626,228.164 142.415,228.241 142.107 C 228.319 141.799,228.341 141.507,228.292 141.457 C 228.242 141.408,228.138 141.619,228.061 141.927 M260.005 141.710 C 259.933 141.898,259.882 142.209,259.892 142.402 C 259.902 142.594,259.993 142.473,260.095 142.132 C 260.293 141.469,260.223 141.141,260.005 141.710 M290.677 141.920 C 290.605 142.108,290.554 142.419,290.564 142.612 C 290.574 142.804,290.666 142.683,290.767 142.342 C 290.965 141.679,290.895 141.351,290.677 141.920 M237.395 142.962 C 237.787 143.367,238.155 143.697,238.213 143.697 C 238.270 143.697,237.997 143.367,237.605 142.962 C 237.213 142.558,236.845 142.227,236.787 142.227 C 236.730 142.227,237.003 142.558,237.395 142.962 M220.847 143.487 C 220.847 143.892,220.890 144.057,220.943 143.855 C 220.996 143.653,220.996 143.322,220.943 143.120 C 220.890 142.918,220.847 143.083,220.847 143.487 M181.434 143.934 C 181.360 144.303,181.339 144.644,181.386 144.691 C 181.434 144.739,181.538 144.481,181.618 144.118 C 181.697 143.754,181.719 143.414,181.665 143.360 C 181.612 143.307,181.508 143.565,181.434 143.934 M227.652 143.601 C 227.580 143.788,227.529 144.100,227.539 144.292 C 227.549 144.485,227.640 144.364,227.742 144.023 C 227.940 143.360,227.870 143.032,227.652 143.601 M134.375 143.811 C 134.303 143.998,134.252 144.310,134.262 144.502 C 134.272 144.695,134.363 144.574,134.465 144.233 C 134.663 143.570,134.593 143.242,134.375 143.811 M112.973 145.746 C 116.815 145.778,123.101 145.778,126.943 145.746 C 130.785 145.714,127.642 145.687,119.958 145.687 C 112.274 145.687,109.131 145.714,112.973 145.746 M146.362 145.745 C 148.348 145.780,151.657 145.780,153.715 145.746 C 155.774 145.711,154.149 145.683,150.105 145.683 C 146.061 145.683,144.377 145.711,146.362 145.745 M177.581 145.744 C 178.250 145.786,179.290 145.785,179.892 145.743 C 180.495 145.701,179.947 145.666,178.676 145.667 C 177.405 145.667,176.913 145.702,177.581 145.744 M190.704 145.743 C 191.310 145.786,192.303 145.786,192.910 145.743 C 193.516 145.701,193.020 145.666,191.807 145.666 C 190.593 145.666,190.097 145.701,190.704 145.743 M224.010 145.744 C 224.678 145.786,225.718 145.785,226.321 145.743 C 226.923 145.701,226.376 145.666,225.105 145.667 C 223.834 145.667,223.341 145.702,224.010 145.744 M248.043 145.745 C 250.029 145.780,253.338 145.780,255.396 145.746 C 257.455 145.711,255.830 145.683,251.786 145.683 C 247.742 145.683,246.057 145.711,248.043 145.745 " stroke="none" fill="#64747c" fill-rule="evenodd"></path><path id="path3" d="M181.677 119.273 C 182.288 119.315,183.233 119.315,183.778 119.272 C 184.323 119.229,183.824 119.194,182.668 119.194 C 181.513 119.195,181.067 119.230,181.677 119.273 M227.468 119.270 C 227.844 119.316,228.459 119.316,228.834 119.270 C 229.210 119.223,228.902 119.185,228.151 119.185 C 227.400 119.185,227.093 119.223,227.468 119.270 M130.987 123.739 L 122.584 123.852 130.922 123.901 C 136.308 123.932,139.307 123.875,139.391 123.739 C 139.462 123.624,139.491 123.551,139.456 123.578 C 139.420 123.605,135.609 123.678,130.987 123.739 M131.818 130.198 C 136.008 130.243,137.527 130.326,137.663 130.518 C 137.797 130.707,137.824 130.692,137.761 130.462 C 137.688 130.192,136.854 130.146,131.915 130.142 L 126.155 130.136 131.818 130.198 M203.519 130.409 C 206.321 130.443,210.906 130.443,213.708 130.409 C 216.510 130.376,214.217 130.349,208.613 130.349 C 203.009 130.349,200.717 130.376,203.519 130.409 M120.116 134.821 C 123.149 134.854,128.112 134.854,131.145 134.821 C 134.178 134.788,131.696 134.762,125.630 134.762 C 119.564 134.762,117.082 134.788,120.116 134.821 M207.458 134.874 L 196.954 134.985 207.393 135.034 C 214.180 135.067,217.878 135.011,217.962 134.874 C 218.034 134.758,218.063 134.686,218.027 134.713 C 217.991 134.741,213.235 134.813,207.458 134.874 M265.609 136.555 C 265.609 137.190,265.649 137.450,265.697 137.132 C 265.745 136.815,265.745 136.295,265.697 135.977 C 265.649 135.659,265.609 135.919,265.609 136.555 M249.856 141.124 C 251.799 141.158,254.918 141.158,256.789 141.124 C 258.659 141.089,257.069 141.060,253.256 141.060 C 249.443 141.060,247.913 141.089,249.856 141.124 M280.515 141.124 C 282.450 141.158,285.617 141.158,287.553 141.124 C 289.488 141.089,287.904 141.061,284.034 141.061 C 280.163 141.061,278.579 141.089,280.515 141.124 M174.629 143.487 C 174.629 143.892,174.672 144.057,174.725 143.855 C 174.777 143.653,174.777 143.322,174.725 143.120 C 174.672 142.918,174.629 143.083,174.629 143.487 M278.428 145.746 C 280.602 145.780,284.100 145.780,286.201 145.745 C 288.302 145.711,286.523 145.683,282.248 145.683 C 277.973 145.683,276.254 145.711,278.428 145.746 " stroke="none" fill="#7c8c94" fill-rule="evenodd"></path><path id="path4" d="M189.916 65.129 C 189.694 65.274,189.819 65.296,190.336 65.201 C 191.242 65.034,191.413 64.915,190.739 64.919 C 190.460 64.921,190.089 65.015,189.916 65.129 M174.790 73.214 C 173.929 74.081,173.272 74.790,173.330 74.790 C 173.388 74.790,174.139 74.081,175.000 73.214 C 175.861 72.348,176.518 71.639,176.460 71.639 C 176.402 71.639,175.651 72.348,174.790 73.214 M195.693 72.899 C 195.158 73.129,195.710 73.129,196.429 72.899 C 196.851 72.764,196.871 72.730,196.534 72.725 C 196.303 72.721,195.924 72.800,195.693 72.899 M172.532 75.788 C 171.886 76.618,171.419 77.369,171.781 76.996 C 172.201 76.562,173.350 75.000,173.250 75.000 C 173.192 75.000,172.869 75.355,172.532 75.788 M226.823 82.931 C 238.638 82.983,239.472 83.010,239.561 83.352 C 239.633 83.626,239.663 83.599,239.682 83.246 L 239.706 82.773 226.943 82.824 L 214.181 82.875 226.823 82.931 M207.143 83.833 C 206.913 83.989,206.998 84.008,207.458 83.905 C 208.230 83.733,208.398 83.612,207.861 83.617 C 207.639 83.618,207.316 83.716,207.143 83.833 M181.408 86.555 C 181.328 86.918,181.306 87.259,181.360 87.312 C 181.413 87.366,181.518 87.108,181.591 86.738 C 181.767 85.863,181.597 85.693,181.408 86.555 M167.358 86.668 C 167.286 86.856,167.235 87.167,167.245 87.360 C 167.255 87.552,167.346 87.431,167.448 87.090 C 167.646 86.427,167.576 86.099,167.358 86.668 M237.743 90.220 C 237.634 90.504,236.135 90.550,225.165 90.599 L 212.710 90.655 225.132 90.705 C 237.726 90.757,238.675 90.705,237.976 90.007 C 237.916 89.947,237.811 90.043,237.743 90.220 M189.274 93.225 C 187.957 94.593,186.432 96.345,187.308 95.483 C 188.323 94.486,190.819 91.807,190.734 91.807 C 190.682 91.807,190.025 92.445,189.274 93.225 M165.677 93.390 C 165.605 93.578,165.554 93.890,165.564 94.082 C 165.574 94.275,165.666 94.154,165.767 93.813 C 165.965 93.150,165.895 92.822,165.677 93.390 M179.646 93.733 C 179.633 93.926,179.567 94.256,179.501 94.468 C 179.386 94.833,179.393 94.833,179.620 94.479 C 179.752 94.273,179.818 93.942,179.765 93.743 C 179.680 93.418,179.668 93.417,179.646 93.733 M163.997 100.113 C 163.924 100.301,163.874 100.612,163.884 100.805 C 163.894 100.998,163.985 100.877,164.087 100.536 C 164.285 99.873,164.215 99.545,163.997 100.113 M198.950 100.831 C 199.123 100.948,199.446 101.045,199.667 101.047 C 200.205 101.051,200.037 100.931,199.265 100.758 C 198.804 100.656,198.719 100.675,198.950 100.831 M230.314 100.997 C 231.215 101.036,232.633 101.036,233.465 100.996 C 234.298 100.956,233.561 100.924,231.828 100.924 C 230.095 100.925,229.413 100.957,230.314 100.997 M163.088 105.042 C 163.088 105.678,163.128 105.938,163.176 105.620 C 163.224 105.302,163.224 104.782,163.176 104.464 C 163.128 104.147,163.088 104.407,163.088 105.042 M234.268 104.447 C 234.255 104.640,234.189 104.971,234.123 105.182 C 234.008 105.547,234.014 105.548,234.242 105.193 C 234.374 104.987,234.439 104.656,234.387 104.458 C 234.302 104.132,234.290 104.131,234.268 104.447 M233.638 106.968 C 233.624 107.161,233.559 107.492,233.493 107.703 C 233.378 108.068,233.384 108.069,233.612 107.714 C 233.744 107.508,233.809 107.177,233.757 106.979 C 233.672 106.653,233.660 106.652,233.638 106.968 M164.122 107.885 C 164.436 108.216,164.731 108.444,164.777 108.392 C 164.823 108.341,164.566 108.070,164.206 107.791 L 163.550 107.284 164.122 107.885 M165.408 108.663 C 165.729 108.866,174.737 108.870,174.862 108.666 C 174.916 108.579,172.756 108.508,170.063 108.508 C 167.369 108.508,165.275 108.578,165.408 108.663 M182.532 108.667 C 182.619 108.754,194.125 108.801,208.100 108.772 L 233.508 108.718 207.941 108.613 C 193.879 108.556,182.445 108.580,182.532 108.667 M126.838 119.065 C 129.294 119.099,133.311 119.099,135.767 119.065 C 138.222 119.031,136.213 119.004,131.303 119.004 C 126.392 119.004,124.383 119.031,126.838 119.065 M151.313 119.065 C 153.595 119.099,157.329 119.099,159.611 119.065 C 161.893 119.031,160.026 119.003,155.462 119.003 C 150.898 119.003,149.031 119.031,151.313 119.065 M185.455 119.060 C 185.833 119.107,186.400 119.106,186.716 119.058 C 187.032 119.010,186.723 118.971,186.029 118.973 C 185.336 118.974,185.078 119.013,185.455 119.060 M231.446 119.060 C 233.376 119.125,233.595 119.173,233.680 119.548 C 233.756 119.882,233.769 119.870,233.746 119.489 C 233.719 119.027,233.652 119.012,231.513 119.000 L 229.307 118.988 231.446 119.060 M257.968 119.064 C 264.475 119.115,265.530 119.167,265.615 119.439 C 265.683 119.657,265.703 119.639,265.680 119.384 C 265.648 119.036,265.161 119.012,258.033 119.009 L 250.420 119.005 257.968 119.064 M288.641 119.064 L 296.190 119.123 296.291 119.593 C 296.379 120.003,296.388 119.996,296.358 119.538 L 296.324 119.013 288.708 119.009 L 281.092 119.005 288.641 119.064 M221.128 121.339 C 221.051 121.646,221.028 121.939,221.078 121.988 C 221.128 122.038,221.231 121.826,221.309 121.519 C 221.386 121.211,221.409 120.918,221.359 120.869 C 221.309 120.819,221.206 121.031,221.128 121.339 M170.369 121.901 C 171.240 122.829,171.429 122.996,171.429 122.838 C 171.429 122.804,170.980 122.355,170.431 121.840 L 169.433 120.903 170.369 121.901 M197.321 122.083 C 196.605 122.542,196.374 122.850,197.006 122.502 C 197.488 122.237,198.243 121.653,198.109 121.649 C 198.051 121.647,197.697 121.843,197.321 122.083 M113.089 122.599 L 112.500 123.140 113.183 122.665 C 113.558 122.404,113.866 122.160,113.866 122.124 C 113.866 121.959,113.633 122.101,113.089 122.599 M111.134 124.265 C 110.624 124.785,110.254 125.210,110.312 125.210 C 110.369 125.210,110.834 124.785,111.345 124.265 C 111.855 123.745,112.225 123.319,112.167 123.319 C 112.110 123.319,111.645 123.745,111.134 124.265 M220.588 123.597 C 220.588 123.913,219.894 123.950,212.973 124.002 L 205.357 124.060 212.979 124.110 C 220.720 124.160,221.432 124.093,220.719 123.380 C 220.647 123.308,220.588 123.406,220.588 123.597 M225.341 123.643 C 225.269 123.830,225.218 124.142,225.228 124.334 C 225.238 124.527,225.329 124.406,225.431 124.065 C 225.629 123.402,225.559 123.074,225.341 123.643 M239.706 124.265 C 239.196 124.785,238.825 125.210,238.883 125.210 C 238.941 125.210,239.406 124.785,239.916 124.265 C 240.426 123.745,240.797 123.319,240.739 123.319 C 240.681 123.319,240.216 123.745,239.706 124.265 M270.577 124.107 L 269.853 124.895 270.641 124.171 C 271.374 123.497,271.525 123.319,271.365 123.319 C 271.330 123.319,270.975 123.674,270.577 124.107 M152.994 123.879 C 152.849 123.937,152.731 124.083,152.731 124.203 C 152.731 124.347,152.825 124.343,153.010 124.190 C 153.186 124.044,154.827 123.936,157.474 123.897 L 161.660 123.835 157.458 123.804 C 155.147 123.787,153.138 123.820,152.994 123.879 M253.610 123.897 C 255.539 123.931,258.753 123.931,260.753 123.897 C 262.754 123.862,261.176 123.834,257.248 123.834 C 253.319 123.834,251.682 123.862,253.610 123.897 M284.611 123.897 C 286.605 123.931,289.866 123.931,291.859 123.897 C 293.852 123.862,292.222 123.834,288.235 123.834 C 284.249 123.834,282.618 123.862,284.611 123.897 M121.901 124.094 C 122.103 124.147,122.434 124.147,122.637 124.094 C 122.839 124.042,122.673 123.998,122.269 123.998 C 121.864 123.998,121.699 124.042,121.901 124.094 M118.462 125.857 L 117.542 126.713 118.540 125.917 C 119.089 125.479,119.538 125.094,119.538 125.061 C 119.538 124.899,119.308 125.068,118.462 125.857 M145.192 125.456 C 145.179 125.648,145.114 125.979,145.047 126.191 C 144.933 126.556,144.939 126.556,145.166 126.201 C 145.298 125.996,145.364 125.665,145.312 125.466 C 145.226 125.141,145.214 125.140,145.192 125.456 M276.776 126.103 L 275.945 126.996 276.838 126.165 C 277.329 125.709,277.731 125.307,277.731 125.272 C 277.731 125.114,277.548 125.273,276.776 126.103 M231.957 126.506 C 231.944 126.699,231.878 127.030,231.812 127.241 C 231.697 127.606,231.703 127.607,231.931 127.252 C 232.063 127.046,232.128 126.715,232.076 126.517 C 231.991 126.191,231.979 126.190,231.957 126.506 M172.971 128.466 C 172.972 129.391,173.009 129.743,173.053 129.249 C 173.098 128.755,173.097 127.998,173.052 127.568 C 173.007 127.138,172.970 127.542,172.971 128.466 M164.945 127.311 C 164.945 127.484,165.027 127.815,165.126 128.046 C 165.240 128.311,165.307 128.350,165.307 128.151 C 165.307 127.978,165.225 127.647,165.126 127.416 C 165.012 127.151,164.945 127.112,164.945 127.311 M178.061 128.271 C 177.984 128.579,177.961 128.872,178.011 128.921 C 178.060 128.971,178.164 128.759,178.241 128.451 C 178.319 128.143,178.341 127.851,178.292 127.802 C 178.242 127.752,178.138 127.963,178.061 128.271 M231.423 128.691 C 231.345 128.999,231.323 129.292,231.372 129.341 C 231.422 129.391,231.525 129.179,231.603 128.872 C 231.680 128.564,231.703 128.271,231.653 128.222 C 231.604 128.172,231.500 128.384,231.423 128.691 M224.070 128.902 C 223.992 129.209,223.970 129.502,224.019 129.551 C 224.069 129.601,224.172 129.390,224.250 129.082 C 224.327 128.774,224.350 128.481,224.300 128.432 C 224.251 128.382,224.147 128.594,224.070 128.902 M118.552 130.199 C 120.032 130.235,122.396 130.235,123.804 130.199 C 125.213 130.163,124.002 130.133,121.113 130.133 C 118.225 130.133,117.072 130.163,118.552 130.199 M144.039 130.365 C 143.967 130.553,143.916 130.864,143.926 131.057 C 143.936 131.250,144.027 131.129,144.129 130.788 C 144.327 130.125,144.257 129.797,144.039 130.365 M151.285 130.287 C 151.271 130.480,151.206 130.811,151.140 131.023 C 151.025 131.387,151.031 131.388,151.259 131.033 C 151.391 130.827,151.456 130.497,151.404 130.298 C 151.319 129.973,151.307 129.972,151.285 130.287 M218.787 131.014 C 218.777 131.458,218.836 131.631,218.941 131.466 C 219.156 131.127,219.167 130.517,218.960 130.390 C 218.873 130.337,218.795 130.618,218.787 131.014 M165.021 131.513 C 164.941 131.876,164.920 132.217,164.973 132.270 C 165.027 132.324,165.131 132.066,165.205 131.696 C 165.279 131.327,165.300 130.986,165.253 130.939 C 165.205 130.891,165.101 131.149,165.021 131.513 M235.414 131.843 C 235.337 132.151,235.314 132.443,235.364 132.493 C 235.413 132.542,235.517 132.331,235.594 132.023 C 235.672 131.715,235.694 131.423,235.645 131.373 C 235.595 131.323,235.491 131.535,235.414 131.843 M150.735 132.563 C 150.656 132.926,150.634 133.267,150.688 133.321 C 150.741 133.374,150.845 133.116,150.919 132.747 C 150.993 132.378,151.014 132.037,150.967 131.989 C 150.919 131.942,150.815 132.200,150.735 132.563 M177.022 132.466 C 176.950 132.654,176.899 132.965,176.909 133.158 C 176.919 133.351,177.010 133.230,177.112 132.889 C 177.310 132.226,177.240 131.897,177.022 132.466 M143.397 133.103 C 143.320 133.411,143.297 133.704,143.347 133.753 C 143.396 133.803,143.500 133.591,143.577 133.283 C 143.655 132.975,143.677 132.683,143.628 132.633 C 143.578 132.584,143.475 132.795,143.397 133.103 M106.537 133.229 C 106.524 133.421,106.458 133.752,106.392 133.964 C 106.277 134.329,106.283 134.329,106.511 133.974 C 106.643 133.769,106.708 133.438,106.656 133.239 C 106.571 132.914,106.559 132.913,106.537 133.229 M230.276 133.439 C 230.263 133.631,230.198 133.962,230.131 134.174 C 230.017 134.539,230.023 134.539,230.250 134.185 C 230.382 133.979,230.448 133.648,230.396 133.449 C 230.310 133.124,230.298 133.123,230.276 133.439 M292.784 134.086 L 292.640 134.660 282.927 134.714 L 273.214 134.769 273.192 135.559 L 273.170 136.348 273.257 135.611 L 273.345 134.874 282.988 134.874 C 293.411 134.874,293.383 134.877,293.011 133.761 C 292.966 133.624,292.863 133.770,292.784 134.086 M234.923 134.454 C 234.923 134.858,234.966 135.024,235.019 134.821 C 235.072 134.619,235.072 134.288,235.019 134.086 C 234.966 133.884,234.923 134.049,234.923 134.454 M242.490 134.559 C 242.492 135.021,242.535 135.185,242.586 134.924 C 242.636 134.663,242.634 134.285,242.581 134.084 C 242.529 133.883,242.488 134.097,242.490 134.559 M265.599 134.769 C 265.602 135.231,265.645 135.395,265.695 135.134 C 265.745 134.873,265.743 134.495,265.691 134.294 C 265.638 134.093,265.597 134.307,265.599 134.769 M183.718 135.084 C 183.639 135.447,183.617 135.788,183.671 135.842 C 183.724 135.895,183.828 135.637,183.902 135.268 C 183.976 134.899,183.998 134.558,183.950 134.510 C 183.902 134.463,183.798 134.721,183.718 135.084 M176.381 135.204 C 176.303 135.512,176.281 135.804,176.330 135.854 C 176.380 135.903,176.483 135.692,176.561 135.384 C 176.638 135.076,176.661 134.784,176.611 134.734 C 176.562 134.685,176.458 134.896,176.381 135.204 M189.406 135.204 C 189.328 135.512,189.306 135.804,189.355 135.854 C 189.405 135.903,189.509 135.692,189.586 135.384 C 189.663 135.076,189.686 134.784,189.636 134.734 C 189.587 134.685,189.483 134.896,189.406 135.204 M242.486 136.134 C 242.486 136.539,242.529 136.704,242.582 136.502 C 242.635 136.300,242.635 135.969,242.582 135.767 C 242.529 135.565,242.486 135.730,242.486 136.134 M229.646 136.170 C 229.633 136.363,229.567 136.693,229.501 136.905 C 229.386 137.270,229.393 137.270,229.620 136.916 C 229.752 136.710,229.818 136.379,229.765 136.180 C 229.680 135.855,229.668 135.854,229.646 136.170 M188.997 136.878 C 188.924 137.066,188.874 137.377,188.884 137.570 C 188.894 137.762,188.985 137.641,189.087 137.300 C 189.285 136.637,189.215 136.309,188.997 136.878 M175.762 137.631 C 175.688 138.000,175.666 138.341,175.714 138.389 C 175.761 138.436,175.866 138.178,175.945 137.815 C 176.025 137.452,176.047 137.111,175.993 137.058 C 175.940 137.004,175.835 137.262,175.762 137.631 M113.776 137.725 C 113.698 138.033,113.676 138.325,113.725 138.375 C 113.775 138.424,113.878 138.213,113.956 137.905 C 114.033 137.597,114.056 137.305,114.006 137.255 C 113.957 137.206,113.853 137.417,113.776 137.725 M196.128 137.725 C 196.051 138.033,196.028 138.325,196.078 138.375 C 196.128 138.424,196.231 138.213,196.309 137.905 C 196.386 137.597,196.409 137.305,196.359 137.255 C 196.309 137.206,196.206 137.417,196.128 137.725 M175.341 139.399 C 175.269 139.587,175.218 139.898,175.228 140.091 C 175.238 140.283,175.329 140.162,175.431 139.821 C 175.629 139.158,175.559 138.830,175.341 139.399 M188.366 139.399 C 188.294 139.587,188.243 139.898,188.253 140.091 C 188.263 140.283,188.355 140.162,188.456 139.821 C 188.655 139.158,188.584 138.830,188.366 139.399 M168.579 139.968 L 167.962 140.651 168.645 140.034 C 169.020 139.695,169.328 139.388,169.328 139.351 C 169.328 139.189,169.154 139.332,168.579 139.968 M148.974 139.951 C 148.961 140.144,148.895 140.475,148.829 140.687 C 148.714 141.051,148.720 141.052,148.948 140.697 C 149.080 140.491,149.145 140.160,149.093 139.962 C 149.008 139.637,148.996 139.636,148.974 139.951 M221.349 140.029 C 221.277 140.217,221.227 140.528,221.237 140.721 C 221.246 140.914,221.338 140.793,221.440 140.452 C 221.638 139.789,221.568 139.461,221.349 140.029 M124.464 141.123 C 132.522 141.167,135.000 141.241,135.141 141.441 C 135.277 141.632,135.303 141.618,135.240 141.387 C 135.165 141.112,133.797 141.071,124.562 141.068 L 113.971 141.065 124.464 141.123 M151.103 141.123 C 152.230 141.161,154.073 141.161,155.200 141.123 C 156.326 141.085,155.404 141.054,153.151 141.054 C 150.898 141.054,149.976 141.085,151.103 141.123 M134.784 142.767 C 134.707 143.075,134.684 143.367,134.733 143.417 C 134.783 143.466,134.887 143.255,134.964 142.947 C 135.041 142.639,135.064 142.347,135.014 142.297 C 134.965 142.248,134.861 142.459,134.784 142.767 M181.957 142.472 C 181.944 142.665,181.878 142.996,181.812 143.208 C 181.697 143.572,181.703 143.573,181.931 143.218 C 182.063 143.012,182.128 142.681,182.076 142.483 C 181.991 142.158,181.979 142.157,181.957 142.472 M104.226 143.422 C 104.213 144.022,104.274 144.558,104.363 144.613 C 104.452 144.668,104.494 144.319,104.457 143.837 C 104.348 142.424,104.252 142.252,104.226 143.422 M220.591 143.400 C 220.593 143.737,220.685 144.154,220.796 144.328 C 220.932 144.542,220.955 144.375,220.868 143.803 C 220.708 142.764,220.587 142.587,220.591 143.400 M290.456 143.607 C 290.379 143.915,290.356 144.208,290.406 144.257 C 290.455 144.307,290.559 144.095,290.636 143.788 C 290.714 143.480,290.736 143.187,290.687 143.138 C 290.637 143.088,290.533 143.300,290.456 143.607 M181.513 144.382 C 181.513 144.411,181.420 144.759,181.306 145.155 C 181.193 145.551,181.180 145.787,181.279 145.679 C 181.494 145.444,181.777 144.328,181.622 144.328 C 181.562 144.328,181.513 144.352,181.513 144.382 M273.004 145.583 C 273.405 145.760,274.745 145.881,274.562 145.723 C 274.514 145.681,274.049 145.590,273.529 145.522 C 272.898 145.438,272.724 145.459,273.004 145.583 " stroke="none" fill="#8c9ca4" fill-rule="evenodd"></path></g></svg>