<svg id="svg" version="1.1" xmlns="http://www.w3.org/2000/svg" xmlns:xlink="http://www.w3.org/1999/xlink" width="400" height="81.96212356411053" viewBox="0, 0, 400,81.96212356411053"><g id="svgg"><path id="path0" d="M24.196 8.458 C 29.207 8.483,37.457 8.483,42.529 8.458 C 47.600 8.434,43.500 8.414,33.417 8.414 C 23.333 8.414,19.184 8.434,24.196 8.458 M114.304 8.458 C 119.468 8.483,127.868 8.483,132.971 8.458 C 138.075 8.434,133.850 8.414,123.583 8.414 C 113.317 8.414,109.141 8.434,114.304 8.458 M163.042 8.458 C 165.310 8.484,169.023 8.484,171.292 8.458 C 173.560 8.432,171.704 8.411,167.167 8.411 C 162.629 8.411,160.773 8.432,163.042 8.458 M199.970 8.458 C 202.291 8.484,206.041 8.484,208.303 8.458 C 210.566 8.432,208.667 8.411,204.083 8.411 C 199.500 8.411,197.649 8.432,199.970 8.458 M237.958 8.458 C 242.931 8.483,251.069 8.483,256.042 8.458 C 261.015 8.434,256.946 8.414,247.000 8.414 C 237.054 8.414,232.985 8.434,237.958 8.458 M289.906 8.875 L 289.417 9.417 289.925 8.959 L 290.433 8.501 308.758 8.458 L 327.083 8.415 308.740 8.374 L 290.396 8.333 289.906 8.875 M343.375 41.458 L 343.416 74.583 343.458 41.543 L 343.501 8.503 351.875 8.458 L 360.250 8.414 351.792 8.373 L 343.333 8.333 343.375 41.458 M381.000 8.455 C 390.259 8.570,397.667 8.572,397.667 8.458 C 397.667 8.390,393.110 8.351,387.542 8.372 C 381.973 8.393,379.029 8.430,381.000 8.455 M11.745 12.042 L 10.750 13.083 11.792 12.089 C 12.759 11.164,12.910 11.000,12.786 11.000 C 12.761 11.000,12.292 11.469,11.745 12.042 M99.910 13.708 L 99.083 14.583 99.958 13.756 C 100.771 12.988,100.910 12.833,100.785 12.833 C 100.759 12.833,100.365 13.227,99.910 13.708 M59.833 23.300 L 59.916 30.250 59.960 23.427 C 59.984 19.674,59.947 16.547,59.877 16.477 C 59.807 16.407,59.787 19.477,59.833 23.300 M150.500 23.383 L 150.583 30.417 150.627 23.510 C 150.651 19.712,150.613 16.547,150.544 16.477 C 150.474 16.407,150.454 19.515,150.500 23.383 M241.958 24.792 C 244.731 24.817,249.269 24.817,252.042 24.792 C 254.815 24.766,252.546 24.745,247.000 24.745 C 241.454 24.745,239.185 24.766,241.958 24.792 M118.458 25.125 C 121.323 25.150,126.010 25.150,128.875 25.125 C 131.740 25.099,129.396 25.078,123.667 25.078 C 117.938 25.078,115.594 25.099,118.458 25.125 M72.542 33.625 C 75.910 33.650,81.423 33.650,84.792 33.625 C 88.160 33.600,85.404 33.579,78.667 33.579 C 71.929 33.579,69.173 33.600,72.542 33.625 M180.470 33.625 C 183.342 33.651,187.992 33.650,190.804 33.625 C 193.616 33.599,191.267 33.578,185.583 33.578 C 179.900 33.578,177.599 33.599,180.470 33.625 M319.073 53.917 C 319.073 56.392,319.096 57.427,319.124 56.218 C 319.153 55.009,319.153 52.984,319.125 51.718 C 319.096 50.452,319.073 51.442,319.073 53.917 M119.539 49.958 L 133.494 50.002 133.542 54.209 L 133.589 58.417 133.628 54.125 L 133.667 49.833 119.625 49.874 L 105.583 49.915 119.539 49.958 M268.575 70.875 L 267.917 71.583 268.625 70.925 C 269.015 70.562,269.333 70.243,269.333 70.216 C 269.333 70.090,269.188 70.216,268.575 70.875 M144.991 71.792 L 144.417 72.417 145.042 71.842 C 145.623 71.308,145.743 71.167,145.616 71.167 C 145.588 71.167,145.307 71.448,144.991 71.792 " stroke="none" fill="#848484" fill-rule="evenodd"></path><path id="path1" d="M24.196 8.625 C 29.207 8.649,37.457 8.649,42.529 8.625 C 47.600 8.600,43.500 8.580,33.417 8.580 C 23.333 8.580,19.184 8.600,24.196 8.625 M104.942 8.625 C 104.872 8.738,118.040 8.737,135.583 8.623 C 139.250 8.599,133.873 8.562,123.635 8.540 C 113.396 8.518,104.985 8.556,104.942 8.625 M163.042 8.625 C 165.310 8.651,169.023 8.651,171.292 8.625 C 173.560 8.599,171.704 8.577,167.167 8.577 C 162.629 8.577,160.773 8.599,163.042 8.625 M199.970 8.625 C 202.291 8.651,206.041 8.651,208.303 8.625 C 210.566 8.599,208.667 8.577,204.083 8.577 C 199.500 8.577,197.649 8.599,199.970 8.625 M228.750 8.833 C 228.584 9.017,228.527 9.167,228.623 9.167 C 228.719 9.167,228.841 9.055,228.893 8.917 C 228.977 8.699,231.199 8.663,247.036 8.625 L 265.083 8.582 247.067 8.541 C 229.237 8.500,229.049 8.503,228.750 8.833 M289.987 8.958 L 289.583 9.417 290.012 9.040 L 290.441 8.664 308.788 8.707 C 318.879 8.731,327.100 8.694,327.058 8.625 C 327.015 8.556,318.748 8.500,308.686 8.500 L 290.391 8.500 289.987 8.958 M347.625 8.625 C 349.940 8.651,353.727 8.651,356.042 8.625 C 358.356 8.599,356.462 8.577,351.833 8.577 C 347.204 8.577,345.310 8.599,347.625 8.625 M377.434 8.764 C 377.274 9.182,377.316 9.254,377.542 8.949 C 377.733 8.691,378.580 8.663,387.667 8.624 L 397.583 8.581 387.559 8.540 C 378.549 8.504,377.525 8.527,377.434 8.764 M53.667 10.750 C 54.718 11.804,55.615 12.667,55.661 12.667 C 55.707 12.667,54.885 11.804,53.833 10.750 C 52.782 9.696,51.885 8.833,51.839 8.833 C 51.793 8.833,52.615 9.696,53.667 10.750 M102.658 10.943 C 102.202 11.426,102.175 11.487,102.526 11.235 C 102.908 10.960,103.435 10.333,103.284 10.333 C 103.255 10.333,102.974 10.608,102.658 10.943 M226.458 11.078 C 226.042 11.650,226.098 11.720,226.583 11.235 C 227.016 10.802,227.088 10.663,226.875 10.672 C 226.806 10.675,226.619 10.858,226.458 11.078 M287.158 11.625 L 286.583 12.250 287.208 11.676 C 287.790 11.141,287.910 11.000,287.783 11.000 C 287.755 11.000,287.474 11.281,287.158 11.625 M99.333 14.417 C 98.282 15.471,97.496 16.323,97.586 16.310 C 97.752 16.287,101.466 12.500,101.323 12.500 C 101.280 12.500,100.385 13.362,99.333 14.417 M10.254 13.663 C 9.804 14.119,9.470 14.516,9.510 14.545 C 9.550 14.574,9.951 14.201,10.400 13.716 C 11.433 12.600,11.335 12.565,10.254 13.663 M148.052 14.458 C 149.486 15.771,149.834 15.994,148.585 14.800 C 147.943 14.185,147.365 13.679,147.302 13.675 C 147.238 13.670,147.576 14.023,148.052 14.458 M272.083 15.833 C 272.720 16.475,273.279 17.000,273.324 17.000 C 273.370 17.000,272.887 16.475,272.250 15.833 C 271.613 15.192,271.055 14.667,271.009 14.667 C 270.963 14.667,271.447 15.192,272.083 15.833 M370.099 18.917 C 369.949 19.146,369.890 19.333,369.969 19.333 C 370.048 19.333,370.199 19.146,370.303 18.917 C 370.407 18.688,370.466 18.500,370.432 18.500 C 370.399 18.500,370.249 18.688,370.099 18.917 M368.827 20.676 C 368.627 20.957,368.491 21.214,368.525 21.248 C 368.559 21.282,368.756 21.052,368.962 20.738 C 369.426 20.029,369.321 19.981,368.827 20.676 M41.554 33.458 C 45.021 33.483,50.646 33.483,54.054 33.458 C 57.462 33.433,54.625 33.412,47.750 33.413 C 40.875 33.413,38.087 33.433,41.554 33.458 M72.542 33.792 C 75.910 33.817,81.423 33.817,84.792 33.792 C 88.160 33.766,85.404 33.746,78.667 33.746 C 71.929 33.746,69.173 33.766,72.542 33.792 M180.470 33.792 C 183.342 33.817,187.992 33.817,190.804 33.792 C 193.616 33.766,191.267 33.745,185.583 33.745 C 179.900 33.745,177.599 33.766,180.470 33.792 M377.998 35.874 C 377.611 36.456,377.437 36.770,377.605 36.583 C 378.340 35.767,378.536 35.500,378.402 35.500 C 378.317 35.500,378.135 35.668,377.998 35.874 M97.000 41.219 C 97.000 41.248,97.244 41.491,97.542 41.760 L 98.083 42.250 97.594 41.708 C 97.138 41.203,97.000 41.090,97.000 41.219 M133.630 54.167 C 133.605 56.550,133.640 58.500,133.708 58.500 C 133.777 58.500,133.833 56.550,133.833 54.167 C 133.833 51.783,133.798 49.833,133.755 49.833 C 133.713 49.833,133.656 51.783,133.630 54.167 M363.173 54.926 C 363.179 55.093,363.998 56.148,363.999 55.991 C 364.000 55.940,363.813 55.644,363.583 55.333 C 363.354 55.023,363.169 54.839,363.173 54.926 M386.839 59.792 C 386.836 59.906,386.891 60.000,386.961 60.000 C 387.032 60.000,387.217 60.206,387.374 60.458 C 387.530 60.710,387.659 60.842,387.661 60.750 C 387.663 60.658,387.481 60.358,387.255 60.083 C 387.030 59.808,386.843 59.677,386.839 59.792 M8.091 66.841 C 8.545 67.349,8.951 67.740,8.992 67.710 C 9.034 67.679,8.662 67.264,8.166 66.786 L 7.265 65.917 8.091 66.841 M272.409 67.042 L 271.750 67.750 272.458 67.091 C 272.848 66.729,273.167 66.410,273.167 66.383 C 273.167 66.257,273.022 66.383,272.409 67.042 M268.005 71.245 C 267.325 71.930,266.801 72.511,266.842 72.537 C 266.883 72.562,267.485 72.002,268.180 71.292 C 268.875 70.581,269.398 70.000,269.342 70.000 C 269.287 70.000,268.685 70.560,268.005 71.245 M55.416 70.668 C 54.990 71.138,55.171 71.182,55.619 70.717 C 55.822 70.506,55.927 70.333,55.853 70.333 C 55.779 70.333,55.582 70.484,55.416 70.668 M102.491 71.710 C 102.807 72.053,103.131 72.333,103.211 72.333 C 103.364 72.333,103.225 72.189,102.409 71.502 C 101.984 71.143,101.995 71.172,102.491 71.710 M287.284 71.734 C 287.449 71.954,287.607 72.111,287.637 72.083 C 287.724 72.000,287.264 71.333,287.119 71.333 C 287.045 71.333,287.119 71.513,287.284 71.734 M288.750 73.167 C 289.294 73.717,289.777 74.167,289.823 74.167 C 289.869 74.167,289.461 73.717,288.917 73.167 C 288.372 72.617,287.890 72.167,287.844 72.167 C 287.798 72.167,288.206 72.617,288.750 73.167 M143.406 73.042 L 142.917 73.583 143.458 73.094 C 143.756 72.825,144.000 72.581,144.000 72.552 C 144.000 72.423,143.862 72.537,143.406 73.042 " stroke="none" fill="#040c0c" fill-rule="evenodd"></path><path id="path2" d="M104.942 8.708 C 104.985 8.777,104.953 8.833,104.871 8.833 C 104.790 8.833,104.623 9.021,104.500 9.250 C 104.377 9.479,104.211 9.667,104.131 9.667 C 103.997 9.667,103.735 9.920,102.982 10.778 C 102.835 10.946,102.414 11.353,102.047 11.682 C 101.679 12.012,101.349 12.362,101.314 12.460 C 101.279 12.559,100.294 13.617,99.125 14.813 L 97.000 16.987 97.000 29.057 L 97.000 41.127 99.923 44.064 C 101.531 45.679,102.926 47.000,103.024 47.000 C 103.122 47.000,103.160 47.112,103.107 47.248 C 103.055 47.384,103.066 47.488,103.131 47.478 C 103.513 47.421,103.692 47.527,103.603 47.759 C 103.548 47.902,103.575 47.973,103.662 47.919 C 103.869 47.791,104.542 48.464,104.414 48.671 C 104.358 48.762,104.438 48.783,104.602 48.720 C 104.796 48.645,104.849 48.673,104.768 48.805 C 104.701 48.912,104.731 49.000,104.833 49.000 C 104.936 49.000,104.966 49.087,104.901 49.192 C 104.833 49.301,104.854 49.340,104.949 49.282 C 105.041 49.225,105.274 49.326,105.468 49.506 C 105.812 49.826,106.132 49.833,119.826 49.833 L 133.833 49.833 133.833 54.184 C 133.833 58.084,133.806 58.525,133.570 58.434 C 133.425 58.379,128.775 58.333,123.236 58.333 L 113.167 58.333 113.167 55.833 L 113.167 53.333 105.000 53.333 L 96.833 53.333 96.833 59.735 L 96.833 66.137 97.990 67.300 C 98.626 67.940,99.095 68.516,99.032 68.579 C 98.968 68.643,99.029 68.669,99.167 68.639 C 99.305 68.608,99.396 68.682,99.371 68.804 C 99.346 68.925,99.398 68.980,99.486 68.925 C 99.694 68.797,100.833 69.931,100.833 70.265 C 100.833 70.405,100.908 70.473,101.000 70.417 C 101.092 70.360,101.167 70.398,101.167 70.500 C 101.167 70.602,101.228 70.648,101.304 70.601 C 101.469 70.500,105.167 74.058,105.167 74.319 C 105.167 74.448,110.463 74.500,123.760 74.500 C 136.113 74.500,142.318 74.444,142.250 74.333 C 142.193 74.242,142.226 74.167,142.323 74.167 C 142.421 74.167,142.481 74.080,142.458 73.973 C 142.435 73.867,142.604 73.724,142.833 73.656 C 143.063 73.589,143.181 73.526,143.096 73.517 C 143.011 73.507,143.116 73.315,143.329 73.088 C 143.541 72.862,143.798 72.724,143.899 72.782 C 144.000 72.840,144.031 72.828,143.966 72.757 C 143.854 72.632,144.203 72.167,144.410 72.167 C 144.465 72.167,144.743 71.902,145.027 71.578 C 145.312 71.254,145.574 71.018,145.610 71.055 C 145.711 71.155,147.167 69.677,147.167 69.474 C 147.167 69.377,147.279 69.341,147.417 69.394 C 147.556 69.447,147.667 69.398,147.667 69.282 C 147.667 69.032,148.326 68.437,148.458 68.569 C 148.571 68.682,149.333 67.881,149.333 67.648 C 149.333 67.556,149.408 67.527,149.500 67.583 C 149.592 67.640,149.667 67.588,149.667 67.467 C 149.667 67.347,149.929 67.029,150.250 66.762 L 150.833 66.275 150.833 54.511 L 150.833 42.747 149.125 40.980 C 148.185 40.008,147.298 39.071,147.152 38.898 C 147.007 38.725,146.685 38.412,146.437 38.203 C 146.189 37.995,146.031 37.752,146.085 37.664 C 146.140 37.575,146.069 37.548,145.925 37.603 C 145.781 37.658,145.667 37.615,145.667 37.505 C 145.667 37.397,145.180 36.818,144.584 36.220 C 143.989 35.622,143.550 35.053,143.610 34.957 C 143.673 34.855,143.638 34.831,143.526 34.901 C 143.420 34.966,143.333 34.936,143.333 34.833 C 143.333 34.731,143.246 34.701,143.138 34.768 C 143.006 34.849,142.979 34.796,143.053 34.602 C 143.118 34.432,143.096 34.357,142.998 34.418 C 142.907 34.474,142.833 34.436,142.833 34.333 C 142.833 34.231,142.766 34.188,142.684 34.239 C 142.602 34.290,142.492 34.219,142.439 34.082 C 142.356 33.864,140.554 33.833,127.839 33.833 L 113.333 33.833 113.333 29.597 C 113.333 27.267,113.288 25.242,113.232 25.097 C 113.141 24.858,114.123 24.833,123.607 24.833 L 134.083 24.833 134.030 27.583 L 133.978 30.333 142.239 30.333 L 150.500 30.333 150.500 23.488 L 150.500 16.642 149.802 16.029 C 147.948 14.403,147.205 13.684,147.289 13.600 C 147.340 13.549,147.258 13.461,147.108 13.403 C 146.958 13.346,146.884 13.220,146.943 13.123 C 147.003 13.026,146.972 12.997,146.873 13.059 C 146.661 13.190,144.310 10.918,144.472 10.738 C 144.533 10.669,144.494 10.664,144.385 10.727 C 144.138 10.869,143.473 10.183,143.616 9.933 C 143.673 9.832,143.664 9.800,143.596 9.861 C 143.438 10.003,142.822 9.486,142.934 9.306 C 142.980 9.231,142.907 9.213,142.771 9.265 C 142.626 9.321,142.450 9.219,142.341 9.014 L 142.156 8.670 123.511 8.626 C 113.256 8.603,104.900 8.640,104.942 8.708 M14.858 9.085 C 14.643 9.312,14.387 9.450,14.291 9.390 C 14.188 9.327,14.164 9.362,14.234 9.474 C 14.305 9.589,14.245 9.667,14.083 9.667 C 13.935 9.667,13.860 9.742,13.918 9.835 C 13.975 9.927,13.871 10.058,13.687 10.126 C 13.504 10.194,13.339 10.325,13.322 10.417 C 13.248 10.812,13.121 10.992,12.978 10.903 C 12.894 10.851,12.846 10.879,12.871 10.964 C 12.896 11.050,11.660 12.417,10.125 14.003 L 7.333 16.887 7.335 41.402 L 7.336 65.917 8.293 66.886 C 8.819 67.419,9.362 67.924,9.500 68.008 C 9.675 68.116,9.686 68.162,9.535 68.164 C 9.360 68.166,9.360 68.209,9.535 68.399 C 9.653 68.527,9.807 68.597,9.876 68.555 C 9.946 68.513,10.072 68.652,10.158 68.864 C 10.243 69.076,10.317 69.161,10.323 69.052 C 10.335 68.823,12.667 71.088,12.667 71.329 C 12.667 71.417,12.779 71.446,12.917 71.394 C 13.139 71.308,13.244 71.493,13.188 71.869 C 13.179 71.934,13.295 71.940,13.446 71.882 C 13.631 71.811,13.682 71.841,13.601 71.972 C 13.535 72.079,13.560 72.167,13.657 72.167 C 13.951 72.167,14.520 72.832,14.397 73.032 C 14.328 73.144,14.357 73.172,14.472 73.101 C 14.671 72.978,15.833 74.026,15.833 74.328 C 15.833 74.445,21.592 74.500,33.944 74.500 C 43.906 74.500,52.011 74.456,51.957 74.401 C 51.863 74.308,55.688 70.333,55.872 70.333 C 56.056 70.333,58.581 67.750,58.535 67.609 C 58.508 67.526,58.601 67.503,58.741 67.557 C 58.881 67.611,58.978 67.598,58.956 67.530 C 58.935 67.461,59.198 67.115,59.542 66.760 L 60.167 66.116 60.167 49.808 L 60.167 33.500 47.847 33.500 C 41.071 33.500,35.409 33.454,35.264 33.399 C 35.025 33.307,35.000 34.095,35.000 41.566 L 35.000 49.833 39.500 49.833 L 44.000 49.833 44.000 54.000 L 44.000 58.167 33.667 58.167 L 23.333 58.167 23.333 41.586 L 23.333 25.005 33.667 24.961 L 44.000 24.917 44.000 27.542 L 44.000 30.167 51.917 30.167 L 59.833 30.167 59.833 23.407 L 59.833 16.648 59.296 16.157 C 59.001 15.887,58.701 15.667,58.630 15.667 C 58.558 15.667,58.500 15.585,58.500 15.486 C 58.500 15.386,58.240 15.075,57.923 14.794 C 57.605 14.512,57.384 14.219,57.432 14.141 C 57.480 14.064,57.421 14.000,57.302 14.000 C 57.182 14.000,56.801 13.700,56.456 13.333 C 56.111 12.967,55.773 12.667,55.704 12.667 C 55.475 12.667,51.820 8.902,51.936 8.786 C 51.999 8.724,43.770 8.672,33.650 8.671 L 15.250 8.671 14.858 9.085 M159.000 41.583 L 159.000 74.500 167.167 74.500 L 175.333 74.500 175.333 62.250 L 175.333 50.000 185.583 50.000 L 195.833 50.000 195.833 62.250 L 195.833 74.500 204.083 74.500 L 212.333 74.500 212.333 41.583 L 212.333 8.667 204.083 8.667 L 195.833 8.667 195.833 21.250 L 195.833 33.833 185.583 33.833 L 175.333 33.833 175.333 21.250 L 175.333 8.667 167.167 8.667 L 159.000 8.667 159.000 41.583 M228.784 9.006 C 228.623 9.194,228.419 9.303,228.331 9.248 C 228.238 9.191,228.217 9.270,228.280 9.435 C 228.355 9.630,228.327 9.683,228.194 9.600 C 228.082 9.531,227.955 9.591,227.898 9.738 C 227.843 9.881,227.729 9.955,227.645 9.903 C 227.561 9.851,227.502 9.870,227.516 9.946 C 227.583 10.337,227.477 10.527,227.241 10.436 C 227.099 10.382,227.023 10.402,227.071 10.481 C 227.120 10.560,226.937 10.858,226.663 11.144 C 226.390 11.430,226.167 11.624,226.167 11.576 C 226.167 11.481,225.429 12.237,224.954 12.818 C 224.791 13.018,224.573 13.129,224.470 13.065 C 224.362 12.998,224.328 13.023,224.390 13.123 C 224.449 13.220,224.381 13.343,224.238 13.398 C 224.091 13.455,224.031 13.582,224.100 13.694 C 224.183 13.827,224.130 13.855,223.935 13.780 C 223.778 13.720,223.690 13.736,223.739 13.816 C 223.789 13.896,223.678 14.002,223.493 14.050 C 223.308 14.098,223.177 14.201,223.201 14.277 C 223.264 14.480,222.632 15.165,222.472 15.066 C 222.398 15.020,222.375 15.082,222.422 15.203 C 222.470 15.329,222.289 15.553,222.000 15.723 C 221.713 15.893,221.543 16.102,221.608 16.206 C 221.681 16.324,221.623 16.352,221.446 16.284 C 221.295 16.226,221.179 16.232,221.188 16.298 C 221.239 16.638,221.134 16.821,220.833 16.917 C 220.502 17.022,220.500 17.169,220.500 41.771 C 220.500 60.624,220.546 66.491,220.695 66.399 C 220.823 66.320,220.856 66.367,220.792 66.535 C 220.726 66.707,220.786 66.785,220.972 66.771 C 221.141 66.758,221.241 66.864,221.227 67.040 C 221.215 67.199,221.270 67.289,221.350 67.240 C 221.430 67.191,221.719 67.379,221.992 67.658 C 222.265 67.938,222.398 68.171,222.286 68.177 C 222.175 68.183,222.257 68.257,222.469 68.342 C 222.701 68.436,222.807 68.574,222.735 68.691 C 222.659 68.815,222.688 68.840,222.816 68.761 C 223.021 68.634,224.555 70.056,224.392 70.219 C 224.346 70.265,224.465 70.353,224.657 70.413 C 224.848 70.474,224.962 70.594,224.909 70.679 C 224.857 70.764,224.926 70.833,225.062 70.833 C 225.199 70.833,225.360 70.989,225.421 71.179 C 225.481 71.369,225.571 71.485,225.620 71.436 C 225.732 71.323,228.500 74.109,228.500 74.334 C 228.500 74.443,234.756 74.500,246.750 74.500 C 258.806 74.500,265.000 74.443,265.000 74.333 C 265.000 74.242,265.131 74.161,265.292 74.154 C 265.452 74.146,265.497 74.105,265.392 74.062 C 265.274 74.013,265.379 73.788,265.668 73.472 C 265.925 73.191,266.208 73.006,266.299 73.062 C 266.389 73.118,266.452 73.070,266.440 72.957 C 266.418 72.761,268.829 70.392,269.958 69.500 C 270.249 69.271,270.489 68.990,270.493 68.875 C 270.497 68.760,270.566 68.667,270.647 68.667 C 270.728 68.667,271.114 68.348,271.506 67.958 C 271.897 67.569,272.281 67.269,272.359 67.292 C 272.436 67.315,272.481 67.243,272.458 67.133 C 272.435 67.022,272.529 66.925,272.667 66.917 C 272.804 66.908,272.901 66.820,272.882 66.721 C 272.862 66.621,272.994 66.407,273.173 66.244 C 273.495 65.953,273.500 65.572,273.500 41.592 L 273.500 17.235 270.667 14.372 C 269.108 12.798,267.833 11.428,267.833 11.328 C 267.833 11.229,267.758 11.193,267.667 11.250 C 267.575 11.307,267.500 11.269,267.500 11.167 C 267.500 11.064,267.429 11.024,267.342 11.078 C 267.152 11.196,266.796 10.593,266.959 10.430 C 267.022 10.367,266.932 10.370,266.759 10.436 C 266.541 10.520,266.482 10.497,266.566 10.362 C 266.632 10.254,266.602 10.167,266.500 10.167 C 266.398 10.167,266.359 10.093,266.415 10.002 C 266.476 9.904,266.401 9.882,266.231 9.947 C 266.037 10.021,265.984 9.994,266.066 9.862 C 266.139 9.743,266.078 9.667,265.909 9.667 C 265.731 9.667,265.665 9.577,265.726 9.419 C 265.779 9.282,265.768 9.179,265.702 9.188 C 265.329 9.244,265.142 9.139,265.226 8.920 C 265.401 8.462,229.176 8.547,228.784 9.006 M289.884 9.167 C 289.591 9.442,289.272 9.667,289.176 9.667 C 289.079 9.667,289.000 9.728,289.000 9.803 C 289.000 9.878,288.775 10.192,288.500 10.500 C 288.225 10.808,288.000 11.017,288.000 10.963 C 288.000 10.910,287.646 11.228,287.213 11.671 C 286.781 12.113,286.356 12.431,286.271 12.378 C 286.185 12.325,286.166 12.363,286.227 12.463 C 286.362 12.682,285.681 13.195,285.447 13.051 C 285.356 12.994,285.330 13.027,285.389 13.122 C 285.520 13.334,285.102 13.713,284.929 13.540 C 284.861 13.472,284.831 13.493,284.861 13.587 C 284.892 13.680,284.710 13.979,284.458 14.252 C 284.206 14.524,284.000 14.807,284.000 14.881 C 284.000 14.954,283.869 14.993,283.708 14.966 C 283.503 14.931,283.433 15.009,283.471 15.231 C 283.510 15.456,283.452 15.517,283.268 15.447 C 283.126 15.392,282.959 15.431,282.896 15.533 C 282.820 15.656,282.860 15.671,283.016 15.577 C 283.145 15.499,282.931 15.752,282.542 16.141 L 281.833 16.846 281.833 41.425 L 281.833 66.004 282.684 66.850 C 283.151 67.315,283.547 67.787,283.564 67.899 C 283.580 68.011,283.771 68.285,283.988 68.509 C 284.205 68.733,284.326 68.817,284.257 68.696 C 284.153 68.513,284.192 68.513,284.483 68.694 C 284.675 68.815,284.833 68.956,284.833 69.009 C 284.833 69.061,285.002 69.285,285.208 69.507 C 285.415 69.729,285.563 69.974,285.538 70.051 C 285.512 70.128,285.570 70.143,285.665 70.084 C 285.761 70.025,286.231 70.401,286.711 70.920 C 287.191 71.439,287.863 72.130,288.204 72.455 C 288.545 72.780,288.777 73.129,288.719 73.231 C 288.661 73.333,288.676 73.359,288.753 73.289 C 288.923 73.136,289.833 73.972,289.833 74.281 C 289.833 74.461,293.173 74.500,308.343 74.500 C 318.782 74.500,326.814 74.437,326.763 74.355 C 326.632 74.143,327.823 72.974,328.037 73.106 C 328.142 73.171,328.171 73.141,328.104 73.034 C 327.928 72.749,328.524 72.167,328.995 72.164 C 329.262 72.163,329.341 72.114,329.212 72.031 C 329.060 71.935,329.089 71.831,329.326 71.628 C 329.554 71.433,329.669 71.411,329.726 71.552 C 329.774 71.668,329.812 71.641,329.820 71.485 C 329.836 71.173,332.090 68.812,332.235 68.957 C 332.289 69.011,332.333 68.966,332.333 68.857 C 332.333 68.748,332.971 68.023,333.750 67.245 L 335.167 65.832 335.167 57.666 L 335.167 49.500 327.167 49.500 L 319.167 49.500 319.167 53.958 L 319.167 58.417 308.833 58.373 L 298.500 58.328 298.500 41.748 L 298.500 25.167 308.750 25.167 L 319.000 25.167 319.000 29.333 L 319.000 33.500 327.000 33.500 L 335.000 33.500 335.000 25.063 L 335.000 16.626 333.917 15.589 C 333.321 15.019,332.833 14.495,332.833 14.425 C 332.833 14.246,332.115 13.506,331.937 13.503 C 331.857 13.501,330.711 12.412,329.391 11.083 L 326.992 8.667 308.704 8.667 L 290.417 8.668 289.884 9.167 M343.500 41.583 L 343.500 74.500 351.832 74.500 L 360.164 74.500 360.207 62.625 C 360.233 55.448,360.309 50.873,360.400 51.060 C 360.482 51.230,360.727 51.561,360.943 51.794 C 361.160 52.028,361.300 52.256,361.255 52.301 C 361.209 52.346,361.378 52.559,361.628 52.775 C 361.878 52.990,362.024 53.166,361.951 53.166 C 361.878 53.167,362.011 53.359,362.246 53.594 C 362.481 53.829,362.630 54.092,362.577 54.177 C 362.524 54.263,362.597 54.333,362.740 54.333 C 362.883 54.333,363.000 54.446,363.000 54.583 C 363.000 54.721,363.056 54.834,363.125 54.834 C 363.303 54.836,364.056 55.975,364.056 56.243 C 364.056 56.375,364.159 56.428,364.305 56.372 C 364.467 56.310,364.513 56.345,364.434 56.472 C 364.368 56.579,364.401 56.667,364.508 56.667 C 364.615 56.667,364.661 56.775,364.610 56.908 C 364.554 57.054,364.597 57.119,364.719 57.072 C 364.830 57.029,365.063 57.258,365.237 57.581 C 365.410 57.903,365.624 58.167,365.711 58.167 C 365.798 58.167,365.826 58.279,365.773 58.417 C 365.720 58.554,365.754 58.667,365.848 58.667 C 365.943 58.667,365.973 58.742,365.917 58.833 C 365.860 58.925,365.928 59.000,366.068 59.000 C 366.363 59.000,366.711 59.561,366.536 59.755 C 366.470 59.827,366.503 59.838,366.608 59.778 C 366.787 59.675,367.085 60.100,367.026 60.375 C 367.012 60.444,367.094 60.501,367.208 60.502 C 367.477 60.505,368.209 61.630,368.079 61.840 C 368.025 61.928,368.102 62.000,368.250 62.000 C 368.398 62.000,368.473 62.075,368.417 62.167 C 368.360 62.258,368.428 62.333,368.568 62.333 C 368.707 62.333,368.902 62.483,369.000 62.667 C 369.098 62.850,369.128 63.000,369.067 63.000 C 369.005 63.000,369.153 63.155,369.394 63.345 C 369.636 63.535,369.833 63.798,369.833 63.929 C 369.833 64.060,369.913 64.167,370.010 64.167 C 370.107 64.167,370.140 64.242,370.083 64.335 C 370.026 64.427,370.096 64.547,370.238 64.602 C 370.381 64.657,370.467 64.753,370.428 64.815 C 370.390 64.877,370.578 65.103,370.846 65.316 C 371.114 65.530,371.333 65.808,371.333 65.935 C 371.333 66.063,371.421 66.167,371.528 66.167 C 371.635 66.167,371.674 66.215,371.614 66.275 C 371.555 66.334,371.662 66.518,371.852 66.683 C 372.061 66.864,372.148 67.068,372.072 67.199 C 372.003 67.319,372.005 67.364,372.076 67.300 C 372.202 67.186,372.667 67.537,372.667 67.745 C 372.667 67.860,372.934 68.198,373.384 68.654 C 373.549 68.821,373.696 69.117,373.711 69.312 C 373.726 69.507,373.832 69.667,373.946 69.667 C 374.167 69.667,374.598 70.321,374.531 70.554 C 374.510 70.630,374.569 70.644,374.663 70.586 C 374.757 70.528,374.907 70.672,374.996 70.907 C 375.085 71.141,375.230 71.333,375.318 71.333 C 375.406 71.333,375.527 71.491,375.589 71.683 C 375.650 71.876,375.823 72.170,375.975 72.338 C 376.528 72.951,376.645 73.133,376.546 73.232 C 376.490 73.288,376.544 73.333,376.667 73.333 C 376.789 73.333,376.844 73.378,376.789 73.433 C 376.734 73.488,376.912 73.751,377.184 74.017 L 377.678 74.500 387.422 74.500 C 396.479 74.500,397.595 74.451,396.997 74.082 C 396.904 74.024,396.871 73.907,396.924 73.822 C 396.977 73.736,396.905 73.667,396.764 73.667 C 396.488 73.667,395.946 72.776,396.118 72.604 C 396.175 72.547,396.102 72.500,395.956 72.500 C 395.809 72.500,395.642 72.350,395.583 72.167 C 395.525 71.983,395.416 71.833,395.342 71.833 C 395.202 71.833,394.946 71.194,394.986 70.946 C 394.998 70.870,394.939 70.851,394.855 70.903 C 394.719 70.988,394.592 70.821,394.517 70.462 C 394.504 70.395,394.303 70.151,394.071 69.919 C 393.838 69.686,393.702 69.412,393.767 69.306 C 393.840 69.188,393.811 69.161,393.691 69.235 C 393.572 69.308,393.384 69.148,393.207 68.822 C 393.047 68.529,392.748 68.101,392.542 67.871 C 392.335 67.640,392.167 67.350,392.167 67.226 C 392.167 67.102,392.079 67.000,391.972 67.000 C 391.865 67.000,391.822 66.956,391.875 66.903 C 391.966 66.812,391.721 66.449,391.198 65.899 C 391.077 65.773,391.013 65.612,391.055 65.543 C 391.144 65.396,390.741 64.981,390.624 65.099 C 390.580 65.142,390.451 64.950,390.336 64.672 C 390.220 64.394,390.048 64.167,389.952 64.167 C 389.856 64.167,389.826 64.118,389.886 64.059 C 389.945 63.999,389.859 63.830,389.693 63.684 C 389.193 63.239,388.508 62.123,388.617 61.930 C 388.674 61.831,388.658 61.807,388.581 61.876 C 388.397 62.043,387.312 60.506,387.448 60.269 C 387.506 60.167,387.495 60.136,387.424 60.200 C 387.274 60.335,386.833 59.945,386.833 59.679 C 386.833 59.580,386.770 59.500,386.693 59.500 C 386.565 59.500,386.102 58.654,386.162 58.529 C 386.177 58.499,385.977 58.293,385.719 58.071 C 385.461 57.849,385.312 57.667,385.387 57.667 C 385.462 57.667,385.406 57.549,385.262 57.405 C 385.118 57.261,385.000 57.036,385.000 56.905 C 385.000 56.774,384.887 56.667,384.750 56.667 C 384.613 56.667,384.500 56.566,384.500 56.442 C 384.500 56.244,384.347 56.019,383.670 55.215 C 383.576 55.105,383.500 54.936,383.500 54.840 C 383.500 54.745,383.419 54.667,383.319 54.667 C 383.220 54.667,383.169 54.576,383.206 54.465 C 383.243 54.354,383.058 54.053,382.795 53.796 C 382.529 53.536,382.369 53.244,382.434 53.138 C 382.499 53.034,382.479 52.994,382.390 53.049 C 382.221 53.153,381.558 52.187,381.633 51.946 C 381.656 51.870,381.617 51.844,381.546 51.887 C 381.475 51.930,381.320 51.860,381.202 51.733 C 381.084 51.605,381.046 51.499,381.118 51.497 C 381.191 51.496,381.162 51.439,381.055 51.371 C 380.948 51.303,380.835 51.144,380.805 51.019 C 380.775 50.893,380.600 50.620,380.417 50.411 C 379.801 49.710,379.653 49.500,379.775 49.500 C 379.842 49.500,379.751 49.382,379.574 49.238 C 379.396 49.093,379.363 49.028,379.500 49.093 C 379.637 49.158,379.506 48.980,379.208 48.698 C 378.910 48.416,378.667 48.064,378.667 47.916 C 378.667 47.768,378.603 47.687,378.524 47.735 C 378.446 47.783,378.298 47.638,378.195 47.411 C 378.092 47.185,377.939 47.000,377.855 47.000 C 377.771 47.000,377.656 46.813,377.598 46.583 C 377.541 46.354,377.420 46.167,377.330 46.167 C 377.240 46.167,377.167 46.017,377.167 45.833 C 377.167 45.650,377.106 45.500,377.031 45.500 C 376.841 45.500,376.111 44.484,376.111 44.219 C 376.111 44.099,376.003 44.000,375.871 44.000 C 375.723 44.000,375.669 43.901,375.730 43.741 C 375.785 43.599,375.764 43.523,375.684 43.573 C 375.603 43.622,375.445 43.551,375.332 43.415 C 375.219 43.278,375.172 43.167,375.228 43.167 C 375.324 43.167,374.993 42.719,374.550 42.252 C 374.149 41.829,374.116 41.207,374.476 40.898 C 374.663 40.738,374.778 40.546,374.732 40.470 C 374.685 40.395,374.768 40.333,374.917 40.333 C 375.065 40.333,375.140 40.259,375.084 40.168 C 375.028 40.077,375.170 39.815,375.400 39.585 C 375.630 39.355,375.781 39.167,375.736 39.167 C 375.624 39.167,375.974 38.741,376.625 38.088 C 376.923 37.789,377.167 37.453,377.167 37.342 C 377.167 37.094,378.185 35.542,378.742 34.941 C 378.967 34.698,379.118 34.500,379.077 34.500 C 379.004 34.500,379.394 33.995,379.792 33.577 C 379.906 33.456,380.000 33.277,380.000 33.179 C 380.000 33.080,380.131 32.994,380.292 32.987 C 380.458 32.979,380.496 32.938,380.380 32.891 C 380.220 32.826,380.220 32.762,380.380 32.589 C 380.492 32.467,380.639 32.402,380.706 32.443 C 380.774 32.484,380.789 32.413,380.740 32.285 C 380.691 32.157,380.870 31.818,381.137 31.532 C 381.404 31.246,381.583 30.972,381.534 30.923 C 381.485 30.873,381.574 30.833,381.732 30.833 C 381.890 30.833,381.975 30.761,381.920 30.673 C 381.866 30.584,381.974 30.359,382.161 30.173 C 382.347 29.986,382.500 29.761,382.500 29.672 C 382.500 29.584,382.741 29.265,383.035 28.964 C 383.329 28.663,383.544 28.390,383.511 28.358 C 383.387 28.234,383.919 27.667,384.162 27.664 C 384.387 27.662,384.388 27.643,384.167 27.500 C 384.029 27.411,384.001 27.337,384.105 27.336 C 384.208 27.334,384.386 27.109,384.499 26.835 C 384.613 26.562,384.753 26.366,384.811 26.401 C 384.949 26.484,385.245 26.142,385.267 25.875 C 385.304 25.405,385.344 25.333,385.565 25.333 C 385.693 25.333,385.840 25.165,385.893 24.958 C 385.946 24.752,386.179 24.380,386.411 24.132 C 386.643 23.884,386.833 23.637,386.833 23.584 C 386.833 23.530,386.910 23.395,387.003 23.285 C 387.670 22.493,387.833 22.260,387.833 22.095 C 387.833 21.992,387.965 21.784,388.125 21.632 C 388.544 21.237,388.751 20.959,388.882 20.614 C 388.952 20.432,389.080 20.360,389.207 20.433 C 389.322 20.499,389.363 20.494,389.298 20.421 C 389.135 20.242,389.478 19.633,389.673 19.754 C 389.759 19.807,389.785 19.735,389.731 19.593 C 389.666 19.423,389.766 19.282,390.024 19.178 C 390.240 19.092,390.356 19.016,390.282 19.011 C 390.113 18.997,390.692 18.000,390.869 18.000 C 390.941 18.000,391.000 17.920,391.000 17.821 C 391.000 17.555,391.441 17.165,391.590 17.300 C 391.662 17.364,391.670 17.329,391.609 17.222 C 391.547 17.115,391.607 16.917,391.741 16.783 C 391.875 16.649,391.938 16.493,391.881 16.437 C 391.824 16.380,391.865 16.333,391.972 16.333 C 392.079 16.333,392.167 16.226,392.167 16.095 C 392.167 15.964,392.265 15.758,392.386 15.637 C 392.507 15.516,392.740 15.210,392.905 14.958 C 393.070 14.706,393.313 14.500,393.446 14.500 C 393.578 14.500,393.644 14.432,393.593 14.348 C 393.442 14.105,393.679 13.667,393.962 13.667 C 394.105 13.667,394.174 13.619,394.116 13.560 C 393.964 13.408,394.662 12.477,394.844 12.590 C 394.928 12.642,394.958 12.584,394.911 12.461 C 394.864 12.339,394.968 12.085,395.142 11.898 C 395.317 11.711,395.513 11.389,395.578 11.183 C 395.650 10.955,395.788 10.844,395.930 10.899 C 396.058 10.948,396.149 10.934,396.132 10.869 C 396.073 10.646,396.355 10.000,396.511 10.000 C 396.597 10.000,396.667 9.891,396.667 9.758 C 396.667 9.625,396.766 9.457,396.888 9.383 C 398.053 8.680,397.878 8.667,387.490 8.667 C 378.903 8.667,377.644 8.698,377.560 8.917 C 377.508 9.054,377.376 9.167,377.269 9.167 C 377.161 9.167,376.988 9.392,376.884 9.667 C 376.780 9.943,376.573 10.167,376.421 10.167 C 376.270 10.167,376.194 10.243,376.252 10.337 C 376.310 10.430,376.183 10.720,375.970 10.980 C 375.757 11.241,375.471 11.624,375.333 11.832 C 374.381 13.272,373.283 14.656,373.156 14.577 C 373.072 14.525,373.048 14.598,373.103 14.740 C 373.161 14.891,373.091 15.039,372.934 15.100 C 372.787 15.156,372.667 15.352,372.667 15.536 C 372.667 15.768,372.589 15.839,372.408 15.770 C 372.260 15.713,372.193 15.741,372.251 15.835 C 372.307 15.926,372.274 16.000,372.177 16.000 C 372.079 16.000,372.016 16.056,372.035 16.125 C 372.075 16.265,371.679 17.038,371.502 17.167 C 371.439 17.212,371.113 17.662,370.778 18.167 C 369.969 19.383,369.841 19.525,369.659 19.412 C 369.573 19.359,369.548 19.432,369.603 19.575 C 369.658 19.717,369.619 19.833,369.518 19.833 C 369.416 19.833,369.333 19.909,369.333 20.002 C 369.333 20.300,368.591 21.329,368.375 21.331 C 368.260 21.332,368.179 21.390,368.193 21.458 C 368.249 21.724,367.956 22.159,367.790 22.057 C 367.691 21.996,367.664 22.028,367.728 22.131 C 367.790 22.232,367.614 22.546,367.337 22.829 C 367.060 23.113,366.833 23.417,366.833 23.506 C 366.833 23.594,366.758 23.667,366.667 23.667 C 366.575 23.667,366.512 23.723,366.526 23.792 C 366.582 24.055,366.287 24.500,366.056 24.500 C 365.923 24.500,365.860 24.576,365.917 24.668 C 365.974 24.760,365.904 24.881,365.762 24.935 C 365.619 24.990,365.538 25.094,365.582 25.165 C 365.627 25.237,365.551 25.388,365.415 25.502 C 365.278 25.615,365.167 25.811,365.167 25.937 C 365.167 26.063,365.087 26.167,364.990 26.167 C 364.893 26.167,364.842 26.223,364.876 26.292 C 364.963 26.466,364.213 27.157,364.080 27.025 C 364.021 26.965,363.993 26.992,364.019 27.083 C 364.091 27.340,363.830 28.000,363.655 28.000 C 363.570 28.000,363.500 28.113,363.500 28.250 C 363.500 28.387,363.387 28.500,363.250 28.500 C 363.113 28.500,363.000 28.613,363.000 28.750 C 363.000 28.887,362.921 29.000,362.823 29.000 C 362.726 29.000,362.690 29.070,362.744 29.156 C 362.797 29.242,362.708 29.390,362.545 29.485 C 362.383 29.579,362.309 29.659,362.382 29.662 C 362.454 29.664,362.416 29.771,362.298 29.899 C 362.180 30.027,362.015 30.090,361.933 30.040 C 361.850 29.990,361.832 30.029,361.892 30.127 C 361.953 30.226,361.900 30.410,361.774 30.536 C 361.647 30.662,361.491 30.932,361.427 31.135 C 361.362 31.338,361.240 31.462,361.155 31.409 C 361.070 31.357,361.000 31.427,361.000 31.565 C 361.000 31.704,360.901 31.877,360.779 31.950 C 360.658 32.023,360.489 32.233,360.404 32.417 C 360.308 32.625,360.234 28.245,360.207 20.708 L 360.164 8.667 351.832 8.667 L 343.500 8.667 343.500 41.583 M257.040 41.417 L 256.997 58.167 247.000 58.167 L 237.003 58.167 236.960 41.417 L 236.917 24.667 247.000 24.667 L 257.083 24.667 257.040 41.417 M66.500 41.833 L 66.500 49.833 78.667 49.833 L 90.833 49.833 90.833 41.833 L 90.833 33.833 78.667 33.833 L 66.500 33.833 66.500 41.833 " stroke="none" fill="#040404" fill-rule="evenodd"></path><path id="path3" d="M12.158 11.792 L 11.583 12.417 12.208 11.842 C 12.552 11.526,12.833 11.245,12.833 11.217 C 12.833 11.090,12.692 11.210,12.158 11.792 M335.077 25.083 C 335.077 29.758,335.099 31.695,335.125 29.387 C 335.151 27.078,335.151 23.253,335.125 20.887 C 335.099 18.520,335.077 20.408,335.077 25.083 M117.000 24.955 C 126.720 25.070,134.128 25.072,134.058 24.958 C 134.015 24.890,129.316 24.851,123.615 24.872 C 117.914 24.893,114.938 24.930,117.000 24.955 M60.247 49.833 C 60.247 58.954,60.267 62.685,60.292 58.125 C 60.316 53.565,60.316 46.102,60.292 41.542 C 60.267 36.981,60.247 40.712,60.247 49.833 M13.667 72.199 C 13.667 72.245,13.817 72.455,14.000 72.667 C 14.183 72.878,14.333 72.976,14.333 72.885 C 14.333 72.793,14.183 72.583,14.000 72.417 C 13.817 72.251,13.667 72.153,13.667 72.199 M53.075 73.208 L 52.417 73.917 53.125 73.258 C 53.784 72.645,53.910 72.500,53.784 72.500 C 53.757 72.500,53.438 72.819,53.075 73.208 " stroke="none" fill="#444444" fill-rule="evenodd"></path><path id="path4" d="M43.901 27.583 C 43.901 29.050,43.927 29.628,43.957 28.867 C 43.988 28.106,43.988 26.906,43.957 26.200 C 43.926 25.494,43.901 26.117,43.901 27.583 " stroke="none" fill="#688844" fill-rule="evenodd"></path></g></svg>