<svg id="svg" version="1.1" xmlns="http://www.w3.org/2000/svg" xmlns:xlink="http://www.w3.org/1999/xlink" width="400" height="213.801756587202" viewBox="0, 0, 400,213.801756587202"><g id="svgg"><path id="path0" d="M171.979 30.374 L 171.979 60.535 171.542 60.535 C 171.134 60.535,170.930 60.654,170.168 61.337 C 170.004 61.484,169.767 61.604,169.641 61.604 C 169.515 61.604,169.412 61.701,169.412 61.818 C 169.412 61.936,169.171 62.032,168.877 62.032 C 168.583 62.032,168.342 62.128,168.342 62.246 C 168.342 62.364,168.150 62.460,167.914 62.460 C 167.677 62.460,167.487 62.602,167.487 62.781 C 167.487 62.957,167.318 63.104,167.112 63.106 C 166.906 63.109,166.497 63.299,166.203 63.529 C 165.909 63.759,165.545 63.950,165.394 63.952 C 165.244 63.955,165.065 64.102,164.997 64.278 C 164.929 64.455,164.740 64.599,164.576 64.599 C 164.412 64.599,164.278 64.695,164.278 64.813 C 164.278 64.930,164.126 65.027,163.941 65.027 C 163.755 65.027,163.317 65.314,162.966 65.664 C 162.615 66.015,161.997 66.459,161.592 66.651 C 161.187 66.843,160.856 67.093,160.856 67.205 C 160.856 67.457,160.310 68.021,160.067 68.021 C 159.969 68.021,159.629 68.262,159.312 68.556 C 158.995 68.850,158.676 69.091,158.604 69.091 C 158.430 69.091,157.861 69.664,157.861 69.840 C 157.861 70.018,157.291 70.588,157.112 70.588 C 156.934 70.588,156.364 71.158,156.364 71.337 C 156.364 71.515,155.793 72.086,155.615 72.086 C 155.393 72.086,154.866 72.677,154.866 72.926 C 154.866 73.052,154.770 73.155,154.652 73.155 C 154.535 73.155,154.439 73.348,154.439 73.583 C 154.439 73.821,154.296 74.011,154.118 74.011 C 153.941 74.011,153.797 74.120,153.797 74.253 C 153.797 74.386,153.622 74.651,153.407 74.841 C 153.193 75.031,152.835 75.500,152.612 75.882 C 152.390 76.265,152.132 76.578,152.039 76.578 C 151.947 76.578,151.872 76.678,151.872 76.800 C 151.872 77.010,151.704 77.252,151.070 77.960 C 150.922 78.124,150.802 78.414,150.802 78.604 C 150.802 78.794,150.561 79.191,150.267 79.485 C 149.973 79.779,149.733 80.159,149.733 80.331 C 149.733 80.502,149.636 80.642,149.519 80.642 C 149.401 80.642,149.305 80.882,149.305 81.176 C 149.305 81.471,149.209 81.711,149.091 81.711 C 148.973 81.711,148.877 81.862,148.877 82.047 C 148.877 82.232,148.733 82.528,148.556 82.704 C 148.380 82.881,148.235 83.205,148.235 83.425 C 148.235 83.645,148.139 83.885,148.021 83.957 C 147.904 84.030,147.807 84.324,147.807 84.612 C 147.807 84.899,147.711 85.134,147.594 85.134 C 147.476 85.134,147.380 85.425,147.380 85.782 C 147.380 86.161,147.246 86.482,147.059 86.554 C 146.882 86.621,146.738 86.901,146.738 87.176 C 146.738 87.451,146.642 87.735,146.524 87.807 C 146.406 87.880,146.310 88.319,146.310 88.783 C 146.310 89.246,146.214 89.626,146.096 89.626 C 145.979 89.626,145.882 89.952,145.882 90.351 C 145.882 90.799,145.759 91.124,145.561 91.200 C 145.342 91.284,145.241 91.627,145.241 92.280 C 145.241 92.806,145.144 93.296,145.027 93.369 C 144.909 93.442,144.813 94.025,144.813 94.665 C 144.813 95.305,144.717 95.829,144.599 95.829 C 144.474 95.829,144.385 96.542,144.385 97.540 C 144.385 98.919,144.323 99.251,144.064 99.251 C 143.799 99.251,143.743 99.643,143.743 101.497 C 143.743 102.852,143.658 103.743,143.529 103.743 C 143.393 103.743,143.316 105.455,143.316 108.449 L 143.316 113.155 149.840 113.155 L 156.364 113.155 156.364 108.890 C 156.364 106.277,156.447 104.573,156.578 104.492 C 156.695 104.419,156.791 103.465,156.791 102.367 C 156.791 100.856,156.869 100.309,157.112 100.107 C 157.325 99.931,157.433 99.452,157.433 98.690 C 157.433 98.058,157.529 97.540,157.647 97.540 C 157.765 97.540,157.861 97.107,157.861 96.578 C 157.861 96.048,157.957 95.615,158.075 95.615 C 158.193 95.615,158.289 95.192,158.289 94.675 C 158.289 94.037,158.392 93.696,158.610 93.612 C 158.797 93.541,158.930 93.220,158.930 92.841 C 158.930 92.484,159.027 92.193,159.144 92.193 C 159.262 92.193,159.358 91.952,159.358 91.658 C 159.358 91.364,159.455 91.123,159.572 91.123 C 159.690 91.123,159.786 90.831,159.786 90.475 C 159.786 90.096,159.919 89.775,160.107 89.703 C 160.283 89.635,160.428 89.350,160.428 89.068 C 160.428 88.786,160.524 88.556,160.642 88.556 C 160.759 88.556,160.856 88.364,160.856 88.128 C 160.856 87.893,160.952 87.701,161.070 87.701 C 161.187 87.701,161.283 87.556,161.283 87.380 C 161.283 87.203,161.373 87.059,161.482 87.059 C 161.591 87.059,161.814 86.794,161.977 86.471 C 162.529 85.379,162.886 84.841,163.369 84.374 C 163.634 84.118,163.850 83.799,163.850 83.665 C 163.850 83.532,163.947 83.422,164.064 83.422 C 164.182 83.422,164.278 83.230,164.278 82.995 C 164.278 82.759,164.381 82.567,164.507 82.567 C 164.757 82.567,165.348 82.040,165.348 81.818 C 165.348 81.640,165.918 81.070,166.096 81.070 C 166.275 81.070,166.845 80.499,166.845 80.321 C 166.845 80.142,167.415 79.572,167.594 79.572 C 167.669 79.572,167.865 79.452,168.029 79.305 C 168.712 78.692,168.975 78.503,169.142 78.503 C 169.238 78.503,169.456 78.310,169.626 78.075 C 169.795 77.840,170.047 77.647,170.185 77.647 C 170.323 77.647,170.491 77.503,170.559 77.326 C 170.626 77.150,170.829 77.005,171.009 77.005 C 171.189 77.005,171.337 76.909,171.337 76.791 C 171.337 76.674,171.481 76.578,171.658 76.578 C 171.940 76.578,171.979 78.752,171.979 94.866 L 171.979 113.155 181.711 113.155 L 191.444 113.155 191.444 90.053 L 191.444 66.952 192.086 66.952 C 192.439 66.952,192.727 66.856,192.727 66.738 C 192.727 66.620,193.016 66.524,193.369 66.524 C 193.722 66.524,194.011 66.428,194.011 66.310 C 194.011 66.193,194.302 66.096,194.659 66.096 C 195.038 66.096,195.359 65.963,195.431 65.775 C 195.507 65.577,195.832 65.455,196.280 65.455 C 196.679 65.455,197.005 65.358,197.005 65.241 C 197.005 65.123,197.288 65.027,197.634 65.027 C 197.980 65.027,198.323 64.930,198.396 64.813 C 198.468 64.695,198.751 64.599,199.024 64.599 C 199.297 64.599,199.640 64.455,199.786 64.278 C 199.933 64.102,200.276 63.957,200.548 63.957 C 200.821 63.957,201.104 63.861,201.176 63.743 C 201.249 63.626,201.592 63.529,201.938 63.529 C 202.284 63.529,202.567 63.433,202.567 63.316 C 202.567 63.198,202.859 63.102,203.215 63.102 C 203.594 63.102,203.915 62.968,203.987 62.781 C 204.063 62.583,204.388 62.460,204.836 62.460 C 205.235 62.460,205.561 62.364,205.561 62.246 C 205.561 62.128,205.898 62.032,206.310 62.032 C 206.722 62.032,207.059 61.936,207.059 61.818 C 207.059 61.701,207.299 61.604,207.594 61.604 L 208.128 61.604 208.128 87.380 L 208.128 113.155 217.861 113.155 L 227.594 113.155 227.594 83.316 L 227.594 53.476 228.128 53.476 C 228.422 53.476,228.663 53.380,228.663 53.262 C 228.663 53.144,228.856 53.048,229.091 53.048 C 229.329 53.048,229.519 52.906,229.519 52.727 C 229.519 52.528,229.721 52.406,230.053 52.406 C 230.348 52.406,230.588 52.310,230.588 52.193 C 230.588 52.075,230.781 51.979,231.016 51.979 C 231.251 51.979,231.444 51.882,231.444 51.765 C 231.444 51.647,231.588 51.551,231.765 51.551 C 231.941 51.551,232.086 51.406,232.086 51.230 C 232.086 51.030,232.288 50.909,232.620 50.909 C 232.914 50.909,233.155 50.813,233.155 50.695 C 233.155 50.578,233.312 50.481,233.505 50.481 C 233.697 50.481,234.078 50.241,234.350 49.947 C 234.623 49.652,234.995 49.412,235.177 49.412 C 235.359 49.412,235.508 49.316,235.508 49.198 C 235.508 49.080,235.611 48.984,235.737 48.984 C 235.863 48.984,236.101 48.864,236.265 48.717 C 236.912 48.136,237.207 47.914,237.332 47.914 C 237.550 47.914,238.075 47.320,238.075 47.074 C 238.075 46.948,238.261 46.845,238.489 46.845 C 238.716 46.845,239.440 46.316,240.098 45.668 C 240.755 45.021,241.387 44.492,241.502 44.492 C 241.617 44.492,241.711 44.391,241.711 44.268 C 241.711 43.978,242.695 42.995,242.985 42.995 C 243.108 42.995,243.209 42.894,243.209 42.771 C 243.209 42.481,244.192 41.497,244.482 41.497 C 244.605 41.497,244.706 41.397,244.706 41.274 C 244.706 41.151,244.947 40.809,245.241 40.515 C 245.535 40.221,245.775 39.862,245.775 39.717 C 245.775 39.571,245.968 39.314,246.203 39.144 C 246.439 38.975,246.631 38.754,246.631 38.654 C 246.631 38.554,246.751 38.338,246.898 38.174 C 247.533 37.466,247.701 37.224,247.701 37.014 C 247.701 36.892,247.797 36.791,247.914 36.791 C 248.032 36.791,248.128 36.609,248.128 36.387 C 248.128 36.164,248.273 35.926,248.449 35.858 C 248.626 35.791,248.770 35.584,248.770 35.399 C 248.770 35.214,248.963 34.856,249.198 34.603 C 249.433 34.351,249.626 33.970,249.626 33.756 C 249.626 33.543,249.720 33.369,249.835 33.369 C 249.951 33.369,250.106 33.128,250.180 32.834 C 250.253 32.540,250.400 32.299,250.504 32.299 C 250.609 32.299,250.695 32.059,250.695 31.765 C 250.695 31.471,250.791 31.230,250.909 31.230 C 251.027 31.230,251.123 30.951,251.123 30.611 C 251.123 30.258,251.261 29.939,251.444 29.869 C 251.620 29.801,251.765 29.556,251.765 29.324 C 251.765 29.092,251.861 28.843,251.979 28.770 C 252.096 28.697,252.193 28.355,252.193 28.009 C 252.193 27.663,252.289 27.380,252.406 27.380 C 252.524 27.380,252.620 27.053,252.620 26.654 C 252.620 26.206,252.743 25.881,252.941 25.805 C 253.143 25.728,253.262 25.401,253.262 24.926 C 253.262 24.511,253.358 24.171,253.476 24.171 C 253.594 24.171,253.690 23.738,253.690 23.209 C 253.690 22.679,253.786 22.246,253.904 22.246 C 254.021 22.246,254.118 21.776,254.118 21.203 C 254.118 20.536,254.234 20.063,254.439 19.893 C 254.651 19.717,254.759 19.238,254.759 18.476 C 254.759 17.844,254.856 17.326,254.973 17.326 C 255.098 17.326,255.187 16.613,255.187 15.615 C 255.187 14.617,255.276 13.904,255.401 13.904 C 255.532 13.904,255.615 12.913,255.615 11.360 C 255.615 9.296,255.676 8.793,255.936 8.693 C 256.206 8.589,256.257 7.908,256.257 4.392 L 256.257 0.214 249.733 0.214 L 243.209 0.214 243.209 4.260 C 243.209 7.209,243.139 8.330,242.953 8.392 C 242.785 8.448,242.667 9.212,242.610 10.602 C 242.562 11.771,242.436 12.819,242.331 12.930 C 242.225 13.042,242.139 13.740,242.139 14.481 C 242.139 15.237,242.045 15.829,241.925 15.829 C 241.807 15.829,241.711 16.298,241.711 16.872 C 241.711 17.539,241.595 18.012,241.390 18.182 C 241.214 18.328,241.070 18.768,241.070 19.158 C 241.070 19.548,240.973 19.927,240.856 20.000 C 240.738 20.073,240.642 20.410,240.642 20.749 C 240.642 21.088,240.545 21.425,240.428 21.497 C 240.310 21.570,240.214 21.902,240.214 22.236 C 240.214 22.577,240.074 22.896,239.893 22.965 C 239.705 23.037,239.572 23.358,239.572 23.737 C 239.572 24.093,239.476 24.385,239.358 24.385 C 239.241 24.385,239.144 24.626,239.144 24.920 C 239.144 25.214,239.048 25.455,238.930 25.455 C 238.813 25.455,238.717 25.637,238.717 25.859 C 238.717 26.082,238.572 26.320,238.396 26.388 C 238.219 26.455,238.075 26.662,238.075 26.847 C 238.075 27.032,237.882 27.390,237.647 27.643 C 237.412 27.895,237.219 28.276,237.219 28.490 C 237.219 28.703,237.075 28.877,236.898 28.877 C 236.722 28.877,236.578 29.021,236.578 29.198 C 236.578 29.374,236.481 29.519,236.364 29.519 C 236.246 29.519,236.150 29.667,236.150 29.848 C 236.150 30.028,235.717 30.597,235.187 31.112 C 234.658 31.626,234.219 32.128,234.213 32.227 C 234.206 32.326,233.721 32.840,233.135 33.369 C 232.549 33.898,231.580 34.789,230.982 35.348 C 230.384 35.906,229.775 36.364,229.630 36.364 C 229.484 36.364,229.184 36.604,228.963 36.898 C 228.742 37.193,228.344 37.433,228.078 37.433 L 227.594 37.433 227.594 18.824 L 227.594 0.214 217.861 0.214 L 208.128 0.214 208.128 23.316 C 208.128 43.708,208.091 46.417,207.807 46.417 C 207.631 46.417,207.487 46.503,207.487 46.607 C 207.487 46.712,207.150 46.861,206.738 46.938 C 206.326 47.015,205.989 47.170,205.989 47.282 C 205.989 47.395,205.652 47.487,205.241 47.487 C 204.829 47.487,204.492 47.583,204.492 47.701 C 204.492 47.818,204.200 47.914,203.844 47.914 C 203.465 47.914,203.144 48.048,203.072 48.235 C 202.996 48.433,202.671 48.556,202.223 48.556 C 201.824 48.556,201.497 48.652,201.497 48.770 C 201.497 48.888,201.160 48.984,200.749 48.984 C 200.337 48.984,200.000 49.080,200.000 49.198 C 200.000 49.316,199.766 49.412,199.481 49.412 C 199.195 49.412,198.817 49.556,198.640 49.733 C 198.464 49.909,198.077 50.053,197.782 50.053 C 197.486 50.053,197.185 50.150,197.112 50.267 C 197.040 50.385,196.745 50.481,196.458 50.481 C 196.171 50.481,195.936 50.578,195.936 50.695 C 195.936 50.813,195.599 50.909,195.187 50.909 C 194.664 50.909,194.439 51.006,194.439 51.230 C 194.439 51.454,194.213 51.551,193.690 51.551 C 193.278 51.551,192.941 51.647,192.941 51.765 C 192.941 51.882,192.604 51.979,192.193 51.979 L 191.444 51.979 191.444 26.096 L 191.444 0.214 181.711 0.214 L 171.979 0.214 171.979 30.374 M305.532 145.134 C 305.435 145.387,304.988 145.455,303.400 145.455 C 302.203 145.455,301.390 145.541,301.390 145.668 C 301.390 145.787,300.820 145.882,300.107 145.882 C 299.394 145.882,298.824 145.977,298.824 146.096 C 298.824 146.214,298.498 146.310,298.101 146.310 C 297.704 146.310,297.259 146.455,297.112 146.631 C 296.966 146.807,296.575 146.952,296.243 146.952 C 295.912 146.952,295.581 147.048,295.508 147.166 C 295.435 147.283,295.141 147.380,294.854 147.380 C 294.567 147.380,294.332 147.476,294.332 147.594 C 294.332 147.711,294.146 147.807,293.919 147.807 C 293.692 147.807,293.362 147.952,293.186 148.128 C 293.009 148.305,292.665 148.449,292.422 148.449 C 292.178 148.449,291.979 148.545,291.979 148.663 C 291.979 148.781,291.800 148.877,291.582 148.877 C 291.364 148.877,290.926 149.118,290.608 149.412 C 290.291 149.706,289.892 149.947,289.722 149.947 C 289.551 149.947,289.412 150.043,289.412 150.160 C 289.412 150.278,289.243 150.377,289.037 150.381 C 288.575 150.390,287.914 150.871,287.914 151.200 C 287.914 151.334,287.713 151.444,287.468 151.444 C 287.219 151.444,286.605 151.871,286.085 152.406 C 285.571 152.936,285.045 153.369,284.917 153.369 C 284.647 153.369,281.283 156.750,281.283 157.021 C 281.283 157.121,280.850 157.649,280.321 158.193 C 279.791 158.738,279.358 159.367,279.358 159.592 C 279.358 159.816,279.249 160.000,279.114 160.000 C 278.786 160.000,278.304 160.661,278.296 161.123 C 278.292 161.329,278.193 161.497,278.075 161.497 C 277.957 161.497,277.861 161.680,277.861 161.902 C 277.861 162.125,277.717 162.363,277.540 162.430 C 277.364 162.498,277.219 162.749,277.219 162.988 C 277.219 163.227,277.123 163.422,277.005 163.422 C 276.888 163.422,276.791 163.663,276.791 163.957 C 276.791 164.251,276.695 164.492,276.578 164.492 C 276.460 164.492,276.364 164.688,276.364 164.926 C 276.364 165.165,276.219 165.416,276.043 165.484 C 275.866 165.552,275.722 165.784,275.722 166.000 C 275.722 166.215,275.626 166.451,275.508 166.524 C 275.390 166.597,275.294 166.939,275.294 167.285 C 275.294 167.631,275.198 167.914,275.080 167.914 C 274.963 167.914,274.866 168.240,274.866 168.637 C 274.866 169.034,274.722 169.479,274.545 169.626 C 274.363 169.777,274.225 170.244,274.225 170.709 C 274.225 171.158,274.128 171.585,274.011 171.658 C 273.893 171.730,273.797 172.410,273.797 173.168 C 273.797 173.944,273.703 174.545,273.583 174.545 C 273.447 174.545,273.369 176.257,273.369 179.251 C 273.369 182.246,273.447 183.957,273.583 183.957 C 273.705 183.957,273.797 184.599,273.797 185.455 C 273.797 186.310,273.888 186.952,274.011 186.952 C 274.128 186.952,274.225 187.388,274.225 187.921 C 274.225 188.585,274.326 188.929,274.545 189.014 C 274.743 189.090,274.866 189.415,274.866 189.862 C 274.866 190.262,274.963 190.588,275.080 190.588 C 275.198 190.588,275.294 190.925,275.294 191.337 C 275.294 191.749,275.390 192.086,275.508 192.086 C 275.626 192.086,275.722 192.281,275.722 192.520 C 275.722 192.759,275.866 193.010,276.043 193.078 C 276.226 193.148,276.364 193.467,276.364 193.820 C 276.364 194.160,276.460 194.439,276.578 194.439 C 276.695 194.439,276.791 194.584,276.791 194.762 C 276.791 195.172,277.243 195.990,277.594 196.214 C 277.741 196.308,277.861 196.524,277.861 196.695 C 277.861 196.866,277.957 197.005,278.075 197.005 C 278.193 197.005,278.289 197.205,278.289 197.448 C 278.289 197.922,278.752 198.503,279.129 198.503 C 279.255 198.503,279.358 198.703,279.358 198.948 C 279.358 199.193,279.695 199.721,280.107 200.121 C 280.519 200.521,280.856 200.951,280.856 201.076 C 280.856 201.201,281.289 201.743,281.818 202.280 C 282.348 202.817,282.781 203.342,282.781 203.446 C 282.781 203.551,282.879 203.636,282.998 203.636 C 283.118 203.636,283.623 204.054,284.121 204.565 C 284.619 205.075,285.195 205.554,285.401 205.627 C 285.607 205.701,285.775 205.861,285.775 205.983 C 285.775 206.104,285.899 206.203,286.049 206.203 C 286.200 206.203,286.461 206.396,286.631 206.631 C 286.801 206.866,287.159 207.059,287.427 207.059 C 287.695 207.059,287.914 207.162,287.914 207.288 C 287.914 207.632,288.479 208.128,288.871 208.128 C 289.062 208.128,289.458 208.369,289.752 208.663 C 290.046 208.957,290.427 209.198,290.598 209.198 C 290.769 209.198,290.909 209.294,290.909 209.412 C 290.909 209.529,291.102 209.626,291.337 209.626 C 291.572 209.626,291.765 209.722,291.765 209.840 C 291.765 209.957,291.995 210.053,292.277 210.053 C 292.558 210.053,292.844 210.198,292.912 210.374 C 292.979 210.551,293.225 210.695,293.457 210.695 C 293.689 210.695,293.938 210.791,294.011 210.909 C 294.083 211.027,294.426 211.123,294.772 211.123 C 295.118 211.123,295.401 211.219,295.401 211.337 C 295.401 211.455,295.738 211.551,296.150 211.551 C 296.673 211.551,296.898 211.648,296.898 211.872 C 296.898 212.095,297.123 212.193,297.634 212.193 C 298.039 212.193,298.430 212.289,298.503 212.406 C 298.575 212.524,299.159 212.620,299.799 212.620 C 300.439 212.620,300.963 212.717,300.963 212.834 C 300.963 212.959,301.668 213.048,302.651 213.048 C 303.954 213.048,304.367 213.121,304.462 213.369 C 304.646 213.847,311.611 213.847,311.794 213.369 C 311.890 213.119,312.314 213.048,313.713 213.048 C 314.700 213.048,315.508 212.961,315.508 212.855 C 315.508 212.749,315.965 212.608,316.524 212.542 C 318.836 212.271,319.358 212.143,319.358 211.849 C 319.358 211.651,319.609 211.551,320.107 211.551 C 320.519 211.551,320.856 211.455,320.856 211.337 C 320.856 211.219,321.024 211.122,321.230 211.120 C 321.827 211.115,323.293 210.549,323.379 210.290 C 323.423 210.160,323.691 210.053,323.975 210.053 C 324.259 210.053,324.492 209.957,324.492 209.840 C 324.492 209.722,324.684 209.626,324.920 209.626 C 325.155 209.626,325.348 209.540,325.348 209.435 C 325.348 209.330,325.588 209.184,325.882 209.110 C 326.176 209.036,326.417 208.881,326.417 208.766 C 326.417 208.651,326.561 208.556,326.738 208.556 C 326.914 208.556,327.059 208.460,327.059 208.342 C 327.059 208.225,327.251 208.128,327.487 208.128 C 327.722 208.128,327.914 208.032,327.914 207.914 C 327.914 207.797,328.059 207.701,328.235 207.701 C 328.412 207.701,328.556 207.556,328.556 207.380 C 328.556 207.201,328.746 207.059,328.984 207.059 C 329.219 207.059,329.412 206.963,329.412 206.845 C 329.412 206.727,329.515 206.631,329.641 206.631 C 329.937 206.631,330.481 206.087,330.481 205.791 C 330.481 205.665,330.674 205.561,330.909 205.561 C 331.144 205.561,331.337 205.465,331.337 205.348 C 331.337 205.230,331.465 205.134,331.622 205.134 C 331.778 205.134,332.035 204.893,332.193 204.599 C 332.350 204.305,332.572 204.064,332.685 204.064 C 332.914 204.064,333.903 202.979,333.903 202.727 C 333.904 202.639,334.024 202.565,334.171 202.562 C 334.318 202.560,334.727 202.127,335.080 201.600 C 335.433 201.073,335.794 200.642,335.882 200.642 C 335.971 200.642,336.043 200.541,336.043 200.418 C 336.043 200.295,336.283 199.954,336.578 199.660 C 336.872 199.366,337.112 199.006,337.112 198.861 C 337.112 198.716,337.305 198.458,337.540 198.289 C 337.775 198.119,337.968 197.771,337.968 197.516 C 337.968 197.260,338.112 196.996,338.289 196.928 C 338.465 196.860,338.610 196.657,338.610 196.477 C 338.610 196.297,338.706 196.150,338.824 196.150 C 338.941 196.150,339.037 195.963,339.037 195.735 C 339.037 195.506,339.134 195.260,339.251 195.187 C 339.369 195.114,339.465 194.865,339.465 194.633 C 339.465 194.401,339.610 194.156,339.786 194.088 C 339.963 194.020,340.107 193.830,340.107 193.664 C 340.107 193.372,340.200 193.138,340.715 192.142 C 340.851 191.879,340.963 191.432,340.963 191.149 C 340.963 190.866,341.107 190.579,341.283 190.511 C 341.483 190.434,341.604 190.108,341.604 189.645 C 341.604 189.236,341.701 188.843,341.818 188.770 C 341.936 188.697,342.032 188.264,342.032 187.807 C 342.032 187.351,342.128 186.918,342.246 186.845 C 342.364 186.772,342.460 186.007,342.460 185.144 C 342.460 183.947,342.536 183.546,342.781 183.452 C 343.050 183.349,343.102 182.679,343.102 179.251 C 343.102 175.824,343.050 175.154,342.781 175.051 C 342.538 174.958,342.460 174.566,342.460 173.453 C 342.460 172.613,342.368 171.979,342.246 171.979 C 342.128 171.979,342.032 171.551,342.032 171.029 C 342.032 170.506,341.936 170.019,341.818 169.947 C 341.701 169.874,341.604 169.495,341.604 169.104 C 341.604 168.714,341.460 168.275,341.283 168.128 C 341.107 167.982,340.963 167.585,340.963 167.247 C 340.963 166.908,340.866 166.631,340.749 166.631 C 340.631 166.631,340.535 166.390,340.535 166.096 C 340.535 165.802,340.439 165.561,340.321 165.561 C 340.203 165.561,340.107 165.321,340.107 165.027 C 340.107 164.694,339.986 164.492,339.786 164.492 C 339.586 164.492,339.465 164.290,339.465 163.957 C 339.465 163.663,339.369 163.422,339.251 163.422 C 339.134 163.422,339.037 163.293,339.037 163.134 C 339.037 162.706,338.394 161.497,338.166 161.497 C 338.057 161.497,337.968 161.353,337.968 161.176 C 337.968 161.000,337.872 160.856,337.754 160.856 C 337.636 160.856,337.540 160.698,337.540 160.506 C 337.540 160.313,337.299 159.933,337.005 159.660 C 336.711 159.388,336.471 159.016,336.471 158.834 C 336.471 158.652,336.374 158.503,336.257 158.503 C 336.139 158.503,336.043 158.400,336.043 158.273 C 336.043 157.995,335.505 157.433,335.239 157.433 C 335.132 157.433,334.913 157.168,334.751 156.845 C 334.442 156.229,331.619 153.369,331.321 153.369 C 331.226 153.369,330.709 152.936,330.172 152.406 C 329.635 151.877,329.105 151.444,328.994 151.444 C 328.883 151.444,328.532 151.203,328.215 150.909 C 327.898 150.615,327.508 150.374,327.348 150.374 C 327.189 150.374,327.059 150.278,327.059 150.160 C 327.059 150.043,326.818 149.947,326.524 149.947 C 326.230 149.947,325.988 149.826,325.986 149.679 C 325.981 149.380,324.152 148.449,323.570 148.449 C 323.364 148.449,323.140 148.305,323.072 148.128 C 323.004 147.952,322.719 147.807,322.437 147.807 C 322.155 147.807,321.925 147.711,321.925 147.594 C 321.925 147.476,321.690 147.380,321.403 147.380 C 321.116 147.380,320.821 147.283,320.749 147.166 C 320.676 147.048,320.345 146.952,320.014 146.952 C 319.682 146.952,319.291 146.807,319.144 146.631 C 318.998 146.455,318.553 146.310,318.156 146.310 C 317.758 146.310,317.433 146.214,317.433 146.096 C 317.433 145.977,316.863 145.882,316.150 145.882 C 315.437 145.882,314.866 145.787,314.866 145.668 C 314.866 145.541,314.054 145.455,312.857 145.455 C 311.268 145.455,310.822 145.387,310.725 145.134 C 310.625 144.874,310.130 144.813,308.128 144.813 C 306.127 144.813,305.632 144.874,305.532 145.134 M0.000 179.575 L 0.000 212.199 6.578 212.142 L 13.155 212.086 13.210 198.556 L 13.265 185.027 28.879 185.027 L 44.492 185.027 44.492 198.610 L 44.492 212.193 51.230 212.193 L 57.968 212.193 57.968 179.572 L 57.968 146.952 51.230 146.952 L 44.492 146.952 44.492 158.930 L 44.492 170.909 28.877 170.909 L 13.262 170.909 13.262 158.930 L 13.262 146.952 6.631 146.952 L 0.000 146.952 0.000 179.575 M75.080 166.404 C 75.080 179.142,75.154 185.903,75.294 185.989 C 75.417 186.065,75.508 187.168,75.508 188.569 C 75.508 189.915,75.591 191.016,75.693 191.016 C 75.794 191.016,75.929 191.663,75.993 192.453 C 76.056 193.243,76.214 193.925,76.343 193.968 C 76.472 194.011,76.578 194.418,76.578 194.872 C 76.578 195.325,76.674 195.756,76.791 195.829 C 76.909 195.902,77.005 196.282,77.005 196.674 C 77.005 197.111,77.130 197.435,77.326 197.511 C 77.503 197.578,77.647 197.823,77.647 198.056 C 77.647 198.288,77.743 198.537,77.861 198.610 C 77.979 198.682,78.075 199.025,78.075 199.371 C 78.075 199.717,78.171 200.000,78.289 200.000 C 78.406 200.000,78.503 200.196,78.503 200.435 C 78.503 200.674,78.647 200.924,78.824 200.992 C 79.000 201.060,79.144 201.279,79.144 201.480 C 79.144 201.680,79.337 202.051,79.572 202.304 C 79.807 202.556,80.000 202.898,80.000 203.063 C 80.000 203.228,80.241 203.543,80.535 203.764 C 80.829 203.985,81.070 204.300,81.070 204.465 C 81.070 204.629,81.310 204.987,81.604 205.259 C 81.898 205.532,82.139 205.812,82.139 205.882 C 82.139 206.054,83.154 207.059,83.328 207.059 C 83.405 207.059,83.657 207.299,83.888 207.594 C 84.120 207.888,84.453 208.128,84.630 208.128 C 84.979 208.128,85.561 208.627,85.561 208.926 C 85.561 209.028,85.898 209.234,86.310 209.383 C 86.722 209.532,87.059 209.743,87.059 209.853 C 87.059 209.963,87.299 210.053,87.594 210.053 C 87.926 210.053,88.128 210.175,88.128 210.374 C 88.128 210.574,88.330 210.695,88.663 210.695 C 88.957 210.695,89.198 210.791,89.198 210.909 C 89.198 211.027,89.390 211.123,89.626 211.123 C 89.861 211.123,90.053 211.219,90.053 211.337 C 90.053 211.455,90.390 211.551,90.802 211.551 C 91.325 211.551,91.551 211.648,91.551 211.872 C 91.551 212.096,91.777 212.193,92.299 212.193 C 92.711 212.193,93.048 212.289,93.048 212.406 C 93.048 212.524,93.529 212.620,94.118 212.620 C 94.706 212.620,95.187 212.717,95.187 212.834 C 95.187 212.952,95.720 213.048,96.370 213.048 C 97.225 213.048,97.588 213.137,97.677 213.369 C 97.783 213.646,98.815 213.690,105.163 213.690 C 111.511 213.690,112.544 213.646,112.650 213.369 C 112.738 213.139,113.097 213.048,113.914 213.048 C 114.542 213.048,115.114 212.952,115.187 212.834 C 115.260 212.717,115.747 212.620,116.269 212.620 C 116.792 212.620,117.219 212.524,117.219 212.406 C 117.219 212.289,117.556 212.193,117.968 212.193 C 118.491 212.193,118.717 212.096,118.717 211.872 C 118.717 211.648,118.942 211.551,119.465 211.551 C 119.877 211.551,120.214 211.455,120.214 211.337 C 120.214 211.219,120.455 211.123,120.749 211.123 C 121.043 211.123,121.283 211.027,121.283 210.909 C 121.283 210.791,121.476 210.695,121.711 210.695 C 121.949 210.695,122.139 210.553,122.139 210.374 C 122.139 210.175,122.341 210.053,122.674 210.053 C 122.968 210.053,123.209 209.957,123.209 209.840 C 123.209 209.722,123.377 209.623,123.583 209.619 C 124.045 209.610,124.706 209.129,124.706 208.800 C 124.706 208.666,124.898 208.556,125.134 208.556 C 125.369 208.556,125.561 208.460,125.561 208.342 C 125.561 208.225,125.665 208.128,125.791 208.128 C 126.087 208.128,126.631 207.584,126.631 207.288 C 126.631 207.162,126.732 207.059,126.855 207.059 C 126.978 207.059,127.315 206.823,127.603 206.534 C 127.892 206.245,128.128 205.908,128.128 205.785 C 128.128 205.662,128.231 205.561,128.358 205.561 C 128.687 205.561,129.198 205.004,129.198 204.644 C 129.198 204.476,129.439 204.157,129.733 203.936 C 130.027 203.716,130.267 203.413,130.267 203.265 C 130.267 203.116,130.364 202.995,130.481 202.995 C 130.599 202.995,130.695 202.812,130.695 202.590 C 130.695 202.367,130.840 202.129,131.016 202.062 C 131.193 201.994,131.337 201.743,131.337 201.504 C 131.337 201.265,131.433 201.070,131.551 201.070 C 131.668 201.070,131.765 200.829,131.765 200.535 C 131.765 200.241,131.861 200.000,131.979 200.000 C 132.096 200.000,132.193 199.849,132.193 199.664 C 132.193 199.479,132.337 199.183,132.513 199.007 C 132.690 198.830,132.834 198.452,132.834 198.167 C 132.834 197.881,132.930 197.647,133.048 197.647 C 133.166 197.647,133.262 197.310,133.262 196.898 C 133.262 196.487,133.358 196.150,133.476 196.150 C 133.594 196.150,133.690 195.806,133.690 195.386 C 133.690 194.966,133.834 194.477,134.011 194.301 C 134.198 194.114,134.332 193.591,134.332 193.045 C 134.332 192.531,134.428 192.051,134.545 191.979 C 134.663 191.906,134.759 190.986,134.759 189.934 C 134.759 188.801,134.847 188.021,134.973 188.021 C 135.114 188.021,135.187 181.034,135.187 167.487 L 135.187 146.952 128.449 146.952 L 121.711 146.952 121.711 166.524 C 121.711 179.430,121.638 186.096,121.497 186.096 C 121.373 186.096,121.283 186.802,121.283 187.785 C 121.283 189.088,121.210 189.501,120.963 189.596 C 120.763 189.673,120.642 189.999,120.642 190.462 C 120.642 190.870,120.545 191.264,120.428 191.337 C 120.310 191.410,120.214 191.704,120.214 191.991 C 120.214 192.278,120.118 192.513,120.000 192.513 C 119.882 192.513,119.786 192.754,119.786 193.048 C 119.786 193.381,119.665 193.583,119.465 193.583 C 119.274 193.583,119.144 193.780,119.144 194.070 C 119.144 194.339,118.952 194.697,118.717 194.866 C 118.481 195.036,118.289 195.303,118.289 195.460 C 118.289 195.786,117.185 196.860,116.310 197.386 C 115.987 197.580,115.722 197.815,115.722 197.907 C 115.722 197.999,115.585 198.075,115.418 198.075 C 115.037 198.075,113.800 198.769,113.798 198.984 C 113.797 199.072,113.556 199.144,113.262 199.144 C 112.968 199.144,112.727 199.241,112.727 199.358 C 112.727 199.476,112.348 199.572,111.884 199.572 C 111.421 199.572,110.982 199.668,110.909 199.786 C 110.836 199.904,110.277 200.001,109.667 200.001 C 109.056 200.002,108.280 200.146,107.943 200.322 C 107.169 200.726,102.757 200.783,102.626 200.391 C 102.578 200.248,101.951 200.100,101.164 200.047 C 100.406 199.995,99.695 199.868,99.583 199.763 C 99.471 199.658,98.966 199.572,98.460 199.572 C 97.954 199.572,97.540 199.476,97.540 199.358 C 97.540 199.241,97.404 199.144,97.237 199.144 C 96.855 199.144,95.618 198.450,95.616 198.235 C 95.616 198.147,95.417 198.075,95.176 198.075 C 94.580 198.075,91.123 194.625,91.123 194.030 C 91.123 193.784,91.027 193.583,90.909 193.583 C 90.791 193.583,90.695 193.387,90.695 193.148 C 90.695 192.909,90.551 192.658,90.374 192.591 C 90.176 192.515,90.053 192.190,90.053 191.742 C 90.053 191.343,89.957 191.016,89.840 191.016 C 89.722 191.016,89.626 190.628,89.626 190.154 C 89.626 189.585,89.517 189.250,89.305 189.168 C 89.057 189.073,88.984 188.660,88.984 187.357 C 88.984 186.374,88.895 185.668,88.770 185.668 C 88.629 185.668,88.556 179.073,88.556 166.310 L 88.556 146.952 81.818 146.952 L 75.080 146.952 75.080 166.404 M150.802 179.572 L 150.802 212.193 170.809 212.193 C 188.395 212.193,190.830 212.154,190.939 211.872 C 191.032 211.630,191.422 211.551,192.524 211.551 C 193.328 211.551,194.045 211.455,194.118 211.337 C 194.190 211.219,194.629 211.123,195.093 211.123 C 195.556 211.123,195.936 211.027,195.936 210.909 C 195.936 210.791,196.273 210.695,196.684 210.695 C 197.207 210.695,197.433 210.598,197.433 210.374 C 197.433 210.150,197.659 210.053,198.182 210.053 C 198.594 210.053,198.930 209.957,198.930 209.840 C 198.930 209.722,199.130 209.626,199.374 209.626 C 199.617 209.626,199.951 209.505,200.115 209.358 C 200.823 208.724,201.065 208.556,201.274 208.556 C 201.397 208.556,201.497 208.460,201.497 208.342 C 201.497 208.225,201.654 208.128,201.846 208.128 C 202.038 208.128,202.513 207.791,202.902 207.380 C 203.290 206.968,203.669 206.631,203.744 206.631 C 203.922 206.631,204.492 206.060,204.492 205.882 C 204.492 205.660,205.083 205.134,205.332 205.134 C 205.458 205.134,205.561 204.989,205.561 204.813 C 205.561 204.636,205.658 204.492,205.775 204.492 C 205.893 204.492,205.989 204.299,205.989 204.064 C 205.989 203.829,206.077 203.636,206.185 203.636 C 206.479 203.636,207.487 201.728,207.487 201.172 C 207.487 200.906,207.631 200.632,207.807 200.564 C 207.984 200.497,208.128 200.203,208.128 199.912 C 208.128 199.622,208.225 199.324,208.342 199.251 C 208.460 199.179,208.556 198.740,208.556 198.276 C 208.556 197.813,208.652 197.433,208.770 197.433 C 208.906 197.433,208.984 195.651,208.984 192.513 C 208.984 189.376,208.906 187.594,208.770 187.594 C 208.652 187.594,208.556 187.257,208.556 186.845 C 208.556 186.433,208.460 186.096,208.342 186.096 C 208.225 186.096,208.128 185.862,208.128 185.577 C 208.128 185.291,207.984 184.913,207.807 184.736 C 207.631 184.560,207.487 184.282,207.487 184.120 C 207.487 183.957,207.294 183.617,207.059 183.365 C 206.824 183.112,206.631 182.810,206.631 182.692 C 206.631 182.575,206.390 182.239,206.096 181.945 C 205.802 181.650,205.561 181.309,205.561 181.186 C 205.561 181.063,205.461 180.963,205.338 180.963 C 205.048 180.963,204.064 179.979,204.064 179.689 C 204.064 179.566,203.941 179.465,203.791 179.465 C 203.640 179.465,203.378 179.273,203.209 179.037 C 203.039 178.802,202.681 178.610,202.413 178.610 C 202.122 178.610,201.925 178.480,201.925 178.289 C 201.925 178.112,201.806 177.968,201.660 177.968 C 201.514 177.968,201.634 177.741,201.927 177.464 C 202.741 176.693,203.422 175.849,203.422 175.613 C 203.422 175.497,203.526 175.401,203.652 175.401 C 204.029 175.401,204.492 174.820,204.492 174.347 C 204.492 174.103,204.588 173.904,204.706 173.904 C 204.824 173.904,204.920 173.756,204.920 173.576 C 204.920 173.396,205.064 173.193,205.241 173.125 C 205.417 173.058,205.561 172.772,205.561 172.490 C 205.561 172.209,205.658 171.979,205.775 171.979 C 205.893 171.979,205.989 171.750,205.989 171.470 C 205.989 171.190,206.134 170.842,206.310 170.695 C 206.505 170.534,206.631 170.065,206.631 169.505 C 206.631 168.997,206.727 168.522,206.845 168.449 C 206.973 168.370,207.059 166.950,207.059 164.907 C 207.059 162.777,206.979 161.497,206.845 161.497 C 206.727 161.497,206.631 161.061,206.631 160.528 C 206.631 159.864,206.530 159.520,206.310 159.436 C 206.112 159.360,205.989 159.035,205.989 158.587 C 205.989 158.188,205.893 157.861,205.775 157.861 C 205.658 157.861,205.561 157.625,205.561 157.337 C 205.561 157.049,205.441 156.736,205.294 156.642 C 204.963 156.430,204.492 155.607,204.492 155.241 C 204.492 155.091,204.251 154.787,203.957 154.566 C 203.663 154.345,203.422 154.033,203.422 153.871 C 203.422 153.493,201.369 151.444,200.990 151.444 C 200.831 151.444,200.521 151.203,200.300 150.909 C 200.079 150.615,199.747 150.374,199.562 150.374 C 199.377 150.374,199.038 150.201,198.810 149.989 C 198.216 149.436,197.023 148.877,196.438 148.877 C 196.162 148.877,195.936 148.781,195.936 148.663 C 195.936 148.545,195.599 148.449,195.187 148.449 C 194.664 148.449,194.439 148.352,194.439 148.128 C 194.439 147.891,194.189 147.807,193.476 147.807 C 192.947 147.807,192.513 147.711,192.513 147.594 C 192.513 147.472,191.876 147.380,191.029 147.380 C 190.212 147.380,189.484 147.283,189.412 147.166 C 189.325 147.026,182.636 146.952,170.041 146.952 L 150.802 146.952 150.802 179.572 M226.096 179.572 L 226.096 212.193 248.128 212.193 L 270.160 212.193 270.160 205.134 L 270.160 198.075 254.866 198.075 L 239.572 198.075 239.572 172.513 L 239.572 146.952 232.834 146.952 L 226.096 146.952 226.096 179.572 M347.049 147.221 C 346.992 147.370,346.971 150.474,347.002 154.120 L 347.059 160.749 357.058 160.804 L 367.057 160.860 367.111 186.473 L 367.166 212.086 373.957 212.142 L 380.749 212.199 380.749 186.527 L 380.749 160.856 390.374 160.856 L 400.000 160.856 400.000 153.904 L 400.000 146.952 373.576 146.952 C 352.525 146.952,347.131 147.007,347.049 147.221 M311.123 158.717 C 311.196 158.834,311.725 158.930,312.299 158.930 C 312.874 158.930,313.403 159.027,313.476 159.144 C 313.549 159.262,313.898 159.358,314.253 159.358 C 314.607 159.358,315.041 159.503,315.218 159.679 C 315.394 159.856,315.719 160.000,315.938 160.000 C 316.158 160.000,316.398 160.096,316.471 160.214 C 316.543 160.332,316.790 160.428,317.018 160.428 C 317.246 160.428,317.433 160.524,317.433 160.642 C 317.433 160.759,317.674 160.856,317.968 160.856 C 318.262 160.856,318.503 160.947,318.503 161.059 C 318.503 161.172,318.840 161.423,319.251 161.619 C 319.663 161.814,320.000 162.059,320.000 162.163 C 320.000 162.268,320.146 162.353,320.325 162.353 C 320.503 162.353,320.976 162.690,321.376 163.102 C 321.776 163.513,322.160 163.850,322.228 163.850 C 322.297 163.850,322.738 164.235,323.209 164.706 C 323.679 165.176,324.064 165.618,324.064 165.686 C 324.064 165.755,324.401 166.138,324.813 166.538 C 325.225 166.938,325.561 167.363,325.561 167.483 C 325.561 167.603,325.635 167.701,325.725 167.701 C 325.815 167.701,326.055 168.086,326.259 168.556 C 326.463 169.027,326.726 169.412,326.844 169.412 C 326.962 169.412,327.059 169.557,327.059 169.736 C 327.059 169.914,327.155 170.250,327.273 170.484 C 327.390 170.718,327.583 171.100,327.701 171.334 C 327.818 171.568,327.914 171.894,327.914 172.060 C 327.914 172.225,328.059 172.416,328.235 172.484 C 328.446 172.565,328.556 172.899,328.556 173.457 C 328.556 173.924,328.652 174.366,328.770 174.439 C 328.888 174.511,328.984 175.094,328.984 175.735 C 328.984 176.375,329.080 176.898,329.198 176.898 C 329.327 176.898,329.412 177.825,329.412 179.251 C 329.412 180.677,329.327 181.604,329.198 181.604 C 329.079 181.604,328.984 182.175,328.984 182.888 C 328.984 183.601,328.889 184.171,328.770 184.171 C 328.652 184.171,328.556 184.604,328.556 185.134 C 328.556 185.847,328.473 186.096,328.235 186.096 C 328.036 186.096,327.914 186.298,327.914 186.631 C 327.914 186.925,327.818 187.166,327.701 187.166 C 327.583 187.166,327.487 187.360,327.487 187.596 C 327.487 188.046,327.141 188.761,326.684 189.258 C 326.537 189.418,326.417 189.687,326.417 189.855 C 326.417 190.023,326.321 190.160,326.203 190.160 C 326.086 190.160,325.989 190.353,325.989 190.588 C 325.989 190.824,325.893 191.016,325.775 191.016 C 325.658 191.016,325.561 191.160,325.561 191.337 C 325.561 191.513,325.458 191.658,325.332 191.658 C 325.016 191.658,324.493 192.209,324.485 192.552 C 324.477 192.879,323.981 193.583,323.758 193.583 C 323.561 193.583,322.995 194.149,322.995 194.346 C 322.995 194.569,322.291 195.066,321.964 195.073 C 321.809 195.077,321.365 195.417,320.976 195.829 C 320.588 196.241,320.113 196.578,319.921 196.578 C 319.729 196.578,319.572 196.663,319.572 196.766 C 319.572 196.870,319.404 197.019,319.198 197.097 C 318.495 197.362,317.861 197.748,317.861 197.912 C 317.861 198.001,317.626 198.075,317.339 198.075 C 317.052 198.075,316.757 198.171,316.684 198.289 C 316.612 198.406,316.362 198.503,316.130 198.503 C 315.898 198.503,315.653 198.647,315.585 198.824 C 315.509 199.022,315.184 199.144,314.736 199.144 C 314.337 199.144,314.011 199.232,314.011 199.338 C 314.011 200.015,303.075 200.014,302.364 199.338 C 302.252 199.231,301.903 199.144,301.588 199.144 C 301.273 199.144,300.895 199.000,300.749 198.824 C 300.602 198.647,300.254 198.503,299.974 198.503 C 299.694 198.503,299.465 198.406,299.465 198.289 C 299.465 198.171,299.225 198.075,298.930 198.075 C 298.636 198.075,298.396 197.979,298.396 197.861 C 298.396 197.743,298.227 197.645,298.021 197.643 C 297.816 197.641,297.420 197.401,297.143 197.109 C 296.866 196.817,296.507 196.578,296.345 196.578 C 296.183 196.578,295.704 196.241,295.280 195.829 C 294.856 195.417,294.373 195.080,294.206 195.080 C 294.040 195.080,293.904 194.984,293.904 194.866 C 293.904 194.749,293.759 194.652,293.583 194.652 C 293.406 194.652,293.262 194.552,293.262 194.429 C 293.262 194.138,292.279 193.155,291.988 193.155 C 291.865 193.155,291.765 192.981,291.765 192.768 C 291.765 192.554,291.572 192.173,291.337 191.921 C 291.102 191.668,290.909 191.361,290.909 191.239 C 290.909 191.116,290.765 191.016,290.588 191.016 C 290.410 191.016,290.267 190.826,290.267 190.588 C 290.267 190.353,290.171 190.160,290.053 190.160 C 289.936 190.160,289.840 190.016,289.840 189.840 C 289.840 189.663,289.743 189.519,289.626 189.519 C 289.508 189.519,289.412 189.323,289.412 189.084 C 289.412 188.845,289.267 188.594,289.091 188.527 C 288.914 188.459,288.770 188.227,288.770 188.011 C 288.770 187.795,288.674 187.559,288.556 187.487 C 288.439 187.414,288.342 187.071,288.342 186.725 C 288.342 186.379,288.246 186.096,288.128 186.096 C 288.011 186.096,287.914 185.759,287.914 185.348 C 287.914 184.825,287.818 184.599,287.594 184.599 C 287.344 184.599,287.273 184.314,287.273 183.316 C 287.273 182.602,287.178 182.032,287.059 182.032 C 286.928 182.032,286.845 181.002,286.845 179.371 C 286.845 177.828,286.935 176.654,287.059 176.578 C 287.176 176.505,287.273 175.919,287.273 175.275 C 287.273 174.432,287.362 174.070,287.594 173.981 C 287.792 173.905,287.914 173.580,287.914 173.132 C 287.914 172.733,288.011 172.406,288.128 172.406 C 288.246 172.406,288.342 172.166,288.342 171.872 C 288.342 171.578,288.439 171.337,288.556 171.337 C 288.674 171.337,288.770 171.128,288.770 170.872 C 288.770 170.617,288.905 170.256,289.069 170.070 C 289.529 169.551,290.267 168.153,290.267 167.801 C 290.267 167.628,290.395 167.487,290.552 167.487 C 290.709 167.487,290.966 167.246,291.123 166.952 C 291.280 166.658,291.489 166.417,291.587 166.417 C 291.685 166.417,291.765 166.322,291.765 166.205 C 291.765 165.789,293.618 163.850,294.015 163.850 C 294.137 163.850,294.376 163.658,294.545 163.422 C 294.715 163.187,294.977 162.995,295.127 162.995 C 295.278 162.995,295.401 162.868,295.401 162.714 C 295.401 162.559,295.738 162.301,296.150 162.139 C 296.561 161.977,296.898 161.767,296.898 161.671 C 296.898 161.576,297.046 161.497,297.226 161.497 C 297.406 161.497,297.609 161.353,297.677 161.176 C 297.744 161.000,298.030 160.856,298.312 160.856 C 298.593 160.856,298.824 160.759,298.824 160.642 C 298.824 160.524,299.064 160.428,299.358 160.428 C 299.652 160.428,299.893 160.332,299.893 160.214 C 299.893 160.096,300.074 160.000,300.295 160.000 C 300.516 160.000,300.816 159.856,300.963 159.679 C 301.115 159.495,301.582 159.358,302.058 159.358 C 302.514 159.358,302.888 159.262,302.888 159.144 C 302.888 159.027,303.363 158.930,303.945 158.930 C 304.526 158.930,305.061 158.834,305.134 158.717 C 305.211 158.591,306.451 158.503,308.128 158.503 C 309.806 158.503,311.046 158.591,311.123 158.717 M184.599 159.679 C 184.792 159.911,185.302 160.000,186.443 160.000 C 187.353 160.000,188.021 160.091,188.021 160.214 C 188.021 160.332,188.314 160.428,188.672 160.428 C 189.070 160.428,189.548 160.636,189.900 160.963 C 190.217 161.257,190.557 161.497,190.655 161.497 C 190.894 161.497,191.444 162.060,191.444 162.305 C 191.444 162.663,192.113 163.850,192.315 163.850 C 192.424 163.850,192.513 164.765,192.513 165.882 C 192.513 167.030,192.425 167.914,192.309 167.914 C 192.197 167.914,192.042 168.251,191.964 168.663 C 191.887 169.075,191.739 169.412,191.634 169.412 C 191.529 169.412,191.444 169.512,191.444 169.635 C 191.444 169.926,190.461 170.909,190.170 170.909 C 190.047 170.909,189.947 171.053,189.947 171.230 C 189.947 171.406,189.760 171.551,189.531 171.551 C 189.303 171.551,189.057 171.647,188.984 171.765 C 188.911 171.882,188.569 171.979,188.223 171.979 C 187.877 171.979,187.594 172.075,187.594 172.193 C 187.594 172.332,183.565 172.406,175.936 172.406 L 164.278 172.406 164.278 165.882 L 164.278 159.358 174.305 159.358 C 182.958 159.358,184.369 159.402,184.599 159.679 M186.601 184.278 C 186.695 184.521,187.088 184.599,188.216 184.599 C 189.036 184.599,189.767 184.695,189.840 184.813 C 189.912 184.930,190.207 185.027,190.494 185.027 C 190.781 185.027,191.016 185.123,191.016 185.241 C 191.016 185.358,191.162 185.455,191.341 185.455 C 191.519 185.455,191.992 185.791,192.392 186.203 C 192.792 186.615,193.224 186.952,193.351 186.952 C 193.479 186.952,193.583 187.193,193.583 187.487 C 193.583 187.781,193.679 188.021,193.797 188.021 C 193.914 188.021,194.011 188.262,194.011 188.556 C 194.011 188.850,194.107 189.091,194.225 189.091 C 194.356 189.091,194.439 190.160,194.439 191.872 C 194.439 193.583,194.356 194.652,194.225 194.652 C 194.107 194.652,194.011 194.948,194.011 195.309 C 194.011 195.965,193.605 196.578,193.170 196.578 C 193.044 196.578,192.941 196.661,192.941 196.762 C 192.941 197.107,191.816 198.075,191.415 198.075 C 191.195 198.075,191.016 198.171,191.016 198.289 C 191.016 198.406,190.835 198.503,190.614 198.503 C 190.394 198.503,190.093 198.647,189.947 198.824 C 189.761 199.047,189.269 199.144,188.329 199.144 C 187.585 199.144,186.918 199.241,186.845 199.358 C 186.760 199.496,182.743 199.572,175.495 199.572 L 164.278 199.572 164.278 191.765 L 164.278 183.957 175.378 183.957 C 185.048 183.957,186.494 183.999,186.601 184.278 " stroke="none" fill="#040404" fill-rule="evenodd"></path><path id="path1" d="" stroke="none" fill="#080404" fill-rule="evenodd"></path><path id="path2" d="" stroke="none" fill="#080404" fill-rule="evenodd"></path><path id="path3" d="" stroke="none" fill="#080404" fill-rule="evenodd"></path><path id="path4" d="" stroke="none" fill="#080404" fill-rule="evenodd"></path></g></svg>