<svg id="svg" version="1.1" xmlns="http://www.w3.org/2000/svg" xmlns:xlink="http://www.w3.org/1999/xlink" width="400" height="87.27272727272728" viewBox="0, 0, 400,87.27272727272728"><g id="svgg"><path id="path0" d="M203.812 23.961 C 202.778 24.534,202.770 24.547,202.643 25.879 C 202.579 26.541,202.475 27.357,202.411 27.692 C 202.200 28.800,203.635 29.195,206.890 28.924 C 208.717 28.771,208.937 28.592,209.168 27.066 C 209.263 26.434,209.403 25.605,209.479 25.224 C 209.705 24.084,208.992 23.724,206.312 23.623 C 204.681 23.562,204.483 23.588,203.812 23.961 M87.085 25.968 C 85.757 26.082,85.590 27.382,86.599 29.755 C 86.718 30.033,86.900 30.745,87.006 31.338 C 87.111 31.931,87.264 32.754,87.346 33.167 C 87.428 33.579,87.567 34.517,87.656 35.250 C 88.054 38.535,88.183 39.238,88.478 39.728 C 88.962 40.531,89.234 42.059,89.744 46.833 C 89.876 48.071,90.165 49.683,90.386 50.417 C 90.607 51.150,90.917 52.612,91.073 53.667 C 91.483 56.423,91.682 57.336,92.028 58.035 C 92.196 58.375,92.333 58.769,92.333 58.910 C 92.333 59.051,92.390 59.167,92.458 59.167 C 92.527 59.168,92.771 59.579,93.000 60.081 C 93.406 60.970,93.440 60.998,94.327 61.183 C 95.623 61.452,99.513 61.177,99.901 60.789 C 100.054 60.637,100.408 60.378,100.689 60.214 C 100.979 60.045,101.382 59.556,101.622 59.083 C 101.854 58.625,102.256 58.073,102.515 57.856 C 102.774 57.640,103.076 57.191,103.186 56.858 C 103.410 56.179,104.301 54.667,104.476 54.667 C 104.591 54.667,104.894 54.101,105.381 52.978 C 105.525 52.645,105.862 52.120,106.129 51.811 C 106.397 51.502,106.796 50.771,107.016 50.185 C 107.236 49.599,107.618 48.916,107.864 48.667 C 108.110 48.419,108.437 47.828,108.592 47.355 C 108.747 46.882,108.939 46.454,109.020 46.404 C 109.101 46.354,109.167 46.177,109.167 46.010 C 109.167 45.843,109.378 45.491,109.636 45.228 C 109.893 44.965,110.317 44.238,110.577 43.611 C 110.837 42.985,111.296 42.177,111.598 41.816 C 111.900 41.455,112.194 40.992,112.251 40.788 C 112.615 39.499,113.414 38.298,114.157 37.925 C 116.280 36.858,116.703 37.395,117.145 41.720 C 117.237 42.621,117.377 43.446,117.455 43.554 C 117.756 43.970,118.194 45.685,118.503 47.667 C 118.610 48.354,118.777 49.329,118.873 49.833 C 118.969 50.337,119.104 51.425,119.173 52.250 C 119.242 53.075,119.420 54.350,119.567 55.083 C 119.984 57.148,120.167 58.236,120.167 58.646 C 120.167 58.937,120.724 60.512,120.929 60.803 C 121.250 61.256,125.651 61.482,127.000 61.115 C 127.962 60.853,128.148 60.725,128.740 59.917 C 129.009 59.550,129.424 59.058,129.662 58.824 C 130.165 58.331,130.833 57.247,130.833 56.927 C 130.833 56.806,131.120 56.411,131.471 56.049 C 131.822 55.688,132.254 55.042,132.430 54.613 C 132.606 54.185,132.806 53.834,132.875 53.834 C 132.944 53.834,133.000 53.735,133.000 53.615 C 133.000 53.494,133.228 53.177,133.506 52.911 C 134.007 52.430,134.498 51.619,134.502 51.266 C 134.503 51.166,134.802 50.708,135.167 50.250 C 135.531 49.792,135.831 49.357,135.832 49.284 C 135.834 49.082,137.009 47.285,137.325 47.000 C 137.477 46.862,137.703 46.487,137.827 46.167 C 138.038 45.622,138.752 44.522,139.016 44.333 C 139.160 44.231,140.167 42.050,140.167 41.841 C 140.167 41.759,140.339 41.554,140.550 41.387 C 140.761 41.220,141.239 40.446,141.612 39.667 C 141.984 38.887,142.449 38.107,142.645 37.933 C 142.840 37.758,143.000 37.551,143.000 37.472 C 143.000 37.118,143.793 35.667,144.448 34.823 C 144.843 34.313,145.168 33.788,145.170 33.656 C 145.177 33.246,145.822 31.965,146.179 31.656 C 146.366 31.493,146.735 30.848,146.998 30.222 C 147.262 29.596,147.659 28.896,147.882 28.667 C 148.104 28.438,148.421 27.816,148.584 27.286 C 149.008 25.917,148.966 25.898,145.614 25.934 C 142.763 25.964,142.382 26.039,141.583 26.732 C 141.308 26.971,141.027 27.166,140.958 27.166 C 140.890 27.167,140.833 27.239,140.833 27.328 C 140.833 27.664,139.980 29.339,139.622 29.703 C 139.254 30.080,138.333 31.824,138.333 32.147 C 138.333 32.391,137.656 33.500,137.507 33.500 C 137.438 33.500,137.203 33.912,136.985 34.417 C 136.767 34.921,136.532 35.333,136.461 35.333 C 136.391 35.333,136.333 35.447,136.333 35.585 C 136.333 35.723,136.118 36.061,135.855 36.337 C 135.592 36.612,135.248 37.192,135.090 37.627 C 134.596 38.982,134.337 39.475,133.827 40.034 C 133.556 40.331,133.333 40.675,133.333 40.798 C 133.333 41.114,132.325 43.167,132.170 43.167 C 132.054 43.167,131.407 44.384,130.929 45.500 C 130.831 45.729,130.709 45.954,130.659 46.000 C 130.326 46.302,129.823 47.240,129.499 48.161 C 129.030 49.493,128.572 49.885,127.340 50.010 C 125.809 50.165,125.356 49.561,125.149 47.083 C 124.964 44.870,124.712 43.152,124.450 42.320 C 123.864 40.459,123.683 39.630,123.508 38.000 C 123.219 35.312,122.999 34.002,122.669 33.000 C 122.503 32.496,122.285 31.577,122.184 30.958 C 122.083 30.340,121.918 29.327,121.818 28.708 C 121.381 25.998,121.427 26.027,117.417 25.988 C 113.993 25.955,113.802 26.013,113.141 27.275 C 112.834 27.861,112.301 28.650,111.955 29.028 C 111.610 29.406,111.279 29.908,111.220 30.144 C 111.075 30.722,110.535 31.618,110.271 31.719 C 110.153 31.764,109.837 32.378,109.570 33.083 C 109.273 33.866,108.873 34.569,108.543 34.891 C 108.247 35.180,108.003 35.508,108.002 35.620 C 107.998 36.070,107.131 37.749,106.600 38.337 C 106.289 38.681,105.980 39.215,105.914 39.523 C 105.751 40.274,105.186 41.369,104.831 41.619 C 104.673 41.731,104.372 42.256,104.163 42.786 C 103.954 43.316,103.540 44.012,103.243 44.333 C 102.937 44.664,102.547 45.385,102.342 46.000 C 101.987 47.061,101.386 48.334,101.162 48.500 C 101.101 48.546,100.963 48.749,100.856 48.952 C 100.749 49.155,100.329 49.550,99.923 49.829 L 99.184 50.338 98.483 49.944 C 97.537 49.413,97.066 48.532,96.947 47.074 C 96.895 46.437,96.773 45.542,96.675 45.083 C 96.578 44.625,96.349 43.200,96.167 41.917 C 95.646 38.250,95.394 36.862,94.957 35.250 C 94.542 33.719,94.175 31.423,94.156 30.241 C 94.139 29.179,93.779 27.788,93.375 27.223 C 93.169 26.935,93.000 26.624,93.000 26.532 C 93.000 26.070,89.628 25.748,87.085 25.968 M174.055 25.997 L 158.527 26.083 158.128 26.458 C 157.908 26.665,157.667 26.833,157.592 26.833 C 157.382 26.833,156.698 27.684,156.395 28.321 C 156.245 28.635,155.946 29.069,155.730 29.285 C 155.514 29.501,155.293 29.882,155.240 30.131 C 155.102 30.775,154.876 31.935,154.682 33.000 C 154.210 35.591,154.083 36.139,153.803 36.776 C 153.635 37.157,153.458 37.945,153.410 38.526 C 153.162 41.489,152.697 44.185,152.144 45.865 C 151.881 46.662,151.667 47.612,151.667 47.977 C 151.667 48.343,151.595 49.003,151.507 49.446 C 151.419 49.888,151.224 51.188,151.072 52.333 C 150.920 53.479,150.580 55.068,150.315 55.865 C 149.615 57.970,149.647 58.968,150.436 59.695 C 150.768 60.000,151.218 60.438,151.438 60.667 L 151.836 61.083 168.210 61.167 C 177.346 61.213,184.698 61.186,184.842 61.105 C 185.329 60.833,185.747 57.061,185.411 55.970 C 185.113 55.000,185.899 55.053,171.911 55.069 C 158.120 55.084,158.546 55.109,157.847 54.267 C 157.482 53.826,157.366 52.027,157.574 50.000 C 157.938 46.439,156.729 46.755,170.083 46.725 C 181.986 46.699,181.749 46.718,182.120 45.739 C 182.256 45.378,182.508 44.708,182.678 44.250 C 182.885 43.695,182.991 42.963,182.995 42.056 L 183.000 40.696 181.966 40.556 C 181.397 40.479,180.012 40.457,178.889 40.506 C 177.330 40.575,167.592 40.575,161.388 40.506 C 159.492 40.485,159.136 36.282,160.868 34.365 C 161.205 33.992,161.594 33.468,161.732 33.201 C 162.347 32.013,161.420 32.087,176.155 32.052 C 183.435 32.035,189.554 31.981,189.751 31.931 C 191.127 31.586,191.174 25.623,189.799 25.872 C 189.680 25.894,182.596 25.950,174.055 25.997 M227.260 27.518 C 226.194 27.691,226.000 28.042,225.737 30.269 C 225.370 33.367,225.106 34.749,224.660 35.917 C 224.589 36.100,224.442 36.925,224.332 37.750 C 224.223 38.575,224.062 39.681,223.976 40.208 C 223.890 40.735,223.752 41.749,223.671 42.461 C 223.590 43.174,223.339 44.318,223.114 45.003 C 222.702 46.255,222.633 46.649,222.336 49.417 C 222.043 52.151,221.788 53.558,221.249 55.417 C 220.961 56.412,220.854 56.980,220.517 59.302 C 220.419 59.973,220.305 60.578,220.262 60.647 C 220.220 60.716,220.296 61.067,220.432 61.428 C 220.568 61.788,220.725 62.225,220.781 62.398 C 220.877 62.689,221.012 62.704,222.592 62.602 C 225.299 62.427,250.020 62.481,250.985 62.664 C 251.716 62.803,251.920 62.779,252.424 62.496 C 252.746 62.315,253.126 62.167,253.269 62.167 C 253.529 62.167,254.822 61.203,255.390 60.584 C 255.672 60.278,256.667 58.322,256.667 58.074 C 256.667 58.016,256.802 57.769,256.968 57.526 C 257.388 56.908,257.593 55.942,258.268 51.417 C 258.670 48.715,258.754 48.284,258.947 47.917 C 259.262 47.318,259.833 43.515,259.833 42.018 C 259.833 41.467,259.954 40.581,260.102 40.050 C 260.250 39.518,260.429 38.671,260.499 38.167 C 260.569 37.662,260.724 36.912,260.845 36.500 C 260.985 36.021,261.068 34.753,261.074 32.986 L 261.083 30.222 260.544 29.608 C 260.247 29.270,259.958 28.809,259.902 28.583 C 259.622 27.467,260.411 27.520,243.307 27.466 C 234.821 27.439,227.600 27.462,227.260 27.518 M292.167 27.489 L 276.917 27.583 276.250 27.974 C 274.922 28.752,273.575 31.084,273.011 33.583 C 272.803 34.500,272.521 35.662,272.384 36.167 C 271.812 38.266,271.156 42.562,271.163 44.157 C 271.168 45.093,270.898 46.538,270.395 48.272 C 270.178 49.017,269.923 50.292,269.827 51.105 C 269.731 51.918,269.590 52.996,269.512 53.500 C 269.435 54.004,269.285 55.037,269.180 55.796 C 269.075 56.554,268.906 57.379,268.805 57.629 C 268.704 57.879,268.624 58.685,268.626 59.421 L 268.632 60.759 269.317 61.444 C 269.709 61.837,270.232 62.176,270.542 62.239 C 272.050 62.544,273.928 62.678,275.500 62.591 C 278.206 62.441,301.328 62.488,302.111 62.644 C 303.275 62.877,304.645 60.714,304.791 58.413 C 304.915 56.450,306.288 56.634,291.649 56.658 C 278.315 56.681,277.487 56.641,276.713 55.948 C 275.995 55.306,275.772 54.338,275.889 52.369 C 276.057 49.549,276.426 48.812,277.917 48.318 C 278.283 48.197,278.664 48.040,278.762 47.969 C 278.860 47.899,280.885 47.923,283.262 48.023 C 289.512 48.285,298.977 48.131,300.109 47.749 C 301.398 47.315,302.375 43.425,301.456 42.389 L 301.135 42.029 290.943 42.104 C 280.076 42.184,279.643 42.158,278.874 41.389 C 278.248 40.764,278.183 39.309,278.730 38.176 C 278.970 37.678,279.251 36.817,279.354 36.261 C 279.814 33.781,280.203 33.456,283.042 33.177 C 284.202 33.063,285.226 33.017,285.319 33.075 C 285.413 33.132,290.632 33.201,296.919 33.227 L 308.348 33.274 308.924 32.490 C 309.405 31.834,309.500 31.564,309.500 30.845 C 309.500 30.325,309.632 29.710,309.833 29.294 C 310.286 28.358,310.255 28.135,309.624 27.775 C 308.911 27.369,309.630 27.381,292.167 27.489 M252.583 33.631 C 254.117 34.609,254.580 36.048,253.991 38.001 C 253.838 38.509,253.589 40.525,253.003 46.000 C 252.713 48.715,252.429 50.232,252.142 50.601 C 252.063 50.703,251.860 51.190,251.690 51.685 C 249.903 56.891,250.510 56.667,238.247 56.667 C 228.843 56.667,228.642 56.651,227.792 55.863 C 227.172 55.288,227.163 54.117,227.766 52.545 C 228.257 51.266,228.667 49.516,228.667 48.701 C 228.667 48.173,228.975 45.938,229.361 43.667 C 229.463 43.071,229.679 42.283,229.841 41.917 C 230.138 41.248,230.217 40.795,230.498 38.167 C 230.870 34.690,231.269 34.039,233.500 33.272 C 233.637 33.224,237.838 33.190,242.833 33.196 L 251.917 33.206 252.583 33.631 M203.783 33.624 L 202.649 33.682 202.003 34.682 C 201.406 35.605,201.089 36.488,200.901 37.750 C 200.439 40.854,200.217 42.561,199.991 44.750 C 199.809 46.506,199.642 47.360,199.336 48.083 C 199.027 48.813,198.666 50.705,198.661 51.618 C 198.653 53.194,198.046 57.184,197.616 58.500 C 196.766 61.094,197.010 61.356,200.375 61.464 C 203.153 61.553,203.423 61.448,203.578 60.211 C 203.632 59.774,203.792 58.969,203.933 58.421 C 204.204 57.368,204.682 54.975,204.984 53.167 C 205.390 50.729,205.500 49.847,205.500 49.018 C 205.500 48.540,205.569 47.833,205.653 47.449 C 205.737 47.064,205.900 46.300,206.014 45.750 C 206.129 45.200,206.290 44.661,206.372 44.553 C 206.580 44.280,206.898 42.094,207.338 37.917 C 207.425 37.092,207.544 36.204,207.603 35.944 C 207.737 35.359,207.374 34.182,206.940 33.792 C 206.608 33.493,206.464 33.485,203.783 33.624 " stroke="none" fill="#1f1d19" fill-rule="evenodd"></path><path id="path1" d="M0.000 43.583 L 0.000 87.167 200.000 87.167 L 400.000 87.167 400.000 43.583 L 400.000 0.000 200.000 0.000 L 0.000 0.000 0.000 43.583 M207.317 21.681 C 208.967 21.789,210.123 21.938,210.234 22.056 C 211.416 23.319,211.617 24.876,210.970 27.750 C 210.747 28.740,210.056 29.508,209.083 29.849 C 208.717 29.978,208.335 30.160,208.234 30.254 C 208.034 30.441,206.370 30.730,204.167 30.961 L 202.750 31.110 201.959 30.329 C 201.041 29.423,201.010 29.239,201.234 26.000 C 201.412 23.421,202.077 22.286,203.750 21.701 C 204.403 21.473,204.182 21.474,207.317 21.681 M150.125 25.108 C 150.980 26.004,151.026 26.486,150.333 27.275 C 150.058 27.589,149.833 27.989,149.833 28.165 C 149.833 28.703,149.464 29.388,148.835 30.015 C 148.399 30.450,148.147 30.923,147.910 31.751 C 147.671 32.587,147.397 33.097,146.876 33.677 C 146.486 34.111,146.167 34.549,146.167 34.652 C 146.167 34.754,146.098 34.968,146.014 35.127 C 145.930 35.286,145.770 35.662,145.659 35.962 C 145.548 36.261,145.259 36.674,145.018 36.878 C 144.776 37.083,144.469 37.587,144.335 38.000 C 144.002 39.022,143.365 40.138,143.004 40.331 C 142.839 40.419,142.654 40.699,142.591 40.954 C 142.389 41.775,141.621 43.135,141.245 43.336 C 141.003 43.465,140.748 43.925,140.492 44.690 C 140.280 45.327,139.913 46.057,139.678 46.312 C 139.145 46.890,138.945 47.201,138.434 48.250 C 138.210 48.708,137.796 49.296,137.514 49.556 C 137.231 49.816,137.000 50.147,137.000 50.291 C 137.000 50.628,136.204 52.000,135.804 52.353 C 135.636 52.502,135.272 53.123,134.995 53.734 C 134.672 54.447,134.348 54.910,134.090 55.027 C 133.870 55.128,133.602 55.444,133.494 55.730 C 133.124 56.718,132.915 57.086,132.389 57.667 C 131.524 58.622,131.167 59.122,131.167 59.377 C 131.167 59.656,130.429 60.500,130.185 60.500 C 130.095 60.500,129.824 60.862,129.583 61.304 C 128.930 62.504,128.606 62.583,124.500 62.540 C 120.369 62.497,120.077 62.413,119.496 61.110 C 119.285 60.637,118.956 60.090,118.764 59.894 C 118.123 59.236,117.673 56.132,117.663 52.289 C 117.658 50.590,117.484 49.590,117.018 48.583 C 116.252 46.930,116.259 46.966,115.771 42.460 C 115.531 40.243,115.540 40.263,114.929 40.495 C 114.681 40.590,114.301 40.667,114.084 40.667 C 113.741 40.667,113.641 40.823,113.310 41.875 C 113.101 42.540,112.796 43.229,112.632 43.406 C 112.468 43.584,112.333 43.790,112.333 43.865 C 112.333 43.939,112.222 44.000,112.087 44.000 C 111.951 44.000,111.788 44.206,111.725 44.458 C 111.504 45.343,110.803 46.755,110.338 47.250 C 110.080 47.526,109.748 48.179,109.598 48.705 C 109.415 49.348,109.118 49.879,108.690 50.329 C 108.340 50.696,107.959 51.317,107.843 51.707 C 107.555 52.678,107.246 53.228,106.662 53.812 C 106.390 54.085,106.167 54.412,106.167 54.539 C 106.167 54.987,105.363 56.431,104.934 56.753 C 104.695 56.933,104.500 57.168,104.500 57.276 C 104.500 57.708,103.836 58.951,103.296 59.531 C 102.982 59.869,102.548 60.478,102.332 60.885 C 101.950 61.604,101.574 61.881,100.348 62.347 C 99.451 62.688,93.410 62.639,92.750 62.286 C 92.300 62.045,91.542 61.373,91.075 60.799 C 90.830 60.498,90.167 57.844,90.167 57.164 C 90.167 56.969,90.057 56.700,89.924 56.566 C 89.583 56.226,89.217 54.846,88.999 53.083 C 88.898 52.258,88.706 50.819,88.574 49.886 C 88.442 48.952,88.333 47.688,88.333 47.076 C 88.333 46.203,88.231 45.745,87.857 44.940 C 87.416 43.993,87.239 43.114,86.913 40.250 C 86.569 37.219,86.497 36.859,86.078 36.051 C 85.567 35.065,85.175 33.086,85.170 31.466 C 85.167 30.295,84.825 28.693,84.452 28.100 C 84.331 27.907,84.131 27.431,84.006 27.042 L 83.780 26.333 84.515 25.390 C 85.552 24.059,86.186 23.762,87.488 23.998 C 88.100 24.109,89.148 24.137,90.132 24.070 C 91.590 23.969,91.838 23.995,92.495 24.312 C 92.899 24.507,93.324 24.667,93.440 24.667 C 94.491 24.667,95.051 25.685,95.319 28.083 C 95.431 29.092,95.696 30.404,95.906 31.000 C 96.445 32.527,96.617 33.442,96.830 35.917 C 97.053 38.498,97.263 39.712,97.624 40.500 C 98.006 41.334,98.476 43.867,98.749 46.571 C 98.936 48.420,99.117 48.599,99.646 47.458 C 99.826 47.069,100.242 46.451,100.570 46.085 C 100.898 45.720,101.284 45.045,101.428 44.585 C 101.798 43.408,102.010 43.019,102.342 42.914 C 102.501 42.863,102.721 42.581,102.831 42.286 C 103.594 40.238,103.870 39.717,104.338 39.440 C 104.670 39.244,104.833 39.015,104.833 38.746 C 104.833 38.099,105.624 36.553,106.145 36.182 C 106.428 35.981,106.667 35.624,106.730 35.309 C 106.891 34.505,107.664 33.024,107.975 32.923 C 108.291 32.820,108.667 32.095,108.667 31.587 C 108.667 31.200,108.992 30.662,109.676 29.917 C 109.929 29.642,110.333 28.853,110.575 28.164 C 111.037 26.850,112.770 24.667,113.351 24.667 C 113.494 24.667,113.665 24.613,113.730 24.547 C 114.336 23.942,120.588 23.885,121.545 24.476 C 123.036 25.398,123.446 26.287,123.902 29.583 C 124.055 30.683,124.251 32.091,124.340 32.711 C 124.428 33.332,124.500 34.012,124.500 34.222 C 124.500 34.432,124.638 34.899,124.806 35.260 C 125.278 36.273,125.475 37.383,126.086 42.474 C 126.222 43.605,126.333 44.960,126.333 45.485 C 126.333 46.480,126.487 46.724,127.468 47.292 C 128.063 47.636,128.269 47.535,128.493 46.792 C 128.891 45.465,129.074 45.086,129.596 44.501 C 129.884 44.180,130.357 43.314,130.649 42.578 C 131.008 41.672,131.298 41.188,131.547 41.078 C 131.749 40.989,131.937 40.767,131.964 40.583 C 132.009 40.282,132.435 39.182,132.882 38.211 C 132.976 38.006,133.186 37.797,133.349 37.745 C 133.512 37.693,133.769 37.300,133.921 36.867 C 134.072 36.436,134.265 35.953,134.348 35.794 C 134.432 35.635,134.500 35.400,134.500 35.272 C 134.500 35.145,134.800 34.731,135.167 34.353 C 135.562 33.946,135.833 33.506,135.833 33.273 C 135.833 32.888,136.336 32.030,137.087 31.134 C 137.294 30.887,137.594 30.268,137.755 29.759 C 138.013 28.936,138.674 28.000,138.996 28.000 C 139.061 28.000,139.214 27.681,139.336 27.292 C 139.788 25.855,140.372 25.000,140.900 25.000 C 141.036 25.000,141.193 24.925,141.250 24.833 C 141.307 24.742,141.501 24.667,141.682 24.667 C 141.864 24.667,142.178 24.561,142.381 24.433 C 142.892 24.108,144.223 23.978,145.433 24.135 C 145.992 24.207,146.554 24.214,146.683 24.149 C 147.916 23.534,148.879 23.802,150.125 25.108 M191.250 24.552 C 192.134 25.006,192.667 25.517,192.667 25.909 C 192.667 26.040,192.726 26.184,192.798 26.228 C 192.973 26.336,192.719 29.423,192.503 29.828 C 192.410 30.002,192.333 30.309,192.333 30.510 C 192.333 31.232,191.513 32.735,190.883 33.167 L 190.274 33.583 177.846 33.613 C 171.010 33.629,165.187 33.648,164.906 33.654 C 164.626 33.661,164.251 33.801,164.073 33.965 C 163.895 34.128,163.525 34.357,163.250 34.472 C 161.902 35.039,161.336 37.891,162.354 38.983 C 162.671 39.324,162.734 39.326,172.612 39.233 C 178.078 39.181,182.800 39.186,183.106 39.243 C 183.931 39.398,185.285 40.772,185.025 41.191 C 184.920 41.361,184.766 41.631,184.684 41.792 C 184.469 42.214,184.167 44.349,184.166 45.461 C 184.164 46.454,183.865 47.130,183.228 47.576 C 182.628 47.996,180.917 48.064,170.663 48.074 L 160.410 48.083 159.915 48.542 C 159.643 48.794,159.375 49.000,159.320 49.000 C 159.059 49.000,158.833 49.967,158.833 51.083 C 158.833 53.961,158.315 53.847,171.204 53.809 C 176.913 53.792,182.261 53.735,183.090 53.681 C 186.563 53.456,187.827 54.371,187.603 56.952 C 187.542 57.666,187.444 58.837,187.388 59.554 C 187.278 60.931,186.784 61.736,185.686 62.323 C 185.043 62.667,151.910 62.580,150.710 62.231 C 149.067 61.754,148.304 60.156,148.528 57.667 C 148.599 56.887,148.734 55.387,148.830 54.333 C 149.068 51.703,149.288 50.654,149.880 49.312 C 150.016 49.003,150.210 48.038,150.311 47.167 C 150.412 46.296,150.578 44.871,150.680 44.000 C 150.781 43.129,150.961 42.079,151.078 41.667 C 151.624 39.755,151.734 39.406,151.842 39.250 C 151.906 39.158,152.005 38.558,152.064 37.917 C 152.122 37.275,152.207 36.450,152.253 36.083 C 152.299 35.717,152.416 34.779,152.513 34.000 C 152.740 32.169,152.985 31.348,153.454 30.835 C 153.663 30.607,153.833 30.263,153.833 30.071 C 153.833 29.177,154.527 27.574,155.175 26.971 C 155.537 26.635,155.833 26.282,155.833 26.188 C 155.833 25.750,157.749 24.676,158.542 24.669 C 158.702 24.668,158.833 24.598,158.833 24.515 C 158.833 24.120,161.688 24.047,175.667 24.084 L 190.417 24.124 191.250 24.552 M258.644 25.596 C 258.952 25.647,259.368 25.853,259.568 26.053 C 259.768 26.253,260.353 26.776,260.868 27.216 C 261.446 27.710,261.906 28.273,262.074 28.691 C 262.678 30.201,262.545 37.691,261.843 41.667 C 261.534 43.417,261.399 43.935,260.996 44.917 C 260.813 45.365,260.678 46.516,260.321 50.667 C 260.126 52.940,259.852 54.269,259.446 54.903 C 259.148 55.368,258.667 56.887,258.667 57.360 C 258.667 58.366,258.231 59.568,257.625 60.232 C 257.281 60.608,257.000 61.034,257.000 61.178 C 257.000 61.486,256.135 62.500,255.872 62.500 C 255.772 62.500,255.554 62.669,255.387 62.876 C 254.863 63.524,254.269 63.795,252.924 63.999 C 251.332 64.240,221.090 64.208,220.167 63.964 C 218.421 63.503,218.106 63.103,218.214 61.484 C 218.291 60.321,218.438 59.846,218.931 59.167 C 219.210 58.783,219.459 57.307,219.663 54.833 C 219.896 52.008,220.099 50.962,220.615 49.940 C 221.026 49.127,221.084 48.765,221.493 44.500 C 221.759 41.723,221.974 40.552,222.439 39.352 C 222.700 38.676,222.907 37.672,223.006 36.602 C 223.340 33.005,223.753 29.898,223.997 29.167 C 224.284 28.304,225.156 26.603,225.589 26.059 L 225.968 25.583 239.692 25.500 C 253.774 25.414,257.665 25.434,258.644 25.596 M310.457 25.629 C 311.442 26.484,311.967 28.438,311.506 29.534 C 311.417 29.744,311.279 30.718,311.198 31.698 C 310.905 35.254,312.107 34.999,295.627 35.003 C 280.406 35.005,281.005 34.957,280.791 36.192 C 280.410 38.392,280.376 39.083,280.621 39.620 L 280.867 40.157 291.278 40.089 L 301.689 40.022 302.588 40.900 C 303.740 42.025,303.886 42.407,303.659 43.723 C 303.562 44.288,303.426 45.125,303.358 45.583 C 303.289 46.042,303.106 46.672,302.950 46.984 C 302.794 47.296,302.666 47.671,302.666 47.817 C 302.665 48.287,302.044 49.120,301.489 49.397 C 301.008 49.637,299.734 49.667,289.840 49.667 C 277.376 49.667,278.275 49.566,277.985 51.000 C 277.675 52.532,277.547 53.070,277.420 53.374 C 277.335 53.576,277.392 53.698,277.608 53.778 C 277.778 53.841,277.954 53.937,278.000 53.992 C 278.577 54.679,278.316 54.667,291.808 54.667 L 304.627 54.667 305.160 55.208 C 306.202 56.268,306.318 56.979,305.977 60.245 C 305.533 64.489,307.180 64.146,287.188 64.159 C 267.811 64.172,268.069 64.201,267.154 61.917 C 266.522 60.339,267.320 51.949,268.161 51.333 C 268.324 51.213,268.733 48.056,269.163 43.583 C 269.233 42.850,269.345 42.100,269.411 41.917 C 269.590 41.418,269.854 40.786,270.019 40.461 C 270.100 40.301,270.167 39.933,270.167 39.641 C 270.167 39.349,270.236 38.654,270.320 38.097 C 270.405 37.539,270.567 36.333,270.680 35.417 C 270.904 33.604,271.129 32.903,271.632 32.448 C 271.819 32.279,272.048 31.715,272.171 31.119 C 272.448 29.776,272.919 28.766,273.384 28.517 C 273.588 28.408,273.904 28.046,274.086 27.712 C 274.304 27.311,274.700 26.958,275.250 26.674 C 275.708 26.437,276.255 26.095,276.464 25.913 C 276.835 25.591,277.200 25.581,292.297 25.499 C 300.796 25.452,308.282 25.396,308.933 25.374 C 309.867 25.342,310.187 25.396,310.457 25.629 M208.500 32.401 C 209.358 32.709,209.838 33.495,209.653 34.291 C 209.573 34.635,209.506 35.288,209.504 35.741 C 209.494 37.801,208.905 40.747,208.302 41.750 C 208.090 42.103,208.001 42.589,208.001 43.403 C 208.000 44.037,207.930 45.012,207.845 45.570 C 207.760 46.127,207.604 47.558,207.499 48.750 C 207.261 51.448,206.939 52.819,206.458 53.177 C 206.306 53.290,205.837 56.941,205.835 58.029 C 205.833 58.952,205.549 60.384,205.230 61.083 C 204.563 62.542,203.905 62.764,200.135 62.804 C 195.809 62.850,195.666 62.697,195.978 58.358 C 196.170 55.676,196.358 54.684,197.008 52.917 C 197.176 52.458,197.393 51.408,197.490 50.583 C 197.909 47.026,197.999 46.015,198.000 44.883 C 198.000 43.283,198.536 40.810,199.003 40.246 C 199.085 40.148,199.229 39.358,199.324 38.492 C 200.025 32.077,199.895 32.222,205.000 32.203 C 206.945 32.196,208.111 32.262,208.500 32.401 M233.292 35.232 C 233.131 35.354,233.000 35.590,233.000 35.757 C 233.000 36.181,232.627 37.167,232.467 37.167 C 232.393 37.167,232.333 37.308,232.333 37.480 C 232.333 37.652,232.222 38.059,232.086 38.384 C 231.950 38.709,231.768 39.674,231.681 40.529 C 231.594 41.384,231.447 42.571,231.355 43.167 C 231.264 43.762,231.106 44.912,231.004 45.721 C 230.903 46.530,230.759 47.318,230.684 47.471 C 230.609 47.625,230.418 47.997,230.260 48.299 C 230.102 48.601,229.901 49.538,229.814 50.382 C 229.727 51.226,229.612 52.335,229.558 52.846 C 229.486 53.516,229.530 53.911,229.714 54.263 L 229.970 54.750 238.610 54.698 C 243.362 54.670,247.491 54.606,247.785 54.556 C 248.340 54.462,249.167 53.591,249.167 53.100 C 249.167 52.960,249.381 52.599,249.642 52.297 C 250.185 51.672,250.261 51.408,250.591 49.000 C 250.983 46.147,251.174 45.121,251.448 44.417 C 251.590 44.050,251.764 43.600,251.835 43.417 C 252.297 42.212,252.506 35.649,252.095 35.238 C 251.754 34.897,233.741 34.891,233.292 35.232 " stroke="none" fill="#fbfbfb" fill-rule="evenodd"></path><path id="path2" d="M203.553 22.756 C 202.162 23.544,201.906 24.013,201.739 26.083 C 201.439 29.790,201.936 30.227,206.000 29.832 C 209.573 29.485,209.791 29.311,210.589 26.167 C 211.019 24.471,210.653 23.240,209.609 22.868 C 209.187 22.718,205.278 22.159,204.723 22.169 C 204.646 22.171,204.120 22.435,203.553 22.756 M207.250 22.829 C 210.250 23.102,210.879 23.796,210.229 26.117 C 210.081 26.648,209.922 27.334,209.876 27.639 C 209.750 28.489,208.884 29.257,207.895 29.397 C 203.281 30.050,201.398 29.479,201.842 27.564 C 201.924 27.208,201.994 26.422,201.996 25.816 C 202.001 24.490,202.370 23.836,203.500 23.149 C 204.343 22.636,204.748 22.602,207.250 22.829 M85.984 24.956 C 85.746 25.103,85.378 25.476,85.167 25.784 L 84.782 26.346 85.064 27.798 C 85.220 28.597,85.488 30.150,85.661 31.250 C 85.834 32.350,86.123 33.662,86.303 34.167 C 86.640 35.107,86.856 36.144,87.171 38.333 C 87.429 40.122,87.643 41.273,87.931 42.417 C 88.070 42.967,88.329 44.003,88.508 44.719 C 88.687 45.435,88.836 46.410,88.839 46.886 C 88.846 48.138,89.427 51.909,89.843 53.417 C 89.945 53.783,90.088 54.421,90.161 54.833 C 90.284 55.525,90.498 56.532,90.834 58.000 C 91.047 58.933,91.374 59.695,91.906 60.500 C 92.947 62.077,93.197 62.167,96.563 62.167 C 100.281 62.167,101.402 61.688,102.339 59.698 C 102.525 59.303,102.920 58.768,103.216 58.508 C 103.511 58.248,103.854 57.746,103.978 57.393 C 104.101 57.039,104.425 56.465,104.698 56.118 C 104.971 55.770,105.422 54.983,105.700 54.369 C 105.978 53.756,106.328 53.167,106.478 53.060 C 106.756 52.862,106.967 52.479,107.734 50.782 C 107.975 50.250,108.329 49.650,108.522 49.449 C 108.715 49.248,108.983 48.821,109.119 48.500 C 109.645 47.254,109.911 46.726,110.334 46.083 C 110.576 45.717,110.877 45.154,111.004 44.833 C 111.130 44.512,111.545 43.800,111.926 43.250 C 112.306 42.700,112.722 41.950,112.849 41.583 C 113.209 40.546,113.657 39.859,114.054 39.736 C 114.253 39.674,114.616 39.483,114.859 39.311 C 115.102 39.140,115.378 39.000,115.472 39.000 C 115.737 39.000,116.167 40.696,116.167 41.741 C 116.167 42.258,116.281 43.184,116.422 43.799 C 116.562 44.414,116.756 45.292,116.853 45.750 C 116.950 46.208,117.172 46.901,117.348 47.290 C 117.523 47.678,117.667 48.180,117.667 48.404 C 117.667 48.628,117.733 48.987,117.815 49.201 C 117.896 49.416,118.050 50.977,118.156 52.671 C 118.370 56.092,118.613 57.970,118.885 58.306 C 119.048 58.509,119.551 59.764,119.792 60.572 C 120.147 61.761,120.923 62.038,124.167 62.129 C 127.273 62.216,128.089 62.078,128.793 61.342 C 129.709 60.385,130.500 59.493,130.500 59.417 C 130.500 59.289,131.681 57.484,132.271 56.711 C 132.575 56.313,132.955 55.708,133.114 55.368 C 133.274 55.028,133.607 54.531,133.855 54.262 C 134.103 53.994,134.540 53.308,134.827 52.738 C 135.113 52.169,135.532 51.488,135.758 51.226 C 135.983 50.964,136.374 50.356,136.626 49.875 C 136.877 49.394,137.140 49.001,137.208 49.000 C 137.277 49.000,137.333 48.922,137.333 48.826 C 137.333 48.731,137.479 48.496,137.658 48.304 C 137.836 48.113,138.187 47.535,138.437 47.020 C 138.687 46.505,139.029 45.962,139.197 45.813 C 139.365 45.664,139.808 44.880,140.182 44.070 C 140.557 43.260,141.031 42.444,141.236 42.257 C 141.441 42.070,141.892 41.333,142.238 40.620 C 142.584 39.907,142.965 39.226,143.084 39.107 C 143.203 38.988,143.530 38.399,143.811 37.799 C 144.091 37.198,144.498 36.492,144.714 36.228 C 144.930 35.965,145.385 35.188,145.726 34.500 C 146.066 33.813,146.560 32.950,146.822 32.583 C 147.084 32.217,147.453 31.446,147.642 30.871 C 147.976 29.852,148.311 29.333,148.636 29.333 C 148.945 29.333,150.007 26.602,149.864 26.174 C 149.819 26.041,149.644 25.783,149.475 25.601 C 149.305 25.419,149.167 25.228,149.167 25.176 C 149.167 24.860,148.109 24.642,147.418 24.816 C 147.015 24.917,145.732 25.000,144.567 25.000 C 141.448 25.000,140.624 25.431,139.820 27.481 C 139.618 27.996,139.241 28.624,138.983 28.877 C 138.725 29.130,138.406 29.580,138.274 29.877 C 138.142 30.174,137.863 30.810,137.654 31.292 C 137.445 31.773,137.226 32.167,137.167 32.167 C 137.108 32.167,136.774 32.705,136.424 33.363 C 136.074 34.021,135.498 35.008,135.144 35.555 C 134.790 36.103,134.500 36.644,134.500 36.757 C 134.500 37.020,134.213 37.559,133.572 38.500 C 133.291 38.912,132.944 39.512,132.800 39.833 C 132.093 41.416,131.904 41.776,131.618 42.083 C 131.337 42.386,130.500 44.031,130.500 44.281 C 130.500 44.338,130.294 44.654,130.042 44.983 C 129.540 45.636,129.167 46.290,129.167 46.514 C 129.167 46.593,128.970 47.072,128.730 47.579 L 128.294 48.500 127.317 48.500 C 126.385 48.500,126.335 48.479,126.244 48.042 C 126.191 47.790,126.077 47.269,125.990 46.885 C 125.904 46.500,125.833 45.717,125.833 45.145 C 125.833 44.572,125.762 43.686,125.674 43.177 C 125.586 42.667,125.429 41.725,125.324 41.083 C 125.220 40.442,125.060 39.617,124.970 39.250 C 124.881 38.883,124.743 38.321,124.665 38.000 C 124.587 37.679,124.437 36.854,124.331 36.167 C 124.226 35.479,124.037 34.429,123.913 33.833 C 123.788 33.237,123.600 32.112,123.494 31.333 C 123.388 30.554,123.166 29.504,123.001 29.000 C 122.836 28.496,122.664 27.719,122.619 27.273 C 122.533 26.429,122.182 25.815,121.490 25.303 C 121.130 25.037,120.680 25.001,117.533 24.988 C 113.214 24.970,113.362 24.914,111.949 27.101 C 110.976 28.607,110.500 29.463,110.498 29.713 C 110.497 29.825,110.198 30.292,109.833 30.750 C 109.469 31.208,109.169 31.705,109.168 31.855 C 109.167 32.004,109.054 32.219,108.917 32.333 C 108.779 32.447,108.667 32.656,108.667 32.797 C 108.667 32.937,108.382 33.434,108.033 33.901 C 107.685 34.368,107.302 35.050,107.182 35.417 C 107.063 35.783,106.764 36.346,106.519 36.667 C 105.853 37.539,105.600 37.987,105.180 39.035 C 104.971 39.559,104.685 40.082,104.546 40.198 C 104.406 40.314,104.005 40.995,103.655 41.711 C 103.305 42.427,102.846 43.219,102.634 43.470 C 102.423 43.721,102.111 44.262,101.941 44.672 C 101.771 45.081,101.565 45.547,101.483 45.706 C 101.401 45.865,101.333 46.091,101.333 46.208 C 101.333 46.325,101.162 46.607,100.954 46.835 C 100.745 47.063,100.391 47.512,100.166 47.833 C 99.310 49.059,99.228 49.108,98.785 48.652 C 98.376 48.231,98.000 46.665,98.000 45.385 C 98.000 45.022,97.810 44.180,97.577 43.514 C 97.177 42.368,97.035 41.618,96.660 38.667 C 96.572 37.979,96.433 36.892,96.350 36.250 C 96.204 35.118,95.970 34.140,95.431 32.417 C 95.288 31.958,95.169 31.329,95.168 31.019 C 95.167 30.471,95.004 29.299,94.647 27.250 C 94.316 25.358,93.547 24.991,89.770 24.925 C 88.292 24.899,86.933 24.835,86.750 24.783 C 86.567 24.731,86.222 24.809,85.984 24.956 M173.417 24.998 L 158.583 25.083 157.822 25.462 C 156.289 26.226,154.596 28.576,154.171 30.532 C 153.849 32.007,153.777 32.258,153.579 32.583 C 153.468 32.767,153.289 33.404,153.181 34.000 C 153.073 34.596,152.919 35.458,152.837 35.917 C 152.755 36.375,152.604 37.425,152.502 38.250 C 152.138 41.192,151.957 42.264,151.656 43.250 C 151.121 45.003,150.833 46.256,150.833 46.834 C 150.833 47.144,150.759 47.814,150.668 48.323 C 150.326 50.245,150.018 51.783,149.782 52.750 C 148.711 57.143,148.778 59.860,149.986 61.000 C 151.170 62.118,150.224 62.061,168.417 62.117 L 184.917 62.168 185.542 61.625 C 186.728 60.597,187.364 55.955,186.438 55.083 C 185.546 54.245,186.022 54.273,172.620 54.261 C 158.598 54.249,159.050 54.284,158.600 53.160 C 158.110 51.936,158.405 48.706,159.067 48.044 C 159.544 47.567,160.963 47.506,171.250 47.519 C 183.939 47.535,183.153 47.676,183.514 45.322 C 183.619 44.641,183.808 43.581,183.936 42.967 C 184.307 41.173,184.257 40.780,183.578 40.184 L 182.988 39.667 172.619 39.664 C 164.209 39.662,162.124 39.618,161.583 39.430 L 160.917 39.199 160.867 38.082 C 160.834 37.334,160.894 36.848,161.050 36.608 C 161.178 36.411,161.375 35.969,161.488 35.625 C 161.600 35.281,161.757 35.000,161.835 35.000 C 161.913 35.000,162.019 34.869,162.070 34.708 C 162.261 34.107,163.007 33.522,163.917 33.257 C 164.708 33.027,182.366 32.877,188.083 33.052 C 191.057 33.143,191.565 32.417,191.943 27.529 C 192.081 25.749,191.066 24.787,189.141 24.873 C 188.651 24.895,181.575 24.951,173.417 24.998 M92.741 25.527 C 93.286 25.719,93.819 25.962,93.925 26.068 C 94.207 26.349,94.833 29.272,94.833 30.304 C 94.833 31.048,95.227 33.163,95.555 34.176 C 95.825 35.013,96.231 37.226,96.501 39.333 C 96.809 41.741,97.020 42.881,97.332 43.833 C 97.497 44.337,97.730 45.566,97.851 46.563 C 98.047 48.192,98.118 48.425,98.547 48.855 C 99.196 49.503,99.416 49.426,100.250 48.258 C 100.433 48.001,100.733 47.594,100.917 47.353 C 101.352 46.781,101.667 46.214,101.667 46.000 C 101.667 45.696,102.381 44.266,102.833 43.667 C 103.074 43.346,103.557 42.508,103.904 41.804 C 104.252 41.100,104.662 40.388,104.817 40.220 C 104.971 40.053,105.278 39.467,105.500 38.917 C 105.721 38.367,106.069 37.736,106.272 37.515 C 106.602 37.156,107.017 36.399,107.559 35.167 C 107.659 34.938,107.906 34.545,108.107 34.295 C 108.308 34.045,108.711 33.333,109.002 32.712 C 109.294 32.091,109.730 31.322,109.972 31.002 C 110.213 30.682,110.619 30.007,110.874 29.502 C 112.844 25.595,113.444 25.189,117.267 25.174 C 121.055 25.159,122.022 25.508,122.254 26.974 C 122.307 27.309,122.464 28.033,122.602 28.583 C 122.856 29.592,123.373 32.352,123.674 34.311 C 123.764 34.894,123.870 35.425,123.910 35.490 C 123.951 35.555,124.061 36.165,124.155 36.846 C 124.249 37.526,124.398 38.383,124.485 38.750 C 125.211 41.804,125.404 42.965,125.675 45.917 C 125.935 48.732,126.079 49.000,127.335 49.000 L 128.321 49.000 128.910 47.774 C 129.235 47.100,129.500 46.459,129.500 46.351 C 129.500 46.242,129.648 45.994,129.829 45.799 C 130.010 45.605,130.420 44.903,130.739 44.239 C 131.059 43.575,131.623 42.563,131.993 41.990 C 132.364 41.417,132.667 40.850,132.667 40.729 C 132.667 40.471,133.214 39.458,133.735 38.750 C 134.080 38.282,134.833 36.789,134.833 36.574 C 134.833 36.520,135.057 36.152,135.330 35.755 C 135.603 35.359,136.066 34.595,136.359 34.059 C 136.651 33.522,137.141 32.719,137.446 32.273 C 137.751 31.827,138.000 31.325,138.000 31.158 C 138.000 30.990,138.075 30.807,138.167 30.750 C 138.258 30.693,138.333 30.514,138.333 30.352 C 138.333 30.189,138.630 29.725,138.993 29.320 C 139.356 28.915,139.781 28.246,139.938 27.834 C 140.733 25.739,141.880 25.108,144.750 25.186 C 145.758 25.213,146.934 25.175,147.362 25.101 C 148.799 24.852,149.832 25.855,149.404 27.083 C 149.276 27.450,149.171 27.871,149.169 28.019 C 149.168 28.166,148.829 28.649,148.417 29.092 C 148.004 29.535,147.667 29.986,147.667 30.093 C 147.667 30.477,146.921 32.090,146.563 32.481 C 146.363 32.700,146.127 33.037,146.040 33.231 C 145.438 34.565,144.855 35.624,144.528 35.978 C 144.405 36.110,144.237 36.376,144.153 36.568 C 144.069 36.760,143.935 37.029,143.855 37.167 C 143.774 37.304,143.536 37.754,143.325 38.167 C 143.114 38.579,142.888 38.954,142.822 39.000 C 142.685 39.095,141.667 41.067,141.667 41.236 C 141.667 41.298,141.483 41.546,141.259 41.788 C 141.034 42.030,140.528 42.868,140.134 43.650 C 139.739 44.432,139.258 45.262,139.064 45.494 C 138.871 45.727,138.542 46.254,138.334 46.667 C 138.126 47.079,137.741 47.690,137.478 48.024 C 137.215 48.358,137.000 48.714,137.000 48.816 C 137.000 48.917,136.925 49.000,136.833 49.000 C 136.742 49.000,136.667 49.079,136.667 49.175 C 136.667 49.271,136.385 49.771,136.042 50.287 C 135.698 50.802,135.217 51.583,134.972 52.021 C 134.728 52.459,134.200 53.290,133.798 53.867 C 133.397 54.444,132.959 55.142,132.826 55.417 C 132.692 55.692,132.413 56.104,132.204 56.333 C 131.996 56.563,131.509 57.275,131.122 57.917 C 130.735 58.558,130.255 59.271,130.056 59.500 C 129.856 59.729,129.463 60.179,129.182 60.500 C 128.902 60.821,128.671 61.130,128.669 61.188 C 128.651 61.905,121.346 62.028,120.642 61.323 C 120.240 60.921,119.746 59.885,119.493 58.917 C 119.422 58.642,119.216 58.004,119.035 57.500 C 118.802 56.847,118.652 55.745,118.515 53.667 C 118.262 49.830,118.023 48.316,117.331 46.167 C 116.948 44.975,116.697 43.806,116.579 42.667 C 116.211 39.113,115.867 38.269,114.979 38.734 C 113.423 39.549,113.557 39.390,112.574 41.583 C 112.410 41.950,112.042 42.587,111.756 43.000 C 111.470 43.413,111.137 43.975,111.016 44.250 C 110.723 44.912,110.543 45.241,109.875 46.333 C 109.566 46.837,109.272 47.455,109.220 47.705 C 109.169 47.955,109.023 48.245,108.897 48.350 C 108.770 48.455,108.667 48.611,108.667 48.697 C 108.667 48.783,108.452 49.130,108.190 49.468 C 107.928 49.806,107.538 50.533,107.322 51.083 C 107.107 51.633,106.763 52.266,106.557 52.489 C 106.352 52.712,105.869 53.518,105.485 54.281 C 105.100 55.043,104.729 55.667,104.660 55.667 C 104.591 55.667,104.305 56.143,104.025 56.725 C 103.744 57.307,103.300 58.012,103.038 58.292 C 102.777 58.573,102.283 59.278,101.943 59.859 C 100.964 61.529,100.182 61.824,96.637 61.860 C 94.693 61.880,93.794 61.826,93.498 61.673 C 92.911 61.369,92.333 60.814,92.333 60.554 C 92.333 60.433,92.272 60.333,92.196 60.333 C 91.892 60.333,91.077 57.988,90.690 56.000 C 90.246 53.721,89.967 52.366,89.812 51.750 C 89.517 50.568,89.347 49.457,89.176 47.583 C 88.963 45.265,88.740 43.788,88.543 43.392 C 88.458 43.222,88.292 42.633,88.175 42.083 C 88.058 41.533,87.902 40.858,87.828 40.583 C 87.695 40.084,87.529 39.094,87.155 36.583 C 87.045 35.850,86.848 34.837,86.715 34.333 C 86.037 31.758,85.837 30.877,85.835 30.466 C 85.834 30.219,85.720 29.581,85.581 29.050 C 85.025 26.922,85.047 26.387,85.719 25.698 L 86.320 25.083 89.035 25.131 C 91.275 25.171,91.923 25.240,92.741 25.527 M190.674 25.536 C 191.741 26.281,191.708 26.206,191.623 27.698 C 191.580 28.460,191.452 29.533,191.338 30.083 C 191.224 30.633,191.101 31.249,191.064 31.452 C 190.973 31.951,190.236 32.662,189.784 32.687 C 189.582 32.698,183.717 32.718,176.750 32.731 C 161.791 32.758,163.160 32.567,161.550 34.857 C 160.828 35.882,160.505 36.883,160.502 38.099 C 160.498 40.037,160.325 40.011,172.787 39.965 C 185.112 39.920,184.260 39.605,183.496 43.917 C 182.837 47.637,184.394 47.227,170.528 47.332 L 159.306 47.417 158.854 47.922 C 157.879 49.014,157.790 52.996,158.719 53.904 C 159.289 54.459,160.467 54.508,172.761 54.481 C 186.946 54.451,186.150 54.342,186.458 56.341 C 186.554 56.958,186.533 57.464,186.395 57.917 C 186.284 58.283,186.187 58.831,186.179 59.135 C 186.151 60.342,185.828 61.127,185.191 61.531 L 184.583 61.917 168.167 61.833 C 153.034 61.755,151.702 61.726,151.134 61.459 C 149.134 60.519,148.786 58.646,149.778 54.167 C 150.275 51.924,150.797 49.186,151.080 47.333 C 151.242 46.279,151.582 44.629,151.837 43.667 C 152.092 42.704,152.385 41.242,152.489 40.417 C 152.965 36.620,153.288 34.802,153.809 33.000 C 153.902 32.679,154.102 31.892,154.254 31.250 C 154.406 30.608,154.599 29.953,154.682 29.794 C 154.765 29.635,154.833 29.391,154.833 29.252 C 154.833 29.114,154.908 29.000,155.000 29.000 C 155.092 29.000,155.167 28.902,155.167 28.781 C 155.167 28.661,155.317 28.402,155.500 28.205 C 155.683 28.008,155.834 27.788,155.834 27.715 C 155.839 27.042,157.938 25.587,159.229 25.362 C 160.876 25.076,190.248 25.238,190.674 25.536 M227.000 26.363 C 225.637 26.591,225.103 27.498,224.665 30.333 C 224.559 31.021,224.406 31.808,224.325 32.083 C 224.031 33.083,223.691 34.953,223.508 36.583 C 223.267 38.719,223.089 39.753,222.504 42.417 C 222.036 44.550,221.667 46.972,221.667 47.915 C 221.667 48.445,221.323 49.995,220.836 51.667 C 220.662 52.262,220.440 53.313,220.342 54.000 C 220.244 54.688,220.052 56.038,219.916 57.000 C 219.780 57.962,219.582 59.087,219.477 59.500 C 219.372 59.913,219.277 60.843,219.268 61.568 L 219.250 62.887 219.810 63.200 C 220.525 63.600,252.701 63.697,253.604 63.302 C 254.719 62.814,256.342 61.307,256.790 60.345 C 256.942 60.018,257.108 59.712,257.160 59.667 C 257.341 59.507,257.963 58.078,258.139 57.417 C 258.311 56.775,258.361 56.547,258.649 55.083 C 258.722 54.717,258.874 54.079,258.987 53.667 C 259.100 53.254,259.256 52.654,259.333 52.333 C 259.410 52.012,259.555 51.441,259.653 51.064 C 259.752 50.687,259.833 50.095,259.833 49.750 C 259.833 49.404,259.912 48.626,260.007 48.019 C 260.367 45.737,260.488 44.871,260.673 43.250 C 260.777 42.333,261.014 41.171,261.198 40.667 C 262.366 37.478,262.293 29.954,261.080 28.423 C 259.648 26.615,259.550 26.570,256.667 26.410 C 253.572 26.237,227.994 26.197,227.000 26.363 M276.147 26.885 C 275.418 27.254,274.778 27.707,274.617 27.968 C 274.464 28.215,274.055 28.731,273.709 29.116 C 273.341 29.524,272.985 30.150,272.855 30.616 C 272.503 31.874,272.298 32.556,272.160 32.917 C 272.090 33.100,271.861 33.694,271.652 34.236 C 271.236 35.316,271.088 36.028,270.836 38.167 C 270.493 41.073,270.123 43.543,269.787 45.167 C 269.645 45.854,269.440 47.054,269.333 47.833 C 269.031 50.018,268.435 53.078,268.052 54.417 C 266.963 58.216,267.479 62.833,268.992 62.833 C 269.088 62.833,269.167 62.893,269.167 62.967 C 269.167 63.449,270.499 63.489,286.834 63.508 L 303.418 63.527 304.090 63.168 C 305.031 62.666,305.382 61.695,305.627 58.917 C 305.785 57.118,305.701 56.706,305.035 56.027 L 304.653 55.638 291.883 55.658 L 279.113 55.679 278.198 55.216 C 276.933 54.576,276.799 54.208,276.999 51.927 C 277.184 49.818,277.124 49.939,278.257 49.420 L 279.162 49.007 290.056 49.022 L 300.950 49.037 301.433 48.560 C 302.059 47.942,302.290 47.253,302.576 45.143 C 302.705 44.193,302.858 43.229,302.916 43.000 C 303.030 42.551,302.030 41.167,301.591 41.167 C 301.472 41.167,301.286 41.061,301.178 40.931 C 301.025 40.747,300.866 40.733,300.450 40.867 C 299.905 41.043,281.571 41.256,280.909 41.094 C 279.925 40.854,279.666 39.362,280.183 36.909 C 280.747 34.229,279.199 34.476,295.667 34.439 L 308.917 34.409 309.540 33.996 C 309.882 33.769,310.163 33.467,310.165 33.325 C 310.166 33.183,310.238 32.995,310.326 32.908 C 310.413 32.820,310.602 31.924,310.745 30.916 C 310.888 29.908,311.050 28.841,311.104 28.546 C 311.228 27.875,310.511 26.551,309.948 26.410 C 309.742 26.358,302.335 26.301,293.487 26.283 L 277.400 26.250 276.147 26.885 M256.987 26.733 C 259.460 26.848,259.682 26.961,260.908 28.728 L 261.733 29.917 261.719 33.333 C 261.706 36.640,261.394 39.606,261.010 40.073 C 260.833 40.288,260.586 41.688,260.333 43.917 C 260.228 44.833,260.078 45.958,259.998 46.417 C 259.919 46.875,259.771 47.925,259.671 48.750 C 259.570 49.575,259.420 50.512,259.336 50.833 C 259.087 51.789,258.703 53.515,258.502 54.583 C 258.398 55.133,258.243 55.814,258.157 56.095 C 258.070 56.377,258.000 56.777,258.000 56.984 C 258.000 57.903,256.186 61.003,255.163 61.834 C 254.768 62.154,254.361 62.492,254.258 62.583 C 253.485 63.271,254.031 63.248,237.250 63.295 C 228.450 63.320,221.019 63.301,220.738 63.252 C 219.572 63.049,219.212 61.951,219.660 59.961 C 219.928 58.770,220.140 57.490,220.331 55.917 C 220.522 54.348,220.764 53.039,220.993 52.333 C 221.354 51.225,221.663 49.778,221.828 48.417 C 222.219 45.202,222.382 44.213,222.685 43.215 C 222.858 42.646,223.000 41.971,223.001 41.715 C 223.001 41.459,223.068 40.987,223.149 40.667 C 223.229 40.346,223.383 39.408,223.490 38.583 C 223.596 37.758,223.763 36.677,223.860 36.181 C 223.957 35.684,224.095 34.897,224.168 34.431 C 224.240 33.965,224.412 33.133,224.550 32.583 C 224.688 32.033,224.889 30.946,224.998 30.167 C 225.357 27.586,225.725 26.978,227.074 26.733 C 227.959 26.572,253.541 26.572,256.987 26.733 M309.566 26.764 C 310.586 26.989,310.987 27.862,310.695 29.226 C 310.594 29.697,310.468 30.484,310.414 30.975 C 310.235 32.626,309.650 33.648,308.667 34.031 C 308.407 34.132,303.454 34.180,295.500 34.158 C 281.912 34.121,281.231 34.149,280.655 34.763 C 279.931 35.533,279.305 39.354,279.736 40.369 C 280.216 41.498,279.211 41.431,294.067 41.317 L 301.216 41.262 301.956 41.905 C 302.580 42.448,302.680 42.617,302.592 42.983 C 302.535 43.221,302.417 44.092,302.331 44.917 C 302.171 46.455,301.809 47.700,301.377 48.198 C 300.870 48.783,299.684 48.845,289.257 48.828 C 283.661 48.818,278.933 48.860,278.750 48.921 C 276.961 49.512,276.666 50.093,276.667 53.014 C 276.669 56.024,275.991 55.895,291.928 55.907 C 305.654 55.917,304.814 55.862,305.307 56.784 C 305.766 57.641,305.225 61.253,304.472 62.354 C 303.763 63.393,304.537 63.348,287.544 63.337 C 269.151 63.326,270.090 63.377,268.933 62.319 C 267.502 61.011,267.344 59.141,268.307 54.917 C 268.679 53.285,269.153 50.808,269.326 49.583 C 269.524 48.186,269.758 46.872,270.010 45.750 C 270.215 44.836,270.445 43.368,270.663 41.583 C 270.763 40.758,270.918 39.625,271.006 39.064 C 271.094 38.504,271.167 37.812,271.167 37.528 C 271.167 37.244,271.268 36.690,271.392 36.297 C 271.516 35.905,271.789 35.021,271.998 34.333 C 272.208 33.646,272.509 32.671,272.667 32.167 C 272.826 31.662,273.051 30.935,273.168 30.551 C 273.285 30.166,273.651 29.565,273.982 29.214 C 274.313 28.864,274.733 28.367,274.917 28.108 C 275.100 27.850,275.717 27.402,276.287 27.111 L 277.325 26.583 293.187 26.617 C 301.911 26.636,309.282 26.702,309.566 26.764 M202.333 32.716 C 201.394 33.122,200.587 33.941,200.393 34.686 C 200.129 35.700,199.833 37.710,199.833 38.490 C 199.833 38.848,199.763 39.503,199.677 39.946 C 199.591 40.388,199.433 41.275,199.326 41.917 C 199.219 42.558,199.030 43.421,198.906 43.833 C 198.782 44.246,198.597 45.333,198.495 46.250 C 198.393 47.167,198.246 48.292,198.169 48.750 C 198.092 49.208,197.940 50.483,197.832 51.583 C 197.723 52.683,197.500 54.033,197.336 54.583 C 196.934 55.929,196.719 56.976,196.494 58.667 C 196.391 59.446,196.269 60.271,196.223 60.501 C 196.169 60.780,196.262 61.058,196.502 61.335 C 196.700 61.563,196.926 61.862,197.003 62.000 C 197.119 62.208,197.656 62.250,200.197 62.250 C 203.588 62.250,203.933 62.153,204.342 61.083 C 204.447 60.808,204.594 60.433,204.668 60.250 C 205.112 59.152,205.268 58.385,205.500 56.167 C 205.591 55.296,205.738 54.208,205.827 53.750 C 205.916 53.292,206.064 52.383,206.154 51.732 C 206.245 51.080,206.390 50.367,206.476 50.148 C 206.684 49.617,207.010 47.623,207.602 43.250 C 208.063 39.841,208.127 39.439,208.330 38.667 C 209.605 33.819,209.265 32.867,206.211 32.739 C 205.133 32.694,203.912 32.630,203.500 32.597 C 203.088 32.564,202.563 32.618,202.333 32.716 M207.429 33.107 C 208.690 33.527,208.711 33.560,208.614 34.992 C 208.567 35.684,208.446 36.587,208.346 37.000 C 208.245 37.412,208.094 38.162,208.010 38.667 C 207.650 40.825,207.471 41.988,207.330 43.083 C 207.026 45.437,206.828 46.766,206.684 47.417 C 206.339 48.980,206.177 49.814,206.023 50.833 C 205.932 51.429,205.773 52.479,205.668 53.167 C 205.564 53.854,205.408 54.688,205.322 55.019 C 205.237 55.351,205.167 56.003,205.167 56.470 C 205.167 56.936,205.059 57.714,204.928 58.200 C 204.796 58.686,204.567 59.533,204.419 60.083 C 204.214 60.845,204.003 61.212,203.533 61.622 L 202.917 62.160 200.750 62.163 C 196.875 62.167,195.927 61.287,196.767 58.466 C 196.813 58.309,196.917 57.822,196.997 57.382 C 197.077 56.943,197.223 56.283,197.321 55.917 C 197.717 54.428,198.000 52.876,198.000 52.180 C 198.000 51.227,198.341 48.950,199.063 45.083 C 199.286 43.892,199.557 42.279,199.665 41.500 C 199.773 40.721,199.930 39.769,200.014 39.385 C 200.098 39.000,200.167 38.367,200.167 37.978 C 200.167 35.752,200.888 33.878,201.979 33.271 C 202.952 32.729,206.018 32.637,207.429 33.107 M233.348 34.286 C 232.427 34.650,231.347 36.453,231.224 37.833 C 231.047 39.807,230.609 42.526,230.175 44.333 C 229.865 45.629,229.642 46.861,229.331 49.000 C 229.087 50.682,228.666 52.836,228.496 53.272 C 228.276 53.839,228.694 55.172,229.214 55.561 C 229.752 55.962,244.709 56.161,247.167 55.799 C 249.614 55.439,250.567 53.771,252.007 47.333 C 252.530 44.993,253.144 39.155,253.160 36.361 C 253.166 35.369,253.131 35.271,252.580 34.736 L 251.994 34.167 242.789 34.180 C 237.726 34.187,233.477 34.235,233.348 34.286 M251.358 34.481 C 252.613 34.688,253.152 35.762,252.913 37.583 C 252.865 37.950,252.752 39.188,252.663 40.333 C 252.400 43.687,252.067 45.879,251.523 47.833 C 251.331 48.521,251.173 49.286,251.171 49.534 C 251.168 49.782,251.102 50.157,251.023 50.367 C 250.944 50.578,250.708 51.294,250.497 51.958 C 250.287 52.623,250.056 53.167,249.985 53.167 C 249.914 53.167,249.810 53.312,249.754 53.489 C 249.506 54.270,248.276 55.298,247.367 55.485 C 245.839 55.799,229.922 55.731,229.600 55.409 C 228.954 54.764,228.678 53.734,228.921 52.883 C 229.047 52.443,229.234 51.408,229.336 50.583 C 229.513 49.166,229.872 47.128,230.174 45.833 C 230.475 44.543,230.806 42.854,230.975 41.750 C 231.074 41.108,231.278 39.762,231.429 38.759 C 231.717 36.844,232.142 35.700,232.826 35.001 L 233.234 34.583 239.992 34.495 C 243.709 34.447,247.612 34.395,248.667 34.380 C 249.721 34.365,250.932 34.411,251.358 34.481 " stroke="none" fill="#a09c9c" fill-rule="evenodd"></path><path id="path3" d="M203.500 23.149 C 202.370 23.836,202.001 24.490,201.996 25.816 C 201.994 26.422,201.924 27.208,201.842 27.564 C 201.398 29.479,203.281 30.050,207.895 29.397 C 208.884 29.257,209.750 28.489,209.876 27.639 C 209.922 27.334,210.081 26.648,210.229 26.117 C 210.879 23.796,210.250 23.102,207.250 22.829 C 204.748 22.602,204.343 22.636,203.500 23.149 M208.583 23.882 C 209.484 24.229,209.632 24.451,209.479 25.224 C 209.403 25.605,209.263 26.434,209.168 27.066 C 208.937 28.592,208.717 28.771,206.890 28.924 C 203.635 29.195,202.200 28.800,202.411 27.692 C 202.475 27.357,202.579 26.541,202.643 25.879 C 202.770 24.547,202.778 24.534,203.812 23.961 C 204.619 23.513,207.502 23.466,208.583 23.882 M85.719 25.698 C 85.047 26.387,85.025 26.922,85.581 29.050 C 85.720 29.581,85.834 30.219,85.835 30.466 C 85.837 30.877,86.037 31.758,86.715 34.333 C 86.848 34.837,87.045 35.850,87.155 36.583 C 87.529 39.094,87.695 40.084,87.828 40.583 C 87.902 40.858,88.058 41.533,88.175 42.083 C 88.292 42.633,88.458 43.222,88.543 43.392 C 88.740 43.788,88.963 45.265,89.176 47.583 C 89.347 49.457,89.517 50.568,89.812 51.750 C 89.967 52.366,90.246 53.721,90.690 56.000 C 91.077 57.988,91.892 60.333,92.196 60.333 C 92.272 60.333,92.333 60.433,92.333 60.554 C 92.333 60.814,92.911 61.369,93.498 61.673 C 93.794 61.826,94.693 61.880,96.637 61.860 C 100.182 61.824,100.964 61.529,101.943 59.859 C 102.283 59.278,102.777 58.573,103.038 58.292 C 103.300 58.012,103.744 57.307,104.025 56.725 C 104.305 56.143,104.591 55.667,104.660 55.667 C 104.729 55.667,105.100 55.043,105.485 54.281 C 105.869 53.518,106.352 52.712,106.557 52.489 C 106.763 52.266,107.107 51.633,107.322 51.083 C 107.538 50.533,107.928 49.806,108.190 49.468 C 108.452 49.130,108.667 48.783,108.667 48.697 C 108.667 48.611,108.770 48.455,108.897 48.350 C 109.023 48.245,109.169 47.955,109.220 47.705 C 109.272 47.455,109.566 46.837,109.875 46.333 C 110.543 45.241,110.723 44.912,111.016 44.250 C 111.137 43.975,111.470 43.413,111.756 43.000 C 112.042 42.587,112.410 41.950,112.574 41.583 C 113.557 39.390,113.423 39.549,114.979 38.734 C 115.867 38.269,116.211 39.113,116.579 42.667 C 116.697 43.806,116.948 44.975,117.331 46.167 C 118.023 48.316,118.262 49.830,118.515 53.667 C 118.652 55.745,118.802 56.847,119.035 57.500 C 119.216 58.004,119.422 58.642,119.493 58.917 C 119.746 59.885,120.240 60.921,120.642 61.323 C 121.346 62.028,128.651 61.905,128.669 61.188 C 128.671 61.130,128.902 60.821,129.182 60.500 C 129.463 60.179,129.856 59.729,130.056 59.500 C 130.255 59.271,130.735 58.558,131.122 57.917 C 131.509 57.275,131.996 56.563,132.204 56.333 C 132.413 56.104,132.692 55.692,132.826 55.417 C 132.959 55.142,133.397 54.444,133.798 53.867 C 134.200 53.290,134.728 52.459,134.972 52.021 C 135.217 51.583,135.698 50.802,136.042 50.287 C 136.385 49.771,136.667 49.271,136.667 49.175 C 136.667 49.079,136.742 49.000,136.833 49.000 C 136.925 49.000,137.000 48.917,137.000 48.816 C 137.000 48.714,137.215 48.358,137.478 48.024 C 137.741 47.690,138.126 47.079,138.334 46.667 C 138.542 46.254,138.871 45.727,139.064 45.494 C 139.258 45.262,139.739 44.432,140.134 43.650 C 140.528 42.868,141.034 42.030,141.259 41.788 C 141.483 41.546,141.667 41.298,141.667 41.236 C 141.667 41.067,142.685 39.095,142.822 39.000 C 142.888 38.954,143.114 38.579,143.325 38.167 C 143.536 37.754,143.774 37.304,143.855 37.167 C 143.935 37.029,144.069 36.760,144.153 36.568 C 144.237 36.376,144.405 36.110,144.528 35.978 C 144.855 35.624,145.438 34.565,146.040 33.231 C 146.127 33.037,146.363 32.700,146.563 32.481 C 146.921 32.090,147.667 30.477,147.667 30.093 C 147.667 29.986,148.004 29.535,148.417 29.092 C 148.829 28.649,149.168 28.166,149.169 28.019 C 149.171 27.871,149.276 27.450,149.404 27.083 C 149.832 25.855,148.799 24.852,147.362 25.101 C 146.934 25.175,145.758 25.213,144.750 25.186 C 141.880 25.108,140.733 25.739,139.938 27.834 C 139.781 28.246,139.356 28.915,138.993 29.320 C 138.630 29.725,138.333 30.189,138.333 30.352 C 138.333 30.514,138.258 30.693,138.167 30.750 C 138.075 30.807,138.000 30.990,138.000 31.158 C 138.000 31.325,137.751 31.827,137.446 32.273 C 137.141 32.719,136.651 33.522,136.359 34.059 C 136.066 34.595,135.603 35.359,135.330 35.755 C 135.057 36.152,134.833 36.520,134.833 36.574 C 134.833 36.789,134.080 38.282,133.735 38.750 C 133.214 39.458,132.667 40.471,132.667 40.729 C 132.667 40.850,132.364 41.417,131.993 41.990 C 131.623 42.563,131.059 43.575,130.739 44.239 C 130.420 44.903,130.010 45.605,129.829 45.799 C 129.648 45.994,129.500 46.242,129.500 46.351 C 129.500 46.459,129.235 47.100,128.910 47.774 L 128.321 49.000 127.335 49.000 C 126.079 49.000,125.935 48.732,125.675 45.917 C 125.404 42.965,125.211 41.804,124.485 38.750 C 124.398 38.383,124.249 37.526,124.155 36.846 C 124.061 36.165,123.951 35.555,123.910 35.490 C 123.870 35.425,123.764 34.894,123.674 34.311 C 123.373 32.352,122.856 29.592,122.602 28.583 C 122.464 28.033,122.307 27.309,122.254 26.974 C 122.022 25.508,121.055 25.159,117.267 25.174 C 113.444 25.189,112.844 25.595,110.874 29.502 C 110.619 30.007,110.213 30.682,109.972 31.002 C 109.730 31.322,109.294 32.091,109.002 32.712 C 108.711 33.333,108.308 34.045,108.107 34.295 C 107.906 34.545,107.659 34.938,107.559 35.167 C 107.017 36.399,106.602 37.156,106.272 37.515 C 106.069 37.736,105.721 38.367,105.500 38.917 C 105.278 39.467,104.971 40.053,104.817 40.220 C 104.662 40.388,104.252 41.100,103.904 41.804 C 103.557 42.508,103.074 43.346,102.833 43.667 C 102.381 44.266,101.667 45.696,101.667 46.000 C 101.667 46.214,101.352 46.781,100.917 47.353 C 100.733 47.594,100.433 48.001,100.250 48.258 C 99.416 49.426,99.196 49.503,98.547 48.855 C 98.118 48.425,98.047 48.192,97.851 46.563 C 97.730 45.566,97.497 44.337,97.332 43.833 C 97.020 42.881,96.809 41.741,96.501 39.333 C 96.231 37.226,95.825 35.013,95.555 34.176 C 95.227 33.163,94.833 31.048,94.833 30.304 C 94.833 29.272,94.207 26.349,93.925 26.068 C 93.339 25.482,91.761 25.180,89.035 25.131 L 86.320 25.083 85.719 25.698 M159.229 25.362 C 157.938 25.587,155.839 27.042,155.834 27.715 C 155.834 27.788,155.683 28.008,155.500 28.205 C 155.317 28.402,155.167 28.661,155.167 28.781 C 155.167 28.902,155.092 29.000,155.000 29.000 C 154.908 29.000,154.833 29.114,154.833 29.252 C 154.833 29.391,154.765 29.635,154.682 29.794 C 154.599 29.953,154.406 30.608,154.254 31.250 C 154.102 31.892,153.902 32.679,153.809 33.000 C 153.288 34.802,152.965 36.620,152.489 40.417 C 152.385 41.242,152.092 42.704,151.837 43.667 C 151.582 44.629,151.242 46.279,151.080 47.333 C 150.797 49.186,150.275 51.924,149.778 54.167 C 148.786 58.646,149.134 60.519,151.134 61.459 C 151.702 61.726,153.034 61.755,168.167 61.833 L 184.583 61.917 185.191 61.531 C 185.828 61.127,186.151 60.342,186.179 59.135 C 186.187 58.831,186.284 58.283,186.395 57.917 C 186.533 57.464,186.554 56.958,186.458 56.341 C 186.150 54.342,186.946 54.451,172.761 54.481 C 160.467 54.508,159.289 54.459,158.719 53.904 C 157.790 52.996,157.879 49.014,158.854 47.922 L 159.306 47.417 170.528 47.332 C 184.394 47.227,182.837 47.637,183.496 43.917 C 184.260 39.605,185.112 39.920,172.787 39.965 C 160.325 40.011,160.498 40.037,160.502 38.099 C 160.505 36.883,160.828 35.882,161.550 34.857 C 163.160 32.567,161.791 32.758,176.750 32.731 C 183.717 32.718,189.582 32.698,189.784 32.687 C 190.236 32.662,190.973 31.951,191.064 31.452 C 191.101 31.249,191.224 30.633,191.338 30.083 C 191.722 28.226,191.748 26.349,191.393 26.067 C 190.282 25.187,191.544 25.250,175.070 25.250 C 166.713 25.250,159.585 25.301,159.229 25.362 M92.458 26.165 C 92.756 26.276,93.000 26.441,93.000 26.532 C 93.000 26.624,93.169 26.935,93.375 27.223 C 93.779 27.788,94.139 29.179,94.156 30.241 C 94.175 31.423,94.542 33.719,94.957 35.250 C 95.394 36.862,95.646 38.250,96.167 41.917 C 96.349 43.200,96.578 44.625,96.675 45.083 C 96.773 45.542,96.895 46.437,96.947 47.074 C 97.066 48.532,97.537 49.413,98.483 49.944 L 99.184 50.338 99.923 49.829 C 100.329 49.550,100.749 49.155,100.856 48.952 C 100.963 48.749,101.101 48.546,101.162 48.500 C 101.386 48.334,101.987 47.061,102.342 46.000 C 102.547 45.385,102.937 44.664,103.243 44.333 C 103.540 44.012,103.954 43.316,104.163 42.786 C 104.372 42.256,104.673 41.731,104.831 41.619 C 105.186 41.369,105.751 40.274,105.914 39.523 C 105.980 39.215,106.289 38.681,106.600 38.337 C 107.131 37.749,107.998 36.070,108.002 35.620 C 108.003 35.508,108.247 35.180,108.543 34.891 C 108.873 34.569,109.273 33.866,109.570 33.083 C 109.837 32.378,110.153 31.764,110.271 31.719 C 110.535 31.618,111.075 30.722,111.220 30.144 C 111.279 29.908,111.610 29.406,111.955 29.028 C 112.301 28.650,112.834 27.861,113.141 27.275 C 113.802 26.013,113.993 25.955,117.417 25.988 C 121.427 26.027,121.381 25.998,121.818 28.708 C 121.918 29.327,122.083 30.340,122.184 30.958 C 122.285 31.577,122.503 32.496,122.669 33.000 C 122.999 34.002,123.219 35.312,123.508 38.000 C 123.683 39.630,123.864 40.459,124.450 42.320 C 124.712 43.152,124.964 44.870,125.149 47.083 C 125.356 49.561,125.809 50.165,127.340 50.010 C 128.572 49.885,129.030 49.493,129.499 48.161 C 129.823 47.240,130.326 46.302,130.659 46.000 C 130.709 45.954,130.831 45.729,130.929 45.500 C 131.407 44.384,132.054 43.167,132.170 43.167 C 132.325 43.167,133.333 41.114,133.333 40.798 C 133.333 40.675,133.556 40.331,133.827 40.034 C 134.337 39.475,134.596 38.982,135.090 37.627 C 135.248 37.192,135.592 36.612,135.855 36.337 C 136.118 36.061,136.333 35.723,136.333 35.585 C 136.333 35.447,136.391 35.333,136.461 35.333 C 136.532 35.333,136.767 34.921,136.985 34.417 C 137.203 33.912,137.438 33.500,137.507 33.500 C 137.656 33.500,138.333 32.391,138.333 32.147 C 138.333 31.824,139.254 30.080,139.622 29.703 C 139.980 29.339,140.833 27.664,140.833 27.328 C 140.833 27.239,140.890 27.167,140.958 27.166 C 141.027 27.166,141.308 26.971,141.583 26.732 C 142.382 26.039,142.763 25.964,145.614 25.934 C 148.966 25.898,149.008 25.917,148.584 27.286 C 148.421 27.816,148.104 28.438,147.882 28.667 C 147.659 28.896,147.262 29.596,146.998 30.222 C 146.735 30.848,146.366 31.493,146.179 31.656 C 145.822 31.965,145.177 33.246,145.170 33.656 C 145.168 33.788,144.843 34.313,144.448 34.823 C 143.793 35.667,143.000 37.118,143.000 37.472 C 143.000 37.551,142.840 37.758,142.645 37.933 C 142.449 38.107,141.984 38.887,141.612 39.667 C 141.239 40.446,140.761 41.220,140.550 41.387 C 140.339 41.554,140.167 41.759,140.167 41.841 C 140.167 42.050,139.160 44.231,139.016 44.333 C 138.752 44.522,138.038 45.622,137.827 46.167 C 137.703 46.487,137.477 46.862,137.325 47.000 C 137.009 47.285,135.834 49.082,135.832 49.284 C 135.831 49.357,135.531 49.792,135.167 50.250 C 134.802 50.708,134.503 51.166,134.502 51.266 C 134.498 51.619,134.007 52.430,133.506 52.911 C 133.228 53.177,133.000 53.494,133.000 53.615 C 133.000 53.735,132.944 53.834,132.875 53.834 C 132.806 53.834,132.606 54.185,132.430 54.613 C 132.254 55.042,131.822 55.688,131.471 56.049 C 131.120 56.411,130.833 56.806,130.833 56.927 C 130.833 57.247,130.165 58.331,129.662 58.824 C 129.424 59.058,129.009 59.550,128.740 59.917 C 128.148 60.725,127.962 60.853,127.000 61.115 C 125.651 61.482,121.250 61.256,120.929 60.803 C 120.724 60.512,120.167 58.937,120.167 58.646 C 120.167 58.236,119.984 57.148,119.567 55.083 C 119.420 54.350,119.242 53.075,119.173 52.250 C 119.104 51.425,118.969 50.337,118.873 49.833 C 118.777 49.329,118.610 48.354,118.503 47.667 C 118.194 45.685,117.756 43.970,117.455 43.554 C 117.377 43.446,117.237 42.621,117.145 41.720 C 116.703 37.395,116.280 36.858,114.157 37.925 C 113.414 38.298,112.615 39.499,112.251 40.788 C 112.194 40.992,111.900 41.455,111.598 41.816 C 111.296 42.177,110.837 42.985,110.577 43.611 C 110.317 44.238,109.893 44.965,109.636 45.228 C 109.378 45.491,109.167 45.843,109.167 46.010 C 109.167 46.177,109.101 46.354,109.020 46.404 C 108.939 46.454,108.747 46.882,108.592 47.355 C 108.437 47.828,108.110 48.419,107.864 48.667 C 107.618 48.916,107.236 49.599,107.016 50.185 C 106.796 50.771,106.397 51.502,106.129 51.811 C 105.862 52.120,105.525 52.645,105.381 52.978 C 104.894 54.101,104.591 54.667,104.476 54.667 C 104.301 54.667,103.410 56.179,103.186 56.858 C 103.076 57.191,102.774 57.640,102.515 57.856 C 102.256 58.073,101.854 58.625,101.622 59.083 C 101.382 59.556,100.979 60.045,100.689 60.214 C 100.408 60.378,100.054 60.637,99.901 60.789 C 99.513 61.177,95.623 61.452,94.327 61.183 C 93.440 60.998,93.406 60.970,93.000 60.081 C 92.771 59.579,92.527 59.168,92.458 59.167 C 92.390 59.167,92.333 59.051,92.333 58.910 C 92.333 58.769,92.196 58.375,92.028 58.035 C 91.682 57.336,91.483 56.423,91.073 53.667 C 90.917 52.612,90.607 51.150,90.386 50.417 C 90.165 49.683,89.876 48.071,89.744 46.833 C 89.234 42.059,88.962 40.531,88.478 39.728 C 88.183 39.238,88.054 38.535,87.656 35.250 C 87.567 34.517,87.428 33.579,87.346 33.167 C 87.264 32.754,87.111 31.931,87.006 31.338 C 86.900 30.745,86.718 30.033,86.599 29.755 C 85.973 28.282,85.784 26.554,86.210 26.199 C 86.637 25.846,91.523 25.819,92.458 26.165 M190.371 26.166 C 191.255 26.989,190.750 31.681,189.751 31.931 C 189.554 31.981,183.435 32.035,176.155 32.052 C 161.420 32.087,162.347 32.013,161.732 33.201 C 161.594 33.468,161.205 33.992,160.868 34.365 C 159.136 36.282,159.492 40.485,161.388 40.506 C 167.592 40.575,177.330 40.575,178.889 40.506 C 180.012 40.457,181.397 40.479,181.966 40.556 L 183.000 40.696 182.995 42.056 C 182.991 42.963,182.885 43.695,182.678 44.250 C 182.508 44.708,182.256 45.378,182.120 45.739 C 181.749 46.718,181.986 46.699,170.083 46.725 C 156.729 46.755,157.938 46.439,157.574 50.000 C 157.366 52.027,157.482 53.826,157.847 54.267 C 158.546 55.109,158.120 55.084,171.911 55.069 C 185.899 55.053,185.113 55.000,185.411 55.970 C 185.747 57.061,185.329 60.833,184.842 61.105 C 184.698 61.186,177.346 61.213,168.210 61.167 L 151.836 61.083 151.438 60.667 C 151.218 60.438,150.768 60.000,150.436 59.695 C 149.647 58.968,149.615 57.970,150.315 55.865 C 150.580 55.068,150.920 53.479,151.072 52.333 C 151.224 51.188,151.419 49.888,151.507 49.446 C 151.595 49.003,151.667 48.343,151.667 47.977 C 151.667 47.612,151.881 46.662,152.144 45.865 C 152.697 44.185,153.162 41.489,153.410 38.526 C 153.458 37.945,153.635 37.157,153.803 36.776 C 154.083 36.139,154.210 35.591,154.682 33.000 C 154.876 31.935,155.102 30.775,155.240 30.131 C 155.293 29.882,155.514 29.501,155.730 29.285 C 155.946 29.069,156.245 28.635,156.395 28.321 C 156.698 27.684,157.382 26.833,157.592 26.833 C 157.667 26.833,157.908 26.665,158.128 26.458 L 158.527 26.083 174.055 25.997 C 182.596 25.950,189.680 25.894,189.799 25.872 C 189.917 25.851,190.175 25.983,190.371 26.166 M227.074 26.733 C 225.725 26.978,225.357 27.586,224.998 30.167 C 224.889 30.946,224.688 32.033,224.550 32.583 C 224.412 33.133,224.240 33.965,224.168 34.431 C 224.095 34.897,223.957 35.684,223.860 36.181 C 223.763 36.677,223.596 37.758,223.490 38.583 C 223.383 39.408,223.229 40.346,223.149 40.667 C 223.068 40.987,223.001 41.459,223.001 41.715 C 223.000 41.971,222.858 42.646,222.685 43.215 C 222.382 44.213,222.219 45.202,221.828 48.417 C 221.663 49.778,221.354 51.225,220.993 52.333 C 220.764 53.039,220.522 54.348,220.331 55.917 C 220.140 57.490,219.928 58.770,219.660 59.961 C 219.212 61.951,219.572 63.049,220.738 63.252 C 221.019 63.301,228.450 63.320,237.250 63.295 C 254.031 63.248,253.485 63.271,254.258 62.583 C 254.361 62.492,254.768 62.154,255.163 61.834 C 256.186 61.003,258.000 57.903,258.000 56.984 C 258.000 56.777,258.070 56.377,258.157 56.095 C 258.243 55.814,258.398 55.133,258.502 54.583 C 258.703 53.515,259.087 51.789,259.336 50.833 C 259.420 50.512,259.570 49.575,259.671 48.750 C 259.771 47.925,259.919 46.875,259.998 46.417 C 260.078 45.958,260.228 44.833,260.333 43.917 C 260.586 41.688,260.833 40.288,261.010 40.073 C 261.394 39.606,261.706 36.640,261.719 33.333 L 261.733 29.917 260.908 28.728 C 259.682 26.961,259.460 26.848,256.987 26.733 C 253.541 26.572,227.959 26.572,227.074 26.733 M276.287 27.111 C 275.717 27.402,275.100 27.850,274.917 28.108 C 274.733 28.367,274.313 28.864,273.982 29.214 C 273.651 29.565,273.285 30.166,273.168 30.551 C 273.051 30.935,272.826 31.662,272.667 32.167 C 272.509 32.671,272.208 33.646,271.998 34.333 C 271.789 35.021,271.516 35.905,271.392 36.297 C 271.268 36.690,271.167 37.244,271.167 37.528 C 271.167 37.812,271.094 38.504,271.006 39.064 C 270.918 39.625,270.763 40.758,270.663 41.583 C 270.445 43.368,270.215 44.836,270.010 45.750 C 269.758 46.872,269.524 48.186,269.326 49.583 C 269.153 50.808,268.679 53.285,268.307 54.917 C 267.344 59.141,267.502 61.011,268.933 62.319 C 270.090 63.377,269.151 63.326,287.544 63.337 C 304.537 63.348,303.763 63.393,304.472 62.354 C 305.225 61.253,305.766 57.641,305.307 56.784 C 304.814 55.862,305.654 55.917,291.928 55.907 C 275.991 55.895,276.669 56.024,276.667 53.014 C 276.666 50.093,276.961 49.512,278.750 48.921 C 278.933 48.860,283.661 48.818,289.257 48.828 C 299.684 48.845,300.870 48.783,301.377 48.198 C 301.809 47.700,302.171 46.455,302.331 44.917 C 302.417 44.092,302.535 43.221,302.592 42.983 C 302.680 42.617,302.580 42.448,301.956 41.905 L 301.216 41.262 294.067 41.317 C 279.211 41.431,280.216 41.498,279.736 40.369 C 279.305 39.354,279.931 35.533,280.655 34.763 C 281.231 34.149,281.912 34.121,295.500 34.158 C 303.454 34.180,308.407 34.132,308.667 34.031 C 309.650 33.648,310.235 32.626,310.414 30.975 C 310.468 30.484,310.594 29.697,310.695 29.226 C 310.987 27.862,310.586 26.989,309.566 26.764 C 309.282 26.702,301.911 26.636,293.187 26.617 L 277.325 26.583 276.287 27.111 M259.267 27.844 C 259.559 28.024,259.845 28.357,259.902 28.583 C 259.958 28.809,260.247 29.270,260.544 29.608 L 261.083 30.222 261.074 32.986 C 261.068 34.753,260.985 36.021,260.845 36.500 C 260.724 36.912,260.569 37.662,260.499 38.167 C 260.429 38.671,260.250 39.518,260.102 40.050 C 259.954 40.581,259.833 41.467,259.833 42.018 C 259.833 43.515,259.262 47.318,258.947 47.917 C 258.754 48.284,258.670 48.715,258.268 51.417 C 257.593 55.942,257.388 56.908,256.968 57.526 C 256.802 57.769,256.667 58.016,256.667 58.074 C 256.667 58.322,255.672 60.278,255.390 60.584 C 254.822 61.203,253.529 62.167,253.269 62.167 C 253.126 62.167,252.746 62.315,252.424 62.496 C 251.920 62.779,251.716 62.803,250.985 62.664 C 250.020 62.481,225.299 62.427,222.592 62.602 C 221.012 62.704,220.877 62.689,220.781 62.398 C 220.725 62.225,220.568 61.788,220.432 61.428 C 220.296 61.067,220.220 60.716,220.262 60.647 C 220.305 60.578,220.419 59.973,220.517 59.302 C 220.854 56.980,220.961 56.412,221.249 55.417 C 221.788 53.558,222.043 52.151,222.336 49.417 C 222.633 46.649,222.702 46.255,223.114 45.003 C 223.339 44.318,223.590 43.174,223.671 42.461 C 223.752 41.749,223.890 40.735,223.976 40.208 C 224.062 39.681,224.223 38.575,224.332 37.750 C 224.442 36.925,224.589 36.100,224.660 35.917 C 225.106 34.749,225.370 33.367,225.737 30.269 C 226.000 28.042,226.194 27.691,227.260 27.518 C 229.139 27.211,258.731 27.513,259.267 27.844 M309.624 27.775 C 310.255 28.135,310.286 28.358,309.833 29.294 C 309.632 29.710,309.500 30.325,309.500 30.845 C 309.500 31.564,309.405 31.834,308.924 32.490 L 308.348 33.274 296.919 33.227 C 290.632 33.201,285.413 33.132,285.319 33.075 C 285.226 33.017,284.202 33.063,283.042 33.177 C 280.203 33.456,279.814 33.781,279.354 36.261 C 279.251 36.817,278.970 37.678,278.730 38.176 C 278.183 39.309,278.248 40.764,278.874 41.389 C 279.643 42.158,280.076 42.184,290.943 42.104 L 301.135 42.029 301.456 42.389 C 302.375 43.425,301.398 47.315,300.109 47.749 C 298.977 48.131,289.512 48.285,283.262 48.023 C 280.885 47.923,278.860 47.899,278.762 47.969 C 278.664 48.040,278.283 48.197,277.917 48.318 C 276.426 48.812,276.057 49.549,275.889 52.369 C 275.772 54.338,275.995 55.306,276.713 55.948 C 277.487 56.641,278.315 56.681,291.649 56.658 C 306.288 56.634,304.915 56.450,304.791 58.413 C 304.645 60.714,303.275 62.877,302.111 62.644 C 301.328 62.488,278.206 62.441,275.500 62.591 C 273.928 62.678,272.050 62.544,270.542 62.239 C 270.232 62.176,269.709 61.837,269.317 61.444 L 268.632 60.759 268.626 59.421 C 268.624 58.685,268.704 57.879,268.805 57.629 C 268.906 57.379,269.075 56.554,269.180 55.796 C 269.285 55.037,269.435 54.004,269.512 53.500 C 269.590 52.996,269.731 51.918,269.827 51.105 C 269.923 50.292,270.178 49.017,270.395 48.272 C 270.898 46.538,271.168 45.093,271.163 44.157 C 271.156 42.562,271.812 38.266,272.384 36.167 C 272.521 35.662,272.803 34.500,273.011 33.583 C 273.575 31.084,274.922 28.752,276.250 27.974 L 276.917 27.583 292.167 27.489 C 309.630 27.381,308.911 27.369,309.624 27.775 M201.979 33.271 C 200.888 33.878,200.167 35.752,200.167 37.978 C 200.167 38.367,200.098 39.000,200.014 39.385 C 199.930 39.769,199.773 40.721,199.665 41.500 C 199.557 42.279,199.286 43.892,199.063 45.083 C 198.341 48.950,198.000 51.227,198.000 52.180 C 198.000 52.876,197.717 54.428,197.321 55.917 C 197.223 56.283,197.077 56.943,196.997 57.382 C 196.917 57.822,196.813 58.309,196.767 58.466 C 195.927 61.287,196.875 62.167,200.750 62.163 L 202.917 62.160 203.533 61.622 C 204.003 61.212,204.214 60.845,204.419 60.083 C 204.567 59.533,204.796 58.686,204.928 58.200 C 205.059 57.714,205.167 56.936,205.167 56.470 C 205.167 56.003,205.237 55.351,205.322 55.019 C 205.408 54.688,205.564 53.854,205.668 53.167 C 205.773 52.479,205.932 51.429,206.023 50.833 C 206.177 49.814,206.339 48.980,206.684 47.417 C 206.828 46.766,207.026 45.437,207.330 43.083 C 207.471 41.988,207.650 40.825,208.010 38.667 C 208.094 38.162,208.245 37.412,208.346 37.000 C 208.658 35.718,208.731 33.760,208.474 33.557 C 207.399 32.710,203.310 32.529,201.979 33.271 M233.500 33.272 C 231.269 34.039,230.870 34.690,230.498 38.167 C 230.217 40.795,230.138 41.248,229.841 41.917 C 229.679 42.283,229.463 43.071,229.361 43.667 C 228.975 45.938,228.667 48.173,228.667 48.701 C 228.667 49.516,228.257 51.266,227.766 52.545 C 226.934 54.716,227.266 55.959,228.817 56.477 C 229.607 56.741,246.740 56.741,248.055 56.477 C 249.381 56.211,250.512 55.071,251.090 53.417 C 251.251 52.958,251.521 52.179,251.690 51.685 C 251.860 51.190,252.063 50.703,252.142 50.601 C 252.429 50.232,252.713 48.715,253.003 46.000 C 253.589 40.525,253.838 38.509,253.991 38.001 C 254.580 36.048,254.117 34.609,252.583 33.631 L 251.917 33.206 242.833 33.196 C 237.838 33.190,233.637 33.224,233.500 33.272 M206.940 33.792 C 207.374 34.182,207.737 35.359,207.603 35.944 C 207.544 36.204,207.425 37.092,207.338 37.917 C 206.898 42.094,206.580 44.280,206.372 44.553 C 206.290 44.661,206.129 45.200,206.014 45.750 C 205.900 46.300,205.737 47.064,205.653 47.449 C 205.569 47.833,205.500 48.540,205.500 49.018 C 205.500 49.847,205.390 50.729,204.984 53.167 C 204.682 54.975,204.204 57.368,203.933 58.421 C 203.792 58.969,203.632 59.774,203.578 60.211 C 203.423 61.448,203.153 61.553,200.375 61.464 C 197.010 61.356,196.766 61.094,197.616 58.500 C 198.046 57.184,198.653 53.194,198.661 51.618 C 198.666 50.705,199.027 48.813,199.336 48.083 C 199.642 47.360,199.809 46.506,199.991 44.750 C 200.217 42.561,200.439 40.854,200.901 37.750 C 201.089 36.488,201.406 35.605,202.003 34.682 L 202.649 33.682 203.783 33.624 C 206.464 33.485,206.608 33.493,206.940 33.792 M252.580 34.736 C 253.131 35.271,253.166 35.369,253.160 36.361 C 253.144 39.155,252.530 44.993,252.007 47.333 C 250.567 53.771,249.614 55.439,247.167 55.799 C 244.709 56.161,229.752 55.962,229.214 55.561 C 228.694 55.172,228.276 53.839,228.496 53.272 C 228.666 52.836,229.087 50.682,229.331 49.000 C 229.642 46.861,229.865 45.629,230.175 44.333 C 230.609 42.526,231.047 39.807,231.224 37.833 C 231.347 36.453,232.427 34.650,233.348 34.286 C 233.477 34.235,237.726 34.187,242.789 34.180 L 251.994 34.167 252.580 34.736 " stroke="none" fill="#747470" fill-rule="evenodd"></path><path id="path4" d="M203.750 21.701 C 202.077 22.286,201.412 23.421,201.234 26.000 C 201.010 29.239,201.041 29.423,201.959 30.329 L 202.750 31.110 204.167 30.961 C 206.370 30.730,208.034 30.441,208.234 30.254 C 208.335 30.160,208.717 29.978,209.083 29.849 C 210.056 29.508,210.747 28.740,210.970 27.750 C 211.617 24.876,211.416 23.319,210.234 22.056 C 209.914 21.714,204.552 21.421,203.750 21.701 M206.973 22.424 C 211.060 22.922,211.419 23.516,210.172 27.703 C 209.730 29.187,209.045 29.536,206.000 29.832 C 202.973 30.126,201.677 29.678,201.625 28.320 C 201.570 26.838,201.884 24.399,202.198 23.878 C 202.481 23.410,204.303 22.177,204.723 22.169 C 204.800 22.168,205.812 22.282,206.973 22.424 M147.583 23.885 C 147.217 23.966,146.811 24.085,146.683 24.149 C 146.554 24.214,145.992 24.207,145.433 24.135 C 144.223 23.978,142.892 24.108,142.381 24.433 C 142.178 24.561,141.864 24.667,141.682 24.667 C 141.501 24.667,141.307 24.742,141.250 24.833 C 141.193 24.925,141.036 25.000,140.900 25.000 C 140.372 25.000,139.788 25.855,139.336 27.292 C 139.214 27.681,139.061 28.000,138.996 28.000 C 138.674 28.000,138.013 28.936,137.755 29.759 C 137.594 30.268,137.294 30.887,137.087 31.134 C 136.336 32.030,135.833 32.888,135.833 33.273 C 135.833 33.506,135.562 33.946,135.167 34.353 C 134.800 34.731,134.500 35.145,134.500 35.272 C 134.500 35.400,134.432 35.635,134.348 35.794 C 134.265 35.953,134.072 36.436,133.921 36.867 C 133.769 37.300,133.512 37.693,133.349 37.745 C 133.186 37.797,132.976 38.006,132.882 38.211 C 132.435 39.182,132.009 40.282,131.964 40.583 C 131.937 40.767,131.749 40.989,131.547 41.078 C 131.298 41.188,131.008 41.672,130.649 42.578 C 130.357 43.314,129.884 44.180,129.596 44.501 C 129.074 45.086,128.891 45.465,128.493 46.792 C 128.269 47.535,128.063 47.636,127.468 47.292 C 126.487 46.724,126.333 46.480,126.333 45.485 C 126.333 44.960,126.222 43.605,126.086 42.474 C 125.475 37.383,125.278 36.273,124.806 35.260 C 124.638 34.899,124.500 34.432,124.500 34.222 C 124.500 34.012,124.428 33.332,124.340 32.711 C 124.251 32.091,124.055 30.683,123.902 29.583 C 123.446 26.287,123.036 25.398,121.545 24.476 C 120.588 23.885,114.336 23.942,113.730 24.547 C 113.665 24.613,113.494 24.667,113.351 24.667 C 112.770 24.667,111.037 26.850,110.575 28.164 C 110.333 28.853,109.929 29.642,109.676 29.917 C 108.992 30.662,108.667 31.200,108.667 31.587 C 108.667 32.095,108.291 32.820,107.975 32.923 C 107.664 33.024,106.891 34.505,106.730 35.309 C 106.667 35.624,106.428 35.981,106.145 36.182 C 105.624 36.553,104.833 38.099,104.833 38.746 C 104.833 39.015,104.670 39.244,104.338 39.440 C 103.870 39.717,103.594 40.238,102.831 42.286 C 102.721 42.581,102.501 42.863,102.342 42.914 C 102.010 43.019,101.798 43.408,101.428 44.585 C 101.284 45.045,100.898 45.720,100.570 46.085 C 100.242 46.451,99.826 47.069,99.646 47.458 C 99.117 48.599,98.936 48.420,98.749 46.571 C 98.476 43.867,98.006 41.334,97.624 40.500 C 97.263 39.712,97.053 38.498,96.830 35.917 C 96.617 33.442,96.445 32.527,95.906 31.000 C 95.696 30.404,95.431 29.092,95.319 28.083 C 95.051 25.685,94.491 24.667,93.440 24.667 C 93.324 24.667,92.899 24.507,92.495 24.312 C 91.838 23.995,91.590 23.969,90.132 24.070 C 89.148 24.137,88.100 24.109,87.488 23.998 C 86.186 23.762,85.552 24.059,84.515 25.390 L 83.780 26.333 84.006 27.042 C 84.131 27.431,84.331 27.907,84.452 28.100 C 84.825 28.693,85.167 30.295,85.170 31.466 C 85.175 33.086,85.567 35.065,86.078 36.051 C 86.497 36.859,86.569 37.219,86.913 40.250 C 87.239 43.114,87.416 43.993,87.857 44.940 C 88.231 45.745,88.333 46.203,88.333 47.076 C 88.333 47.688,88.442 48.952,88.574 49.886 C 88.706 50.819,88.898 52.258,88.999 53.083 C 89.217 54.846,89.583 56.226,89.924 56.566 C 90.057 56.700,90.167 56.969,90.167 57.164 C 90.167 57.844,90.830 60.498,91.075 60.799 C 91.542 61.373,92.300 62.045,92.750 62.286 C 93.410 62.639,99.451 62.688,100.348 62.347 C 101.574 61.881,101.950 61.604,102.332 60.885 C 102.548 60.478,102.982 59.869,103.296 59.531 C 103.836 58.951,104.500 57.708,104.500 57.276 C 104.500 57.168,104.695 56.933,104.934 56.753 C 105.363 56.431,106.167 54.987,106.167 54.539 C 106.167 54.412,106.390 54.085,106.662 53.812 C 107.246 53.228,107.555 52.678,107.843 51.707 C 107.959 51.317,108.340 50.696,108.690 50.329 C 109.118 49.879,109.415 49.348,109.598 48.705 C 109.748 48.179,110.080 47.526,110.338 47.250 C 110.803 46.755,111.504 45.343,111.725 44.458 C 111.788 44.206,111.951 44.000,112.087 44.000 C 112.222 44.000,112.333 43.939,112.333 43.865 C 112.333 43.790,112.468 43.584,112.632 43.406 C 112.796 43.229,113.101 42.540,113.310 41.875 C 113.641 40.823,113.741 40.667,114.084 40.667 C 114.301 40.667,114.681 40.590,114.929 40.495 C 115.540 40.263,115.531 40.243,115.771 42.460 C 116.259 46.966,116.252 46.930,117.018 48.583 C 117.484 49.590,117.658 50.590,117.663 52.289 C 117.673 56.132,118.123 59.236,118.764 59.894 C 118.956 60.090,119.285 60.637,119.496 61.110 C 120.077 62.413,120.369 62.497,124.500 62.540 C 128.606 62.583,128.930 62.504,129.583 61.304 C 129.824 60.862,130.095 60.500,130.185 60.500 C 130.429 60.500,131.167 59.656,131.167 59.377 C 131.167 59.122,131.524 58.622,132.389 57.667 C 132.915 57.086,133.124 56.718,133.494 55.730 C 133.602 55.444,133.870 55.128,134.090 55.027 C 134.348 54.910,134.672 54.447,134.995 53.734 C 135.272 53.123,135.636 52.502,135.804 52.353 C 136.204 52.000,137.000 50.628,137.000 50.291 C 137.000 50.147,137.231 49.816,137.514 49.556 C 137.796 49.296,138.210 48.708,138.434 48.250 C 138.945 47.201,139.145 46.890,139.678 46.312 C 139.913 46.057,140.280 45.327,140.492 44.690 C 140.748 43.925,141.003 43.465,141.245 43.336 C 141.621 43.135,142.389 41.775,142.591 40.954 C 142.654 40.699,142.839 40.419,143.004 40.331 C 143.365 40.138,144.002 39.022,144.335 38.000 C 144.469 37.587,144.776 37.083,145.018 36.878 C 145.259 36.674,145.548 36.261,145.659 35.962 C 145.770 35.662,145.930 35.286,146.014 35.127 C 146.098 34.968,146.167 34.754,146.167 34.652 C 146.167 34.549,146.486 34.111,146.876 33.677 C 147.397 33.097,147.671 32.587,147.910 31.751 C 148.147 30.923,148.399 30.450,148.835 30.015 C 149.464 29.388,149.833 28.703,149.833 28.165 C 149.833 27.989,150.058 27.589,150.333 27.275 C 151.026 26.486,150.980 26.004,150.125 25.108 C 149.099 24.032,148.413 23.702,147.583 23.885 M159.875 24.204 C 159.302 24.291,158.833 24.431,158.833 24.515 C 158.833 24.598,158.702 24.668,158.542 24.669 C 157.749 24.676,155.833 25.750,155.833 26.188 C 155.833 26.282,155.537 26.635,155.175 26.971 C 154.527 27.574,153.833 29.177,153.833 30.071 C 153.833 30.263,153.663 30.607,153.454 30.835 C 152.985 31.348,152.740 32.169,152.513 34.000 C 152.416 34.779,152.299 35.717,152.253 36.083 C 152.207 36.450,152.122 37.275,152.064 37.917 C 152.005 38.558,151.906 39.158,151.842 39.250 C 151.734 39.406,151.624 39.755,151.078 41.667 C 150.961 42.079,150.781 43.129,150.680 44.000 C 150.578 44.871,150.412 46.296,150.311 47.167 C 150.210 48.038,150.016 49.003,149.880 49.312 C 149.288 50.654,149.068 51.703,148.830 54.333 C 148.734 55.387,148.599 56.887,148.528 57.667 C 148.304 60.156,149.067 61.754,150.710 62.231 C 151.910 62.580,185.043 62.667,185.686 62.323 C 186.784 61.736,187.278 60.931,187.388 59.554 C 187.444 58.837,187.542 57.666,187.603 56.952 C 187.827 54.371,186.563 53.456,183.090 53.681 C 182.261 53.735,176.913 53.792,171.204 53.809 C 158.315 53.847,158.833 53.961,158.833 51.083 C 158.833 49.967,159.059 49.000,159.320 49.000 C 159.375 49.000,159.643 48.794,159.915 48.542 L 160.410 48.083 170.663 48.074 C 180.917 48.064,182.628 47.996,183.228 47.576 C 183.865 47.130,184.164 46.454,184.166 45.461 C 184.167 44.349,184.469 42.214,184.684 41.792 C 184.766 41.631,184.920 41.361,185.025 41.191 C 185.285 40.772,183.931 39.398,183.106 39.243 C 182.800 39.186,178.078 39.181,172.612 39.233 C 162.734 39.326,162.671 39.324,162.354 38.983 C 161.336 37.891,161.902 35.039,163.250 34.472 C 163.525 34.357,163.895 34.128,164.073 33.965 C 164.251 33.801,164.626 33.661,164.906 33.654 C 165.187 33.648,171.010 33.629,177.846 33.613 L 190.274 33.583 190.883 33.167 C 191.513 32.735,192.333 31.232,192.333 30.510 C 192.333 30.309,192.410 30.002,192.503 29.828 C 192.719 29.423,192.973 26.336,192.798 26.228 C 192.726 26.184,192.667 26.040,192.667 25.909 C 192.667 25.517,192.134 25.006,191.250 24.552 L 190.417 24.124 175.667 24.084 C 166.942 24.061,160.491 24.110,159.875 24.204 M89.770 24.925 C 93.547 24.991,94.316 25.358,94.647 27.250 C 95.004 29.299,95.167 30.471,95.168 31.019 C 95.169 31.329,95.288 31.958,95.431 32.417 C 95.970 34.140,96.204 35.118,96.350 36.250 C 96.433 36.892,96.572 37.979,96.660 38.667 C 97.035 41.618,97.177 42.368,97.577 43.514 C 97.810 44.180,98.000 45.022,98.000 45.385 C 98.000 46.665,98.376 48.231,98.785 48.652 C 99.228 49.108,99.310 49.059,100.166 47.833 C 100.391 47.512,100.745 47.063,100.954 46.835 C 101.162 46.607,101.333 46.325,101.333 46.208 C 101.333 46.091,101.401 45.865,101.483 45.706 C 101.565 45.547,101.771 45.081,101.941 44.672 C 102.111 44.262,102.423 43.721,102.634 43.470 C 102.846 43.219,103.305 42.427,103.655 41.711 C 104.005 40.995,104.406 40.314,104.546 40.198 C 104.685 40.082,104.971 39.559,105.180 39.035 C 105.600 37.987,105.853 37.539,106.519 36.667 C 106.764 36.346,107.063 35.783,107.182 35.417 C 107.302 35.050,107.685 34.368,108.033 33.901 C 108.382 33.434,108.667 32.937,108.667 32.797 C 108.667 32.656,108.779 32.447,108.917 32.333 C 109.054 32.219,109.167 32.004,109.168 31.855 C 109.169 31.705,109.469 31.208,109.833 30.750 C 110.198 30.292,110.497 29.825,110.498 29.713 C 110.500 29.463,110.976 28.607,111.949 27.101 C 113.362 24.914,113.214 24.970,117.533 24.988 C 120.680 25.001,121.130 25.037,121.490 25.303 C 122.182 25.815,122.533 26.429,122.619 27.273 C 122.664 27.719,122.836 28.496,123.001 29.000 C 123.166 29.504,123.388 30.554,123.494 31.333 C 123.600 32.112,123.788 33.237,123.913 33.833 C 124.037 34.429,124.226 35.479,124.331 36.167 C 124.437 36.854,124.587 37.679,124.665 38.000 C 124.743 38.321,124.881 38.883,124.970 39.250 C 125.060 39.617,125.220 40.442,125.324 41.083 C 125.429 41.725,125.586 42.667,125.674 43.177 C 125.762 43.686,125.833 44.572,125.833 45.145 C 125.833 45.717,125.904 46.500,125.990 46.885 C 126.077 47.269,126.191 47.790,126.244 48.042 C 126.335 48.479,126.385 48.500,127.317 48.500 L 128.294 48.500 128.730 47.579 C 128.970 47.072,129.167 46.593,129.167 46.514 C 129.167 46.290,129.540 45.636,130.042 44.983 C 130.294 44.654,130.500 44.338,130.500 44.281 C 130.500 44.031,131.337 42.386,131.618 42.083 C 131.904 41.776,132.093 41.416,132.800 39.833 C 132.944 39.512,133.291 38.912,133.572 38.500 C 134.213 37.559,134.500 37.020,134.500 36.757 C 134.500 36.644,134.790 36.103,135.144 35.555 C 135.498 35.008,136.074 34.021,136.424 33.363 C 136.774 32.705,137.108 32.167,137.167 32.167 C 137.226 32.167,137.445 31.773,137.654 31.292 C 137.863 30.810,138.142 30.174,138.274 29.877 C 138.406 29.580,138.725 29.130,138.983 28.877 C 139.241 28.624,139.618 27.996,139.820 27.481 C 140.624 25.431,141.448 25.000,144.567 25.000 C 145.732 25.000,147.015 24.917,147.418 24.816 C 148.109 24.642,149.167 24.860,149.167 25.176 C 149.167 25.228,149.305 25.419,149.475 25.601 C 149.644 25.783,149.819 26.041,149.864 26.174 C 150.007 26.602,148.945 29.333,148.636 29.333 C 148.311 29.333,147.976 29.852,147.642 30.871 C 147.453 31.446,147.084 32.217,146.822 32.583 C 146.560 32.950,146.066 33.813,145.726 34.500 C 145.385 35.188,144.930 35.965,144.714 36.228 C 144.498 36.492,144.091 37.198,143.811 37.799 C 143.530 38.399,143.203 38.988,143.084 39.107 C 142.965 39.226,142.584 39.907,142.238 40.620 C 141.892 41.333,141.441 42.070,141.236 42.257 C 141.031 42.444,140.557 43.260,140.182 44.070 C 139.808 44.880,139.365 45.664,139.197 45.813 C 139.029 45.962,138.687 46.505,138.437 47.020 C 138.187 47.535,137.836 48.113,137.658 48.304 C 137.479 48.496,137.333 48.731,137.333 48.826 C 137.333 48.922,137.277 49.000,137.208 49.000 C 137.140 49.001,136.877 49.394,136.626 49.875 C 136.374 50.356,135.983 50.964,135.758 51.226 C 135.532 51.488,135.113 52.169,134.827 52.738 C 134.540 53.308,134.103 53.994,133.855 54.262 C 133.607 54.531,133.274 55.028,133.114 55.368 C 132.955 55.708,132.575 56.313,132.271 56.711 C 131.681 57.484,130.500 59.289,130.500 59.417 C 130.500 59.493,129.709 60.385,128.793 61.342 C 128.089 62.078,127.273 62.216,124.167 62.129 C 120.923 62.038,120.147 61.761,119.792 60.572 C 119.551 59.764,119.048 58.509,118.885 58.306 C 118.613 57.970,118.370 56.092,118.156 52.671 C 118.050 50.977,117.896 49.416,117.815 49.201 C 117.733 48.987,117.667 48.628,117.667 48.404 C 117.667 48.180,117.523 47.678,117.348 47.290 C 117.172 46.901,116.950 46.208,116.853 45.750 C 116.756 45.292,116.562 44.414,116.422 43.799 C 116.281 43.184,116.167 42.258,116.167 41.741 C 116.167 40.696,115.737 39.000,115.472 39.000 C 115.378 39.000,115.102 39.140,114.859 39.311 C 114.616 39.483,114.253 39.674,114.054 39.736 C 113.657 39.859,113.209 40.546,112.849 41.583 C 112.722 41.950,112.306 42.700,111.926 43.250 C 111.545 43.800,111.130 44.512,111.004 44.833 C 110.877 45.154,110.576 45.717,110.334 46.083 C 109.911 46.726,109.645 47.254,109.119 48.500 C 108.983 48.821,108.715 49.248,108.522 49.449 C 108.329 49.650,107.975 50.250,107.734 50.782 C 106.967 52.479,106.756 52.862,106.478 53.060 C 106.328 53.167,105.978 53.756,105.700 54.369 C 105.422 54.983,104.971 55.770,104.698 56.118 C 104.425 56.465,104.101 57.039,103.978 57.393 C 103.854 57.746,103.511 58.248,103.216 58.508 C 102.920 58.768,102.525 59.303,102.339 59.698 C 101.402 61.688,100.281 62.167,96.563 62.167 C 93.197 62.167,92.947 62.077,91.906 60.500 C 91.374 59.695,91.047 58.933,90.834 58.000 C 90.498 56.532,90.284 55.525,90.161 54.833 C 90.088 54.421,89.945 53.783,89.843 53.417 C 89.427 51.909,88.846 48.138,88.839 46.886 C 88.836 46.410,88.687 45.435,88.508 44.719 C 88.329 44.003,88.070 42.967,87.931 42.417 C 87.643 41.273,87.429 40.122,87.171 38.333 C 86.856 36.144,86.640 35.107,86.303 34.167 C 86.123 33.662,85.834 32.350,85.661 31.250 C 85.488 30.150,85.220 28.597,85.064 27.798 L 84.782 26.346 85.167 25.784 C 85.648 25.082,86.315 24.660,86.750 24.783 C 86.933 24.835,88.292 24.899,89.770 24.925 M190.576 25.091 C 191.764 25.655,192.049 26.163,191.943 27.529 C 191.565 32.417,191.057 33.143,188.083 33.052 C 182.366 32.877,164.708 33.027,163.917 33.257 C 163.007 33.522,162.261 34.107,162.070 34.708 C 162.019 34.869,161.913 35.000,161.835 35.000 C 161.757 35.000,161.600 35.281,161.488 35.625 C 161.375 35.969,161.178 36.411,161.050 36.608 C 160.894 36.848,160.834 37.334,160.867 38.082 L 160.917 39.199 161.583 39.430 C 162.124 39.618,164.209 39.662,172.619 39.664 L 182.988 39.667 183.578 40.184 C 184.257 40.780,184.307 41.173,183.936 42.967 C 183.808 43.581,183.619 44.641,183.514 45.322 C 183.153 47.676,183.939 47.535,171.250 47.519 C 160.963 47.506,159.544 47.567,159.067 48.044 C 158.405 48.706,158.110 51.936,158.600 53.160 C 159.050 54.284,158.598 54.249,172.620 54.261 C 186.022 54.273,185.546 54.245,186.438 55.083 C 187.364 55.955,186.728 60.597,185.542 61.625 L 184.917 62.168 168.417 62.117 C 150.224 62.061,151.170 62.118,149.986 61.000 C 148.778 59.860,148.711 57.143,149.782 52.750 C 150.018 51.783,150.326 50.245,150.668 48.323 C 150.759 47.814,150.833 47.144,150.833 46.834 C 150.833 46.256,151.121 45.003,151.656 43.250 C 151.957 42.264,152.138 41.192,152.502 38.250 C 152.604 37.425,152.755 36.375,152.837 35.917 C 152.919 35.458,153.073 34.596,153.181 34.000 C 153.289 33.404,153.468 32.767,153.579 32.583 C 153.777 32.258,153.849 32.007,154.171 30.532 C 154.596 28.576,156.289 26.226,157.822 25.462 L 158.583 25.083 173.417 24.998 C 181.575 24.951,188.651 24.895,189.141 24.873 C 189.679 24.849,190.249 24.936,190.576 25.091 M239.692 25.500 L 225.968 25.583 225.589 26.059 C 225.156 26.603,224.284 28.304,223.997 29.167 C 223.753 29.898,223.340 33.005,223.006 36.602 C 222.907 37.672,222.700 38.676,222.439 39.352 C 221.974 40.552,221.759 41.723,221.493 44.500 C 221.084 48.765,221.026 49.127,220.615 49.940 C 220.099 50.962,219.896 52.008,219.663 54.833 C 219.459 57.307,219.210 58.783,218.931 59.167 C 217.778 60.757,217.898 63.019,219.167 63.615 C 220.160 64.081,221.388 64.120,236.185 64.157 C 254.190 64.203,254.321 64.194,255.387 62.876 C 255.554 62.669,255.772 62.500,255.872 62.500 C 256.135 62.500,257.000 61.486,257.000 61.178 C 257.000 61.034,257.281 60.608,257.625 60.232 C 258.231 59.568,258.667 58.366,258.667 57.360 C 258.667 56.887,259.148 55.368,259.446 54.903 C 259.852 54.269,260.126 52.940,260.321 50.667 C 260.678 46.516,260.813 45.365,260.996 44.917 C 261.399 43.935,261.534 43.417,261.843 41.667 C 262.545 37.691,262.678 30.201,262.074 28.691 C 261.906 28.273,261.446 27.710,260.868 27.216 C 260.353 26.776,259.768 26.253,259.568 26.053 C 258.909 25.394,258.606 25.385,239.692 25.500 M292.297 25.499 C 277.200 25.581,276.835 25.591,276.464 25.913 C 276.255 26.095,275.708 26.437,275.250 26.674 C 274.700 26.958,274.304 27.311,274.086 27.712 C 273.904 28.046,273.588 28.408,273.384 28.517 C 272.919 28.766,272.448 29.776,272.171 31.119 C 272.048 31.715,271.819 32.279,271.632 32.448 C 271.129 32.903,270.904 33.604,270.680 35.417 C 270.567 36.333,270.405 37.539,270.320 38.097 C 270.236 38.654,270.167 39.349,270.167 39.641 C 270.167 39.933,270.100 40.301,270.019 40.461 C 269.854 40.786,269.590 41.418,269.411 41.917 C 269.345 42.100,269.233 42.850,269.163 43.583 C 268.733 48.056,268.324 51.213,268.161 51.333 C 267.320 51.949,266.522 60.339,267.154 61.917 C 268.069 64.201,267.811 64.172,287.188 64.159 C 307.180 64.146,305.533 64.489,305.977 60.245 C 306.318 56.979,306.202 56.268,305.160 55.208 L 304.627 54.667 291.808 54.667 C 278.316 54.667,278.577 54.679,278.000 53.992 C 277.954 53.937,277.778 53.841,277.608 53.778 C 277.392 53.698,277.335 53.576,277.420 53.374 C 277.547 53.070,277.675 52.532,277.985 51.000 C 278.275 49.566,277.376 49.667,289.840 49.667 C 299.734 49.667,301.008 49.637,301.489 49.397 C 302.044 49.120,302.665 48.287,302.666 47.817 C 302.666 47.671,302.794 47.296,302.950 46.984 C 303.106 46.672,303.289 46.042,303.358 45.583 C 303.426 45.125,303.562 44.288,303.659 43.723 C 303.886 42.407,303.740 42.025,302.588 40.900 L 301.689 40.022 291.278 40.089 L 280.867 40.157 280.621 39.620 C 280.376 39.083,280.410 38.392,280.791 36.192 C 281.005 34.957,280.406 35.005,295.627 35.003 C 312.107 34.999,310.905 35.254,311.198 31.698 C 311.279 30.718,311.417 29.744,311.506 29.534 C 312.335 27.562,310.939 25.305,308.933 25.374 C 308.282 25.396,300.796 25.452,292.297 25.499 M256.667 26.410 C 259.550 26.570,259.648 26.615,261.080 28.423 C 262.293 29.954,262.366 37.478,261.198 40.667 C 261.014 41.171,260.777 42.333,260.673 43.250 C 260.488 44.871,260.367 45.737,260.007 48.019 C 259.912 48.626,259.833 49.404,259.833 49.750 C 259.833 50.095,259.752 50.687,259.653 51.064 C 259.555 51.441,259.410 52.012,259.333 52.333 C 259.256 52.654,259.100 53.254,258.987 53.667 C 258.874 54.079,258.722 54.717,258.649 55.083 C 258.361 56.547,258.311 56.775,258.139 57.417 C 257.963 58.078,257.341 59.507,257.160 59.667 C 257.108 59.712,256.942 60.018,256.790 60.345 C 256.342 61.307,254.719 62.814,253.604 63.302 C 252.701 63.697,220.525 63.600,219.810 63.200 L 219.250 62.887 219.268 61.568 C 219.277 60.843,219.372 59.913,219.477 59.500 C 219.582 59.087,219.780 57.962,219.916 57.000 C 220.052 56.038,220.244 54.688,220.342 54.000 C 220.440 53.313,220.662 52.262,220.836 51.667 C 221.323 49.995,221.667 48.445,221.667 47.915 C 221.667 46.972,222.036 44.550,222.504 42.417 C 223.089 39.753,223.267 38.719,223.508 36.583 C 223.691 34.953,224.031 33.083,224.325 32.083 C 224.406 31.808,224.559 31.021,224.665 30.333 C 225.103 27.498,225.637 26.591,227.000 26.363 C 227.994 26.197,253.572 26.237,256.667 26.410 M309.948 26.410 C 310.511 26.551,311.228 27.875,311.104 28.546 C 311.050 28.841,310.888 29.908,310.745 30.916 C 310.602 31.924,310.413 32.820,310.326 32.908 C 310.238 32.995,310.166 33.183,310.165 33.325 C 310.163 33.467,309.882 33.769,309.540 33.996 L 308.917 34.409 295.667 34.439 C 279.199 34.476,280.747 34.229,280.183 36.909 C 279.666 39.362,279.925 40.854,280.909 41.094 C 281.571 41.256,299.905 41.043,300.450 40.867 C 300.866 40.733,301.025 40.747,301.178 40.931 C 301.286 41.061,301.472 41.167,301.591 41.167 C 302.030 41.167,303.030 42.551,302.916 43.000 C 302.858 43.229,302.705 44.193,302.576 45.143 C 302.290 47.253,302.059 47.942,301.433 48.560 L 300.950 49.037 290.056 49.022 L 279.162 49.007 278.257 49.420 C 277.124 49.939,277.184 49.818,276.999 51.927 C 276.799 54.208,276.933 54.576,278.198 55.216 L 279.113 55.679 291.883 55.658 L 304.653 55.638 305.035 56.027 C 305.701 56.706,305.785 57.118,305.627 58.917 C 305.382 61.695,305.031 62.666,304.090 63.168 L 303.418 63.527 286.834 63.508 C 270.499 63.489,269.167 63.449,269.167 62.967 C 269.167 62.893,269.088 62.833,268.992 62.833 C 267.479 62.833,266.963 58.216,268.052 54.417 C 268.435 53.078,269.031 50.018,269.333 47.833 C 269.440 47.054,269.645 45.854,269.787 45.167 C 270.123 43.543,270.493 41.073,270.836 38.167 C 271.088 36.028,271.236 35.316,271.652 34.236 C 271.861 33.694,272.090 33.100,272.160 32.917 C 272.298 32.556,272.503 31.874,272.855 30.616 C 272.985 30.150,273.341 29.524,273.709 29.116 C 274.055 28.731,274.464 28.215,274.617 27.968 C 274.778 27.707,275.418 27.254,276.147 26.885 L 277.400 26.250 293.487 26.283 C 302.335 26.301,309.742 26.358,309.948 26.410 M201.507 32.398 C 200.001 32.882,199.909 33.138,199.324 38.492 C 199.229 39.358,199.085 40.148,199.003 40.246 C 198.536 40.810,198.000 43.283,198.000 44.883 C 197.999 46.015,197.909 47.026,197.490 50.583 C 197.393 51.408,197.176 52.458,197.008 52.917 C 196.358 54.684,196.170 55.676,195.978 58.358 C 195.666 62.697,195.809 62.850,200.135 62.804 C 203.905 62.764,204.563 62.542,205.230 61.083 C 205.549 60.384,205.833 58.952,205.835 58.029 C 205.837 56.941,206.306 53.290,206.458 53.177 C 206.939 52.819,207.261 51.448,207.499 48.750 C 207.604 47.558,207.760 46.127,207.845 45.570 C 207.930 45.012,208.000 44.037,208.001 43.403 C 208.001 42.589,208.090 42.103,208.302 41.750 C 208.905 40.747,209.494 37.801,209.504 35.741 C 209.506 35.288,209.573 34.635,209.653 34.291 C 209.838 33.495,209.358 32.709,208.500 32.401 C 207.760 32.136,202.332 32.134,201.507 32.398 M206.211 32.739 C 209.265 32.867,209.605 33.819,208.330 38.667 C 208.127 39.439,208.063 39.841,207.602 43.250 C 207.010 47.623,206.684 49.617,206.476 50.148 C 206.390 50.367,206.245 51.080,206.154 51.732 C 206.064 52.383,205.916 53.292,205.827 53.750 C 205.738 54.208,205.591 55.296,205.500 56.167 C 205.268 58.385,205.112 59.152,204.668 60.250 C 204.594 60.433,204.447 60.808,204.342 61.083 C 203.933 62.153,203.588 62.250,200.197 62.250 C 197.656 62.250,197.119 62.208,197.003 62.000 C 196.926 61.862,196.700 61.563,196.502 61.335 C 196.262 61.058,196.169 60.780,196.223 60.501 C 196.269 60.271,196.391 59.446,196.494 58.667 C 196.719 56.976,196.934 55.929,197.336 54.583 C 197.500 54.033,197.723 52.683,197.832 51.583 C 197.940 50.483,198.092 49.208,198.169 48.750 C 198.246 48.292,198.393 47.167,198.495 46.250 C 198.597 45.333,198.782 44.246,198.906 43.833 C 199.030 43.421,199.219 42.558,199.326 41.917 C 199.433 41.275,199.591 40.388,199.677 39.946 C 199.763 39.503,199.833 38.848,199.833 38.490 C 199.833 37.710,200.129 35.700,200.393 34.686 C 200.710 33.469,202.166 32.490,203.500 32.597 C 203.912 32.630,205.133 32.694,206.211 32.739 M239.992 34.495 L 233.234 34.583 232.826 35.001 C 232.142 35.700,231.717 36.844,231.429 38.759 C 231.278 39.762,231.074 41.108,230.975 41.750 C 230.806 42.854,230.475 44.543,230.174 45.833 C 229.872 47.128,229.513 49.166,229.336 50.583 C 229.234 51.408,229.047 52.443,228.921 52.883 C 228.678 53.734,228.954 54.764,229.600 55.409 C 229.922 55.731,245.839 55.799,247.367 55.485 C 248.276 55.298,249.506 54.270,249.754 53.489 C 249.810 53.312,249.914 53.167,249.985 53.167 C 250.056 53.167,250.287 52.623,250.497 51.958 C 250.708 51.294,250.944 50.578,251.023 50.367 C 251.102 50.157,251.168 49.782,251.171 49.534 C 251.173 49.286,251.331 48.521,251.523 47.833 C 252.067 45.879,252.400 43.687,252.663 40.333 C 252.752 39.188,252.865 37.950,252.913 37.583 C 253.264 34.903,252.499 34.326,248.667 34.380 C 247.612 34.395,243.709 34.447,239.992 34.495 M252.095 35.238 C 252.506 35.649,252.297 42.212,251.835 43.417 C 251.764 43.600,251.590 44.050,251.448 44.417 C 251.174 45.121,250.983 46.147,250.591 49.000 C 250.261 51.408,250.185 51.672,249.642 52.297 C 249.381 52.599,249.167 52.960,249.167 53.100 C 249.167 53.591,248.340 54.462,247.785 54.556 C 247.491 54.606,243.362 54.670,238.610 54.698 L 229.970 54.750 229.714 54.263 C 229.530 53.911,229.486 53.516,229.558 52.846 C 229.612 52.335,229.727 51.226,229.814 50.382 C 229.901 49.538,230.102 48.601,230.260 48.299 C 230.418 47.997,230.609 47.625,230.684 47.471 C 230.759 47.318,230.903 46.530,231.004 45.721 C 231.106 44.912,231.264 43.762,231.355 43.167 C 231.447 42.571,231.594 41.384,231.681 40.529 C 231.768 39.674,231.950 38.709,232.086 38.384 C 232.222 38.059,232.333 37.652,232.333 37.480 C 232.333 37.308,232.393 37.167,232.467 37.167 C 232.627 37.167,233.000 36.181,233.000 35.757 C 233.000 35.017,233.082 35.011,242.720 35.005 C 250.422 35.001,251.895 35.037,252.095 35.238 " stroke="none" fill="#a4a4a4" fill-rule="evenodd"></path></g></svg>