<svg width="14" height="19" viewBox="0 0 14 19" fill="none" xmlns="http://www.w3.org/2000/svg">
<path d="M1.375 18.125H12.625C12.9297 18.125 13.1875 18.0078 13.3984 17.7734C13.6328 17.5625 13.75 17.3047 13.75 17V4.625C13.75 4.32031 13.6328 4.0625 13.3984 3.85156C13.1875 3.61719 12.9297 3.5 12.625 3.5H10.375C10.3516 2.5625 10.0117 1.76563 9.35547 1.10938C8.69922 0.453125 7.91406 0.125 7 0.125C6.08594 0.125 5.30078 0.453125 4.64453 1.10938C3.98828 1.76563 3.64844 2.5625 3.625 3.5H1.375C1.07031 3.5 0.800781 3.61719 0.566406 3.85156C0.355469 4.0625 0.25 4.32031 0.25 4.625V17C0.25 17.3047 0.355469 17.5625 0.566406 17.7734C0.800781 18.0078 1.07031 18.125 1.375 18.125ZM12.625 4.625V17H1.375V4.625H12.625ZM5.41797 1.91797C5.86328 1.47266 6.39062 1.25 7 1.25C7.60938 1.25 8.125 1.47266 8.54688 1.91797C8.99219 2.33984 9.22656 2.86719 9.25 3.5H4.75C4.77344 2.86719 4.99609 2.33984 5.41797 1.91797ZM5.3125 6.875H8.6875C8.85156 6.875 8.98047 6.82813 9.07422 6.73438C9.19141 6.61719 9.25 6.47656 9.25 6.3125C9.25 6.14844 9.19141 6.01953 9.07422 5.92578C8.98047 5.80859 8.85156 5.75 8.6875 5.75H5.3125C5.14844 5.75 5.00781 5.80859 4.89062 5.92578C4.79688 6.01953 4.75 6.14844 4.75 6.3125C4.75 6.47656 4.79688 6.61719 4.89062 6.73438C5.00781 6.82813 5.14844 6.875 5.3125 6.875Z" fill="white"/>
</svg>
