<svg width="11" height="12" viewBox="0 0 11 12" fill="none" xmlns="http://www.w3.org/2000/svg">
<path d="M2.375 2.375V1.0625C2.375 0.934896 2.32943 0.834635 2.23828 0.761719C2.16536 0.670573 2.0651 0.625 1.9375 0.625C1.8099 0.625 1.70052 0.670573 1.60938 0.761719C1.53646 0.834635 1.5 0.934896 1.5 1.0625V2.375C1.26302 2.375 1.05339 2.46615 0.871094 2.64844C0.707031 2.8125 0.625 3.01302 0.625 3.25V4.125C0.625 4.36198 0.707031 4.57161 0.871094 4.75391C1.05339 4.91797 1.26302 5 1.5 5V10.6875C1.5 10.8151 1.53646 10.9245 1.60938 11.0156C1.70052 11.0885 1.8099 11.125 1.9375 11.125C2.0651 11.125 2.16536 11.0885 2.23828 11.0156C2.32943 10.9245 2.375 10.8151 2.375 10.6875V5C2.61198 5 2.8125 4.91797 2.97656 4.75391C3.15885 4.57161 3.25 4.36198 3.25 4.125V3.25C3.25 3.01302 3.15885 2.8125 2.97656 2.64844C2.8125 2.46615 2.61198 2.375 2.375 2.375ZM1.5 3.25H2.375V4.125H1.5V3.25ZM5.875 6.75V1.0625C5.875 0.934896 5.82943 0.834635 5.73828 0.761719C5.66536 0.670573 5.5651 0.625 5.4375 0.625C5.3099 0.625 5.20052 0.670573 5.10938 0.761719C5.03646 0.834635 5 0.934896 5 1.0625V6.75C4.76302 6.75 4.55339 6.84115 4.37109 7.02344C4.20703 7.1875 4.125 7.38802 4.125 7.625V8.5C4.125 8.73698 4.20703 8.94661 4.37109 9.12891C4.55339 9.29297 4.76302 9.375 5 9.375V10.6875C5 10.8151 5.03646 10.9245 5.10938 11.0156C5.20052 11.0885 5.3099 11.125 5.4375 11.125C5.5651 11.125 5.66536 11.0885 5.73828 11.0156C5.82943 10.9245 5.875 10.8151 5.875 10.6875V9.375C6.11198 9.375 6.3125 9.29297 6.47656 9.12891C6.65885 8.94661 6.75 8.73698 6.75 8.5V7.625C6.75 7.38802 6.65885 7.1875 6.47656 7.02344C6.3125 6.84115 6.11198 6.75 5.875 6.75ZM5 7.625H5.875V8.5H5V7.625ZM9.375 4.125V1.0625C9.375 0.934896 9.32943 0.834635 9.23828 0.761719C9.16536 0.670573 9.0651 0.625 8.9375 0.625C8.8099 0.625 8.70052 0.670573 8.60938 0.761719C8.53646 0.834635 8.5 0.934896 8.5 1.0625V4.125C8.26302 4.125 8.05339 4.21615 7.87109 4.39844C7.70703 4.5625 7.625 4.76302 7.625 5V5.875C7.625 6.11198 7.70703 6.32161 7.87109 6.50391C8.05339 6.66797 8.26302 6.75 8.5 6.75V10.6875C8.5 10.8151 8.53646 10.9245 8.60938 11.0156C8.70052 11.0885 8.8099 11.125 8.9375 11.125C9.0651 11.125 9.16536 11.0885 9.23828 11.0156C9.32943 10.9245 9.375 10.8151 9.375 10.6875V6.75C9.61198 6.75 9.8125 6.66797 9.97656 6.50391C10.1589 6.32161 10.25 6.11198 10.25 5.875V5C10.25 4.76302 10.1589 4.5625 9.97656 4.39844C9.8125 4.21615 9.61198 4.125 9.375 4.125ZM8.5 5H9.375V5.875H8.5V5Z" fill="black"/>
</svg>
