<svg width="16" height="14" viewBox="0 0 16 14" fill="none" xmlns="http://www.w3.org/2000/svg">
<path d="M8.07031 11.9219C9.19531 10.9141 10.0273 10.1523 10.5664 9.63672C11.1055 9.12109 11.6914 8.51172 12.3242 7.80859C12.957 7.10547 13.3906 6.48438 13.625 5.94531C13.8828 5.40625 14.0117 4.87891 14.0117 4.36328C14.0117 3.61328 13.7539 2.99219 13.2383 2.5C12.7461 2.00781 12.125 1.76172 11.375 1.76172C10.7891 1.76172 10.2383 1.92578 9.72266 2.25391C9.23047 2.58203 8.89062 3.00391 8.70312 3.51953H7.29688C7.10938 3.00391 6.75781 2.58203 6.24219 2.25391C5.75 1.92578 5.21094 1.76172 4.625 1.76172C3.875 1.76172 3.24219 2.00781 2.72656 2.5C2.23438 2.99219 1.98828 3.61328 1.98828 4.36328C1.98828 4.87891 2.10547 5.40625 2.33984 5.94531C2.59766 6.48438 3.04297 7.10547 3.67578 7.80859C4.30859 8.51172 4.89453 9.12109 5.43359 9.63672C5.97266 10.1523 6.80469 10.9141 7.92969 11.9219L8 11.9922L8.07031 11.9219ZM11.375 0.25C12.5469 0.25 13.5195 0.648437 14.293 1.44531C15.0898 2.24219 15.4883 3.21484 15.4883 4.36328C15.4883 5.04297 15.3594 5.71094 15.1016 6.36719C14.8438 7 14.3633 7.71484 13.6602 8.51172C12.9805 9.30859 12.3594 9.97656 11.7969 10.5156C11.2344 11.0547 10.332 11.8867 9.08984 13.0117L8 13.9961L6.91016 13.0469C5.29297 11.5938 4.12109 10.5039 3.39453 9.77734C2.69141 9.05078 2.03516 8.19531 1.42578 7.21094C0.816406 6.22656 0.511719 5.27734 0.511719 4.36328C0.511719 3.21484 0.898438 2.24219 1.67188 1.44531C2.46875 0.648437 3.45312 0.25 4.625 0.25C5.98438 0.25 7.10938 0.777344 8 1.83203C8.89062 0.777344 10.0156 0.25 11.375 0.25Z" fill="black"/>
</svg>
