<svg width="18" height="19" viewBox="0 0 18 19" fill="none" xmlns="http://www.w3.org/2000/svg">
<path d="M17.1914 0.125H0.808594C0.597656 0.125 0.410156 0.207031 0.246094 0.371094C0.0820313 0.535156 0 0.722656 0 0.933594V17.3164C0 17.5273 0.0820313 17.7148 0.246094 17.8789C0.410156 18.043 0.597656 18.125 0.808594 18.125H17.1914C17.4023 18.125 17.5898 18.043 17.7539 17.8789C17.918 17.7148 18 17.5273 18 17.3164V0.933594C18 0.722656 17.918 0.535156 17.7539 0.371094C17.5898 0.207031 17.4023 0.125 17.1914 0.125ZM11.2148 6.91016C11.8242 7.51953 12.1289 8.25781 12.1289 9.125C12.1289 9.99219 11.8242 10.7305 11.2148 11.3398C10.6055 11.9492 9.86719 12.2539 9 12.2539C8.13281 12.2539 7.39453 11.9492 6.78516 11.3398C6.17578 10.7305 5.87109 9.99219 5.87109 9.125C5.87109 8.25781 6.17578 7.51953 6.78516 6.91016C7.39453 6.30078 8.13281 5.99609 9 5.99609C9.86719 5.99609 10.6055 6.30078 11.2148 6.91016ZM15.75 15.875H2.25V8H3.72656C3.65625 8.375 3.62109 8.75 3.62109 9.125C3.62109 10.6016 4.14844 11.8672 5.20312 12.9219C6.25781 13.9766 7.52344 14.5039 9 14.5039C10.4766 14.5039 11.7422 13.9766 12.7969 12.9219C13.8516 11.8672 14.3789 10.6016 14.3789 9.125C14.3789 8.75 14.3438 8.375 14.2734 8H15.75V15.875ZM15.75 5.75H12.375V2.375H15.75V5.75Z" fill="white"/>
</svg>
