<svg width="34" height="40" viewBox="0 0 34 40" fill="none" xmlns="http://www.w3.org/2000/svg">
<path d="M32.7867 6.47703L17.4742 0.119443C17.0906 -0.0397754 16.6594 -0.0398535 16.2759 0.119443L0.96336 6.47703C0.380157 6.71921 0 7.28859 0 7.92007V15.6486C0 26.2902 6.43196 35.8627 16.2845 39.8842C16.663 40.0386 17.087 40.0386 17.4655 39.8842C27.3179 35.8628 33.75 26.2903 33.75 15.6486V7.92007C33.75 7.28859 33.3699 6.71921 32.7867 6.47703ZM30.625 15.6486C30.625 24.6951 25.3125 33.023 16.875 36.7403C8.66297 33.1223 3.125 24.9402 3.125 15.6486V8.9632L16.875 3.25429L30.625 8.9632V15.6486ZM15.148 20.9153L21.8639 14.1995C22.4741 13.5893 23.4634 13.5892 24.0736 14.1995C24.6838 14.8097 24.6838 15.799 24.0735 16.4091L16.2528 24.2299C15.6425 24.8402 14.6532 24.8399 14.0431 24.2299L9.67641 19.8631C9.06618 19.2529 9.06618 18.2636 9.67641 17.6534C10.2866 17.0433 11.2759 17.0432 11.8861 17.6534L15.148 20.9153Z" fill="white"/>
</svg>
