<svg width="18" height="14" viewBox="0 0 18 14" fill="none" xmlns="http://www.w3.org/2000/svg">
<path d="M15.5742 0.972656C10.6992 0.644531 6.31641 0.644531 2.42578 0.972656C1.81641 1.04297 1.30078 1.38281 0.878906 1.99219C0.457031 2.60156 0.210938 3.23437 0.140625 3.89062C-0.0234375 6.04688 -0.0234375 8.20312 0.140625 10.3594C0.210938 11.0156 0.457031 11.6484 0.878906 12.2578C1.30078 12.8672 1.81641 13.2188 2.42578 13.3125C7.16016 13.6172 11.543 13.6172 15.5742 13.3125C16.1836 13.1953 16.6992 12.832 17.1211 12.2227C17.543 11.6133 17.7891 10.9922 17.8594 10.3594C18.0234 8.15625 18.0234 5.94141 17.8594 3.71484C17.7891 3.03516 17.5547 2.41406 17.1562 1.85156C16.7812 1.28906 16.2539 0.996094 15.5742 0.972656ZM6.75 10.3242V3.85547L12.375 7.08984L6.75 10.3242Z" fill="white"/>
</svg>
