<svg width="15" height="21" viewBox="0 0 15 21" fill="none" xmlns="http://www.w3.org/2000/svg">
<path opacity="0.2" d="M13.25 1.5H10.75C10.75 1.16146 10.6198 0.875 10.3594 0.640625C10.125 0.380208 9.83854 0.25 9.5 0.25H5.75C5.41146 0.25 5.11198 0.380208 4.85156 0.640625C4.61719 0.875 4.5 1.16146 4.5 1.5H2C1.66146 1.5 1.36198 1.63021 1.10156 1.89062C0.867188 2.125 0.75 2.41146 0.75 2.75H14.5C14.5 2.41146 14.3698 2.125 14.1094 1.89062C13.875 1.63021 13.5885 1.5 13.25 1.5ZM0.75 19C0.75 19.3385 0.867188 19.625 1.10156 19.8594C1.36198 20.1198 1.66146 20.25 2 20.25H13.25C13.5885 20.25 13.875 20.1198 14.1094 19.8594C14.3698 19.625 14.5 19.3385 14.5 19V4H0.75V19ZM2 5.25H13.25V19H2V5.25ZM4.30469 6.69531C4.20052 6.5651 4.05729 6.5 3.875 6.5C3.69271 6.5 3.53646 6.5651 3.40625 6.69531C3.30208 6.79948 3.25 6.94271 3.25 7.125V17.125C3.25 17.3073 3.30208 17.4635 3.40625 17.5938C3.53646 17.6979 3.69271 17.75 3.875 17.75C4.05729 17.75 4.20052 17.6979 4.30469 17.5938C4.4349 17.4635 4.5 17.3073 4.5 17.125V7.125C4.5 6.94271 4.4349 6.79948 4.30469 6.69531ZM8.05469 6.69531C7.95052 6.5651 7.80729 6.5 7.625 6.5C7.44271 6.5 7.28646 6.5651 7.15625 6.69531C7.05208 6.79948 7 6.94271 7 7.125V17.125C7 17.3073 7.05208 17.4635 7.15625 17.5938C7.28646 17.6979 7.44271 17.75 7.625 17.75C7.80729 17.75 7.95052 17.6979 8.05469 17.5938C8.1849 17.4635 8.25 17.3073 8.25 17.125V7.125C8.25 6.94271 8.1849 6.79948 8.05469 6.69531ZM11.8047 6.69531C11.7005 6.5651 11.5573 6.5 11.375 6.5C11.1927 6.5 11.0365 6.5651 10.9062 6.69531C10.8021 6.79948 10.75 6.94271 10.75 7.125V17.125C10.75 17.3073 10.8021 17.4635 10.9062 17.5938C11.0365 17.6979 11.1927 17.75 11.375 17.75C11.5573 17.75 11.7005 17.6979 11.8047 17.5938C11.9349 17.4635 12 17.3073 12 17.125V7.125C12 6.94271 11.9349 6.79948 11.8047 6.69531Z" fill="black"/>
</svg>
