<svg id="svg" version="1.1" xmlns="http://www.w3.org/2000/svg" xmlns:xlink="http://www.w3.org/1999/xlink" width="400" height="400" viewBox="0, 0, 400,400"><g id="svgg"><path id="path0" d="M172.323 162.248 C 171.784 162.788,171.753 163.106,172.138 164.148 C 173.131 166.838,172.755 200.524,171.715 201.930 C 170.516 203.551,170.718 203.600,178.645 203.600 C 186.160 203.600,186.167 203.597,184.820 200.552 C 183.771 198.180,183.381 169.428,184.382 168.222 C 185.541 166.825,188.883 167.913,190.032 170.059 C 192.391 174.468,191.291 180.347,187.328 184.500 C 186.695 185.163,186.789 185.200,189.106 185.200 C 190.452 185.200,191.656 185.032,191.783 184.827 C 191.910 184.622,193.016 184.230,194.240 183.956 C 203.945 181.784,205.304 166.261,196.096 162.760 C 192.901 161.546,173.445 161.127,172.323 162.248 M213.752 161.875 C 212.974 162.028,212.890 162.362,212.716 165.963 C 212.577 168.861,212.304 170.346,211.672 171.652 C 211.201 172.624,210.699 174.045,210.555 174.810 C 210.412 175.574,209.977 176.830,209.588 177.600 C 208.870 179.021,207.613 182.601,206.582 186.158 C 206.270 187.235,205.652 188.867,205.208 189.784 C 204.763 190.702,204.400 191.836,204.400 192.305 C 204.400 192.774,203.950 194.004,203.400 195.038 C 202.850 196.073,202.400 197.227,202.400 197.604 C 202.400 197.980,201.950 198.951,201.400 199.762 C 200.850 200.572,200.400 201.397,200.400 201.595 C 200.400 201.793,200.034 202.211,199.586 202.525 C 198.465 203.310,199.984 203.602,205.150 203.594 C 209.291 203.587,210.188 203.344,209.585 202.389 C 208.482 200.646,209.896 193.549,211.734 191.601 L 212.868 190.400 218.465 190.400 C 224.930 190.400,225.995 190.908,226.530 194.250 C 226.674 195.154,227.063 196.413,227.394 197.047 C 228.195 198.584,228.155 199.927,227.254 201.693 C 226.265 203.634,226.121 203.600,235.409 203.600 C 242.461 203.600,244.410 203.348,243.190 202.594 C 242.053 201.891,239.161 196.032,237.764 191.600 C 237.452 190.610,236.948 189.260,236.644 188.600 C 235.569 186.265,234.320 182.976,233.808 181.131 C 233.522 180.103,232.999 178.848,232.644 178.342 C 232.290 177.836,232.000 177.060,232.000 176.617 C 232.000 176.174,231.566 174.909,231.036 173.806 C 230.505 172.703,229.800 170.990,229.469 170.000 C 226.581 161.366,226.835 161.585,219.800 161.656 C 216.940 161.685,214.219 161.784,213.752 161.875 M238.636 162.251 C 238.234 163.298,238.505 163.815,241.127 167.010 C 241.313 167.236,241.806 167.956,242.223 168.610 C 242.640 169.265,243.091 169.890,243.225 170.000 C 243.359 170.110,244.212 171.370,245.120 172.800 C 246.028 174.230,246.920 175.580,247.102 175.800 C 247.284 176.020,248.128 177.280,248.977 178.600 C 249.827 179.920,250.989 181.707,251.561 182.571 L 252.600 184.141 252.533 192.528 C 252.471 200.288,252.405 200.997,251.648 202.020 C 250.525 203.539,250.796 203.601,258.533 203.594 C 266.514 203.586,267.133 203.200,264.894 199.625 C 262.876 196.404,263.977 183.812,266.513 181.112 C 266.781 180.828,267.713 179.516,268.584 178.197 C 269.455 176.879,270.402 175.530,270.689 175.200 C 271.258 174.545,273.543 171.263,277.047 166.067 C 279.874 161.873,279.837 161.827,273.582 161.746 C 268.135 161.675,268.200 161.638,268.200 164.800 C 268.200 166.388,267.966 167.334,267.360 168.200 C 266.897 168.860,265.862 170.390,265.059 171.600 C 264.255 172.810,263.026 174.410,262.327 175.155 L 261.057 176.510 259.828 175.005 C 259.153 174.177,258.240 172.920,257.800 172.211 C 257.360 171.503,256.653 170.400,256.230 169.761 C 255.806 169.123,254.515 167.137,253.360 165.350 C 250.917 161.568,250.986 161.593,243.336 161.620 C 239.699 161.633,238.828 161.750,238.636 162.251 M220.225 176.225 C 220.679 177.531,221.354 179.269,221.725 180.087 C 223.457 183.904,222.402 185.277,217.864 185.115 C 214.036 184.979,213.106 183.983,214.516 181.528 C 214.897 180.864,215.492 179.076,215.837 177.556 C 216.349 175.306,216.665 174.683,217.533 174.212 C 219.057 173.386,219.303 173.570,220.225 176.225 M110.415 212.696 C 109.654 212.788,108.789 213.209,108.493 213.632 C 108.197 214.054,107.729 214.400,107.454 214.400 C 106.579 214.400,105.489 217.483,105.792 219.101 C 106.063 220.541,108.827 223.600,109.858 223.600 C 110.456 223.600,112.800 226.272,112.800 226.954 C 112.800 229.556,110.393 231.213,107.530 230.585 C 106.163 230.284,102.800 230.691,102.800 231.156 C 102.800 231.897,106.771 233.309,108.283 233.106 C 115.495 232.139,118.081 226.494,113.179 222.415 C 111.848 221.307,110.585 220.400,110.374 220.400 C 109.380 220.400,108.218 216.864,108.947 216.059 C 110.004 214.891,112.875 214.208,114.439 214.754 C 116.585 215.502,117.200 215.346,117.200 214.054 C 117.200 212.564,115.054 212.134,110.415 212.696 M212.695 212.646 C 212.573 212.844,212.346 213.725,212.191 214.603 C 212.037 215.481,211.629 216.646,211.286 217.191 C 210.928 217.760,210.539 219.679,210.371 221.700 C 210.211 223.636,209.820 225.620,209.503 226.109 C 208.449 227.737,208.208 232.800,209.185 232.800 C 210.317 232.800,211.600 230.733,211.600 228.908 C 211.600 226.813,212.430 225.208,213.523 225.187 C 213.895 225.180,215.190 224.826,216.400 224.400 C 217.610 223.974,219.159 223.620,219.842 223.613 C 223.753 223.572,226.373 216.354,223.379 213.867 C 221.962 212.690,213.281 211.698,212.695 212.646 M220.229 215.256 C 224.360 217.197,221.825 222.400,216.747 222.400 C 213.490 222.400,213.176 222.041,213.595 218.800 C 214.209 214.062,215.838 213.192,220.229 215.256 M178.400 215.200 C 178.400 215.657,177.513 216.592,175.830 217.909 L 174.669 218.818 175.583 219.670 C 176.699 220.710,176.622 225.591,175.462 227.362 C 173.766 229.950,175.387 233.200,178.374 233.200 C 179.687 233.200,179.604 231.947,178.198 230.541 C 176.248 228.591,179.229 219.600,181.825 219.600 C 183.876 219.600,184.032 218.430,182.063 217.815 C 181.526 217.648,180.884 216.942,180.558 216.161 C 180.025 214.884,178.400 214.161,178.400 215.200 M155.800 217.857 C 151.951 218.584,150.799 218.923,150.792 219.329 C 150.765 220.911,149.902 225.498,149.432 226.551 C 148.680 228.237,148.355 230.773,148.717 232.127 L 149.014 233.238 150.051 232.119 C 151.091 230.996,152.000 227.682,152.000 225.010 C 152.000 224.318,152.264 223.404,152.587 222.976 C 152.910 222.549,153.180 221.913,153.187 221.562 C 153.223 219.769,156.463 218.992,158.820 220.210 C 160.169 220.908,160.414 222.598,159.436 224.472 C 158.758 225.771,158.224 231.989,158.727 232.732 C 160.036 234.667,162.974 222.314,161.881 219.468 C 161.478 218.417,157.880 217.463,155.800 217.857 M231.800 217.859 C 227.180 218.822,226.709 219.582,230.726 219.594 C 233.660 219.602,234.400 220.074,234.400 221.934 C 234.400 223.896,233.834 224.399,231.620 224.404 C 228.761 224.411,226.800 224.841,226.800 225.461 C 226.800 225.767,226.357 226.219,225.816 226.466 C 224.311 227.151,223.855 232.000,225.295 232.000 C 225.538 232.000,226.056 232.289,226.446 232.642 C 227.391 233.496,230.964 233.445,233.253 232.543 C 235.433 231.685,235.441 231.671,235.765 228.507 C 235.913 227.071,236.295 225.389,236.616 224.768 C 237.225 223.592,237.403 220.120,236.894 219.364 C 236.665 219.024,232.752 217.448,232.629 217.646 C 232.613 217.672,232.240 217.768,231.800 217.859 M125.210 218.409 C 124.445 218.589,123.486 219.155,123.079 219.668 C 122.672 220.181,121.976 221.025,121.533 221.545 C 120.555 222.692,119.857 227.007,120.217 229.681 C 120.664 233.006,124.195 234.256,126.815 232.016 L 128.200 230.833 126.400 230.815 C 122.127 230.773,121.102 228.652,123.028 223.841 C 124.367 220.497,125.067 219.903,127.906 219.704 C 131.149 219.476,131.664 219.221,130.200 218.570 C 128.858 217.973,127.280 217.922,125.210 218.409 M137.256 218.459 C 135.392 218.995,135.998 219.365,139.129 219.600 C 144.398 219.996,144.374 224.021,139.100 224.451 C 131.043 225.108,129.992 232.446,137.862 233.099 C 142.463 233.481,143.018 233.198,143.779 230.089 C 144.140 228.610,144.614 226.680,144.831 225.800 C 146.571 218.747,144.209 216.458,137.256 218.459 M190.471 218.396 C 189.741 218.569,188.789 219.091,188.356 219.555 C 187.923 220.020,187.403 220.400,187.200 220.400 C 186.997 220.400,186.639 221.112,186.405 221.982 C 186.171 222.852,185.718 223.824,185.400 224.143 C 182.277 227.266,186.830 234.392,190.838 232.656 C 191.587 232.332,192.764 231.858,193.453 231.604 C 196.544 230.464,198.929 223.798,197.484 220.339 C 196.649 218.340,193.913 217.582,190.471 218.396 M242.490 218.508 C 241.559 219.669,242.535 231.654,243.697 233.324 C 245.360 235.716,244.328 236.800,240.387 236.800 C 238.859 236.800,238.473 236.925,238.643 237.367 C 238.926 238.105,242.708 238.652,243.317 238.043 C 243.561 237.799,244.082 237.600,244.475 237.600 C 244.908 237.600,245.411 237.069,245.754 236.249 C 246.064 235.506,246.503 234.784,246.728 234.644 C 246.954 234.505,247.253 233.872,247.392 233.237 C 247.531 232.602,247.995 231.766,248.423 231.379 C 248.850 230.993,249.200 230.481,249.200 230.242 C 249.200 229.660,251.984 223.963,252.651 223.180 C 253.844 221.779,254.492 219.057,253.761 218.522 C 252.934 217.917,251.071 220.225,250.604 222.432 C 250.444 223.184,249.989 224.160,249.593 224.600 C 249.196 225.040,248.673 226.146,248.431 227.059 C 247.581 230.265,245.374 229.889,245.057 226.484 C 244.380 219.190,244.305 218.777,243.595 218.397 C 243.109 218.137,242.759 218.172,242.490 218.508 M194.955 221.755 C 196.384 225.175,193.654 230.631,190.549 230.562 C 187.982 230.505,187.600 229.993,187.600 226.609 C 187.600 220.764,193.041 217.173,194.955 221.755 M141.500 226.485 C 142.659 227.442,141.632 230.800,140.181 230.800 C 139.908 230.800,139.591 231.047,139.475 231.350 C 139.125 232.260,136.800 232.417,136.800 231.531 C 136.800 231.129,136.649 230.800,136.464 230.800 C 134.861 230.800,135.551 226.429,137.232 225.938 C 138.391 225.599,140.802 225.908,141.500 226.485 M232.974 226.517 C 234.078 227.620,232.129 232.400,230.576 232.400 C 227.721 232.400,226.086 226.622,228.723 225.852 C 229.891 225.510,232.352 225.895,232.974 226.517 " stroke="none" fill="#1476ba" fill-rule="evenodd"></path><path id="path1" d="M0.000 200.000 L 0.000 400.000 200.000 400.000 L 400.000 400.000 400.000 200.000 L 400.000 0.000 200.000 0.000 L 0.000 0.000 0.000 200.000 M89.638 159.985 C 90.829 160.059,92.800 163.099,92.800 164.863 C 92.800 165.309,93.139 166.105,93.554 166.632 C 93.969 167.159,94.435 168.441,94.591 169.479 C 94.747 170.518,95.214 171.800,95.629 172.328 C 96.044 172.856,96.499 174.157,96.640 175.220 C 96.781 176.282,97.130 177.241,97.415 177.350 C 97.700 177.460,98.150 178.595,98.415 179.874 C 98.681 181.152,99.219 182.607,99.612 183.107 C 100.005 183.606,100.449 184.899,100.597 185.980 C 101.039 189.195,102.899 189.578,103.567 186.591 C 103.829 185.420,104.281 184.265,104.571 184.024 C 104.861 183.783,105.307 182.527,105.562 181.232 C 105.817 179.937,106.275 178.669,106.581 178.416 C 106.887 178.162,107.261 177.199,107.411 176.277 C 107.561 175.355,108.012 174.060,108.412 173.400 C 108.812 172.740,109.353 171.350,109.614 170.312 C 109.875 169.274,110.339 168.217,110.644 167.963 C 111.371 167.360,111.336 164.813,110.587 163.824 C 109.922 162.945,109.797 160.573,110.395 160.203 C 111.252 159.673,119.078 159.801,119.746 160.355 C 120.679 161.129,120.623 164.406,119.656 165.646 C 119.247 166.171,118.788 167.442,118.636 168.472 C 118.484 169.501,118.025 170.769,117.617 171.288 C 117.208 171.807,116.746 173.089,116.589 174.136 C 116.432 175.183,116.025 176.317,115.686 176.657 C 115.347 176.996,114.923 178.197,114.745 179.325 C 114.566 180.453,114.056 181.869,113.610 182.472 C 113.165 183.074,112.799 183.890,112.798 184.284 C 112.794 185.475,112.004 187.939,111.446 188.497 C 111.158 188.784,110.798 189.736,110.645 190.610 C 110.305 192.559,109.606 194.400,109.206 194.400 C 109.042 194.400,108.796 195.225,108.657 196.234 C 108.519 197.243,108.045 198.576,107.603 199.196 C 107.161 199.816,106.800 200.674,106.800 201.102 C 106.800 202.746,105.925 204.404,104.924 204.655 C 103.063 205.122,99.191 204.531,98.237 203.635 C 97.748 203.176,97.165 202.800,96.940 202.800 C 96.010 202.800,91.246 198.693,91.213 197.863 C 91.206 197.678,90.845 197.075,90.411 196.523 C 89.976 195.970,89.506 194.907,89.366 194.159 C 89.226 193.412,88.980 192.800,88.820 192.800 C 88.433 192.800,87.600 190.941,87.600 190.078 C 87.600 189.702,87.172 188.585,86.649 187.597 C 86.126 186.609,85.563 185.170,85.397 184.400 C 85.231 183.630,84.759 182.571,84.348 182.046 C 83.937 181.521,83.600 180.693,83.600 180.206 C 83.600 179.718,83.178 178.526,82.663 177.556 C 82.147 176.587,81.594 175.095,81.434 174.242 C 81.274 173.389,80.813 172.220,80.409 171.645 C 80.005 171.070,79.553 169.880,79.404 169.000 C 79.254 168.120,78.855 167.091,78.516 166.713 C 78.177 166.335,77.570 164.838,77.168 163.386 L 76.436 160.746 77.560 160.273 C 78.439 159.903,85.572 159.733,89.638 159.985 M137.091 161.863 C 140.169 165.333,140.800 166.112,140.800 166.440 C 140.800 166.618,141.205 167.205,141.700 167.744 C 142.195 168.283,142.816 168.966,143.081 169.262 C 143.345 169.558,143.795 170.017,144.081 170.282 C 144.366 170.547,144.995 171.267,145.477 171.882 C 145.960 172.497,147.353 174.260,148.573 175.800 C 149.793 177.340,151.108 179.030,151.495 179.555 C 151.883 180.080,152.785 181.121,153.500 181.868 C 154.215 182.615,154.800 183.439,154.800 183.699 C 154.800 184.000,155.024 183.947,155.417 183.555 C 155.932 183.039,156.030 181.633,156.013 174.969 C 155.993 167.298,155.865 166.164,154.526 161.898 C 153.980 160.159,163.654 158.931,166.386 160.392 C 167.366 160.917,166.831 163.483,165.520 164.545 L 164.600 165.290 164.573 184.661 C 164.547 204.023,164.546 204.031,163.673 204.904 C 163.193 205.385,162.800 205.558,162.800 205.289 C 162.800 204.947,161.893 204.800,159.782 204.800 C 157.096 204.800,156.654 204.690,155.764 203.800 C 155.214 203.250,154.541 202.800,154.270 202.800 C 153.120 202.800,147.570 197.070,145.400 193.644 C 145.180 193.296,144.685 192.774,144.300 192.483 C 143.915 192.193,143.600 191.704,143.600 191.397 C 143.600 191.091,143.339 190.694,143.019 190.515 C 142.700 190.336,141.604 189.112,140.583 187.795 C 139.562 186.478,138.428 185.092,138.063 184.716 C 137.698 184.339,137.040 183.554,136.600 182.970 C 136.160 182.386,135.393 181.434,134.896 180.854 C 134.399 180.274,133.730 179.440,133.409 179.000 C 132.892 178.291,132.824 179.381,132.813 188.569 C 132.803 196.897,132.910 199.061,133.359 199.569 C 137.021 203.702,135.579 205.013,127.673 204.738 C 123.201 204.583,121.387 203.768,122.545 202.435 C 124.457 200.234,124.709 197.814,124.653 182.200 L 124.600 167.400 123.300 164.743 C 120.944 159.927,121.189 159.754,130.187 159.863 L 135.373 159.926 137.091 161.863 M295.781 160.064 C 296.342 160.320,296.800 160.680,296.800 160.864 C 296.800 161.049,297.070 161.200,297.400 161.200 C 298.329 161.200,302.317 165.510,302.606 166.826 C 303.074 168.958,303.516 168.050,303.659 164.661 C 303.855 160.024,303.884 160.000,309.434 160.000 C 315.935 160.000,319.929 161.747,320.620 164.893 C 321.020 166.712,320.444 169.556,319.480 170.520 C 318.304 171.696,318.318 174.036,319.509 175.303 C 319.999 175.825,320.400 176.459,320.400 176.712 C 320.400 176.965,320.899 177.763,321.510 178.486 C 323.685 181.061,323.658 180.987,322.777 181.932 C 320.912 183.934,314.892 182.939,313.543 180.406 C 312.853 179.112,312.800 179.084,312.800 180.017 C 312.800 182.340,311.936 182.800,307.577 182.800 L 303.600 182.800 303.600 178.624 C 303.600 176.271,303.425 174.339,303.200 174.200 C 302.963 174.053,302.800 174.519,302.800 175.346 C 302.800 176.248,302.448 177.157,301.800 177.927 C 300.500 179.472,300.476 181.097,301.745 181.579 C 302.265 181.777,302.800 182.223,302.933 182.569 C 303.088 182.973,303.666 183.200,304.538 183.200 C 306.964 183.200,307.417 184.999,305.580 187.335 C 304.603 188.577,301.386 188.836,299.600 187.818 C 299.050 187.505,298.033 186.984,297.341 186.661 C 296.648 186.339,295.928 185.833,295.741 185.537 C 295.209 184.699,292.855 183.600,291.591 183.600 C 290.962 183.600,290.350 183.443,290.232 183.252 C 290.114 183.060,289.130 182.818,288.047 182.714 C 285.877 182.506,283.784 181.172,283.377 179.738 C 283.242 179.264,282.807 178.790,282.409 178.686 C 282.000 178.580,281.568 177.965,281.417 177.276 C 281.269 176.605,280.903 175.852,280.603 175.603 C 277.784 173.263,282.191 161.611,285.900 161.598 C 286.285 161.596,287.140 161.305,287.800 160.951 C 290.368 159.574,293.854 159.186,295.781 160.064 M193.710 160.869 C 196.264 161.476,197.626 162.019,198.229 162.669 C 198.703 163.181,199.290 163.600,199.532 163.600 C 199.774 163.600,200.162 163.956,200.395 164.391 C 200.628 164.826,201.264 165.628,201.809 166.173 C 202.354 166.718,202.800 167.628,202.800 168.196 C 202.800 168.764,203.087 169.667,203.438 170.203 C 204.231 171.412,204.258 174.945,203.483 176.136 C 203.174 176.611,202.801 177.645,202.655 178.433 C 202.509 179.221,201.941 180.254,201.395 180.730 C 200.848 181.206,200.400 181.776,200.400 181.997 C 200.400 182.219,200.157 182.400,199.859 182.400 C 199.562 182.400,198.754 182.940,198.063 183.600 C 197.237 184.389,196.395 184.800,195.604 184.800 C 194.916 184.800,194.042 185.158,193.564 185.636 C 192.806 186.394,192.353 186.460,188.763 186.336 L 184.799 186.200 184.800 191.190 C 184.800 196.099,185.414 198.950,187.231 202.479 C 188.189 204.339,186.042 204.872,178.168 204.730 C 169.523 204.575,168.047 203.953,170.500 201.500 L 171.400 200.601 171.519 182.779 C 171.636 165.253,171.624 164.946,170.819 164.217 C 169.905 163.390,169.711 161.249,170.480 160.480 C 171.420 159.540,189.381 159.840,193.710 160.869 M226.956 161.269 C 227.889 162.095,228.482 163.038,228.653 163.969 C 228.797 164.756,229.229 165.803,229.612 166.295 C 229.995 166.788,230.435 168.041,230.591 169.079 C 230.747 170.118,231.203 171.386,231.604 171.896 C 232.005 172.406,232.462 173.583,232.618 174.512 C 232.774 175.440,233.236 176.625,233.643 177.144 C 234.051 177.663,234.501 178.968,234.644 180.044 C 234.786 181.120,235.038 182.000,235.203 182.000 C 235.545 182.000,236.240 183.630,236.652 185.400 C 236.806 186.060,237.246 187.050,237.630 187.600 C 238.014 188.150,238.445 189.452,238.588 190.493 C 238.730 191.535,239.095 192.526,239.399 192.695 C 239.702 192.865,240.181 193.903,240.461 195.002 C 240.742 196.101,241.384 197.509,241.886 198.131 C 242.389 198.753,242.800 199.486,242.800 199.761 C 242.800 200.036,243.250 200.683,243.800 201.200 C 246.737 203.960,244.717 204.760,234.761 204.781 C 225.676 204.800,224.182 204.355,225.403 201.994 C 226.800 199.293,225.802 193.168,223.854 192.493 C 222.274 191.945,214.849 191.849,213.506 192.360 C 211.281 193.206,209.643 199.399,210.950 202.021 C 211.310 202.741,211.558 203.360,211.502 203.398 C 211.446 203.435,210.955 203.766,210.411 204.133 C 209.356 204.845,204.013 205.061,200.240 204.543 C 197.440 204.160,197.301 203.451,199.423 200.373 C 200.398 198.958,201.304 197.170,201.435 196.400 C 201.567 195.630,201.998 194.539,202.393 193.976 C 202.788 193.413,203.322 191.941,203.578 190.707 C 203.834 189.472,204.295 188.253,204.602 187.998 C 204.910 187.743,205.279 186.694,205.423 185.667 C 205.567 184.640,206.036 183.188,206.464 182.440 C 206.893 181.693,207.415 180.175,207.625 179.068 C 207.835 177.961,208.290 176.742,208.637 176.359 C 208.984 175.976,209.368 174.883,209.489 173.931 C 209.611 172.979,210.161 171.422,210.711 170.471 C 211.657 168.834,211.696 168.530,211.439 164.800 C 211.096 159.817,210.760 160.028,219.061 160.012 L 225.523 160.000 226.956 161.269 M251.083 160.700 C 252.429 161.441,254.800 164.180,254.800 164.993 C 254.800 165.259,255.144 165.787,255.564 166.167 C 255.984 166.548,256.436 167.289,256.568 167.815 C 256.700 168.341,257.211 169.200,257.704 169.722 C 258.197 170.245,259.134 171.576,259.787 172.681 L 260.974 174.688 262.087 173.575 C 262.699 172.963,263.200 172.306,263.200 172.116 C 263.200 171.925,263.733 171.147,264.384 170.385 C 265.035 169.623,265.575 168.709,265.584 168.354 C 265.593 167.999,265.960 167.250,266.400 166.691 C 267.244 165.618,267.432 164.415,266.855 163.780 C 265.893 162.722,265.633 160.811,266.395 160.402 C 267.536 159.792,279.406 159.878,279.896 160.500 C 280.873 161.741,280.840 163.197,279.810 164.227 C 279.254 164.782,278.800 165.350,278.800 165.489 C 278.800 165.809,275.998 169.947,275.200 170.805 C 274.870 171.160,274.150 172.235,273.600 173.195 C 273.050 174.154,272.105 175.430,271.500 176.030 C 270.895 176.630,270.400 177.414,270.400 177.773 C 270.400 178.132,270.146 178.522,269.836 178.641 C 269.526 178.761,269.170 179.267,269.044 179.766 C 268.919 180.266,268.361 181.130,267.804 181.687 C 265.234 184.257,265.062 198.652,267.560 202.032 L 268.359 203.113 267.538 203.856 C 266.469 204.825,252.504 205.198,250.804 204.304 C 249.468 203.602,249.355 202.645,250.475 201.525 C 251.368 200.633,251.405 200.331,251.535 192.773 L 251.670 184.945 250.635 183.715 C 250.066 183.038,249.600 182.299,249.600 182.073 C 249.600 181.847,249.155 181.133,248.611 180.486 C 248.067 179.840,247.437 178.881,247.210 178.356 C 246.983 177.830,246.178 176.590,245.422 175.600 C 244.667 174.610,243.307 172.630,242.400 171.200 C 241.494 169.770,239.786 167.359,238.605 165.841 C 236.284 162.859,235.700 161.443,236.432 160.562 C 237.190 159.648,249.382 159.763,251.083 160.700 M289.016 165.500 C 286.479 172.096,288.468 178.472,292.878 177.880 C 295.269 177.560,295.400 177.276,295.400 172.408 C 295.400 168.204,295.362 168.015,294.300 166.905 C 293.695 166.273,293.200 165.541,293.200 165.278 C 293.200 164.455,289.340 164.660,289.016 165.500 M312.500 166.687 C 312.225 166.786,312.000 167.392,312.000 168.033 C 312.000 169.614,313.055 169.572,313.288 167.982 C 313.478 166.687,313.303 166.399,312.500 166.687 M184.800 176.429 C 184.800 183.364,184.857 184.000,185.429 183.429 C 185.774 183.083,186.205 182.800,186.386 182.800 C 186.567 182.800,187.249 182.301,187.902 181.692 C 191.492 178.338,190.067 168.800,185.975 168.800 L 184.800 168.800 184.800 176.429 M217.948 176.604 C 217.073 177.079,216.848 177.555,216.615 179.421 C 216.445 180.781,216.038 181.962,215.582 182.418 C 214.847 183.153,214.858 183.175,216.116 183.411 C 220.343 184.204,222.494 182.936,220.577 180.784 C 220.275 180.445,219.826 179.230,219.581 178.084 C 219.335 176.938,219.104 176.007,219.067 176.016 C 219.030 176.025,218.526 176.289,217.948 176.604 M220.549 211.409 C 223.799 211.757,226.338 213.700,226.760 216.162 L 227.000 217.566 228.744 216.783 C 231.223 215.670,233.764 215.781,236.200 217.110 L 238.200 218.201 238.315 221.892 C 238.406 224.825,238.269 225.974,237.649 227.491 C 237.219 228.541,236.768 230.109,236.647 230.976 C 236.221 234.011,232.901 235.237,227.400 234.392 C 220.056 233.263,222.086 224.036,229.834 223.330 C 232.628 223.076,233.183 222.773,233.194 221.500 C 233.201 220.676,230.085 220.475,229.310 221.250 C 228.977 221.583,228.526 221.583,227.571 221.250 C 225.804 220.634,224.800 220.686,224.800 221.394 C 224.800 222.576,222.661 224.419,221.000 224.668 C 220.120 224.800,219.106 225.163,218.746 225.475 C 218.386 225.787,216.901 226.239,215.446 226.480 L 212.800 226.918 212.798 228.759 C 212.793 232.746,211.760 234.400,209.275 234.400 C 206.922 234.400,206.552 229.861,208.394 223.600 C 208.815 222.170,209.445 219.231,209.794 217.068 C 210.611 212.005,213.162 209.983,217.430 211.017 C 217.667 211.074,219.070 211.251,220.549 211.409 M118.235 212.180 C 118.702 212.818,118.679 214.260,118.178 215.900 C 118.071 216.251,116.959 216.400,114.436 216.400 C 112.462 216.400,110.741 216.572,110.611 216.782 C 110.164 217.505,110.871 219.131,111.735 219.366 C 117.173 220.847,118.749 230.970,113.802 232.646 C 113.362 232.795,112.792 233.205,112.534 233.558 C 111.597 234.840,103.551 234.694,102.228 233.371 C 99.983 231.126,102.002 228.979,105.988 229.371 C 110.800 229.846,112.741 228.108,110.087 225.700 C 109.299 224.985,108.512 224.400,108.338 224.400 C 107.771 224.400,104.365 220.761,103.978 219.741 C 102.862 216.808,105.920 212.318,109.554 211.552 C 112.252 210.983,117.645 211.374,118.235 212.180 M181.100 213.795 C 181.595 213.937,182.000 214.200,182.000 214.379 C 182.000 214.559,182.516 215.221,183.148 215.853 C 185.356 218.061,184.747 220.800,182.047 220.800 C 180.802 220.800,180.416 221.507,180.405 223.806 C 180.402 224.469,180.040 225.684,179.600 226.504 C 178.494 228.567,178.601 229.299,180.108 230.000 C 181.819 230.796,182.426 232.466,181.411 233.588 C 180.051 235.090,175.012 234.771,174.163 233.128 C 173.309 231.476,173.540 226.162,174.532 224.648 C 175.558 223.082,175.395 221.186,174.151 220.194 C 172.690 219.029,173.103 217.066,175.050 215.917 C 175.804 215.473,176.596 214.782,176.809 214.382 C 177.376 213.323,178.787 213.130,181.100 213.795 M160.773 216.833 C 163.799 218.410,165.380 223.394,163.288 224.758 C 163.084 224.891,162.791 226.440,162.636 228.200 C 162.221 232.938,160.346 235.233,157.827 234.085 C 156.787 233.611,156.149 231.384,156.821 230.574 C 157.271 230.033,157.887 223.758,157.673 221.900 C 157.468 220.114,154.970 220.276,154.599 222.100 C 154.258 223.774,153.588 226.026,153.190 226.832 C 153.019 227.179,152.747 228.688,152.587 230.184 C 152.259 233.248,151.467 234.400,149.689 234.400 C 148.221 234.400,146.709 233.323,146.973 232.466 C 147.086 232.100,147.351 229.938,147.562 227.662 C 147.827 224.801,148.150 223.298,148.607 222.793 C 148.970 222.391,149.367 221.283,149.488 220.331 C 149.755 218.233,150.116 217.737,151.968 216.929 C 155.458 215.407,157.984 215.379,160.773 216.833 M255.474 216.481 C 256.783 217.513,254.775 224.800,253.183 224.800 C 252.972 224.800,252.800 225.172,252.800 225.626 C 252.800 226.561,252.111 228.003,251.379 228.600 C 251.110 228.820,250.772 229.670,250.629 230.489 C 250.485 231.307,250.053 232.207,249.667 232.489 C 249.281 232.770,248.738 233.775,248.460 234.721 C 248.183 235.668,247.695 236.542,247.378 236.664 C 247.060 236.786,246.800 237.106,246.800 237.375 C 246.800 237.645,245.920 238.436,244.844 239.133 C 241.676 241.186,237.669 240.772,236.468 238.268 C 235.563 236.379,236.108 236.056,241.335 235.388 C 243.145 235.156,243.229 235.095,242.638 234.442 C 241.904 233.631,241.199 230.297,241.202 227.645 C 241.203 226.630,240.899 224.331,240.527 222.536 L 239.851 219.271 240.968 217.807 C 243.778 214.122,246.357 216.061,246.447 221.926 C 246.521 226.699,246.894 227.931,247.525 225.484 C 247.797 224.430,248.264 223.474,248.563 223.359 C 248.861 223.244,249.212 222.486,249.342 221.675 C 249.935 217.961,253.511 214.933,255.474 216.481 M130.338 216.622 C 132.140 217.343,133.031 218.821,132.388 220.023 C 131.932 220.875,131.891 220.885,129.000 220.831 C 123.860 220.736,121.732 229.233,126.822 229.524 C 130.416 229.730,131.044 230.695,129.018 232.900 C 127.188 234.893,122.562 235.158,120.462 233.391 C 117.930 231.260,116.783 226.817,118.358 225.242 C 118.774 224.826,119.238 223.757,119.388 222.869 C 119.721 220.898,122.127 217.684,123.532 217.331 C 124.090 217.191,125.009 216.835,125.573 216.541 C 126.926 215.835,128.435 215.860,130.338 216.622 M144.673 217.024 C 145.503 217.587,146.319 218.262,146.485 218.524 C 147.273 219.762,146.533 227.848,145.431 230.058 C 145.084 230.754,144.800 231.615,144.800 231.972 C 144.800 234.105,143.830 234.472,138.563 234.332 C 132.171 234.162,131.439 233.642,131.557 229.357 C 131.668 225.297,134.059 223.361,139.100 223.247 C 141.167 223.201,141.200 223.181,141.200 221.971 C 141.200 220.747,141.191 220.742,139.100 220.805 C 135.491 220.914,135.008 220.826,134.469 219.962 C 132.690 217.114,141.197 214.665,144.673 217.024 M196.318 216.958 C 198.591 218.110,199.810 220.342,199.467 222.724 C 198.220 231.400,196.027 234.065,189.906 234.343 L 186.753 234.487 185.277 233.011 L 183.800 231.535 183.663 227.570 C 183.532 223.788,183.573 223.547,184.563 222.372 C 185.133 221.693,185.600 220.896,185.600 220.600 C 185.600 219.737,187.892 217.687,189.171 217.406 C 189.817 217.265,190.559 216.890,190.821 216.574 C 191.547 215.700,194.201 215.886,196.318 216.958 M215.801 217.108 C 215.130 217.779,214.800 218.552,214.800 219.455 C 214.800 220.195,214.790 220.935,214.779 221.100 C 214.743 221.616,215.877 221.664,217.540 221.216 C 219.092 220.798,221.057 217.724,220.274 216.940 C 219.380 216.047,216.764 216.145,215.801 217.108 M190.800 222.158 C 190.800 222.465,190.353 223.140,189.807 223.658 C 188.202 225.181,188.317 229.038,189.975 229.282 C 192.390 229.636,194.864 224.205,193.201 222.201 C 192.569 221.439,190.800 221.408,190.800 222.158 M137.700 227.577 C 136.325 228.725,136.531 229.600,138.176 229.600 C 139.781 229.600,140.121 229.220,139.769 227.818 C 139.467 226.616,138.928 226.553,137.700 227.577 M229.693 227.420 C 228.434 228.302,228.537 229.457,229.899 229.717 C 231.156 229.957,231.654 229.435,231.504 228.031 C 231.373 226.808,230.829 226.624,229.693 227.420 " stroke="none" fill="#fbfbfb" fill-rule="evenodd"></path><path id="path2" d="M114.672 161.580 C 112.296 161.904,112.031 162.309,112.294 165.207 C 112.469 167.130,112.331 167.869,111.451 169.728 C 110.873 170.950,110.398 172.187,110.396 172.475 C 110.394 172.764,109.950 173.900,109.409 175.000 C 108.868 176.100,108.419 177.277,108.413 177.615 C 108.406 177.954,108.063 178.891,107.652 179.699 C 107.240 180.506,106.687 182.029,106.422 183.083 C 106.157 184.137,105.711 185.270,105.431 185.600 C 105.151 185.930,104.687 187.100,104.399 188.200 C 103.618 191.193,103.293 191.680,102.276 191.384 C 100.899 190.985,100.090 189.761,99.580 187.304 C 99.321 186.054,98.878 184.665,98.595 184.216 C 98.313 183.767,97.791 182.374,97.436 181.120 C 97.080 179.867,96.628 178.741,96.430 178.618 C 96.232 178.496,95.947 177.632,95.796 176.698 C 95.646 175.764,95.269 174.599,94.958 174.109 C 94.431 173.277,92.486 167.980,91.540 164.800 C 90.728 162.070,89.675 161.631,83.900 161.614 C 79.321 161.601,78.795 161.671,78.756 162.300 C 78.660 163.818,78.898 165.028,79.407 165.600 C 79.700 165.930,80.153 167.050,80.414 168.088 C 80.675 169.126,81.129 170.175,81.423 170.419 C 81.716 170.662,82.179 171.883,82.450 173.131 C 82.721 174.379,83.251 175.803,83.627 176.297 C 84.002 176.790,84.421 177.780,84.556 178.497 C 84.692 179.213,85.252 180.686,85.801 181.768 C 86.351 182.850,86.806 184.020,86.813 184.368 C 86.820 184.716,87.093 185.354,87.421 185.788 C 87.748 186.221,88.206 187.301,88.437 188.188 C 88.863 189.822,89.739 191.946,91.325 195.189 C 93.656 199.955,101.708 204.912,104.376 203.223 C 104.912 202.884,105.960 200.221,107.455 195.400 C 107.796 194.300,108.418 192.668,108.838 191.774 C 109.257 190.879,109.600 189.912,109.600 189.624 C 109.600 189.336,110.033 188.088,110.563 186.850 C 111.092 185.613,111.792 183.790,112.117 182.800 C 112.442 181.810,112.932 180.370,113.206 179.600 C 113.479 178.830,114.130 176.985,114.652 175.500 C 116.372 170.602,117.661 167.030,118.488 164.866 C 119.634 161.871,118.663 161.035,114.672 161.580 M124.438 162.277 C 124.121 162.971,124.263 163.553,125.119 165.077 L 126.200 167.000 126.172 183.000 C 126.144 198.875,126.137 199.013,125.230 200.703 C 123.800 203.368,124.100 203.600,128.964 203.600 C 133.789 203.600,134.011 203.443,132.596 201.029 L 131.552 199.248 131.676 188.437 C 131.814 176.364,132.093 175.022,133.952 177.468 C 134.425 178.091,135.214 179.070,135.706 179.644 C 136.198 180.218,137.050 181.274,137.600 181.990 C 138.150 182.706,138.982 183.676,139.450 184.146 C 139.917 184.616,141.306 186.350,142.536 188.000 C 143.766 189.650,145.202 191.450,145.726 192.000 C 146.251 192.550,147.950 194.530,149.502 196.400 C 153.749 201.518,157.443 203.744,161.318 203.520 L 163.400 203.400 163.504 184.200 C 163.603 165.920,163.645 164.949,164.384 163.944 C 165.626 162.253,164.619 161.683,160.337 161.655 C 156.175 161.627,155.386 162.761,157.460 165.789 C 158.234 166.919,158.243 185.114,157.471 186.171 C 156.849 187.021,155.707 186.548,154.165 184.800 C 152.121 182.483,151.752 182.043,150.800 180.778 C 149.193 178.644,143.651 171.893,142.581 170.767 C 142.042 170.198,141.600 169.567,141.600 169.363 C 141.600 169.159,141.240 168.768,140.800 168.493 C 140.360 168.218,140.000 167.759,140.000 167.473 C 140.000 166.687,134.905 161.602,134.101 161.586 C 124.310 161.383,124.863 161.344,124.438 162.277 M289.321 161.990 C 277.958 164.364,279.235 180.680,290.878 181.864 C 293.298 182.110,294.146 182.521,296.494 184.579 C 297.203 185.201,301.540 186.800,302.518 186.800 C 302.816 186.800,303.455 186.380,303.937 185.867 L 304.813 184.934 303.757 184.453 C 299.842 182.669,298.224 179.088,300.560 177.380 C 302.871 175.690,302.397 168.143,299.779 164.948 C 296.891 161.423,294.828 160.840,289.321 161.990 M307.266 162.040 C 305.352 162.432,305.390 162.248,305.515 170.340 C 305.604 176.109,305.497 178.191,305.046 179.471 C 304.306 181.567,304.349 181.600,307.843 181.600 C 311.196 181.600,311.418 181.420,310.571 179.392 C 309.959 177.927,310.079 175.046,310.770 174.619 C 311.250 174.322,313.906 177.267,314.547 178.808 C 315.458 180.995,316.473 181.692,318.746 181.692 C 321.529 181.692,321.779 181.421,320.599 179.684 C 320.049 178.876,319.600 178.008,319.600 177.756 C 319.600 177.504,319.317 177.063,318.971 176.776 C 316.615 174.821,316.246 171.438,318.200 169.708 C 321.049 167.186,319.440 162.730,315.503 162.237 C 312.483 161.858,308.606 161.766,307.266 162.040 M294.626 165.100 C 296.832 167.490,297.614 171.510,296.656 175.541 C 296.324 176.938,295.995 178.109,295.926 178.142 C 295.857 178.175,295.222 178.607,294.516 179.101 C 292.235 180.698,287.606 178.722,287.597 176.146 C 287.596 175.736,287.237 174.860,286.800 174.200 C 285.258 171.872,286.601 165.450,288.952 163.906 C 290.353 162.987,293.234 163.593,294.626 165.100 M313.900 165.482 C 314.521 166.315,314.560 169.854,313.953 170.229 C 311.242 171.905,309.704 170.652,310.169 167.147 C 310.561 164.192,312.345 163.395,313.900 165.482 " stroke="none" fill="#ec2832" fill-rule="evenodd"></path><path id="path3" d="M170.480 160.480 C 169.711 161.249,169.905 163.390,170.819 164.217 C 171.624 164.946,171.636 165.253,171.519 182.779 L 171.400 200.601 170.500 201.500 C 168.047 203.953,169.523 204.575,178.168 204.730 C 186.042 204.872,188.189 204.339,187.231 202.479 C 185.414 198.950,184.800 196.099,184.800 191.190 L 184.799 186.200 188.763 186.336 C 192.353 186.460,192.806 186.394,193.564 185.636 C 194.042 185.158,194.916 184.800,195.604 184.800 C 196.395 184.800,197.237 184.389,198.063 183.600 C 198.754 182.940,199.562 182.400,199.859 182.400 C 200.157 182.400,200.400 182.219,200.400 181.997 C 200.400 181.776,200.848 181.206,201.395 180.730 C 201.941 180.254,202.509 179.221,202.655 178.433 C 202.801 177.645,203.174 176.611,203.483 176.136 C 204.258 174.945,204.231 171.412,203.438 170.203 C 203.087 169.667,202.800 168.764,202.800 168.196 C 202.800 167.628,202.354 166.718,201.809 166.173 C 201.264 165.628,200.628 164.826,200.395 164.391 C 200.162 163.956,199.774 163.600,199.532 163.600 C 199.290 163.600,198.703 163.181,198.229 162.669 C 196.140 160.415,172.416 158.544,170.480 160.480 M211.884 160.441 C 211.241 160.815,211.195 161.263,211.439 164.800 C 211.696 168.530,211.657 168.834,210.711 170.471 C 210.161 171.422,209.611 172.979,209.489 173.931 C 209.368 174.883,208.984 175.976,208.637 176.359 C 208.290 176.742,207.835 177.961,207.625 179.068 C 207.415 180.175,206.893 181.693,206.464 182.440 C 206.036 183.188,205.567 184.640,205.423 185.667 C 205.279 186.694,204.910 187.743,204.602 187.998 C 204.295 188.253,203.834 189.472,203.578 190.707 C 203.322 191.941,202.788 193.413,202.393 193.976 C 201.998 194.539,201.567 195.630,201.435 196.400 C 201.304 197.170,200.398 198.958,199.423 200.373 C 197.301 203.451,197.440 204.160,200.240 204.543 C 204.013 205.061,209.356 204.845,210.411 204.133 C 210.955 203.766,211.446 203.435,211.502 203.398 C 211.558 203.360,211.310 202.741,210.950 202.021 C 209.643 199.399,211.281 193.206,213.506 192.360 C 214.849 191.849,222.274 191.945,223.854 192.493 C 225.802 193.168,226.800 199.293,225.403 201.994 C 224.182 204.355,225.676 204.800,234.761 204.781 C 244.717 204.760,246.737 203.960,243.800 201.200 C 243.250 200.683,242.800 200.036,242.800 199.761 C 242.800 199.486,242.389 198.753,241.886 198.131 C 241.384 197.509,240.742 196.101,240.461 195.002 C 240.181 193.903,239.702 192.865,239.399 192.695 C 239.095 192.526,238.730 191.535,238.588 190.493 C 238.445 189.452,238.014 188.150,237.630 187.600 C 237.246 187.050,236.806 186.060,236.652 185.400 C 236.240 183.630,235.545 182.000,235.203 182.000 C 235.038 182.000,234.786 181.120,234.644 180.044 C 234.501 178.968,234.051 177.663,233.643 177.144 C 233.236 176.625,232.774 175.440,232.618 174.512 C 232.462 173.583,232.005 172.406,231.604 171.896 C 231.203 171.386,230.747 170.118,230.591 169.079 C 230.435 168.041,229.995 166.788,229.612 166.295 C 229.229 165.803,228.797 164.756,228.653 163.969 C 228.482 163.038,227.889 162.095,226.956 161.269 L 225.523 160.000 219.061 160.012 C 215.328 160.019,212.298 160.200,211.884 160.441 M236.432 160.562 C 235.700 161.443,236.284 162.859,238.605 165.841 C 239.786 167.359,241.494 169.770,242.400 171.200 C 243.307 172.630,244.667 174.610,245.422 175.600 C 246.178 176.590,246.983 177.830,247.210 178.356 C 247.437 178.881,248.067 179.840,248.611 180.486 C 249.155 181.133,249.600 181.847,249.600 182.073 C 249.600 182.299,250.066 183.038,250.635 183.715 L 251.670 184.945 251.535 192.773 C 251.405 200.331,251.368 200.633,250.475 201.525 C 249.355 202.645,249.468 203.602,250.804 204.304 C 252.504 205.198,266.469 204.825,267.538 203.856 L 268.359 203.113 267.560 202.032 C 265.062 198.652,265.234 184.257,267.804 181.687 C 268.361 181.130,268.919 180.266,269.044 179.766 C 269.170 179.267,269.526 178.761,269.836 178.641 C 270.146 178.522,270.400 178.132,270.400 177.773 C 270.400 177.414,270.895 176.630,271.500 176.030 C 272.105 175.430,273.050 174.154,273.600 173.195 C 274.150 172.235,274.870 171.160,275.200 170.805 C 275.998 169.947,278.800 165.809,278.800 165.489 C 278.800 165.350,279.254 164.782,279.810 164.227 C 280.840 163.197,280.873 161.741,279.896 160.500 C 279.406 159.878,267.536 159.792,266.395 160.402 C 265.633 160.811,265.893 162.722,266.855 163.780 C 267.432 164.415,267.244 165.618,266.400 166.691 C 265.960 167.250,265.593 167.999,265.584 168.354 C 265.575 168.709,265.035 169.623,264.384 170.385 C 263.733 171.147,263.200 171.925,263.200 172.116 C 263.200 172.306,262.699 172.963,262.087 173.575 L 260.974 174.688 259.787 172.681 C 259.134 171.576,258.197 170.245,257.704 169.722 C 257.211 169.200,256.700 168.341,256.568 167.815 C 256.436 167.289,255.984 166.548,255.564 166.167 C 255.144 165.787,254.800 165.259,254.800 164.993 C 254.800 164.180,252.429 161.441,251.083 160.700 C 249.382 159.763,237.190 159.648,236.432 160.562 M190.894 162.008 C 199.571 162.831,203.214 167.144,202.186 175.377 C 201.678 179.437,198.344 183.038,194.240 183.956 C 193.016 184.230,191.910 184.622,191.783 184.827 C 191.656 185.032,190.452 185.200,189.106 185.200 C 186.789 185.200,186.695 185.163,187.328 184.500 C 191.291 180.347,192.391 174.468,190.032 170.059 C 188.883 167.913,185.541 166.825,184.382 168.222 C 183.381 169.428,183.771 198.180,184.820 200.552 C 186.167 203.597,186.160 203.600,178.645 203.600 C 170.718 203.600,170.516 203.551,171.715 201.930 C 172.755 200.524,173.131 166.838,172.138 164.148 C 171.281 161.829,171.968 161.600,179.786 161.600 C 183.534 161.601,188.532 161.784,190.894 162.008 M226.098 162.502 C 227.117 163.336,227.595 164.399,229.469 170.000 C 229.800 170.990,230.505 172.703,231.036 173.806 C 231.566 174.909,232.000 176.174,232.000 176.617 C 232.000 177.060,232.290 177.836,232.644 178.342 C 232.999 178.848,233.522 180.103,233.808 181.131 C 234.320 182.976,235.569 186.265,236.644 188.600 C 236.948 189.260,237.452 190.610,237.764 191.600 C 239.161 196.032,242.053 201.891,243.190 202.594 C 244.410 203.348,242.461 203.600,235.409 203.600 C 226.121 203.600,226.265 203.634,227.254 201.693 C 228.155 199.927,228.195 198.584,227.394 197.047 C 227.063 196.413,226.674 195.154,226.530 194.250 C 225.995 190.908,224.930 190.400,218.465 190.400 L 212.868 190.400 211.734 191.601 C 209.896 193.549,208.482 200.646,209.585 202.389 C 210.188 203.344,209.291 203.587,205.150 203.594 C 199.984 203.602,198.465 203.310,199.586 202.525 C 200.034 202.211,200.400 201.793,200.400 201.595 C 200.400 201.397,200.850 200.572,201.400 199.762 C 201.950 198.951,202.400 197.980,202.400 197.604 C 202.400 197.227,202.850 196.073,203.400 195.038 C 203.950 194.004,204.400 192.774,204.400 192.305 C 204.400 191.836,204.763 190.702,205.208 189.784 C 205.652 188.867,206.270 187.235,206.582 186.158 C 207.613 182.601,208.870 179.021,209.588 177.600 C 209.977 176.830,210.412 175.574,210.555 174.810 C 210.699 174.045,211.201 172.624,211.672 171.652 C 212.304 170.346,212.577 168.861,212.716 165.963 C 212.939 161.337,212.288 161.732,219.800 161.656 C 224.638 161.608,225.076 161.667,226.098 162.502 M249.530 161.852 C 251.175 162.088,251.365 162.261,253.360 165.350 C 254.515 167.137,255.806 169.123,256.230 169.761 C 256.653 170.400,257.360 171.503,257.800 172.211 C 258.240 172.920,259.153 174.177,259.828 175.005 L 261.057 176.510 262.327 175.155 C 263.026 174.410,264.255 172.810,265.059 171.600 C 265.862 170.390,266.897 168.860,267.360 168.200 C 267.966 167.334,268.200 166.388,268.200 164.800 C 268.200 161.638,268.135 161.675,273.582 161.746 C 279.837 161.827,279.874 161.873,277.047 166.067 C 273.543 171.263,271.258 174.545,270.689 175.200 C 270.402 175.530,269.455 176.879,268.584 178.197 C 267.713 179.516,266.781 180.828,266.513 181.112 C 263.977 183.812,262.876 196.404,264.894 199.625 C 267.133 203.200,266.514 203.586,258.533 203.594 C 250.796 203.601,250.525 203.539,251.648 202.020 C 252.405 200.997,252.471 200.288,252.533 192.528 L 252.600 184.141 251.561 182.571 C 250.989 181.707,249.827 179.920,248.977 178.600 C 248.128 177.280,247.284 176.020,247.102 175.800 C 246.920 175.580,246.028 174.230,245.120 172.800 C 244.212 171.370,243.359 170.110,243.225 170.000 C 243.091 169.890,242.640 169.265,242.223 168.610 C 241.806 167.956,241.313 167.236,241.127 167.010 C 238.505 163.815,238.234 163.298,238.636 162.251 C 238.890 161.589,245.897 161.332,249.530 161.852 M188.412 169.952 C 191.189 172.488,189.563 182.800,186.386 182.800 C 186.205 182.800,185.774 183.083,185.429 183.429 C 184.857 184.000,184.800 183.364,184.800 176.429 L 184.800 168.800 185.975 168.800 C 186.712 168.800,187.622 169.230,188.412 169.952 M217.533 174.212 C 216.665 174.683,216.349 175.306,215.837 177.556 C 215.492 179.076,214.897 180.864,214.516 181.528 C 213.106 183.983,214.036 184.979,217.864 185.115 C 222.402 185.277,223.457 183.904,221.725 180.087 C 221.354 179.269,220.679 177.531,220.225 176.225 C 219.303 173.570,219.057 173.386,217.533 174.212 M219.581 178.084 C 219.826 179.230,220.275 180.445,220.577 180.784 C 222.494 182.936,220.343 184.204,216.116 183.411 C 214.858 183.175,214.847 183.153,215.582 182.418 C 216.038 181.962,216.445 180.781,216.615 179.421 C 216.872 177.361,217.585 176.371,219.067 176.016 C 219.104 176.007,219.335 176.938,219.581 178.084 M214.485 211.197 C 211.048 211.585,210.585 212.165,209.794 217.068 C 209.445 219.231,208.815 222.170,208.394 223.600 C 206.552 229.861,206.922 234.400,209.275 234.400 C 211.760 234.400,212.793 232.746,212.798 228.759 L 212.800 226.918 215.446 226.480 C 216.901 226.239,218.386 225.787,218.746 225.475 C 219.106 225.163,220.120 224.800,221.000 224.668 C 222.661 224.419,224.800 222.576,224.800 221.394 C 224.800 220.686,225.804 220.634,227.571 221.250 C 228.526 221.583,228.977 221.583,229.310 221.250 C 230.085 220.475,233.201 220.676,233.194 221.500 C 233.183 222.773,232.628 223.076,229.834 223.330 C 222.086 224.036,220.056 233.263,227.400 234.392 C 232.901 235.237,236.221 234.011,236.647 230.976 C 236.768 230.109,237.219 228.541,237.649 227.491 C 238.269 225.974,238.406 224.825,238.315 221.892 L 238.200 218.201 236.200 217.110 C 233.764 215.781,231.223 215.670,228.744 216.783 L 227.000 217.566 226.760 216.162 C 226.338 213.700,223.799 211.757,220.549 211.409 C 219.070 211.251,217.667 211.074,217.430 211.017 C 217.194 210.960,215.868 211.041,214.485 211.197 M109.554 211.552 C 105.920 212.318,102.862 216.808,103.978 219.741 C 104.365 220.761,107.771 224.400,108.338 224.400 C 108.512 224.400,109.299 224.985,110.087 225.700 C 112.741 228.108,110.800 229.846,105.988 229.371 C 102.002 228.979,99.983 231.126,102.228 233.371 C 103.551 234.694,111.597 234.840,112.534 233.558 C 112.792 233.205,113.362 232.795,113.802 232.646 C 118.749 230.970,117.173 220.847,111.735 219.366 C 110.871 219.131,110.164 217.505,110.611 216.782 C 110.741 216.572,112.462 216.400,114.436 216.400 C 118.250 216.400,118.150 216.455,118.546 214.149 C 118.976 211.641,114.823 210.441,109.554 211.552 M115.344 212.654 C 117.061 212.890,117.200 212.995,117.200 214.054 C 117.200 215.346,116.585 215.502,114.439 214.754 C 112.875 214.208,110.004 214.891,108.947 216.059 C 108.218 216.864,109.380 220.400,110.374 220.400 C 110.585 220.400,111.848 221.307,113.179 222.415 C 118.081 226.494,115.495 232.139,108.283 233.106 C 106.771 233.309,102.800 231.897,102.800 231.156 C 102.800 230.691,106.163 230.284,107.530 230.585 C 110.393 231.213,112.800 229.556,112.800 226.954 C 112.800 226.272,110.456 223.600,109.858 223.600 C 108.827 223.600,106.063 220.541,105.792 219.101 C 105.489 217.483,106.579 214.400,107.454 214.400 C 107.729 214.400,108.197 214.054,108.493 213.632 C 108.974 212.944,109.957 212.668,112.644 212.464 C 113.108 212.429,114.323 212.514,115.344 212.654 M223.379 213.867 C 226.373 216.354,223.753 223.572,219.842 223.613 C 219.159 223.620,217.610 223.974,216.400 224.400 C 215.190 224.826,213.895 225.180,213.523 225.187 C 212.430 225.208,211.600 226.813,211.600 228.908 C 211.600 230.733,210.317 232.800,209.185 232.800 C 208.208 232.800,208.449 227.737,209.503 226.109 C 209.820 225.620,210.211 223.636,210.371 221.700 C 210.539 219.679,210.928 217.760,211.286 217.191 C 211.629 216.646,212.037 215.481,212.191 214.603 C 212.607 212.242,212.541 212.268,217.466 212.511 C 221.713 212.720,222.107 212.810,223.379 213.867 M178.099 213.487 C 177.604 213.580,177.023 213.983,176.809 214.382 C 176.596 214.782,175.804 215.473,175.050 215.917 C 173.103 217.066,172.690 219.029,174.151 220.194 C 175.395 221.186,175.558 223.082,174.532 224.648 C 173.540 226.162,173.309 231.476,174.163 233.128 C 175.012 234.771,180.051 235.090,181.411 233.588 C 182.426 232.466,181.819 230.796,180.108 230.000 C 178.601 229.299,178.494 228.567,179.600 226.504 C 180.040 225.684,180.402 224.469,180.405 223.806 C 180.416 221.507,180.802 220.800,182.047 220.800 C 184.747 220.800,185.356 218.061,183.148 215.853 C 182.516 215.221,182.000 214.559,182.000 214.379 C 182.000 214.076,181.009 213.683,179.600 213.428 C 179.270 213.368,178.595 213.395,178.099 213.487 M215.547 214.595 C 213.989 215.455,212.791 219.986,213.669 221.700 C 214.958 224.214,221.088 221.902,222.170 218.494 C 222.958 216.011,218.130 213.168,215.547 214.595 M180.558 216.161 C 180.884 216.942,181.526 217.648,182.063 217.815 C 184.032 218.430,183.876 219.600,181.825 219.600 C 180.264 219.600,179.951 219.937,179.039 222.600 C 177.451 227.241,177.207 229.549,178.198 230.541 C 179.604 231.947,179.687 233.200,178.374 233.200 C 175.387 233.200,173.766 229.950,175.462 227.362 C 176.622 225.591,176.699 220.710,175.583 219.670 L 174.669 218.818 175.830 217.909 C 177.513 216.592,178.400 215.657,178.400 215.200 C 178.400 214.161,180.025 214.884,180.558 216.161 M154.600 215.973 C 150.770 217.031,149.803 217.856,149.488 220.331 C 149.367 221.283,148.970 222.391,148.607 222.793 C 148.150 223.298,147.827 224.801,147.562 227.662 C 147.351 229.938,147.086 232.100,146.973 232.466 C 146.709 233.323,148.221 234.400,149.689 234.400 C 151.467 234.400,152.259 233.248,152.587 230.184 C 152.747 228.688,153.019 227.179,153.190 226.832 C 153.588 226.026,154.258 223.774,154.599 222.100 C 154.970 220.276,157.468 220.114,157.673 221.900 C 157.887 223.758,157.271 230.033,156.821 230.574 C 156.149 231.384,156.787 233.611,157.827 234.085 C 160.346 235.233,162.221 232.938,162.636 228.200 C 162.791 226.440,163.084 224.891,163.288 224.758 C 163.492 224.625,163.831 223.750,164.041 222.814 C 164.979 218.639,159.450 214.633,154.600 215.973 M251.221 217.961 C 250.317 219.192,249.471 220.863,249.342 221.675 C 249.212 222.486,248.861 223.244,248.563 223.359 C 248.264 223.474,247.797 224.430,247.525 225.484 C 246.894 227.931,246.521 226.699,246.447 221.926 C 246.357 216.061,243.778 214.122,240.968 217.807 L 239.851 219.271 240.527 222.536 C 240.899 224.331,241.203 226.630,241.202 227.645 C 241.199 230.297,241.904 233.631,242.638 234.442 C 243.229 235.095,243.145 235.156,241.335 235.388 C 236.108 236.056,235.563 236.379,236.468 238.268 C 237.669 240.772,241.676 241.186,244.844 239.133 C 245.920 238.436,246.800 237.645,246.800 237.375 C 246.800 237.106,247.060 236.786,247.378 236.664 C 247.695 236.542,248.183 235.668,248.460 234.721 C 248.738 233.775,249.281 232.770,249.667 232.489 C 250.053 232.207,250.485 231.307,250.629 230.489 C 250.772 229.670,251.110 228.820,251.379 228.600 C 252.111 228.003,252.800 226.561,252.800 225.626 C 252.800 225.172,252.972 224.800,253.183 224.800 C 253.934 224.800,256.436 219.074,256.185 217.930 C 255.566 215.113,253.301 215.127,251.221 217.961 M125.573 216.541 C 125.009 216.835,124.090 217.191,123.532 217.331 C 122.127 217.684,119.721 220.898,119.388 222.869 C 119.238 223.757,118.774 224.826,118.358 225.242 C 116.783 226.817,117.930 231.260,120.462 233.391 C 122.562 235.158,127.188 234.893,129.018 232.900 C 131.044 230.695,130.416 229.730,126.822 229.524 C 121.732 229.233,123.860 220.736,129.000 220.831 C 131.891 220.885,131.932 220.875,132.388 220.023 C 133.721 217.532,128.645 214.938,125.573 216.541 M136.988 216.786 C 134.603 217.905,133.809 218.906,134.469 219.962 C 135.008 220.826,135.491 220.914,139.100 220.805 C 141.191 220.742,141.200 220.747,141.200 221.971 C 141.200 223.181,141.167 223.201,139.100 223.247 C 134.059 223.361,131.668 225.297,131.557 229.357 C 131.439 233.642,132.171 234.162,138.563 234.332 C 143.830 234.472,144.800 234.105,144.800 231.972 C 144.800 231.615,145.084 230.754,145.431 230.058 C 146.533 227.848,147.273 219.762,146.485 218.524 C 144.968 216.138,140.220 215.269,136.988 216.786 M190.821 216.574 C 190.559 216.890,189.817 217.265,189.171 217.406 C 187.892 217.687,185.600 219.737,185.600 220.600 C 185.600 220.896,185.133 221.693,184.563 222.372 C 183.573 223.547,183.532 223.788,183.663 227.570 L 183.800 231.535 185.277 233.011 L 186.753 234.487 189.906 234.343 C 196.027 234.065,198.220 231.400,199.467 222.724 C 200.070 218.533,193.232 213.669,190.821 216.574 M220.274 216.940 C 221.057 217.724,219.092 220.798,217.540 221.216 C 215.877 221.664,214.743 221.616,214.779 221.100 C 214.790 220.935,214.800 220.195,214.800 219.455 C 214.800 216.855,218.492 215.159,220.274 216.940 M160.710 218.452 C 162.063 218.951,162.182 219.698,161.729 224.805 C 161.292 229.713,159.639 234.080,158.727 232.732 C 158.224 231.989,158.758 225.771,159.436 224.472 C 160.414 222.598,160.169 220.908,158.820 220.210 C 156.463 218.992,153.223 219.769,153.187 221.562 C 153.180 221.913,152.910 222.549,152.587 222.976 C 152.264 223.404,152.000 224.318,152.000 225.010 C 152.000 227.682,151.091 230.996,150.051 232.119 L 149.014 233.238 148.717 232.127 C 148.355 230.773,148.680 228.237,149.432 226.551 C 149.902 225.498,150.765 220.911,150.792 219.329 C 150.799 218.923,151.951 218.584,155.800 217.857 C 156.782 217.671,159.480 217.998,160.710 218.452 M234.629 218.264 C 237.340 219.177,238.145 221.812,236.616 224.768 C 236.295 225.389,235.913 227.071,235.765 228.507 C 235.441 231.671,235.433 231.685,233.253 232.543 C 230.964 233.445,227.391 233.496,226.446 232.642 C 226.056 232.289,225.538 232.000,225.295 232.000 C 223.855 232.000,224.311 227.151,225.816 226.466 C 226.357 226.219,226.800 225.767,226.800 225.461 C 226.800 224.841,228.761 224.411,231.620 224.404 C 233.834 224.399,234.400 223.896,234.400 221.934 C 234.400 220.074,233.660 219.602,230.726 219.594 C 226.709 219.582,227.180 218.822,231.800 217.859 C 232.240 217.768,232.613 217.672,232.629 217.646 C 232.645 217.621,233.545 217.899,234.629 218.264 M130.200 218.570 C 131.664 219.221,131.149 219.476,127.906 219.704 C 125.067 219.903,124.367 220.497,123.028 223.841 C 121.102 228.652,122.127 230.773,126.400 230.815 L 128.200 230.833 126.815 232.016 C 124.195 234.256,120.664 233.006,120.217 229.681 C 119.857 227.007,120.555 222.692,121.533 221.545 C 121.976 221.025,122.672 220.181,123.079 219.668 C 124.279 218.156,127.986 217.585,130.200 218.570 M143.943 218.440 C 145.807 219.090,146.030 220.941,144.831 225.800 C 144.614 226.680,144.140 228.610,143.779 230.089 C 143.018 233.198,142.463 233.481,137.862 233.099 C 129.992 232.446,131.043 225.108,139.100 224.451 C 144.374 224.021,144.398 219.996,139.129 219.600 C 135.998 219.365,135.392 218.995,137.256 218.459 C 139.119 217.923,142.432 217.913,143.943 218.440 M195.307 218.479 C 199.574 219.758,198.145 229.873,193.453 231.604 C 192.764 231.858,191.587 232.332,190.838 232.656 C 186.830 234.392,182.277 227.266,185.400 224.143 C 185.718 223.824,186.171 222.852,186.405 221.982 C 186.639 221.112,186.997 220.400,187.200 220.400 C 187.403 220.400,187.923 220.020,188.356 219.555 C 189.668 218.146,192.653 217.684,195.307 218.479 M244.575 221.489 C 244.724 222.980,244.941 225.228,245.057 226.484 C 245.374 229.889,247.581 230.265,248.431 227.059 C 248.673 226.146,249.196 225.040,249.593 224.600 C 249.989 224.160,250.444 223.184,250.604 222.432 C 251.071 220.225,252.934 217.917,253.761 218.522 C 254.492 219.057,253.844 221.779,252.651 223.180 C 251.984 223.963,249.200 229.660,249.200 230.242 C 249.200 230.481,248.850 230.993,248.423 231.379 C 247.995 231.766,247.531 232.602,247.392 233.237 C 247.253 233.872,246.954 234.505,246.728 234.644 C 246.503 234.784,246.064 235.506,245.754 236.249 C 245.411 237.069,244.908 237.600,244.475 237.600 C 244.082 237.600,243.561 237.799,243.317 238.043 C 242.708 238.652,238.926 238.105,238.643 237.367 C 238.473 236.925,238.859 236.800,240.387 236.800 C 244.328 236.800,245.360 235.716,243.697 233.324 C 242.535 231.654,241.559 219.669,242.490 218.508 C 243.391 217.384,244.295 218.676,244.575 221.489 M191.699 219.915 C 188.573 220.242,185.873 228.069,188.216 230.013 C 190.691 232.067,193.955 229.941,194.929 225.640 C 195.837 221.634,194.690 219.602,191.699 219.915 M193.201 222.201 C 194.864 224.205,192.390 229.636,189.975 229.282 C 188.317 229.038,188.202 225.181,189.807 223.658 C 190.353 223.140,190.800 222.465,190.800 222.158 C 190.800 221.408,192.569 221.439,193.201 222.201 M137.232 225.938 C 135.551 226.429,134.861 230.800,136.464 230.800 C 136.649 230.800,136.800 231.129,136.800 231.531 C 136.800 232.417,139.125 232.260,139.475 231.350 C 139.591 231.047,139.908 230.800,140.181 230.800 C 141.632 230.800,142.659 227.442,141.500 226.485 C 140.802 225.908,138.391 225.599,137.232 225.938 M228.723 225.852 C 227.002 226.355,226.927 229.557,228.594 231.355 C 230.566 233.484,231.922 232.576,233.224 228.256 C 233.780 226.412,231.314 225.095,228.723 225.852 M139.769 227.818 C 140.121 229.220,139.781 229.600,138.176 229.600 C 136.531 229.600,136.325 228.725,137.700 227.577 C 138.928 226.553,139.467 226.616,139.769 227.818 M231.504 228.031 C 231.654 229.435,231.156 229.957,229.899 229.717 C 228.537 229.457,228.434 228.302,229.693 227.420 C 230.829 226.624,231.373 226.808,231.504 228.031 " stroke="none" fill="#8dcaeb" fill-rule="evenodd"></path><path id="path4" d="M77.560 160.273 L 76.436 160.746 77.168 163.386 C 77.570 164.838,78.177 166.335,78.516 166.713 C 78.855 167.091,79.254 168.120,79.404 169.000 C 79.553 169.880,80.005 171.070,80.409 171.645 C 80.813 172.220,81.274 173.389,81.434 174.242 C 81.594 175.095,82.147 176.587,82.663 177.556 C 83.178 178.526,83.600 179.718,83.600 180.206 C 83.600 180.693,83.937 181.521,84.348 182.046 C 84.759 182.571,85.231 183.630,85.397 184.400 C 85.563 185.170,86.126 186.609,86.649 187.597 C 87.172 188.585,87.600 189.702,87.600 190.078 C 87.600 190.941,88.433 192.800,88.820 192.800 C 88.980 192.800,89.226 193.412,89.366 194.159 C 89.506 194.907,89.976 195.970,90.411 196.523 C 90.845 197.075,91.206 197.678,91.213 197.863 C 91.246 198.693,96.010 202.800,96.940 202.800 C 97.165 202.800,97.748 203.176,98.237 203.635 C 99.191 204.531,103.063 205.122,104.924 204.655 C 105.925 204.404,106.800 202.746,106.800 201.102 C 106.800 200.674,107.161 199.816,107.603 199.196 C 108.045 198.576,108.519 197.243,108.657 196.234 C 108.796 195.225,109.042 194.400,109.206 194.400 C 109.606 194.400,110.305 192.559,110.645 190.610 C 110.798 189.736,111.158 188.784,111.446 188.497 C 112.004 187.939,112.794 185.475,112.798 184.284 C 112.799 183.890,113.165 183.074,113.610 182.472 C 114.056 181.869,114.566 180.453,114.745 179.325 C 114.923 178.197,115.347 176.996,115.686 176.657 C 116.025 176.317,116.432 175.183,116.589 174.136 C 116.746 173.089,117.208 171.807,117.617 171.288 C 118.025 170.769,118.484 169.501,118.636 168.472 C 118.788 167.442,119.247 166.171,119.656 165.646 C 120.623 164.406,120.679 161.129,119.746 160.355 C 119.078 159.801,111.252 159.673,110.395 160.203 C 109.797 160.573,109.922 162.945,110.587 163.824 C 111.336 164.813,111.371 167.360,110.644 167.963 C 110.339 168.217,109.875 169.274,109.614 170.312 C 109.353 171.350,108.812 172.740,108.412 173.400 C 108.012 174.060,107.561 175.355,107.411 176.277 C 107.261 177.199,106.887 178.162,106.581 178.416 C 106.275 178.669,105.817 179.937,105.562 181.232 C 105.307 182.527,104.861 183.783,104.571 184.024 C 104.281 184.265,103.829 185.420,103.567 186.591 C 102.899 189.578,101.039 189.195,100.597 185.980 C 100.449 184.899,100.005 183.606,99.612 183.107 C 99.219 182.607,98.681 181.152,98.415 179.874 C 98.150 178.595,97.700 177.460,97.415 177.350 C 97.130 177.241,96.781 176.282,96.640 175.220 C 96.499 174.157,96.044 172.856,95.629 172.328 C 95.214 171.800,94.747 170.518,94.591 169.479 C 94.435 168.441,93.969 167.159,93.554 166.632 C 93.139 166.105,92.800 165.309,92.800 164.863 C 92.800 163.099,90.829 160.059,89.638 159.985 C 85.572 159.733,78.439 159.903,77.560 160.273 M124.000 159.938 C 121.647 160.264,121.523 161.111,123.300 164.743 L 124.600 167.400 124.653 182.200 C 124.709 197.814,124.457 200.234,122.545 202.435 C 121.387 203.768,123.201 204.583,127.673 204.738 C 135.579 205.013,137.021 203.702,133.359 199.569 C 132.910 199.061,132.803 196.897,132.813 188.569 C 132.824 179.381,132.892 178.291,133.409 179.000 C 133.730 179.440,134.399 180.274,134.896 180.854 C 135.393 181.434,136.160 182.386,136.600 182.970 C 137.040 183.554,137.698 184.339,138.063 184.716 C 138.428 185.092,139.562 186.478,140.583 187.795 C 141.604 189.112,142.700 190.336,143.019 190.515 C 143.339 190.694,143.600 191.091,143.600 191.397 C 143.600 191.704,143.915 192.193,144.300 192.483 C 144.685 192.774,145.180 193.296,145.400 193.644 C 147.570 197.070,153.120 202.800,154.270 202.800 C 154.541 202.800,155.214 203.250,155.764 203.800 C 156.654 204.690,157.096 204.800,159.782 204.800 C 161.893 204.800,162.800 204.947,162.800 205.289 C 162.800 205.558,163.193 205.385,163.673 204.904 C 164.546 204.031,164.547 204.023,164.573 184.661 L 164.600 165.290 165.520 164.545 C 166.831 163.483,167.366 160.917,166.386 160.392 C 163.654 158.931,153.980 160.159,154.526 161.898 C 155.865 166.164,155.993 167.298,156.013 174.969 C 156.030 181.633,155.932 183.039,155.417 183.555 C 155.024 183.947,154.800 184.000,154.800 183.699 C 154.800 183.439,154.215 182.615,153.500 181.868 C 152.785 181.121,151.883 180.080,151.495 179.555 C 151.108 179.030,149.793 177.340,148.573 175.800 C 147.353 174.260,145.960 172.497,145.477 171.882 C 144.995 171.267,144.366 170.547,144.081 170.282 C 143.795 170.017,143.345 169.558,143.081 169.262 C 142.816 168.966,142.195 168.283,141.700 167.744 C 141.205 167.205,140.800 166.618,140.800 166.440 C 140.800 166.112,140.169 165.333,137.091 161.863 L 135.373 159.926 130.187 159.863 C 127.334 159.828,124.550 159.862,124.000 159.938 M290.000 159.988 C 289.450 160.164,288.460 160.597,287.800 160.951 C 287.140 161.305,286.285 161.596,285.900 161.598 C 282.191 161.611,277.784 173.263,280.603 175.603 C 280.903 175.852,281.269 176.605,281.417 177.276 C 281.568 177.965,282.000 178.580,282.409 178.686 C 282.807 178.790,283.242 179.264,283.377 179.738 C 283.784 181.172,285.877 182.506,288.047 182.714 C 289.130 182.818,290.114 183.060,290.232 183.252 C 290.350 183.443,290.962 183.600,291.591 183.600 C 292.855 183.600,295.209 184.699,295.741 185.537 C 295.928 185.833,296.648 186.339,297.341 186.661 C 298.033 186.984,299.050 187.505,299.600 187.818 C 301.386 188.836,304.603 188.577,305.580 187.335 C 307.417 184.999,306.964 183.200,304.538 183.200 C 303.666 183.200,303.088 182.973,302.933 182.569 C 302.800 182.223,302.265 181.777,301.745 181.579 C 300.476 181.097,300.500 179.472,301.800 177.927 C 302.448 177.157,302.800 176.248,302.800 175.346 C 302.800 174.519,302.963 174.053,303.200 174.200 C 303.425 174.339,303.600 176.271,303.600 178.624 L 303.600 182.800 307.577 182.800 C 311.936 182.800,312.800 182.340,312.800 180.017 C 312.800 179.084,312.853 179.112,313.543 180.406 C 314.892 182.939,320.912 183.934,322.777 181.932 C 323.658 180.987,323.685 181.061,321.510 178.486 C 320.899 177.763,320.400 176.965,320.400 176.712 C 320.400 176.459,319.999 175.825,319.509 175.303 C 318.318 174.036,318.304 171.696,319.480 170.520 C 320.444 169.556,321.020 166.712,320.620 164.893 C 319.929 161.747,315.935 160.000,309.434 160.000 C 303.884 160.000,303.855 160.024,303.659 164.661 C 303.516 168.050,303.074 168.958,302.606 166.826 C 302.317 165.510,298.329 161.200,297.400 161.200 C 297.070 161.200,296.800 161.049,296.800 160.864 C 296.800 159.812,292.348 159.238,290.000 159.988 M118.752 162.209 C 119.220 162.653,119.180 163.057,118.488 164.866 C 117.661 167.030,116.372 170.602,114.652 175.500 C 114.130 176.985,113.479 178.830,113.206 179.600 C 112.932 180.370,112.442 181.810,112.117 182.800 C 111.792 183.790,111.092 185.613,110.563 186.850 C 110.033 188.088,109.600 189.336,109.600 189.624 C 109.600 189.912,109.257 190.879,108.838 191.774 C 108.418 192.668,107.796 194.300,107.455 195.400 C 105.960 200.221,104.912 202.884,104.376 203.223 C 101.708 204.912,93.656 199.955,91.325 195.189 C 89.739 191.946,88.863 189.822,88.437 188.188 C 88.206 187.301,87.748 186.221,87.421 185.788 C 87.093 185.354,86.820 184.716,86.813 184.368 C 86.806 184.020,86.351 182.850,85.801 181.768 C 85.252 180.686,84.692 179.213,84.556 178.497 C 84.421 177.780,84.002 176.790,83.627 176.297 C 83.251 175.803,82.721 174.379,82.450 173.131 C 82.179 171.883,81.716 170.662,81.423 170.419 C 81.129 170.175,80.675 169.126,80.414 168.088 C 80.153 167.050,79.700 165.930,79.407 165.600 C 78.898 165.028,78.660 163.818,78.756 162.300 C 78.795 161.671,79.321 161.601,83.900 161.614 C 89.675 161.631,90.728 162.070,91.540 164.800 C 92.486 167.980,94.431 173.277,94.958 174.109 C 95.269 174.599,95.646 175.764,95.796 176.698 C 95.947 177.632,96.232 178.496,96.430 178.618 C 96.628 178.741,97.080 179.867,97.436 181.120 C 97.791 182.374,98.313 183.767,98.595 184.216 C 98.878 184.665,99.321 186.054,99.580 187.304 C 100.090 189.761,100.899 190.985,102.276 191.384 C 103.293 191.680,103.618 191.193,104.399 188.200 C 104.687 187.100,105.151 185.930,105.431 185.600 C 105.711 185.270,106.157 184.137,106.422 183.083 C 106.687 182.029,107.240 180.506,107.652 179.699 C 108.063 178.891,108.406 177.954,108.413 177.615 C 108.419 177.277,108.868 176.100,109.409 175.000 C 109.950 173.900,110.394 172.764,110.396 172.475 C 110.398 172.187,110.873 170.950,111.451 169.728 C 112.331 167.869,112.469 167.130,112.294 165.207 C 112.031 162.309,112.296 161.904,114.672 161.580 C 116.856 161.282,117.952 161.451,118.752 162.209 M134.101 161.586 C 134.905 161.602,140.000 166.687,140.000 167.473 C 140.000 167.759,140.360 168.218,140.800 168.493 C 141.240 168.768,141.600 169.159,141.600 169.363 C 141.600 169.567,142.042 170.198,142.581 170.767 C 143.651 171.893,149.193 178.644,150.800 180.778 C 151.752 182.043,152.121 182.483,154.165 184.800 C 155.707 186.548,156.849 187.021,157.471 186.171 C 158.243 185.114,158.234 166.919,157.460 165.789 C 155.386 162.761,156.175 161.627,160.337 161.655 C 164.619 161.683,165.626 162.253,164.384 163.944 C 163.645 164.949,163.603 165.920,163.504 184.200 L 163.400 203.400 161.318 203.520 C 157.443 203.744,153.749 201.518,149.502 196.400 C 147.950 194.530,146.251 192.550,145.726 192.000 C 145.202 191.450,143.766 189.650,142.536 188.000 C 141.306 186.350,139.917 184.616,139.450 184.146 C 138.982 183.676,138.150 182.706,137.600 181.990 C 137.050 181.274,136.198 180.218,135.706 179.644 C 135.214 179.070,134.425 178.091,133.952 177.468 C 132.093 175.022,131.814 176.364,131.676 188.437 L 131.552 199.248 132.596 201.029 C 134.011 203.443,133.789 203.600,128.964 203.600 C 124.100 203.600,123.800 203.368,125.230 200.703 C 126.137 199.013,126.144 198.875,126.172 183.000 L 126.200 167.000 125.119 165.077 C 123.038 161.372,123.075 161.358,134.101 161.586 M296.552 162.235 C 298.533 163.343,300.885 165.918,301.577 167.739 C 302.453 170.045,301.773 176.492,300.560 177.380 C 298.224 179.088,299.842 182.669,303.757 184.453 L 304.813 184.934 303.937 185.867 C 303.455 186.380,302.816 186.800,302.518 186.800 C 301.540 186.800,297.203 185.201,296.494 184.579 C 294.146 182.521,293.298 182.110,290.878 181.864 C 279.235 180.680,277.958 164.364,289.321 161.990 C 293.870 161.040,294.448 161.059,296.552 162.235 M315.503 162.237 C 319.440 162.730,321.049 167.186,318.200 169.708 C 316.246 171.438,316.615 174.821,318.971 176.776 C 319.317 177.063,319.600 177.504,319.600 177.756 C 319.600 178.008,320.049 178.876,320.599 179.684 C 321.779 181.421,321.529 181.692,318.746 181.692 C 316.473 181.692,315.458 180.995,314.547 178.808 C 313.906 177.267,311.250 174.322,310.770 174.619 C 310.079 175.046,309.959 177.927,310.571 179.392 C 311.418 181.420,311.196 181.600,307.843 181.600 C 304.349 181.600,304.306 181.567,305.046 179.471 C 305.497 178.191,305.604 176.109,305.515 170.340 C 305.452 166.230,305.526 162.741,305.680 162.587 C 306.456 161.810,310.849 161.654,315.503 162.237 M288.952 163.906 C 286.601 165.450,285.258 171.872,286.800 174.200 C 287.237 174.860,287.596 175.736,287.597 176.146 C 287.606 178.722,292.235 180.698,294.516 179.101 C 295.222 178.607,295.857 178.175,295.926 178.142 C 296.981 177.634,297.284 171.254,296.405 168.041 C 295.489 164.695,291.296 162.368,288.952 163.906 M310.673 164.683 C 309.156 167.136,310.180 171.256,312.193 170.802 C 314.200 170.349,314.400 170.100,314.400 168.053 C 314.400 165.486,311.690 163.036,310.673 164.683 M293.200 165.278 C 293.200 165.541,293.695 166.273,294.300 166.905 C 295.362 168.015,295.400 168.204,295.400 172.408 C 295.400 177.276,295.269 177.560,292.878 177.880 C 288.468 178.472,286.479 172.096,289.016 165.500 C 289.340 164.660,293.200 164.455,293.200 165.278 M313.288 167.982 C 313.055 169.572,312.000 169.614,312.000 168.033 C 312.000 167.392,312.225 166.786,312.500 166.687 C 313.303 166.399,313.478 166.687,313.288 167.982 " stroke="none" fill="#f09aa2" fill-rule="evenodd"></path></g></svg>