<svg id="svg" version="1.1" xmlns="http://www.w3.org/2000/svg" xmlns:xlink="http://www.w3.org/1999/xlink" width="400" height="400" viewBox="0, 0, 400,400"><g id="svgg"><path id="path0" d="M158.860 69.295 C 157.649 70.226,157.059 71.042,156.761 72.195 C 156.534 73.078,156.067 74.667,155.724 75.728 C 155.381 76.788,154.966 79.500,154.803 81.754 C 154.640 84.009,154.282 86.273,154.008 86.786 C 153.733 87.299,153.343 89.781,153.142 92.301 C 152.941 94.821,152.537 97.454,152.246 98.152 C 151.954 98.850,151.583 101.306,151.420 103.610 C 151.257 105.915,150.853 108.430,150.521 109.200 C 150.190 109.970,149.773 112.606,149.596 115.057 C 149.419 117.509,149.064 119.907,148.807 120.386 C 148.551 120.866,148.097 123.572,147.800 126.400 C 147.503 129.228,147.053 131.927,146.801 132.398 C 146.549 132.869,146.188 135.267,146.000 137.727 C 145.811 140.187,145.397 142.830,145.081 143.600 C 144.764 144.370,144.391 146.800,144.252 149.000 C 144.103 151.346,143.673 153.910,143.212 155.200 C 142.719 156.581,142.421 158.460,142.413 160.248 C 142.406 161.873,142.081 164.106,141.658 165.448 C 141.250 166.742,140.798 169.657,140.654 171.927 C 140.510 174.197,140.148 176.537,139.849 177.127 C 139.550 177.717,139.180 179.969,139.027 182.130 C 138.873 184.292,138.399 187.151,137.974 188.483 C 137.524 189.891,137.200 192.036,137.200 193.610 C 137.200 195.120,136.862 197.439,136.436 198.858 C 136.015 200.256,135.545 203.199,135.391 205.399 C 135.226 207.745,134.798 210.189,134.355 211.313 C 133.087 214.530,133.281 219.545,134.726 220.929 L 135.853 222.009 153.408 221.904 L 170.964 221.800 171.495 219.200 C 171.786 217.770,172.286 214.800,172.606 212.600 C 172.925 210.400,173.370 207.700,173.595 206.600 C 173.819 205.500,174.164 202.890,174.362 200.800 C 174.559 198.710,174.906 196.525,175.133 195.945 C 175.360 195.365,175.735 193.193,175.966 191.119 C 176.198 189.046,176.658 186.010,176.988 184.374 C 177.319 182.738,177.860 179.420,178.191 177.000 C 179.818 165.093,180.809 164.395,196.092 164.398 C 206.550 164.400,217.396 163.823,219.400 163.157 C 220.060 162.938,222.120 162.491,223.978 162.164 C 225.836 161.837,227.586 161.378,227.866 161.145 C 228.147 160.912,228.967 160.573,229.689 160.392 C 231.600 159.912,236.097 157.999,236.831 157.355 C 237.179 157.050,237.750 156.800,238.101 156.800 C 238.452 156.800,239.273 156.350,239.927 155.800 C 240.581 155.250,241.232 154.800,241.375 154.800 C 243.100 154.800,252.157 146.019,255.600 141.008 C 256.150 140.207,256.812 139.319,257.070 139.034 C 257.329 138.750,257.820 137.905,258.162 137.158 C 258.504 136.411,258.956 135.530,259.166 135.200 C 261.027 132.275,264.149 123.546,265.031 118.800 C 265.337 117.150,265.771 115.387,265.994 114.881 C 266.836 112.975,266.503 95.164,265.600 93.800 C 265.163 93.140,264.804 91.932,264.803 91.116 C 264.801 90.170,264.521 89.371,264.032 88.916 C 263.610 88.522,263.133 87.660,262.972 87.000 C 262.811 86.340,262.256 85.370,261.740 84.845 C 261.223 84.320,260.800 83.706,260.800 83.479 C 260.800 83.009,260.560 82.729,257.211 79.300 C 255.869 77.925,254.625 76.800,254.447 76.800 C 254.270 76.800,253.601 76.350,252.962 75.800 C 252.323 75.251,251.597 74.801,251.349 74.800 C 251.101 74.800,250.692 74.552,250.441 74.250 C 250.190 73.947,249.182 73.475,248.200 73.200 C 247.218 72.925,246.217 72.462,245.975 72.170 C 245.733 71.878,244.694 71.519,243.667 71.372 C 242.640 71.226,241.239 70.767,240.553 70.353 C 239.750 69.868,238.538 69.597,237.153 69.591 C 235.969 69.585,233.662 69.225,232.027 68.791 C 229.176 68.032,227.649 68.000,194.800 68.000 L 160.545 68.000 158.860 69.295 M76.132 262.709 C 75.450 263.252,75.207 264.001,75.000 266.200 C 74.855 267.740,74.391 270.036,73.968 271.302 C 73.484 272.753,73.200 274.710,73.200 276.600 C 73.200 278.493,72.917 280.445,72.431 281.898 C 72.008 283.164,71.539 286.000,71.390 288.200 C 71.240 290.400,70.842 292.830,70.505 293.600 C 70.168 294.370,69.753 296.980,69.582 299.400 C 69.412 301.820,69.006 304.430,68.680 305.200 C 68.354 305.970,67.961 308.490,67.807 310.800 C 67.652 313.110,67.265 315.537,66.947 316.194 C 66.009 318.126,66.809 318.400,73.396 318.400 C 79.739 318.400,80.000 318.298,80.000 315.806 C 80.000 314.908,80.360 313.148,80.800 311.896 C 81.338 310.365,81.600 308.595,81.600 306.488 C 81.600 303.768,81.733 303.175,82.608 301.989 C 84.099 299.968,84.513 299.837,90.400 299.520 C 97.630 299.132,102.526 298.376,103.491 297.500 C 103.916 297.115,104.631 296.800,105.080 296.800 C 105.957 296.800,112.000 291.211,112.000 290.400 C 112.000 290.139,112.360 289.469,112.800 288.909 C 113.240 288.350,113.600 287.401,113.600 286.800 C 113.600 286.199,113.948 285.265,114.374 284.724 C 115.976 282.687,115.977 271.418,114.375 269.572 C 113.949 269.080,113.600 268.444,113.600 268.159 C 113.600 267.542,111.193 265.205,110.554 265.202 C 110.309 265.201,109.661 264.848,109.114 264.418 C 108.568 263.989,107.059 263.464,105.760 263.252 C 104.462 263.040,102.893 262.672,102.274 262.434 C 100.190 261.631,77.181 261.874,76.132 262.709 M95.496 272.800 C 96.748 273.240,98.055 273.600,98.401 273.600 C 98.746 273.600,99.607 274.353,100.314 275.273 C 103.579 279.520,100.137 287.808,94.800 288.551 C 90.039 289.215,85.912 289.304,85.561 288.751 C 85.098 288.020,85.120 281.773,85.591 280.000 C 85.796 279.230,86.169 277.790,86.421 276.800 C 87.649 271.976,90.089 270.900,95.496 272.800 M130.567 281.133 C 129.448 281.285,128.220 281.722,127.838 282.105 C 127.456 282.487,126.805 282.800,126.392 282.800 C 125.979 282.800,125.156 283.250,124.562 283.800 C 123.969 284.350,123.365 284.800,123.221 284.800 C 122.679 284.800,117.600 290.307,117.600 290.895 C 117.600 291.103,117.245 291.725,116.811 292.277 C 116.376 292.830,115.903 293.938,115.760 294.741 C 115.616 295.543,115.206 296.534,114.849 296.942 C 113.852 298.082,113.894 308.751,114.900 309.757 C 115.285 310.142,115.600 310.760,115.600 311.130 C 115.600 312.671,120.379 318.000,121.761 318.000 C 122.009 318.000,122.884 318.360,123.704 318.800 C 125.312 319.661,134.495 320.017,134.977 319.237 C 135.101 319.037,136.180 318.566,137.376 318.190 C 138.572 317.814,139.646 317.257,139.763 316.953 C 139.879 316.649,140.251 316.400,140.587 316.400 C 140.924 316.400,141.574 316.026,142.031 315.569 C 143.084 314.516,143.998 314.848,144.006 316.287 C 144.018 318.450,144.263 318.536,150.058 318.435 C 156.210 318.326,156.400 318.235,156.400 315.403 C 156.400 314.249,156.734 312.246,157.142 310.952 C 157.550 309.658,157.992 306.885,158.125 304.788 C 158.258 302.692,158.622 300.352,158.935 299.588 C 159.247 298.825,159.623 296.490,159.770 294.400 C 159.917 292.310,160.399 289.400,160.842 287.932 C 161.313 286.370,161.595 284.464,161.523 283.332 L 161.400 281.400 155.600 281.400 L 149.800 281.400 149.677 282.670 C 149.423 285.289,147.771 285.060,144.158 281.905 C 143.218 281.084,134.541 280.591,130.567 281.133 M168.100 281.465 C 167.372 281.759,167.487 282.991,168.400 284.696 C 168.840 285.516,169.200 286.553,169.200 287.000 C 169.200 287.447,169.560 288.484,170.000 289.304 C 170.440 290.125,170.802 291.203,170.804 291.699 C 170.806 292.194,171.250 293.500,171.791 294.600 C 172.332 295.700,172.782 297.050,172.790 297.600 C 172.798 298.150,173.163 299.140,173.600 299.800 C 174.037 300.460,174.396 301.519,174.397 302.153 C 174.399 302.787,174.760 303.888,175.200 304.601 C 175.641 305.313,176.183 306.855,176.405 308.027 C 176.627 309.200,176.985 310.267,177.200 310.400 C 177.604 310.650,178.400 314.231,178.400 315.800 C 178.400 316.569,177.295 318.318,175.505 320.382 C 175.227 320.702,174.783 321.470,174.517 322.088 C 174.251 322.706,173.756 323.319,173.417 323.449 C 173.078 323.579,172.800 323.905,172.800 324.173 C 172.800 324.441,172.350 325.083,171.800 325.600 C 171.250 326.117,170.800 326.700,170.800 326.896 C 170.800 327.093,170.375 327.826,169.855 328.527 C 167.376 331.867,168.132 332.400,175.347 332.400 C 180.396 332.400,180.763 332.348,181.000 331.600 C 181.140 331.159,181.602 330.613,182.027 330.386 C 182.452 330.158,182.800 329.717,182.800 329.407 C 182.800 329.096,183.250 328.356,183.800 327.762 C 184.350 327.169,184.800 326.446,184.800 326.156 C 184.800 325.866,185.160 325.435,185.600 325.200 C 186.040 324.965,186.400 324.522,186.400 324.217 C 186.400 323.911,186.819 323.153,187.332 322.531 C 187.844 321.909,188.379 321.085,188.519 320.700 C 188.660 320.315,188.939 320.000,189.139 320.000 C 189.339 320.000,189.727 319.460,190.000 318.800 C 190.273 318.140,190.633 317.600,190.800 317.600 C 190.967 317.600,191.329 317.053,191.606 316.385 C 191.883 315.716,192.445 314.990,192.855 314.771 C 193.265 314.551,193.600 314.206,193.600 314.004 C 193.600 313.428,195.569 310.481,197.783 307.742 C 198.342 307.050,198.800 306.301,198.800 306.076 C 198.800 305.852,199.154 305.248,199.586 304.734 C 201.619 302.317,202.400 301.254,202.400 300.904 C 202.400 300.695,202.850 300.001,203.400 299.362 C 203.949 298.723,204.399 297.981,204.400 297.714 C 204.400 297.447,204.760 297.035,205.200 296.800 C 205.640 296.565,206.000 296.136,206.000 295.848 C 206.000 295.560,206.360 294.998,206.800 294.600 C 207.240 294.202,207.600 293.653,207.600 293.380 C 207.600 293.107,208.047 292.460,208.593 291.942 C 209.139 291.424,209.589 290.803,209.593 290.562 C 209.597 290.321,209.960 289.798,210.400 289.400 C 210.840 289.002,211.200 288.433,211.200 288.135 C 211.200 287.838,211.650 287.203,212.200 286.725 C 212.750 286.247,213.200 285.658,213.200 285.417 C 213.200 285.175,213.571 284.660,214.025 284.271 C 214.567 283.808,214.807 283.194,214.725 282.483 L 214.600 281.400 208.880 281.289 L 203.161 281.178 201.946 282.489 C 199.840 284.762,199.600 285.059,199.600 285.392 C 199.600 285.866,196.957 289.772,196.225 290.379 C 195.881 290.665,195.600 291.050,195.600 291.235 C 195.600 291.420,195.054 292.343,194.387 293.286 C 193.720 294.229,192.877 295.450,192.515 296.000 C 192.152 296.550,191.663 297.183,191.428 297.407 C 191.193 297.630,190.730 298.274,190.400 298.837 C 188.774 301.613,188.146 302.395,187.543 302.397 C 186.852 302.400,186.400 301.619,186.400 300.421 C 186.400 300.029,186.040 299.250,185.600 298.691 C 185.124 298.085,184.795 297.052,184.787 296.137 C 184.781 295.292,184.332 293.700,183.791 292.600 C 183.250 291.500,182.806 290.014,182.804 289.299 C 182.802 288.583,182.440 287.325,182.000 286.504 C 181.560 285.684,181.200 284.596,181.200 284.088 C 181.200 281.668,172.108 279.848,168.100 281.465 M142.321 290.692 C 146.953 293.406,148.831 298.105,146.800 301.896 C 146.360 302.716,146.000 303.637,146.000 303.941 C 146.000 304.670,143.825 307.125,142.029 308.423 C 140.210 309.738,135.168 310.687,133.474 310.034 C 132.855 309.795,131.955 309.595,131.474 309.588 C 127.830 309.539,124.469 300.797,127.013 297.985 C 127.336 297.629,127.600 297.045,127.600 296.689 C 127.600 296.134,128.397 295.030,129.975 293.400 C 133.527 289.729,138.730 288.587,142.321 290.692 " stroke="none" fill="#063281" fill-rule="evenodd"></path><path id="path1" d="M266.400 113.181 C 266.400 113.611,266.217 114.376,265.994 114.881 C 265.771 115.387,265.337 117.150,265.031 118.800 C 264.149 123.546,261.027 132.275,259.166 135.200 C 258.956 135.530,258.504 136.411,258.162 137.158 C 257.820 137.905,257.329 138.750,257.070 139.034 C 256.812 139.319,256.150 140.207,255.600 141.008 C 252.157 146.019,243.100 154.800,241.375 154.800 C 241.232 154.800,240.581 155.250,239.927 155.800 C 239.273 156.350,238.452 156.800,238.101 156.800 C 237.750 156.800,237.179 157.050,236.831 157.355 C 236.097 157.999,231.600 159.912,229.689 160.392 C 228.967 160.573,228.147 160.912,227.866 161.145 C 227.586 161.378,225.836 161.837,223.978 162.164 C 222.120 162.491,220.060 162.938,219.400 163.157 C 217.396 163.823,206.550 164.400,196.092 164.398 C 180.809 164.395,179.818 165.093,178.191 177.000 C 177.860 179.420,177.319 182.738,176.988 184.374 C 176.658 186.010,176.198 189.046,175.966 191.119 C 175.735 193.193,175.360 195.365,175.133 195.945 C 174.906 196.525,174.559 198.710,174.362 200.800 C 174.164 202.890,173.819 205.500,173.594 206.600 C 173.370 207.700,172.938 210.310,172.634 212.400 C 171.882 217.587,171.148 221.337,170.811 221.715 C 170.657 221.888,170.636 222.679,170.765 223.472 C 171.120 225.654,170.590 232.289,170.005 232.994 C 168.765 234.488,168.994 238.932,170.383 240.321 L 171.662 241.600 187.473 241.600 L 203.285 241.600 204.475 240.598 C 206.164 239.177,207.598 236.283,207.608 234.279 C 207.621 231.588,208.327 227.432,208.986 226.167 C 209.394 225.386,209.602 223.811,209.615 221.400 C 209.628 219.117,209.865 217.215,210.264 216.200 C 210.609 215.320,211.060 212.530,211.264 210.000 C 211.511 206.948,211.899 204.829,212.418 203.704 C 212.884 202.695,213.200 201.147,213.200 199.881 C 213.200 197.901,213.335 197.602,215.133 195.594 L 217.066 193.436 222.633 193.167 C 230.938 192.766,241.252 191.623,242.466 190.969 C 243.052 190.653,244.654 190.278,246.024 190.134 C 247.709 189.958,248.720 189.635,249.147 189.137 C 249.494 188.732,250.089 188.400,250.470 188.400 C 251.319 188.400,253.200 187.573,253.200 187.199 C 253.200 187.049,253.901 186.716,254.759 186.460 C 255.616 186.203,256.420 185.724,256.546 185.396 C 256.672 185.068,257.131 184.800,257.567 184.800 C 258.002 184.800,258.802 184.389,259.344 183.887 C 259.886 183.385,260.930 182.530,261.664 181.987 C 263.975 180.279,267.009 177.061,270.511 172.600 C 271.030 171.940,271.683 170.828,271.964 170.129 C 272.244 169.430,272.727 168.760,273.037 168.641 C 273.346 168.522,273.600 167.997,273.600 167.474 C 273.600 166.951,273.941 166.129,274.358 165.649 C 274.775 165.168,275.237 164.126,275.386 163.333 C 275.535 162.540,276.004 161.244,276.428 160.452 C 276.853 159.660,277.200 158.490,277.200 157.853 C 277.200 157.216,277.537 156.133,277.950 155.447 C 278.427 154.654,278.778 153.099,278.913 151.174 C 279.031 149.510,279.413 147.463,279.764 146.626 C 280.624 144.565,280.679 133.167,279.838 131.149 C 279.528 130.407,279.083 128.757,278.848 127.482 C 278.613 126.206,278.146 124.889,277.810 124.553 C 277.475 124.217,277.200 123.543,277.200 123.055 C 277.200 122.563,276.397 121.281,275.402 120.183 C 274.413 119.092,273.603 118.072,273.602 117.915 C 273.601 117.758,272.475 116.720,271.100 115.608 C 269.725 114.496,268.315 113.320,267.966 112.993 C 267.087 112.170,266.400 112.252,266.400 113.181 M225.613 262.111 C 224.291 262.780,222.895 267.608,222.464 273.000 C 222.288 275.200,221.898 277.450,221.598 278.000 C 221.298 278.550,220.925 280.899,220.769 283.220 C 220.614 285.541,220.219 288.241,219.893 289.220 C 219.566 290.199,219.171 292.698,219.014 294.774 C 218.857 296.849,218.402 299.639,218.003 300.974 C 217.604 302.308,217.195 305.031,217.094 307.025 C 216.980 309.246,216.647 311.201,216.233 312.074 C 215.775 313.040,215.596 314.255,215.679 315.849 L 215.800 318.200 221.706 318.311 C 229.256 318.452,229.197 318.482,229.210 314.486 C 229.215 312.789,229.406 310.680,229.635 309.800 C 230.312 307.195,230.734 305.120,231.001 303.092 C 231.378 300.220,232.178 299.856,238.780 299.545 C 245.468 299.230,251.365 298.336,252.299 297.494 C 252.684 297.147,253.490 296.740,254.089 296.591 C 257.181 295.819,262.420 288.613,262.987 284.354 C 263.122 283.339,263.490 282.169,263.804 281.754 C 264.778 280.467,264.623 272.210,263.600 270.909 C 263.160 270.350,262.793 269.601,262.783 269.246 C 262.760 268.339,260.453 265.845,258.900 265.047 C 258.185 264.680,257.600 264.204,257.600 263.990 C 257.600 263.775,257.195 263.600,256.699 263.600 C 256.204 263.600,253.999 263.152,251.799 262.605 C 247.111 261.438,227.667 261.072,225.613 262.111 M321.982 263.300 C 321.735 264.235,321.292 265.540,320.998 266.200 C 320.704 266.860,320.373 269.200,320.263 271.400 C 320.150 273.660,319.771 276.183,319.393 277.200 C 319.025 278.190,318.636 280.620,318.528 282.600 C 318.420 284.580,318.011 287.190,317.618 288.400 C 317.225 289.610,316.789 292.454,316.649 294.719 C 316.502 297.088,316.160 299.212,315.843 299.719 C 315.522 300.233,315.187 302.364,315.038 304.838 C 314.880 307.468,314.475 309.952,313.973 311.382 C 313.433 312.918,313.202 314.438,313.281 315.943 L 313.400 318.200 318.504 318.312 C 325.083 318.456,325.032 318.487,325.294 314.281 C 325.409 312.436,325.719 310.526,325.981 310.035 C 326.244 309.544,326.703 306.828,327.000 304.000 C 327.297 301.172,327.744 298.478,327.993 298.013 C 328.242 297.549,328.604 295.207,328.799 292.809 C 329.002 290.318,329.421 287.934,329.777 287.245 C 330.174 286.476,330.400 284.981,330.400 283.119 C 330.400 281.345,330.791 278.628,331.395 276.199 C 331.943 274.000,332.393 271.069,332.395 269.687 C 332.398 268.305,332.670 266.528,333.000 265.738 C 334.355 262.495,333.066 261.600,327.034 261.600 L 322.432 261.600 321.982 263.300 M245.276 273.123 C 247.687 273.875,249.200 274.947,249.200 275.902 C 249.200 276.219,249.491 277.091,249.846 277.840 C 250.440 279.092,250.440 279.308,249.846 280.560 C 249.491 281.309,249.200 282.489,249.200 283.184 C 249.200 285.306,246.286 288.038,243.561 288.471 C 234.893 289.847,231.401 288.605,233.771 284.988 C 234.195 284.342,234.403 283.077,234.410 281.114 C 234.437 272.973,237.524 270.702,245.276 273.123 M279.062 281.219 C 277.996 281.398,276.812 281.827,276.431 282.172 C 276.049 282.518,275.498 282.800,275.206 282.800 C 274.914 282.800,274.086 283.250,273.364 283.800 C 272.643 284.350,271.783 284.800,271.454 284.800 C 271.124 284.800,270.740 285.160,270.600 285.600 C 270.460 286.040,270.157 286.400,269.927 286.400 C 269.331 286.400,266.800 289.245,266.800 289.915 C 266.800 290.222,266.440 290.931,266.000 291.491 C 265.560 292.050,265.200 292.729,265.200 293.000 C 265.200 293.271,264.866 293.921,264.459 294.446 C 262.654 296.769,262.457 309.172,264.192 311.200 C 264.474 311.530,264.840 312.240,265.004 312.778 C 265.404 314.086,269.358 318.000,270.280 318.000 C 270.682 318.000,271.684 318.360,272.504 318.800 C 274.444 319.839,283.171 319.999,283.991 319.011 C 284.260 318.686,285.137 318.304,285.940 318.161 C 286.743 318.018,287.760 317.584,288.200 317.197 C 290.596 315.089,292.972 314.645,292.722 316.351 C 292.465 318.098,293.354 318.401,298.695 318.391 C 305.179 318.379,305.243 318.324,305.628 312.493 C 305.789 310.050,306.188 307.494,306.525 306.747 C 306.865 305.991,307.244 303.530,307.390 301.137 C 307.552 298.456,307.936 296.117,308.424 294.833 C 308.915 293.543,309.200 291.795,309.200 290.083 C 309.200 288.593,309.426 286.480,309.702 285.387 C 310.724 281.348,310.294 281.076,303.211 281.280 C 299.390 281.389,298.984 281.475,298.595 282.257 C 297.179 285.104,296.678 285.079,292.893 281.972 C 291.623 280.929,283.445 280.484,279.062 281.219 M291.053 290.719 C 294.930 292.760,296.048 295.179,295.575 300.502 C 295.398 302.499,295.109 303.445,294.468 304.128 C 293.991 304.636,293.600 305.249,293.600 305.490 C 293.600 305.916,292.440 306.953,290.125 308.600 C 288.748 309.579,283.754 310.510,282.752 309.974 C 282.367 309.768,281.425 309.600,280.658 309.600 C 278.825 309.600,275.763 306.678,275.364 304.548 C 274.937 302.275,275.406 297.677,276.147 296.858 C 276.506 296.462,276.800 295.922,276.800 295.660 C 276.800 295.035,279.970 291.601,280.551 291.596 C 280.798 291.594,281.900 291.150,283.000 290.609 C 285.735 289.264,288.358 289.300,291.053 290.719 " stroke="none" fill="#059cdc" fill-rule="evenodd"></path><path id="path2" d="M0.000 200.000 L 0.000 400.000 200.000 400.000 L 400.000 400.000 400.000 200.000 L 400.000 0.000 200.000 0.000 L 0.000 0.000 0.000 200.000 M232.333 67.207 C 234.389 67.424,236.450 67.870,236.922 68.200 C 237.393 68.530,238.521 68.800,239.429 68.800 C 241.205 68.800,243.600 69.482,243.600 69.988 C 243.600 70.158,244.344 70.417,245.254 70.562 C 246.163 70.708,247.358 71.181,247.908 71.613 C 248.458 72.046,249.237 72.400,249.638 72.400 C 250.040 72.400,250.691 72.745,251.084 73.168 C 251.478 73.590,252.300 74.060,252.911 74.214 C 253.521 74.367,254.203 74.831,254.425 75.246 C 254.647 75.661,255.020 76.000,255.254 76.000 C 256.413 76.000,263.179 83.849,263.787 85.900 C 263.934 86.395,264.193 86.800,264.363 86.800 C 264.798 86.800,265.600 88.672,265.600 89.687 C 265.600 90.155,265.892 90.860,266.250 91.255 C 267.192 92.296,267.717 98.317,267.471 105.256 L 267.264 111.111 268.332 112.077 C 268.919 112.608,270.188 113.568,271.151 114.211 C 272.115 114.854,273.691 116.374,274.654 117.590 C 275.618 118.805,276.598 120.031,276.832 120.314 C 277.841 121.532,279.600 125.370,279.600 126.352 C 279.600 126.940,279.882 127.824,280.226 128.316 C 281.697 130.416,281.916 144.088,280.557 148.940 C 280.239 150.073,279.821 152.131,279.627 153.514 C 279.433 154.896,278.992 156.458,278.646 156.985 C 278.301 157.512,277.897 158.721,277.748 159.672 C 277.600 160.622,277.146 162.027,276.739 162.794 C 276.333 163.561,276.000 164.482,276.000 164.840 C 276.000 165.199,275.651 165.936,275.225 166.478 C 274.798 167.020,274.332 167.931,274.189 168.502 C 274.045 169.074,273.584 169.852,273.164 170.233 C 272.744 170.613,272.400 171.250,272.400 171.648 C 272.400 172.046,272.040 172.565,271.600 172.800 C 271.160 173.035,270.800 173.412,270.800 173.638 C 270.800 174.738,262.435 183.600,261.396 183.600 C 261.136 183.600,260.602 183.955,260.209 184.390 C 259.816 184.824,259.140 185.292,258.708 185.429 C 258.275 185.567,257.579 186.021,257.161 186.439 C 256.742 186.858,256.113 187.200,255.763 187.200 C 255.413 187.200,254.669 187.560,254.109 188.000 C 253.550 188.440,252.781 188.800,252.400 188.800 C 252.019 188.800,251.227 189.178,250.640 189.640 C 250.053 190.102,248.814 190.571,247.886 190.682 C 246.959 190.793,245.468 191.225,244.574 191.642 C 243.679 192.059,242.329 192.403,241.574 192.406 C 240.818 192.410,238.552 192.760,236.538 193.186 C 234.138 193.692,230.267 194.055,225.311 194.237 C 215.432 194.601,214.517 195.284,213.636 202.943 C 213.387 205.111,213.029 207.181,212.841 207.543 C 212.654 207.904,212.294 210.210,212.041 212.667 C 211.788 215.124,211.318 218.004,210.995 219.067 C 210.673 220.130,210.407 221.915,210.404 223.033 C 210.399 225.392,209.718 229.475,209.154 230.522 C 208.941 230.919,208.672 232.449,208.557 233.922 C 208.245 237.931,208.170 238.125,206.052 240.345 L 204.092 242.400 187.546 242.400 L 171.000 242.399 169.818 241.382 C 167.939 239.767,167.936 234.645,169.809 228.000 C 170.150 226.790,170.327 225.225,170.201 224.523 L 169.972 223.246 152.486 223.123 C 139.781 223.034,134.770 222.868,134.161 222.518 C 132.955 221.827,131.893 218.207,132.365 216.400 C 132.566 215.630,132.851 213.290,132.999 211.200 C 133.147 209.110,133.508 206.860,133.803 206.200 C 134.097 205.540,134.460 203.200,134.609 201.000 C 134.758 198.800,135.206 196.010,135.604 194.800 C 136.003 193.590,136.419 190.859,136.530 188.732 C 136.644 186.548,136.997 184.284,137.341 183.532 C 137.675 182.799,138.072 180.400,138.222 178.200 C 138.372 176.000,138.750 173.435,139.063 172.501 C 139.375 171.566,139.806 168.809,140.020 166.373 C 140.234 163.937,140.677 161.426,141.004 160.792 C 141.332 160.158,141.604 158.686,141.608 157.520 C 141.619 154.634,142.322 149.976,142.841 149.351 C 143.074 149.070,143.405 146.801,143.576 144.309 C 143.757 141.675,144.138 139.281,144.488 138.589 C 144.844 137.884,145.191 135.649,145.341 133.096 C 145.485 130.632,145.863 128.152,146.225 127.296 C 146.572 126.473,147.011 123.820,147.200 121.400 C 147.389 118.980,147.803 116.370,148.120 115.600 C 148.438 114.830,148.822 112.314,148.973 110.009 C 149.125 107.703,149.489 105.273,149.781 104.609 C 150.074 103.944,150.505 101.288,150.739 98.706 C 150.973 96.125,151.386 93.605,151.655 93.106 C 151.925 92.608,152.283 90.186,152.450 87.724 C 152.620 85.231,153.009 82.750,153.328 82.124 C 153.644 81.506,154.034 79.204,154.195 77.008 C 154.572 71.872,156.546 68.252,159.600 67.091 C 160.666 66.686,228.413 66.794,232.333 67.207 M104.900 261.221 C 105.725 261.450,106.400 261.789,106.400 261.973 C 106.400 262.158,107.195 262.428,108.167 262.574 C 109.139 262.720,110.167 263.119,110.451 263.461 C 110.735 263.803,111.380 264.240,111.884 264.432 C 112.388 264.623,112.800 265.043,112.800 265.363 C 112.800 265.684,113.160 266.060,113.600 266.200 C 114.040 266.340,114.400 266.684,114.400 266.965 C 114.400 267.246,114.747 267.790,115.171 268.174 C 115.595 268.557,116.065 269.620,116.216 270.536 C 116.367 271.451,116.650 272.398,116.845 272.640 C 117.586 273.561,117.701 276.714,117.073 278.862 C 116.729 280.038,116.354 281.957,116.240 283.128 C 116.125 284.298,115.664 285.849,115.216 286.575 C 114.767 287.301,114.400 288.268,114.400 288.724 C 114.400 289.180,114.213 289.669,113.984 289.810 C 113.755 289.951,113.103 290.817,112.535 291.734 C 111.241 293.823,107.233 297.592,106.300 297.597 C 105.915 297.599,105.267 297.933,104.861 298.339 C 104.454 298.746,103.398 299.194,102.514 299.335 C 101.629 299.477,100.387 299.863,99.753 300.194 C 98.876 300.651,97.152 300.796,92.550 300.798 C 84.266 300.801,84.146 300.833,83.800 303.142 C 83.646 304.164,83.326 305.360,83.087 305.800 C 82.848 306.240,82.525 308.502,82.369 310.827 C 82.061 315.412,80.979 318.749,79.454 319.817 C 78.592 320.421,68.432 320.694,67.018 320.152 C 65.228 319.465,64.805 314.398,66.291 311.452 C 66.614 310.812,67.018 308.248,67.205 305.652 C 67.391 303.070,67.800 300.466,68.125 299.800 C 68.448 299.138,68.831 296.720,68.980 294.409 C 69.128 292.103,69.489 289.673,69.781 289.009 C 70.074 288.344,70.502 285.730,70.733 283.200 C 70.963 280.670,71.432 277.931,71.776 277.113 C 72.135 276.257,72.400 274.468,72.400 272.900 C 72.400 271.401,72.679 269.190,73.020 267.987 C 73.360 266.784,73.810 264.990,74.018 264.000 C 74.712 260.707,74.258 260.800,89.744 260.802 C 97.976 260.804,103.996 260.970,104.900 261.221 M251.586 261.226 C 253.009 261.456,254.359 261.794,254.586 261.976 C 254.814 262.159,255.599 262.436,256.330 262.592 C 263.582 264.144,268.046 275.747,264.471 283.751 C 263.992 284.824,263.600 286.057,263.600 286.492 C 263.600 290.332,255.969 297.736,250.400 299.299 C 245.647 300.633,244.638 300.765,239.081 300.783 C 231.993 300.805,231.829 300.930,231.493 306.557 C 231.370 308.629,231.052 310.728,230.788 311.222 C 230.524 311.716,230.144 313.488,229.945 315.160 C 229.387 319.829,229.091 320.000,221.557 320.000 L 215.559 320.000 215.015 318.698 C 214.395 317.214,214.772 311.860,215.768 308.000 C 216.081 306.790,216.526 303.862,216.757 301.494 C 216.989 299.126,217.361 296.846,217.586 296.427 C 217.810 296.008,218.158 293.805,218.360 291.532 C 218.561 289.260,218.932 286.871,219.182 286.223 C 219.433 285.576,219.822 283.081,220.046 280.678 C 220.271 278.275,220.641 275.835,220.869 275.255 C 221.098 274.675,221.531 272.013,221.833 269.339 C 222.415 264.173,223.303 261.860,224.960 261.190 C 226.175 260.699,248.525 260.729,251.586 261.226 M333.220 261.410 C 334.613 262.131,334.876 265.206,333.819 268.429 C 333.500 269.403,333.050 272.161,332.820 274.558 C 332.590 276.954,332.211 279.146,331.977 279.428 C 331.743 279.710,331.388 281.979,331.188 284.470 C 330.823 289.012,330.539 290.655,329.989 291.400 C 329.827 291.620,329.570 293.600,329.418 295.800 C 329.266 298.000,328.813 300.970,328.411 302.400 C 328.010 303.830,327.577 306.530,327.449 308.400 C 327.321 310.270,326.950 312.520,326.625 313.400 C 326.301 314.280,326.027 315.595,326.018 316.323 C 325.980 319.142,324.217 320.000,318.455 320.000 C 311.350 320.000,310.942 318.665,313.997 305.400 C 314.199 304.520,314.373 302.806,314.383 301.592 C 314.392 300.378,314.740 298.128,315.155 296.592 C 315.570 295.056,316.031 292.197,316.181 290.238 C 316.330 288.278,316.688 285.938,316.977 285.038 C 317.267 284.137,317.713 281.347,317.970 278.839 C 318.227 276.330,318.616 273.944,318.835 273.535 C 319.053 273.127,319.408 270.785,319.623 268.332 C 320.010 263.922,320.810 261.589,322.115 261.060 C 323.384 260.545,332.077 260.819,333.220 261.410 M238.278 273.881 C 237.158 274.057,237.034 274.242,236.041 277.200 C 235.244 279.575,234.693 287.282,235.292 287.681 C 236.452 288.453,244.532 287.560,245.555 286.546 C 246.080 286.026,246.665 285.600,246.855 285.600 C 247.045 285.600,247.200 285.395,247.200 285.144 C 247.200 284.893,247.485 284.480,247.834 284.225 C 248.323 283.867,248.483 282.926,248.534 280.115 C 248.629 274.870,248.070 274.367,241.600 273.873 C 240.390 273.780,238.895 273.784,238.278 273.881 M88.800 274.334 C 87.851 274.619,87.787 274.827,87.541 278.417 C 87.389 280.644,87.020 282.693,86.644 283.400 C 86.292 284.060,86.004 285.275,86.002 286.100 L 86.000 287.600 90.534 287.600 L 95.069 287.600 96.921 286.157 C 98.942 284.583,98.956 284.554,99.602 280.873 C 100.088 278.100,99.151 275.072,97.673 274.641 C 96.384 274.265,89.793 274.037,88.800 274.334 M140.800 279.600 C 141.662 280.040,142.906 280.400,143.563 280.400 C 144.284 280.400,145.187 280.797,145.838 281.400 C 147.224 282.685,148.313 282.681,148.804 281.390 L 149.188 280.380 155.694 280.490 L 162.200 280.600 162.177 286.000 C 162.159 290.098,161.997 291.738,161.505 292.800 C 161.124 293.624,160.743 295.929,160.581 298.400 C 160.412 300.957,160.010 303.349,159.552 304.515 C 159.092 305.687,158.793 307.470,158.783 309.115 C 158.724 318.118,156.864 320.400,149.587 320.400 L 144.418 320.400 143.714 319.300 C 142.230 316.981,141.744 316.772,140.693 318.000 C 140.316 318.440,139.653 318.800,139.219 318.800 C 138.786 318.800,138.054 319.205,137.593 319.700 C 136.788 320.564,136.487 320.600,130.068 320.600 C 123.741 320.600,123.321 320.552,122.237 319.700 C 121.607 319.205,120.761 318.800,120.355 318.800 C 119.950 318.800,119.324 318.350,118.963 317.800 C 118.603 317.250,118.071 316.800,117.781 316.800 C 117.491 316.800,117.140 316.440,117.000 316.000 C 116.860 315.559,116.398 315.013,115.973 314.786 C 115.548 314.558,115.200 314.042,115.200 313.640 C 115.200 313.237,114.809 312.411,114.331 311.803 C 112.722 309.757,112.580 296.590,114.148 294.857 C 114.502 294.467,114.903 293.584,115.041 292.894 C 115.179 292.205,115.631 291.334,116.046 290.958 C 116.461 290.583,116.800 290.052,116.800 289.779 C 116.800 288.389,122.898 282.692,124.932 282.181 C 125.525 282.032,126.153 281.655,126.328 281.343 C 126.502 281.032,127.535 280.625,128.623 280.439 C 129.710 280.254,131.230 279.816,132.000 279.467 C 134.087 278.520,138.823 278.591,140.800 279.600 M289.092 279.765 C 289.921 280.075,291.193 280.432,291.918 280.558 C 292.644 280.684,293.872 281.272,294.648 281.864 L 296.059 282.940 296.991 281.770 L 297.924 280.600 304.142 280.600 C 308.724 280.600,310.497 280.737,310.880 281.122 C 311.579 281.823,311.433 286.128,310.649 287.974 C 310.315 288.758,309.857 291.429,309.631 293.908 C 309.405 296.387,309.043 298.746,308.827 299.150 C 308.611 299.554,308.238 301.935,307.999 304.442 C 307.759 306.949,307.372 309.540,307.139 310.200 C 306.906 310.860,306.578 312.825,306.411 314.567 C 305.946 319.407,305.101 319.975,298.336 319.989 L 293.271 320.000 292.236 318.769 C 291.666 318.092,291.200 317.372,291.200 317.169 C 291.200 316.574,290.590 316.741,289.587 317.611 C 289.073 318.057,288.196 318.536,287.638 318.676 C 287.080 318.816,286.010 319.293,285.259 319.736 C 283.172 320.967,273.536 320.913,271.409 319.658 C 270.609 319.186,269.727 318.800,269.449 318.800 C 269.172 318.800,268.564 318.395,268.100 317.900 C 267.635 317.405,267.018 316.777,266.728 316.505 C 262.021 312.089,260.056 304.357,262.176 298.600 C 262.500 297.720,262.773 296.437,262.782 295.749 C 262.792 295.061,263.061 294.282,263.380 294.017 C 263.698 293.752,264.172 292.875,264.433 292.068 C 264.693 291.261,265.242 290.278,265.653 289.884 C 266.064 289.491,266.406 288.951,266.414 288.684 C 266.440 287.794,272.744 282.400,273.758 282.400 C 274.111 282.400,274.757 282.043,275.194 281.606 C 275.631 281.169,276.721 280.694,277.616 280.551 C 278.511 280.408,279.909 280.053,280.722 279.763 C 282.688 279.061,287.214 279.062,289.092 279.765 M180.967 280.643 C 181.315 280.776,181.600 281.110,181.600 281.383 C 181.600 281.657,182.020 282.673,182.534 283.640 C 183.047 284.608,183.578 286.300,183.713 287.400 C 183.848 288.500,184.328 290.113,184.779 290.985 C 185.231 291.856,185.600 293.229,185.600 294.036 C 185.600 294.842,185.861 295.719,186.180 295.984 C 186.500 296.249,186.880 297.263,187.027 298.238 C 187.254 299.752,188.000 301.166,188.000 300.082 C 188.000 299.881,188.405 299.248,188.900 298.674 C 190.278 297.078,191.188 295.883,191.718 294.975 C 193.048 292.699,194.111 291.200,194.396 291.200 C 194.571 291.200,194.815 290.795,194.940 290.300 C 195.065 289.805,195.444 289.040,195.782 288.600 C 196.121 288.160,196.938 287.100,197.599 286.245 C 198.259 285.390,198.800 284.445,198.800 284.145 C 198.800 283.845,198.952 283.600,199.137 283.600 C 199.322 283.600,199.817 282.962,200.237 282.183 C 201.209 280.377,201.356 280.349,209.000 280.486 L 215.400 280.600 215.524 282.544 C 215.611 283.910,215.459 284.683,215.013 285.144 C 214.144 286.042,212.502 288.418,212.041 289.445 C 211.832 289.910,211.377 290.400,211.031 290.533 C 210.684 290.666,210.400 291.109,210.400 291.518 C 210.400 291.926,209.950 292.683,209.400 293.200 C 208.850 293.717,208.400 294.369,208.400 294.650 C 208.400 294.931,208.161 295.304,207.869 295.480 C 207.577 295.656,206.998 296.385,206.582 297.100 C 206.167 297.815,205.706 298.400,205.557 298.400 C 205.408 298.400,205.175 298.845,205.039 299.388 C 204.902 299.932,204.433 300.568,203.995 300.803 C 203.558 301.037,203.200 301.470,203.200 301.765 C 203.200 302.060,202.920 302.535,202.577 302.819 C 202.234 303.104,201.702 303.938,201.395 304.674 C 201.088 305.409,200.558 306.118,200.218 306.248 C 199.878 306.379,199.600 306.677,199.600 306.911 C 199.600 307.145,199.313 307.654,198.963 308.041 C 198.613 308.428,198.028 309.269,197.663 309.910 C 196.170 312.532,195.374 313.595,194.900 313.597 C 194.625 313.599,194.400 313.951,194.400 314.379 C 194.400 314.808,193.950 315.644,193.400 316.238 C 192.850 316.831,192.400 317.548,192.400 317.831 C 192.400 318.115,192.040 318.460,191.600 318.600 C 191.160 318.740,190.800 319.131,190.800 319.469 C 190.800 319.808,190.350 320.619,189.800 321.273 C 189.250 321.927,188.800 322.711,188.800 323.017 C 188.800 323.322,188.440 323.765,188.000 324.000 C 187.560 324.235,187.200 324.664,187.200 324.952 C 187.200 325.240,186.856 325.787,186.436 326.167 C 186.016 326.548,185.564 327.290,185.431 327.818 C 185.299 328.345,184.833 328.968,184.395 329.203 C 183.958 329.437,183.594 329.847,183.587 330.114 C 183.526 332.456,180.416 333.572,174.000 333.552 C 167.480 333.532,165.109 331.966,167.582 329.312 C 168.032 328.829,168.400 328.278,168.400 328.089 C 168.400 327.899,168.850 327.353,169.400 326.875 C 169.950 326.397,170.400 325.734,170.400 325.403 C 170.400 325.071,170.576 324.800,170.792 324.800 C 171.007 324.800,171.551 324.080,172.000 323.200 C 172.449 322.320,172.993 321.600,173.208 321.600 C 173.424 321.600,173.600 321.329,173.600 320.997 C 173.600 320.666,174.050 320.003,174.600 319.525 C 175.150 319.047,175.600 318.446,175.600 318.190 C 175.600 317.934,175.960 317.398,176.400 317.000 C 177.445 316.054,177.445 313.778,176.400 312.200 C 175.963 311.540,175.604 310.515,175.603 309.921 C 175.601 309.328,175.150 307.996,174.600 306.962 C 174.050 305.927,173.600 304.555,173.600 303.912 C 173.600 303.269,173.337 302.480,173.016 302.159 C 172.694 301.837,172.328 300.905,172.203 300.087 C 172.077 299.269,171.642 297.970,171.236 297.200 C 170.830 296.430,170.367 294.990,170.206 294.000 C 170.045 293.010,169.647 291.899,169.323 291.531 C 168.998 291.163,168.628 290.083,168.502 289.131 C 168.375 288.179,167.958 286.950,167.575 286.400 C 166.688 285.125,166.259 282.211,166.807 281.187 C 167.232 280.393,179.127 279.937,180.967 280.643 M283.800 291.588 C 274.635 294.253,273.216 307.916,282.000 308.920 C 284.714 309.230,288.500 308.741,289.332 307.973 C 289.673 307.658,290.569 306.954,291.323 306.409 C 292.076 305.865,292.899 304.965,293.151 304.409 C 293.403 303.854,293.874 302.950,294.198 302.400 C 295.241 300.633,295.003 295.902,293.800 294.473 C 293.250 293.819,292.800 293.130,292.800 292.941 C 292.800 292.520,287.930 290.782,286.925 290.845 C 286.526 290.870,285.120 291.205,283.800 291.588 M134.248 292.093 C 133.394 292.319,132.359 292.841,131.948 293.252 C 131.537 293.663,131.020 294.000,130.800 294.000 C 130.580 294.000,130.400 294.260,130.400 294.577 C 130.400 294.895,130.051 295.399,129.625 295.698 C 127.933 296.883,127.582 306.194,129.209 306.736 C 129.440 306.813,130.144 307.309,130.773 307.838 C 132.162 309.007,139.423 309.326,139.841 308.237 C 139.960 307.927,140.579 307.457,141.216 307.193 C 143.330 306.318,145.174 303.571,145.455 300.876 C 145.826 297.330,145.332 294.096,144.374 293.792 C 143.948 293.657,143.600 293.310,143.600 293.021 C 143.600 291.820,137.548 291.220,134.248 292.093 " stroke="none" fill="#fbfbfb" fill-rule="evenodd"></path><path id="path3" d="M159.600 67.091 C 156.546 68.252,154.572 71.872,154.195 77.008 C 154.034 79.204,153.638 81.516,153.316 82.148 C 152.963 82.840,152.673 84.823,152.587 87.148 C 152.449 90.865,152.456 90.902,152.782 88.200 C 152.969 86.660,153.335 84.860,153.597 84.200 C 153.859 83.540,154.239 81.110,154.441 78.800 C 154.881 73.763,156.149 70.421,158.314 68.600 L 159.739 67.400 196.170 67.404 C 229.840 67.408,232.733 67.461,234.350 68.104 C 235.313 68.487,236.478 68.800,236.939 68.800 L 237.778 68.800 236.922 68.200 C 236.450 67.870,234.389 67.424,232.333 67.207 C 228.413 66.794,160.666 66.686,159.600 67.091 M239.800 69.249 C 240.680 69.452,241.967 69.883,242.660 70.209 C 243.354 70.534,244.217 70.800,244.579 70.800 C 244.941 70.800,246.082 71.250,247.115 71.800 C 248.148 72.350,249.288 72.800,249.648 72.800 C 250.008 72.800,250.535 73.080,250.819 73.423 C 251.104 73.766,251.933 74.295,252.662 74.600 C 255.235 75.675,263.600 84.923,263.600 86.692 C 263.600 86.918,263.858 87.317,264.174 87.579 C 264.490 87.841,264.871 88.628,265.020 89.328 C 265.169 90.027,265.669 91.410,266.131 92.400 C 266.901 94.048,266.975 94.943,267.010 103.000 C 267.051 112.135,267.248 113.307,268.832 113.810 C 270.515 114.344,277.200 121.740,277.200 123.068 C 277.200 123.549,277.475 124.217,277.810 124.553 C 278.146 124.889,278.613 126.206,278.848 127.482 C 279.083 128.757,279.528 130.407,279.838 131.149 C 280.679 133.167,280.624 144.565,279.764 146.626 C 279.413 147.463,279.031 149.510,278.913 151.174 C 278.778 153.099,278.427 154.654,277.950 155.447 C 277.537 156.133,277.200 157.216,277.200 157.853 C 277.200 158.490,276.853 159.660,276.428 160.452 C 276.004 161.244,275.535 162.540,275.386 163.333 C 275.237 164.126,274.775 165.168,274.358 165.649 C 273.941 166.129,273.600 166.951,273.600 167.474 C 273.600 167.997,273.346 168.522,273.037 168.641 C 272.727 168.760,272.244 169.430,271.964 170.129 C 271.683 170.828,271.030 171.940,270.511 172.600 C 267.009 177.061,263.975 180.279,261.664 181.987 C 260.930 182.530,259.886 183.385,259.344 183.887 C 258.802 184.389,258.002 184.800,257.567 184.800 C 257.131 184.800,256.672 185.068,256.546 185.396 C 256.420 185.724,255.616 186.203,254.759 186.460 C 253.901 186.716,253.200 187.049,253.200 187.199 C 253.200 187.573,251.319 188.400,250.470 188.400 C 250.089 188.400,249.494 188.732,249.147 189.137 C 248.720 189.635,247.709 189.958,246.024 190.134 C 244.654 190.278,243.052 190.653,242.466 190.969 C 241.252 191.623,230.938 192.766,222.633 193.167 L 217.066 193.436 215.133 195.594 C 213.335 197.602,213.200 197.901,213.200 199.881 C 213.200 201.147,212.884 202.695,212.418 203.704 C 211.899 204.829,211.511 206.948,211.264 210.000 C 211.060 212.530,210.609 215.320,210.264 216.200 C 209.865 217.215,209.628 219.117,209.615 221.400 C 209.602 223.811,209.394 225.386,208.986 226.167 C 208.327 227.432,207.621 231.588,207.608 234.279 C 207.598 236.283,206.164 239.177,204.475 240.598 L 203.285 241.600 187.473 241.600 L 171.662 241.600 170.383 240.321 C 168.994 238.932,168.765 234.488,170.005 232.994 C 170.513 232.382,171.119 226.035,170.873 223.900 L 170.747 222.800 153.673 222.895 L 136.600 222.991 153.283 223.100 L 169.965 223.209 170.197 224.504 C 170.325 225.217,170.150 226.790,169.809 228.000 C 167.936 234.645,167.939 239.767,169.818 241.382 L 171.000 242.399 187.546 242.400 L 204.092 242.400 206.052 240.345 C 208.170 238.125,208.245 237.931,208.557 233.922 C 208.672 232.449,208.941 230.919,209.154 230.522 C 209.718 229.475,210.399 225.392,210.404 223.033 C 210.407 221.915,210.673 220.130,210.995 219.067 C 211.318 218.004,211.788 215.124,212.041 212.667 C 212.294 210.210,212.654 207.904,212.841 207.543 C 213.029 207.181,213.387 205.111,213.636 202.943 C 214.517 195.284,215.432 194.601,225.311 194.237 C 230.267 194.055,234.138 193.692,236.538 193.186 C 238.552 192.760,240.818 192.410,241.574 192.406 C 242.329 192.403,243.679 192.059,244.574 191.642 C 245.468 191.225,246.959 190.793,247.886 190.682 C 248.814 190.571,250.053 190.102,250.640 189.640 C 251.227 189.178,252.019 188.800,252.400 188.800 C 252.781 188.800,253.550 188.440,254.109 188.000 C 254.669 187.560,255.413 187.200,255.763 187.200 C 256.113 187.200,256.742 186.858,257.161 186.439 C 257.579 186.021,258.275 185.567,258.708 185.429 C 259.140 185.292,259.816 184.824,260.209 184.390 C 260.602 183.955,261.136 183.600,261.396 183.600 C 262.435 183.600,270.800 174.738,270.800 173.638 C 270.800 173.412,271.160 173.035,271.600 172.800 C 272.040 172.565,272.400 172.046,272.400 171.648 C 272.400 171.250,272.744 170.613,273.164 170.233 C 273.584 169.852,274.045 169.074,274.189 168.502 C 274.332 167.931,274.798 167.020,275.225 166.478 C 275.651 165.936,276.000 165.199,276.000 164.840 C 276.000 164.482,276.333 163.561,276.739 162.794 C 277.146 162.027,277.600 160.622,277.748 159.672 C 277.897 158.721,278.301 157.512,278.646 156.985 C 278.992 156.458,279.433 154.896,279.627 153.514 C 279.821 152.131,280.239 150.073,280.557 148.940 C 281.916 144.088,281.697 130.416,280.226 128.316 C 279.882 127.824,279.600 126.940,279.600 126.352 C 279.600 125.370,277.841 121.532,276.832 120.314 C 276.598 120.031,275.618 118.805,274.654 117.590 C 273.691 116.374,272.115 114.854,271.151 114.211 C 270.188 113.568,268.919 112.608,268.332 112.077 L 267.264 111.111 267.471 105.256 C 267.717 98.317,267.192 92.296,266.250 91.255 C 265.892 90.860,265.600 90.155,265.600 89.687 C 265.600 88.672,264.798 86.800,264.363 86.800 C 264.193 86.800,263.934 86.395,263.787 85.900 C 263.179 83.849,256.413 76.000,255.254 76.000 C 255.020 76.000,254.647 75.661,254.425 75.246 C 254.203 74.831,253.521 74.367,252.911 74.214 C 252.300 74.060,251.478 73.590,251.084 73.168 C 250.691 72.745,250.040 72.400,249.638 72.400 C 249.237 72.400,248.458 72.046,247.908 71.613 C 247.358 71.181,246.163 70.708,245.254 70.562 C 244.344 70.417,243.600 70.158,243.600 69.988 C 243.600 69.490,241.206 68.797,239.640 68.840 L 238.200 68.880 239.800 69.249 M151.684 92.850 C 151.401 93.593,150.976 96.270,150.741 98.800 C 150.506 101.330,150.074 103.944,149.781 104.609 C 149.489 105.273,149.125 107.703,148.973 110.009 C 148.822 112.314,148.437 114.830,148.118 115.600 C 147.800 116.370,147.475 118.350,147.397 120.000 C 147.319 121.650,147.340 122.460,147.444 121.800 C 147.549 121.140,147.986 119.171,148.417 117.424 C 148.848 115.677,149.200 113.362,149.200 112.279 C 149.200 111.195,149.543 108.845,149.962 107.055 C 150.381 105.265,150.841 102.450,150.983 100.800 C 151.126 99.150,151.519 96.792,151.857 95.560 C 152.621 92.774,152.492 90.737,151.684 92.850 M146.860 125.051 C 146.827 125.519,146.534 126.539,146.209 127.316 C 145.884 128.094,145.455 130.771,145.255 133.265 C 145.055 135.759,144.609 138.520,144.264 139.400 C 143.918 140.280,143.644 142.080,143.656 143.400 L 143.677 145.800 144.207 143.200 C 144.499 141.770,144.924 139.790,145.152 138.800 C 145.379 137.810,145.573 136.089,145.583 134.976 C 145.592 133.863,145.972 131.480,146.427 129.682 C 146.882 127.883,147.179 125.913,147.087 125.305 C 146.967 124.512,146.903 124.440,146.860 125.051 M143.260 148.020 C 143.227 148.581,143.025 149.215,142.811 149.429 C 142.328 149.912,141.619 154.682,141.608 157.520 C 141.604 158.686,141.332 160.158,141.004 160.792 C 140.677 161.426,140.234 163.937,140.020 166.373 C 139.806 168.809,139.375 171.566,139.063 172.501 C 138.750 173.435,138.372 176.000,138.222 178.200 C 138.072 180.400,137.675 182.799,137.341 183.532 C 136.977 184.327,136.672 186.423,136.584 188.732 L 136.436 192.600 136.823 189.839 C 137.036 188.320,137.478 186.044,137.805 184.781 C 138.132 183.518,138.404 181.701,138.409 180.742 C 138.413 179.784,138.766 177.422,139.193 175.494 C 139.619 173.566,140.080 170.596,140.217 168.894 C 140.355 167.192,140.721 164.875,141.032 163.744 C 141.343 162.613,141.779 159.935,142.001 157.793 C 142.223 155.650,142.684 152.821,143.025 151.505 C 143.366 150.189,143.572 148.637,143.482 148.056 L 143.320 147.000 143.260 148.020 M135.507 195.200 C 135.137 196.410,134.721 199.110,134.584 201.200 C 134.446 203.290,134.093 205.540,133.800 206.200 C 133.507 206.860,133.146 209.110,132.997 211.200 C 132.849 213.290,132.561 215.660,132.357 216.467 C 131.669 219.192,133.413 222.835,135.376 222.775 C 136.189 222.750,136.190 222.745,135.400 222.422 C 134.387 222.007,133.372 220.853,133.029 219.726 C 132.696 218.633,133.474 209.382,133.978 208.440 C 134.183 208.058,134.554 205.777,134.803 203.372 C 135.051 200.968,135.530 197.987,135.866 196.749 C 136.693 193.708,136.379 192.353,135.507 195.200 M75.243 261.500 C 74.778 261.885,74.227 263.010,74.018 264.000 C 73.810 264.990,73.360 266.784,73.020 267.987 C 72.679 269.190,72.423 271.350,72.451 272.787 L 72.501 275.400 72.857 272.627 C 73.052 271.102,73.480 268.954,73.806 267.854 C 74.133 266.755,74.406 265.302,74.413 264.627 C 74.421 263.952,74.801 262.950,75.258 262.400 L 76.090 261.400 89.545 261.400 C 107.116 261.400,110.666 262.365,114.642 268.225 C 117.522 272.467,116.472 286.044,112.957 290.031 C 112.651 290.379,112.400 290.804,112.400 290.976 C 112.400 291.670,109.058 295.219,107.319 296.371 C 106.064 297.202,105.712 297.599,106.231 297.597 C 107.220 297.593,111.198 293.893,112.535 291.734 C 113.103 290.817,113.755 289.951,113.984 289.810 C 114.213 289.669,114.400 289.180,114.400 288.724 C 114.400 288.268,114.767 287.301,115.216 286.575 C 115.664 285.849,116.125 284.298,116.240 283.128 C 116.354 281.957,116.729 280.038,117.073 278.862 C 117.701 276.714,117.586 273.561,116.845 272.640 C 116.650 272.398,116.367 271.451,116.216 270.536 C 116.065 269.620,115.595 268.557,115.171 268.174 C 114.747 267.790,114.400 267.246,114.400 266.965 C 114.400 266.684,114.040 266.340,113.600 266.200 C 113.160 266.060,112.800 265.684,112.800 265.363 C 112.800 265.043,112.388 264.623,111.884 264.432 C 111.380 264.240,110.735 263.803,110.451 263.461 C 110.167 263.119,109.139 262.720,108.167 262.574 C 107.195 262.428,106.400 262.158,106.400 261.973 C 106.400 260.585,76.890 260.137,75.243 261.500 M224.960 261.190 C 223.303 261.860,222.415 264.173,221.833 269.339 C 221.531 272.013,221.098 274.675,220.869 275.255 C 220.641 275.835,220.271 278.275,220.046 280.678 C 219.822 283.081,219.433 285.576,219.182 286.223 C 218.932 286.871,218.561 289.260,218.360 291.532 C 218.158 293.805,217.810 296.008,217.586 296.427 C 217.361 296.846,216.989 299.126,216.757 301.494 C 216.526 303.862,216.081 306.790,215.768 308.000 C 214.772 311.860,214.395 317.214,215.015 318.698 L 215.559 320.000 221.557 320.000 C 229.091 320.000,229.387 319.829,229.945 315.160 C 230.144 313.488,230.524 311.716,230.788 311.222 C 231.052 310.728,231.370 308.629,231.493 306.557 C 231.829 300.930,231.993 300.805,239.081 300.783 C 244.638 300.765,245.647 300.633,250.400 299.299 C 255.969 297.736,263.600 290.332,263.600 286.492 C 263.600 286.057,263.992 284.824,264.471 283.751 C 268.046 275.747,263.582 264.144,256.330 262.592 C 255.599 262.436,254.814 262.159,254.586 261.976 C 253.259 260.914,227.345 260.226,224.960 261.190 M322.115 261.060 C 320.810 261.589,320.010 263.922,319.623 268.332 C 319.408 270.785,319.053 273.127,318.835 273.535 C 318.616 273.944,318.227 276.330,317.970 278.839 C 317.713 281.347,317.267 284.137,316.977 285.038 C 316.688 285.938,316.330 288.278,316.181 290.238 C 316.031 292.197,315.570 295.056,315.155 296.592 C 314.740 298.128,314.392 300.378,314.383 301.592 C 314.373 302.806,314.199 304.520,313.997 305.400 C 310.942 318.665,311.350 320.000,318.455 320.000 C 324.217 320.000,325.980 319.142,326.018 316.323 C 326.027 315.595,326.301 314.280,326.625 313.400 C 326.950 312.520,327.321 310.270,327.449 308.400 C 327.577 306.530,328.010 303.830,328.411 302.400 C 328.813 300.970,329.266 298.000,329.418 295.800 C 329.570 293.600,329.827 291.620,329.989 291.400 C 330.539 290.655,330.823 289.012,331.188 284.470 C 331.388 281.979,331.743 279.710,331.977 279.428 C 332.211 279.146,332.590 276.954,332.820 274.558 C 333.050 272.161,333.500 269.403,333.819 268.429 C 334.876 265.206,334.613 262.131,333.220 261.410 C 332.077 260.819,323.384 260.545,322.115 261.060 M251.799 262.605 C 253.999 263.152,256.204 263.600,256.699 263.600 C 257.195 263.600,257.600 263.775,257.600 263.990 C 257.600 264.204,258.185 264.680,258.900 265.047 C 260.453 265.845,262.760 268.339,262.783 269.246 C 262.793 269.601,263.160 270.350,263.600 270.909 C 264.623 272.210,264.778 280.467,263.804 281.754 C 263.490 282.169,263.122 283.339,262.987 284.354 C 262.420 288.613,257.181 295.819,254.089 296.591 C 253.490 296.740,252.684 297.147,252.299 297.494 C 251.365 298.336,245.468 299.230,238.780 299.545 C 232.178 299.856,231.378 300.220,231.001 303.092 C 230.734 305.120,230.312 307.195,229.635 309.800 C 229.406 310.680,229.215 312.789,229.210 314.486 C 229.197 318.482,229.256 318.452,221.706 318.311 L 215.800 318.200 215.679 315.849 C 215.596 314.255,215.775 313.040,216.233 312.074 C 216.647 311.201,216.980 309.246,217.094 307.025 C 217.195 305.031,217.604 302.308,218.003 300.974 C 218.402 299.639,218.857 296.849,219.014 294.774 C 219.171 292.698,219.566 290.199,219.893 289.220 C 220.219 288.241,220.614 285.541,220.769 283.220 C 220.925 280.899,221.298 278.550,221.598 278.000 C 221.898 277.450,222.288 275.200,222.464 273.000 C 222.895 267.608,224.291 262.780,225.613 262.111 C 227.667 261.072,247.111 261.438,251.799 262.605 M332.618 262.582 C 333.771 263.734,333.786 263.858,333.000 265.738 C 332.670 266.528,332.398 268.305,332.395 269.687 C 332.393 271.069,331.943 274.000,331.395 276.199 C 330.791 278.628,330.400 281.345,330.400 283.119 C 330.400 284.981,330.174 286.476,329.777 287.245 C 329.421 287.934,329.002 290.318,328.799 292.809 C 328.604 295.207,328.242 297.549,327.993 298.013 C 327.744 298.478,327.297 301.172,327.000 304.000 C 326.703 306.828,326.244 309.544,325.981 310.035 C 325.719 310.526,325.409 312.436,325.294 314.281 C 325.032 318.487,325.083 318.456,318.504 318.312 L 313.400 318.200 313.281 315.943 C 313.202 314.438,313.433 312.918,313.973 311.382 C 314.475 309.952,314.880 307.468,315.038 304.838 C 315.187 302.364,315.522 300.233,315.843 299.719 C 316.160 299.212,316.502 297.088,316.649 294.719 C 316.789 292.454,317.225 289.610,317.618 288.400 C 318.011 287.190,318.420 284.580,318.528 282.600 C 318.636 280.620,319.025 278.190,319.393 277.200 C 319.771 276.183,320.150 273.660,320.263 271.400 C 320.373 269.200,320.704 266.860,320.998 266.200 C 321.292 265.540,321.735 264.235,321.982 263.300 L 322.432 261.600 327.034 261.600 C 331.387 261.600,331.690 261.653,332.618 262.582 M236.298 273.500 C 235.019 274.838,234.423 277.243,234.410 281.114 C 234.403 283.077,234.195 284.342,233.771 284.988 C 231.401 288.605,234.893 289.847,243.561 288.471 C 246.286 288.038,249.200 285.306,249.200 283.184 C 249.200 282.489,249.491 281.309,249.846 280.560 C 250.440 279.308,250.440 279.092,249.846 277.840 C 249.491 277.091,249.200 276.219,249.200 275.902 C 249.200 273.036,238.624 271.067,236.298 273.500 M88.830 273.593 C 88.296 273.719,87.789 274.033,87.703 274.291 C 87.587 274.638,87.890 274.657,88.873 274.364 C 90.811 273.786,97.474 274.331,98.276 275.133 C 99.651 276.509,100.055 278.284,99.593 280.920 C 98.957 284.548,98.938 284.585,96.921 286.157 C 95.902 286.951,95.336 287.600,95.662 287.600 C 97.556 287.600,100.800 282.257,100.800 279.136 C 100.800 276.711,99.004 274.495,96.676 274.048 C 93.979 273.530,90.060 273.302,88.830 273.593 M245.256 274.248 C 247.910 274.626,248.611 275.879,248.534 280.115 C 248.483 282.926,248.323 283.867,247.834 284.225 C 247.485 284.480,247.200 284.893,247.200 285.144 C 247.200 285.395,247.045 285.600,246.855 285.600 C 246.665 285.600,246.080 286.026,245.555 286.546 C 244.709 287.384,244.098 287.523,240.200 287.756 C 234.475 288.099,234.697 288.310,235.178 282.971 C 235.533 279.021,235.804 277.707,236.834 274.929 C 237.299 273.674,239.804 273.472,245.256 274.248 M71.684 277.248 C 71.401 277.992,70.976 280.670,70.741 283.200 C 70.506 285.730,70.074 288.344,69.781 289.009 C 69.489 289.673,69.128 292.103,68.980 294.409 C 68.830 296.739,68.449 299.133,68.122 299.800 C 67.798 300.460,67.466 302.440,67.383 304.200 C 67.243 307.203,67.255 307.264,67.590 305.195 C 67.787 303.982,68.150 302.458,68.397 301.808 C 68.644 301.157,69.018 298.669,69.228 296.277 C 69.438 293.886,69.784 291.603,69.998 291.204 C 70.211 290.805,70.645 288.135,70.963 285.270 C 71.280 282.405,71.744 279.679,71.994 279.212 C 72.243 278.745,72.392 277.808,72.324 277.130 L 72.200 275.897 71.684 277.248 M87.191 277.300 C 87.185 278.015,86.825 279.938,86.391 281.573 C 84.698 287.939,85.152 288.629,90.685 288.093 L 94.600 287.714 90.300 287.657 L 86.000 287.600 86.002 286.100 C 86.004 285.275,86.291 284.060,86.640 283.400 C 87.268 282.213,87.954 276.000,87.457 276.000 C 87.316 276.000,87.196 276.585,87.191 277.300 M131.800 279.615 L 130.200 280.408 131.800 280.130 C 133.896 279.765,138.581 279.774,140.600 280.146 L 142.200 280.442 140.800 279.638 C 138.843 278.514,134.045 278.501,131.800 279.615 M280.722 279.763 C 279.909 280.053,278.511 280.408,277.616 280.551 C 276.721 280.694,275.631 281.169,275.194 281.606 C 274.757 282.043,274.111 282.400,273.758 282.400 C 272.744 282.400,266.440 287.794,266.414 288.684 C 266.406 288.951,266.064 289.491,265.653 289.884 C 265.242 290.278,264.693 291.261,264.433 292.068 C 264.172 292.875,263.698 293.752,263.380 294.017 C 263.061 294.282,262.792 295.061,262.782 295.749 C 262.773 296.437,262.500 297.720,262.176 298.600 C 260.056 304.357,262.021 312.089,266.728 316.505 C 267.018 316.777,267.635 317.405,268.100 317.900 C 268.564 318.395,269.172 318.800,269.449 318.800 C 269.727 318.800,270.609 319.186,271.409 319.658 C 273.536 320.913,283.172 320.967,285.259 319.736 C 286.010 319.293,287.080 318.816,287.638 318.676 C 288.196 318.536,289.073 318.057,289.587 317.611 C 290.590 316.741,291.200 316.574,291.200 317.169 C 291.200 317.372,291.666 318.092,292.236 318.769 L 293.271 320.000 298.336 319.989 C 305.101 319.975,305.946 319.407,306.411 314.567 C 306.578 312.825,306.906 310.860,307.139 310.200 C 307.372 309.540,307.759 306.949,307.999 304.442 C 308.238 301.935,308.611 299.554,308.827 299.150 C 309.043 298.746,309.405 296.387,309.631 293.908 C 309.857 291.429,310.315 288.758,310.649 287.974 C 311.433 286.128,311.579 281.823,310.880 281.122 C 310.497 280.737,308.724 280.600,304.142 280.600 L 297.924 280.600 296.991 281.770 L 296.059 282.940 294.648 281.864 C 293.872 281.272,292.644 280.684,291.918 280.558 C 291.193 280.432,289.921 280.075,289.092 279.765 C 287.214 279.062,282.688 279.061,280.722 279.763 M127.200 280.690 C 126.870 280.815,126.467 281.141,126.305 281.414 C 126.143 281.687,125.525 282.032,124.932 282.181 C 122.898 282.692,116.800 288.389,116.800 289.779 C 116.800 290.052,116.461 290.583,116.046 290.958 C 115.631 291.334,115.179 292.205,115.041 292.894 C 114.903 293.584,114.496 294.473,114.135 294.871 C 113.679 295.376,113.452 296.475,113.386 298.498 C 113.293 301.379,113.294 301.383,113.550 299.000 C 113.691 297.680,114.103 296.150,114.464 295.600 C 114.826 295.050,115.241 294.027,115.386 293.328 C 115.532 292.628,115.929 291.825,116.267 291.544 C 116.606 291.263,117.049 290.665,117.252 290.216 C 118.341 287.805,124.045 282.400,125.502 282.400 C 125.851 282.400,126.459 282.109,126.852 281.753 C 127.245 281.397,128.160 280.965,128.884 280.794 L 130.200 280.482 129.000 280.473 C 128.340 280.467,127.530 280.565,127.200 280.690 M143.200 280.690 C 143.750 280.789,144.560 281.189,145.000 281.578 C 145.768 282.257,148.475 283.712,148.581 283.502 C 148.609 283.446,148.809 282.860,149.025 282.200 L 149.418 281.000 155.355 280.889 C 159.721 280.807,161.455 280.913,161.911 281.289 C 162.425 281.713,162.496 281.698,162.332 281.200 C 162.169 280.706,160.993 280.581,155.661 280.490 L 149.188 280.380 148.804 281.390 C 148.313 282.681,147.224 282.685,145.838 281.400 C 145.110 280.725,144.343 280.418,143.479 280.454 C 142.388 280.501,142.347 280.536,143.200 280.690 M166.789 281.221 C 166.547 281.672,166.430 282.347,166.528 282.721 C 166.669 283.254,166.717 283.224,166.754 282.580 C 166.846 280.955,167.477 280.800,174.018 280.800 C 180.962 280.800,181.019 280.820,181.900 283.600 C 182.144 284.370,182.619 285.720,182.954 286.600 L 183.565 288.200 183.582 286.921 C 183.592 286.218,183.150 284.796,182.600 283.762 C 182.050 282.727,181.600 281.657,181.600 281.383 C 181.600 280.004,167.523 279.850,166.789 281.221 M201.370 280.701 C 201.133 280.865,200.599 281.585,200.184 282.300 C 199.768 283.015,199.286 283.600,199.114 283.600 C 198.941 283.600,198.800 283.845,198.800 284.145 C 198.800 284.445,198.259 285.390,197.599 286.245 C 196.938 287.100,196.121 288.160,195.782 288.600 C 195.444 289.040,195.065 289.805,194.940 290.300 C 194.815 290.795,194.571 291.200,194.396 291.200 C 194.111 291.200,193.048 292.699,191.718 294.975 C 191.188 295.883,190.278 297.078,188.900 298.674 C 188.405 299.248,188.000 299.881,188.000 300.082 C 188.000 301.166,187.254 299.752,187.027 298.238 C 186.880 297.263,186.500 296.249,186.180 295.984 C 185.861 295.719,185.600 294.888,185.600 294.138 C 185.600 293.388,185.295 292.105,184.922 291.287 C 184.549 290.469,184.117 289.440,183.962 289.000 C 183.724 288.325,183.673 288.375,183.640 289.314 C 183.618 289.927,183.852 290.827,184.160 291.314 C 184.468 291.801,184.918 293.154,185.160 294.320 C 185.402 295.486,185.846 296.926,186.147 297.520 C 186.447 298.114,186.815 299.275,186.965 300.100 C 187.294 301.918,187.556 301.947,188.622 300.283 C 189.074 299.577,190.244 297.858,191.222 296.463 C 192.200 295.068,193.270 293.518,193.600 293.019 C 193.930 292.520,195.100 290.805,196.200 289.209 C 197.300 287.612,198.432 285.922,198.716 285.453 C 198.999 284.984,199.824 283.790,200.549 282.800 L 201.866 281.000 208.180 280.890 C 212.846 280.808,214.654 280.912,215.112 281.290 C 215.625 281.713,215.696 281.698,215.532 281.200 C 215.316 280.545,202.256 280.085,201.370 280.701 M290.093 281.180 C 291.355 281.387,292.615 281.743,292.893 281.972 C 296.678 285.079,297.179 285.104,298.595 282.257 C 298.984 281.475,299.390 281.389,303.211 281.280 C 310.294 281.076,310.724 281.348,309.702 285.387 C 309.426 286.480,309.200 288.593,309.200 290.083 C 309.200 291.795,308.915 293.543,308.424 294.833 C 307.936 296.117,307.552 298.456,307.390 301.137 C 307.244 303.530,306.865 305.991,306.525 306.747 C 306.188 307.494,305.789 310.050,305.628 312.493 C 305.243 318.324,305.179 318.379,298.695 318.391 C 293.354 318.401,292.465 318.098,292.722 316.351 C 292.972 314.645,290.596 315.089,288.200 317.197 C 287.760 317.584,286.743 318.018,285.940 318.161 C 285.137 318.304,284.260 318.686,283.991 319.011 C 283.171 319.999,274.444 319.839,272.504 318.800 C 271.684 318.360,270.682 318.000,270.280 318.000 C 269.358 318.000,265.404 314.086,265.004 312.778 C 264.840 312.240,264.474 311.530,264.192 311.200 C 262.457 309.172,262.654 296.769,264.459 294.446 C 264.866 293.921,265.200 293.271,265.200 293.000 C 265.200 292.729,265.560 292.050,266.000 291.491 C 266.440 290.931,266.800 290.222,266.800 289.915 C 266.800 289.245,269.331 286.400,269.927 286.400 C 270.157 286.400,270.460 286.040,270.600 285.600 C 270.740 285.160,271.124 284.800,271.454 284.800 C 271.783 284.800,272.643 284.350,273.364 283.800 C 274.086 283.250,274.914 282.800,275.206 282.800 C 275.498 282.800,276.049 282.518,276.431 282.172 C 277.766 280.964,285.391 280.410,290.093 281.180 M215.254 283.366 C 215.225 283.788,214.923 284.418,214.585 284.766 C 214.247 285.115,213.401 286.300,212.706 287.400 C 212.011 288.500,211.073 289.870,210.621 290.444 C 209.779 291.516,209.360 292.114,207.996 294.200 C 207.564 294.860,206.581 296.300,205.812 297.400 C 205.043 298.500,204.005 299.990,203.507 300.710 C 203.008 301.431,202.285 302.404,201.900 302.872 C 201.515 303.340,201.200 303.858,201.200 304.025 C 201.200 304.191,200.390 305.321,199.400 306.536 C 198.410 307.752,197.600 308.860,197.600 309.000 C 197.600 309.139,197.150 309.843,196.600 310.564 C 196.050 311.286,195.600 312.019,195.600 312.194 C 195.600 312.369,195.285 312.751,194.900 313.043 C 194.334 313.473,194.315 313.577,194.800 313.585 C 195.364 313.594,196.112 312.635,197.663 309.910 C 198.028 309.269,198.613 308.428,198.963 308.041 C 199.313 307.654,199.600 307.145,199.600 306.911 C 199.600 306.677,199.878 306.379,200.218 306.248 C 200.558 306.118,201.088 305.409,201.395 304.674 C 201.702 303.938,202.234 303.104,202.577 302.819 C 202.920 302.535,203.200 302.060,203.200 301.765 C 203.200 301.470,203.558 301.037,203.995 300.803 C 204.433 300.568,204.902 299.932,205.039 299.388 C 205.175 298.845,205.408 298.400,205.557 298.400 C 205.706 298.400,206.167 297.815,206.582 297.100 C 206.998 296.385,207.577 295.656,207.869 295.480 C 208.161 295.304,208.400 294.931,208.400 294.650 C 208.400 294.369,208.850 293.717,209.400 293.200 C 209.950 292.683,210.400 291.926,210.400 291.518 C 210.400 291.109,210.684 290.666,211.031 290.533 C 211.377 290.400,211.832 289.910,212.041 289.445 C 212.505 288.413,214.146 286.039,215.021 285.136 C 215.387 284.758,215.588 284.068,215.487 283.536 C 215.351 282.823,215.296 282.783,215.254 283.366 M166.800 284.471 C 166.800 285.043,167.154 285.936,167.587 286.456 C 168.607 287.680,168.613 286.988,167.600 285.000 C 166.874 283.576,166.800 283.527,166.800 284.471 M161.995 285.900 C 161.993 286.725,161.635 288.840,161.200 290.600 C 160.765 292.360,160.407 294.716,160.405 295.836 C 160.402 296.956,160.040 299.280,159.600 301.000 C 158.553 305.093,158.539 306.952,159.574 304.400 C 160.016 303.310,160.413 300.943,160.580 298.400 C 160.732 296.090,161.126 293.607,161.456 292.882 C 162.061 291.550,162.738 284.400,162.259 284.400 C 162.117 284.400,161.998 285.075,161.995 285.900 M168.580 289.131 C 168.664 290.083,168.998 291.163,169.323 291.531 C 169.647 291.899,170.045 293.010,170.206 294.000 C 170.367 294.990,170.830 296.430,171.236 297.200 C 171.642 297.970,172.072 299.230,172.193 300.000 C 172.447 301.628,173.033 302.701,173.443 302.291 C 173.600 302.133,173.454 301.419,173.118 300.702 C 172.362 299.090,171.262 295.923,170.721 293.800 C 170.497 292.920,169.978 291.480,169.567 290.600 C 169.157 289.720,168.732 288.640,168.624 288.200 C 168.516 287.760,168.496 288.179,168.580 289.131 M283.000 290.609 C 281.900 291.150,280.798 291.594,280.551 291.596 C 279.970 291.601,276.800 295.035,276.800 295.660 C 276.800 295.922,276.506 296.462,276.147 296.858 C 275.406 297.677,274.937 302.275,275.364 304.548 C 275.763 306.678,278.825 309.600,280.658 309.600 C 281.425 309.600,282.367 309.768,282.752 309.974 C 283.754 310.510,288.748 309.579,290.125 308.600 C 292.440 306.953,293.600 305.916,293.600 305.490 C 293.600 305.249,293.991 304.636,294.468 304.128 C 295.475 303.056,296.011 298.923,295.513 296.064 C 294.639 291.047,287.997 288.151,283.000 290.609 M134.862 291.312 C 128.951 293.333,125.656 300.008,127.978 305.258 C 128.688 306.863,130.996 309.137,131.453 308.681 C 131.647 308.486,129.864 306.955,129.174 306.725 C 127.575 306.192,127.957 296.866,129.625 295.698 C 130.051 295.399,130.400 294.895,130.400 294.577 C 130.400 294.260,130.580 294.000,130.800 294.000 C 131.020 294.000,131.531 293.669,131.937 293.263 C 133.910 291.290,143.600 291.088,143.600 293.021 C 143.600 293.310,143.948 293.657,144.374 293.792 C 145.332 294.096,145.826 297.330,145.455 300.876 C 145.174 303.571,143.330 306.318,141.216 307.193 C 140.263 307.588,139.191 308.800,139.795 308.800 C 141.012 308.800,145.600 304.103,145.600 302.857 C 145.600 302.510,145.901 301.438,146.269 300.474 C 147.315 297.736,144.755 291.600,142.567 291.600 C 142.306 291.600,141.576 291.331,140.946 291.002 C 139.405 290.199,137.890 290.276,134.862 291.312 M290.225 291.699 C 291.641 292.193,292.800 292.752,292.800 292.941 C 292.800 293.130,293.250 293.819,293.800 294.473 C 295.003 295.902,295.241 300.633,294.198 302.400 C 293.874 302.950,293.403 303.854,293.151 304.409 C 292.899 304.965,292.076 305.865,291.323 306.409 C 290.569 306.954,289.673 307.658,289.332 307.973 C 288.500 308.741,284.714 309.230,282.000 308.920 C 273.216 307.916,274.635 294.253,283.800 291.588 C 287.008 290.656,287.249 290.660,290.225 291.699 M104.036 298.157 C 103.782 298.463,102.755 298.836,101.754 298.986 C 100.753 299.136,99.206 299.516,98.316 299.830 C 97.248 300.207,94.851 300.414,91.250 300.440 C 83.771 300.495,82.355 301.418,82.416 306.200 L 82.431 307.400 82.988 306.119 C 83.295 305.415,83.665 304.039,83.812 303.061 C 84.144 300.845,84.316 300.801,92.550 300.798 C 97.066 300.796,98.883 300.647,99.717 300.212 C 100.331 299.892,101.501 299.509,102.317 299.362 C 104.093 299.042,105.200 298.513,105.200 297.986 C 105.200 297.422,104.569 297.515,104.036 298.157 M173.741 304.302 C 173.842 305.239,174.317 306.589,174.797 307.302 C 175.773 308.755,175.676 308.146,174.398 304.800 L 173.557 302.600 173.741 304.302 M113.369 308.228 C 113.414 310.067,113.644 310.929,114.314 311.782 C 114.801 312.401,115.200 313.237,115.200 313.640 C 115.200 314.042,115.548 314.558,115.973 314.786 C 116.398 315.013,116.860 315.559,117.000 316.000 C 117.140 316.440,117.491 316.800,117.781 316.800 C 118.071 316.800,118.603 317.250,118.963 317.800 C 119.324 318.350,119.950 318.800,120.355 318.800 C 120.761 318.800,121.603 319.202,122.228 319.694 C 123.268 320.512,123.824 320.592,128.782 320.640 L 134.200 320.692 129.200 320.439 C 125.077 320.229,123.921 320.028,122.606 319.292 C 121.729 318.802,120.817 318.400,120.578 318.400 C 120.339 318.400,119.761 317.995,119.292 317.500 C 118.823 317.005,118.232 316.393,117.980 316.140 C 116.582 314.741,115.982 313.857,114.862 311.549 C 114.182 310.147,113.555 308.280,113.468 307.400 C 113.381 306.520,113.336 306.893,113.369 308.228 M158.476 308.601 C 158.434 309.702,158.040 311.861,157.600 313.400 C 157.160 314.939,156.800 316.600,156.800 317.093 C 156.800 319.021,154.391 319.835,149.130 319.685 L 144.460 319.553 143.730 318.076 C 142.899 316.395,141.457 316.211,140.180 317.623 C 139.793 318.050,139.279 318.406,139.038 318.413 C 138.797 318.419,137.700 318.868,136.600 319.409 C 134.621 320.382,134.614 320.393,135.913 320.396 C 136.709 320.399,137.315 320.166,137.454 319.804 C 137.579 319.477,138.365 319.025,139.200 318.800 C 140.035 318.575,140.821 318.123,140.946 317.796 C 141.394 316.629,142.331 317.139,143.714 319.300 L 144.418 320.400 149.587 320.400 C 156.830 320.400,159.228 317.369,158.695 308.891 L 158.551 306.600 158.476 308.601 M81.875 310.500 C 81.064 318.912,80.349 319.668,73.210 319.677 C 65.812 319.687,65.137 319.137,66.415 314.142 C 66.847 312.454,67.182 310.516,67.159 309.836 L 67.118 308.600 66.829 309.800 C 66.669 310.460,66.352 311.360,66.125 311.800 C 64.784 314.388,65.332 319.504,67.018 320.152 C 68.432 320.694,78.592 320.421,79.454 319.817 C 80.904 318.802,82.090 315.346,82.311 311.500 C 82.541 307.479,82.234 306.775,81.875 310.500 M133.700 309.094 C 134.745 309.176,136.455 309.176,137.500 309.094 C 138.545 309.012,137.690 308.944,135.600 308.944 C 133.510 308.944,132.655 309.012,133.700 309.094 M175.637 309.800 C 175.620 310.460,175.963 311.540,176.400 312.200 C 177.445 313.778,177.445 316.054,176.400 317.000 C 175.960 317.398,175.600 317.934,175.600 318.190 C 175.600 318.446,175.150 319.047,174.600 319.525 C 174.050 320.003,173.600 320.666,173.600 320.997 C 173.600 321.329,173.424 321.600,173.208 321.600 C 172.993 321.600,172.449 322.320,172.000 323.200 C 171.551 324.080,171.007 324.800,170.792 324.800 C 170.576 324.800,170.400 325.071,170.400 325.403 C 170.400 325.734,169.950 326.397,169.400 326.875 C 168.850 327.353,168.400 327.899,168.400 328.089 C 168.400 328.278,168.032 328.829,167.582 329.312 C 165.109 331.966,167.480 333.532,174.000 333.552 C 180.416 333.572,183.526 332.456,183.587 330.114 C 183.594 329.847,183.958 329.437,184.395 329.203 C 184.833 328.968,185.299 328.345,185.431 327.818 C 185.564 327.290,186.016 326.548,186.436 326.167 C 186.856 325.787,187.200 325.240,187.200 324.952 C 187.200 324.664,187.560 324.235,188.000 324.000 C 188.440 323.765,188.800 323.322,188.800 323.017 C 188.800 322.711,189.250 321.927,189.800 321.273 C 190.350 320.619,190.800 319.872,190.800 319.612 C 190.800 319.168,189.491 320.618,188.600 322.048 C 187.627 323.611,184.791 327.872,184.240 328.600 C 182.704 330.628,181.378 332.225,181.006 332.494 C 180.136 333.123,168.500 332.843,167.834 332.177 C 167.018 331.361,169.185 327.158,171.737 324.606 C 172.102 324.241,172.400 323.789,172.400 323.600 C 172.400 323.411,172.627 323.019,172.905 322.729 C 173.183 322.438,173.718 321.750,174.094 321.200 C 174.470 320.650,175.410 319.300,176.183 318.200 C 177.782 315.923,178.017 313.966,176.939 311.883 C 176.576 311.180,176.141 310.154,175.974 309.603 C 175.676 308.625,175.668 308.630,175.637 309.800 M192.980 315.870 C 192.331 316.898,191.562 317.978,191.271 318.270 C 190.689 318.854,190.811 318.924,191.767 318.557 C 192.115 318.424,192.400 318.090,192.400 317.816 C 192.400 317.541,192.850 316.831,193.400 316.238 C 194.225 315.348,194.755 314.000,194.280 314.000 C 194.214 314.000,193.629 314.841,192.980 315.870 " stroke="none" fill="#9fc4e3" fill-rule="evenodd"></path><path id="path4" d="M159.964 67.518 C 156.958 68.851,154.913 72.799,154.560 77.954 C 154.430 79.849,153.997 82.660,153.597 84.200 C 153.197 85.740,152.751 88.530,152.607 90.400 C 152.463 92.270,152.096 94.700,151.791 95.800 C 151.486 96.900,151.121 99.150,150.980 100.800 C 150.839 102.450,150.381 105.265,149.962 107.055 C 149.543 108.845,149.200 111.201,149.200 112.291 C 149.200 113.380,148.843 115.669,148.406 117.377 C 147.969 119.084,147.501 121.948,147.365 123.741 C 147.229 125.533,146.859 127.900,146.542 129.000 C 146.226 130.100,145.792 132.951,145.579 135.335 C 145.365 137.720,145.014 140.000,144.798 140.403 C 144.583 140.806,144.208 142.905,143.967 145.068 C 143.725 147.231,143.273 150.120,142.962 151.490 C 142.651 152.859,142.216 155.714,141.997 157.834 C 141.777 159.953,141.343 162.613,141.032 163.744 C 140.721 164.875,140.355 167.192,140.217 168.894 C 140.080 170.596,139.619 173.566,139.193 175.494 C 138.766 177.422,138.411 179.810,138.404 180.800 C 138.397 181.790,138.128 183.586,137.808 184.791 C 137.487 185.996,137.023 188.786,136.776 190.991 C 136.529 193.196,136.084 195.900,135.788 197.000 C 135.491 198.100,135.046 200.968,134.800 203.372 C 134.553 205.777,134.184 208.056,133.980 208.437 C 133.490 209.354,132.716 218.305,133.011 219.648 C 133.138 220.226,133.697 221.127,134.253 221.650 L 135.264 222.600 153.063 222.712 C 165.201 222.788,170.781 222.693,170.607 222.412 C 170.439 222.140,164.506 222.000,153.098 222.000 L 135.844 222.000 134.722 220.925 C 133.281 219.545,133.090 214.525,134.355 211.313 C 134.798 210.189,135.226 207.745,135.391 205.399 C 135.545 203.199,136.015 200.256,136.436 198.858 C 136.862 197.439,137.200 195.120,137.200 193.610 C 137.200 192.036,137.524 189.891,137.974 188.483 C 138.399 187.151,138.873 184.292,139.027 182.130 C 139.180 179.969,139.550 177.717,139.849 177.127 C 140.148 176.537,140.510 174.197,140.654 171.927 C 140.798 169.657,141.250 166.742,141.658 165.448 C 142.081 164.106,142.406 161.873,142.413 160.248 C 142.421 158.460,142.719 156.581,143.212 155.200 C 143.673 153.910,144.103 151.346,144.252 149.000 C 144.391 146.800,144.764 144.370,145.081 143.600 C 145.397 142.830,145.811 140.187,146.000 137.727 C 146.188 135.267,146.549 132.869,146.801 132.398 C 147.053 131.927,147.503 129.228,147.800 126.400 C 148.097 123.572,148.551 120.866,148.807 120.386 C 149.064 119.907,149.419 117.509,149.596 115.057 C 149.773 112.606,150.190 109.970,150.521 109.200 C 150.853 108.430,151.257 105.915,151.420 103.610 C 151.583 101.306,151.954 98.850,152.246 98.152 C 152.537 97.454,152.941 94.821,153.142 92.301 C 153.343 89.781,153.733 87.299,154.008 86.786 C 154.282 86.273,154.640 84.009,154.803 81.754 C 154.966 79.500,155.381 76.788,155.724 75.728 C 156.067 74.667,156.534 73.078,156.761 72.195 C 157.059 71.042,157.649 70.226,158.860 69.295 L 160.545 68.000 194.800 68.000 C 227.649 68.000,229.176 68.032,232.027 68.791 C 233.662 69.225,235.969 69.585,237.153 69.591 C 238.538 69.597,239.750 69.868,240.553 70.353 C 241.239 70.767,242.640 71.226,243.667 71.372 C 244.694 71.519,245.733 71.878,245.975 72.170 C 246.217 72.462,247.218 72.925,248.200 73.200 C 249.182 73.475,250.190 73.947,250.441 74.250 C 250.692 74.552,251.101 74.800,251.349 74.800 C 251.597 74.801,252.323 75.251,252.962 75.800 C 253.601 76.350,254.270 76.800,254.447 76.800 C 254.625 76.800,255.869 77.925,257.211 79.300 C 260.560 82.729,260.800 83.009,260.800 83.479 C 260.800 83.706,261.223 84.320,261.740 84.845 C 262.256 85.370,262.811 86.340,262.972 87.000 C 263.133 87.660,263.610 88.522,264.032 88.916 C 264.521 89.371,264.801 90.170,264.803 91.116 C 264.804 91.932,265.163 93.140,265.600 93.800 C 266.332 94.905,266.395 95.691,266.397 103.700 C 266.399 108.485,266.546 112.400,266.724 112.400 C 267.543 112.400,267.004 94.277,266.129 92.400 C 265.668 91.410,265.169 90.027,265.020 89.328 C 264.871 88.628,264.490 87.841,264.174 87.579 C 263.858 87.317,263.600 86.918,263.600 86.692 C 263.600 84.923,255.235 75.675,252.662 74.600 C 251.933 74.295,251.104 73.766,250.819 73.423 C 250.535 73.080,250.008 72.800,249.648 72.800 C 249.288 72.800,248.148 72.350,247.115 71.800 C 246.082 71.250,244.913 70.799,244.518 70.798 C 244.123 70.796,243.277 70.522,242.637 70.189 C 241.997 69.855,240.014 69.328,238.230 69.016 C 236.445 68.705,234.448 68.215,233.792 67.927 C 232.485 67.354,161.225 66.958,159.964 67.518 M76.414 261.483 C 75.353 261.919,74.427 263.379,74.413 264.636 C 74.406 265.316,74.133 266.756,73.808 267.836 C 73.482 268.916,73.020 271.690,72.780 274.000 C 72.541 276.310,72.161 278.650,71.935 279.200 C 71.709 279.750,71.269 282.513,70.955 285.339 C 70.642 288.166,70.211 290.805,69.998 291.204 C 69.784 291.603,69.431 293.880,69.213 296.265 C 68.995 298.649,68.553 301.451,68.230 302.492 C 67.907 303.533,67.520 305.963,67.369 307.892 C 67.218 309.821,66.765 312.708,66.362 314.306 C 65.149 319.121,65.869 319.687,73.210 319.677 C 80.544 319.668,80.965 319.168,82.017 309.206 C 82.407 305.511,83.334 301.815,84.076 301.000 C 84.276 300.780,87.355 300.497,90.920 300.372 C 96.980 300.159,101.908 299.385,103.600 298.381 C 103.930 298.185,104.982 297.661,105.939 297.218 C 107.648 296.425,112.400 291.915,112.400 291.086 C 112.400 290.853,112.651 290.379,112.957 290.031 C 113.956 288.898,115.680 283.978,116.031 281.259 C 117.487 269.969,114.952 265.324,105.600 262.147 C 103.388 261.396,78.031 260.819,76.414 261.483 M102.274 262.434 C 102.893 262.672,104.462 263.040,105.760 263.252 C 107.059 263.464,108.568 263.989,109.114 264.418 C 109.661 264.848,110.309 265.201,110.554 265.202 C 111.193 265.205,113.600 267.542,113.600 268.159 C 113.600 268.444,113.949 269.080,114.375 269.572 C 115.977 271.418,115.976 282.687,114.374 284.724 C 113.948 285.265,113.600 286.199,113.600 286.800 C 113.600 287.401,113.240 288.350,112.800 288.909 C 112.360 289.469,112.000 290.139,112.000 290.400 C 112.000 291.211,105.957 296.800,105.080 296.800 C 104.631 296.800,103.916 297.115,103.491 297.500 C 102.526 298.376,97.630 299.132,90.400 299.520 C 84.513 299.837,84.099 299.968,82.608 301.989 C 81.733 303.175,81.600 303.768,81.600 306.488 C 81.600 308.595,81.338 310.365,80.800 311.896 C 80.360 313.148,80.000 314.908,80.000 315.806 C 80.000 318.298,79.739 318.400,73.396 318.400 C 66.809 318.400,66.009 318.126,66.947 316.194 C 67.265 315.537,67.652 313.110,67.807 310.800 C 67.961 308.490,68.354 305.970,68.680 305.200 C 69.006 304.430,69.412 301.820,69.582 299.400 C 69.753 296.980,70.168 294.370,70.505 293.600 C 70.842 292.830,71.240 290.400,71.390 288.200 C 71.539 286.000,72.008 283.164,72.431 281.898 C 72.917 280.445,73.200 278.493,73.200 276.600 C 73.200 274.710,73.484 272.753,73.968 271.302 C 74.391 270.036,74.855 267.740,75.000 266.200 C 75.412 261.822,74.749 262.019,89.074 262.009 C 96.808 262.003,101.553 262.156,102.274 262.434 M88.812 272.512 C 87.701 273.074,87.091 274.169,86.421 276.800 C 86.169 277.790,85.796 279.230,85.591 280.000 C 85.120 281.773,85.098 288.020,85.561 288.751 C 85.912 289.304,90.039 289.215,94.800 288.551 C 100.137 287.808,103.579 279.520,100.314 275.273 C 99.607 274.353,98.746 273.600,98.401 273.600 C 98.055 273.600,96.748 273.240,95.496 272.800 C 92.911 271.891,90.264 271.777,88.812 272.512 M96.676 274.048 C 102.939 275.251,101.241 286.861,94.674 287.741 C 85.079 289.027,84.625 288.681,86.372 281.413 C 86.797 279.646,87.292 277.217,87.472 276.016 C 87.897 273.184,89.923 272.750,96.676 274.048 M133.000 279.959 C 132.560 280.146,131.258 280.428,130.108 280.586 C 128.957 280.744,127.578 281.217,127.044 281.636 C 126.511 282.056,125.802 282.400,125.470 282.400 C 124.040 282.400,118.328 287.832,117.252 290.216 C 117.049 290.665,116.606 291.263,116.267 291.544 C 115.929 291.825,115.530 292.628,115.383 293.328 C 115.235 294.027,114.751 295.197,114.308 295.927 C 113.605 297.083,113.497 297.987,113.463 302.960 C 113.417 309.718,114.398 312.555,118.040 316.200 C 118.259 316.420,118.823 317.005,119.292 317.500 C 119.761 317.995,120.337 318.406,120.572 318.413 C 120.807 318.419,121.900 318.868,123.000 319.409 C 124.788 320.288,125.510 320.393,129.800 320.393 C 134.090 320.393,134.812 320.288,136.600 319.409 C 137.700 318.868,138.797 318.419,139.038 318.413 C 139.279 318.406,139.793 318.050,140.180 317.623 C 141.457 316.211,142.899 316.395,143.730 318.076 L 144.460 319.553 149.130 319.685 C 154.360 319.834,156.800 319.018,156.800 317.120 C 156.800 316.642,157.144 314.980,157.565 313.426 C 157.986 311.871,158.451 309.085,158.599 307.234 C 158.746 305.383,159.212 302.519,159.633 300.870 C 160.055 299.221,160.400 296.980,160.400 295.891 C 160.400 294.801,160.745 292.445,161.168 290.655 C 162.312 285.804,162.610 281.872,161.879 281.265 C 161.461 280.919,159.577 280.810,155.355 280.889 L 149.418 281.000 149.025 282.200 C 148.809 282.860,148.609 283.446,148.581 283.502 C 148.478 283.707,145.776 282.265,145.000 281.590 C 143.563 280.341,134.881 279.161,133.000 279.959 M144.158 281.905 C 147.771 285.060,149.423 285.289,149.677 282.670 L 149.800 281.400 155.600 281.400 L 161.400 281.400 161.523 283.332 C 161.595 284.464,161.313 286.370,160.842 287.932 C 160.399 289.400,159.917 292.310,159.770 294.400 C 159.623 296.490,159.247 298.825,158.935 299.588 C 158.622 300.352,158.258 302.692,158.125 304.788 C 157.992 306.885,157.550 309.658,157.142 310.952 C 156.734 312.246,156.400 314.249,156.400 315.403 C 156.400 318.235,156.210 318.326,150.058 318.435 C 144.263 318.536,144.018 318.450,144.006 316.287 C 143.998 314.848,143.084 314.516,142.031 315.569 C 141.574 316.026,140.924 316.400,140.587 316.400 C 140.251 316.400,139.879 316.649,139.763 316.953 C 139.646 317.257,138.572 317.814,137.376 318.190 C 136.180 318.566,135.101 319.037,134.977 319.237 C 134.495 320.017,125.312 319.661,123.704 318.800 C 122.884 318.360,122.009 318.000,121.761 318.000 C 120.379 318.000,115.600 312.671,115.600 311.130 C 115.600 310.760,115.285 310.142,114.900 309.757 C 113.894 308.751,113.852 298.082,114.849 296.942 C 115.206 296.534,115.616 295.543,115.760 294.741 C 115.903 293.938,116.376 292.830,116.811 292.277 C 117.245 291.725,117.600 291.103,117.600 290.895 C 117.600 290.307,122.679 284.800,123.221 284.800 C 123.365 284.800,123.969 284.350,124.562 283.800 C 125.156 283.250,125.979 282.800,126.392 282.800 C 126.805 282.800,127.456 282.487,127.838 282.105 C 129.327 280.616,142.498 280.455,144.158 281.905 M167.280 281.280 C 166.584 281.976,166.689 283.213,167.596 284.993 C 168.034 285.852,168.509 287.195,168.652 287.978 C 168.794 288.760,169.229 290.030,169.618 290.800 C 170.007 291.570,170.506 292.920,170.727 293.800 C 171.177 295.592,172.249 298.784,173.010 300.600 C 173.583 301.967,174.975 306.132,175.752 308.800 C 176.040 309.790,176.573 311.176,176.938 311.880 C 178.017 313.965,177.783 315.922,176.183 318.200 C 175.410 319.300,174.470 320.650,174.094 321.200 C 173.718 321.750,173.183 322.438,172.905 322.729 C 172.627 323.019,172.400 323.411,172.400 323.600 C 172.400 323.789,172.102 324.241,171.737 324.606 C 170.700 325.643,169.324 327.627,168.221 329.677 C 166.648 332.597,167.062 332.801,174.529 332.794 C 181.116 332.787,180.905 332.840,182.523 330.800 C 184.357 328.488,184.773 327.911,186.523 325.242 C 188.137 322.780,188.442 322.324,190.191 319.760 C 190.626 319.122,191.094 318.510,191.230 318.400 C 191.367 318.290,192.255 316.985,193.204 315.500 C 194.153 314.015,195.080 312.800,195.265 312.800 C 195.449 312.800,195.600 312.592,195.600 312.338 C 195.600 312.084,196.050 311.286,196.600 310.564 C 197.150 309.843,197.600 309.139,197.600 309.000 C 197.600 308.860,198.410 307.752,199.400 306.536 C 200.390 305.321,201.200 304.191,201.200 304.025 C 201.200 303.858,201.515 303.340,201.900 302.872 C 202.285 302.404,203.008 301.431,203.507 300.710 C 204.005 299.990,205.043 298.500,205.812 297.400 C 206.581 296.300,207.564 294.860,207.996 294.200 C 209.360 292.114,209.779 291.516,210.621 290.444 C 211.073 289.870,212.011 288.500,212.706 287.400 C 213.401 286.300,214.225 285.130,214.537 284.800 C 215.430 283.856,215.734 281.809,215.064 281.253 C 214.664 280.921,212.605 280.812,208.180 280.890 L 201.866 281.000 200.549 282.800 C 199.824 283.790,198.999 284.984,198.716 285.453 C 198.432 285.922,197.300 287.612,196.200 289.209 C 195.100 290.805,193.930 292.520,193.600 293.019 C 193.270 293.518,192.200 295.068,191.222 296.463 C 190.244 297.858,189.074 299.577,188.622 300.283 C 187.556 301.947,187.294 301.918,186.965 300.100 C 186.815 299.275,186.447 298.114,186.147 297.520 C 185.846 296.926,185.399 295.486,185.153 294.320 C 184.908 293.154,184.478 291.750,184.198 291.200 C 183.918 290.650,183.504 289.300,183.277 288.200 C 182.767 285.720,181.512 282.258,180.821 281.425 C 180.151 280.619,168.071 280.489,167.280 281.280 M180.218 282.182 C 180.758 282.722,181.200 283.579,181.200 284.088 C 181.200 284.596,181.560 285.684,182.000 286.504 C 182.440 287.325,182.802 288.583,182.804 289.299 C 182.806 290.014,183.250 291.500,183.791 292.600 C 184.332 293.700,184.781 295.292,184.787 296.137 C 184.795 297.052,185.124 298.085,185.600 298.691 C 186.040 299.250,186.400 300.029,186.400 300.421 C 186.400 301.619,186.852 302.400,187.543 302.397 C 188.146 302.395,188.774 301.613,190.400 298.837 C 190.730 298.274,191.193 297.630,191.428 297.407 C 191.663 297.183,192.152 296.550,192.515 296.000 C 192.877 295.450,193.720 294.229,194.387 293.286 C 195.054 292.343,195.600 291.420,195.600 291.235 C 195.600 291.050,195.881 290.665,196.225 290.379 C 196.957 289.772,199.600 285.866,199.600 285.392 C 199.600 285.059,199.840 284.762,201.946 282.489 L 203.161 281.178 208.880 281.289 L 214.600 281.400 214.725 282.483 C 214.807 283.194,214.567 283.808,214.025 284.271 C 213.571 284.660,213.200 285.175,213.200 285.417 C 213.200 285.658,212.750 286.247,212.200 286.725 C 211.650 287.203,211.200 287.838,211.200 288.135 C 211.200 288.433,210.840 289.002,210.400 289.400 C 209.960 289.798,209.597 290.321,209.593 290.562 C 209.589 290.803,209.139 291.424,208.593 291.942 C 208.047 292.460,207.600 293.107,207.600 293.380 C 207.600 293.653,207.240 294.202,206.800 294.600 C 206.360 294.998,206.000 295.560,206.000 295.848 C 206.000 296.136,205.640 296.565,205.200 296.800 C 204.760 297.035,204.400 297.447,204.400 297.714 C 204.399 297.981,203.949 298.723,203.400 299.362 C 202.850 300.001,202.400 300.695,202.400 300.904 C 202.400 301.254,201.619 302.317,199.586 304.734 C 199.154 305.248,198.800 305.852,198.800 306.076 C 198.800 306.301,198.342 307.050,197.783 307.742 C 195.569 310.481,193.600 313.428,193.600 314.004 C 193.600 314.206,193.265 314.551,192.855 314.771 C 192.445 314.990,191.883 315.716,191.606 316.385 C 191.329 317.053,190.967 317.600,190.800 317.600 C 190.633 317.600,190.273 318.140,190.000 318.800 C 189.727 319.460,189.339 320.000,189.139 320.000 C 188.939 320.000,188.660 320.315,188.519 320.700 C 188.379 321.085,187.844 321.909,187.332 322.531 C 186.819 323.153,186.400 323.911,186.400 324.217 C 186.400 324.522,186.040 324.965,185.600 325.200 C 185.160 325.435,184.800 325.866,184.800 326.156 C 184.800 326.446,184.350 327.169,183.800 327.762 C 183.250 328.356,182.800 329.096,182.800 329.407 C 182.800 329.717,182.452 330.158,182.027 330.386 C 181.602 330.613,181.140 331.159,181.000 331.600 C 180.763 332.348,180.396 332.400,175.347 332.400 C 168.132 332.400,167.376 331.867,169.855 328.527 C 170.375 327.826,170.800 327.093,170.800 326.896 C 170.800 326.700,171.250 326.117,171.800 325.600 C 172.350 325.083,172.800 324.441,172.800 324.173 C 172.800 323.905,173.078 323.579,173.417 323.449 C 173.756 323.319,174.251 322.706,174.517 322.088 C 174.783 321.470,175.227 320.702,175.505 320.382 C 177.295 318.318,178.400 316.569,178.400 315.800 C 178.400 314.231,177.604 310.650,177.200 310.400 C 176.985 310.267,176.627 309.200,176.405 308.027 C 176.183 306.855,175.641 305.313,175.200 304.601 C 174.760 303.888,174.399 302.787,174.397 302.153 C 174.396 301.519,174.037 300.460,173.600 299.800 C 173.163 299.140,172.798 298.150,172.790 297.600 C 172.782 297.050,172.332 295.700,171.791 294.600 C 171.250 293.500,170.806 292.194,170.804 291.699 C 170.802 291.203,170.440 290.125,170.000 289.304 C 169.560 288.484,169.200 287.447,169.200 287.000 C 169.200 286.553,168.840 285.516,168.400 284.696 C 166.657 281.443,166.927 281.273,173.918 281.232 C 179.052 281.201,179.270 281.234,180.218 282.182 M133.784 290.738 C 131.911 291.725,130.937 292.405,129.975 293.400 C 128.397 295.030,127.600 296.134,127.600 296.689 C 127.600 297.045,127.336 297.629,127.013 297.985 C 124.469 300.797,127.830 309.539,131.474 309.588 C 131.955 309.595,132.855 309.795,133.474 310.034 C 135.168 310.687,140.210 309.738,142.029 308.423 C 143.825 307.125,146.000 304.670,146.000 303.941 C 146.000 303.637,146.360 302.716,146.800 301.896 C 150.581 294.841,141.223 286.819,133.784 290.738 M140.946 291.002 C 141.576 291.331,142.306 291.600,142.567 291.600 C 144.755 291.600,147.315 297.736,146.269 300.474 C 145.901 301.438,145.600 302.510,145.600 302.857 C 145.600 303.204,145.015 304.222,144.300 305.120 C 139.855 310.700,130.421 310.780,127.978 305.258 C 124.707 297.863,134.165 287.466,140.946 291.002 " stroke="none" fill="#949cbc" fill-rule="evenodd"></path></g></svg>