<svg id="svg" version="1.1" xmlns="http://www.w3.org/2000/svg" xmlns:xlink="http://www.w3.org/1999/xlink" width="400" height="209.33333333333334" viewBox="0, 0, 400,209.33333333333334"><g id="svgg"><path id="path0" d="M156.545 34.125 C 141.356 36.193,131.508 45.885,129.189 61.047 C 128.768 63.801,128.761 145.345,129.181 148.168 C 129.474 150.130,130.590 154.995,130.882 155.580 C 130.975 155.765,131.148 156.152,131.268 156.440 C 135.895 167.597,145.171 174.231,157.853 175.456 L 159.581 175.623 159.581 174.969 C 159.581 174.609,159.443 173.473,159.275 172.445 C 159.106 171.417,158.772 169.304,158.533 167.749 C 158.293 166.194,157.909 163.743,157.681 162.304 C 157.453 160.864,157.126 158.791,156.954 157.696 C 156.783 156.602,156.550 155.141,156.436 154.450 C 156.322 153.759,156.041 151.921,155.812 150.366 C 155.373 147.383,155.134 145.878,154.665 143.141 C 154.507 142.220,154.268 140.712,154.134 139.791 C 153.999 138.869,153.760 137.314,153.602 136.335 C 152.951 132.296,152.663 130.469,152.363 128.482 C 151.863 125.169,151.617 123.586,151.304 121.675 C 150.963 119.594,150.717 118.002,150.268 114.974 C 150.088 113.764,149.803 111.974,149.634 110.995 C 149.345 109.325,148.670 105.082,147.968 100.524 C 147.367 96.624,147.008 94.328,146.805 93.089 C 146.692 92.398,146.314 89.995,145.965 87.749 C 145.616 85.503,145.241 83.147,145.131 82.513 C 145.022 81.880,144.739 80.042,144.503 78.429 C 144.267 76.817,143.985 74.979,143.877 74.346 C 142.765 67.841,143.699 64.112,147.406 60.253 C 150.387 57.149,151.890 56.632,162.723 54.987 C 163.932 54.803,165.770 54.516,166.806 54.348 C 167.843 54.180,169.869 53.859,171.309 53.634 C 172.749 53.410,175.152 53.033,176.649 52.797 C 178.147 52.561,181.492 52.043,184.084 51.646 C 189.761 50.775,197.503 49.560,200.942 48.999 C 202.325 48.774,205.010 48.355,206.911 48.068 C 210.142 47.580,214.925 46.839,219.058 46.185 C 221.760 45.757,227.812 44.809,229.110 44.610 C 233.670 43.909,237.938 43.244,241.257 42.719 C 243.387 42.382,246.403 41.912,247.958 41.675 C 251.736 41.100,257.139 40.231,257.855 40.084 C 258.587 39.934,258.471 39.759,257.001 38.793 C 254.004 36.823,249.846 35.186,246.283 34.571 C 245.534 34.442,244.403 34.227,243.770 34.093 C 241.597 33.633,159.935 33.663,156.545 34.125 M220.628 67.938 C 220.283 68.091,219.764 68.535,219.476 68.925 L 218.953 69.634 218.892 83.874 C 218.858 91.707,218.886 98.423,218.954 98.800 C 219.366 101.074,222.495 102.054,224.246 100.456 C 225.374 99.428,225.340 99.922,225.340 84.302 L 225.340 69.821 224.708 68.961 C 223.782 67.701,222.110 67.282,220.628 67.938 M170.326 70.567 C 168.379 71.753,168.329 74.468,170.232 75.651 C 170.965 76.107,171.223 76.130,176.859 76.230 C 181.528 76.314,182.711 76.391,182.666 76.608 C 182.620 76.834,177.884 83.218,170.695 92.745 C 167.523 96.949,167.517 99.567,170.676 100.587 C 172.367 101.133,189.902 101.123,190.988 100.576 C 193.011 99.555,193.039 96.146,191.031 95.147 C 190.346 94.806,189.564 94.758,183.905 94.703 C 178.029 94.647,177.555 94.615,177.642 94.284 C 177.694 94.088,180.135 90.723,183.066 86.806 C 190.613 76.723,190.482 76.906,191.190 75.532 C 192.306 73.368,191.914 71.550,190.135 70.640 C 188.787 69.950,171.441 69.886,170.326 70.567 M201.571 77.455 C 193.064 78.992,189.991 92.003,196.545 98.734 C 199.955 102.237,205.446 102.689,208.633 99.729 L 209.203 99.200 209.994 100.069 C 211.507 101.730,213.869 101.620,215.172 99.828 C 215.690 99.116,215.967 80.924,215.478 79.743 C 214.592 77.605,211.719 77.129,210.056 78.844 C 209.209 79.718,209.021 79.744,208.389 79.071 C 207.178 77.782,203.971 77.022,201.571 77.455 M237.068 77.426 C 230.756 78.533,226.752 84.857,227.917 91.879 C 230.052 104.750,247.732 105.046,250.200 92.251 C 251.902 83.427,245.307 75.982,237.068 77.426 M205.759 83.793 C 207.748 84.339,209.008 86.613,209.006 89.653 C 209.002 97.214,200.127 97.468,199.628 89.922 C 199.346 85.664,202.198 82.814,205.759 83.793 M240.499 83.818 C 244.629 85.052,244.996 92.880,241.024 94.997 C 237.735 96.749,234.499 94.051,234.466 89.529 C 234.434 85.182,236.984 82.768,240.499 83.818 " stroke="none" fill="#078de1" fill-rule="evenodd"></path><path id="path1" d="M170.536 105.119 C 170.025 105.351,169.392 105.887,169.018 106.403 L 168.377 107.288 168.377 126.429 C 168.377 147.795,168.268 146.269,169.882 147.439 L 170.743 148.063 195.543 148.063 L 220.342 148.063 220.171 147.592 C 219.778 146.509,220.048 145.260,221.234 142.677 C 222.698 139.487,222.764 140.175,220.442 134.411 C 219.360 131.726,217.900 128.100,217.196 126.354 C 215.347 121.767,215.801 120.000,218.828 120.000 C 220.906 120.000,221.169 120.435,224.193 128.901 C 225.341 132.112,225.355 132.147,225.544 132.147 C 225.706 132.147,226.800 129.547,228.685 124.681 C 230.261 120.612,230.781 120.002,232.670 120.011 C 235.572 120.024,236.023 121.845,234.212 126.243 C 231.785 132.139,229.978 136.503,229.123 138.534 C 228.638 139.686,227.959 141.335,227.614 142.199 C 227.268 143.063,226.865 144.052,226.717 144.398 C 225.688 146.805,225.290 147.873,225.386 147.969 C 225.614 148.197,234.786 148.066,235.248 147.828 C 235.937 147.473,236.652 146.772,236.992 146.119 C 237.313 145.502,237.582 111.057,237.288 108.119 C 237.142 106.652,236.353 105.580,235.001 105.010 C 233.738 104.477,171.719 104.583,170.536 105.119 M185.001 112.049 C 194.296 113.393,196.284 126.312,187.853 130.584 C 186.442 131.299,185.002 131.558,181.675 131.695 L 178.325 131.832 178.220 135.707 C 178.080 140.884,177.631 141.671,174.820 141.674 C 173.309 141.676,172.216 140.757,171.923 139.240 C 171.693 138.053,171.692 115.360,171.921 114.174 C 172.111 113.190,172.976 112.118,173.694 111.976 C 174.627 111.793,183.630 111.851,185.001 112.049 M178.268 121.728 L 178.325 125.969 180.628 126.033 C 184.802 126.150,186.579 124.859,186.592 121.698 C 186.605 118.657,185.051 117.487,181.002 117.487 L 178.211 117.487 178.268 121.728 M206.041 120.540 C 206.577 120.830,207.256 121.217,207.550 121.401 C 208.066 121.724,208.121 121.708,209.117 120.948 C 210.738 119.711,212.715 119.998,213.836 121.634 L 214.346 122.378 214.346 130.807 C 214.346 139.032,214.335 139.251,213.907 139.828 C 212.618 141.568,210.748 141.868,209.090 140.602 C 208.117 139.860,208.083 139.850,207.555 140.196 C 198.008 146.446,188.218 132.983,195.396 123.475 C 197.907 120.149,202.815 118.796,206.041 120.540 M201.915 126.094 C 197.676 128.250,199.038 135.812,203.665 135.812 C 209.152 135.812,209.448 126.323,203.979 125.750 C 203.044 125.652,202.656 125.717,201.915 126.094 " stroke="none" fill="#09ba09" fill-rule="evenodd"></path><path id="path2" d="M0.000 104.712 L 0.000 209.424 200.000 209.424 L 400.000 209.424 400.000 104.712 L 400.000 0.000 200.000 0.000 L 0.000 0.000 0.000 104.712 M244.817 33.766 C 246.232 34.067,247.579 34.390,249.895 34.984 C 250.732 35.199,254.204 36.590,254.555 36.851 C 254.670 36.937,255.424 37.364,256.230 37.800 C 257.037 38.236,257.743 38.650,257.801 38.721 C 257.859 38.792,258.267 39.120,258.709 39.449 C 259.700 40.189,259.587 40.297,257.487 40.614 C 256.565 40.753,254.963 40.998,253.927 41.158 C 252.890 41.318,251.712 41.500,251.309 41.562 C 250.906 41.624,249.728 41.812,248.691 41.979 C 247.654 42.146,245.864 42.432,244.712 42.614 C 243.560 42.796,242.052 43.037,241.361 43.150 C 240.670 43.262,239.162 43.491,238.010 43.657 C 236.859 43.824,235.021 44.107,233.927 44.286 C 232.832 44.465,231.277 44.704,230.471 44.817 C 229.665 44.929,228.204 45.161,227.225 45.331 C 226.246 45.501,225.068 45.696,224.607 45.764 C 222.299 46.104,219.531 46.536,217.173 46.925 C 214.143 47.425,211.238 47.867,209.011 48.168 C 208.150 48.284,207.299 48.425,207.120 48.482 C 206.837 48.572,201.007 49.494,198.953 49.774 C 198.341 49.858,192.524 50.768,189.948 51.184 C 188.999 51.338,185.616 51.873,183.874 52.147 C 183.126 52.264,181.524 52.507,180.314 52.688 C 175.949 53.338,174.302 53.593,171.728 54.014 C 170.288 54.249,168.497 54.538,167.749 54.656 C 167.000 54.774,164.927 55.103,163.141 55.388 C 161.356 55.673,159.188 56.010,158.325 56.137 C 157.461 56.264,156.141 56.461,155.393 56.574 C 149.494 57.464,144.573 62.397,143.924 68.069 C 143.661 70.369,144.349 76.829,145.351 81.466 C 145.463 81.984,145.649 83.068,145.764 83.874 C 145.879 84.681,146.063 85.859,146.173 86.492 C 146.283 87.126,146.515 88.634,146.689 89.843 C 146.862 91.052,147.154 92.937,147.339 94.031 C 147.523 95.126,147.802 96.916,147.959 98.010 C 148.116 99.105,148.488 101.508,148.786 103.351 C 149.577 108.230,149.957 110.707,150.160 112.303 C 150.260 113.080,150.392 113.798,150.454 113.899 C 150.516 114.000,150.664 114.825,150.783 115.732 C 150.901 116.640,151.130 118.230,151.292 119.267 C 152.043 124.095,152.257 125.428,152.468 126.597 C 152.745 128.131,153.279 131.595,153.501 133.298 C 153.885 136.244,154.186 138.163,154.369 138.848 C 154.477 139.251,154.649 140.288,154.751 141.152 C 154.852 142.016,155.089 143.571,155.276 144.607 C 155.463 145.644,155.704 147.152,155.811 147.958 C 156.004 149.411,156.357 151.710,156.964 155.445 C 157.137 156.510,157.331 157.712,157.396 158.115 C 157.462 158.518,157.706 159.979,157.941 161.361 C 158.175 162.743,158.493 164.817,158.649 165.969 C 158.805 167.120,159.075 168.911,159.250 169.948 C 160.339 176.405,160.319 176.477,157.592 175.905 C 157.131 175.809,155.906 175.626,154.869 175.499 C 152.421 175.200,149.622 174.411,147.225 173.347 C 144.766 172.255,143.931 171.843,143.149 171.337 C 142.684 171.036,142.257 170.735,142.199 170.669 C 142.141 170.602,141.623 170.228,141.047 169.837 C 138.115 167.845,133.946 162.983,132.342 159.686 C 132.062 159.110,131.762 158.607,131.675 158.569 C 131.589 158.531,131.518 158.360,131.518 158.189 C 131.518 158.018,131.275 157.346,130.977 156.695 C 130.679 156.044,130.301 155.084,130.138 154.562 C 129.974 154.040,129.749 153.330,129.638 152.984 C 129.430 152.337,129.102 150.446,128.785 148.063 C 128.515 146.032,128.536 62.603,128.807 61.047 C 128.928 60.356,129.116 59.178,129.226 58.429 C 129.436 57.001,130.233 54.371,130.939 52.775 C 131.936 50.523,132.985 48.405,133.236 48.136 C 133.386 47.977,133.692 47.518,133.916 47.117 C 134.414 46.229,134.323 46.348,136.072 44.274 C 136.858 43.343,137.850 42.273,138.278 41.897 C 138.706 41.522,138.995 41.115,138.920 40.994 C 138.845 40.872,138.876 40.830,138.989 40.900 C 139.102 40.970,139.753 40.563,140.435 39.995 C 141.117 39.428,141.752 38.961,141.846 38.958 C 141.941 38.955,142.317 38.741,142.684 38.481 C 146.024 36.118,151.410 34.262,157.068 33.525 C 159.851 33.162,243.053 33.390,244.817 33.766 M223.979 67.701 C 224.533 68.011,224.978 68.488,225.292 69.111 L 225.767 70.052 225.711 84.728 L 225.654 99.405 225.080 100.157 C 223.298 102.494,219.449 101.888,218.646 99.145 C 218.472 98.553,218.423 94.324,218.470 83.964 L 218.534 69.602 219.052 68.847 C 220.152 67.241,222.275 66.747,223.979 67.701 M190.366 70.222 C 193.515 71.851,192.777 74.753,187.457 81.675 C 186.146 83.381,184.496 85.592,183.770 86.617 C 183.309 87.268,182.759 88.000,182.548 88.245 C 181.249 89.752,178.435 93.705,178.504 93.927 C 178.543 94.056,180.779 94.185,184.310 94.264 C 187.468 94.334,190.335 94.464,190.681 94.552 C 193.249 95.210,193.748 99.479,191.414 100.832 C 190.706 101.242,190.345 101.257,180.838 101.257 L 170.995 101.257 169.948 100.733 C 168.501 100.010,167.890 98.843,168.020 97.055 C 168.122 95.657,168.429 95.067,170.446 92.394 C 171.093 91.536,171.804 90.587,172.025 90.286 C 173.402 88.412,174.168 87.401,174.391 87.165 C 174.531 87.017,174.810 86.616,175.012 86.275 C 175.213 85.934,175.450 85.654,175.537 85.654 C 175.625 85.654,175.838 85.381,176.011 85.046 C 176.184 84.711,176.450 84.311,176.603 84.156 C 176.756 84.001,177.536 82.981,178.336 81.890 C 179.136 80.798,180.000 79.620,180.256 79.272 C 181.536 77.531,181.829 77.047,181.689 76.907 C 181.605 76.823,179.118 76.707,176.161 76.649 C 171.098 76.551,170.743 76.518,170.052 76.088 C 167.634 74.581,168.166 70.474,170.849 69.931 C 172.663 69.564,189.582 69.816,190.366 70.222 M206.029 77.353 C 206.834 77.625,207.809 78.085,208.196 78.374 C 208.988 78.965,209.243 78.930,210.201 78.099 C 211.948 76.581,215.067 77.428,215.903 79.647 C 216.257 80.584,216.203 98.800,215.845 99.486 C 214.607 101.858,211.865 102.357,209.855 100.576 C 209.563 100.317,209.212 100.105,209.076 100.105 C 208.939 100.105,208.561 100.317,208.235 100.576 C 204.744 103.351,199.023 102.304,195.537 98.251 C 189.919 91.720,192.991 78.994,200.592 77.306 C 201.091 77.196,201.554 77.050,201.622 76.982 C 201.945 76.659,204.651 76.887,206.029 77.353 M241.894 77.191 C 245.850 78.205,248.551 80.733,250.151 84.921 C 251.446 88.311,250.879 93.774,248.933 96.649 C 246.384 100.418,244.597 101.450,239.443 102.134 C 236.939 102.466,233.071 100.936,230.885 98.749 C 224.362 92.226,227.478 78.829,235.874 77.301 C 236.426 77.201,236.936 77.060,237.008 76.989 C 237.269 76.728,240.629 76.868,241.894 77.191 M203.131 84.119 C 198.799 84.842,199.211 94.058,203.611 94.880 C 205.149 95.167,207.954 93.894,207.959 92.907 C 207.960 92.777,208.110 92.387,208.292 92.042 C 208.759 91.155,208.764 87.875,208.300 87.016 C 208.113 86.670,207.960 86.288,207.959 86.167 C 207.958 85.898,206.756 84.737,206.178 84.447 C 205.668 84.191,203.864 83.997,203.131 84.119 M237.730 84.252 C 233.644 85.801,233.849 93.799,238.002 94.845 C 242.214 95.906,245.019 90.465,242.548 86.027 C 241.683 84.475,239.380 83.627,237.730 84.252 M236.168 104.891 C 238.155 105.789,238.137 105.583,238.128 127.394 C 238.121 143.943,238.115 144.214,237.667 145.919 C 237.417 146.870,237.163 147.599,237.102 147.538 C 237.041 147.477,236.698 147.711,236.341 148.057 L 235.690 148.688 230.568 148.730 C 225.171 148.775,224.503 148.678,224.503 147.850 C 224.503 147.277,225.154 145.686,225.466 145.496 C 225.609 145.409,225.787 145.062,225.861 144.725 C 225.935 144.388,226.131 144.000,226.296 143.863 C 226.462 143.726,226.597 143.403,226.597 143.145 C 226.597 142.887,226.974 141.871,227.435 140.888 C 227.895 139.905,228.272 139.008,228.272 138.895 C 228.272 138.782,228.414 138.573,228.586 138.429 C 228.759 138.286,228.901 137.911,228.901 137.595 C 228.901 137.280,229.136 136.675,229.424 136.250 C 229.712 135.826,229.948 135.349,229.948 135.191 C 229.948 135.033,230.183 134.434,230.471 133.861 C 230.759 133.288,230.995 132.644,230.995 132.430 C 230.995 132.217,231.272 131.476,231.611 130.785 C 232.709 128.545,233.298 127.080,233.178 126.886 C 233.114 126.782,233.343 126.203,233.688 125.600 C 235.122 123.089,234.621 120.645,232.670 120.637 C 231.344 120.632,231.133 120.793,230.400 122.369 C 230.015 123.197,229.522 124.221,229.304 124.644 C 229.085 125.067,228.754 125.868,228.568 126.424 C 226.432 132.797,225.323 134.175,224.511 131.464 C 224.365 130.978,224.115 130.393,223.955 130.165 C 223.796 129.936,223.665 129.583,223.665 129.380 C 223.665 129.002,222.892 126.853,222.213 125.340 C 222.006 124.879,221.769 124.195,221.686 123.819 C 221.114 121.212,218.632 119.798,217.178 121.251 C 216.395 122.034,216.687 124.294,217.808 126.133 C 218.033 126.503,218.219 127.013,218.219 127.265 C 218.220 127.517,218.307 127.778,218.414 127.844 C 218.521 127.910,218.716 128.316,218.849 128.746 C 218.981 129.177,219.308 129.953,219.575 130.471 C 219.841 130.990,220.128 131.743,220.211 132.147 C 220.294 132.550,220.429 132.974,220.510 133.089 C 220.708 133.371,222.073 136.771,222.593 138.279 C 223.072 139.672,222.905 140.758,221.900 142.759 C 221.604 143.348,221.361 143.985,221.361 144.174 C 221.361 144.363,221.213 144.744,221.032 145.020 C 220.787 145.394,220.731 145.842,220.813 146.766 C 221.005 148.929,223.673 148.717,196.854 148.675 C 183.898 148.655,172.572 148.626,171.685 148.612 L 170.072 148.586 169.046 147.618 C 167.678 146.327,167.761 147.708,167.743 125.967 C 167.727 105.931,167.745 105.550,168.700 105.550 C 168.875 105.550,169.073 105.408,169.139 105.236 C 169.205 105.063,169.391 104.921,169.551 104.921 C 169.712 104.921,169.843 104.834,169.843 104.727 C 169.843 104.353,170.830 104.342,202.827 104.370 L 235.079 104.398 236.168 104.891 M175.051 112.404 C 174.311 112.463,173.965 112.618,173.586 113.057 C 172.338 114.502,172.400 113.801,172.367 126.887 L 172.337 138.904 172.869 139.708 C 173.635 140.866,174.432 141.228,175.553 140.930 C 177.378 140.444,177.920 139.066,177.713 135.434 C 177.640 134.144,177.569 132.822,177.557 132.496 C 177.510 131.309,178.169 130.986,180.477 131.062 C 184.117 131.183,187.419 130.451,188.832 129.211 C 189.223 128.867,189.628 128.586,189.731 128.586 C 189.835 128.586,189.974 128.413,190.041 128.202 C 190.109 127.991,190.497 127.449,190.904 126.998 C 192.341 125.408,193.257 120.503,192.297 119.543 C 192.157 119.403,192.042 119.019,192.042 118.691 C 192.042 117.931,191.531 116.936,190.993 116.648 C 190.763 116.525,190.576 116.283,190.576 116.110 C 190.576 115.194,188.182 113.704,185.916 113.207 C 185.599 113.138,185.340 112.955,185.340 112.801 C 185.340 112.318,179.131 112.078,175.051 112.404 M183.976 117.112 C 185.895 117.519,187.048 119.253,187.040 121.723 C 187.028 125.433,185.435 126.672,180.645 126.693 C 177.411 126.707,177.592 126.994,177.592 121.852 C 177.592 116.866,177.557 116.943,179.803 116.882 C 180.592 116.860,181.288 116.792,181.349 116.732 C 181.460 116.620,182.062 116.707,183.976 117.112 M199.883 121.032 C 199.199 121.369,198.332 121.757,197.958 121.895 C 197.584 122.032,197.277 122.277,197.277 122.439 C 197.277 122.601,197.051 122.819,196.773 122.925 C 196.465 123.042,196.218 123.347,196.139 123.710 C 196.067 124.037,195.802 124.396,195.550 124.508 C 193.905 125.239,193.096 131.377,194.231 134.507 C 194.869 136.266,195.395 137.173,195.776 137.173 C 195.964 137.173,196.031 137.320,195.963 137.580 C 195.900 137.822,196.018 138.132,196.253 138.345 C 196.471 138.542,196.649 138.639,196.649 138.559 C 196.649 138.480,196.838 138.515,197.068 138.639 C 197.298 138.762,197.487 139.041,197.487 139.258 C 197.487 139.533,197.727 139.727,198.272 139.893 C 198.704 140.025,199.387 140.305,199.791 140.515 C 201.497 141.404,204.654 141.224,206.013 140.159 C 206.449 139.817,206.915 139.576,207.049 139.623 C 207.182 139.670,207.353 139.609,207.428 139.487 C 207.695 139.055,208.626 139.278,209.571 140.000 C 210.690 140.854,210.998 140.888,212.146 140.290 C 212.894 139.900,213.665 139.058,213.273 139.058 C 213.194 139.058,213.290 138.880,213.487 138.662 C 213.880 138.228,213.929 122.723,213.538 122.723 C 213.439 122.723,213.411 122.585,213.476 122.416 C 213.614 122.055,212.688 121.257,212.131 121.257 C 211.923 121.257,211.694 121.162,211.623 121.047 C 211.466 120.792,210.324 120.767,210.227 121.016 C 209.755 122.220,207.218 122.451,206.053 121.395 C 204.715 120.183,201.940 120.019,199.883 121.032 M205.654 125.460 C 208.024 126.529,209.173 130.298,208.043 133.298 C 207.870 133.759,207.704 134.249,207.675 134.387 C 207.646 134.526,207.345 134.852,207.005 135.113 C 206.665 135.374,206.340 135.648,206.283 135.721 C 204.781 137.633,200.198 136.146,199.279 133.448 C 197.487 128.189,201.250 123.474,205.654 125.460 " stroke="none" fill="#fbfbfb" fill-rule="evenodd"></path><path id="path3" d="M158.010 33.646 C 155.073 34.001,151.116 34.818,149.424 35.421 C 142.502 37.885,137.210 42.139,133.176 48.482 C 131.953 50.406,129.935 55.561,129.733 57.277 C 129.669 57.823,129.773 57.604,130.034 56.649 C 133.530 43.819,143.371 35.682,157.382 34.035 C 161.093 33.599,241.690 33.653,243.770 34.093 C 244.403 34.227,245.534 34.442,246.283 34.571 C 249.846 35.186,254.004 36.823,257.001 38.793 C 258.471 39.759,258.587 39.934,257.855 40.084 C 257.139 40.231,251.736 41.100,247.958 41.675 C 246.403 41.912,243.387 42.382,241.257 42.719 C 237.938 43.244,233.670 43.909,229.110 44.610 C 227.812 44.809,221.760 45.757,219.058 46.185 C 214.925 46.839,210.142 47.580,206.911 48.068 C 205.010 48.355,202.325 48.774,200.942 48.999 C 197.465 49.566,189.711 50.783,184.084 51.645 C 181.492 52.042,178.241 52.546,176.859 52.765 C 175.476 52.984,173.026 53.367,171.414 53.617 C 169.801 53.866,167.822 54.201,167.016 54.362 C 164.705 54.822,167.114 54.560,170.995 53.930 C 172.723 53.650,175.738 53.177,177.696 52.880 C 187.577 51.382,189.506 51.082,190.471 50.898 C 191.047 50.788,191.990 50.641,192.565 50.570 C 193.141 50.500,194.084 50.356,194.660 50.251 C 195.236 50.145,196.696 49.914,197.906 49.736 C 199.115 49.559,200.623 49.323,201.257 49.211 C 201.890 49.100,204.293 48.726,206.597 48.380 C 208.901 48.033,211.351 47.656,212.042 47.541 C 212.733 47.426,214.524 47.143,216.021 46.912 C 217.518 46.680,219.309 46.401,220.000 46.290 C 223.529 45.724,225.427 45.424,227.330 45.133 C 228.482 44.956,229.990 44.725,230.681 44.619 C 231.372 44.513,232.832 44.284,233.927 44.110 C 235.021 43.936,236.906 43.644,238.115 43.460 C 239.325 43.277,240.832 43.042,241.466 42.938 C 242.099 42.834,243.654 42.595,244.921 42.408 C 246.188 42.221,247.979 41.940,248.901 41.783 C 249.822 41.627,251.330 41.389,252.251 41.256 C 253.173 41.122,254.620 40.879,255.467 40.716 C 256.315 40.552,257.378 40.419,257.830 40.419 C 259.674 40.419,259.090 39.637,255.924 37.864 C 251.823 35.568,247.995 34.386,242.519 33.723 C 240.874 33.524,159.636 33.450,158.010 33.646 M163.455 54.869 C 162.858 55.021,162.868 55.029,163.665 55.033 C 164.126 55.035,164.738 54.961,165.026 54.869 C 165.750 54.637,164.366 54.637,163.455 54.869 M158.848 55.596 C 157.351 55.859,156.373 56.085,156.675 56.100 C 157.183 56.124,162.144 55.363,162.618 55.189 C 163.234 54.962,161.231 55.178,158.848 55.596 M153.532 56.554 C 151.396 57.113,149.484 58.242,147.717 59.987 C 146.345 61.342,144.551 63.783,144.767 64.000 C 144.817 64.049,145.218 63.500,145.659 62.778 C 147.520 59.730,151.234 57.140,154.607 56.539 C 155.385 56.401,156.021 56.251,156.021 56.207 C 156.021 56.027,154.996 56.170,153.532 56.554 M129.360 58.681 C 129.169 59.485,128.945 61.682,129.066 61.571 C 129.199 61.447,129.644 58.370,129.543 58.269 C 129.505 58.231,129.423 58.417,129.360 58.681 M128.723 63.403 C 128.544 65.298,128.579 145.187,128.759 146.387 C 128.837 146.906,128.901 128.128,128.901 104.660 C 128.901 81.191,128.891 61.990,128.878 61.990 C 128.866 61.990,128.796 62.626,128.723 63.403 M144.215 65.181 C 143.600 66.733,143.203 69.583,143.412 70.938 C 143.596 72.131,143.598 72.122,143.594 70.262 C 143.589 68.368,143.854 66.769,144.423 65.262 C 144.592 64.816,144.693 64.414,144.649 64.370 C 144.604 64.325,144.409 64.690,144.215 65.181 M221.220 67.468 C 220.164 67.703,218.933 68.956,218.746 69.988 C 218.372 72.059,218.740 99.368,219.150 99.907 C 219.723 100.660,220.369 101.111,221.072 101.247 L 221.675 101.364 221.047 101.127 C 218.772 100.269,218.817 100.629,218.890 83.979 L 218.953 69.634 219.541 68.864 C 220.842 67.164,223.422 67.213,224.708 68.961 C 225.056 69.434,225.340 69.708,225.340 69.571 C 225.340 69.129,223.884 67.691,223.293 67.551 C 222.979 67.476,222.581 67.383,222.408 67.345 C 222.236 67.306,221.701 67.362,221.220 67.468 M170.016 70.531 C 167.961 72.049,168.128 74.814,170.342 75.917 C 171.382 76.435,171.438 76.440,177.014 76.440 L 182.638 76.440 182.032 77.225 C 180.189 79.616,173.620 88.413,170.890 92.147 C 167.406 96.910,167.166 99.162,169.993 100.554 L 170.995 101.047 180.677 101.105 C 189.974 101.162,190.392 101.147,191.172 100.749 C 191.987 100.334,192.680 99.288,192.661 98.502 C 192.656 98.289,192.525 98.469,192.371 98.903 C 191.632 100.973,191.801 100.942,180.973 100.942 C 170.398 100.942,170.060 100.899,168.977 99.404 C 167.726 97.677,168.117 96.161,170.695 92.745 C 177.884 83.218,182.620 76.834,182.666 76.608 C 182.711 76.391,181.528 76.314,176.859 76.230 C 171.223 76.130,170.965 76.107,170.232 75.651 C 168.329 74.468,168.379 71.753,170.326 70.567 C 171.441 69.886,188.787 69.950,190.135 70.640 C 191.914 71.550,192.306 73.368,191.190 75.532 C 190.539 76.795,190.049 77.492,186.315 82.463 C 185.168 83.991,184.267 85.279,184.314 85.326 C 184.361 85.373,184.979 84.641,185.688 83.700 C 186.397 82.759,187.607 81.156,188.378 80.138 C 192.096 75.224,192.866 72.836,191.273 71.164 C 190.114 69.947,190.114 69.947,180.027 69.955 L 170.785 69.963 170.016 70.531 M225.368 84.313 C 225.338 99.909,225.371 99.431,224.246 100.455 C 223.984 100.694,223.487 100.996,223.141 101.127 L 222.513 101.365 223.183 101.266 C 224.035 101.140,224.631 100.638,225.185 99.581 C 225.660 98.675,225.982 74.863,225.567 71.309 C 225.464 70.428,225.384 75.616,225.368 84.313 M143.710 72.984 C 143.708 73.445,143.782 74.058,143.874 74.346 L 144.042 74.869 144.051 74.346 C 144.056 74.058,143.982 73.445,143.886 72.984 L 143.713 72.147 143.710 72.984 M144.223 76.463 C 144.284 77.109,144.410 77.957,144.502 78.348 C 144.807 79.642,144.719 78.135,144.402 76.649 L 144.112 75.288 144.223 76.463 M201.361 77.209 C 198.106 77.756,193.164 82.850,193.313 85.505 C 193.327 85.759,193.471 85.457,194.094 83.874 C 196.416 77.975,204.734 75.180,208.389 79.071 C 209.021 79.744,209.209 79.718,210.056 78.844 C 211.665 77.185,214.098 77.469,215.311 79.458 C 215.580 79.900,215.705 79.989,215.706 79.738 C 215.710 77.657,211.553 76.865,209.888 78.630 L 209.180 79.380 208.574 78.870 C 206.954 77.507,203.846 76.791,201.361 77.209 M236.859 77.203 C 232.895 78.003,229.115 81.410,228.182 85.026 C 228.107 85.314,228.365 84.890,228.754 84.084 C 234.254 72.692,250.183 76.324,250.337 89.005 C 250.353 90.330,250.297 91.885,250.212 92.461 C 250.088 93.303,250.102 93.405,250.285 92.984 C 250.694 92.042,250.756 88.222,250.389 86.500 C 249.032 80.126,242.981 75.969,236.859 77.203 M144.859 80.733 C 144.931 81.424,145.063 82.225,145.155 82.513 C 145.249 82.812,145.267 82.451,145.196 81.675 C 145.128 80.927,144.995 80.126,144.901 79.895 C 144.804 79.658,144.786 80.020,144.859 80.733 M215.707 89.671 C 215.588 100.517,215.690 99.916,213.810 100.911 C 213.101 101.286,213.022 101.371,213.477 101.268 C 215.872 100.726,215.931 100.433,215.866 89.406 L 215.812 80.105 215.707 89.671 M145.377 83.665 C 145.370 84.010,145.442 84.670,145.538 85.131 L 145.711 85.969 145.710 85.131 C 145.710 84.670,145.638 84.010,145.550 83.665 L 145.390 83.037 145.377 83.665 M202.596 83.960 C 201.582 84.420,200.702 85.286,200.293 86.224 C 199.853 87.235,199.958 87.342,200.452 86.387 C 201.330 84.692,202.304 84.008,204.188 83.764 L 205.340 83.615 204.398 83.592 C 203.878 83.580,203.070 83.744,202.596 83.960 M237.592 83.776 C 233.585 85.054,233.259 92.951,237.127 95.015 C 239.242 96.144,243.418 94.298,243.342 92.268 C 243.338 92.144,243.185 92.325,243.002 92.670 C 240.461 97.479,234.691 95.302,234.674 89.529 C 234.656 83.672,240.429 81.495,243.003 86.387 C 243.209 86.778,243.337 86.883,243.342 86.665 C 243.385 84.897,239.771 83.081,237.592 83.776 M206.283 84.313 C 206.801 84.609,207.300 84.984,207.393 85.148 C 207.485 85.311,207.666 85.445,207.796 85.445 C 208.129 85.445,207.127 84.416,206.450 84.064 C 205.450 83.543,205.307 83.756,206.283 84.313 M180.842 89.793 C 179.133 92.066,177.692 94.092,177.639 94.293 C 177.549 94.637,177.910 94.657,183.379 94.611 L 189.215 94.562 183.508 94.503 C 180.369 94.470,177.801 94.387,177.801 94.318 C 177.801 94.249,179.222 92.310,180.959 90.010 C 182.696 87.709,184.079 85.789,184.033 85.743 C 183.986 85.696,182.550 87.519,180.842 89.793 M207.958 85.731 C 207.958 85.819,208.072 86.097,208.210 86.349 C 208.349 86.600,208.576 87.325,208.716 87.958 C 208.917 88.868,208.974 88.968,208.988 88.434 C 208.997 88.062,208.850 87.355,208.660 86.863 C 208.324 85.996,207.958 85.405,207.958 85.731 M227.792 86.257 C 227.710 86.645,227.655 87.305,227.668 87.723 C 227.689 88.363,227.723 88.302,227.883 87.331 C 228.097 86.042,228.022 85.158,227.792 86.257 M192.945 86.649 C 192.518 88.698,193.073 94.366,193.740 94.779 C 193.980 94.927,193.991 94.986,193.501 93.424 C 193.052 91.991,192.900 88.750,193.192 86.859 C 193.374 85.681,193.180 85.517,192.945 86.649 M145.790 86.387 C 145.788 86.618,145.917 87.513,146.077 88.377 L 146.369 89.948 146.271 88.586 C 146.175 87.245,145.800 85.532,145.790 86.387 M243.455 89.529 C 243.455 90.831,243.525 91.788,243.609 91.655 C 243.694 91.522,243.763 90.565,243.763 89.529 C 243.763 88.492,243.694 87.535,243.609 87.402 C 243.525 87.269,243.455 88.226,243.455 89.529 M199.668 88.083 C 198.702 93.233,203.075 97.162,206.932 94.608 C 207.830 94.013,209.013 91.765,208.988 90.700 C 208.972 90.030,208.942 90.073,208.716 91.099 C 207.279 97.611,199.895 96.164,199.895 89.372 C 199.895 87.112,199.874 86.988,199.668 88.083 M146.527 91.099 C 146.592 91.733,146.725 92.581,146.823 92.984 C 146.950 93.511,146.967 93.345,146.881 92.392 C 146.815 91.663,146.682 90.815,146.585 90.507 C 146.467 90.133,146.448 90.328,146.527 91.099 M227.747 91.862 C 227.845 93.190,228.455 95.111,229.005 95.824 C 229.177 96.048,229.071 95.665,228.771 94.974 C 228.470 94.283,228.095 93.010,227.937 92.147 L 227.652 90.576 227.747 91.862 M249.452 94.842 C 248.097 98.254,244.610 101.024,241.026 101.537 C 239.881 101.700,239.812 101.732,240.554 101.754 C 243.924 101.855,248.358 98.503,249.739 94.812 C 250.277 93.374,250.025 93.401,249.452 94.842 M147.056 94.241 C 147.051 94.529,147.122 95.188,147.214 95.707 L 147.382 96.649 147.384 95.812 C 147.384 95.351,147.313 94.691,147.225 94.346 C 147.080 93.776,147.064 93.766,147.056 94.241 M190.542 94.945 C 191.512 95.296,192.174 95.990,192.419 96.914 C 192.573 97.492,192.633 97.566,192.649 97.197 C 192.695 96.121,191.261 94.632,190.220 94.676 C 190.009 94.685,190.152 94.803,190.542 94.945 M193.927 95.260 C 193.924 96.683,199.398 102.033,200.120 101.311 C 200.163 101.268,199.658 100.963,198.999 100.633 C 197.748 100.005,195.521 97.906,194.977 96.840 C 194.354 95.621,193.928 94.980,193.927 95.260 M229.326 96.463 C 229.321 96.654,230.440 98.065,231.308 98.960 C 232.128 99.807,234.138 101.013,235.079 101.223 C 235.424 101.301,235.028 101.042,234.199 100.648 C 232.721 99.945,230.823 98.317,229.781 96.859 C 229.535 96.513,229.330 96.335,229.326 96.463 M147.574 97.801 C 147.755 99.565,148.082 100.750,147.949 99.160 C 147.891 98.468,147.757 97.619,147.650 97.275 C 147.501 96.793,147.483 96.913,147.574 97.801 M208.693 99.684 C 208.029 100.417,206.425 101.230,205.131 101.488 C 204.226 101.669,204.063 101.745,204.548 101.760 C 205.493 101.788,207.092 101.219,207.958 100.544 C 209.174 99.598,209.200 99.594,209.823 100.292 C 210.375 100.910,211.628 101.531,211.858 101.301 C 211.918 101.241,211.679 101.128,211.326 101.051 C 210.955 100.969,210.390 100.565,209.982 100.089 C 209.165 99.134,209.185 99.140,208.693 99.684 M148.201 101.885 C 148.268 102.576,148.401 103.471,148.499 103.874 C 148.617 104.366,148.635 104.089,148.552 103.037 C 148.485 102.173,148.351 101.277,148.255 101.047 C 148.152 100.799,148.130 101.139,148.201 101.885 M200.733 101.567 C 201.129 101.741,203.100 101.865,202.914 101.704 C 202.866 101.663,202.262 101.573,201.571 101.506 C 200.773 101.427,200.467 101.450,200.733 101.567 M236.126 101.567 C 236.522 101.741,238.493 101.865,238.307 101.704 C 238.259 101.663,237.654 101.573,236.963 101.506 C 236.165 101.427,235.860 101.450,236.126 101.567 M170.576 104.815 C 167.837 105.775,167.913 105.097,167.997 127.958 C 168.071 147.907,167.932 146.293,169.705 147.726 L 170.510 148.377 195.451 148.433 C 209.959 148.465,220.470 148.410,220.579 148.301 C 220.690 148.190,220.632 147.717,220.439 147.149 C 220.058 146.025,219.971 146.338,221.832 142.094 C 222.236 141.173,222.627 140.222,222.700 139.982 C 222.818 139.596,222.281 138.024,221.060 135.183 C 220.911 134.838,220.642 134.178,220.462 133.717 C 219.997 132.530,217.819 127.139,217.500 126.387 C 217.100 125.443,216.381 123.516,216.235 123.000 C 215.898 121.799,217.373 120.212,218.828 120.210 C 220.352 120.209,221.058 121.153,222.513 125.141 C 222.931 126.287,223.401 127.555,223.558 127.958 C 223.715 128.361,224.093 129.398,224.399 130.262 C 225.398 133.085,225.582 133.272,226.093 131.990 C 226.265 131.558,226.485 131.016,226.581 130.785 C 226.677 130.555,226.919 129.942,227.118 129.424 C 227.317 128.906,227.611 128.232,227.771 127.926 C 227.932 127.620,228.063 127.191,228.063 126.973 C 228.063 126.755,228.141 126.486,228.237 126.377 C 228.332 126.268,228.728 125.330,229.116 124.293 C 230.526 120.524,231.918 119.444,233.909 120.576 C 235.691 121.589,235.521 122.822,232.750 128.959 C 232.476 129.566,232.251 130.138,232.251 130.228 C 232.251 130.319,232.016 130.881,231.728 131.478 C 231.440 132.075,231.204 132.646,231.204 132.747 C 231.204 132.848,230.908 133.626,230.545 134.476 C 229.770 136.293,229.353 137.277,228.694 138.848 C 228.428 139.482,228.030 140.412,227.809 140.916 C 227.588 141.420,227.220 142.315,226.991 142.906 C 226.405 144.413,226.164 144.974,225.423 146.564 C 224.465 148.617,224.205 148.512,230.042 148.440 C 235.736 148.369,235.930 148.319,237.079 146.621 L 237.592 145.864 237.592 126.597 C 237.592 108.498,237.569 107.282,237.216 106.546 C 236.803 105.684,235.537 104.702,234.873 104.729 C 234.539 104.743,234.583 104.805,235.079 105.026 C 236.371 105.601,237.145 106.685,237.288 108.119 C 237.582 111.057,237.313 145.502,236.992 146.119 C 236.652 146.772,235.937 147.473,235.248 147.828 C 234.786 148.066,225.614 148.197,225.386 147.969 C 225.290 147.873,225.688 146.805,226.717 144.398 C 226.865 144.052,227.268 143.063,227.614 142.199 C 227.959 141.335,228.638 139.686,229.123 138.534 C 229.978 136.503,231.785 132.139,234.212 126.243 C 236.023 121.845,235.572 120.024,232.670 120.011 C 230.781 120.002,230.261 120.612,228.685 124.681 C 226.800 129.547,225.706 132.147,225.544 132.147 C 225.355 132.147,225.341 132.112,224.193 128.901 C 221.169 120.435,220.906 120.000,218.828 120.000 C 215.801 120.000,215.347 121.767,217.196 126.354 C 223.344 141.607,222.777 139.315,221.234 142.677 C 220.048 145.260,219.778 146.509,220.171 147.592 L 220.342 148.063 195.543 148.063 L 170.743 148.063 169.882 147.439 C 168.268 146.269,168.377 147.795,168.377 126.429 L 168.377 107.288 169.001 106.426 C 170.277 104.665,167.053 104.830,202.618 104.710 L 234.241 104.604 202.827 104.562 C 176.333 104.527,171.282 104.567,170.576 104.815 M148.719 105.131 C 148.714 105.419,148.840 106.267,148.998 107.016 L 149.286 108.377 149.165 107.016 C 149.099 106.267,148.973 105.419,148.886 105.131 L 148.727 104.607 148.719 105.131 M149.369 109.110 C 149.369 109.513,149.441 110.126,149.529 110.471 L 149.689 111.099 149.689 110.366 C 149.689 109.963,149.617 109.351,149.529 109.005 L 149.369 108.377 149.369 109.110 M149.878 112.251 C 149.943 112.885,150.076 113.733,150.174 114.136 C 150.301 114.663,150.318 114.497,150.232 113.544 C 150.166 112.815,150.033 111.967,149.936 111.659 C 149.818 111.284,149.799 111.480,149.878 112.251 M173.694 111.976 C 172.976 112.118,172.111 113.190,171.921 114.174 C 171.692 115.360,171.693 138.053,171.923 139.240 C 172.216 140.757,173.309 141.676,174.820 141.674 C 177.631 141.671,178.080 140.884,178.220 135.707 L 178.325 131.832 181.675 131.695 C 185.002 131.558,186.442 131.299,187.853 130.584 C 196.284 126.312,194.296 113.393,185.001 112.049 C 183.630 111.851,174.627 111.793,173.694 111.976 M184.861 112.282 C 185.758 112.413,186.539 112.583,186.597 112.658 C 186.654 112.733,187.245 113.057,187.909 113.378 C 195.458 117.023,194.172 128.877,186.000 130.970 C 185.063 131.210,183.739 131.309,181.456 131.309 C 177.501 131.309,177.801 130.938,177.801 135.818 C 177.801 138.866,177.741 139.619,177.459 140.096 C 176.532 141.664,174.300 141.888,172.960 140.548 L 172.147 139.735 172.147 126.925 C 172.147 113.345,172.135 113.517,173.120 112.636 C 173.799 112.029,181.550 111.795,184.861 112.282 M150.488 116.230 C 150.549 116.864,150.683 117.853,150.785 118.429 C 150.888 119.005,151.034 119.977,151.109 120.589 C 151.185 121.201,151.301 121.649,151.366 121.583 C 151.431 121.518,151.316 120.311,151.109 118.900 C 150.680 115.972,150.310 114.379,150.488 116.230 M179.760 117.233 L 178.054 117.294 177.925 117.982 C 177.657 119.409,177.841 125.874,178.159 126.192 C 178.517 126.550,181.936 126.584,183.532 126.245 C 186.436 125.628,187.878 121.689,186.152 119.085 C 185.068 117.447,183.832 117.089,179.760 117.233 M184.723 118.079 C 187.666 119.950,187.021 124.900,183.708 125.871 C 183.281 125.996,181.895 126.069,180.628 126.033 L 178.325 125.969 178.268 121.728 L 178.211 117.487 181.002 117.487 C 183.705 117.487,183.821 117.505,184.723 118.079 M200.838 119.978 C 197.017 120.613,193.748 124.409,193.079 128.988 C 191.733 138.196,200.382 144.892,207.555 140.196 C 208.083 139.850,208.117 139.860,209.090 140.602 C 210.748 141.868,212.618 141.568,213.907 139.828 C 214.335 139.251,214.346 139.032,214.346 130.807 L 214.346 122.378 213.836 121.634 C 212.715 119.998,210.738 119.711,209.117 120.948 C 208.121 121.708,208.066 121.724,207.550 121.401 C 205.297 119.991,203.301 119.568,200.838 119.978 M205.388 120.530 C 205.810 120.706,206.443 121.070,206.795 121.338 C 207.925 122.198,208.300 122.209,209.078 121.409 C 210.383 120.065,212.334 120.223,213.513 121.768 L 214.097 122.534 214.077 130.677 C 214.059 137.724,214.011 138.908,213.720 139.472 C 212.782 141.285,209.956 141.455,208.698 139.774 C 208.403 139.380,208.378 139.382,207.497 139.875 C 205.612 140.929,205.100 141.149,204.079 141.343 C 195.465 142.974,189.877 131.272,195.631 123.652 C 197.809 120.766,202.421 119.290,205.388 120.530 M151.569 123.141 C 151.636 123.890,151.765 124.738,151.856 125.026 C 151.950 125.322,151.967 124.957,151.895 124.188 C 151.825 123.440,151.695 122.592,151.607 122.304 C 151.519 122.016,151.502 122.393,151.569 123.141 M202.199 125.582 C 199.159 126.416,198.096 132.196,200.496 134.837 C 202.449 136.986,206.150 136.399,207.528 133.721 C 209.726 129.449,206.434 124.421,202.199 125.582 M205.957 126.445 C 207.854 127.763,208.511 131.203,207.306 133.508 C 205.204 137.532,199.922 136.164,199.438 131.470 C 198.989 127.119,202.753 124.218,205.957 126.445 M152.174 127.144 C 152.239 127.790,152.374 128.638,152.473 129.028 C 152.604 129.542,152.621 129.372,152.535 128.413 C 152.469 127.684,152.335 126.836,152.236 126.528 C 152.113 126.146,152.093 126.341,152.174 127.144 M152.691 130.291 C 152.680 130.595,152.805 131.585,152.970 132.490 C 153.135 133.395,153.333 134.637,153.410 135.249 C 153.488 135.861,153.602 136.311,153.664 136.248 C 153.773 136.140,153.205 131.992,152.872 130.471 C 152.737 129.850,152.709 129.822,152.691 130.291 M153.857 137.801 C 153.922 138.435,154.055 139.283,154.153 139.686 C 154.280 140.213,154.297 140.046,154.211 139.094 C 154.145 138.365,154.012 137.517,153.915 137.209 C 153.797 136.834,153.778 137.030,153.857 137.801 M154.368 140.991 C 154.348 141.511,154.600 143.054,155.166 145.864 L 155.377 146.911 155.272 145.759 C 155.090 143.772,154.401 140.138,154.368 140.991 M155.424 147.539 C 155.421 147.770,155.549 148.665,155.709 149.529 L 155.998 151.099 155.889 149.695 C 155.780 148.294,155.434 146.688,155.424 147.539 M129.119 148.949 C 129.178 149.725,129.315 150.573,129.424 150.834 C 129.659 151.399,129.484 149.442,129.194 148.272 C 129.059 147.728,129.040 147.901,129.119 148.949 M129.649 151.800 C 129.632 152.342,130.469 155.256,130.603 155.121 C 130.649 155.075,130.457 154.199,130.176 153.173 C 129.894 152.148,129.657 151.530,129.649 151.800 M156.162 152.555 C 156.232 153.241,156.364 154.042,156.455 154.335 C 156.552 154.647,156.569 154.345,156.497 153.613 C 156.429 152.921,156.297 152.120,156.204 151.832 C 156.104 151.523,156.087 151.818,156.162 152.555 M156.686 155.707 C 156.679 156.052,156.751 156.712,156.847 157.173 L 157.020 158.010 157.019 157.173 C 157.019 156.712,156.947 156.052,156.859 155.707 L 156.699 155.079 156.686 155.707 M130.785 155.838 C 132.338 161.031,137.708 167.702,142.879 170.859 C 147.117 173.448,153.308 175.565,156.368 175.473 C 157.313 175.445,157.227 175.423,154.346 174.966 C 144.698 173.435,134.794 165.855,131.802 157.714 C 131.608 157.186,131.370 156.664,131.274 156.555 C 131.178 156.446,131.099 156.192,131.099 155.991 C 131.099 155.791,130.995 155.562,130.868 155.484 C 130.709 155.385,130.683 155.497,130.785 155.838 M157.208 159.162 C 157.273 159.796,157.406 160.644,157.503 161.047 C 157.631 161.574,157.647 161.408,157.562 160.455 C 157.496 159.726,157.363 158.878,157.266 158.570 C 157.148 158.195,157.129 158.391,157.208 159.162 M157.712 162.321 C 157.721 162.599,157.954 164.099,158.230 165.654 C 158.771 168.705,158.764 167.770,158.218 164.194 C 157.894 162.072,157.679 161.278,157.712 162.321 M158.878 169.843 C 159.080 171.729,159.371 172.686,159.229 170.995 C 159.161 170.188,159.027 169.340,158.931 169.110 C 158.825 168.857,158.804 169.147,158.878 169.843 M159.512 174.031 L 159.630 175.602 158.401 175.556 C 157.456 175.521,157.303 175.552,157.739 175.693 C 158.050 175.793,158.663 175.861,159.100 175.843 L 159.895 175.812 159.823 174.706 C 159.783 174.098,159.671 173.344,159.572 173.030 C 159.459 172.667,159.437 173.029,159.512 174.031 " stroke="none" fill="#9adcda" fill-rule="evenodd"></path><path id="path4" d="M157.068 33.526 C 155.097 33.779,151.361 34.562,150.995 34.799 C 150.763 34.949,150.818 34.970,151.204 34.879 C 157.294 33.446,154.790 33.516,200.000 33.516 C 244.845 33.516,243.515 33.479,248.901 34.885 C 249.226 34.970,249.250 34.950,249.005 34.796 C 248.590 34.534,244.959 33.795,242.728 33.519 C 240.577 33.252,159.153 33.259,157.068 33.526 M149.215 35.280 C 148.377 35.664,148.791 35.673,149.843 35.294 C 150.304 35.128,150.492 34.992,150.262 34.992 C 150.031 34.993,149.560 35.122,149.215 35.280 M250.262 35.310 C 252.130 35.938,253.962 36.763,255.864 37.833 C 256.929 38.432,257.801 38.857,257.801 38.776 C 257.801 38.695,257.448 38.444,257.016 38.219 C 256.584 37.993,255.765 37.539,255.197 37.211 C 253.899 36.462,250.223 34.970,249.707 34.984 C 249.494 34.989,249.743 35.136,250.262 35.310 M147.644 35.861 C 145.070 36.996,142.911 38.163,142.408 38.691 C 142.236 38.873,142.518 38.767,143.037 38.456 C 144.429 37.620,147.678 36.021,147.983 36.021 C 148.128 36.021,148.306 35.927,148.377 35.812 C 148.539 35.550,148.317 35.565,147.644 35.861 M140.435 39.995 C 139.753 40.563,139.102 40.970,138.989 40.900 C 138.876 40.830,138.845 40.872,138.920 40.994 C 138.995 41.115,138.750 41.483,138.376 41.811 C 138.002 42.140,137.273 42.880,136.756 43.456 C 135.867 44.447,135.888 44.435,137.154 43.246 C 137.889 42.555,138.878 41.626,139.350 41.183 C 139.823 40.739,140.610 40.098,141.099 39.759 C 141.589 39.420,141.990 39.100,141.990 39.048 C 141.990 38.795,141.571 39.050,140.435 39.995 M258.400 39.346 C 258.699 39.615,258.844 39.919,258.767 40.119 C 258.678 40.350,258.746 40.429,258.991 40.382 C 259.514 40.281,259.385 39.954,258.604 39.399 C 258.061 39.013,258.016 39.001,258.400 39.346 M256.021 40.628 L 255.393 40.788 256.126 40.788 C 256.529 40.788,257.141 40.716,257.487 40.628 L 258.115 40.468 257.382 40.468 C 256.979 40.468,256.366 40.540,256.021 40.628 M252.251 41.257 C 251.380 41.478,252.238 41.488,253.298 41.269 C 254.003 41.123,254.036 41.095,253.508 41.096 C 253.162 41.096,252.597 41.169,252.251 41.257 M249.227 41.694 C 248.715 41.795,248.197 41.921,248.075 41.976 C 247.701 42.144,250.129 41.835,250.576 41.658 L 250.995 41.493 250.576 41.502 C 250.346 41.508,249.738 41.594,249.227 41.694 M245.550 42.304 L 244.921 42.464 245.550 42.467 C 245.895 42.470,246.414 42.396,246.702 42.304 L 247.225 42.136 246.702 42.140 C 246.414 42.142,245.895 42.216,245.550 42.304 M241.466 42.932 C 240.731 43.167,241.499 43.175,242.618 42.944 L 243.455 42.771 242.723 42.767 C 242.319 42.766,241.754 42.840,241.466 42.932 M238.220 43.460 L 236.963 43.732 238.325 43.616 C 239.755 43.495,241.039 43.159,240.000 43.177 C 239.712 43.183,238.911 43.310,238.220 43.460 M234.172 44.023 C 233.558 44.134,233.099 44.268,233.151 44.320 C 233.257 44.427,236.063 44.007,236.207 43.863 C 236.348 43.722,235.423 43.795,234.172 44.023 M230.681 44.607 L 230.052 44.767 230.681 44.767 C 231.026 44.767,231.592 44.695,231.937 44.607 L 232.565 44.447 231.937 44.447 C 231.592 44.447,231.026 44.519,230.681 44.607 M135.356 45.079 C 134.883 45.603,134.586 46.073,134.727 46.073 C 134.778 46.073,135.071 45.743,135.378 45.340 C 136.009 44.513,135.996 44.367,135.356 45.079 M226.702 45.236 C 225.831 45.457,226.688 45.467,227.749 45.248 C 228.453 45.102,228.486 45.074,227.958 45.075 C 227.613 45.075,227.047 45.148,226.702 45.236 M223.874 45.654 L 223.141 45.809 223.979 45.815 C 224.440 45.819,225.052 45.747,225.340 45.654 C 226.057 45.425,224.965 45.425,223.874 45.654 M220.000 46.283 L 219.372 46.443 220.000 46.443 C 220.346 46.443,220.911 46.371,221.257 46.283 L 221.885 46.123 221.257 46.123 C 220.911 46.123,220.346 46.195,220.000 46.283 M133.989 46.912 C 133.530 47.719,133.666 47.718,134.241 46.911 C 134.487 46.565,134.611 46.283,134.517 46.284 C 134.423 46.285,134.185 46.567,133.989 46.912 M216.021 46.911 C 215.150 47.133,216.007 47.142,217.068 46.923 C 217.772 46.777,217.806 46.750,217.277 46.750 C 216.932 46.751,216.366 46.823,216.021 46.911 M212.998 47.358 C 212.372 47.462,211.811 47.595,211.752 47.655 C 211.611 47.796,213.984 47.518,214.660 47.314 L 215.183 47.156 214.660 47.163 C 214.372 47.166,213.624 47.254,212.998 47.358 M209.215 47.958 L 208.482 48.112 209.215 48.115 C 209.618 48.117,210.230 48.046,210.576 47.958 L 211.204 47.798 210.576 47.801 C 210.230 47.803,209.618 47.873,209.215 47.958 M132.907 48.639 L 132.531 49.319 132.962 48.796 C 133.345 48.331,133.515 47.958,133.344 47.958 C 133.311 47.958,133.114 48.264,132.907 48.639 M205.026 48.590 C 203.817 48.797,202.371 49.030,201.813 49.106 C 201.256 49.183,200.843 49.290,200.896 49.343 C 201.001 49.448,206.341 48.681,207.539 48.389 C 208.855 48.068,207.378 48.186,205.026 48.590 M198.534 49.634 L 197.801 49.788 198.639 49.801 C 199.099 49.808,199.665 49.732,199.895 49.634 C 200.441 49.399,199.647 49.399,198.534 49.634 M131.927 50.491 C 131.686 50.963,131.525 51.385,131.569 51.429 C 131.613 51.473,131.854 51.087,132.104 50.571 C 132.675 49.397,132.521 49.327,131.927 50.491 M194.555 50.262 L 194.031 50.429 194.555 50.426 C 194.843 50.423,195.361 50.350,195.707 50.262 L 196.335 50.102 195.707 50.098 C 195.361 50.096,194.843 50.170,194.555 50.262 M191.427 50.709 C 190.801 50.813,190.236 50.952,190.171 51.019 C 190.033 51.160,192.078 50.926,193.112 50.682 L 193.822 50.514 193.194 50.517 C 192.848 50.519,192.053 50.605,191.427 50.709 M187.225 51.425 L 185.864 51.699 187.330 51.580 C 188.818 51.460,190.219 51.112,189.110 51.138 C 188.822 51.145,187.974 51.274,187.225 51.425 M183.874 51.937 L 183.141 52.091 183.874 52.094 C 184.277 52.096,184.890 52.025,185.236 51.937 L 185.864 51.777 185.236 51.780 C 184.890 51.782,184.277 51.852,183.874 51.937 M180.838 52.378 C 178.987 52.645,178.757 52.765,180.345 52.635 C 181.873 52.510,183.540 52.186,182.618 52.194 C 182.330 52.196,181.529 52.279,180.838 52.378 M176.440 53.097 L 174.974 53.369 176.440 53.253 C 177.246 53.189,178.094 53.062,178.325 52.969 L 178.743 52.801 178.325 52.813 C 178.094 52.819,177.246 52.947,176.440 53.097 M130.494 53.845 C 130.365 54.215,130.297 54.555,130.341 54.600 C 130.386 54.644,130.528 54.378,130.657 54.008 C 130.786 53.638,130.855 53.299,130.810 53.254 C 130.766 53.209,130.623 53.475,130.494 53.845 M170.995 53.894 C 169.613 54.132,168.635 54.359,168.822 54.398 C 169.180 54.475,174.483 53.650,174.639 53.494 C 174.813 53.320,173.489 53.465,170.995 53.894 M165.877 54.688 C 164.276 54.954,164.278 55.106,165.881 54.941 C 167.522 54.771,168.658 54.482,167.644 54.493 C 167.298 54.496,166.504 54.584,165.877 54.688 M129.768 55.953 C 129.590 56.566,129.394 57.492,129.333 58.010 C 129.207 59.083,129.339 58.722,129.939 56.361 C 130.354 54.729,130.217 54.404,129.768 55.953 M160.697 55.507 C 158.006 55.977,157.464 56.131,159.022 55.981 C 160.921 55.799,164.606 55.121,163.665 55.128 C 163.204 55.131,161.869 55.302,160.697 55.507 M155.602 56.335 C 155.126 56.488,155.145 56.503,155.812 56.509 C 156.215 56.512,156.733 56.434,156.963 56.335 C 157.530 56.092,156.362 56.092,155.602 56.335 M152.356 57.188 C 151.895 57.409,151.754 57.532,152.042 57.461 C 152.830 57.265,153.866 56.788,153.508 56.787 C 153.335 56.786,152.817 56.966,152.356 57.188 M150.082 58.310 C 148.521 59.270,147.029 60.753,145.905 62.462 C 144.878 64.023,144.652 64.475,144.200 65.864 C 144.125 66.094,144.484 65.435,144.997 64.398 C 146.218 61.933,148.024 59.840,150.000 58.599 C 150.547 58.256,150.995 57.936,150.995 57.888 C 150.995 57.756,150.952 57.776,150.082 58.310 M128.922 60.150 C 128.846 60.528,128.742 61.545,128.691 62.408 C 128.608 63.823,128.628 63.761,128.897 61.788 C 129.188 59.657,129.201 58.762,128.922 60.150 M220.733 67.437 C 220.512 67.582,220.636 67.604,221.152 67.509 C 222.055 67.343,222.225 67.224,221.553 67.228 C 221.275 67.230,220.906 67.324,220.733 67.437 M222.426 67.300 C 222.474 67.342,222.796 67.439,223.141 67.516 C 223.600 67.619,223.685 67.599,223.455 67.444 C 223.173 67.253,222.216 67.119,222.426 67.300 M143.615 68.848 C 143.555 69.510,143.572 70.571,143.653 71.204 C 143.771 72.130,143.802 71.894,143.811 70.000 C 143.823 67.361,143.776 67.080,143.615 68.848 M219.890 67.912 C 219.328 68.362,218.638 69.365,218.652 69.714 C 218.660 69.917,218.749 69.842,218.873 69.529 C 218.987 69.241,219.377 68.699,219.738 68.325 C 220.404 67.636,220.474 67.445,219.890 67.912 M224.543 68.420 C 225.278 69.251,225.451 69.730,225.619 71.414 C 225.673 71.960,225.701 71.878,225.726 71.091 C 225.765 69.854,225.109 68.379,224.293 67.872 C 223.879 67.614,223.931 67.729,224.543 68.420 M175.759 69.895 C 178.149 69.929,182.060 69.929,184.450 69.895 C 186.840 69.861,184.885 69.834,180.105 69.834 C 175.325 69.834,173.369 69.861,175.759 69.895 M169.698 70.465 C 168.933 71.137,169.337 71.137,170.157 70.465 C 170.503 70.181,170.673 69.949,170.535 69.949 C 170.398 69.948,170.021 70.180,169.698 70.465 M189.990 70.213 C 190.718 70.562,191.621 71.402,191.842 71.937 C 191.960 72.222,192.020 72.254,192.029 72.036 C 192.042 71.708,190.664 70.157,190.360 70.157 C 190.267 70.157,190.019 70.109,189.808 70.049 C 189.597 69.990,189.679 70.063,189.990 70.213 M218.528 84.607 C 218.528 92.497,218.554 95.725,218.586 91.780 C 218.618 87.835,218.618 81.380,218.586 77.435 C 218.554 73.490,218.528 76.717,218.528 84.607 M192.090 73.298 C 192.090 73.702,192.134 73.866,192.186 73.665 C 192.239 73.463,192.239 73.134,192.186 72.932 C 192.134 72.730,192.090 72.895,192.090 73.298 M191.675 75.026 C 191.450 75.642,191.456 75.668,191.734 75.300 C 192.000 74.949,192.158 74.346,191.983 74.346 C 191.951 74.346,191.812 74.652,191.675 75.026 M144.221 75.497 C 144.291 75.958,144.383 76.374,144.426 76.422 C 144.584 76.602,144.466 75.481,144.283 75.079 C 144.151 74.787,144.132 74.914,144.221 75.497 M169.634 75.814 C 170.542 76.529,171.498 76.647,176.440 76.651 C 182.675 76.657,182.394 76.394,179.842 79.839 C 177.920 82.433,177.570 82.932,177.671 82.932 C 177.729 82.932,178.600 81.825,179.606 80.471 C 180.612 79.118,181.705 77.657,182.036 77.225 L 182.638 76.440 177.009 76.440 C 171.422 76.440,171.372 76.436,170.350 75.917 C 169.113 75.290,168.935 75.264,169.634 75.814 M190.516 77.078 C 190.087 77.764,189.785 78.325,189.845 78.325 C 189.997 78.325,191.465 76.003,191.372 75.909 C 191.329 75.867,190.944 76.393,190.516 77.078 M201.539 77.019 C 201.406 77.104,202.227 77.173,203.364 77.173 C 204.500 77.173,205.268 77.109,205.071 77.030 C 204.583 76.837,201.839 76.828,201.539 77.019 M236.932 77.019 C 236.799 77.104,237.809 77.173,239.176 77.173 C 240.542 77.173,241.499 77.109,241.302 77.030 C 240.813 76.837,237.232 76.827,236.932 77.019 M199.424 77.691 C 198.935 77.913,198.534 78.141,198.534 78.198 C 198.534 78.293,200.414 77.530,200.611 77.355 C 200.837 77.154,200.227 77.326,199.424 77.691 M211.226 77.495 C 210.893 77.595,210.374 77.903,210.074 78.179 C 209.368 78.831,208.915 78.979,208.565 78.675 C 208.410 78.540,208.460 78.641,208.677 78.901 C 209.165 79.485,209.059 79.509,209.892 78.626 C 211.689 76.721,215.292 77.558,215.779 79.993 C 216.151 81.855,215.927 98.738,215.520 99.537 C 215.302 99.964,215.197 100.314,215.287 100.314 C 216.092 100.314,216.650 81.627,215.903 79.647 C 215.230 77.862,213.169 76.913,211.226 77.495 M235.183 77.414 C 233.503 77.967,230.913 79.886,229.912 81.320 C 229.655 81.688,230.147 81.283,231.005 80.419 C 232.487 78.927,233.023 78.590,235.602 77.522 C 236.124 77.307,235.780 77.217,235.183 77.414 M242.723 77.592 C 243.679 77.960,244.055 77.954,243.246 77.584 C 242.901 77.426,242.476 77.299,242.304 77.303 C 242.131 77.306,242.319 77.436,242.723 77.592 M207.120 77.916 C 207.891 78.439,208.279 78.564,207.778 78.127 C 207.506 77.890,207.176 77.698,207.045 77.700 C 206.914 77.701,206.948 77.799,207.120 77.916 M144.727 78.656 C 144.735 79.107,144.826 79.665,144.929 79.895 C 145.051 80.169,145.072 79.915,144.990 79.162 C 144.839 77.779,144.706 77.523,144.727 78.656 M245.259 78.743 C 245.676 78.963,246.659 79.831,247.444 80.671 C 248.229 81.511,248.713 81.965,248.519 81.680 C 247.569 80.283,245.288 78.300,244.670 78.334 C 244.578 78.339,244.843 78.523,245.259 78.743 M196.912 79.270 C 195.963 80.082,194.439 82.048,194.619 82.228 C 194.682 82.291,194.874 82.071,195.045 81.740 C 195.217 81.409,195.941 80.552,196.654 79.836 C 198.105 78.380,198.204 78.164,196.912 79.270 M188.482 80.000 C 188.236 80.346,188.081 80.628,188.139 80.628 C 188.197 80.628,188.445 80.346,188.691 80.000 C 188.937 79.654,189.091 79.372,189.034 79.372 C 188.976 79.372,188.728 79.654,188.482 80.000 M225.625 81.885 C 225.625 82.979,225.661 83.427,225.704 82.880 C 225.747 82.332,225.747 81.437,225.704 80.890 C 225.661 80.343,225.625 80.791,225.625 81.885 M186.791 82.251 C 186.187 83.029,185.405 84.042,185.053 84.503 C 184.701 84.963,184.339 85.372,184.249 85.410 C 184.158 85.449,184.084 85.575,184.084 85.692 C 184.084 85.808,183.472 86.696,182.725 87.664 C 181.978 88.632,181.459 89.424,181.573 89.424 C 181.687 89.424,181.782 89.353,181.783 89.267 C 181.785 89.181,182.044 88.816,182.359 88.457 C 182.674 88.097,183.309 87.270,183.770 86.619 C 184.774 85.200,186.900 82.368,187.410 81.771 C 187.874 81.228,188.116 80.838,187.989 80.838 C 187.934 80.838,187.395 81.474,186.791 82.251 M145.263 81.990 C 145.500 83.582,145.756 84.405,145.620 83.141 C 145.552 82.508,145.416 81.801,145.317 81.571 C 145.199 81.295,145.180 81.437,145.263 81.990 M228.380 83.834 C 228.221 84.214,228.037 84.803,227.971 85.142 C 227.842 85.804,227.908 85.680,228.508 84.136 C 228.942 83.020,228.831 82.756,228.380 83.834 M203.072 83.950 C 202.855 84.036,203.312 84.107,204.128 84.114 C 205.708 84.129,206.256 84.335,207.277 85.302 C 207.652 85.656,207.958 85.876,207.958 85.790 C 207.958 84.688,204.503 83.387,203.072 83.950 M237.488 84.103 C 236.484 84.539,235.860 85.164,235.267 86.328 C 234.572 87.693,234.639 87.869,235.370 86.597 C 237.692 82.553,241.904 83.246,243.264 87.896 L 243.558 88.901 243.449 87.991 C 243.083 84.948,240.072 82.983,237.488 84.103 M176.264 84.607 C 176.060 84.953,175.927 85.236,175.970 85.236 C 176.012 85.236,176.256 84.953,176.511 84.607 C 176.767 84.262,176.899 83.979,176.805 83.979 C 176.712 83.979,176.468 84.262,176.264 84.607 M201.681 84.739 C 199.151 86.868,199.253 92.522,201.853 94.323 C 203.809 95.679,205.903 95.482,207.435 93.797 C 208.049 93.121,208.040 93.124,207.055 93.908 C 202.074 97.870,197.037 89.156,201.838 84.883 C 202.760 84.062,202.629 83.942,201.681 84.739 M145.795 85.445 C 145.805 86.309,146.134 87.202,146.142 86.387 C 146.146 86.042,146.068 85.571,145.969 85.340 C 145.805 84.960,145.789 84.969,145.795 85.445 M250.180 85.550 C 250.352 86.320,250.472 86.487,250.468 85.951 C 250.466 85.730,250.369 85.408,250.252 85.236 C 250.097 85.006,250.078 85.091,250.180 85.550 M192.999 85.774 C 192.922 86.081,192.900 86.373,192.949 86.422 C 192.998 86.471,193.102 86.261,193.179 85.954 C 193.256 85.647,193.278 85.355,193.229 85.306 C 193.180 85.256,193.076 85.467,192.999 85.774 M175.592 85.605 C 175.471 85.690,175.146 86.089,174.869 86.492 C 174.592 86.895,174.314 87.272,174.251 87.330 C 173.923 87.629,173.542 88.227,173.764 88.094 C 174.010 87.946,176.009 85.442,175.876 85.448 C 175.841 85.450,175.713 85.521,175.592 85.605 M208.078 86.492 C 208.153 86.780,208.298 87.105,208.401 87.215 C 208.699 87.535,208.608 87.076,208.256 86.492 L 207.941 85.969 208.078 86.492 M227.370 88.429 C 227.302 89.149,227.324 90.304,227.418 90.995 C 227.570 92.112,227.592 91.966,227.617 89.686 C 227.647 86.864,227.559 86.416,227.370 88.429 M146.333 88.586 C 146.400 89.335,146.530 90.183,146.621 90.471 C 146.715 90.767,146.731 90.402,146.659 89.634 C 146.589 88.885,146.460 88.037,146.372 87.749 C 146.284 87.461,146.267 87.838,146.333 88.586 M250.754 89.424 C 250.754 90.403,250.790 90.804,250.834 90.314 C 250.878 89.825,250.878 89.024,250.834 88.534 C 250.790 88.045,250.754 88.445,250.754 89.424 M234.622 89.424 C 234.622 90.173,234.660 90.479,234.706 90.105 C 234.753 89.730,234.753 89.118,234.706 88.743 C 234.660 88.369,234.622 88.675,234.622 89.424 M172.718 89.356 C 172.346 89.895,171.802 90.626,171.509 90.979 C 170.859 91.763,168.925 94.435,168.693 94.869 C 168.381 95.451,168.913 94.805,170.501 92.670 C 173.004 89.304,173.656 88.377,173.521 88.377 C 173.452 88.377,173.090 88.818,172.718 89.356 M208.734 89.607 C 208.653 89.996,208.597 90.562,208.609 90.864 C 208.624 91.226,208.696 91.092,208.820 90.471 C 208.924 89.953,208.980 89.387,208.945 89.215 C 208.910 89.042,208.815 89.219,208.734 89.607 M179.496 91.949 C 178.538 93.222,177.788 94.297,177.830 94.338 C 177.872 94.379,180.702 94.445,184.119 94.484 C 187.536 94.523,190.285 94.508,190.227 94.450 C 190.170 94.393,187.523 94.298,184.346 94.241 C 180.770 94.176,178.544 94.056,178.504 93.927 C 178.468 93.812,179.096 92.829,179.900 91.742 C 180.704 90.656,181.361 89.737,181.361 89.701 C 181.361 89.503,181.090 89.830,179.496 91.949 M192.727 91.099 C 192.727 91.618,192.768 91.830,192.818 91.571 C 192.868 91.312,192.868 90.887,192.818 90.628 C 192.768 90.369,192.727 90.581,192.727 91.099 M225.618 91.832 C 225.619 92.639,225.657 92.943,225.703 92.508 C 225.748 92.074,225.747 91.414,225.701 91.042 C 225.655 90.671,225.618 91.026,225.618 91.832 M243.252 91.257 C 243.073 92.221,242.436 93.312,241.584 94.110 C 241.210 94.461,241.117 94.622,241.361 94.496 C 242.442 93.937,244.286 90.471,243.502 90.471 C 243.445 90.471,243.332 90.825,243.252 91.257 M234.774 91.476 C 234.751 92.123,236.196 94.312,236.801 94.544 C 236.987 94.615,236.878 94.412,236.558 94.092 C 236.238 93.772,235.708 92.992,235.380 92.357 C 235.053 91.723,234.780 91.327,234.774 91.476 M208.233 92.094 C 208.162 92.296,208.063 92.555,208.015 92.670 C 207.967 92.785,208.075 92.697,208.257 92.473 C 208.586 92.067,208.685 91.728,208.475 91.728 C 208.414 91.728,208.305 91.893,208.233 92.094 M192.915 92.670 C 192.912 92.901,192.990 93.277,193.089 93.508 C 193.318 94.042,193.318 93.491,193.089 92.775 C 192.954 92.354,192.920 92.333,192.915 92.670 M147.065 93.089 C 147.065 93.435,147.137 94.000,147.225 94.346 C 147.447 95.216,147.457 94.359,147.237 93.298 C 147.091 92.594,147.064 92.561,147.065 93.089 M250.172 93.313 C 250.095 93.620,250.079 93.919,250.137 93.976 C 250.194 94.034,250.304 93.830,250.381 93.523 C 250.458 93.216,250.474 92.918,250.417 92.860 C 250.359 92.802,250.249 93.006,250.172 93.313 M191.251 94.986 C 191.565 95.156,191.926 95.491,192.054 95.729 C 192.181 95.967,192.341 96.105,192.410 96.037 C 192.600 95.847,191.382 94.658,191.008 94.668 C 190.813 94.673,190.912 94.802,191.251 94.986 M193.508 94.874 C 193.508 95.827,197.214 100.524,197.966 100.524 C 198.066 100.524,197.625 100.045,196.986 99.460 C 195.779 98.358,193.927 95.790,193.927 95.220 C 193.927 95.041,193.832 94.836,193.717 94.764 C 193.602 94.693,193.508 94.742,193.508 94.874 M228.392 95.079 C 228.578 95.737,229.710 97.523,230.441 98.311 C 231.323 99.264,231.082 98.697,230.157 97.647 C 229.696 97.123,229.319 96.624,229.319 96.536 C 229.319 96.449,229.077 95.968,228.782 95.466 C 228.463 94.926,228.304 94.768,228.392 95.079 M237.377 94.861 C 237.451 94.981,237.757 95.079,238.058 95.079 C 238.714 95.079,238.638 94.978,237.836 94.785 C 237.447 94.692,237.289 94.718,237.377 94.861 M239.476 94.986 L 238.639 95.279 239.581 95.168 C 240.099 95.107,240.613 94.968,240.723 94.858 C 241.003 94.579,240.486 94.631,239.476 94.986 M147.476 96.021 C 147.476 96.366,147.552 96.885,147.644 97.173 C 147.807 97.682,147.812 97.679,147.812 97.068 C 147.812 96.723,147.736 96.204,147.644 95.916 C 147.481 95.407,147.476 95.410,147.476 96.021 M168.021 97.382 C 168.021 98.016,168.060 98.275,168.108 97.958 C 168.156 97.641,168.156 97.123,168.108 96.806 C 168.060 96.490,168.021 96.749,168.021 97.382 M192.636 97.585 C 192.725 99.156,192.265 100.185,191.228 100.733 C 190.812 100.953,190.565 101.137,190.681 101.142 C 192.078 101.198,193.728 97.522,192.747 96.536 C 192.645 96.434,192.596 96.892,192.636 97.585 M248.258 97.330 C 247.778 97.973,247.758 98.040,248.148 97.699 C 248.603 97.302,249.117 96.545,248.933 96.545 C 248.885 96.545,248.581 96.898,248.258 97.330 M225.578 98.071 C 225.546 98.967,224.849 100.484,224.388 100.661 C 224.221 100.725,224.088 100.886,224.092 101.017 C 224.097 101.149,224.425 100.889,224.822 100.441 C 225.558 99.607,225.869 98.664,225.701 97.776 C 225.637 97.438,225.598 97.533,225.578 98.071 M247.105 98.768 C 246.825 99.069,246.127 99.635,245.553 100.024 C 244.978 100.414,244.615 100.733,244.746 100.733 C 245.089 100.733,247.473 98.905,247.615 98.533 C 247.784 98.095,247.687 98.139,247.105 98.768 M168.177 98.743 C 168.144 99.604,170.056 101.166,171.099 101.132 C 171.272 101.127,171.059 100.992,170.626 100.833 C 169.514 100.425,168.966 99.998,168.548 99.214 C 168.348 98.840,168.181 98.628,168.177 98.743 M231.204 99.014 C 231.204 99.171,232.453 100.144,233.246 100.606 C 233.832 100.946,233.458 100.527,232.827 100.136 C 232.453 99.904,231.935 99.515,231.675 99.273 C 231.416 99.030,231.204 98.914,231.204 99.014 M208.211 100.355 C 207.733 100.722,207.382 101.064,207.431 101.114 C 207.481 101.163,207.816 100.957,208.175 100.654 C 208.920 100.027,209.262 99.972,209.634 100.419 C 209.777 100.592,209.972 100.733,210.068 100.733 C 210.164 100.733,210.023 100.497,209.757 100.209 C 209.157 99.562,209.254 99.553,208.211 100.355 M218.848 99.777 C 218.848 99.983,220.103 101.223,220.207 101.120 C 220.252 101.074,219.965 100.719,219.569 100.332 C 219.173 99.944,218.848 99.695,218.848 99.777 M148.092 100.209 C 148.092 100.440,148.173 100.817,148.272 101.047 L 148.452 101.466 148.452 101.047 C 148.452 100.817,148.371 100.440,148.272 100.209 L 148.092 99.791 148.092 100.209 M198.325 100.637 C 198.325 100.790,200.024 101.598,200.204 101.531 C 200.298 101.495,199.914 101.260,199.350 101.008 C 198.786 100.756,198.325 100.589,198.325 100.637 M214.241 100.967 C 213.670 101.294,213.221 101.370,212.213 101.312 C 211.501 101.272,210.965 101.313,211.022 101.405 C 211.375 101.977,215.079 101.271,215.079 100.631 C 215.079 100.487,215.081 100.486,214.241 100.967 M176.283 101.309 C 178.846 101.342,183.039 101.342,185.602 101.309 C 188.165 101.275,186.068 101.248,180.942 101.248 C 175.817 101.248,173.720 101.275,176.283 101.309 M220.660 101.414 C 220.714 101.500,221.359 101.571,222.094 101.571 C 222.829 101.571,223.474 101.500,223.527 101.414 C 223.580 101.327,222.935 101.257,222.093 101.257 C 221.252 101.257,220.607 101.327,220.660 101.414 M234.764 101.361 C 234.937 101.473,235.267 101.559,235.497 101.553 L 235.916 101.541 235.497 101.361 C 234.871 101.092,234.348 101.092,234.764 101.361 M242.827 101.361 C 242.423 101.535,242.425 101.542,242.867 101.556 C 243.120 101.564,243.384 101.476,243.455 101.361 C 243.609 101.114,243.404 101.114,242.827 101.361 M202.461 102.044 C 203.067 102.190,203.635 102.190,204.241 102.044 C 205.067 101.846,205.004 101.830,203.351 101.830 C 201.698 101.830,201.634 101.846,202.461 102.044 M237.382 101.990 C 238.209 102.200,239.762 102.200,240.419 101.990 C 240.754 101.882,240.188 101.823,238.848 101.826 C 237.469 101.828,236.968 101.884,237.382 101.990 M148.712 103.892 C 148.723 104.285,148.811 104.843,148.908 105.131 C 149.020 105.469,149.040 105.246,148.963 104.503 C 148.827 103.185,148.681 102.831,148.712 103.892 M170.209 104.438 C 170.008 104.490,169.843 104.621,169.843 104.727 C 169.843 104.834,169.712 104.921,169.551 104.921 C 169.391 104.921,169.205 105.063,169.139 105.236 C 169.073 105.408,168.875 105.550,168.700 105.550 C 167.745 105.550,167.727 105.931,167.743 125.967 C 167.752 136.334,167.817 145.229,167.889 145.734 C 168.094 147.168,169.625 148.520,171.138 148.604 L 172.251 148.666 171.252 148.417 C 170.091 148.127,168.955 147.285,168.431 146.327 C 168.087 145.699,168.063 144.366,168.063 126.354 L 168.063 107.054 168.713 106.250 C 170.180 104.436,166.604 104.607,202.947 104.607 L 235.109 104.607 235.972 105.178 C 237.701 106.323,237.592 104.877,237.592 126.597 L 237.592 145.864 237.079 146.621 C 235.939 148.306,235.725 148.363,230.068 148.491 C 227.295 148.553,225.215 148.635,225.445 148.673 C 225.675 148.710,228.076 148.727,230.781 148.711 L 235.697 148.681 236.344 148.054 C 236.700 147.709,237.041 147.477,237.102 147.538 C 238.297 148.734,238.731 110.070,237.564 106.357 C 237.291 105.487,237.143 105.331,236.168 104.891 L 235.079 104.398 202.827 104.370 C 185.089 104.354,170.411 104.385,170.209 104.438 M149.246 107.330 C 149.316 107.906,149.408 108.416,149.451 108.464 C 149.615 108.648,149.490 107.100,149.309 106.702 C 149.180 106.420,149.160 106.625,149.246 107.330 M149.774 110.681 C 149.777 110.911,149.855 111.335,149.948 111.623 L 150.115 112.147 150.121 111.623 C 150.125 111.335,150.047 110.911,149.948 110.681 L 149.768 110.262 149.774 110.681 M174.031 112.194 C 173.743 112.247,173.333 112.446,173.120 112.636 C 172.135 113.517,172.147 113.345,172.147 126.925 L 172.147 139.735 172.960 140.548 C 174.733 142.321,177.825 141.213,177.791 138.816 C 177.781 138.119,177.779 138.121,177.455 139.058 C 176.629 141.449,174.245 141.787,172.869 139.708 L 172.337 138.904 172.367 126.887 C 172.400 113.743,172.334 114.456,173.637 113.015 L 174.186 112.409 177.936 112.301 C 182.445 112.172,185.340 112.363,185.340 112.790 C 185.340 112.950,185.599 113.138,185.916 113.207 C 188.182 113.704,190.576 115.194,190.576 116.110 C 190.576 116.283,190.763 116.525,190.993 116.648 C 191.531 116.936,192.042 117.931,192.042 118.691 C 192.042 119.019,192.157 119.403,192.297 119.543 C 193.257 120.503,192.341 125.408,190.904 126.998 C 190.497 127.449,190.109 127.991,190.041 128.202 C 189.974 128.413,189.835 128.586,189.731 128.586 C 189.628 128.586,189.223 128.867,188.832 129.211 C 187.422 130.449,184.115 131.184,180.493 131.062 C 177.875 130.975,177.069 131.596,177.580 133.308 C 177.756 133.896,177.766 133.882,177.783 133.023 C 177.817 131.304,177.807 131.309,181.456 131.309 C 183.739 131.309,185.063 131.210,186.000 130.970 C 194.172 128.877,195.458 117.023,187.909 113.378 C 187.245 113.057,186.654 112.733,186.597 112.658 C 186.231 112.181,176.150 111.809,174.031 112.194 M150.412 114.450 C 150.410 114.796,150.484 115.314,150.576 115.602 L 150.744 116.126 150.740 115.602 C 150.738 115.314,150.664 114.796,150.576 114.450 L 150.416 113.822 150.412 114.450 M181.349 116.732 C 181.288 116.792,180.592 116.860,179.803 116.882 C 177.557 116.943,177.592 116.866,177.592 121.852 C 177.592 126.836,177.528 126.702,179.894 126.702 C 180.740 126.702,181.368 126.639,181.291 126.562 C 181.215 126.485,180.552 126.444,179.819 126.471 C 177.781 126.545,177.820 126.641,177.867 121.691 C 177.888 119.398,177.963 117.464,178.033 117.394 C 178.409 117.018,183.817 117.240,184.651 117.665 C 188.183 119.467,187.322 125.495,183.424 126.253 C 181.532 126.621,181.442 126.652,182.211 126.677 C 184.190 126.742,186.273 125.490,186.789 123.925 C 187.775 120.940,186.407 117.627,183.976 117.112 C 182.062 116.707,181.460 116.620,181.349 116.732 M150.928 117.906 C 150.997 118.424,151.087 118.887,151.129 118.935 C 151.286 119.117,151.166 117.782,150.989 117.382 C 150.865 117.103,150.845 117.276,150.928 117.906 M199.345 120.813 C 188.904 125.268,193.090 143.424,204.079 141.343 C 205.100 141.149,205.612 140.929,207.497 139.875 C 208.378 139.382,208.403 139.380,208.698 139.774 C 209.956 141.455,212.782 141.285,213.720 139.472 C 214.011 138.908,214.059 137.724,214.077 130.677 L 214.097 122.534 213.513 121.768 C 212.334 120.223,210.383 120.065,209.078 121.409 C 208.300 122.209,207.925 122.198,206.795 121.338 C 205.025 119.990,201.805 119.763,199.345 120.813 M217.422 120.634 C 216.644 121.108,216.041 122.310,216.235 123.000 C 216.381 123.516,217.100 125.443,217.500 126.387 C 217.816 127.133,219.992 132.518,220.462 133.717 C 220.643 134.178,220.953 134.932,221.151 135.393 C 221.350 135.853,221.821 137.011,222.199 137.964 C 222.576 138.918,222.918 139.665,222.958 139.625 C 223.098 139.485,220.919 133.670,220.510 133.089 C 220.429 132.974,220.294 132.550,220.211 132.147 C 220.128 131.743,219.841 130.990,219.575 130.471 C 219.308 129.953,218.981 129.177,218.849 128.746 C 218.716 128.316,218.521 127.910,218.414 127.844 C 218.307 127.778,218.220 127.517,218.219 127.265 C 218.219 127.013,218.033 126.503,217.808 126.133 C 216.687 124.294,216.395 122.034,217.178 121.251 C 218.632 119.798,221.114 121.212,221.686 123.819 C 221.769 124.195,222.006 124.879,222.213 125.340 C 222.892 126.853,223.665 129.002,223.665 129.380 C 223.665 129.583,223.796 129.936,223.955 130.165 C 224.115 130.393,224.365 130.978,224.511 131.464 C 225.323 134.175,226.432 132.797,228.568 126.424 C 228.754 125.868,229.085 125.067,229.304 124.644 C 229.522 124.221,230.015 123.197,230.400 122.369 C 231.133 120.793,231.344 120.632,232.670 120.637 C 234.621 120.645,235.122 123.089,233.688 125.600 C 233.343 126.203,233.114 126.782,233.178 126.886 C 233.298 127.080,232.709 128.545,231.611 130.785 C 231.272 131.476,230.995 132.217,230.995 132.430 C 230.995 132.644,230.759 133.288,230.471 133.861 C 230.183 134.434,229.955 135.061,229.964 135.253 C 229.981 135.619,231.160 133.281,231.188 132.826 C 231.197 132.682,231.440 132.075,231.728 131.478 C 232.016 130.881,232.251 130.319,232.251 130.228 C 232.251 130.138,232.476 129.566,232.750 128.959 C 235.521 122.822,235.691 121.589,233.909 120.576 C 231.918 119.444,230.526 120.524,229.116 124.293 C 228.728 125.330,228.332 126.268,228.237 126.377 C 228.141 126.486,228.063 126.755,228.063 126.973 C 228.063 127.191,227.932 127.620,227.771 127.926 C 227.611 128.232,227.317 128.906,227.118 129.424 C 226.919 129.942,226.677 130.555,226.581 130.785 C 226.485 131.016,226.265 131.558,226.093 131.990 C 225.582 133.272,225.398 133.085,224.399 130.262 C 224.093 129.398,223.715 128.361,223.558 127.958 C 223.401 127.555,222.931 126.287,222.513 125.141 C 220.784 120.404,219.567 119.326,217.422 120.634 M204.964 120.679 C 205.286 120.822,205.776 121.144,206.053 121.395 C 207.218 122.451,209.755 122.220,210.227 121.016 C 210.324 120.767,211.466 120.792,211.623 121.047 C 211.694 121.162,211.923 121.257,212.131 121.257 C 212.688 121.257,213.614 122.055,213.476 122.416 C 213.411 122.585,213.439 122.723,213.538 122.723 C 213.929 122.723,213.880 138.228,213.487 138.662 C 213.290 138.880,213.194 139.058,213.273 139.058 C 213.665 139.058,212.894 139.900,212.146 140.290 C 210.998 140.888,210.690 140.854,209.571 140.000 C 208.626 139.278,207.695 139.055,207.428 139.487 C 207.353 139.609,207.182 139.670,207.049 139.623 C 206.915 139.576,206.449 139.817,206.013 140.159 C 204.654 141.224,201.497 141.404,199.791 140.515 C 199.387 140.305,198.704 140.025,198.272 139.893 C 197.727 139.727,197.487 139.533,197.487 139.258 C 197.487 139.041,197.298 138.762,197.068 138.639 C 196.838 138.515,196.649 138.480,196.649 138.559 C 196.649 138.639,196.471 138.542,196.253 138.345 C 196.018 138.132,195.900 137.822,195.963 137.580 C 196.031 137.320,195.964 137.173,195.776 137.173 C 195.395 137.173,194.869 136.266,194.231 134.507 C 193.096 131.377,193.905 125.239,195.550 124.508 C 195.802 124.396,196.067 124.037,196.139 123.710 C 196.218 123.347,196.465 123.042,196.773 122.925 C 197.051 122.819,197.277 122.601,197.277 122.439 C 197.277 122.277,197.584 122.032,197.958 121.895 C 198.332 121.757,199.199 121.369,199.883 121.032 C 201.274 120.347,203.818 120.170,204.964 120.679 M151.449 121.361 C 151.453 121.592,151.531 122.016,151.623 122.304 L 151.791 122.827 151.797 122.304 C 151.800 122.016,151.722 121.592,151.623 121.361 L 151.443 120.942 151.449 121.361 M152.088 125.340 C 152.085 125.686,152.159 126.204,152.251 126.492 L 152.419 127.016 152.415 126.492 C 152.413 126.204,152.339 125.686,152.251 125.340 L 152.091 124.712 152.088 125.340 M201.848 125.310 C 197.838 126.558,197.907 134.608,201.942 136.210 C 203.318 136.756,205.678 136.490,206.283 135.721 C 206.340 135.648,206.665 135.374,207.005 135.113 C 207.345 134.852,207.646 134.526,207.675 134.387 C 207.704 134.249,207.870 133.759,208.043 133.298 C 209.874 128.437,206.359 123.905,201.848 125.310 M206.263 126.243 C 210.728 129.857,206.732 138.297,201.763 135.749 C 198.095 133.869,198.406 126.622,202.199 125.582 C 203.326 125.273,205.502 125.627,206.263 126.243 M152.593 128.400 C 152.658 129.046,152.790 129.895,152.887 130.285 C 153.007 130.770,153.023 130.564,152.938 129.634 C 152.870 128.885,152.738 128.037,152.645 127.749 C 152.539 127.424,152.520 127.671,152.593 128.400 M153.129 131.937 C 153.134 132.225,153.211 132.743,153.298 133.089 L 153.458 133.717 153.468 132.984 C 153.474 132.581,153.397 132.063,153.298 131.832 C 153.135 131.452,153.119 131.462,153.129 131.937 M153.762 135.916 C 153.760 136.319,153.834 136.885,153.927 137.173 C 154.162 137.908,154.170 137.140,153.939 136.021 L 153.765 135.183 153.762 135.916 M229.331 136.364 C 229.095 136.751,228.902 137.316,228.901 137.618 C 228.901 137.921,228.759 138.286,228.586 138.429 C 228.414 138.573,228.272 138.782,228.272 138.895 C 228.272 139.008,227.895 139.905,227.435 140.888 C 226.974 141.871,226.597 142.887,226.597 143.145 C 226.597 143.403,226.462 143.726,226.296 143.863 C 226.131 144.000,225.935 144.388,225.861 144.725 C 225.787 145.062,225.609 145.409,225.466 145.496 C 224.874 145.856,224.274 148.106,224.699 148.369 C 224.808 148.436,224.888 148.324,224.879 148.120 C 224.869 147.916,225.163 147.089,225.533 146.283 C 225.902 145.476,226.290 144.628,226.395 144.398 C 226.500 144.168,226.770 143.496,226.997 142.906 C 227.223 142.315,227.588 141.420,227.809 140.916 C 228.030 140.412,228.428 139.482,228.694 138.848 C 228.960 138.215,229.361 137.291,229.586 136.795 C 230.089 135.689,229.918 135.401,229.331 136.364 M154.275 139.372 C 154.516 141.041,154.751 141.747,154.624 140.419 C 154.558 139.728,154.425 139.021,154.329 138.848 C 154.226 138.663,154.204 138.877,154.275 139.372 M222.618 140.113 C 222.618 140.306,221.994 141.780,220.672 144.712 C 220.171 145.823,220.147 146.729,220.597 147.563 C 220.915 148.153,220.920 148.135,220.813 146.845 C 220.730 145.851,220.784 145.398,221.032 145.020 C 221.213 144.744,221.361 144.373,221.361 144.196 C 221.361 144.020,221.643 143.279,221.987 142.550 C 222.614 141.224,222.995 139.895,222.749 139.895 C 222.677 139.895,222.618 139.993,222.618 140.113 M154.800 142.827 C 154.811 143.371,155.140 144.265,155.148 143.770 C 155.151 143.539,155.073 143.162,154.974 142.932 C 154.864 142.675,154.796 142.635,154.800 142.827 M128.735 147.435 C 128.800 148.414,128.928 149.403,129.019 149.634 C 129.199 150.092,129.066 148.388,128.788 146.702 C 128.663 145.937,128.649 146.135,128.735 147.435 M155.438 146.492 C 155.436 146.838,155.510 147.356,155.602 147.644 L 155.770 148.168 155.766 147.644 C 155.764 147.356,155.690 146.838,155.602 146.492 L 155.442 145.864 155.438 146.492 M196.754 148.482 L 172.880 148.589 195.812 148.685 C 221.147 148.791,220.291 148.798,220.598 148.491 C 220.718 148.371,220.774 148.295,220.723 148.323 C 220.671 148.351,209.885 148.423,196.754 148.482 M156.042 150.593 C 156.053 150.987,156.141 151.545,156.237 151.832 C 156.350 152.170,156.370 151.948,156.293 151.204 C 156.156 149.886,156.011 149.532,156.042 150.593 M129.336 151.518 C 129.406 152.094,129.543 152.707,129.640 152.880 C 129.866 153.283,129.637 151.457,129.390 150.890 C 129.274 150.623,129.254 150.850,129.336 151.518 M156.582 154.031 C 156.648 154.607,156.738 155.118,156.781 155.166 C 156.928 155.331,156.817 154.031,156.639 153.508 C 156.519 153.155,156.500 153.325,156.582 154.031 M129.861 153.613 C 129.855 153.843,129.941 154.173,130.052 154.346 C 130.321 154.762,130.321 154.239,130.052 153.613 L 129.872 153.194 129.861 153.613 M130.276 154.974 C 130.276 155.147,130.419 155.524,130.592 155.812 L 130.908 156.335 130.769 155.812 C 130.567 155.052,130.274 154.554,130.276 154.974 M157.104 157.487 C 157.114 158.351,157.443 159.244,157.451 158.429 C 157.455 158.084,157.376 157.613,157.277 157.382 C 157.114 157.001,157.098 157.011,157.104 157.487 M132.635 160.253 C 132.833 160.843,134.940 163.979,135.139 163.979 C 135.240 163.979,135.049 163.626,134.715 163.194 C 134.380 162.762,133.748 161.843,133.311 161.152 C 132.873 160.461,132.569 160.056,132.635 160.253 M157.717 161.169 C 157.729 161.505,157.818 162.016,157.916 162.304 C 158.036 162.657,158.055 162.486,157.973 161.780 C 157.837 160.602,157.685 160.240,157.717 161.169 M158.148 163.665 C 158.143 163.895,158.217 164.461,158.313 164.921 L 158.486 165.759 158.489 165.026 C 158.491 164.623,158.417 164.058,158.325 163.770 C 158.189 163.346,158.155 163.326,158.148 163.665 M135.862 164.949 C 136.697 166.014,139.848 169.015,140.781 169.634 C 141.158 169.884,140.995 169.688,140.419 169.199 C 139.843 168.710,138.430 167.359,137.278 166.197 C 136.126 165.035,135.489 164.473,135.862 164.949 M158.761 168.272 C 158.781 168.988,159.130 169.656,159.144 169.005 C 159.151 168.717,159.065 168.340,158.953 168.168 C 158.785 167.908,158.752 167.927,158.761 168.272 M142.206 170.604 C 142.214 170.844,143.746 171.764,145.457 172.555 C 147.484 173.494,147.385 173.326,145.236 172.183 C 144.199 171.632,143.092 171.011,142.775 170.802 C 142.458 170.594,142.202 170.505,142.206 170.604 M159.393 171.850 C 159.404 172.186,159.494 172.696,159.591 172.984 C 159.711 173.337,159.730 173.167,159.648 172.461 C 159.512 171.283,159.361 170.921,159.393 171.850 M147.331 173.361 C 147.623 173.623,150.150 174.527,150.266 174.411 C 150.318 174.359,149.632 174.059,148.742 173.745 C 147.851 173.431,147.216 173.258,147.331 173.361 M151.713 174.860 C 152.396 175.084,153.479 175.319,154.121 175.383 C 155.110 175.481,155.016 175.438,153.508 175.102 C 150.639 174.463,150.402 174.431,151.713 174.860 M157.068 175.801 C 158.675 176.154,158.953 176.178,158.953 175.969 C 158.953 175.882,158.741 175.799,158.482 175.784 C 158.223 175.768,157.492 175.699,156.859 175.629 L 155.707 175.503 157.068 175.801 " stroke="none" fill="#caf9ea" fill-rule="evenodd"></path></g></svg>